<?xml version="1.0" encoding="utf-8" standalone="no"?>
<!DOCTYPE svg PUBLIC "-//W3C//DTD SVG 1.1//EN"
  "http://www.w3.org/Graphics/SVG/1.1/DTD/svg11.dtd">
<!-- Created with matplotlib (https://matplotlib.org/) -->
<svg height="392.724063pt" version="1.1" viewBox="0 0 520.8 392.724063" width="520.8pt" xmlns="http://www.w3.org/2000/svg" xmlns:xlink="http://www.w3.org/1999/xlink">
 <defs>
  <style type="text/css">
*{stroke-linecap:butt;stroke-linejoin:round;}
  </style>
 </defs>
 <g id="figure_1">
  <g id="patch_1">
   <path d="M 0 392.724063 
L 520.8 392.724063 
L 520.8 0 
L 0 0 
z
" style="fill:none;"/>
  </g>
  <g id="axes_1">
   <g id="patch_2">
    <path d="M 67.2 350.625625 
L 513.6 350.625625 
L 513.6 24.465625 
L 67.2 24.465625 
z
" style="fill:#ffffff;"/>
   </g>
   <g id="matplotlib.axis_1">
    <g id="xtick_1">
     <g id="line2d_1">
      <path clip-path="url(#p2f496ac664)" d="M 151.567464 350.625625 
L 151.567464 24.465625 
" style="fill:none;stroke:#b0b0b0;stroke-linecap:square;stroke-width:0.8;"/>
     </g>
     <g id="line2d_2">
      <defs>
       <path d="M 0 0 
L 0 3.5 
" id="ma26a87460b" style="stroke:#000000;stroke-width:0.8;"/>
      </defs>
      <g>
       <use style="stroke:#000000;stroke-width:0.8;" x="151.567464" xlink:href="#ma26a87460b" y="350.625625"/>
      </g>
     </g>
     <g id="text_1">
      <!-- 1 -->
      <defs>
       <path d="M 21.875 56.25 
Q 16.796875 51.171875 8.984375 46.484375 
L 8.984375 53.90625 
Q 18.75 60.546875 25 69.53125 
L 29.6875 69.53125 
L 29.6875 2.34375 
L 21.875 2.34375 
z
" id="SimHei-49"/>
      </defs>
      <g transform="translate(148.067464 367.250625)scale(0.14 -0.14)">
       <use xlink:href="#SimHei-49"/>
      </g>
     </g>
    </g>
    <g id="xtick_2">
     <g id="line2d_3">
      <path clip-path="url(#p2f496ac664)" d="M 237.002871 350.625625 
L 237.002871 24.465625 
" style="fill:none;stroke:#b0b0b0;stroke-linecap:square;stroke-width:0.8;"/>
     </g>
     <g id="line2d_4">
      <g>
       <use style="stroke:#000000;stroke-width:0.8;" x="237.002871" xlink:href="#ma26a87460b" y="350.625625"/>
      </g>
     </g>
     <g id="text_2">
      <!-- 2 -->
      <defs>
       <path d="M 4.6875 3.90625 
Q 5.078125 9.765625 10.15625 14.453125 
Q 15.234375 19.140625 23.046875 29.09375 
Q 30.859375 39.0625 33.203125 44.53125 
Q 35.546875 50 34.953125 53.90625 
Q 34.375 57.8125 31.25 60.34375 
Q 28.125 62.890625 24.015625 62.5 
Q 19.921875 62.109375 16.203125 59.375 
Q 12.5 56.640625 10.546875 51.171875 
L 3.125 52.34375 
Q 6.25 61.328125 11.125 65.421875 
Q 16.015625 69.53125 22.65625 69.921875 
Q 26.5625 70.3125 29.6875 69.71875 
Q 32.8125 69.140625 36.125 66.984375 
Q 39.453125 64.84375 41.59375 60.546875 
Q 43.75 56.25 43.15625 50.1875 
Q 42.578125 44.140625 37.109375 35.734375 
Q 31.640625 27.34375 16.015625 9.375 
L 44.140625 9.375 
L 44.140625 2.34375 
L 4.6875 2.34375 
z
" id="SimHei-50"/>
      </defs>
      <g transform="translate(233.502871 367.250625)scale(0.14 -0.14)">
       <use xlink:href="#SimHei-50"/>
      </g>
     </g>
    </g>
    <g id="xtick_3">
     <g id="line2d_5">
      <path clip-path="url(#p2f496ac664)" d="M 322.438278 350.625625 
L 322.438278 24.465625 
" style="fill:none;stroke:#b0b0b0;stroke-linecap:square;stroke-width:0.8;"/>
     </g>
     <g id="line2d_6">
      <g>
       <use style="stroke:#000000;stroke-width:0.8;" x="322.438278" xlink:href="#ma26a87460b" y="350.625625"/>
      </g>
     </g>
     <g id="text_3">
      <!-- 3 -->
      <defs>
       <path d="M 3.90625 19.140625 
L 10.9375 20.3125 
Q 12.5 15.234375 16.015625 11.90625 
Q 19.53125 8.59375 24.796875 8.78125 
Q 30.078125 8.984375 33.203125 13.078125 
Q 36.328125 17.1875 35.9375 22.453125 
Q 35.546875 27.734375 31.828125 30.65625 
Q 28.125 33.59375 19.921875 34.765625 
L 19.921875 39.84375 
Q 28.125 40.625 31.828125 44.140625 
Q 35.546875 47.65625 35.15625 53.3125 
Q 34.765625 58.984375 30.078125 61.515625 
Q 25.390625 64.0625 20.109375 62.109375 
Q 14.84375 60.15625 11.71875 51.171875 
L 4.6875 52.34375 
Q 7.03125 59.375 11.125 64.0625 
Q 15.234375 68.75 22.265625 69.53125 
Q 29.296875 70.3125 34.5625 67.765625 
Q 39.84375 65.234375 41.984375 59.953125 
Q 44.140625 54.6875 42.578125 48.4375 
Q 41.015625 42.1875 33.59375 37.5 
Q 39.0625 35.15625 41.984375 30.46875 
Q 44.921875 25.78125 43.9375 18.15625 
Q 42.96875 10.546875 37.109375 5.859375 
Q 31.25 1.171875 23.828125 1.359375 
Q 16.40625 1.5625 10.9375 6.046875 
Q 5.46875 10.546875 3.90625 19.140625 
z
" id="SimHei-51"/>
      </defs>
      <g transform="translate(318.938278 367.250625)scale(0.14 -0.14)">
       <use xlink:href="#SimHei-51"/>
      </g>
     </g>
    </g>
    <g id="xtick_4">
     <g id="line2d_7">
      <path clip-path="url(#p2f496ac664)" d="M 407.873684 350.625625 
L 407.873684 24.465625 
" style="fill:none;stroke:#b0b0b0;stroke-linecap:square;stroke-width:0.8;"/>
     </g>
     <g id="line2d_8">
      <g>
       <use style="stroke:#000000;stroke-width:0.8;" x="407.873684" xlink:href="#ma26a87460b" y="350.625625"/>
      </g>
     </g>
     <g id="text_4">
      <!-- 4 -->
      <defs>
       <path d="M 31.25 17.1875 
L 1.171875 17.1875 
L 1.171875 23.828125 
L 32.8125 69.53125 
L 38.671875 69.53125 
L 38.671875 23.828125 
L 48.046875 23.828125 
L 48.046875 17.1875 
L 38.671875 17.1875 
L 38.671875 2.34375 
L 31.25 2.34375 
z
M 31.25 23.828125 
L 31.25 54.6875 
L 9.375 23.828125 
z
" id="SimHei-52"/>
      </defs>
      <g transform="translate(404.373684 367.250625)scale(0.14 -0.14)">
       <use xlink:href="#SimHei-52"/>
      </g>
     </g>
    </g>
    <g id="xtick_5">
     <g id="line2d_9">
      <path clip-path="url(#p2f496ac664)" d="M 493.309091 350.625625 
L 493.309091 24.465625 
" style="fill:none;stroke:#b0b0b0;stroke-linecap:square;stroke-width:0.8;"/>
     </g>
     <g id="line2d_10">
      <g>
       <use style="stroke:#000000;stroke-width:0.8;" x="493.309091" xlink:href="#ma26a87460b" y="350.625625"/>
      </g>
     </g>
     <g id="text_5">
      <!-- 5 -->
      <defs>
       <path d="M 8.59375 20.703125 
Q 11.328125 10.15625 17.96875 8.984375 
Q 24.609375 7.8125 28.703125 10.34375 
Q 32.8125 12.890625 34.5625 16.984375 
Q 36.328125 21.09375 36.125 26.171875 
Q 35.9375 31.25 33.390625 34.765625 
Q 30.859375 38.28125 26.953125 39.453125 
Q 23.046875 40.625 18.15625 39.453125 
Q 13.28125 38.28125 10.15625 33.984375 
L 3.515625 34.765625 
Q 4.296875 37.109375 10.9375 68.359375 
L 41.796875 68.359375 
L 41.796875 61.328125 
L 16.796875 61.328125 
Q 14.84375 50.78125 12.890625 44.53125 
Q 18.75 47.265625 23.828125 47.0625 
Q 28.90625 46.875 33.59375 44.71875 
Q 38.28125 42.578125 40.421875 38.859375 
Q 42.578125 35.15625 43.546875 31.4375 
Q 44.53125 27.734375 44.328125 23.4375 
Q 44.140625 19.140625 42.578125 14.640625 
Q 41.015625 10.15625 37.890625 7.21875 
Q 34.765625 4.296875 30.265625 2.53125 
Q 25.78125 0.78125 19.921875 1.171875 
Q 14.0625 1.5625 8.78125 5.46875 
Q 3.515625 9.375 1.5625 18.75 
z
" id="SimHei-53"/>
      </defs>
      <g transform="translate(489.809091 367.250625)scale(0.14 -0.14)">
       <use xlink:href="#SimHei-53"/>
      </g>
     </g>
    </g>
    <g id="text_6">
     <!-- 期限 -->
     <defs>
      <path d="M 76.5625 -0.390625 
Q 85.546875 -1.5625 84.765625 2.734375 
L 84.765625 24.609375 
L 67.578125 24.609375 
Q 66.796875 15.234375 63.28125 6.640625 
Q 59.765625 -1.953125 53.125 -9.375 
Q 50.390625 -5.859375 45.703125 -4.296875 
Q 52.34375 2.34375 55.65625 9.765625 
Q 58.984375 17.1875 59.5625 24.609375 
Q 60.15625 32.03125 60.15625 48.828125 
Q 60.15625 66.015625 59.765625 76.171875 
L 92.96875 76.171875 
Q 92.578125 68.75 92.578125 58.203125 
L 92.578125 0.78125 
Q 92.578125 -4.6875 89.0625 -6.640625 
Q 85.546875 -8.59375 79.6875 -9.375 
Q 79.6875 -5.078125 76.5625 -0.390625 
z
M 14.84375 67.1875 
Q 14.84375 73.046875 14.453125 80.078125 
L 22.65625 80.078125 
Q 22.265625 72.265625 22.265625 67.1875 
L 39.84375 67.1875 
Q 39.84375 74.609375 39.453125 80.078125 
L 48.046875 80.078125 
Q 47.65625 73.4375 47.65625 67.1875 
Q 50.390625 67.1875 54.6875 67.578125 
L 54.6875 60.9375 
Q 50.78125 61.328125 47.65625 61.328125 
L 47.65625 24.21875 
Q 50.78125 24.21875 54.6875 24.609375 
L 54.6875 17.96875 
Q 47.265625 18.359375 40.234375 18.359375 
L 19.140625 18.359375 
Q 10.546875 18.359375 4.296875 17.96875 
L 4.296875 24.609375 
Q 10.15625 24.21875 14.84375 24.21875 
L 14.84375 61.328125 
Q 11.328125 61.328125 6.640625 60.9375 
L 6.640625 67.578125 
Q 10.9375 67.1875 14.84375 67.1875 
z
M 84.765625 52.734375 
L 84.765625 70.3125 
L 67.96875 70.3125 
L 67.96875 52.734375 
z
M 84.765625 30.46875 
L 84.765625 46.875 
L 67.96875 46.875 
L 67.96875 30.46875 
z
M 25 11.328125 
Q 22.265625 10.15625 18.15625 4.484375 
Q 14.0625 -1.171875 10.15625 -5.46875 
Q 6.25 -2.734375 3.515625 -1.171875 
Q 7.03125 1.5625 10.9375 6.4375 
Q 14.84375 11.328125 17.1875 16.015625 
L 25 11.328125 
z
M 39.84375 52.734375 
L 39.84375 61.328125 
L 22.265625 61.328125 
L 22.265625 52.734375 
z
M 39.84375 24.21875 
L 39.84375 32.8125 
L 22.265625 32.8125 
L 22.265625 24.21875 
z
M 39.84375 38.671875 
L 39.84375 46.875 
L 22.265625 46.875 
L 22.265625 38.671875 
z
M 44.53125 -1.171875 
Q 38.28125 8.203125 34.765625 11.328125 
Q 37.109375 12.890625 39.84375 16.015625 
Q 44.53125 11.328125 50.78125 4.296875 
Q 47.65625 1.953125 44.53125 -1.171875 
z
" id="SimHei-26399"/>
      <path d="M 86.71875 77.34375 
Q 86.328125 70.3125 86.328125 57.8125 
Q 86.328125 45.703125 86.71875 38.671875 
L 68.359375 38.671875 
Q 68.359375 31.25 72.265625 23.046875 
Q 82.421875 29.6875 85.546875 35.15625 
Q 88.671875 30.46875 91.40625 28.125 
Q 84.375 24.609375 74.21875 17.96875 
Q 78.515625 12.109375 83.203125 7.8125 
Q 87.890625 3.515625 96.875 0.390625 
Q 92.1875 -1.953125 89.84375 -7.03125 
Q 80.46875 -1.171875 75.1875 4.875 
Q 69.921875 10.9375 66.59375 18.9375 
Q 63.28125 26.953125 62.109375 38.671875 
L 53.125 38.671875 
L 53.125 3.125 
Q 59.375 6.25 64.453125 10.546875 
Q 64.84375 7.03125 66.015625 2.34375 
Q 62.5 0.390625 56.828125 -2.734375 
Q 51.171875 -5.859375 47.265625 -8.984375 
Q 45.703125 -5.859375 42.96875 -1.953125 
Q 45.3125 0.390625 46.09375 5.078125 
L 46.09375 60.15625 
Q 46.09375 67.96875 45.703125 77.34375 
L 86.71875 77.34375 
z
M 39.0625 77.34375 
Q 32.03125 54.296875 29.296875 46.09375 
Q 37.109375 36.71875 38.28125 28.90625 
Q 39.453125 21.09375 34.953125 16.015625 
Q 30.46875 10.9375 23.828125 8.984375 
Q 23.4375 14.0625 20.3125 17.96875 
Q 27.34375 17.96875 29.296875 20.703125 
Q 31.25 23.4375 30.859375 29.484375 
Q 30.46875 35.546875 21.484375 45.703125 
Q 27.734375 63.28125 29.296875 71.09375 
L 17.578125 71.09375 
L 17.578125 -7.8125 
L 10.15625 -7.8125 
Q 10.546875 3.125 10.546875 13.671875 
L 10.546875 59.375 
Q 10.546875 66.40625 10.15625 77.34375 
L 39.0625 77.34375 
z
M 79.296875 44.921875 
L 79.296875 55.46875 
L 53.125 55.46875 
L 53.125 44.921875 
z
M 79.296875 61.328125 
L 79.296875 71.09375 
L 53.125 71.09375 
L 53.125 61.328125 
z
" id="SimHei-38480"/>
     </defs>
     <g transform="translate(276.4 383.774063)scale(0.14 -0.14)">
      <use xlink:href="#SimHei-26399"/>
      <use x="100" xlink:href="#SimHei-38480"/>
     </g>
    </g>
   </g>
   <g id="matplotlib.axis_2">
    <g id="ytick_1">
     <g id="line2d_11">
      <path clip-path="url(#p2f496ac664)" d="M 67.2 291.613445 
L 513.6 291.613445 
" style="fill:none;stroke:#b0b0b0;stroke-linecap:square;stroke-width:0.8;"/>
     </g>
     <g id="line2d_12">
      <defs>
       <path d="M 0 0 
L -3.5 0 
" id="m3a04c7a8bf" style="stroke:#000000;stroke-width:0.8;"/>
      </defs>
      <g>
       <use style="stroke:#000000;stroke-width:0.8;" x="67.2" xlink:href="#m3a04c7a8bf" y="291.613445"/>
      </g>
     </g>
     <g id="text_7">
      <!-- 0.28 -->
      <defs>
       <path d="M 3.125 29.296875 
Q 3.90625 50 6.4375 56.046875 
Q 8.984375 62.109375 13.671875 66.015625 
Q 18.359375 69.921875 25.1875 69.921875 
Q 32.03125 69.921875 37.109375 64.25 
Q 42.1875 58.59375 43.75 50 
Q 45.3125 41.40625 44.71875 30.265625 
Q 44.140625 19.140625 40.8125 12.109375 
Q 37.5 5.078125 30.859375 2.34375 
Q 24.21875 -0.390625 17.578125 2.921875 
Q 10.9375 6.25 8.203125 11.71875 
Q 5.46875 17.1875 4.296875 23.234375 
Q 3.125 29.296875 3.90625 50 
z
M 12.890625 52.734375 
Q 10.546875 31.25 12.5 22.84375 
Q 14.453125 14.453125 18.9375 10.9375 
Q 23.4375 7.421875 28.125 9.5625 
Q 32.8125 11.71875 34.953125 18.15625 
Q 37.109375 24.609375 37.109375 32.21875 
Q 37.109375 39.84375 36.515625 46.09375 
Q 35.9375 52.34375 33 57.421875 
Q 30.078125 62.5 25.1875 62.6875 
Q 20.3125 62.890625 16.59375 57.8125 
Q 12.890625 52.734375 10.546875 31.25 
z
" id="SimHei-48"/>
       <path d="M 16.796875 1.953125 
L 7.8125 1.953125 
L 7.8125 10.546875 
L 16.796875 10.546875 
z
" id="SimHei-46"/>
       <path d="M 2.734375 16.796875 
Q 2.734375 26.171875 5.078125 30.65625 
Q 7.421875 35.15625 12.890625 37.890625 
Q 8.203125 40.625 6.640625 43.9375 
Q 5.078125 47.265625 4.875 51.5625 
Q 4.6875 55.859375 6.046875 58.984375 
Q 7.421875 62.109375 10.15625 64.84375 
Q 12.890625 67.578125 16.203125 68.546875 
Q 19.53125 69.53125 23.4375 69.53125 
Q 27.34375 69.53125 30.46875 68.75 
Q 33.59375 67.96875 37.109375 65.421875 
Q 40.625 62.890625 42.1875 58.203125 
Q 43.75 53.515625 41.984375 47.265625 
Q 40.234375 41.015625 32.8125 37.5 
Q 39.453125 35.546875 42.1875 31.4375 
Q 44.921875 27.34375 44.921875 21.484375 
Q 44.921875 15.625 43.15625 12.109375 
Q 41.40625 8.59375 39.25 6.25 
Q 37.109375 3.90625 33.390625 2.53125 
Q 29.6875 1.171875 24.015625 1.171875 
Q 18.359375 1.171875 14.25 2.53125 
Q 10.15625 3.90625 7.421875 6.640625 
Q 4.6875 9.375 3.703125 13.078125 
Q 2.734375 16.796875 2.734375 26.171875 
z
M 10.9375 26.5625 
Q 10.546875 17.1875 12.296875 13.671875 
Q 14.0625 10.15625 18.75 9.171875 
Q 23.4375 8.203125 28.515625 9.375 
Q 33.59375 10.546875 35.546875 14.84375 
Q 37.5 19.140625 36.90625 23.4375 
Q 36.328125 27.734375 32.03125 30.65625 
Q 27.734375 33.59375 22.65625 33.203125 
Q 17.578125 32.8125 14.25 29.6875 
Q 10.9375 26.5625 10.546875 17.1875 
z
M 12.109375 56.25 
Q 12.109375 48.4375 14.84375 44.921875 
Q 17.578125 41.40625 23.4375 41.40625 
Q 29.296875 41.40625 32.21875 44.921875 
Q 35.15625 48.4375 34.953125 53.3125 
Q 34.765625 58.203125 31.4375 60.546875 
Q 28.125 62.890625 22.453125 62.5 
Q 16.796875 62.109375 14.453125 59.171875 
Q 12.109375 56.25 12.109375 48.4375 
z
" id="SimHei-56"/>
      </defs>
      <g transform="translate(32.2 296.425945)scale(0.14 -0.14)">
       <use xlink:href="#SimHei-48"/>
       <use x="50" xlink:href="#SimHei-46"/>
       <use x="100" xlink:href="#SimHei-50"/>
       <use x="150" xlink:href="#SimHei-56"/>
      </g>
     </g>
    </g>
    <g id="ytick_2">
     <g id="line2d_13">
      <path clip-path="url(#p2f496ac664)" d="M 67.2 224.255633 
L 513.6 224.255633 
" style="fill:none;stroke:#b0b0b0;stroke-linecap:square;stroke-width:0.8;"/>
     </g>
     <g id="line2d_14">
      <g>
       <use style="stroke:#000000;stroke-width:0.8;" x="67.2" xlink:href="#m3a04c7a8bf" y="224.255633"/>
      </g>
     </g>
     <g id="text_8">
      <!-- 0.29 -->
      <defs>
       <path d="M 12.5 1.171875 
Q 21.09375 15.625 26.5625 27.34375 
Q 16.796875 25.78125 10.34375 29.875 
Q 3.90625 33.984375 2.53125 41.015625 
Q 1.171875 48.046875 2.734375 53.703125 
Q 4.296875 59.375 7.609375 63.078125 
Q 10.9375 66.796875 15.625 68.359375 
Q 20.3125 69.921875 24.015625 69.921875 
Q 27.734375 69.921875 31.640625 68.359375 
Q 35.546875 66.796875 38.671875 63.671875 
Q 41.796875 60.546875 42.96875 57.21875 
Q 44.140625 53.90625 44.140625 48.625 
Q 44.140625 43.359375 40.234375 35.15625 
Q 36.328125 26.953125 21.09375 1.171875 
z
M 9.765625 50 
Q 10.9375 39.84375 14.640625 36.515625 
Q 18.359375 33.203125 22.65625 33.59375 
Q 26.953125 33.984375 29.484375 35.9375 
Q 32.03125 37.890625 34.375 42.578125 
Q 35.9375 48.4375 35.15625 52.53125 
Q 34.375 56.640625 31.046875 59.375 
Q 27.734375 62.109375 23.828125 62.109375 
Q 21.484375 62.5 17.765625 60.9375 
Q 14.0625 59.375 11.90625 54.6875 
Q 9.765625 50 10.9375 39.84375 
z
" id="SimHei-57"/>
      </defs>
      <g transform="translate(32.2 229.068133)scale(0.14 -0.14)">
       <use xlink:href="#SimHei-48"/>
       <use x="50" xlink:href="#SimHei-46"/>
       <use x="100" xlink:href="#SimHei-50"/>
       <use x="150" xlink:href="#SimHei-57"/>
      </g>
     </g>
    </g>
    <g id="ytick_3">
     <g id="line2d_15">
      <path clip-path="url(#p2f496ac664)" d="M 67.2 156.89782 
L 513.6 156.89782 
" style="fill:none;stroke:#b0b0b0;stroke-linecap:square;stroke-width:0.8;"/>
     </g>
     <g id="line2d_16">
      <g>
       <use style="stroke:#000000;stroke-width:0.8;" x="67.2" xlink:href="#m3a04c7a8bf" y="156.89782"/>
      </g>
     </g>
     <g id="text_9">
      <!-- 0.30 -->
      <g transform="translate(32.2 161.71032)scale(0.14 -0.14)">
       <use xlink:href="#SimHei-48"/>
       <use x="50" xlink:href="#SimHei-46"/>
       <use x="100" xlink:href="#SimHei-51"/>
       <use x="150" xlink:href="#SimHei-48"/>
      </g>
     </g>
    </g>
    <g id="ytick_4">
     <g id="line2d_17">
      <path clip-path="url(#p2f496ac664)" d="M 67.2 89.540008 
L 513.6 89.540008 
" style="fill:none;stroke:#b0b0b0;stroke-linecap:square;stroke-width:0.8;"/>
     </g>
     <g id="line2d_18">
      <g>
       <use style="stroke:#000000;stroke-width:0.8;" x="67.2" xlink:href="#m3a04c7a8bf" y="89.540008"/>
      </g>
     </g>
     <g id="text_10">
      <!-- 0.31 -->
      <g transform="translate(32.2 94.352508)scale(0.14 -0.14)">
       <use xlink:href="#SimHei-48"/>
       <use x="50" xlink:href="#SimHei-46"/>
       <use x="100" xlink:href="#SimHei-51"/>
       <use x="150" xlink:href="#SimHei-49"/>
      </g>
     </g>
    </g>
    <g id="text_11">
     <!-- 收益率 -->
     <defs>
      <path d="M 66.40625 78.90625 
Q 64.453125 75.78125 58.59375 63.28125 
L 80.46875 63.28125 
Q 88.671875 63.28125 95.703125 63.671875 
L 95.703125 56.25 
Q 88.671875 56.640625 82.8125 56.640625 
Q 81.640625 41.015625 78.515625 30.859375 
Q 75.390625 20.703125 71.484375 14.0625 
Q 76.5625 7.8125 82.609375 4.296875 
Q 88.671875 0.78125 96.875 -1.171875 
Q 92.1875 -4.296875 90.625 -8.59375 
Q 82.8125 -5.46875 77.34375 -1.5625 
Q 71.875 2.34375 66.796875 8.203125 
Q 59.375 0 43.359375 -9.765625 
Q 41.40625 -6.640625 35.9375 -3.515625 
Q 51.171875 2.34375 61.71875 14.453125 
Q 58.984375 20.703125 56.4375 27.921875 
Q 53.90625 35.15625 50.78125 46.875 
Q 46.484375 38.28125 44.140625 35.546875 
Q 41.40625 37.5 37.890625 39.453125 
Q 43.359375 47.265625 49.015625 59.953125 
Q 54.6875 72.65625 56.640625 82.03125 
Q 61.328125 80.078125 66.40625 78.90625 
z
M 15.234375 66.796875 
Q 14.453125 61.71875 14.453125 53.90625 
L 14.453125 24.609375 
L 27.734375 26.953125 
L 27.734375 69.140625 
Q 27.734375 74.609375 27.34375 80.46875 
L 35.15625 80.46875 
Q 34.765625 75.78125 34.765625 69.53125 
L 34.765625 4.6875 
Q 34.765625 -0.78125 35.15625 -8.59375 
L 27.34375 -8.59375 
Q 27.734375 -0.390625 27.734375 5.46875 
L 27.734375 21.09375 
Q 9.765625 16.40625 7.8125 14.453125 
Q 5.859375 17.578125 3.515625 21.09375 
Q 7.03125 23.046875 7.03125 28.125 
L 7.03125 55.859375 
Q 7.03125 61.328125 6.640625 66.796875 
L 15.234375 66.796875 
z
M 58.203125 49.21875 
Q 59.375 42.1875 61.90625 34.5625 
Q 64.453125 26.953125 67.1875 21.484375 
Q 73.828125 33.59375 75.390625 56.640625 
L 55.859375 56.640625 
Q 53.125 51.171875 51.5625 48.4375 
z
" id="SimHei-25910"/>
      <path d="M 44.140625 45.703125 
Q 37.890625 43.359375 31.4375 38.859375 
Q 25 34.375 19.140625 30.859375 
L 82.421875 30.859375 
Q 82.03125 24.609375 82.03125 15.625 
L 82.03125 -0.78125 
Q 90.625 -0.78125 96.484375 -0.390625 
L 96.484375 -8.203125 
Q 89.453125 -7.8125 82.03125 -7.8125 
L 20.703125 -7.8125 
Q 10.9375 -7.8125 3.90625 -8.203125 
L 3.90625 -0.390625 
Q 9.375 -0.78125 18.359375 -0.78125 
L 18.359375 16.40625 
Q 18.359375 24.609375 17.96875 30.078125 
Q 15.625 28.125 12.5 26.5625 
Q 10.15625 30.46875 6.640625 33.203125 
Q 12.5 35.546875 20.5 40.625 
Q 28.515625 45.703125 36.328125 53.125 
Q 39.84375 49.21875 44.140625 45.703125 
z
M 73.828125 78.90625 
Q 71.484375 76.5625 69.71875 72.453125 
Q 67.96875 68.359375 65.234375 63.671875 
L 72.265625 63.671875 
Q 83.59375 63.671875 92.1875 64.0625 
L 92.1875 56.640625 
Q 83.59375 57.03125 72.265625 57.03125 
L 30.859375 57.03125 
Q 21.09375 57.03125 8.59375 56.640625 
L 8.59375 64.0625 
Q 18.359375 63.671875 30.859375 63.671875 
L 57.421875 63.671875 
Q 58.984375 67.1875 60.734375 72.265625 
Q 62.5 77.34375 64.453125 82.03125 
L 73.828125 78.90625 
z
M 56.25 -0.78125 
L 56.25 24.609375 
L 43.75 24.609375 
L 43.75 -0.78125 
z
M 75 -0.78125 
L 75 24.609375 
L 62.890625 24.609375 
L 62.890625 -0.78125 
z
M 37.109375 -0.78125 
L 37.109375 24.609375 
L 25.390625 24.609375 
L 25.390625 -0.78125 
z
M 60.9375 52.34375 
Q 68.359375 49.21875 76.5625 45.703125 
Q 84.765625 42.1875 92.1875 39.0625 
Q 89.0625 35.9375 86.71875 31.25 
Q 78.515625 35.9375 70.5 39.640625 
Q 62.5 43.359375 56.640625 45.3125 
Q 58.59375 48.046875 60.9375 52.34375 
z
M 33.59375 82.03125 
Q 37.109375 76.953125 41.40625 67.96875 
Q 37.890625 66.796875 33.59375 64.453125 
Q 30.46875 72.65625 26.171875 78.515625 
Q 29.296875 79.6875 33.59375 82.03125 
z
" id="SimHei-30410"/>
      <path d="M 51.953125 80.46875 
Q 53.515625 76.5625 55.46875 70.703125 
L 75 70.703125 
Q 82.03125 70.703125 90.625 71.09375 
L 90.625 64.453125 
Q 82.03125 65.234375 74.609375 65.234375 
L 43.75 65.234375 
Q 46.484375 63.28125 51.5625 60.9375 
Q 48.046875 58.59375 44.921875 55.265625 
Q 41.796875 51.953125 38.671875 48.828125 
L 51.171875 48.828125 
Q 55.859375 53.515625 58.984375 58.984375 
Q 62.5 56.25 66.796875 53.515625 
Q 61.71875 50.78125 56.25 44.921875 
Q 50.78125 39.0625 41.015625 31.25 
L 60.15625 32.8125 
Q 58.203125 35.15625 56.25 37.890625 
Q 58.59375 38.671875 62.5 41.40625 
Q 66.40625 36.71875 73.4375 26.5625 
Q 69.921875 25.390625 66.015625 22.65625 
Q 65.234375 25 62.890625 27.734375 
Q 57.8125 27.34375 53.515625 27.34375 
L 53.515625 16.40625 
L 80.46875 16.40625 
Q 88.671875 16.40625 95.3125 16.796875 
L 95.3125 10.15625 
Q 89.0625 10.546875 80.078125 10.546875 
L 53.515625 10.546875 
L 53.515625 2.734375 
Q 53.515625 -4.6875 53.90625 -9.765625 
L 45.3125 -9.765625 
Q 45.703125 -4.6875 45.703125 2.734375 
L 45.703125 10.546875 
L 20.703125 10.546875 
Q 12.890625 10.546875 5.078125 10.15625 
L 5.078125 16.796875 
Q 12.890625 16.40625 21.09375 16.40625 
L 45.703125 16.40625 
L 45.703125 26.5625 
Q 42.1875 26.171875 38.671875 25.578125 
Q 35.15625 25 31.640625 23.828125 
Q 30.46875 27.734375 28.90625 31.25 
Q 32.421875 31.640625 36.328125 34.375 
Q 40.234375 37.109375 46.484375 43.75 
Q 35.9375 42.578125 31.640625 41.015625 
Q 30.859375 44.921875 28.90625 49.609375 
Q 32.421875 49.609375 36.328125 54.484375 
Q 40.234375 59.375 42.96875 65.234375 
L 26.5625 65.234375 
Q 17.96875 65.234375 10.15625 64.453125 
L 10.15625 71.09375 
Q 17.96875 70.703125 24.21875 70.703125 
L 46.484375 70.703125 
Q 45.3125 75.390625 43.75 78.515625 
Q 47.265625 79.296875 51.953125 80.46875 
z
M 25.390625 40.234375 
Q 26.953125 37.5 28.515625 34.375 
Q 24.609375 32.03125 20.703125 29.09375 
Q 16.796875 26.171875 12.5 22.265625 
Q 9.765625 26.171875 7.421875 29.296875 
Q 12.5 31.640625 17.1875 34.5625 
Q 21.875 37.5 25.390625 40.234375 
z
M 75.78125 41.40625 
Q 80.078125 38.671875 83.390625 36.515625 
Q 86.71875 34.375 91.796875 30.46875 
Q 88.671875 28.125 85.9375 25 
Q 82.8125 27.734375 79.09375 30.859375 
Q 75.390625 33.984375 71.484375 36.328125 
Q 73.828125 38.671875 75.78125 41.40625 
z
M 89.453125 55.078125 
Q 86.71875 53.90625 82.8125 50.96875 
Q 78.90625 48.046875 75 44.140625 
Q 72.265625 47.65625 69.921875 49.609375 
Q 73.4375 51.953125 76.171875 54.484375 
Q 78.90625 57.03125 82.8125 61.328125 
Q 86.328125 57.8125 89.453125 55.078125 
z
M 16.40625 60.15625 
Q 22.265625 56.25 27.734375 51.171875 
Q 24.609375 48.4375 22.265625 45.703125 
Q 16.796875 51.5625 10.546875 55.078125 
Q 13.671875 57.8125 16.40625 60.15625 
z
" id="SimHei-29575"/>
     </defs>
     <g transform="translate(7.2 185.795625)scale(0.14 -0.14)">
      <use xlink:href="#SimHei-25910"/>
      <use x="100" xlink:href="#SimHei-30410"/>
      <use x="200" xlink:href="#SimHei-29575"/>
     </g>
    </g>
   </g>
   <g id="line2d_19">
    <defs>
     <path d="M 0 3 
C 0.795609 3 1.55874 2.683901 2.12132 2.12132 
C 2.683901 1.55874 3 0.795609 3 0 
C 3 -0.795609 2.683901 -1.55874 2.12132 -2.12132 
C 1.55874 -2.683901 0.795609 -3 0 -3 
C -0.795609 -3 -1.55874 -2.683901 -2.12132 -2.12132 
C -2.683901 -1.55874 -3 -0.795609 -3 0 
C -3 0.795609 -2.683901 1.55874 -2.12132 2.12132 
C -1.55874 2.683901 -0.795609 3 0 3 
z
" id="mcec9a27b99" style="stroke:#1f77b4;"/>
    </defs>
    <g clip-path="url(#p2f496ac664)">
     <use style="fill:#1f77b4;stroke:#1f77b4;" x="87.490909" xlink:href="#mcec9a27b99" y="335.80017"/>
     <use style="fill:#1f77b4;stroke:#1f77b4;" x="108.849761" xlink:href="#mcec9a27b99" y="298.483942"/>
     <use style="fill:#1f77b4;stroke:#1f77b4;" x="130.208612" xlink:href="#mcec9a27b99" y="265.882761"/>
     <use style="fill:#1f77b4;stroke:#1f77b4;" x="151.567464" xlink:href="#mcec9a27b99" y="236.380039"/>
     <use style="fill:#1f77b4;stroke:#1f77b4;" x="237.002871" xlink:href="#mcec9a27b99" y="236.380039"/>
     <use style="fill:#1f77b4;stroke:#1f77b4;" x="322.438278" xlink:href="#mcec9a27b99" y="129.011686"/>
     <use style="fill:#1f77b4;stroke:#1f77b4;" x="407.873684" xlink:href="#mcec9a27b99" y="129.011686"/>
     <use style="fill:#1f77b4;stroke:#1f77b4;" x="493.309091" xlink:href="#mcec9a27b99" y="39.29108"/>
    </g>
   </g>
   <g id="line2d_20">
    <path clip-path="url(#p2f496ac664)" d="M 87.490909 335.80017 
L 108.849761 298.483942 
L 130.208612 265.882761 
L 151.567464 236.380039 
L 237.002871 236.380039 
L 322.438278 129.011686 
L 407.873684 129.011686 
L 493.309091 39.29108 
" style="fill:none;stroke:#ff7f0e;stroke-linecap:square;stroke-width:1.5;"/>
   </g>
   <g id="line2d_21">
    <defs>
     <path d="M 0 3 
C 0.795609 3 1.55874 2.683901 2.12132 2.12132 
C 2.683901 1.55874 3 0.795609 3 0 
C 3 -0.795609 2.683901 -1.55874 2.12132 -2.12132 
C 1.55874 -2.683901 0.795609 -3 0 -3 
C -0.795609 -3 -1.55874 -2.683901 -2.12132 -2.12132 
C -2.683901 -1.55874 -3 -0.795609 -3 0 
C -3 0.795609 -2.683901 1.55874 -2.12132 2.12132 
C -1.55874 2.683901 -0.795609 3 0 3 
z
" id="m8163e85490" style="stroke:#2ca02c;"/>
    </defs>
    <g clip-path="url(#p2f496ac664)">
     <use style="fill:#2ca02c;stroke:#2ca02c;" x="87.490909" xlink:href="#m8163e85490" y="335.80017"/>
     <use style="fill:#2ca02c;stroke:#2ca02c;" x="108.849761" xlink:href="#m8163e85490" y="298.483942"/>
     <use style="fill:#2ca02c;stroke:#2ca02c;" x="130.208612" xlink:href="#m8163e85490" y="265.882761"/>
     <use style="fill:#2ca02c;stroke:#2ca02c;" x="151.567464" xlink:href="#m8163e85490" y="236.380039"/>
     <use style="fill:#2ca02c;stroke:#2ca02c;" x="237.002871" xlink:href="#m8163e85490" y="236.380039"/>
     <use style="fill:#2ca02c;stroke:#2ca02c;" x="322.438278" xlink:href="#m8163e85490" y="129.011686"/>
     <use style="fill:#2ca02c;stroke:#2ca02c;" x="407.873684" xlink:href="#m8163e85490" y="129.011686"/>
     <use style="fill:#2ca02c;stroke:#2ca02c;" x="493.309091" xlink:href="#m8163e85490" y="39.29108"/>
    </g>
   </g>
   <g id="line2d_22">
    <path clip-path="url(#p2f496ac664)" d="M 87.490909 335.80017 
L 108.849761 298.483942 
L 130.208612 265.882761 
L 151.567464 236.380039 
L 237.002871 236.380039 
L 322.438278 129.011686 
L 407.873684 129.011686 
L 493.309091 39.29108 
" style="fill:none;stroke:#d62728;stroke-linecap:square;stroke-width:1.5;"/>
   </g>
   <g id="line2d_23">
    <defs>
     <path d="M 0 3 
C 0.795609 3 1.55874 2.683901 2.12132 2.12132 
C 2.683901 1.55874 3 0.795609 3 0 
C 3 -0.795609 2.683901 -1.55874 2.12132 -2.12132 
C 1.55874 -2.683901 0.795609 -3 0 -3 
C -0.795609 -3 -1.55874 -2.683901 -2.12132 -2.12132 
C -2.683901 -1.55874 -3 -0.795609 -3 0 
C -3 0.795609 -2.683901 1.55874 -2.12132 2.12132 
C -1.55874 2.683901 -0.795609 3 0 3 
z
" id="m388c9a808b" style="stroke:#9467bd;"/>
    </defs>
    <g clip-path="url(#p2f496ac664)">
     <use style="fill:#9467bd;stroke:#9467bd;" x="87.490909" xlink:href="#m388c9a808b" y="335.80017"/>
     <use style="fill:#9467bd;stroke:#9467bd;" x="108.849761" xlink:href="#m388c9a808b" y="298.483942"/>
     <use style="fill:#9467bd;stroke:#9467bd;" x="130.208612" xlink:href="#m388c9a808b" y="265.882761"/>
     <use style="fill:#9467bd;stroke:#9467bd;" x="151.567464" xlink:href="#m388c9a808b" y="236.380039"/>
     <use style="fill:#9467bd;stroke:#9467bd;" x="237.002871" xlink:href="#m388c9a808b" y="182.695862"/>
     <use style="fill:#9467bd;stroke:#9467bd;" x="322.438278" xlink:href="#m388c9a808b" y="129.011686"/>
     <use style="fill:#9467bd;stroke:#9467bd;" x="407.873684" xlink:href="#m388c9a808b" y="84.151383"/>
     <use style="fill:#9467bd;stroke:#9467bd;" x="493.309091" xlink:href="#m388c9a808b" y="39.29108"/>
    </g>
   </g>
   <g id="line2d_24">
    <path clip-path="url(#p2f496ac664)" d="M 87.490909 335.80017 
L 108.849761 298.483942 
L 130.208612 265.882761 
L 151.567464 236.380039 
L 237.002871 182.695862 
L 322.438278 129.011686 
L 407.873684 84.151383 
L 493.309091 39.29108 
" style="fill:none;stroke:#8c564b;stroke-linecap:square;stroke-width:1.5;"/>
   </g>
   <g id="line2d_25">
    <defs>
     <path d="M 0 3 
C 0.795609 3 1.55874 2.683901 2.12132 2.12132 
C 2.683901 1.55874 3 0.795609 3 0 
C 3 -0.795609 2.683901 -1.55874 2.12132 -2.12132 
C 1.55874 -2.683901 0.795609 -3 0 -3 
C -0.795609 -3 -1.55874 -2.683901 -2.12132 -2.12132 
C -2.683901 -1.55874 -3 -0.795609 -3 0 
C -3 0.795609 -2.683901 1.55874 -2.12132 2.12132 
C -1.55874 2.683901 -0.795609 3 0 3 
z
" id="m31d642d72b" style="stroke:#e377c2;"/>
    </defs>
    <g clip-path="url(#p2f496ac664)">
     <use style="fill:#e377c2;stroke:#e377c2;" x="87.490909" xlink:href="#m31d642d72b" y="335.80017"/>
     <use style="fill:#e377c2;stroke:#e377c2;" x="108.849761" xlink:href="#m31d642d72b" y="298.483942"/>
     <use style="fill:#e377c2;stroke:#e377c2;" x="130.208612" xlink:href="#m31d642d72b" y="265.882761"/>
     <use style="fill:#e377c2;stroke:#e377c2;" x="151.567464" xlink:href="#m31d642d72b" y="236.380039"/>
     <use style="fill:#e377c2;stroke:#e377c2;" x="237.002871" xlink:href="#m31d642d72b" y="165.0415"/>
     <use style="fill:#e377c2;stroke:#e377c2;" x="322.438278" xlink:href="#m31d642d72b" y="129.011686"/>
     <use style="fill:#e377c2;stroke:#e377c2;" x="407.873684" xlink:href="#m31d642d72b" y="87.094879"/>
     <use style="fill:#e377c2;stroke:#e377c2;" x="493.309091" xlink:href="#m31d642d72b" y="39.29108"/>
    </g>
   </g>
   <g id="line2d_26">
    <path clip-path="url(#p2f496ac664)" d="M 87.490909 335.80017 
L 108.849761 298.483942 
L 130.208612 265.882761 
L 151.567464 236.380039 
L 237.002871 165.0415 
L 322.438278 129.011686 
L 407.873684 87.094879 
L 493.309091 39.29108 
" style="fill:none;stroke:#7f7f7f;stroke-linecap:square;stroke-width:1.5;"/>
   </g>
   <g id="line2d_27">
    <defs>
     <path d="M 0 3 
C 0.795609 3 1.55874 2.683901 2.12132 2.12132 
C 2.683901 1.55874 3 0.795609 3 0 
C 3 -0.795609 2.683901 -1.55874 2.12132 -2.12132 
C 1.55874 -2.683901 0.795609 -3 0 -3 
C -0.795609 -3 -1.55874 -2.683901 -2.12132 -2.12132 
C -2.683901 -1.55874 -3 -0.795609 -3 0 
C -3 0.795609 -2.683901 1.55874 -2.12132 2.12132 
C -1.55874 2.683901 -0.795609 3 0 3 
z
" id="m235f160cc1" style="stroke:#bcbd22;"/>
    </defs>
    <g clip-path="url(#p2f496ac664)">
     <use style="fill:#bcbd22;stroke:#bcbd22;" x="87.490909" xlink:href="#m235f160cc1" y="335.80017"/>
     <use style="fill:#bcbd22;stroke:#bcbd22;" x="108.849761" xlink:href="#m235f160cc1" y="298.483942"/>
     <use style="fill:#bcbd22;stroke:#bcbd22;" x="130.208612" xlink:href="#m235f160cc1" y="265.882761"/>
     <use style="fill:#bcbd22;stroke:#bcbd22;" x="151.567464" xlink:href="#m235f160cc1" y="236.380039"/>
     <use style="fill:#bcbd22;stroke:#bcbd22;" x="237.002871" xlink:href="#m235f160cc1" y="161.127488"/>
     <use style="fill:#bcbd22;stroke:#bcbd22;" x="322.438278" xlink:href="#m235f160cc1" y="129.011686"/>
     <use style="fill:#bcbd22;stroke:#bcbd22;" x="407.873684" xlink:href="#m235f160cc1" y="101.307821"/>
     <use style="fill:#bcbd22;stroke:#bcbd22;" x="493.309091" xlink:href="#m235f160cc1" y="39.29108"/>
    </g>
   </g>
   <g id="line2d_28">
    <path clip-path="url(#p2f496ac664)" d="M 87.490909 335.80017 
L 108.849761 298.483942 
L 130.208612 265.882761 
L 151.567464 236.380039 
L 237.002871 161.127488 
L 322.438278 129.011686 
L 407.873684 101.307821 
L 493.309091 39.29108 
" style="fill:none;stroke:#17becf;stroke-linecap:square;stroke-width:1.5;"/>
   </g>
   <g id="patch_3">
    <path d="M 67.2 350.625625 
L 67.2 24.465625 
" style="fill:none;stroke:#000000;stroke-linecap:square;stroke-linejoin:miter;stroke-width:0.8;"/>
   </g>
   <g id="patch_4">
    <path d="M 513.6 350.625625 
L 513.6 24.465625 
" style="fill:none;stroke:#000000;stroke-linecap:square;stroke-linejoin:miter;stroke-width:0.8;"/>
   </g>
   <g id="patch_5">
    <path d="M 67.2 350.625625 
L 513.6 350.625625 
" style="fill:none;stroke:#000000;stroke-linecap:square;stroke-linejoin:miter;stroke-width:0.8;"/>
   </g>
   <g id="patch_6">
    <path d="M 67.2 24.465625 
L 513.6 24.465625 
" style="fill:none;stroke:#000000;stroke-linecap:square;stroke-linejoin:miter;stroke-width:0.8;"/>
   </g>
   <g id="text_12">
    <!-- 用插值法求2年期和4年期的远期国债到期收益率 -->
    <defs>
     <path d="M 5.46875 -4.6875 
Q 10.15625 1.953125 12.6875 9.375 
Q 15.234375 16.796875 15.8125 24.21875 
Q 16.40625 31.640625 16.40625 49.21875 
Q 16.40625 66.796875 16.015625 77.34375 
L 85.9375 77.34375 
Q 85.546875 66.015625 85.546875 57.03125 
L 85.546875 5.859375 
Q 85.546875 -2.34375 80.859375 -4.296875 
Q 76.171875 -6.25 69.921875 -7.03125 
Q 69.140625 -1.171875 67.1875 1.953125 
Q 75 1.5625 76.359375 2.53125 
Q 77.734375 3.515625 77.734375 6.25 
L 77.734375 25.78125 
L 53.90625 25.78125 
L 53.90625 10.546875 
Q 53.90625 1.953125 54.296875 -5.078125 
L 45.703125 -5.078125 
Q 46.09375 1.5625 46.09375 10.15625 
L 46.09375 25.78125 
L 23.828125 25.78125 
Q 22.265625 8.984375 13.28125 -8.203125 
Q 8.984375 -5.46875 5.46875 -4.6875 
z
M 77.734375 54.296875 
L 77.734375 71.09375 
L 53.90625 71.09375 
L 53.90625 54.296875 
z
M 77.734375 32.03125 
L 77.734375 48.4375 
L 53.90625 48.4375 
L 53.90625 32.03125 
z
M 46.09375 54.296875 
L 46.09375 71.09375 
L 23.828125 71.09375 
L 23.828125 54.296875 
z
M 46.09375 32.03125 
L 46.09375 48.4375 
L 23.828125 48.4375 
L 23.828125 32.03125 
z
" id="SimHei-29992"/>
     <path d="M 67.96875 52.34375 
L 67.96875 4.296875 
L 83.984375 4.296875 
L 83.984375 18.75 
Q 78.515625 18.75 73.828125 18.359375 
L 73.828125 25.390625 
Q 78.90625 25 83.984375 25 
L 83.984375 36.71875 
Q 77.734375 36.71875 73.4375 36.328125 
L 73.4375 42.96875 
Q 79.6875 42.578125 82.03125 42.578125 
L 91.40625 42.578125 
Q 91.015625 40.234375 91.015625 33.59375 
L 91.015625 -0.390625 
Q 91.015625 -3.515625 91.40625 -9.765625 
L 83.984375 -9.765625 
L 83.984375 -1.953125 
L 45.703125 -1.953125 
L 45.703125 -10.546875 
L 38.671875 -10.546875 
Q 39.0625 -5.46875 39.0625 -1.953125 
L 39.0625 28.515625 
Q 39.0625 36.71875 38.671875 40.234375 
Q 42.96875 41.015625 46.09375 42.1875 
Q 49.21875 43.359375 52.34375 45.703125 
Q 53.90625 41.40625 56.640625 37.890625 
Q 53.515625 37.890625 45.703125 35.9375 
L 45.703125 25 
Q 51.5625 25 56.640625 25.390625 
L 56.640625 18.359375 
Q 51.953125 18.75 45.703125 18.75 
L 45.703125 4.296875 
L 60.9375 4.296875 
L 60.9375 52.34375 
L 49.21875 52.34375 
Q 39.0625 51.953125 35.9375 51.953125 
L 35.9375 59.375 
Q 41.796875 58.984375 47.265625 58.984375 
L 60.9375 58.984375 
L 60.9375 69.140625 
Q 51.953125 68.359375 41.015625 67.1875 
Q 39.84375 71.484375 37.5 74.609375 
Q 50 75 64.453125 76.75 
Q 78.90625 78.515625 85.546875 81.25 
Q 86.71875 77.734375 90.625 72.65625 
Q 85.546875 72.65625 67.96875 69.53125 
L 67.96875 58.984375 
L 85.9375 58.984375 
Q 90.625 58.984375 94.921875 59.375 
L 94.921875 51.953125 
Q 91.796875 52.34375 86.71875 52.34375 
z
M 17.578125 70.3125 
Q 17.578125 76.171875 17.1875 80.859375 
L 25 80.859375 
Q 24.609375 75.78125 24.21875 70.3125 
L 24.21875 60.9375 
Q 29.296875 60.9375 33.203125 61.328125 
L 33.203125 53.90625 
Q 28.90625 54.296875 24.21875 54.296875 
L 24.21875 37.5 
Q 30.078125 39.84375 33.203125 41.796875 
Q 33.203125 37.890625 33.59375 35.15625 
Q 28.515625 32.8125 24.21875 30.46875 
L 24.21875 1.5625 
Q 24.21875 -5.078125 20.5 -6.828125 
Q 16.796875 -8.59375 10.546875 -9.765625 
Q 10.15625 -4.6875 7.421875 -0.390625 
Q 13.28125 -0.390625 15.421875 0.1875 
Q 17.578125 0.78125 17.578125 3.515625 
L 17.578125 27.734375 
Q 14.0625 26.5625 7.421875 22.65625 
Q 5.46875 27.734375 3.515625 30.46875 
Q 10.546875 32.421875 17.578125 35.15625 
L 17.578125 54.296875 
Q 8.203125 54.296875 5.46875 53.515625 
L 5.46875 61.328125 
Q 8.203125 60.9375 17.578125 60.9375 
z
" id="SimHei-25554"/>
     <path d="M 57.421875 69.53125 
L 57.421875 79.6875 
Q 62.109375 79.296875 67.96875 78.90625 
Q 66.015625 76.171875 65.625 69.53125 
L 80.078125 69.53125 
Q 86.71875 69.53125 91.796875 69.921875 
L 91.796875 62.890625 
Q 86.328125 63.28125 80.078125 63.28125 
L 65.234375 63.28125 
L 64.453125 54.6875 
L 84.375 54.6875 
Q 83.984375 50 83.984375 42.1875 
L 83.984375 2.34375 
Q 91.796875 2.34375 95.3125 2.734375 
L 95.3125 -4.296875 
Q 90.234375 -3.90625 81.25 -3.90625 
L 44.53125 -3.90625 
Q 35.546875 -3.90625 29.6875 -4.296875 
L 29.6875 2.734375 
Q 33.203125 2.34375 40.625 2.34375 
L 40.625 42.1875 
Q 40.625 49.609375 40.234375 54.6875 
L 56.25 54.6875 
L 57.03125 63.28125 
L 50 63.28125 
Q 40.234375 63.28125 34.765625 62.890625 
L 34.765625 69.921875 
Q 39.84375 69.53125 50 69.53125 
z
M 34.765625 76.5625 
Q 31.640625 73.046875 25.78125 58.59375 
L 25.78125 7.03125 
Q 25.78125 -1.171875 26.171875 -8.59375 
L 17.96875 -8.59375 
Q 18.359375 -1.953125 18.359375 5.859375 
L 18.359375 46.09375 
Q 13.671875 38.28125 9.765625 33.59375 
Q 6.640625 37.890625 3.90625 40.234375 
Q 7.8125 44.140625 14.640625 55.265625 
Q 21.484375 66.40625 25.390625 80.46875 
Q 30.859375 77.734375 34.765625 76.5625 
z
M 76.953125 41.40625 
L 76.953125 49.21875 
L 48.046875 49.21875 
L 48.046875 41.40625 
z
M 76.953125 2.34375 
L 76.953125 9.765625 
L 48.046875 9.765625 
L 48.046875 2.34375 
z
M 76.953125 15.625 
L 76.953125 22.65625 
L 48.046875 22.65625 
L 48.046875 15.625 
z
M 76.953125 28.515625 
L 76.953125 35.546875 
L 48.046875 35.546875 
L 48.046875 28.515625 
z
" id="SimHei-20540"/>
     <path d="M 94.921875 -4.6875 
Q 91.40625 -6.640625 87.890625 -9.765625 
Q 85.15625 -4.6875 83.203125 -1.953125 
Q 70.703125 -2.734375 56.046875 -4.09375 
Q 41.40625 -5.46875 36.328125 -7.03125 
Q 35.15625 -2.34375 33.203125 1.171875 
Q 38.28125 2.734375 44.140625 11.328125 
Q 50 19.921875 54.6875 32.8125 
L 43.75 32.8125 
Q 36.71875 32.8125 30.46875 32.421875 
L 30.46875 39.453125 
Q 36.71875 39.0625 44.140625 39.0625 
L 58.203125 39.0625 
L 58.203125 56.25 
L 49.21875 56.25 
Q 41.796875 56.25 36.328125 55.859375 
L 36.328125 62.890625 
Q 42.578125 62.5 48.828125 62.5 
L 58.203125 62.5 
Q 58.203125 73.4375 57.8125 80.46875 
L 66.40625 80.46875 
Q 66.015625 74.609375 66.015625 62.5 
L 77.734375 62.5 
Q 83.59375 62.5 89.84375 62.890625 
L 89.84375 55.859375 
Q 83.59375 56.25 78.515625 56.25 
L 66.015625 56.25 
L 66.015625 39.0625 
L 80.078125 39.0625 
Q 87.109375 39.0625 94.140625 39.453125 
L 94.140625 32.421875 
Q 87.109375 32.8125 80.078125 32.8125 
L 60.15625 32.8125 
L 64.0625 30.46875 
Q 61.71875 27.734375 56.640625 18.75 
Q 51.5625 9.765625 45.3125 1.5625 
Q 62.5 2.34375 79.296875 3.515625 
Q 74.609375 10.546875 69.53125 16.015625 
Q 72.65625 18.359375 75.390625 21.09375 
Q 82.421875 12.5 94.921875 -4.6875 
z
M 4.6875 -3.90625 
Q 10.15625 1.5625 15.8125 9.765625 
Q 21.484375 17.96875 26.953125 26.953125 
Q 28.90625 23.4375 32.421875 21.484375 
Q 28.90625 16.796875 23.4375 7.609375 
Q 17.96875 -1.5625 13.28125 -9.765625 
Q 10.15625 -6.640625 4.6875 -3.90625 
z
M 10.546875 53.515625 
Q 18.75 48.4375 28.125 41.40625 
Q 24.609375 39.0625 21.875 35.15625 
Q 14.453125 41.796875 5.46875 47.65625 
Q 8.203125 50 10.546875 53.515625 
z
M 16.40625 76.5625 
Q 24.21875 71.484375 32.8125 64.453125 
Q 29.6875 62.109375 26.953125 58.203125 
Q 19.53125 65.234375 11.328125 70.703125 
Q 14.0625 73.4375 16.40625 76.5625 
z
" id="SimHei-27861"/>
     <path d="M 7.421875 62.890625 
Q 13.671875 62.5 20.703125 62.5 
L 44.921875 62.5 
Q 44.921875 73.828125 44.53125 80.078125 
L 53.125 80.078125 
Q 52.734375 73.828125 52.734375 62.5 
L 80.46875 62.5 
Q 85.9375 62.5 92.578125 62.890625 
L 92.578125 55.859375 
Q 85.546875 56.25 80.46875 56.25 
L 52.734375 56.25 
Q 53.125 50 56.4375 42.96875 
Q 59.765625 35.9375 63.28125 31.25 
Q 71.875 38.28125 79.296875 49.21875 
Q 82.03125 46.09375 87.109375 42.96875 
Q 82.421875 40.625 66.40625 25.78125 
Q 71.484375 19.140625 78.703125 13.28125 
Q 85.9375 7.421875 94.53125 5.078125 
Q 89.0625 1.953125 86.71875 -2.34375 
Q 78.125 2.34375 69.328125 10.734375 
Q 60.546875 19.140625 52.734375 37.109375 
L 52.734375 2.34375 
Q 53.125 -3.515625 49.015625 -5.46875 
Q 44.921875 -7.421875 37.109375 -8.203125 
Q 36.328125 -4.296875 33.59375 0.390625 
Q 40.234375 0 42.765625 0.578125 
Q 45.3125 1.171875 44.921875 4.6875 
L 44.921875 26.171875 
Q 29.296875 14.0625 22.453125 8.59375 
Q 15.625 3.125 11.328125 -0.78125 
Q 7.8125 3.125 4.6875 6.25 
Q 10.15625 8.984375 18.75 14.640625 
Q 27.34375 20.3125 44.921875 35.15625 
L 44.921875 56.25 
L 20.703125 56.25 
Q 13.671875 56.25 7.421875 55.859375 
z
M 19.140625 49.609375 
Q 27.734375 42.578125 35.15625 36.328125 
L 28.515625 30.46875 
Q 22.65625 37.109375 12.890625 44.140625 
L 19.140625 49.609375 
z
M 70.3125 79.6875 
Q 76.5625 75.390625 82.8125 69.140625 
Q 80.078125 67.1875 76.953125 64.0625 
Q 72.65625 68.75 64.453125 75.390625 
Q 66.796875 77.34375 70.3125 79.6875 
z
" id="SimHei-27714"/>
     <path d="M 5.46875 45.703125 
Q 14.0625 53.90625 21.484375 65.625 
Q 28.90625 77.34375 29.6875 82.421875 
Q 35.546875 80.078125 40.625 78.90625 
Q 37.109375 75.390625 32.8125 67.578125 
L 72.265625 67.578125 
Q 80.859375 67.578125 89.84375 67.96875 
L 89.84375 61.328125 
Q 81.640625 61.71875 72.265625 61.71875 
L 59.375 61.71875 
L 59.375 45.703125 
Q 74.21875 45.703125 85.546875 46.09375 
L 85.546875 39.453125 
Q 73.828125 39.84375 59.375 39.84375 
L 59.375 21.484375 
L 79.296875 21.484375 
Q 87.890625 21.484375 95.3125 21.875 
L 95.3125 15.234375 
Q 88.28125 15.625 79.296875 15.625 
L 59.375 15.625 
L 59.375 6.640625 
Q 59.375 -2.34375 59.765625 -9.765625 
L 51.171875 -9.765625 
Q 51.5625 -2.34375 51.5625 5.859375 
L 51.5625 15.625 
L 25 15.625 
Q 14.0625 15.625 4.296875 15.234375 
L 4.296875 21.875 
Q 13.671875 21.484375 22.65625 21.484375 
Q 22.65625 36.71875 22.265625 45.703125 
L 51.5625 45.703125 
L 51.5625 61.71875 
L 29.296875 61.71875 
Q 21.09375 49.21875 14.453125 41.40625 
Q 10.15625 44.921875 5.46875 45.703125 
z
M 51.5625 21.484375 
L 51.5625 39.84375 
L 30.078125 39.84375 
L 30.078125 21.484375 
z
" id="SimHei-24180"/>
     <path d="M 91.796875 65.625 
Q 91.40625 57.8125 91.40625 51.171875 
L 91.40625 10.9375 
Q 91.40625 3.90625 91.796875 -0.390625 
L 83.984375 -0.390625 
L 83.984375 8.984375 
L 65.234375 8.984375 
L 65.234375 -1.171875 
L 57.8125 -1.171875 
Q 58.203125 7.8125 58.203125 9.765625 
L 58.203125 51.171875 
Q 58.203125 57.8125 57.8125 65.625 
L 91.796875 65.625 
z
M 51.171875 69.53125 
Q 47.65625 69.53125 35.15625 67.578125 
L 35.15625 50 
L 41.015625 50 
Q 46.875 50 53.515625 50.390625 
L 53.515625 43.359375 
Q 46.875 43.75 41.40625 43.75 
L 35.15625 43.75 
L 35.15625 3.515625 
Q 35.15625 -3.125 35.546875 -8.59375 
L 27.734375 -8.59375 
Q 28.125 -2.34375 28.125 3.515625 
L 28.125 28.90625 
Q 22.265625 17.96875 10.546875 3.90625 
Q 8.59375 6.640625 4.296875 9.375 
Q 12.890625 17.578125 19.328125 28.3125 
Q 25.78125 39.0625 26.5625 43.75 
L 19.53125 43.75 
Q 10.9375 43.75 7.03125 43.359375 
L 7.03125 50.390625 
Q 11.328125 50 19.53125 50 
L 28.125 50 
L 28.125 66.40625 
Q 23.046875 65.625 12.109375 64.453125 
Q 11.328125 68.359375 9.765625 71.484375 
Q 17.1875 71.875 28.515625 73.4375 
Q 39.84375 75 47.65625 78.125 
Q 48.4375 73.828125 51.171875 69.53125 
z
M 83.984375 15.234375 
L 83.984375 58.984375 
L 65.234375 58.984375 
L 65.234375 15.234375 
z
M 48.046875 15.625 
Q 42.96875 25.390625 36.328125 32.8125 
Q 38.671875 34.375 42.1875 37.5 
Q 49.609375 29.296875 54.6875 20.703125 
Q 50.78125 18.359375 48.046875 15.625 
z
" id="SimHei-21644"/>
     <path d="M 32.8125 77.734375 
Q 30.859375 74.21875 27.34375 61.71875 
L 44.921875 61.71875 
Q 44.53125 55.078125 44.53125 44.921875 
L 44.53125 10.546875 
Q 44.53125 4.6875 44.921875 -6.25 
L 37.109375 -6.25 
L 37.109375 1.5625 
L 17.1875 1.5625 
L 17.1875 -7.03125 
L 9.375 -7.03125 
Q 9.765625 5.46875 9.765625 8.59375 
L 9.765625 44.53125 
Q 9.765625 55.078125 9.375 61.71875 
L 20.703125 61.71875 
Q 22.65625 70.703125 23.828125 80.46875 
Q 29.296875 78.515625 32.8125 77.734375 
z
M 91.015625 48.046875 
Q 90.625 24.21875 89.0625 2.734375 
Q 88.28125 -4.296875 81.640625 -6.640625 
Q 75 -8.984375 66.796875 -9.765625 
Q 66.40625 -5.46875 63.28125 -0.78125 
Q 71.09375 -1.171875 75.578125 -0.390625 
Q 80.078125 0.390625 81.25 3.125 
Q 82.421875 5.859375 83 19.140625 
Q 83.59375 32.421875 83.984375 56.25 
L 61.328125 56.25 
Q 58.203125 48.828125 52.34375 38.671875 
Q 49.609375 41.40625 45.703125 42.96875 
Q 49.21875 47.65625 52.34375 54.296875 
Q 55.46875 60.9375 57.8125 68.75 
Q 60.15625 76.5625 60.546875 80.859375 
Q 66.015625 78.515625 69.921875 77.34375 
Q 67.96875 74.21875 66.59375 70.5 
Q 65.234375 66.796875 63.671875 63.28125 
L 91.40625 63.28125 
Q 91.015625 55.078125 91.015625 48.046875 
z
M 37.109375 8.203125 
L 37.109375 28.90625 
L 17.1875 28.90625 
L 17.1875 8.203125 
z
M 37.109375 35.546875 
L 37.109375 55.078125 
L 17.1875 55.078125 
L 17.1875 35.546875 
z
M 67.96875 32.03125 
Q 70.3125 27.34375 73.4375 19.921875 
Q 70.703125 18.75 66.015625 16.015625 
Q 63.28125 23.4375 60.9375 28.703125 
Q 58.59375 33.984375 56.25 37.5 
Q 58.984375 39.0625 63.28125 41.40625 
z
" id="SimHei-30340"/>
     <path d="M 93.359375 19.53125 
Q 89.84375 5.859375 81.640625 5.859375 
L 73.828125 5.859375 
Q 64.453125 5.859375 64.453125 14.84375 
L 64.453125 45.3125 
L 53.515625 45.3125 
Q 53.125 29.296875 51.171875 22.65625 
Q 49.21875 16.015625 46.484375 12.5 
Q 43.75 8.984375 37.890625 4.6875 
Q 36.328125 7.421875 32.03125 9.765625 
Q 35.9375 12.109375 39.25 16.015625 
Q 42.578125 19.921875 44.328125 25 
Q 46.09375 30.078125 46.484375 45.3125 
Q 37.890625 45.3125 30.078125 44.921875 
L 30.078125 51.953125 
Q 37.890625 51.5625 45.703125 51.5625 
L 76.171875 51.5625 
Q 83.984375 51.5625 91.796875 51.953125 
L 91.796875 44.921875 
Q 83.984375 45.3125 71.875 45.3125 
L 71.875 17.578125 
Q 71.875 13.28125 75 12.890625 
L 80.859375 12.890625 
Q 83.984375 13.28125 85.15625 24.21875 
Q 88.671875 21.484375 93.359375 19.53125 
z
M 3.515625 -2.734375 
Q 15.625 6.25 19.921875 7.8125 
L 19.921875 41.40625 
Q 12.5 41.40625 5.859375 41.015625 
L 5.859375 48.4375 
Q 13.671875 48.046875 20.703125 48.046875 
L 27.34375 48.046875 
Q 26.953125 40.234375 26.953125 35.9375 
L 26.953125 9.765625 
Q 35.546875 -0.390625 59.375 -0.78125 
Q 83.203125 -1.171875 96.484375 0.390625 
Q 92.96875 -5.859375 92.96875 -8.59375 
Q 76.5625 -8.59375 63.46875 -8.203125 
Q 50.390625 -7.8125 41.984375 -5.65625 
Q 33.59375 -3.515625 28.515625 0.1875 
Q 23.4375 3.90625 17.765625 -1.171875 
Q 12.109375 -6.25 9.765625 -9.375 
Q 7.03125 -5.859375 3.515625 -2.734375 
z
M 84.375 66.796875 
Q 77.34375 67.1875 60.9375 67.1875 
Q 44.53125 67.1875 37.109375 66.796875 
L 37.109375 74.21875 
Q 44.53125 73.828125 60.9375 73.828125 
Q 77.34375 73.828125 84.375 74.21875 
z
M 22.265625 58.984375 
Q 18.359375 65.625 8.984375 73.828125 
L 14.0625 78.90625 
Q 24.21875 69.140625 28.125 64.0625 
Q 25 61.328125 22.265625 58.984375 
z
" id="SimHei-36828"/>
     <path d="M 90.234375 77.734375 
Q 89.84375 67.96875 89.84375 55.859375 
L 89.84375 14.0625 
Q 89.84375 1.953125 90.234375 -9.765625 
L 82.421875 -9.765625 
L 82.421875 -4.296875 
L 17.578125 -4.296875 
L 17.578125 -10.15625 
L 9.765625 -10.15625 
Q 10.15625 1.953125 10.15625 14.84375 
L 10.15625 55.859375 
Q 10.15625 67.578125 9.765625 77.734375 
L 90.234375 77.734375 
z
M 82.421875 1.5625 
L 82.421875 71.875 
L 17.578125 71.875 
L 17.578125 1.5625 
z
M 62.109375 61.328125 
Q 67.96875 61.328125 74.609375 61.71875 
L 74.609375 54.6875 
Q 68.75 55.078125 62.109375 55.078125 
L 52.34375 55.078125 
L 52.34375 42.1875 
L 59.375 42.1875 
Q 66.40625 42.1875 72.65625 42.578125 
L 72.65625 35.546875 
Q 66.40625 35.9375 59.375 35.9375 
L 52.34375 35.9375 
L 52.34375 18.359375 
L 63.28125 18.359375 
Q 70.3125 18.359375 76.5625 18.75 
L 76.5625 11.71875 
Q 70.703125 12.109375 63.28125 12.109375 
L 36.71875 12.109375 
Q 30.078125 12.109375 23.4375 11.71875 
L 23.4375 18.75 
Q 30.078125 18.359375 36.71875 18.359375 
L 45.3125 18.359375 
L 45.3125 35.9375 
L 39.84375 35.9375 
Q 33.203125 35.9375 27.34375 35.546875 
L 27.34375 42.578125 
Q 33.203125 42.1875 39.84375 42.1875 
L 45.3125 42.1875 
L 45.3125 55.078125 
L 39.453125 55.078125 
Q 32.421875 55.078125 25.78125 54.6875 
L 25.78125 61.71875 
Q 32.421875 61.328125 39.453125 61.328125 
z
M 63.28125 33.203125 
Q 65.234375 31.25 71.09375 25 
Q 67.1875 22.65625 64.453125 20.703125 
Q 63.28125 22.265625 57.8125 28.90625 
Q 60.9375 31.25 63.28125 33.203125 
z
" id="SimHei-22269"/>
     <path d="M 58.59375 71.875 
Q 58.59375 76.5625 58.203125 81.25 
L 66.796875 81.25 
Q 66.40625 76.171875 66.40625 71.875 
L 78.125 71.875 
Q 86.71875 71.875 90.625 72.265625 
L 90.625 65.625 
Q 86.328125 66.015625 78.125 66.015625 
L 66.40625 66.015625 
L 66.40625 60.15625 
L 76.171875 60.15625 
Q 82.03125 60.15625 87.890625 60.546875 
L 87.890625 53.90625 
Q 83.203125 54.296875 76.171875 54.296875 
L 66.40625 54.296875 
L 66.40625 48.4375 
L 80.46875 48.4375 
Q 89.453125 48.4375 94.53125 48.828125 
L 94.53125 42.1875 
Q 88.671875 42.578125 80.46875 42.578125 
L 44.921875 42.578125 
Q 37.5 42.578125 31.25 42.1875 
L 31.25 48.828125 
Q 37.109375 48.4375 44.53125 48.4375 
L 58.59375 48.4375 
L 58.59375 54.296875 
L 51.953125 54.296875 
Q 44.53125 54.296875 39.0625 53.90625 
L 39.0625 60.546875 
Q 44.53125 60.15625 51.5625 60.15625 
L 58.59375 60.15625 
L 58.59375 66.015625 
L 50.390625 66.015625 
Q 41.796875 66.015625 35.9375 65.625 
L 35.9375 72.265625 
Q 41.40625 71.875 48.828125 71.875 
z
M 3.90625 40.625 
Q 7.8125 44.921875 13.859375 55.46875 
Q 19.921875 66.015625 23.4375 79.296875 
Q 27.34375 77.34375 32.8125 75.78125 
Q 29.6875 72.265625 24.21875 58.984375 
L 24.21875 12.5 
Q 24.21875 -0.390625 24.609375 -7.8125 
L 16.40625 -7.8125 
Q 16.796875 0 16.796875 12.890625 
L 16.796875 46.09375 
Q 12.109375 38.28125 9.765625 34.765625 
L 3.90625 40.625 
z
M 88.28125 35.9375 
Q 87.890625 32.8125 87.890625 24.21875 
Q 87.890625 16.015625 88.28125 12.109375 
L 80.46875 12.109375 
L 80.46875 30.078125 
L 46.484375 30.078125 
L 46.484375 10.9375 
L 38.671875 10.9375 
Q 39.0625 16.796875 39.0625 24.21875 
Q 39.0625 32.03125 38.671875 35.9375 
L 88.28125 35.9375 
z
M 30.46875 -2.34375 
Q 50.78125 0.390625 55.65625 8.78125 
Q 60.546875 17.1875 59.375 25.78125 
L 67.96875 25 
Q 66.796875 9.375 59.765625 1.75 
Q 52.734375 -5.859375 35.15625 -9.375 
Q 33.203125 -5.46875 30.46875 -2.34375 
z
M 73.046875 10.546875 
Q 79.296875 7.421875 84.5625 4.6875 
Q 89.84375 1.953125 94.53125 -1.171875 
Q 92.1875 -3.90625 89.84375 -8.203125 
Q 76.171875 1.953125 68.75 4.6875 
Q 70.703125 7.8125 73.046875 10.546875 
z
" id="SimHei-20538"/>
     <path d="M 57.421875 2.34375 
Q 35.546875 -0.78125 24.015625 -2.734375 
Q 12.5 -4.6875 7.8125 -6.25 
Q 6.640625 -1.171875 5.078125 3.515625 
Q 12.109375 3.90625 16.59375 4.296875 
Q 21.09375 4.6875 27.34375 5.46875 
L 27.34375 20.703125 
L 21.875 20.703125 
Q 14.0625 20.703125 8.59375 19.921875 
L 8.59375 27.34375 
Q 15.234375 26.953125 20.703125 26.953125 
L 27.34375 26.953125 
L 27.34375 39.84375 
Q 19.53125 39.453125 16.203125 39.0625 
Q 12.890625 38.671875 8.984375 37.890625 
Q 8.203125 42.96875 6.640625 46.875 
Q 12.890625 48.4375 17.765625 54.6875 
Q 22.65625 60.9375 25.390625 68.75 
L 19.53125 68.75 
Q 12.890625 68.75 7.03125 68.359375 
L 7.03125 75.78125 
Q 13.28125 75.390625 19.140625 75.390625 
L 44.140625 75.390625 
Q 51.171875 75.390625 56.640625 75.78125 
L 56.640625 68.359375 
Q 50.78125 68.75 44.140625 68.75 
L 28.125 68.75 
L 35.15625 64.0625 
Q 31.25 60.9375 27.734375 56.25 
Q 24.21875 51.5625 19.53125 46.09375 
Q 33.59375 46.875 45.703125 47.65625 
Q 42.578125 52.734375 38.671875 57.8125 
Q 42.578125 59.765625 45.703125 62.109375 
Q 49.609375 56.640625 53.125 51.5625 
Q 56.640625 46.484375 59.765625 42.1875 
Q 56.25 39.453125 51.953125 37.109375 
Q 50.390625 39.84375 49.21875 41.796875 
Q 41.015625 40.625 35.546875 40.234375 
L 35.546875 26.953125 
L 42.96875 26.953125 
Q 49.609375 26.953125 54.296875 27.34375 
L 54.296875 19.921875 
Q 49.21875 20.703125 43.359375 20.703125 
L 35.546875 20.703125 
L 35.546875 6.25 
Q 46.484375 7.8125 58.59375 9.765625 
Q 57.8125 5.859375 57.421875 2.34375 
z
M 91.796875 80.859375 
Q 91.015625 75 91.015625 67.578125 
L 91.015625 3.515625 
Q 91.015625 -5.46875 87.6875 -7.03125 
Q 84.375 -8.59375 73.4375 -10.546875 
Q 72.265625 -5.46875 69.921875 -1.171875 
Q 78.125 -1.171875 80.65625 -0.578125 
Q 83.203125 0 83.203125 5.859375 
L 83.203125 67.578125 
Q 83.203125 76.171875 82.8125 80.859375 
L 91.796875 80.859375 
z
M 71.875 68.359375 
Q 71.09375 63.28125 71.09375 54.296875 
L 71.09375 25 
Q 71.09375 16.796875 71.484375 11.328125 
L 63.28125 11.328125 
Q 63.671875 16.796875 63.671875 25 
L 63.671875 55.859375 
Q 63.671875 63.671875 63.28125 68.359375 
L 71.875 68.359375 
z
" id="SimHei-21040"/>
    </defs>
    <g transform="translate(143.4 18.465625)scale(0.14 -0.14)">
     <use xlink:href="#SimHei-29992"/>
     <use x="100" xlink:href="#SimHei-25554"/>
     <use x="200" xlink:href="#SimHei-20540"/>
     <use x="300" xlink:href="#SimHei-27861"/>
     <use x="400" xlink:href="#SimHei-27714"/>
     <use x="500" xlink:href="#SimHei-50"/>
     <use x="550" xlink:href="#SimHei-24180"/>
     <use x="650" xlink:href="#SimHei-26399"/>
     <use x="750" xlink:href="#SimHei-21644"/>
     <use x="850" xlink:href="#SimHei-52"/>
     <use x="900" xlink:href="#SimHei-24180"/>
     <use x="1000" xlink:href="#SimHei-26399"/>
     <use x="1100" xlink:href="#SimHei-30340"/>
     <use x="1200" xlink:href="#SimHei-36828"/>
     <use x="1300" xlink:href="#SimHei-26399"/>
     <use x="1400" xlink:href="#SimHei-22269"/>
     <use x="1500" xlink:href="#SimHei-20538"/>
     <use x="1600" xlink:href="#SimHei-21040"/>
     <use x="1700" xlink:href="#SimHei-26399"/>
     <use x="1800" xlink:href="#SimHei-25910"/>
     <use x="1900" xlink:href="#SimHei-30410"/>
     <use x="2000" xlink:href="#SimHei-29575"/>
    </g>
   </g>
   <g id="legend_1">
    <g id="patch_7">
     <path d="M 77 128.415625 
L 184.8 128.415625 
Q 187.6 128.415625 187.6 125.615625 
L 187.6 34.265625 
Q 187.6 31.465625 184.8 31.465625 
L 77 31.465625 
Q 74.2 31.465625 74.2 34.265625 
L 74.2 125.615625 
Q 74.2 128.415625 77 128.415625 
z
" style="fill:#ffffff;opacity:0.8;stroke:#cccccc;stroke-linejoin:miter;"/>
    </g>
    <g id="line2d_29">
     <path d="M 79.8 41.965625 
L 107.8 41.965625 
" style="fill:none;stroke:#ff7f0e;stroke-linecap:square;stroke-width:1.5;"/>
    </g>
    <g id="line2d_30"/>
    <g id="text_13">
     <!-- nearest -->
     <defs>
      <path d="M 43.75 1.953125 
L 35.9375 1.953125 
L 35.9375 30.078125 
Q 35.9375 34.765625 33.59375 37.5 
Q 31.25 40.234375 27.34375 40.234375 
Q 22.265625 40.234375 17.765625 34.953125 
Q 13.28125 29.6875 13.28125 21.875 
L 13.28125 1.953125 
L 5.46875 1.953125 
L 5.46875 45.703125 
L 13.28125 45.703125 
L 13.28125 37.5 
Q 16.40625 41.796875 20.109375 44.140625 
Q 23.828125 46.484375 29.6875 46.484375 
Q 36.71875 46.484375 40.234375 42.578125 
Q 43.75 38.671875 43.75 32.8125 
z
" id="SimHei-110"/>
      <path d="M 44.53125 16.796875 
Q 43.75 9.765625 38.28125 5.46875 
Q 32.8125 1.171875 25.390625 1.171875 
Q 16.015625 1.171875 9.953125 7.21875 
Q 3.90625 13.28125 3.90625 23.828125 
Q 3.90625 34.375 9.953125 40.421875 
Q 16.015625 46.484375 25.390625 46.484375 
Q 33.59375 46.484375 38.859375 41.203125 
Q 44.140625 35.9375 44.140625 23.828125 
L 12.5 23.828125 
Q 12.5 15.234375 16.203125 11.71875 
Q 19.921875 8.203125 25.390625 8.203125 
Q 29.6875 8.203125 32.421875 10.34375 
Q 35.15625 12.5 35.9375 16.796875 
z
M 35.15625 30.078125 
Q 34.375 35.546875 31.640625 37.6875 
Q 28.90625 39.84375 24.609375 39.84375 
Q 20.703125 39.84375 17.578125 37.6875 
Q 14.453125 35.546875 12.890625 30.078125 
z
" id="SimHei-101"/>
      <path d="M 44.921875 1.953125 
L 35.546875 1.953125 
Q 34.765625 2.734375 34.375 4.09375 
Q 33.984375 5.46875 33.984375 7.421875 
Q 31.25 4.296875 27.34375 2.734375 
Q 23.4375 1.171875 19.140625 1.171875 
Q 12.890625 1.171875 8.59375 4.296875 
Q 4.296875 7.421875 4.296875 13.28125 
Q 4.296875 19.140625 8.203125 22.65625 
Q 12.109375 26.171875 20.3125 27.34375 
Q 25.78125 28.125 29.875 29.296875 
Q 33.984375 30.46875 33.984375 32.421875 
Q 33.984375 34.765625 32.21875 37.109375 
Q 30.46875 39.453125 24.609375 39.453125 
Q 19.921875 39.453125 17.765625 37.6875 
Q 15.625 35.9375 14.84375 32.8125 
L 6.25 32.8125 
Q 7.03125 39.0625 11.90625 42.765625 
Q 16.796875 46.484375 24.609375 46.484375 
Q 33.203125 46.484375 37.5 42.578125 
Q 41.796875 38.671875 41.796875 31.640625 
L 41.796875 10.15625 
Q 41.796875 7.8125 42.578125 5.859375 
Q 43.359375 3.90625 44.921875 1.953125 
z
M 33.984375 16.40625 
L 33.984375 24.21875 
Q 31.640625 23.4375 29.484375 22.84375 
Q 27.34375 22.265625 22.265625 21.484375 
Q 16.40625 20.703125 14.640625 18.75 
Q 12.890625 16.796875 12.890625 14.0625 
Q 12.890625 11.71875 14.640625 9.953125 
Q 16.40625 8.203125 19.921875 8.203125 
Q 23.4375 8.203125 27.53125 10.15625 
Q 31.640625 12.109375 33.984375 16.40625 
z
" id="SimHei-97"/>
      <path d="M 39.0625 37.890625 
Q 31.640625 39.0625 26.5625 35.734375 
Q 21.484375 32.421875 17.96875 24.21875 
L 17.96875 1.953125 
L 10.15625 1.953125 
L 10.15625 45.703125 
L 17.96875 45.703125 
L 17.96875 34.375 
Q 21.484375 40.625 26.75 43.546875 
Q 32.03125 46.484375 39.0625 46.484375 
z
" id="SimHei-114"/>
      <path d="M 42.96875 14.0625 
Q 42.96875 7.8125 38.078125 4.484375 
Q 33.203125 1.171875 25.78125 1.171875 
Q 16.40625 1.171875 11.328125 4.875 
Q 6.25 8.59375 6.25 15.625 
L 14.0625 15.625 
Q 14.0625 10.9375 17.375 9.375 
Q 20.703125 7.8125 25.390625 7.8125 
Q 30.078125 7.8125 32.421875 9.5625 
Q 34.765625 11.328125 34.765625 14.0625 
Q 34.765625 16.015625 32.8125 17.96875 
Q 30.859375 19.921875 23.046875 21.09375 
Q 14.0625 22.265625 10.734375 25.578125 
Q 7.421875 28.90625 7.421875 34.375 
Q 7.421875 39.0625 11.90625 42.765625 
Q 16.40625 46.484375 25 46.484375 
Q 32.8125 46.484375 37.296875 42.96875 
Q 41.796875 39.453125 41.796875 33.59375 
L 33.984375 33.59375 
Q 33.984375 37.109375 31.4375 38.46875 
Q 28.90625 39.84375 25 39.84375 
Q 19.921875 39.84375 17.765625 38.078125 
Q 15.625 36.328125 15.625 33.984375 
Q 15.625 31.25 17.578125 29.6875 
Q 19.53125 28.125 25.78125 27.34375 
Q 35.9375 25.78125 39.453125 22.453125 
Q 42.96875 19.140625 42.96875 14.0625 
z
" id="SimHei-115"/>
      <path d="M 42.96875 3.125 
Q 41.015625 2.34375 38.46875 1.75 
Q 35.9375 1.171875 31.640625 1.171875 
Q 24.609375 1.171875 20.3125 5.078125 
Q 16.015625 8.984375 16.015625 16.015625 
L 16.015625 39.453125 
L 2.734375 39.453125 
L 2.734375 45.703125 
L 16.015625 45.703125 
L 16.015625 60.9375 
L 23.828125 60.9375 
L 23.828125 45.703125 
L 39.84375 45.703125 
L 39.84375 39.453125 
L 23.828125 39.453125 
L 23.828125 15.625 
Q 23.828125 12.5 25.390625 10.34375 
Q 26.953125 8.203125 31.25 8.203125 
Q 35.546875 8.203125 38.28125 8.984375 
Q 41.015625 9.765625 42.96875 10.9375 
z
" id="SimHei-116"/>
     </defs>
     <g transform="translate(119 46.865625)scale(0.14 -0.14)">
      <use xlink:href="#SimHei-110"/>
      <use x="50" xlink:href="#SimHei-101"/>
      <use x="100" xlink:href="#SimHei-97"/>
      <use x="150" xlink:href="#SimHei-114"/>
      <use x="200" xlink:href="#SimHei-101"/>
      <use x="250" xlink:href="#SimHei-115"/>
      <use x="300" xlink:href="#SimHei-116"/>
     </g>
    </g>
    <g id="line2d_31">
     <path d="M 79.8 60.515625 
L 107.8 60.515625 
" style="fill:none;stroke:#d62728;stroke-linecap:square;stroke-width:1.5;"/>
    </g>
    <g id="line2d_32"/>
    <g id="text_14">
     <!-- zero -->
     <defs>
      <path d="M 43.359375 1.953125 
L 5.46875 1.953125 
L 5.46875 8.203125 
L 32.03125 39.453125 
L 7.03125 39.453125 
L 7.03125 45.703125 
L 41.40625 45.703125 
L 41.40625 39.453125 
L 14.84375 8.203125 
L 43.359375 8.203125 
z
" id="SimHei-122"/>
      <path d="M 45.703125 23.828125 
Q 45.703125 13.671875 39.453125 7.421875 
Q 33.203125 1.171875 24.609375 1.171875 
Q 16.015625 1.171875 9.765625 7.421875 
Q 3.515625 13.671875 3.515625 23.828125 
Q 3.515625 33.984375 9.765625 40.234375 
Q 16.015625 46.484375 24.609375 46.484375 
Q 33.203125 46.484375 39.453125 40.234375 
Q 45.703125 33.984375 45.703125 23.828125 
z
M 37.109375 23.828125 
Q 37.109375 31.640625 33.203125 35.546875 
Q 29.296875 39.453125 24.609375 39.453125 
Q 19.921875 39.453125 16.015625 35.546875 
Q 12.109375 31.640625 12.109375 23.828125 
Q 12.109375 16.015625 16.015625 12.109375 
Q 19.921875 8.203125 24.609375 8.203125 
Q 29.296875 8.203125 33.203125 12.109375 
Q 37.109375 16.015625 37.109375 23.828125 
z
" id="SimHei-111"/>
     </defs>
     <g transform="translate(119 65.415625)scale(0.14 -0.14)">
      <use xlink:href="#SimHei-122"/>
      <use x="50" xlink:href="#SimHei-101"/>
      <use x="100" xlink:href="#SimHei-114"/>
      <use x="150" xlink:href="#SimHei-111"/>
     </g>
    </g>
    <g id="line2d_33">
     <path d="M 79.8 79.065625 
L 107.8 79.065625 
" style="fill:none;stroke:#8c564b;stroke-linecap:square;stroke-width:1.5;"/>
    </g>
    <g id="line2d_34"/>
    <g id="text_15">
     <!-- slinear -->
     <defs>
      <path d="M 28.515625 1.953125 
L 20.703125 1.953125 
L 20.703125 68.75 
L 28.515625 68.75 
z
" id="SimHei-108"/>
      <path d="M 28.125 58.203125 
L 20.3125 58.203125 
L 20.3125 68.359375 
L 28.125 68.359375 
z
M 28.125 1.953125 
L 20.3125 1.953125 
L 20.3125 45.703125 
L 28.125 45.703125 
z
" id="SimHei-105"/>
     </defs>
     <g transform="translate(119 83.965625)scale(0.14 -0.14)">
      <use xlink:href="#SimHei-115"/>
      <use x="50" xlink:href="#SimHei-108"/>
      <use x="100" xlink:href="#SimHei-105"/>
      <use x="150" xlink:href="#SimHei-110"/>
      <use x="200" xlink:href="#SimHei-101"/>
      <use x="250" xlink:href="#SimHei-97"/>
      <use x="300" xlink:href="#SimHei-114"/>
     </g>
    </g>
    <g id="line2d_35">
     <path d="M 79.8 97.615625 
L 107.8 97.615625 
" style="fill:none;stroke:#7f7f7f;stroke-linecap:square;stroke-width:1.5;"/>
    </g>
    <g id="line2d_36"/>
    <g id="text_16">
     <!-- quadratic -->
     <defs>
      <path d="M 42.96875 -12.5 
L 35.15625 -12.5 
L 35.15625 7.8125 
Q 32.8125 4.296875 29.6875 2.53125 
Q 26.5625 0.78125 22.265625 0.78125 
Q 14.453125 0.78125 8.984375 6.640625 
Q 3.515625 12.5 3.515625 23.828125 
Q 3.515625 35.15625 8.984375 40.8125 
Q 14.453125 46.484375 22.265625 46.484375 
Q 26.5625 46.484375 29.6875 44.921875 
Q 32.8125 43.359375 35.15625 39.84375 
L 35.15625 45.703125 
L 42.96875 45.703125 
z
M 35.15625 23.828125 
Q 35.15625 31.25 31.828125 35.34375 
Q 28.515625 39.453125 23.828125 39.453125 
Q 17.96875 39.453125 15.03125 35.34375 
Q 12.109375 31.25 12.109375 23.828125 
Q 12.109375 16.40625 15.03125 12.109375 
Q 17.96875 7.8125 23.828125 7.8125 
Q 28.515625 7.8125 31.828125 12.109375 
Q 35.15625 16.40625 35.15625 23.828125 
z
" id="SimHei-113"/>
      <path d="M 43.75 1.953125 
L 35.9375 1.953125 
L 35.9375 10.15625 
Q 32.8125 5.859375 29.09375 3.515625 
Q 25.390625 1.171875 19.53125 1.171875 
Q 12.5 1.171875 8.984375 5.078125 
Q 5.46875 8.984375 5.46875 14.84375 
L 5.46875 45.703125 
L 13.28125 45.703125 
L 13.28125 17.578125 
Q 13.28125 12.890625 15.625 10.15625 
Q 17.96875 7.421875 21.875 7.421875 
Q 26.953125 7.421875 31.4375 12.6875 
Q 35.9375 17.96875 35.9375 25.78125 
L 35.9375 45.703125 
L 43.75 45.703125 
z
" id="SimHei-117"/>
      <path d="M 42.96875 1.953125 
L 35.15625 1.953125 
L 35.15625 7.8125 
Q 32.8125 4.296875 29.6875 2.734375 
Q 26.5625 1.171875 22.265625 1.171875 
Q 14.453125 1.171875 8.984375 6.828125 
Q 3.515625 12.5 3.515625 23.828125 
Q 3.515625 35.15625 8.984375 41.015625 
Q 14.453125 46.875 22.265625 46.875 
Q 26.5625 46.875 29.6875 45.109375 
Q 32.8125 43.359375 35.15625 39.84375 
L 35.15625 68.75 
L 42.96875 68.75 
z
M 35.15625 23.828125 
Q 35.15625 31.25 31.828125 35.546875 
Q 28.515625 39.84375 23.828125 39.84375 
Q 17.96875 39.84375 15.03125 35.546875 
Q 12.109375 31.25 12.109375 23.828125 
Q 12.109375 16.40625 15.03125 12.296875 
Q 17.96875 8.203125 23.828125 8.203125 
Q 28.515625 8.203125 31.828125 12.296875 
Q 35.15625 16.40625 35.15625 23.828125 
z
" id="SimHei-100"/>
      <path d="M 44.53125 19.53125 
Q 44.53125 11.328125 38.859375 6.25 
Q 33.203125 1.171875 24.609375 1.171875 
Q 16.015625 1.171875 9.765625 7.21875 
Q 3.515625 13.28125 3.515625 23.828125 
Q 3.515625 34.375 9.765625 40.421875 
Q 16.015625 46.484375 24.609375 46.484375 
Q 33.203125 46.484375 38.28125 41.984375 
Q 43.359375 37.5 43.359375 31.25 
L 34.765625 31.25 
Q 34.375 35.9375 31.4375 37.6875 
Q 28.515625 39.453125 24.609375 39.453125 
Q 19.921875 39.453125 16.015625 35.734375 
Q 12.109375 32.03125 12.109375 23.828125 
Q 12.109375 15.625 16.015625 11.90625 
Q 19.921875 8.203125 24.609375 8.203125 
Q 29.6875 8.203125 32.8125 10.9375 
Q 35.9375 13.671875 35.9375 19.53125 
z
" id="SimHei-99"/>
     </defs>
     <g transform="translate(119 102.515625)scale(0.14 -0.14)">
      <use xlink:href="#SimHei-113"/>
      <use x="50" xlink:href="#SimHei-117"/>
      <use x="100" xlink:href="#SimHei-97"/>
      <use x="150" xlink:href="#SimHei-100"/>
      <use x="200" xlink:href="#SimHei-114"/>
      <use x="250" xlink:href="#SimHei-97"/>
      <use x="300" xlink:href="#SimHei-116"/>
      <use x="350" xlink:href="#SimHei-105"/>
      <use x="400" xlink:href="#SimHei-99"/>
     </g>
    </g>
    <g id="line2d_37">
     <path d="M 79.8 116.165625 
L 107.8 116.165625 
" style="fill:none;stroke:#17becf;stroke-linecap:square;stroke-width:1.5;"/>
    </g>
    <g id="line2d_38"/>
    <g id="text_17">
     <!-- cubic -->
     <defs>
      <path d="M 44.140625 23.828125 
Q 44.140625 12.5 38.671875 6.828125 
Q 33.203125 1.171875 25.390625 1.171875 
Q 21.09375 1.171875 17.96875 2.734375 
Q 14.84375 4.296875 12.5 7.8125 
L 12.5 1.953125 
L 4.6875 1.953125 
L 4.6875 68.75 
L 12.5 68.75 
L 12.5 39.84375 
Q 14.84375 43.359375 17.96875 45.109375 
Q 21.09375 46.875 25.390625 46.875 
Q 33.203125 46.875 38.671875 41.015625 
Q 44.140625 35.15625 44.140625 23.828125 
z
M 35.546875 23.828125 
Q 35.546875 31.25 32.609375 35.546875 
Q 29.6875 39.84375 23.828125 39.84375 
Q 19.140625 39.84375 15.8125 35.546875 
Q 12.5 31.25 12.5 23.828125 
Q 12.5 16.40625 15.8125 12.296875 
Q 19.140625 8.203125 23.828125 8.203125 
Q 29.6875 8.203125 32.609375 12.296875 
Q 35.546875 16.40625 35.546875 23.828125 
z
" id="SimHei-98"/>
     </defs>
     <g transform="translate(119 121.065625)scale(0.14 -0.14)">
      <use xlink:href="#SimHei-99"/>
      <use x="50" xlink:href="#SimHei-117"/>
      <use x="100" xlink:href="#SimHei-98"/>
      <use x="150" xlink:href="#SimHei-105"/>
      <use x="200" xlink:href="#SimHei-99"/>
     </g>
    </g>
   </g>
  </g>
 </g>
 <defs>
  <clipPath id="p2f496ac664">
   <rect height="326.16" width="446.4" x="67.2" y="24.465625"/>
  </clipPath>
 </defs>
</svg>
