<?xml version="1.0" encoding="utf-8" standalone="no"?>
<!DOCTYPE svg PUBLIC "-//W3C//DTD SVG 1.1//EN"
  "http://www.w3.org/Graphics/SVG/1.1/DTD/svg11.dtd">
<!-- Created with matplotlib (https://matplotlib.org/) -->
<svg height="342.755pt" version="1.1" viewBox="0 0 493.594799 342.755" width="493.594799pt" xmlns="http://www.w3.org/2000/svg" xmlns:xlink="http://www.w3.org/1999/xlink">
 <defs>
  <style type="text/css">
*{stroke-linecap:butt;stroke-linejoin:round;}
  </style>
 </defs>
 <g id="figure_1">
  <g id="patch_1">
   <path d="M 0 342.755 
L 493.594799 342.755 
L 493.594799 0 
L 0 0 
z
" style="fill:#ffffff;"/>
  </g>
  <g id="axes_1">
   <g id="patch_2">
    <path d="M 29.2 151.441304 
L 223.286957 151.441304 
L 223.286957 21.45 
L 29.2 21.45 
z
" style="fill:#eaeaf2;"/>
   </g>
   <g id="matplotlib.axis_1">
    <g id="xtick_1">
     <g id="line2d_1">
      <path clip-path="url(#p74a62ee317)" d="M 63.951909 151.441304 
L 63.951909 21.45 
" style="fill:none;stroke:#ffffff;stroke-linecap:round;"/>
     </g>
     <g id="line2d_2"/>
     <g id="text_1">
      <!-- -0.10 -->
      <defs>
       <path d="M 46.484375 33.203125 
L 1.953125 33.203125 
L 1.953125 39.453125 
L 46.484375 39.453125 
z
" id="KaiTi-45"/>
       <path d="M 3.125 29.296875 
Q 3.90625 50 6.4375 56.046875 
Q 8.984375 62.109375 13.671875 66.015625 
Q 18.359375 69.921875 25.1875 69.921875 
Q 32.03125 69.921875 37.109375 64.25 
Q 42.1875 58.59375 43.75 50 
Q 45.3125 41.40625 44.71875 30.265625 
Q 44.140625 19.140625 40.8125 12.109375 
Q 37.5 5.078125 30.859375 2.34375 
Q 24.21875 -0.390625 17.578125 2.921875 
Q 10.9375 6.25 8.203125 11.71875 
Q 5.46875 17.1875 4.296875 23.234375 
Q 3.125 29.296875 3.90625 50 
z
M 12.890625 52.734375 
Q 10.546875 31.25 12.5 22.84375 
Q 14.453125 14.453125 18.9375 10.9375 
Q 23.4375 7.421875 28.125 9.5625 
Q 32.8125 11.71875 34.953125 18.15625 
Q 37.109375 24.609375 37.109375 32.21875 
Q 37.109375 39.84375 36.515625 46.09375 
Q 35.9375 52.34375 33 57.421875 
Q 30.078125 62.5 25.1875 62.6875 
Q 20.3125 62.890625 16.59375 57.8125 
Q 12.890625 52.734375 10.546875 31.25 
z
" id="KaiTi-48"/>
       <path d="M 12.5 1.171875 
Q 10.546875 1.171875 8.78125 2.53125 
Q 7.03125 3.90625 7.03125 6.640625 
Q 7.03125 8.984375 8.390625 10.34375 
Q 9.765625 11.71875 12.5 12.109375 
Q 15.234375 12.109375 16.59375 10.546875 
Q 17.96875 8.984375 17.96875 6.640625 
Q 17.96875 3.90625 16.40625 2.53125 
Q 14.84375 1.171875 12.5 1.171875 
z
" id="KaiTi-46"/>
       <path d="M 21.875 56.25 
Q 16.796875 51.171875 8.984375 46.484375 
L 8.984375 53.90625 
Q 18.75 60.546875 25 69.53125 
L 29.6875 69.53125 
L 29.6875 2.34375 
L 21.875 2.34375 
z
" id="KaiTi-49"/>
      </defs>
      <g style="fill:#262626;" transform="translate(51.451909 165.316304)scale(0.1 -0.1)">
       <use xlink:href="#KaiTi-45"/>
       <use x="50" xlink:href="#KaiTi-48"/>
       <use x="100" xlink:href="#KaiTi-46"/>
       <use x="150" xlink:href="#KaiTi-49"/>
       <use x="200" xlink:href="#KaiTi-48"/>
      </g>
     </g>
    </g>
    <g id="xtick_2">
     <g id="line2d_3">
      <path clip-path="url(#p74a62ee317)" d="M 104.626172 151.441304 
L 104.626172 21.45 
" style="fill:none;stroke:#ffffff;stroke-linecap:round;"/>
     </g>
     <g id="line2d_4"/>
     <g id="text_2">
      <!-- -0.05 -->
      <defs>
       <path d="M 8.59375 20.703125 
Q 11.328125 10.15625 17.96875 8.984375 
Q 24.609375 7.8125 28.703125 10.34375 
Q 32.8125 12.890625 34.5625 16.984375 
Q 36.328125 21.09375 36.125 26.171875 
Q 35.9375 31.25 33.390625 34.765625 
Q 30.859375 38.28125 26.953125 39.453125 
Q 23.046875 40.625 18.15625 39.453125 
Q 13.28125 38.28125 10.15625 33.984375 
L 3.515625 34.765625 
Q 4.296875 37.109375 10.9375 68.359375 
L 41.796875 68.359375 
L 41.796875 61.328125 
L 16.796875 61.328125 
Q 14.84375 50.78125 12.890625 44.53125 
Q 18.75 47.265625 23.828125 47.0625 
Q 28.90625 46.875 33.59375 44.71875 
Q 38.28125 42.578125 40.421875 38.859375 
Q 42.578125 35.15625 43.546875 31.4375 
Q 44.53125 27.734375 44.328125 23.4375 
Q 44.140625 19.140625 42.578125 14.640625 
Q 41.015625 10.15625 37.890625 7.21875 
Q 34.765625 4.296875 30.265625 2.53125 
Q 25.78125 0.78125 19.921875 1.171875 
Q 14.0625 1.5625 8.78125 5.46875 
Q 3.515625 9.375 1.5625 18.75 
z
" id="KaiTi-53"/>
      </defs>
      <g style="fill:#262626;" transform="translate(92.126172 165.316304)scale(0.1 -0.1)">
       <use xlink:href="#KaiTi-45"/>
       <use x="50" xlink:href="#KaiTi-48"/>
       <use x="100" xlink:href="#KaiTi-46"/>
       <use x="150" xlink:href="#KaiTi-48"/>
       <use x="200" xlink:href="#KaiTi-53"/>
      </g>
     </g>
    </g>
    <g id="xtick_3">
     <g id="line2d_5">
      <path clip-path="url(#p74a62ee317)" d="M 145.300435 151.441304 
L 145.300435 21.45 
" style="fill:none;stroke:#ffffff;stroke-linecap:round;"/>
     </g>
     <g id="line2d_6"/>
     <g id="text_3">
      <!-- 0.00 -->
      <g style="fill:#262626;" transform="translate(135.300435 165.316304)scale(0.1 -0.1)">
       <use xlink:href="#KaiTi-48"/>
       <use x="50" xlink:href="#KaiTi-46"/>
       <use x="100" xlink:href="#KaiTi-48"/>
       <use x="150" xlink:href="#KaiTi-48"/>
      </g>
     </g>
    </g>
    <g id="xtick_4">
     <g id="line2d_7">
      <path clip-path="url(#p74a62ee317)" d="M 185.974698 151.441304 
L 185.974698 21.45 
" style="fill:none;stroke:#ffffff;stroke-linecap:round;"/>
     </g>
     <g id="line2d_8"/>
     <g id="text_4">
      <!-- 0.05 -->
      <g style="fill:#262626;" transform="translate(175.974698 165.316304)scale(0.1 -0.1)">
       <use xlink:href="#KaiTi-48"/>
       <use x="50" xlink:href="#KaiTi-46"/>
       <use x="100" xlink:href="#KaiTi-48"/>
       <use x="150" xlink:href="#KaiTi-53"/>
      </g>
     </g>
    </g>
   </g>
   <g id="matplotlib.axis_2">
    <g id="ytick_1">
     <g id="line2d_9">
      <path clip-path="url(#p74a62ee317)" d="M 29.2 151.441304 
L 223.286957 151.441304 
" style="fill:none;stroke:#ffffff;stroke-linecap:round;"/>
     </g>
     <g id="line2d_10"/>
     <g id="text_5">
      <!-- 0 -->
      <g style="fill:#262626;" transform="translate(17.2 154.878804)scale(0.1 -0.1)">
       <use xlink:href="#KaiTi-48"/>
      </g>
     </g>
    </g>
    <g id="ytick_2">
     <g id="line2d_11">
      <path clip-path="url(#p74a62ee317)" d="M 29.2 119.11722 
L 223.286957 119.11722 
" style="fill:none;stroke:#ffffff;stroke-linecap:round;"/>
     </g>
     <g id="line2d_12"/>
     <g id="text_6">
      <!-- 100 -->
      <g style="fill:#262626;" transform="translate(7.2 122.55472)scale(0.1 -0.1)">
       <use xlink:href="#KaiTi-49"/>
       <use x="50" xlink:href="#KaiTi-48"/>
       <use x="100" xlink:href="#KaiTi-48"/>
      </g>
     </g>
    </g>
    <g id="ytick_3">
     <g id="line2d_13">
      <path clip-path="url(#p74a62ee317)" d="M 29.2 86.793136 
L 223.286957 86.793136 
" style="fill:none;stroke:#ffffff;stroke-linecap:round;"/>
     </g>
     <g id="line2d_14"/>
     <g id="text_7">
      <!-- 200 -->
      <defs>
       <path d="M 4.6875 3.90625 
Q 5.078125 9.765625 10.15625 14.453125 
Q 15.234375 19.140625 23.046875 29.09375 
Q 30.859375 39.0625 33.203125 44.53125 
Q 35.546875 50 34.953125 53.90625 
Q 34.375 57.8125 31.25 60.34375 
Q 28.125 62.890625 24.015625 62.5 
Q 19.921875 62.109375 16.203125 59.375 
Q 12.5 56.640625 10.546875 51.171875 
L 3.125 52.34375 
Q 6.25 61.328125 11.125 65.421875 
Q 16.015625 69.53125 22.65625 69.921875 
Q 26.5625 70.3125 29.6875 69.71875 
Q 32.8125 69.140625 36.125 66.984375 
Q 39.453125 64.84375 41.59375 60.546875 
Q 43.75 56.25 43.15625 50.1875 
Q 42.578125 44.140625 37.109375 35.734375 
Q 31.640625 27.34375 16.015625 9.375 
L 44.140625 9.375 
L 44.140625 2.34375 
L 4.6875 2.34375 
z
" id="KaiTi-50"/>
      </defs>
      <g style="fill:#262626;" transform="translate(7.2 90.230636)scale(0.1 -0.1)">
       <use xlink:href="#KaiTi-50"/>
       <use x="50" xlink:href="#KaiTi-48"/>
       <use x="100" xlink:href="#KaiTi-48"/>
      </g>
     </g>
    </g>
    <g id="ytick_4">
     <g id="line2d_15">
      <path clip-path="url(#p74a62ee317)" d="M 29.2 54.469052 
L 223.286957 54.469052 
" style="fill:none;stroke:#ffffff;stroke-linecap:round;"/>
     </g>
     <g id="line2d_16"/>
     <g id="text_8">
      <!-- 300 -->
      <defs>
       <path d="M 3.90625 19.140625 
L 10.9375 20.3125 
Q 12.5 15.234375 16.015625 11.90625 
Q 19.53125 8.59375 24.796875 8.78125 
Q 30.078125 8.984375 33.203125 13.078125 
Q 36.328125 17.1875 35.9375 22.453125 
Q 35.546875 27.734375 31.828125 30.65625 
Q 28.125 33.59375 19.921875 34.765625 
L 19.921875 39.84375 
Q 28.125 40.625 31.828125 44.140625 
Q 35.546875 47.65625 35.15625 53.3125 
Q 34.765625 58.984375 30.078125 61.515625 
Q 25.390625 64.0625 20.109375 62.109375 
Q 14.84375 60.15625 11.71875 51.171875 
L 4.6875 52.34375 
Q 7.03125 59.375 11.125 64.0625 
Q 15.234375 68.75 22.265625 69.53125 
Q 29.296875 70.3125 34.5625 67.765625 
Q 39.84375 65.234375 41.984375 59.953125 
Q 44.140625 54.6875 42.578125 48.4375 
Q 41.015625 42.1875 33.59375 37.5 
Q 39.0625 35.15625 41.984375 30.46875 
Q 44.921875 25.78125 43.9375 18.15625 
Q 42.96875 10.546875 37.109375 5.859375 
Q 31.25 1.171875 23.828125 1.359375 
Q 16.40625 1.5625 10.9375 6.046875 
Q 5.46875 10.546875 3.90625 19.140625 
z
" id="KaiTi-51"/>
      </defs>
      <g style="fill:#262626;" transform="translate(7.2 57.906552)scale(0.1 -0.1)">
       <use xlink:href="#KaiTi-51"/>
       <use x="50" xlink:href="#KaiTi-48"/>
       <use x="100" xlink:href="#KaiTi-48"/>
      </g>
     </g>
    </g>
    <g id="ytick_5">
     <g id="line2d_17">
      <path clip-path="url(#p74a62ee317)" d="M 29.2 22.144968 
L 223.286957 22.144968 
" style="fill:none;stroke:#ffffff;stroke-linecap:round;"/>
     </g>
     <g id="line2d_18"/>
     <g id="text_9">
      <!-- 400 -->
      <defs>
       <path d="M 31.25 17.1875 
L 1.171875 17.1875 
L 1.171875 23.828125 
L 32.8125 69.53125 
L 38.671875 69.53125 
L 38.671875 23.828125 
L 48.046875 23.828125 
L 48.046875 17.1875 
L 38.671875 17.1875 
L 38.671875 2.34375 
L 31.25 2.34375 
z
M 31.25 23.828125 
L 31.25 54.6875 
L 9.375 23.828125 
z
" id="KaiTi-52"/>
      </defs>
      <g style="fill:#262626;" transform="translate(7.2 25.582468)scale(0.1 -0.1)">
       <use xlink:href="#KaiTi-52"/>
       <use x="50" xlink:href="#KaiTi-48"/>
       <use x="100" xlink:href="#KaiTi-48"/>
      </g>
     </g>
    </g>
   </g>
   <g id="patch_3">
    <path clip-path="url(#p74a62ee317)" d="M 38.022134 151.441304 
L 42.433202 151.441304 
L 42.433202 151.118064 
L 38.022134 151.118064 
z
" style="fill:#4c72b0;"/>
   </g>
   <g id="patch_4">
    <path clip-path="url(#p74a62ee317)" d="M 42.433202 151.441304 
L 46.844269 151.441304 
L 46.844269 151.441304 
L 42.433202 151.441304 
z
" style="fill:#4c72b0;"/>
   </g>
   <g id="patch_5">
    <path clip-path="url(#p74a62ee317)" d="M 46.844269 151.441304 
L 51.255336 151.441304 
L 51.255336 151.441304 
L 46.844269 151.441304 
z
" style="fill:#4c72b0;"/>
   </g>
   <g id="patch_6">
    <path clip-path="url(#p74a62ee317)" d="M 51.255336 151.441304 
L 55.666403 151.441304 
L 55.666403 151.441304 
L 51.255336 151.441304 
z
" style="fill:#4c72b0;"/>
   </g>
   <g id="patch_7">
    <path clip-path="url(#p74a62ee317)" d="M 55.666403 151.441304 
L 60.07747 151.441304 
L 60.07747 151.441304 
L 55.666403 151.441304 
z
" style="fill:#4c72b0;"/>
   </g>
   <g id="patch_8">
    <path clip-path="url(#p74a62ee317)" d="M 60.07747 151.441304 
L 64.488538 151.441304 
L 64.488538 151.441304 
L 60.07747 151.441304 
z
" style="fill:#4c72b0;"/>
   </g>
   <g id="patch_9">
    <path clip-path="url(#p74a62ee317)" d="M 64.488538 151.441304 
L 68.899605 151.441304 
L 68.899605 151.441304 
L 64.488538 151.441304 
z
" style="fill:#4c72b0;"/>
   </g>
   <g id="patch_10">
    <path clip-path="url(#p74a62ee317)" d="M 68.899605 151.441304 
L 73.310672 151.441304 
L 73.310672 151.441304 
L 68.899605 151.441304 
z
" style="fill:#4c72b0;"/>
   </g>
   <g id="patch_11">
    <path clip-path="url(#p74a62ee317)" d="M 73.310672 151.441304 
L 77.721739 151.441304 
L 77.721739 151.118064 
L 73.310672 151.118064 
z
" style="fill:#4c72b0;"/>
   </g>
   <g id="patch_12">
    <path clip-path="url(#p74a62ee317)" d="M 77.721739 151.441304 
L 82.132806 151.441304 
L 82.132806 151.441304 
L 77.721739 151.441304 
z
" style="fill:#4c72b0;"/>
   </g>
   <g id="patch_13">
    <path clip-path="url(#p74a62ee317)" d="M 82.132806 151.441304 
L 86.543874 151.441304 
L 86.543874 151.441304 
L 82.132806 151.441304 
z
" style="fill:#4c72b0;"/>
   </g>
   <g id="patch_14">
    <path clip-path="url(#p74a62ee317)" d="M 86.543874 151.441304 
L 90.954941 151.441304 
L 90.954941 151.118064 
L 86.543874 151.118064 
z
" style="fill:#4c72b0;"/>
   </g>
   <g id="patch_15">
    <path clip-path="url(#p74a62ee317)" d="M 90.954941 151.441304 
L 95.366008 151.441304 
L 95.366008 150.471582 
L 90.954941 150.471582 
z
" style="fill:#4c72b0;"/>
   </g>
   <g id="patch_16">
    <path clip-path="url(#p74a62ee317)" d="M 95.366008 151.441304 
L 99.777075 151.441304 
L 99.777075 150.148341 
L 95.366008 150.148341 
z
" style="fill:#4c72b0;"/>
   </g>
   <g id="patch_17">
    <path clip-path="url(#p74a62ee317)" d="M 99.777075 151.441304 
L 104.188142 151.441304 
L 104.188142 150.794823 
L 99.777075 150.794823 
z
" style="fill:#4c72b0;"/>
   </g>
   <g id="patch_18">
    <path clip-path="url(#p74a62ee317)" d="M 104.188142 151.441304 
L 108.599209 151.441304 
L 108.599209 150.471582 
L 104.188142 150.471582 
z
" style="fill:#4c72b0;"/>
   </g>
   <g id="patch_19">
    <path clip-path="url(#p74a62ee317)" d="M 108.599209 151.441304 
L 113.010277 151.441304 
L 113.010277 147.885655 
L 108.599209 147.885655 
z
" style="fill:#4c72b0;"/>
   </g>
   <g id="patch_20">
    <path clip-path="url(#p74a62ee317)" d="M 113.010277 151.441304 
L 117.421344 151.441304 
L 117.421344 145.94621 
L 113.010277 145.94621 
z
" style="fill:#4c72b0;"/>
   </g>
   <g id="patch_21">
    <path clip-path="url(#p74a62ee317)" d="M 117.421344 151.441304 
L 121.832411 151.441304 
L 121.832411 145.299728 
L 117.421344 145.299728 
z
" style="fill:#4c72b0;"/>
   </g>
   <g id="patch_22">
    <path clip-path="url(#p74a62ee317)" d="M 121.832411 151.441304 
L 126.243478 151.441304 
L 126.243478 131.400372 
L 121.832411 131.400372 
z
" style="fill:#4c72b0;"/>
   </g>
   <g id="patch_23">
    <path clip-path="url(#p74a62ee317)" d="M 126.243478 151.441304 
L 130.654545 151.441304 
L 130.654545 128.814445 
L 126.243478 128.814445 
z
" style="fill:#4c72b0;"/>
   </g>
   <g id="patch_24">
    <path clip-path="url(#p74a62ee317)" d="M 130.654545 151.441304 
L 135.065613 151.441304 
L 135.065613 109.743236 
L 130.654545 109.743236 
z
" style="fill:#4c72b0;"/>
   </g>
   <g id="patch_25">
    <path clip-path="url(#p74a62ee317)" d="M 135.065613 151.441304 
L 139.47668 151.441304 
L 139.47668 87.439618 
L 135.065613 87.439618 
z
" style="fill:#4c72b0;"/>
   </g>
   <g id="patch_26">
    <path clip-path="url(#p74a62ee317)" d="M 139.47668 151.441304 
L 143.887747 151.441304 
L 143.887747 31.518952 
L 139.47668 31.518952 
z
" style="fill:#4c72b0;"/>
   </g>
   <g id="patch_27">
    <path clip-path="url(#p74a62ee317)" d="M 143.887747 151.441304 
L 148.298814 151.441304 
L 148.298814 27.640062 
L 143.887747 27.640062 
z
" style="fill:#4c72b0;"/>
   </g>
   <g id="patch_28">
    <path clip-path="url(#p74a62ee317)" d="M 148.298814 151.441304 
L 152.709881 151.441304 
L 152.709881 51.559884 
L 148.298814 51.559884 
z
" style="fill:#4c72b0;"/>
   </g>
   <g id="patch_29">
    <path clip-path="url(#p74a62ee317)" d="M 152.709881 151.441304 
L 157.120949 151.441304 
L 157.120949 77.742393 
L 152.709881 77.742393 
z
" style="fill:#4c72b0;"/>
   </g>
   <g id="patch_30">
    <path clip-path="url(#p74a62ee317)" d="M 157.120949 151.441304 
L 161.532016 151.441304 
L 161.532016 99.72277 
L 157.120949 99.72277 
z
" style="fill:#4c72b0;"/>
   </g>
   <g id="patch_31">
    <path clip-path="url(#p74a62ee317)" d="M 161.532016 151.441304 
L 165.943083 151.441304 
L 165.943083 133.986299 
L 161.532016 133.986299 
z
" style="fill:#4c72b0;"/>
   </g>
   <g id="patch_32">
    <path clip-path="url(#p74a62ee317)" d="M 165.943083 151.441304 
L 170.35415 151.441304 
L 170.35415 135.602503 
L 165.943083 135.602503 
z
" style="fill:#4c72b0;"/>
   </g>
   <g id="patch_33">
    <path clip-path="url(#p74a62ee317)" d="M 170.35415 151.441304 
L 174.765217 151.441304 
L 174.765217 144.976488 
L 170.35415 144.976488 
z
" style="fill:#4c72b0;"/>
   </g>
   <g id="patch_34">
    <path clip-path="url(#p74a62ee317)" d="M 174.765217 151.441304 
L 179.176285 151.441304 
L 179.176285 145.94621 
L 174.765217 145.94621 
z
" style="fill:#4c72b0;"/>
   </g>
   <g id="patch_35">
    <path clip-path="url(#p74a62ee317)" d="M 179.176285 151.441304 
L 183.587352 151.441304 
L 183.587352 148.855378 
L 179.176285 148.855378 
z
" style="fill:#4c72b0;"/>
   </g>
   <g id="patch_36">
    <path clip-path="url(#p74a62ee317)" d="M 183.587352 151.441304 
L 187.998419 151.441304 
L 187.998419 149.8251 
L 183.587352 149.8251 
z
" style="fill:#4c72b0;"/>
   </g>
   <g id="patch_37">
    <path clip-path="url(#p74a62ee317)" d="M 187.998419 151.441304 
L 192.409486 151.441304 
L 192.409486 150.148341 
L 187.998419 150.148341 
z
" style="fill:#4c72b0;"/>
   </g>
   <g id="patch_38">
    <path clip-path="url(#p74a62ee317)" d="M 192.409486 151.441304 
L 196.820553 151.441304 
L 196.820553 150.148341 
L 192.409486 150.148341 
z
" style="fill:#4c72b0;"/>
   </g>
   <g id="patch_39">
    <path clip-path="url(#p74a62ee317)" d="M 196.820553 151.441304 
L 201.231621 151.441304 
L 201.231621 151.441304 
L 196.820553 151.441304 
z
" style="fill:#4c72b0;"/>
   </g>
   <g id="patch_40">
    <path clip-path="url(#p74a62ee317)" d="M 201.231621 151.441304 
L 205.642688 151.441304 
L 205.642688 150.794823 
L 201.231621 150.794823 
z
" style="fill:#4c72b0;"/>
   </g>
   <g id="patch_41">
    <path clip-path="url(#p74a62ee317)" d="M 205.642688 151.441304 
L 210.053755 151.441304 
L 210.053755 151.118064 
L 205.642688 151.118064 
z
" style="fill:#4c72b0;"/>
   </g>
   <g id="patch_42">
    <path clip-path="url(#p74a62ee317)" d="M 210.053755 151.441304 
L 214.464822 151.441304 
L 214.464822 151.118064 
L 210.053755 151.118064 
z
" style="fill:#4c72b0;"/>
   </g>
   <g id="patch_43">
    <path d="M 29.2 151.441304 
L 29.2 21.45 
" style="fill:none;"/>
   </g>
   <g id="patch_44">
    <path d="M 223.286957 151.441304 
L 223.286957 21.45 
" style="fill:none;"/>
   </g>
   <g id="patch_45">
    <path d="M 29.2 151.441304 
L 223.286957 151.441304 
" style="fill:none;"/>
   </g>
   <g id="patch_46">
    <path d="M 29.2 21.45 
L 223.286957 21.45 
" style="fill:none;"/>
   </g>
   <g id="text_10">
    <!-- AAPL.O -->
    <defs>
     <path d="M 48.046875 1.953125 
L 38.671875 1.953125 
L 33.203125 22.65625 
L 16.015625 22.65625 
L 10.546875 1.953125 
L 1.171875 1.953125 
L 20.703125 69.53125 
L 28.515625 69.53125 
z
M 31.25 30.078125 
L 25 53.90625 
L 24.21875 53.90625 
L 17.96875 30.078125 
z
" id="KaiTi-65"/>
     <path d="M 46.09375 48.4375 
Q 46.09375 39.0625 40.625 33.59375 
Q 35.15625 28.125 25.390625 28.125 
L 14.0625 28.125 
L 14.0625 1.953125 
L 5.078125 1.953125 
L 5.078125 68.75 
L 25.390625 68.75 
Q 35.15625 68.75 40.625 63.28125 
Q 46.09375 57.8125 46.09375 48.4375 
z
M 37.109375 48.4375 
Q 37.109375 55.859375 33.59375 58.59375 
Q 30.078125 61.328125 23.046875 61.328125 
L 14.0625 61.328125 
L 14.0625 35.546875 
L 23.046875 35.546875 
Q 30.078125 35.546875 33.59375 38.28125 
Q 37.109375 41.015625 37.109375 48.4375 
z
" id="KaiTi-80"/>
     <path d="M 45.3125 1.953125 
L 4.6875 1.953125 
L 4.6875 68.75 
L 13.671875 68.75 
L 13.671875 9.375 
L 45.3125 9.375 
z
" id="KaiTi-76"/>
     <path d="M 46.09375 35.546875 
Q 46.09375 17.1875 40.421875 9.171875 
Q 34.765625 1.171875 24.609375 1.171875 
Q 14.453125 1.171875 8.59375 9.171875 
Q 2.734375 17.1875 2.734375 35.546875 
Q 2.734375 53.90625 8.59375 61.71875 
Q 14.453125 69.53125 24.609375 69.53125 
Q 34.765625 69.53125 40.421875 61.71875 
Q 46.09375 53.90625 46.09375 35.546875 
z
M 36.71875 35.546875 
Q 36.71875 51.953125 33.203125 57.03125 
Q 29.6875 62.109375 24.609375 62.109375 
Q 19.53125 62.109375 15.8125 57.03125 
Q 12.109375 51.953125 12.109375 35.546875 
Q 12.109375 19.140625 15.8125 13.859375 
Q 19.53125 8.59375 24.609375 8.59375 
Q 29.6875 8.59375 33.203125 13.859375 
Q 36.71875 19.140625 36.71875 35.546875 
z
" id="KaiTi-79"/>
    </defs>
    <g style="fill:#262626;" transform="translate(108.243478 15.45)scale(0.12 -0.12)">
     <use xlink:href="#KaiTi-65"/>
     <use x="50" xlink:href="#KaiTi-65"/>
     <use x="100" xlink:href="#KaiTi-80"/>
     <use x="150" xlink:href="#KaiTi-76"/>
     <use x="200" xlink:href="#KaiTi-46"/>
     <use x="250" xlink:href="#KaiTi-79"/>
    </g>
   </g>
  </g>
  <g id="axes_2">
   <g id="patch_47">
    <path d="M 281.513043 151.441304 
L 475.6 151.441304 
L 475.6 21.45 
L 281.513043 21.45 
z
" style="fill:#eaeaf2;"/>
   </g>
   <g id="matplotlib.axis_3">
    <g id="xtick_5">
     <g id="line2d_19">
      <path clip-path="url(#pc7ff59f2d7)" d="M 343.20184 151.441304 
L 343.20184 21.45 
" style="fill:none;stroke:#ffffff;stroke-linecap:round;"/>
     </g>
     <g id="line2d_20"/>
     <g id="text_11">
      <!-- -0.05 -->
      <g style="fill:#262626;" transform="translate(330.70184 165.316304)scale(0.1 -0.1)">
       <use xlink:href="#KaiTi-45"/>
       <use x="50" xlink:href="#KaiTi-48"/>
       <use x="100" xlink:href="#KaiTi-46"/>
       <use x="150" xlink:href="#KaiTi-48"/>
       <use x="200" xlink:href="#KaiTi-53"/>
      </g>
     </g>
    </g>
    <g id="xtick_6">
     <g id="line2d_21">
      <path clip-path="url(#pc7ff59f2d7)" d="M 406.280905 151.441304 
L 406.280905 21.45 
" style="fill:none;stroke:#ffffff;stroke-linecap:round;"/>
     </g>
     <g id="line2d_22"/>
     <g id="text_12">
      <!-- 0.00 -->
      <g style="fill:#262626;" transform="translate(396.280905 165.316304)scale(0.1 -0.1)">
       <use xlink:href="#KaiTi-48"/>
       <use x="50" xlink:href="#KaiTi-46"/>
       <use x="100" xlink:href="#KaiTi-48"/>
       <use x="150" xlink:href="#KaiTi-48"/>
      </g>
     </g>
    </g>
    <g id="xtick_7">
     <g id="line2d_23">
      <path clip-path="url(#pc7ff59f2d7)" d="M 469.35997 151.441304 
L 469.35997 21.45 
" style="fill:none;stroke:#ffffff;stroke-linecap:round;"/>
     </g>
     <g id="line2d_24"/>
     <g id="text_13">
      <!-- 0.05 -->
      <g style="fill:#262626;" transform="translate(459.35997 165.316304)scale(0.1 -0.1)">
       <use xlink:href="#KaiTi-48"/>
       <use x="50" xlink:href="#KaiTi-46"/>
       <use x="100" xlink:href="#KaiTi-48"/>
       <use x="150" xlink:href="#KaiTi-53"/>
      </g>
     </g>
    </g>
   </g>
   <g id="matplotlib.axis_4">
    <g id="ytick_6">
     <g id="line2d_25">
      <path clip-path="url(#pc7ff59f2d7)" d="M 281.513043 151.441304 
L 475.6 151.441304 
" style="fill:none;stroke:#ffffff;stroke-linecap:round;"/>
     </g>
     <g id="line2d_26"/>
     <g id="text_14">
      <!-- 0 -->
      <g style="fill:#262626;" transform="translate(269.513043 154.878804)scale(0.1 -0.1)">
       <use xlink:href="#KaiTi-48"/>
      </g>
     </g>
    </g>
    <g id="ytick_7">
     <g id="line2d_27">
      <path clip-path="url(#pc7ff59f2d7)" d="M 281.513043 121.023309 
L 475.6 121.023309 
" style="fill:none;stroke:#ffffff;stroke-linecap:round;"/>
     </g>
     <g id="line2d_28"/>
     <g id="text_15">
      <!-- 100 -->
      <g style="fill:#262626;" transform="translate(259.513043 124.460809)scale(0.1 -0.1)">
       <use xlink:href="#KaiTi-49"/>
       <use x="50" xlink:href="#KaiTi-48"/>
       <use x="100" xlink:href="#KaiTi-48"/>
      </g>
     </g>
    </g>
    <g id="ytick_8">
     <g id="line2d_29">
      <path clip-path="url(#pc7ff59f2d7)" d="M 281.513043 90.605313 
L 475.6 90.605313 
" style="fill:none;stroke:#ffffff;stroke-linecap:round;"/>
     </g>
     <g id="line2d_30"/>
     <g id="text_16">
      <!-- 200 -->
      <g style="fill:#262626;" transform="translate(259.513043 94.042813)scale(0.1 -0.1)">
       <use xlink:href="#KaiTi-50"/>
       <use x="50" xlink:href="#KaiTi-48"/>
       <use x="100" xlink:href="#KaiTi-48"/>
      </g>
     </g>
    </g>
    <g id="ytick_9">
     <g id="line2d_31">
      <path clip-path="url(#pc7ff59f2d7)" d="M 281.513043 60.187317 
L 475.6 60.187317 
" style="fill:none;stroke:#ffffff;stroke-linecap:round;"/>
     </g>
     <g id="line2d_32"/>
     <g id="text_17">
      <!-- 300 -->
      <g style="fill:#262626;" transform="translate(259.513043 63.624817)scale(0.1 -0.1)">
       <use xlink:href="#KaiTi-51"/>
       <use x="50" xlink:href="#KaiTi-48"/>
       <use x="100" xlink:href="#KaiTi-48"/>
      </g>
     </g>
    </g>
    <g id="ytick_10">
     <g id="line2d_33">
      <path clip-path="url(#pc7ff59f2d7)" d="M 281.513043 29.769322 
L 475.6 29.769322 
" style="fill:none;stroke:#ffffff;stroke-linecap:round;"/>
     </g>
     <g id="line2d_34"/>
     <g id="text_18">
      <!-- 400 -->
      <g style="fill:#262626;" transform="translate(259.513043 33.206822)scale(0.1 -0.1)">
       <use xlink:href="#KaiTi-52"/>
       <use x="50" xlink:href="#KaiTi-48"/>
       <use x="100" xlink:href="#KaiTi-48"/>
      </g>
     </g>
    </g>
   </g>
   <g id="patch_48">
    <path clip-path="url(#pc7ff59f2d7)" d="M 290.335178 151.441304 
L 294.746245 151.441304 
L 294.746245 151.137124 
L 290.335178 151.137124 
z
" style="fill:#4c72b0;"/>
   </g>
   <g id="patch_49">
    <path clip-path="url(#pc7ff59f2d7)" d="M 294.746245 151.441304 
L 299.157312 151.441304 
L 299.157312 151.441304 
L 294.746245 151.441304 
z
" style="fill:#4c72b0;"/>
   </g>
   <g id="patch_50">
    <path clip-path="url(#pc7ff59f2d7)" d="M 299.157312 151.441304 
L 303.568379 151.441304 
L 303.568379 151.441304 
L 299.157312 151.441304 
z
" style="fill:#4c72b0;"/>
   </g>
   <g id="patch_51">
    <path clip-path="url(#pc7ff59f2d7)" d="M 303.568379 151.441304 
L 307.979447 151.441304 
L 307.979447 151.441304 
L 303.568379 151.441304 
z
" style="fill:#4c72b0;"/>
   </g>
   <g id="patch_52">
    <path clip-path="url(#pc7ff59f2d7)" d="M 307.979447 151.441304 
L 312.390514 151.441304 
L 312.390514 151.441304 
L 307.979447 151.441304 
z
" style="fill:#4c72b0;"/>
   </g>
   <g id="patch_53">
    <path clip-path="url(#pc7ff59f2d7)" d="M 312.390514 151.441304 
L 316.801581 151.441304 
L 316.801581 151.441304 
L 312.390514 151.441304 
z
" style="fill:#4c72b0;"/>
   </g>
   <g id="patch_54">
    <path clip-path="url(#pc7ff59f2d7)" d="M 316.801581 151.441304 
L 321.212648 151.441304 
L 321.212648 151.441304 
L 316.801581 151.441304 
z
" style="fill:#4c72b0;"/>
   </g>
   <g id="patch_55">
    <path clip-path="url(#pc7ff59f2d7)" d="M 321.212648 151.441304 
L 325.623715 151.441304 
L 325.623715 151.441304 
L 321.212648 151.441304 
z
" style="fill:#4c72b0;"/>
   </g>
   <g id="patch_56">
    <path clip-path="url(#pc7ff59f2d7)" d="M 325.623715 151.441304 
L 330.034783 151.441304 
L 330.034783 151.441304 
L 325.623715 151.441304 
z
" style="fill:#4c72b0;"/>
   </g>
   <g id="patch_57">
    <path clip-path="url(#pc7ff59f2d7)" d="M 330.034783 151.441304 
L 334.44585 151.441304 
L 334.44585 151.441304 
L 330.034783 151.441304 
z
" style="fill:#4c72b0;"/>
   </g>
   <g id="patch_58">
    <path clip-path="url(#pc7ff59f2d7)" d="M 334.44585 151.441304 
L 338.856917 151.441304 
L 338.856917 150.528764 
L 334.44585 150.528764 
z
" style="fill:#4c72b0;"/>
   </g>
   <g id="patch_59">
    <path clip-path="url(#pc7ff59f2d7)" d="M 338.856917 151.441304 
L 343.267984 151.441304 
L 343.267984 151.441304 
L 338.856917 151.441304 
z
" style="fill:#4c72b0;"/>
   </g>
   <g id="patch_60">
    <path clip-path="url(#pc7ff59f2d7)" d="M 343.267984 151.441304 
L 347.679051 151.441304 
L 347.679051 151.137124 
L 343.267984 151.137124 
z
" style="fill:#4c72b0;"/>
   </g>
   <g id="patch_61">
    <path clip-path="url(#pc7ff59f2d7)" d="M 347.679051 151.441304 
L 352.090119 151.441304 
L 352.090119 151.441304 
L 347.679051 151.441304 
z
" style="fill:#4c72b0;"/>
   </g>
   <g id="patch_62">
    <path clip-path="url(#pc7ff59f2d7)" d="M 352.090119 151.441304 
L 356.501186 151.441304 
L 356.501186 150.832944 
L 352.090119 150.832944 
z
" style="fill:#4c72b0;"/>
   </g>
   <g id="patch_63">
    <path clip-path="url(#pc7ff59f2d7)" d="M 356.501186 151.441304 
L 360.912253 151.441304 
L 360.912253 150.832944 
L 356.501186 150.832944 
z
" style="fill:#4c72b0;"/>
   </g>
   <g id="patch_64">
    <path clip-path="url(#pc7ff59f2d7)" d="M 360.912253 151.441304 
L 365.32332 151.441304 
L 365.32332 150.528764 
L 360.912253 150.528764 
z
" style="fill:#4c72b0;"/>
   </g>
   <g id="patch_65">
    <path clip-path="url(#pc7ff59f2d7)" d="M 365.32332 151.441304 
L 369.734387 151.441304 
L 369.734387 149.312045 
L 365.32332 149.312045 
z
" style="fill:#4c72b0;"/>
   </g>
   <g id="patch_66">
    <path clip-path="url(#pc7ff59f2d7)" d="M 369.734387 151.441304 
L 374.145455 151.441304 
L 374.145455 147.791145 
L 369.734387 147.791145 
z
" style="fill:#4c72b0;"/>
   </g>
   <g id="patch_67">
    <path clip-path="url(#pc7ff59f2d7)" d="M 374.145455 151.441304 
L 378.556522 151.441304 
L 378.556522 144.445165 
L 374.145455 144.445165 
z
" style="fill:#4c72b0;"/>
   </g>
   <g id="patch_68">
    <path clip-path="url(#pc7ff59f2d7)" d="M 378.556522 151.441304 
L 382.967589 151.441304 
L 382.967589 143.228446 
L 378.556522 143.228446 
z
" style="fill:#4c72b0;"/>
   </g>
   <g id="patch_69">
    <path clip-path="url(#pc7ff59f2d7)" d="M 382.967589 151.441304 
L 387.378656 151.441304 
L 387.378656 139.882466 
L 382.967589 139.882466 
z
" style="fill:#4c72b0;"/>
   </g>
   <g id="patch_70">
    <path clip-path="url(#pc7ff59f2d7)" d="M 387.378656 151.441304 
L 391.789723 151.441304 
L 391.789723 125.281828 
L 387.378656 125.281828 
z
" style="fill:#4c72b0;"/>
   </g>
   <g id="patch_71">
    <path clip-path="url(#pc7ff59f2d7)" d="M 391.789723 151.441304 
L 396.200791 151.441304 
L 396.200791 112.81045 
L 391.789723 112.81045 
z
" style="fill:#4c72b0;"/>
   </g>
   <g id="patch_72">
    <path clip-path="url(#pc7ff59f2d7)" d="M 396.200791 151.441304 
L 400.611858 151.441304 
L 400.611858 73.267056 
L 396.200791 73.267056 
z
" style="fill:#4c72b0;"/>
   </g>
   <g id="patch_73">
    <path clip-path="url(#pc7ff59f2d7)" d="M 400.611858 151.441304 
L 405.022925 151.441304 
L 405.022925 48.628479 
L 400.611858 48.628479 
z
" style="fill:#4c72b0;"/>
   </g>
   <g id="patch_74">
    <path clip-path="url(#pc7ff59f2d7)" d="M 405.022925 151.441304 
L 409.433992 151.441304 
L 409.433992 27.640062 
L 405.022925 27.640062 
z
" style="fill:#4c72b0;"/>
   </g>
   <g id="patch_75">
    <path clip-path="url(#pc7ff59f2d7)" d="M 409.433992 151.441304 
L 413.845059 151.441304 
L 413.845059 55.928798 
L 409.433992 55.928798 
z
" style="fill:#4c72b0;"/>
   </g>
   <g id="patch_76">
    <path clip-path="url(#pc7ff59f2d7)" d="M 413.845059 151.441304 
L 418.256126 151.441304 
L 418.256126 90.301133 
L 413.845059 90.301133 
z
" style="fill:#4c72b0;"/>
   </g>
   <g id="patch_77">
    <path clip-path="url(#pc7ff59f2d7)" d="M 418.256126 151.441304 
L 422.667194 151.441304 
L 422.667194 114.63553 
L 418.256126 114.63553 
z
" style="fill:#4c72b0;"/>
   </g>
   <g id="patch_78">
    <path clip-path="url(#pc7ff59f2d7)" d="M 422.667194 151.441304 
L 427.078261 151.441304 
L 427.078261 130.757067 
L 422.667194 130.757067 
z
" style="fill:#4c72b0;"/>
   </g>
   <g id="patch_79">
    <path clip-path="url(#pc7ff59f2d7)" d="M 427.078261 151.441304 
L 431.489328 151.441304 
L 431.489328 137.449026 
L 427.078261 137.449026 
z
" style="fill:#4c72b0;"/>
   </g>
   <g id="patch_80">
    <path clip-path="url(#pc7ff59f2d7)" d="M 431.489328 151.441304 
L 435.900395 151.441304 
L 435.900395 145.661885 
L 431.489328 145.661885 
z
" style="fill:#4c72b0;"/>
   </g>
   <g id="patch_81">
    <path clip-path="url(#pc7ff59f2d7)" d="M 435.900395 151.441304 
L 440.311462 151.441304 
L 440.311462 147.486965 
L 435.900395 147.486965 
z
" style="fill:#4c72b0;"/>
   </g>
   <g id="patch_82">
    <path clip-path="url(#pc7ff59f2d7)" d="M 440.311462 151.441304 
L 444.72253 151.441304 
L 444.72253 148.095325 
L 440.311462 148.095325 
z
" style="fill:#4c72b0;"/>
   </g>
   <g id="patch_83">
    <path clip-path="url(#pc7ff59f2d7)" d="M 444.72253 151.441304 
L 449.133597 151.441304 
L 449.133597 150.528764 
L 444.72253 150.528764 
z
" style="fill:#4c72b0;"/>
   </g>
   <g id="patch_84">
    <path clip-path="url(#pc7ff59f2d7)" d="M 449.133597 151.441304 
L 453.544664 151.441304 
L 453.544664 150.832944 
L 449.133597 150.832944 
z
" style="fill:#4c72b0;"/>
   </g>
   <g id="patch_85">
    <path clip-path="url(#pc7ff59f2d7)" d="M 453.544664 151.441304 
L 457.955731 151.441304 
L 457.955731 150.528764 
L 453.544664 150.528764 
z
" style="fill:#4c72b0;"/>
   </g>
   <g id="patch_86">
    <path clip-path="url(#pc7ff59f2d7)" d="M 457.955731 151.441304 
L 462.366798 151.441304 
L 462.366798 151.137124 
L 457.955731 151.137124 
z
" style="fill:#4c72b0;"/>
   </g>
   <g id="patch_87">
    <path clip-path="url(#pc7ff59f2d7)" d="M 462.366798 151.441304 
L 466.777866 151.441304 
L 466.777866 151.137124 
L 462.366798 151.137124 
z
" style="fill:#4c72b0;"/>
   </g>
   <g id="patch_88">
    <path d="M 281.513043 151.441304 
L 281.513043 21.45 
" style="fill:none;"/>
   </g>
   <g id="patch_89">
    <path d="M 475.6 151.441304 
L 475.6 21.45 
" style="fill:none;"/>
   </g>
   <g id="patch_90">
    <path d="M 281.513043 151.441304 
L 475.6 151.441304 
" style="fill:none;"/>
   </g>
   <g id="patch_91">
    <path d="M 281.513043 21.45 
L 475.6 21.45 
" style="fill:none;"/>
   </g>
   <g id="text_19">
    <!-- GLD -->
    <defs>
     <path d="M 44.53125 1.171875 
L 37.890625 1.171875 
L 36.71875 6.640625 
Q 35.15625 4.296875 31.828125 2.734375 
Q 28.515625 1.171875 24.609375 1.171875 
Q 16.40625 1.171875 9.953125 8.78125 
Q 3.515625 16.40625 3.515625 33.203125 
Q 3.515625 51.5625 9.375 60.546875 
Q 15.234375 69.53125 25.390625 69.53125 
Q 34.375 69.53125 39.453125 62.890625 
Q 44.53125 56.25 44.53125 45.703125 
L 35.9375 45.703125 
Q 35.9375 53.90625 33.203125 58 
Q 30.46875 62.109375 25.390625 62.109375 
Q 19.140625 62.109375 16.015625 55.65625 
Q 12.890625 49.21875 12.890625 33.984375 
Q 12.890625 19.53125 16.796875 14.0625 
Q 20.703125 8.59375 25.78125 8.59375 
Q 30.859375 8.59375 33.78125 12.296875 
Q 36.71875 16.015625 36.71875 23.828125 
L 36.71875 28.125 
L 24.609375 28.125 
L 24.609375 35.546875 
L 44.53125 35.546875 
z
" id="KaiTi-71"/>
     <path d="M 45.703125 35.15625 
Q 45.703125 17.1875 38.078125 9.5625 
Q 30.46875 1.953125 17.578125 1.953125 
L 4.296875 1.953125 
L 4.296875 68.75 
L 17.578125 68.75 
Q 32.03125 68.75 38.859375 60.9375 
Q 45.703125 53.125 45.703125 35.15625 
z
M 36.328125 35.15625 
Q 36.328125 49.609375 31.640625 55.46875 
Q 26.953125 61.328125 17.578125 61.328125 
L 13.28125 61.328125 
L 13.28125 9.375 
L 17.578125 9.375 
Q 26.953125 9.375 31.640625 15.03125 
Q 36.328125 20.703125 36.328125 35.15625 
z
" id="KaiTi-68"/>
    </defs>
    <g style="fill:#262626;" transform="translate(369.556522 15.45)scale(0.12 -0.12)">
     <use xlink:href="#KaiTi-71"/>
     <use x="50" xlink:href="#KaiTi-76"/>
     <use x="100" xlink:href="#KaiTi-68"/>
    </g>
   </g>
  </g>
  <g id="axes_3">
   <g id="patch_92">
    <path d="M 29.2 320.43 
L 223.286957 320.43 
L 223.286957 190.438696 
L 29.2 190.438696 
z
" style="fill:#eaeaf2;"/>
   </g>
   <g id="matplotlib.axis_5">
    <g id="xtick_8">
     <g id="line2d_35">
      <path clip-path="url(#pf68dc9394c)" d="M 54.856897 320.43 
L 54.856897 190.438696 
" style="fill:none;stroke:#ffffff;stroke-linecap:round;"/>
     </g>
     <g id="line2d_36"/>
     <g id="text_20">
      <!-- -0.10 -->
      <g style="fill:#262626;" transform="translate(42.356897 334.305)scale(0.1 -0.1)">
       <use xlink:href="#KaiTi-45"/>
       <use x="50" xlink:href="#KaiTi-48"/>
       <use x="100" xlink:href="#KaiTi-46"/>
       <use x="150" xlink:href="#KaiTi-49"/>
       <use x="200" xlink:href="#KaiTi-48"/>
      </g>
     </g>
    </g>
    <g id="xtick_9">
     <g id="line2d_37">
      <path clip-path="url(#pf68dc9394c)" d="M 94.876334 320.43 
L 94.876334 190.438696 
" style="fill:none;stroke:#ffffff;stroke-linecap:round;"/>
     </g>
     <g id="line2d_38"/>
     <g id="text_21">
      <!-- -0.05 -->
      <g style="fill:#262626;" transform="translate(82.376334 334.305)scale(0.1 -0.1)">
       <use xlink:href="#KaiTi-45"/>
       <use x="50" xlink:href="#KaiTi-48"/>
       <use x="100" xlink:href="#KaiTi-46"/>
       <use x="150" xlink:href="#KaiTi-48"/>
       <use x="200" xlink:href="#KaiTi-53"/>
      </g>
     </g>
    </g>
    <g id="xtick_10">
     <g id="line2d_39">
      <path clip-path="url(#pf68dc9394c)" d="M 134.895771 320.43 
L 134.895771 190.438696 
" style="fill:none;stroke:#ffffff;stroke-linecap:round;"/>
     </g>
     <g id="line2d_40"/>
     <g id="text_22">
      <!-- 0.00 -->
      <g style="fill:#262626;" transform="translate(124.895771 334.305)scale(0.1 -0.1)">
       <use xlink:href="#KaiTi-48"/>
       <use x="50" xlink:href="#KaiTi-46"/>
       <use x="100" xlink:href="#KaiTi-48"/>
       <use x="150" xlink:href="#KaiTi-48"/>
      </g>
     </g>
    </g>
    <g id="xtick_11">
     <g id="line2d_41">
      <path clip-path="url(#pf68dc9394c)" d="M 174.915208 320.43 
L 174.915208 190.438696 
" style="fill:none;stroke:#ffffff;stroke-linecap:round;"/>
     </g>
     <g id="line2d_42"/>
     <g id="text_23">
      <!-- 0.05 -->
      <g style="fill:#262626;" transform="translate(164.915208 334.305)scale(0.1 -0.1)">
       <use xlink:href="#KaiTi-48"/>
       <use x="50" xlink:href="#KaiTi-46"/>
       <use x="100" xlink:href="#KaiTi-48"/>
       <use x="150" xlink:href="#KaiTi-53"/>
      </g>
     </g>
    </g>
    <g id="xtick_12">
     <g id="line2d_43">
      <path clip-path="url(#pf68dc9394c)" d="M 214.934644 320.43 
L 214.934644 190.438696 
" style="fill:none;stroke:#ffffff;stroke-linecap:round;"/>
     </g>
     <g id="line2d_44"/>
     <g id="text_24">
      <!-- 0.10 -->
      <g style="fill:#262626;" transform="translate(204.934644 334.305)scale(0.1 -0.1)">
       <use xlink:href="#KaiTi-48"/>
       <use x="50" xlink:href="#KaiTi-46"/>
       <use x="100" xlink:href="#KaiTi-49"/>
       <use x="150" xlink:href="#KaiTi-48"/>
      </g>
     </g>
    </g>
   </g>
   <g id="matplotlib.axis_6">
    <g id="ytick_11">
     <g id="line2d_45">
      <path clip-path="url(#pf68dc9394c)" d="M 29.2 320.43 
L 223.286957 320.43 
" style="fill:none;stroke:#ffffff;stroke-linecap:round;"/>
     </g>
     <g id="line2d_46"/>
     <g id="text_25">
      <!-- 0 -->
      <g style="fill:#262626;" transform="translate(17.2 323.8675)scale(0.1 -0.1)">
       <use xlink:href="#KaiTi-48"/>
      </g>
     </g>
    </g>
    <g id="ytick_12">
     <g id="line2d_47">
      <path clip-path="url(#pf68dc9394c)" d="M 29.2 291.772305 
L 223.286957 291.772305 
" style="fill:none;stroke:#ffffff;stroke-linecap:round;"/>
     </g>
     <g id="line2d_48"/>
     <g id="text_26">
      <!-- 100 -->
      <g style="fill:#262626;" transform="translate(7.2 295.209805)scale(0.1 -0.1)">
       <use xlink:href="#KaiTi-49"/>
       <use x="50" xlink:href="#KaiTi-48"/>
       <use x="100" xlink:href="#KaiTi-48"/>
      </g>
     </g>
    </g>
    <g id="ytick_13">
     <g id="line2d_49">
      <path clip-path="url(#pf68dc9394c)" d="M 29.2 263.11461 
L 223.286957 263.11461 
" style="fill:none;stroke:#ffffff;stroke-linecap:round;"/>
     </g>
     <g id="line2d_50"/>
     <g id="text_27">
      <!-- 200 -->
      <g style="fill:#262626;" transform="translate(7.2 266.55211)scale(0.1 -0.1)">
       <use xlink:href="#KaiTi-50"/>
       <use x="50" xlink:href="#KaiTi-48"/>
       <use x="100" xlink:href="#KaiTi-48"/>
      </g>
     </g>
    </g>
    <g id="ytick_14">
     <g id="line2d_51">
      <path clip-path="url(#pf68dc9394c)" d="M 29.2 234.456915 
L 223.286957 234.456915 
" style="fill:none;stroke:#ffffff;stroke-linecap:round;"/>
     </g>
     <g id="line2d_52"/>
     <g id="text_28">
      <!-- 300 -->
      <g style="fill:#262626;" transform="translate(7.2 237.894415)scale(0.1 -0.1)">
       <use xlink:href="#KaiTi-51"/>
       <use x="50" xlink:href="#KaiTi-48"/>
       <use x="100" xlink:href="#KaiTi-48"/>
      </g>
     </g>
    </g>
    <g id="ytick_15">
     <g id="line2d_53">
      <path clip-path="url(#pf68dc9394c)" d="M 29.2 205.79922 
L 223.286957 205.79922 
" style="fill:none;stroke:#ffffff;stroke-linecap:round;"/>
     </g>
     <g id="line2d_54"/>
     <g id="text_29">
      <!-- 400 -->
      <g style="fill:#262626;" transform="translate(7.2 209.23672)scale(0.1 -0.1)">
       <use xlink:href="#KaiTi-52"/>
       <use x="50" xlink:href="#KaiTi-48"/>
       <use x="100" xlink:href="#KaiTi-48"/>
      </g>
     </g>
    </g>
   </g>
   <g id="patch_93">
    <path clip-path="url(#pf68dc9394c)" d="M 38.022134 320.43 
L 42.433202 320.43 
L 42.433202 320.143423 
L 38.022134 320.143423 
z
" style="fill:#4c72b0;"/>
   </g>
   <g id="patch_94">
    <path clip-path="url(#pf68dc9394c)" d="M 42.433202 320.43 
L 46.844269 320.43 
L 46.844269 320.43 
L 42.433202 320.43 
z
" style="fill:#4c72b0;"/>
   </g>
   <g id="patch_95">
    <path clip-path="url(#pf68dc9394c)" d="M 46.844269 320.43 
L 51.255336 320.43 
L 51.255336 320.43 
L 46.844269 320.43 
z
" style="fill:#4c72b0;"/>
   </g>
   <g id="patch_96">
    <path clip-path="url(#pf68dc9394c)" d="M 51.255336 320.43 
L 55.666403 320.43 
L 55.666403 320.43 
L 51.255336 320.43 
z
" style="fill:#4c72b0;"/>
   </g>
   <g id="patch_97">
    <path clip-path="url(#pf68dc9394c)" d="M 55.666403 320.43 
L 60.07747 320.43 
L 60.07747 320.143423 
L 55.666403 320.143423 
z
" style="fill:#4c72b0;"/>
   </g>
   <g id="patch_98">
    <path clip-path="url(#pf68dc9394c)" d="M 60.07747 320.43 
L 64.488538 320.43 
L 64.488538 320.43 
L 60.07747 320.43 
z
" style="fill:#4c72b0;"/>
   </g>
   <g id="patch_99">
    <path clip-path="url(#pf68dc9394c)" d="M 64.488538 320.43 
L 68.899605 320.43 
L 68.899605 320.43 
L 64.488538 320.43 
z
" style="fill:#4c72b0;"/>
   </g>
   <g id="patch_100">
    <path clip-path="url(#pf68dc9394c)" d="M 68.899605 320.43 
L 73.310672 320.43 
L 73.310672 320.43 
L 68.899605 320.43 
z
" style="fill:#4c72b0;"/>
   </g>
   <g id="patch_101">
    <path clip-path="url(#pf68dc9394c)" d="M 73.310672 320.43 
L 77.721739 320.43 
L 77.721739 320.143423 
L 73.310672 320.143423 
z
" style="fill:#4c72b0;"/>
   </g>
   <g id="patch_102">
    <path clip-path="url(#pf68dc9394c)" d="M 77.721739 320.43 
L 82.132806 320.43 
L 82.132806 320.43 
L 77.721739 320.43 
z
" style="fill:#4c72b0;"/>
   </g>
   <g id="patch_103">
    <path clip-path="url(#pf68dc9394c)" d="M 82.132806 320.43 
L 86.543874 320.43 
L 86.543874 320.43 
L 82.132806 320.43 
z
" style="fill:#4c72b0;"/>
   </g>
   <g id="patch_104">
    <path clip-path="url(#pf68dc9394c)" d="M 86.543874 320.43 
L 90.954941 320.43 
L 90.954941 319.856846 
L 86.543874 319.856846 
z
" style="fill:#4c72b0;"/>
   </g>
   <g id="patch_105">
    <path clip-path="url(#pf68dc9394c)" d="M 90.954941 320.43 
L 95.366008 320.43 
L 95.366008 320.143423 
L 90.954941 320.143423 
z
" style="fill:#4c72b0;"/>
   </g>
   <g id="patch_106">
    <path clip-path="url(#pf68dc9394c)" d="M 95.366008 320.43 
L 99.777075 320.43 
L 99.777075 319.283692 
L 95.366008 319.283692 
z
" style="fill:#4c72b0;"/>
   </g>
   <g id="patch_107">
    <path clip-path="url(#pf68dc9394c)" d="M 99.777075 320.43 
L 104.188142 320.43 
L 104.188142 316.7045 
L 99.777075 316.7045 
z
" style="fill:#4c72b0;"/>
   </g>
   <g id="patch_108">
    <path clip-path="url(#pf68dc9394c)" d="M 104.188142 320.43 
L 108.599209 320.43 
L 108.599209 316.7045 
L 104.188142 316.7045 
z
" style="fill:#4c72b0;"/>
   </g>
   <g id="patch_109">
    <path clip-path="url(#pf68dc9394c)" d="M 108.599209 320.43 
L 113.010277 320.43 
L 113.010277 314.125307 
L 108.599209 314.125307 
z
" style="fill:#4c72b0;"/>
   </g>
   <g id="patch_110">
    <path clip-path="url(#pf68dc9394c)" d="M 113.010277 320.43 
L 117.421344 320.43 
L 117.421344 309.540076 
L 113.010277 309.540076 
z
" style="fill:#4c72b0;"/>
   </g>
   <g id="patch_111">
    <path clip-path="url(#pf68dc9394c)" d="M 117.421344 320.43 
L 121.832411 320.43 
L 121.832411 300.083037 
L 117.421344 300.083037 
z
" style="fill:#4c72b0;"/>
   </g>
   <g id="patch_112">
    <path clip-path="url(#pf68dc9394c)" d="M 121.832411 320.43 
L 126.243478 320.43 
L 126.243478 272.858226 
L 121.832411 272.858226 
z
" style="fill:#4c72b0;"/>
   </g>
   <g id="patch_113">
    <path clip-path="url(#pf68dc9394c)" d="M 126.243478 320.43 
L 130.654545 320.43 
L 130.654545 235.316646 
L 126.243478 235.316646 
z
" style="fill:#4c72b0;"/>
   </g>
   <g id="patch_114">
    <path clip-path="url(#pf68dc9394c)" d="M 130.654545 320.43 
L 135.065613 320.43 
L 135.065613 196.628758 
L 130.654545 196.628758 
z
" style="fill:#4c72b0;"/>
   </g>
   <g id="patch_115">
    <path clip-path="url(#pf68dc9394c)" d="M 135.065613 320.43 
L 139.47668 320.43 
L 139.47668 204.652912 
L 135.065613 204.652912 
z
" style="fill:#4c72b0;"/>
   </g>
   <g id="patch_116">
    <path clip-path="url(#pf68dc9394c)" d="M 139.47668 320.43 
L 143.887747 320.43 
L 143.887747 235.8898 
L 139.47668 235.8898 
z
" style="fill:#4c72b0;"/>
   </g>
   <g id="patch_117">
    <path clip-path="url(#pf68dc9394c)" d="M 143.887747 320.43 
L 148.298814 320.43 
L 148.298814 269.992457 
L 143.887747 269.992457 
z
" style="fill:#4c72b0;"/>
   </g>
   <g id="patch_118">
    <path clip-path="url(#pf68dc9394c)" d="M 148.298814 320.43 
L 152.709881 320.43 
L 152.709881 293.20519 
L 148.298814 293.20519 
z
" style="fill:#4c72b0;"/>
   </g>
   <g id="patch_119">
    <path clip-path="url(#pf68dc9394c)" d="M 152.709881 320.43 
L 157.120949 320.43 
L 157.120949 306.674306 
L 152.709881 306.674306 
z
" style="fill:#4c72b0;"/>
   </g>
   <g id="patch_120">
    <path clip-path="url(#pf68dc9394c)" d="M 157.120949 320.43 
L 161.532016 320.43 
L 161.532016 313.83873 
L 157.120949 313.83873 
z
" style="fill:#4c72b0;"/>
   </g>
   <g id="patch_121">
    <path clip-path="url(#pf68dc9394c)" d="M 161.532016 320.43 
L 165.943083 320.43 
L 165.943083 316.131346 
L 161.532016 316.131346 
z
" style="fill:#4c72b0;"/>
   </g>
   <g id="patch_122">
    <path clip-path="url(#pf68dc9394c)" d="M 165.943083 320.43 
L 170.35415 320.43 
L 170.35415 318.423961 
L 165.943083 318.423961 
z
" style="fill:#4c72b0;"/>
   </g>
   <g id="patch_123">
    <path clip-path="url(#pf68dc9394c)" d="M 170.35415 320.43 
L 174.765217 320.43 
L 174.765217 320.143423 
L 170.35415 320.143423 
z
" style="fill:#4c72b0;"/>
   </g>
   <g id="patch_124">
    <path clip-path="url(#pf68dc9394c)" d="M 174.765217 320.43 
L 179.176285 320.43 
L 179.176285 319.283692 
L 174.765217 319.283692 
z
" style="fill:#4c72b0;"/>
   </g>
   <g id="patch_125">
    <path clip-path="url(#pf68dc9394c)" d="M 179.176285 320.43 
L 183.587352 320.43 
L 183.587352 319.856846 
L 179.176285 319.856846 
z
" style="fill:#4c72b0;"/>
   </g>
   <g id="patch_126">
    <path clip-path="url(#pf68dc9394c)" d="M 183.587352 320.43 
L 187.998419 320.43 
L 187.998419 320.143423 
L 183.587352 320.143423 
z
" style="fill:#4c72b0;"/>
   </g>
   <g id="patch_127">
    <path clip-path="url(#pf68dc9394c)" d="M 187.998419 320.43 
L 192.409486 320.43 
L 192.409486 320.143423 
L 187.998419 320.143423 
z
" style="fill:#4c72b0;"/>
   </g>
   <g id="patch_128">
    <path clip-path="url(#pf68dc9394c)" d="M 192.409486 320.43 
L 196.820553 320.43 
L 196.820553 320.143423 
L 192.409486 320.143423 
z
" style="fill:#4c72b0;"/>
   </g>
   <g id="patch_129">
    <path clip-path="url(#pf68dc9394c)" d="M 196.820553 320.43 
L 201.231621 320.43 
L 201.231621 320.43 
L 196.820553 320.43 
z
" style="fill:#4c72b0;"/>
   </g>
   <g id="patch_130">
    <path clip-path="url(#pf68dc9394c)" d="M 201.231621 320.43 
L 205.642688 320.43 
L 205.642688 320.43 
L 201.231621 320.43 
z
" style="fill:#4c72b0;"/>
   </g>
   <g id="patch_131">
    <path clip-path="url(#pf68dc9394c)" d="M 205.642688 320.43 
L 210.053755 320.43 
L 210.053755 320.43 
L 205.642688 320.43 
z
" style="fill:#4c72b0;"/>
   </g>
   <g id="patch_132">
    <path clip-path="url(#pf68dc9394c)" d="M 210.053755 320.43 
L 214.464822 320.43 
L 214.464822 319.856846 
L 210.053755 319.856846 
z
" style="fill:#4c72b0;"/>
   </g>
   <g id="patch_133">
    <path d="M 29.2 320.43 
L 29.2 190.438696 
" style="fill:none;"/>
   </g>
   <g id="patch_134">
    <path d="M 223.286957 320.43 
L 223.286957 190.438696 
" style="fill:none;"/>
   </g>
   <g id="patch_135">
    <path d="M 29.2 320.43 
L 223.286957 320.43 
" style="fill:none;"/>
   </g>
   <g id="patch_136">
    <path d="M 29.2 190.438696 
L 223.286957 190.438696 
" style="fill:none;"/>
   </g>
   <g id="text_30">
    <!-- MSFT.O -->
    <defs>
     <path d="M 45.703125 1.953125 
L 37.890625 1.953125 
L 37.890625 49.609375 
L 37.109375 49.609375 
L 27.734375 1.953125 
L 21.484375 1.953125 
L 12.109375 49.609375 
L 11.328125 49.609375 
L 11.328125 1.953125 
L 3.515625 1.953125 
L 3.515625 68.75 
L 15.625 68.75 
L 24.21875 24.609375 
L 25 24.609375 
L 33.59375 68.75 
L 45.703125 68.75 
z
" id="KaiTi-77"/>
     <path d="M 45.3125 20.703125 
Q 45.3125 11.71875 39.640625 6.4375 
Q 33.984375 1.171875 24.21875 1.171875 
Q 14.453125 1.171875 8.984375 6.640625 
Q 3.515625 12.109375 3.515625 20.3125 
L 3.515625 23.046875 
L 12.5 23.046875 
L 12.5 20.703125 
Q 12.5 14.84375 16.015625 11.71875 
Q 19.53125 8.59375 24.21875 8.59375 
Q 30.46875 8.59375 33.390625 11.90625 
Q 36.328125 15.234375 36.328125 19.921875 
Q 36.328125 23.828125 32.8125 27.140625 
Q 29.296875 30.46875 22.65625 33.203125 
Q 13.28125 36.71875 9.171875 41.015625 
Q 5.078125 45.3125 5.078125 51.171875 
Q 5.078125 59.375 10.734375 64.453125 
Q 16.40625 69.53125 24.21875 69.53125 
Q 34.375 69.53125 38.859375 63.46875 
Q 43.359375 57.421875 43.359375 50.390625 
L 34.375 50.390625 
Q 34.765625 54.6875 32.03125 58.203125 
Q 29.296875 61.71875 24.21875 61.71875 
Q 19.53125 61.71875 16.796875 59.171875 
Q 14.0625 56.640625 14.0625 52.34375 
Q 14.0625 48.828125 16.203125 46.28125 
Q 18.359375 43.75 27.34375 40.234375 
Q 35.9375 36.71875 40.625 31.828125 
Q 45.3125 26.953125 45.3125 20.703125 
z
" id="KaiTi-83"/>
     <path d="M 45.703125 61.328125 
L 13.671875 61.328125 
L 13.671875 39.453125 
L 37.890625 39.453125 
L 37.890625 32.03125 
L 13.671875 32.03125 
L 13.671875 1.953125 
L 4.6875 1.953125 
L 4.6875 68.75 
L 45.703125 68.75 
z
" id="KaiTi-70"/>
     <path d="M 44.53125 61.328125 
L 28.90625 61.328125 
L 28.90625 1.953125 
L 19.921875 1.953125 
L 19.921875 61.328125 
L 4.296875 61.328125 
L 4.296875 68.75 
L 44.53125 68.75 
z
" id="KaiTi-84"/>
    </defs>
    <g style="fill:#262626;" transform="translate(108.243478 184.438696)scale(0.12 -0.12)">
     <use xlink:href="#KaiTi-77"/>
     <use x="50" xlink:href="#KaiTi-83"/>
     <use x="100" xlink:href="#KaiTi-70"/>
     <use x="150" xlink:href="#KaiTi-84"/>
     <use x="200" xlink:href="#KaiTi-46"/>
     <use x="250" xlink:href="#KaiTi-79"/>
    </g>
   </g>
  </g>
  <g id="axes_4">
   <g id="patch_137">
    <path d="M 281.513043 320.43 
L 475.6 320.43 
L 475.6 190.438696 
L 281.513043 190.438696 
z
" style="fill:#eaeaf2;"/>
   </g>
   <g id="matplotlib.axis_7">
    <g id="xtick_13">
     <g id="line2d_55">
      <path clip-path="url(#pbe87ad5a16)" d="M 317.461599 320.43 
L 317.461599 190.438696 
" style="fill:none;stroke:#ffffff;stroke-linecap:round;"/>
     </g>
     <g id="line2d_56"/>
     <g id="text_31">
      <!-- -0.050 -->
      <g style="fill:#262626;" transform="translate(302.461599 334.305)scale(0.1 -0.1)">
       <use xlink:href="#KaiTi-45"/>
       <use x="50" xlink:href="#KaiTi-48"/>
       <use x="100" xlink:href="#KaiTi-46"/>
       <use x="150" xlink:href="#KaiTi-48"/>
       <use x="200" xlink:href="#KaiTi-53"/>
       <use x="250" xlink:href="#KaiTi-48"/>
      </g>
     </g>
    </g>
    <g id="xtick_14">
     <g id="line2d_57">
      <path clip-path="url(#pbe87ad5a16)" d="M 356.569899 320.43 
L 356.569899 190.438696 
" style="fill:none;stroke:#ffffff;stroke-linecap:round;"/>
     </g>
     <g id="line2d_58"/>
     <g id="text_32">
      <!-- -0.025 -->
      <g style="fill:#262626;" transform="translate(341.569899 334.305)scale(0.1 -0.1)">
       <use xlink:href="#KaiTi-45"/>
       <use x="50" xlink:href="#KaiTi-48"/>
       <use x="100" xlink:href="#KaiTi-46"/>
       <use x="150" xlink:href="#KaiTi-48"/>
       <use x="200" xlink:href="#KaiTi-50"/>
       <use x="250" xlink:href="#KaiTi-53"/>
      </g>
     </g>
    </g>
    <g id="xtick_15">
     <g id="line2d_59">
      <path clip-path="url(#pbe87ad5a16)" d="M 395.678199 320.43 
L 395.678199 190.438696 
" style="fill:none;stroke:#ffffff;stroke-linecap:round;"/>
     </g>
     <g id="line2d_60"/>
     <g id="text_33">
      <!-- 0.000 -->
      <g style="fill:#262626;" transform="translate(383.178199 334.305)scale(0.1 -0.1)">
       <use xlink:href="#KaiTi-48"/>
       <use x="50" xlink:href="#KaiTi-46"/>
       <use x="100" xlink:href="#KaiTi-48"/>
       <use x="150" xlink:href="#KaiTi-48"/>
       <use x="200" xlink:href="#KaiTi-48"/>
      </g>
     </g>
    </g>
    <g id="xtick_16">
     <g id="line2d_61">
      <path clip-path="url(#pbe87ad5a16)" d="M 434.786499 320.43 
L 434.786499 190.438696 
" style="fill:none;stroke:#ffffff;stroke-linecap:round;"/>
     </g>
     <g id="line2d_62"/>
     <g id="text_34">
      <!-- 0.025 -->
      <g style="fill:#262626;" transform="translate(422.286499 334.305)scale(0.1 -0.1)">
       <use xlink:href="#KaiTi-48"/>
       <use x="50" xlink:href="#KaiTi-46"/>
       <use x="100" xlink:href="#KaiTi-48"/>
       <use x="150" xlink:href="#KaiTi-50"/>
       <use x="200" xlink:href="#KaiTi-53"/>
      </g>
     </g>
    </g>
    <g id="xtick_17">
     <g id="line2d_63">
      <path clip-path="url(#pbe87ad5a16)" d="M 473.894799 320.43 
L 473.894799 190.438696 
" style="fill:none;stroke:#ffffff;stroke-linecap:round;"/>
     </g>
     <g id="line2d_64"/>
     <g id="text_35">
      <!-- 0.050 -->
      <g style="fill:#262626;" transform="translate(461.394799 334.305)scale(0.1 -0.1)">
       <use xlink:href="#KaiTi-48"/>
       <use x="50" xlink:href="#KaiTi-46"/>
       <use x="100" xlink:href="#KaiTi-48"/>
       <use x="150" xlink:href="#KaiTi-53"/>
       <use x="200" xlink:href="#KaiTi-48"/>
      </g>
     </g>
    </g>
   </g>
   <g id="matplotlib.axis_8">
    <g id="ytick_16">
     <g id="line2d_65">
      <path clip-path="url(#pbe87ad5a16)" d="M 281.513043 320.43 
L 475.6 320.43 
" style="fill:none;stroke:#ffffff;stroke-linecap:round;"/>
     </g>
     <g id="line2d_66"/>
     <g id="text_36">
      <!-- 0 -->
      <g style="fill:#262626;" transform="translate(269.513043 323.8675)scale(0.1 -0.1)">
       <use xlink:href="#KaiTi-48"/>
      </g>
     </g>
    </g>
    <g id="ytick_17">
     <g id="line2d_67">
      <path clip-path="url(#pbe87ad5a16)" d="M 281.513043 289.008365 
L 475.6 289.008365 
" style="fill:none;stroke:#ffffff;stroke-linecap:round;"/>
     </g>
     <g id="line2d_68"/>
     <g id="text_37">
      <!-- 100 -->
      <g style="fill:#262626;" transform="translate(259.513043 292.445865)scale(0.1 -0.1)">
       <use xlink:href="#KaiTi-49"/>
       <use x="50" xlink:href="#KaiTi-48"/>
       <use x="100" xlink:href="#KaiTi-48"/>
      </g>
     </g>
    </g>
    <g id="ytick_18">
     <g id="line2d_69">
      <path clip-path="url(#pbe87ad5a16)" d="M 281.513043 257.58673 
L 475.6 257.58673 
" style="fill:none;stroke:#ffffff;stroke-linecap:round;"/>
     </g>
     <g id="line2d_70"/>
     <g id="text_38">
      <!-- 200 -->
      <g style="fill:#262626;" transform="translate(259.513043 261.02423)scale(0.1 -0.1)">
       <use xlink:href="#KaiTi-50"/>
       <use x="50" xlink:href="#KaiTi-48"/>
       <use x="100" xlink:href="#KaiTi-48"/>
      </g>
     </g>
    </g>
    <g id="ytick_19">
     <g id="line2d_71">
      <path clip-path="url(#pbe87ad5a16)" d="M 281.513043 226.165095 
L 475.6 226.165095 
" style="fill:none;stroke:#ffffff;stroke-linecap:round;"/>
     </g>
     <g id="line2d_72"/>
     <g id="text_39">
      <!-- 300 -->
      <g style="fill:#262626;" transform="translate(259.513043 229.602595)scale(0.1 -0.1)">
       <use xlink:href="#KaiTi-51"/>
       <use x="50" xlink:href="#KaiTi-48"/>
       <use x="100" xlink:href="#KaiTi-48"/>
      </g>
     </g>
    </g>
    <g id="ytick_20">
     <g id="line2d_73">
      <path clip-path="url(#pbe87ad5a16)" d="M 281.513043 194.74346 
L 475.6 194.74346 
" style="fill:none;stroke:#ffffff;stroke-linecap:round;"/>
     </g>
     <g id="line2d_74"/>
     <g id="text_40">
      <!-- 400 -->
      <g style="fill:#262626;" transform="translate(259.513043 198.18096)scale(0.1 -0.1)">
       <use xlink:href="#KaiTi-52"/>
       <use x="50" xlink:href="#KaiTi-48"/>
       <use x="100" xlink:href="#KaiTi-48"/>
      </g>
     </g>
    </g>
   </g>
   <g id="patch_138">
    <path clip-path="url(#pbe87ad5a16)" d="M 290.335178 320.43 
L 294.746245 320.43 
L 294.746245 320.115784 
L 290.335178 320.115784 
z
" style="fill:#4c72b0;"/>
   </g>
   <g id="patch_139">
    <path clip-path="url(#pbe87ad5a16)" d="M 294.746245 320.43 
L 299.157312 320.43 
L 299.157312 320.43 
L 294.746245 320.43 
z
" style="fill:#4c72b0;"/>
   </g>
   <g id="patch_140">
    <path clip-path="url(#pbe87ad5a16)" d="M 299.157312 320.43 
L 303.568379 320.43 
L 303.568379 320.43 
L 299.157312 320.43 
z
" style="fill:#4c72b0;"/>
   </g>
   <g id="patch_141">
    <path clip-path="url(#pbe87ad5a16)" d="M 303.568379 320.43 
L 307.979447 320.43 
L 307.979447 320.43 
L 303.568379 320.43 
z
" style="fill:#4c72b0;"/>
   </g>
   <g id="patch_142">
    <path clip-path="url(#pbe87ad5a16)" d="M 307.979447 320.43 
L 312.390514 320.43 
L 312.390514 320.43 
L 307.979447 320.43 
z
" style="fill:#4c72b0;"/>
   </g>
   <g id="patch_143">
    <path clip-path="url(#pbe87ad5a16)" d="M 312.390514 320.43 
L 316.801581 320.43 
L 316.801581 320.43 
L 312.390514 320.43 
z
" style="fill:#4c72b0;"/>
   </g>
   <g id="patch_144">
    <path clip-path="url(#pbe87ad5a16)" d="M 316.801581 320.43 
L 321.212648 320.43 
L 321.212648 320.115784 
L 316.801581 320.115784 
z
" style="fill:#4c72b0;"/>
   </g>
   <g id="patch_145">
    <path clip-path="url(#pbe87ad5a16)" d="M 321.212648 320.43 
L 325.623715 320.43 
L 325.623715 320.115784 
L 321.212648 320.115784 
z
" style="fill:#4c72b0;"/>
   </g>
   <g id="patch_146">
    <path clip-path="url(#pbe87ad5a16)" d="M 325.623715 320.43 
L 330.034783 320.43 
L 330.034783 319.487351 
L 325.623715 319.487351 
z
" style="fill:#4c72b0;"/>
   </g>
   <g id="patch_147">
    <path clip-path="url(#pbe87ad5a16)" d="M 330.034783 320.43 
L 334.44585 320.43 
L 334.44585 320.43 
L 330.034783 320.43 
z
" style="fill:#4c72b0;"/>
   </g>
   <g id="patch_148">
    <path clip-path="url(#pbe87ad5a16)" d="M 334.44585 320.43 
L 338.856917 320.43 
L 338.856917 319.173135 
L 334.44585 319.173135 
z
" style="fill:#4c72b0;"/>
   </g>
   <g id="patch_149">
    <path clip-path="url(#pbe87ad5a16)" d="M 338.856917 320.43 
L 343.267984 320.43 
L 343.267984 319.801567 
L 338.856917 319.801567 
z
" style="fill:#4c72b0;"/>
   </g>
   <g id="patch_150">
    <path clip-path="url(#pbe87ad5a16)" d="M 343.267984 320.43 
L 347.679051 320.43 
L 347.679051 319.487351 
L 343.267984 319.487351 
z
" style="fill:#4c72b0;"/>
   </g>
   <g id="patch_151">
    <path clip-path="url(#pbe87ad5a16)" d="M 347.679051 320.43 
L 352.090119 320.43 
L 352.090119 318.544702 
L 347.679051 318.544702 
z
" style="fill:#4c72b0;"/>
   </g>
   <g id="patch_152">
    <path clip-path="url(#pbe87ad5a16)" d="M 352.090119 320.43 
L 356.501186 320.43 
L 356.501186 317.287836 
L 352.090119 317.287836 
z
" style="fill:#4c72b0;"/>
   </g>
   <g id="patch_153">
    <path clip-path="url(#pbe87ad5a16)" d="M 356.501186 320.43 
L 360.912253 320.43 
L 360.912253 316.030971 
L 356.501186 316.030971 
z
" style="fill:#4c72b0;"/>
   </g>
   <g id="patch_154">
    <path clip-path="url(#pbe87ad5a16)" d="M 360.912253 320.43 
L 365.32332 320.43 
L 365.32332 314.774106 
L 360.912253 314.774106 
z
" style="fill:#4c72b0;"/>
   </g>
   <g id="patch_155">
    <path clip-path="url(#pbe87ad5a16)" d="M 365.32332 320.43 
L 369.734387 320.43 
L 369.734387 312.888808 
L 365.32332 312.888808 
z
" style="fill:#4c72b0;"/>
   </g>
   <g id="patch_156">
    <path clip-path="url(#pbe87ad5a16)" d="M 369.734387 320.43 
L 374.145455 320.43 
L 374.145455 306.918697 
L 369.734387 306.918697 
z
" style="fill:#4c72b0;"/>
   </g>
   <g id="patch_157">
    <path clip-path="url(#pbe87ad5a16)" d="M 374.145455 320.43 
L 378.556522 320.43 
L 378.556522 300.948586 
L 374.145455 300.948586 
z
" style="fill:#4c72b0;"/>
   </g>
   <g id="patch_158">
    <path clip-path="url(#pbe87ad5a16)" d="M 378.556522 320.43 
L 382.967589 320.43 
L 382.967589 294.350043 
L 378.556522 294.350043 
z
" style="fill:#4c72b0;"/>
   </g>
   <g id="patch_159">
    <path clip-path="url(#pbe87ad5a16)" d="M 382.967589 320.43 
L 387.378656 320.43 
L 387.378656 278.953442 
L 382.967589 278.953442 
z
" style="fill:#4c72b0;"/>
   </g>
   <g id="patch_160">
    <path clip-path="url(#pbe87ad5a16)" d="M 387.378656 320.43 
L 391.789723 320.43 
L 391.789723 250.359754 
L 387.378656 250.359754 
z
" style="fill:#4c72b0;"/>
   </g>
   <g id="patch_161">
    <path clip-path="url(#pbe87ad5a16)" d="M 391.789723 320.43 
L 396.200791 320.43 
L 396.200791 197.25719 
L 391.789723 197.25719 
z
" style="fill:#4c72b0;"/>
   </g>
   <g id="patch_162">
    <path clip-path="url(#pbe87ad5a16)" d="M 396.200791 320.43 
L 400.611858 320.43 
L 400.611858 196.628758 
L 396.200791 196.628758 
z
" style="fill:#4c72b0;"/>
   </g>
   <g id="patch_163">
    <path clip-path="url(#pbe87ad5a16)" d="M 400.611858 320.43 
L 405.022925 320.43 
L 405.022925 236.848451 
L 400.611858 236.848451 
z
" style="fill:#4c72b0;"/>
   </g>
   <g id="patch_164">
    <path clip-path="url(#pbe87ad5a16)" d="M 405.022925 320.43 
L 409.433992 320.43 
L 409.433992 268.584302 
L 405.022925 268.584302 
z
" style="fill:#4c72b0;"/>
   </g>
   <g id="patch_165">
    <path clip-path="url(#pbe87ad5a16)" d="M 409.433992 320.43 
L 413.845059 320.43 
L 413.845059 284.609336 
L 409.433992 284.609336 
z
" style="fill:#4c72b0;"/>
   </g>
   <g id="patch_166">
    <path clip-path="url(#pbe87ad5a16)" d="M 413.845059 320.43 
L 418.256126 320.43 
L 418.256126 298.434855 
L 413.845059 298.434855 
z
" style="fill:#4c72b0;"/>
   </g>
   <g id="patch_167">
    <path clip-path="url(#pbe87ad5a16)" d="M 418.256126 320.43 
L 422.667194 320.43 
L 422.667194 306.290264 
L 418.256126 306.290264 
z
" style="fill:#4c72b0;"/>
   </g>
   <g id="patch_168">
    <path clip-path="url(#pbe87ad5a16)" d="M 422.667194 320.43 
L 427.078261 320.43 
L 427.078261 313.51724 
L 422.667194 313.51724 
z
" style="fill:#4c72b0;"/>
   </g>
   <g id="patch_169">
    <path clip-path="url(#pbe87ad5a16)" d="M 427.078261 320.43 
L 431.489328 320.43 
L 431.489328 316.345187 
L 427.078261 316.345187 
z
" style="fill:#4c72b0;"/>
   </g>
   <g id="patch_170">
    <path clip-path="url(#pbe87ad5a16)" d="M 431.489328 320.43 
L 435.900395 320.43 
L 435.900395 317.602053 
L 431.489328 317.602053 
z
" style="fill:#4c72b0;"/>
   </g>
   <g id="patch_171">
    <path clip-path="url(#pbe87ad5a16)" d="M 435.900395 320.43 
L 440.311462 320.43 
L 440.311462 319.487351 
L 435.900395 319.487351 
z
" style="fill:#4c72b0;"/>
   </g>
   <g id="patch_172">
    <path clip-path="url(#pbe87ad5a16)" d="M 440.311462 320.43 
L 444.72253 320.43 
L 444.72253 318.858918 
L 440.311462 318.858918 
z
" style="fill:#4c72b0;"/>
   </g>
   <g id="patch_173">
    <path clip-path="url(#pbe87ad5a16)" d="M 444.72253 320.43 
L 449.133597 320.43 
L 449.133597 319.487351 
L 444.72253 319.487351 
z
" style="fill:#4c72b0;"/>
   </g>
   <g id="patch_174">
    <path clip-path="url(#pbe87ad5a16)" d="M 449.133597 320.43 
L 453.544664 320.43 
L 453.544664 320.115784 
L 449.133597 320.115784 
z
" style="fill:#4c72b0;"/>
   </g>
   <g id="patch_175">
    <path clip-path="url(#pbe87ad5a16)" d="M 453.544664 320.43 
L 457.955731 320.43 
L 457.955731 320.115784 
L 453.544664 320.115784 
z
" style="fill:#4c72b0;"/>
   </g>
   <g id="patch_176">
    <path clip-path="url(#pbe87ad5a16)" d="M 457.955731 320.43 
L 462.366798 320.43 
L 462.366798 320.115784 
L 457.955731 320.115784 
z
" style="fill:#4c72b0;"/>
   </g>
   <g id="patch_177">
    <path clip-path="url(#pbe87ad5a16)" d="M 462.366798 320.43 
L 466.777866 320.43 
L 466.777866 319.487351 
L 462.366798 319.487351 
z
" style="fill:#4c72b0;"/>
   </g>
   <g id="patch_178">
    <path d="M 281.513043 320.43 
L 281.513043 190.438696 
" style="fill:none;"/>
   </g>
   <g id="patch_179">
    <path d="M 475.6 320.43 
L 475.6 190.438696 
" style="fill:none;"/>
   </g>
   <g id="patch_180">
    <path d="M 281.513043 320.43 
L 475.6 320.43 
" style="fill:none;"/>
   </g>
   <g id="patch_181">
    <path d="M 281.513043 190.438696 
L 475.6 190.438696 
" style="fill:none;"/>
   </g>
   <g id="text_41">
    <!-- SPY -->
    <defs>
     <path d="M 47.265625 68.75 
L 28.90625 32.03125 
L 28.90625 1.953125 
L 19.921875 1.953125 
L 19.921875 32.03125 
L 1.5625 68.75 
L 10.546875 68.75 
L 24.21875 40.234375 
L 24.609375 40.234375 
L 38.28125 68.75 
z
" id="KaiTi-89"/>
    </defs>
    <g style="fill:#262626;" transform="translate(369.556522 184.438696)scale(0.12 -0.12)">
     <use xlink:href="#KaiTi-83"/>
     <use x="50" xlink:href="#KaiTi-80"/>
     <use x="100" xlink:href="#KaiTi-89"/>
    </g>
   </g>
  </g>
 </g>
 <defs>
  <clipPath id="p74a62ee317">
   <rect height="129.991304" width="194.086957" x="29.2" y="21.45"/>
  </clipPath>
  <clipPath id="pc7ff59f2d7">
   <rect height="129.991304" width="194.086957" x="281.513043" y="21.45"/>
  </clipPath>
  <clipPath id="pf68dc9394c">
   <rect height="129.991304" width="194.086957" x="29.2" y="190.438696"/>
  </clipPath>
  <clipPath id="pbe87ad5a16">
   <rect height="129.991304" width="194.086957" x="281.513043" y="190.438696"/>
  </clipPath>
 </defs>
</svg>
