<?xml version="1.0" encoding="utf-8" standalone="no"?>
<!DOCTYPE svg PUBLIC "-//W3C//DTD SVG 1.1//EN"
  "http://www.w3.org/Graphics/SVG/1.1/DTD/svg11.dtd">
<!-- Created with matplotlib (https://matplotlib.org/) -->
<svg height="343.585156pt" version="1.1" viewBox="0 0 498.542656 343.585156" width="498.542656pt" xmlns="http://www.w3.org/2000/svg" xmlns:xlink="http://www.w3.org/1999/xlink">
 <defs>
  <style type="text/css">
*{stroke-linecap:butt;stroke-linejoin:round;}
  </style>
 </defs>
 <g id="figure_1">
  <g id="patch_1">
   <path d="M 0 343.585156 
L 498.542656 343.585156 
L 498.542656 0 
L 0 0 
z
" style="fill:#ffffff;"/>
  </g>
  <g id="axes_1">
   <g id="patch_2">
    <path d="M 44.942656 306.18 
L 491.342656 306.18 
L 491.342656 7.2 
L 44.942656 7.2 
z
" style="fill:#eaeaf2;"/>
   </g>
   <g id="matplotlib.axis_1">
    <g id="xtick_1">
     <g id="line2d_1">
      <path clip-path="url(#pfda83f35a6)" d="M 65.233565 306.18 
L 65.233565 7.2 
" style="fill:none;stroke:#ffffff;stroke-linecap:round;"/>
     </g>
     <g id="line2d_2"/>
     <g id="text_1">
      <!-- 0 -->
      <defs>
       <path d="M 4.15625 35.296875 
Q 4.15625 48 6.765625 55.734375 
Q 9.375 63.484375 14.515625 67.671875 
Q 19.671875 71.875 27.484375 71.875 
Q 33.25 71.875 37.59375 69.546875 
Q 41.9375 67.234375 44.765625 62.859375 
Q 47.609375 58.5 49.21875 52.21875 
Q 50.828125 45.953125 50.828125 35.296875 
Q 50.828125 22.703125 48.234375 14.96875 
Q 45.65625 7.234375 40.5 3 
Q 35.359375 -1.21875 27.484375 -1.21875 
Q 17.140625 -1.21875 11.234375 6.203125 
Q 4.15625 15.140625 4.15625 35.296875 
z
M 13.1875 35.296875 
Q 13.1875 17.671875 17.3125 11.828125 
Q 21.4375 6 27.484375 6 
Q 33.546875 6 37.671875 11.859375 
Q 41.796875 17.71875 41.796875 35.296875 
Q 41.796875 52.984375 37.671875 58.78125 
Q 33.546875 64.59375 27.390625 64.59375 
Q 21.34375 64.59375 17.71875 59.46875 
Q 13.1875 52.9375 13.1875 35.296875 
z
" id="ArialMT-48"/>
      </defs>
      <g style="fill:#262626;" transform="translate(62.453097 320.337812)scale(0.1 -0.1)">
       <use xlink:href="#ArialMT-48"/>
      </g>
     </g>
    </g>
    <g id="xtick_2">
     <g id="line2d_3">
      <path clip-path="url(#pfda83f35a6)" d="M 146.397202 306.18 
L 146.397202 7.2 
" style="fill:none;stroke:#ffffff;stroke-linecap:round;"/>
     </g>
     <g id="line2d_4"/>
     <g id="text_2">
      <!-- 10 -->
      <defs>
       <path d="M 37.25 0 
L 28.46875 0 
L 28.46875 56 
Q 25.296875 52.984375 20.140625 49.953125 
Q 14.984375 46.921875 10.890625 45.40625 
L 10.890625 53.90625 
Q 18.265625 57.375 23.78125 62.296875 
Q 29.296875 67.234375 31.59375 71.875 
L 37.25 71.875 
z
" id="ArialMT-49"/>
      </defs>
      <g style="fill:#262626;" transform="translate(140.836264 320.337812)scale(0.1 -0.1)">
       <use xlink:href="#ArialMT-49"/>
       <use x="55.615234" xlink:href="#ArialMT-48"/>
      </g>
     </g>
    </g>
    <g id="xtick_3">
     <g id="line2d_5">
      <path clip-path="url(#pfda83f35a6)" d="M 227.560838 306.18 
L 227.560838 7.2 
" style="fill:none;stroke:#ffffff;stroke-linecap:round;"/>
     </g>
     <g id="line2d_6"/>
     <g id="text_3">
      <!-- 20 -->
      <defs>
       <path d="M 50.34375 8.453125 
L 50.34375 0 
L 3.03125 0 
Q 2.9375 3.171875 4.046875 6.109375 
Q 5.859375 10.9375 9.828125 15.625 
Q 13.8125 20.3125 21.34375 26.46875 
Q 33.015625 36.03125 37.109375 41.625 
Q 41.21875 47.21875 41.21875 52.203125 
Q 41.21875 57.421875 37.46875 61 
Q 33.734375 64.59375 27.734375 64.59375 
Q 21.390625 64.59375 17.578125 60.78125 
Q 13.765625 56.984375 13.71875 50.25 
L 4.6875 51.171875 
Q 5.609375 61.28125 11.65625 66.578125 
Q 17.71875 71.875 27.9375 71.875 
Q 38.234375 71.875 44.234375 66.15625 
Q 50.25 60.453125 50.25 52 
Q 50.25 47.703125 48.484375 43.546875 
Q 46.734375 39.40625 42.65625 34.8125 
Q 38.578125 30.21875 29.109375 22.21875 
Q 21.1875 15.578125 18.9375 13.203125 
Q 16.703125 10.84375 15.234375 8.453125 
z
" id="ArialMT-50"/>
      </defs>
      <g style="fill:#262626;" transform="translate(221.999901 320.337812)scale(0.1 -0.1)">
       <use xlink:href="#ArialMT-50"/>
       <use x="55.615234" xlink:href="#ArialMT-48"/>
      </g>
     </g>
    </g>
    <g id="xtick_4">
     <g id="line2d_7">
      <path clip-path="url(#pfda83f35a6)" d="M 308.724474 306.18 
L 308.724474 7.2 
" style="fill:none;stroke:#ffffff;stroke-linecap:round;"/>
     </g>
     <g id="line2d_8"/>
     <g id="text_4">
      <!-- 30 -->
      <defs>
       <path d="M 4.203125 18.890625 
L 12.984375 20.0625 
Q 14.5 12.59375 18.140625 9.296875 
Q 21.78125 6 27 6 
Q 33.203125 6 37.46875 10.296875 
Q 41.75 14.59375 41.75 20.953125 
Q 41.75 27 37.796875 30.921875 
Q 33.84375 34.859375 27.734375 34.859375 
Q 25.25 34.859375 21.53125 33.890625 
L 22.515625 41.609375 
Q 23.390625 41.5 23.921875 41.5 
Q 29.546875 41.5 34.03125 44.421875 
Q 38.53125 47.359375 38.53125 53.46875 
Q 38.53125 58.296875 35.25 61.46875 
Q 31.984375 64.65625 26.8125 64.65625 
Q 21.6875 64.65625 18.265625 61.421875 
Q 14.84375 58.203125 13.875 51.765625 
L 5.078125 53.328125 
Q 6.6875 62.15625 12.390625 67.015625 
Q 18.109375 71.875 26.609375 71.875 
Q 32.46875 71.875 37.390625 69.359375 
Q 42.328125 66.84375 44.9375 62.5 
Q 47.5625 58.15625 47.5625 53.265625 
Q 47.5625 48.640625 45.0625 44.828125 
Q 42.578125 41.015625 37.703125 38.765625 
Q 44.046875 37.3125 47.5625 32.6875 
Q 51.078125 28.078125 51.078125 21.140625 
Q 51.078125 11.765625 44.234375 5.25 
Q 37.40625 -1.265625 26.953125 -1.265625 
Q 17.53125 -1.265625 11.296875 4.34375 
Q 5.078125 9.96875 4.203125 18.890625 
z
" id="ArialMT-51"/>
      </defs>
      <g style="fill:#262626;" transform="translate(303.163537 320.337812)scale(0.1 -0.1)">
       <use xlink:href="#ArialMT-51"/>
       <use x="55.615234" xlink:href="#ArialMT-48"/>
      </g>
     </g>
    </g>
    <g id="xtick_5">
     <g id="line2d_9">
      <path clip-path="url(#pfda83f35a6)" d="M 389.888111 306.18 
L 389.888111 7.2 
" style="fill:none;stroke:#ffffff;stroke-linecap:round;"/>
     </g>
     <g id="line2d_10"/>
     <g id="text_5">
      <!-- 40 -->
      <defs>
       <path d="M 32.328125 0 
L 32.328125 17.140625 
L 1.265625 17.140625 
L 1.265625 25.203125 
L 33.9375 71.578125 
L 41.109375 71.578125 
L 41.109375 25.203125 
L 50.78125 25.203125 
L 50.78125 17.140625 
L 41.109375 17.140625 
L 41.109375 0 
z
M 32.328125 25.203125 
L 32.328125 57.46875 
L 9.90625 25.203125 
z
" id="ArialMT-52"/>
      </defs>
      <g style="fill:#262626;" transform="translate(384.327173 320.337812)scale(0.1 -0.1)">
       <use xlink:href="#ArialMT-52"/>
       <use x="55.615234" xlink:href="#ArialMT-48"/>
      </g>
     </g>
    </g>
    <g id="xtick_6">
     <g id="line2d_11">
      <path clip-path="url(#pfda83f35a6)" d="M 471.051747 306.18 
L 471.051747 7.2 
" style="fill:none;stroke:#ffffff;stroke-linecap:round;"/>
     </g>
     <g id="line2d_12"/>
     <g id="text_6">
      <!-- 50 -->
      <defs>
       <path d="M 4.15625 18.75 
L 13.375 19.53125 
Q 14.40625 12.796875 18.140625 9.390625 
Q 21.875 6 27.15625 6 
Q 33.5 6 37.890625 10.78125 
Q 42.28125 15.578125 42.28125 23.484375 
Q 42.28125 31 38.0625 35.34375 
Q 33.84375 39.703125 27 39.703125 
Q 22.75 39.703125 19.328125 37.765625 
Q 15.921875 35.84375 13.96875 32.765625 
L 5.71875 33.84375 
L 12.640625 70.609375 
L 48.25 70.609375 
L 48.25 62.203125 
L 19.671875 62.203125 
L 15.828125 42.96875 
Q 22.265625 47.46875 29.34375 47.46875 
Q 38.71875 47.46875 45.15625 40.96875 
Q 51.609375 34.46875 51.609375 24.265625 
Q 51.609375 14.546875 45.953125 7.46875 
Q 39.0625 -1.21875 27.15625 -1.21875 
Q 17.390625 -1.21875 11.203125 4.25 
Q 5.03125 9.71875 4.15625 18.75 
z
" id="ArialMT-53"/>
      </defs>
      <g style="fill:#262626;" transform="translate(465.49081 320.337812)scale(0.1 -0.1)">
       <use xlink:href="#ArialMT-53"/>
       <use x="55.615234" xlink:href="#ArialMT-48"/>
      </g>
     </g>
    </g>
    <g id="text_7">
     <!-- time steps -->
     <defs>
      <path d="M 25.78125 7.859375 
L 27.046875 0.09375 
Q 23.34375 -0.6875 20.40625 -0.6875 
Q 15.625 -0.6875 12.984375 0.828125 
Q 10.359375 2.34375 9.28125 4.8125 
Q 8.203125 7.28125 8.203125 15.1875 
L 8.203125 45.015625 
L 1.765625 45.015625 
L 1.765625 51.859375 
L 8.203125 51.859375 
L 8.203125 64.703125 
L 16.9375 69.96875 
L 16.9375 51.859375 
L 25.78125 51.859375 
L 25.78125 45.015625 
L 16.9375 45.015625 
L 16.9375 14.703125 
Q 16.9375 10.9375 17.40625 9.859375 
Q 17.875 8.796875 18.921875 8.15625 
Q 19.96875 7.515625 21.921875 7.515625 
Q 23.390625 7.515625 25.78125 7.859375 
z
" id="ArialMT-116"/>
      <path d="M 6.640625 61.46875 
L 6.640625 71.578125 
L 15.4375 71.578125 
L 15.4375 61.46875 
z
M 6.640625 0 
L 6.640625 51.859375 
L 15.4375 51.859375 
L 15.4375 0 
z
" id="ArialMT-105"/>
      <path d="M 6.59375 0 
L 6.59375 51.859375 
L 14.453125 51.859375 
L 14.453125 44.578125 
Q 16.890625 48.390625 20.9375 50.703125 
Q 25 53.03125 30.171875 53.03125 
Q 35.9375 53.03125 39.625 50.640625 
Q 43.3125 48.25 44.828125 43.953125 
Q 50.984375 53.03125 60.84375 53.03125 
Q 68.5625 53.03125 72.703125 48.75 
Q 76.859375 44.484375 76.859375 35.59375 
L 76.859375 0 
L 68.109375 0 
L 68.109375 32.671875 
Q 68.109375 37.9375 67.25 40.25 
Q 66.40625 42.578125 64.15625 43.984375 
Q 61.921875 45.40625 58.890625 45.40625 
Q 53.421875 45.40625 49.796875 41.765625 
Q 46.1875 38.140625 46.1875 30.125 
L 46.1875 0 
L 37.40625 0 
L 37.40625 33.6875 
Q 37.40625 39.546875 35.25 42.46875 
Q 33.109375 45.40625 28.21875 45.40625 
Q 24.515625 45.40625 21.359375 43.453125 
Q 18.21875 41.5 16.796875 37.734375 
Q 15.375 33.984375 15.375 26.90625 
L 15.375 0 
z
" id="ArialMT-109"/>
      <path d="M 42.09375 16.703125 
L 51.171875 15.578125 
Q 49.03125 7.625 43.21875 3.21875 
Q 37.40625 -1.171875 28.375 -1.171875 
Q 17 -1.171875 10.328125 5.828125 
Q 3.65625 12.84375 3.65625 25.484375 
Q 3.65625 38.578125 10.390625 45.796875 
Q 17.140625 53.03125 27.875 53.03125 
Q 38.28125 53.03125 44.875 45.953125 
Q 51.46875 38.875 51.46875 26.03125 
Q 51.46875 25.25 51.421875 23.6875 
L 12.75 23.6875 
Q 13.234375 15.140625 17.578125 10.59375 
Q 21.921875 6.0625 28.421875 6.0625 
Q 33.25 6.0625 36.671875 8.59375 
Q 40.09375 11.140625 42.09375 16.703125 
z
M 13.234375 30.90625 
L 42.1875 30.90625 
Q 41.609375 37.453125 38.875 40.71875 
Q 34.671875 45.796875 27.984375 45.796875 
Q 21.921875 45.796875 17.796875 41.75 
Q 13.671875 37.703125 13.234375 30.90625 
z
" id="ArialMT-101"/>
      <path id="ArialMT-32"/>
      <path d="M 3.078125 15.484375 
L 11.765625 16.84375 
Q 12.5 11.625 15.84375 8.84375 
Q 19.1875 6.0625 25.203125 6.0625 
Q 31.25 6.0625 34.171875 8.515625 
Q 37.109375 10.984375 37.109375 14.3125 
Q 37.109375 17.28125 34.515625 19 
Q 32.71875 20.171875 25.53125 21.96875 
Q 15.875 24.421875 12.140625 26.203125 
Q 8.40625 27.984375 6.46875 31.125 
Q 4.546875 34.28125 4.546875 38.09375 
Q 4.546875 41.546875 6.125 44.5 
Q 7.71875 47.46875 10.453125 49.421875 
Q 12.5 50.921875 16.03125 51.96875 
Q 19.578125 53.03125 23.640625 53.03125 
Q 29.734375 53.03125 34.34375 51.265625 
Q 38.96875 49.515625 41.15625 46.5 
Q 43.359375 43.5 44.1875 38.484375 
L 35.59375 37.3125 
Q 35.015625 41.3125 32.203125 43.546875 
Q 29.390625 45.796875 24.265625 45.796875 
Q 18.21875 45.796875 15.625 43.796875 
Q 13.03125 41.796875 13.03125 39.109375 
Q 13.03125 37.40625 14.109375 36.03125 
Q 15.1875 34.625 17.484375 33.6875 
Q 18.796875 33.203125 25.25 31.453125 
Q 34.578125 28.953125 38.25 27.359375 
Q 41.9375 25.78125 44.03125 22.75 
Q 46.140625 19.734375 46.140625 15.234375 
Q 46.140625 10.84375 43.578125 6.953125 
Q 41.015625 3.078125 36.171875 0.953125 
Q 31.34375 -1.171875 25.25 -1.171875 
Q 15.140625 -1.171875 9.84375 3.03125 
Q 4.546875 7.234375 3.078125 15.484375 
z
" id="ArialMT-115"/>
      <path d="M 6.59375 -19.875 
L 6.59375 51.859375 
L 14.59375 51.859375 
L 14.59375 45.125 
Q 17.4375 49.078125 21 51.046875 
Q 24.5625 53.03125 29.640625 53.03125 
Q 36.28125 53.03125 41.359375 49.609375 
Q 46.4375 46.1875 49.015625 39.953125 
Q 51.609375 33.734375 51.609375 26.3125 
Q 51.609375 18.359375 48.75 11.984375 
Q 45.90625 5.609375 40.453125 2.21875 
Q 35.015625 -1.171875 29 -1.171875 
Q 24.609375 -1.171875 21.109375 0.6875 
Q 17.625 2.546875 15.375 5.375 
L 15.375 -19.875 
z
M 14.546875 25.640625 
Q 14.546875 15.625 18.59375 10.84375 
Q 22.65625 6.0625 28.421875 6.0625 
Q 34.28125 6.0625 38.453125 11.015625 
Q 42.625 15.96875 42.625 26.375 
Q 42.625 36.28125 38.546875 41.203125 
Q 34.46875 46.140625 28.8125 46.140625 
Q 23.1875 46.140625 18.859375 40.890625 
Q 14.546875 35.640625 14.546875 25.640625 
z
" id="ArialMT-112"/>
     </defs>
     <g style="fill:#262626;" transform="translate(243.079844 334.198906)scale(0.11 -0.11)">
      <use xlink:href="#ArialMT-116"/>
      <use x="27.783203" xlink:href="#ArialMT-105"/>
      <use x="50" xlink:href="#ArialMT-109"/>
      <use x="133.300781" xlink:href="#ArialMT-101"/>
      <use x="188.916016" xlink:href="#ArialMT-32"/>
      <use x="216.699219" xlink:href="#ArialMT-115"/>
      <use x="266.699219" xlink:href="#ArialMT-116"/>
      <use x="294.482422" xlink:href="#ArialMT-101"/>
      <use x="350.097656" xlink:href="#ArialMT-112"/>
      <use x="405.712891" xlink:href="#ArialMT-115"/>
     </g>
    </g>
   </g>
   <g id="matplotlib.axis_2">
    <g id="ytick_1">
     <g id="line2d_13">
      <path clip-path="url(#pfda83f35a6)" d="M 44.942656 276.111863 
L 491.342656 276.111863 
" style="fill:none;stroke:#ffffff;stroke-linecap:round;"/>
     </g>
     <g id="line2d_14"/>
     <g id="text_8">
      <!-- 70 -->
      <defs>
       <path d="M 4.734375 62.203125 
L 4.734375 70.65625 
L 51.078125 70.65625 
L 51.078125 63.8125 
Q 44.234375 56.546875 37.515625 44.484375 
Q 30.8125 32.421875 27.15625 19.671875 
Q 24.515625 10.6875 23.78125 0 
L 14.75 0 
Q 14.890625 8.453125 18.0625 20.40625 
Q 21.234375 32.375 27.171875 43.484375 
Q 33.109375 54.59375 39.796875 62.203125 
z
" id="ArialMT-55"/>
      </defs>
      <g style="fill:#262626;" transform="translate(26.820781 279.690769)scale(0.1 -0.1)">
       <use xlink:href="#ArialMT-55"/>
       <use x="55.615234" xlink:href="#ArialMT-48"/>
      </g>
     </g>
    </g>
    <g id="ytick_2">
     <g id="line2d_15">
      <path clip-path="url(#pfda83f35a6)" d="M 44.942656 230.839673 
L 491.342656 230.839673 
" style="fill:none;stroke:#ffffff;stroke-linecap:round;"/>
     </g>
     <g id="line2d_16"/>
     <g id="text_9">
      <!-- 80 -->
      <defs>
       <path d="M 17.671875 38.8125 
Q 12.203125 40.828125 9.5625 44.53125 
Q 6.9375 48.25 6.9375 53.421875 
Q 6.9375 61.234375 12.546875 66.546875 
Q 18.171875 71.875 27.484375 71.875 
Q 36.859375 71.875 42.578125 66.421875 
Q 48.296875 60.984375 48.296875 53.171875 
Q 48.296875 48.1875 45.671875 44.5 
Q 43.0625 40.828125 37.75 38.8125 
Q 44.34375 36.671875 47.78125 31.875 
Q 51.21875 27.09375 51.21875 20.453125 
Q 51.21875 11.28125 44.71875 5.03125 
Q 38.234375 -1.21875 27.640625 -1.21875 
Q 17.046875 -1.21875 10.546875 5.046875 
Q 4.046875 11.328125 4.046875 20.703125 
Q 4.046875 27.6875 7.59375 32.390625 
Q 11.140625 37.109375 17.671875 38.8125 
z
M 15.921875 53.71875 
Q 15.921875 48.640625 19.1875 45.40625 
Q 22.46875 42.1875 27.6875 42.1875 
Q 32.765625 42.1875 36.015625 45.375 
Q 39.265625 48.578125 39.265625 53.21875 
Q 39.265625 58.0625 35.90625 61.359375 
Q 32.5625 64.65625 27.59375 64.65625 
Q 22.5625 64.65625 19.234375 61.421875 
Q 15.921875 58.203125 15.921875 53.71875 
z
M 13.09375 20.65625 
Q 13.09375 16.890625 14.875 13.375 
Q 16.65625 9.859375 20.171875 7.921875 
Q 23.6875 6 27.734375 6 
Q 34.03125 6 38.125 10.046875 
Q 42.234375 14.109375 42.234375 20.359375 
Q 42.234375 26.703125 38.015625 30.859375 
Q 33.796875 35.015625 27.4375 35.015625 
Q 21.234375 35.015625 17.15625 30.90625 
Q 13.09375 26.8125 13.09375 20.65625 
z
" id="ArialMT-56"/>
      </defs>
      <g style="fill:#262626;" transform="translate(26.820781 234.418579)scale(0.1 -0.1)">
       <use xlink:href="#ArialMT-56"/>
       <use x="55.615234" xlink:href="#ArialMT-48"/>
      </g>
     </g>
    </g>
    <g id="ytick_3">
     <g id="line2d_17">
      <path clip-path="url(#pfda83f35a6)" d="M 44.942656 185.567484 
L 491.342656 185.567484 
" style="fill:none;stroke:#ffffff;stroke-linecap:round;"/>
     </g>
     <g id="line2d_18"/>
     <g id="text_10">
      <!-- 90 -->
      <defs>
       <path d="M 5.46875 16.546875 
L 13.921875 17.328125 
Q 14.984375 11.375 18.015625 8.6875 
Q 21.046875 6 25.78125 6 
Q 29.828125 6 32.875 7.859375 
Q 35.9375 9.71875 37.890625 12.8125 
Q 39.84375 15.921875 41.15625 21.1875 
Q 42.484375 26.46875 42.484375 31.9375 
Q 42.484375 32.515625 42.4375 33.6875 
Q 39.796875 29.5 35.234375 26.875 
Q 30.671875 24.265625 25.34375 24.265625 
Q 16.453125 24.265625 10.296875 30.703125 
Q 4.15625 37.15625 4.15625 47.703125 
Q 4.15625 58.59375 10.578125 65.234375 
Q 17 71.875 26.65625 71.875 
Q 33.640625 71.875 39.421875 68.109375 
Q 45.21875 64.359375 48.21875 57.390625 
Q 51.21875 50.4375 51.21875 37.25 
Q 51.21875 23.53125 48.234375 15.40625 
Q 45.265625 7.28125 39.375 3.03125 
Q 33.5 -1.21875 25.59375 -1.21875 
Q 17.1875 -1.21875 11.859375 3.4375 
Q 6.546875 8.109375 5.46875 16.546875 
z
M 41.453125 48.140625 
Q 41.453125 55.71875 37.421875 60.15625 
Q 33.40625 64.59375 27.734375 64.59375 
Q 21.875 64.59375 17.53125 59.8125 
Q 13.1875 55.03125 13.1875 47.40625 
Q 13.1875 40.578125 17.3125 36.296875 
Q 21.4375 32.03125 27.484375 32.03125 
Q 33.59375 32.03125 37.515625 36.296875 
Q 41.453125 40.578125 41.453125 48.140625 
z
" id="ArialMT-57"/>
      </defs>
      <g style="fill:#262626;" transform="translate(26.820781 189.14639)scale(0.1 -0.1)">
       <use xlink:href="#ArialMT-57"/>
       <use x="55.615234" xlink:href="#ArialMT-48"/>
      </g>
     </g>
    </g>
    <g id="ytick_4">
     <g id="line2d_19">
      <path clip-path="url(#pfda83f35a6)" d="M 44.942656 140.295294 
L 491.342656 140.295294 
" style="fill:none;stroke:#ffffff;stroke-linecap:round;"/>
     </g>
     <g id="line2d_20"/>
     <g id="text_11">
      <!-- 100 -->
      <g style="fill:#262626;" transform="translate(21.259844 143.8742)scale(0.1 -0.1)">
       <use xlink:href="#ArialMT-49"/>
       <use x="55.615234" xlink:href="#ArialMT-48"/>
       <use x="111.230469" xlink:href="#ArialMT-48"/>
      </g>
     </g>
    </g>
    <g id="ytick_5">
     <g id="line2d_21">
      <path clip-path="url(#pfda83f35a6)" d="M 44.942656 95.023104 
L 491.342656 95.023104 
" style="fill:none;stroke:#ffffff;stroke-linecap:round;"/>
     </g>
     <g id="line2d_22"/>
     <g id="text_12">
      <!-- 110 -->
      <g style="fill:#262626;" transform="translate(21.997344 98.602011)scale(0.1 -0.1)">
       <use xlink:href="#ArialMT-49"/>
       <use x="48.240234" xlink:href="#ArialMT-49"/>
       <use x="103.855469" xlink:href="#ArialMT-48"/>
      </g>
     </g>
    </g>
    <g id="ytick_6">
     <g id="line2d_23">
      <path clip-path="url(#pfda83f35a6)" d="M 44.942656 49.750915 
L 491.342656 49.750915 
" style="fill:none;stroke:#ffffff;stroke-linecap:round;"/>
     </g>
     <g id="line2d_24"/>
     <g id="text_13">
      <!-- 120 -->
      <g style="fill:#262626;" transform="translate(21.259844 53.329821)scale(0.1 -0.1)">
       <use xlink:href="#ArialMT-49"/>
       <use x="55.615234" xlink:href="#ArialMT-50"/>
       <use x="111.230469" xlink:href="#ArialMT-48"/>
      </g>
     </g>
    </g>
    <g id="text_14">
     <!-- index level -->
     <defs>
      <path d="M 6.59375 0 
L 6.59375 51.859375 
L 14.5 51.859375 
L 14.5 44.484375 
Q 20.21875 53.03125 31 53.03125 
Q 35.6875 53.03125 39.625 51.34375 
Q 43.5625 49.65625 45.515625 46.921875 
Q 47.46875 44.1875 48.25 40.4375 
Q 48.734375 37.984375 48.734375 31.890625 
L 48.734375 0 
L 39.9375 0 
L 39.9375 31.546875 
Q 39.9375 36.921875 38.90625 39.578125 
Q 37.890625 42.234375 35.28125 43.8125 
Q 32.671875 45.40625 29.15625 45.40625 
Q 23.53125 45.40625 19.453125 41.84375 
Q 15.375 38.28125 15.375 28.328125 
L 15.375 0 
z
" id="ArialMT-110"/>
      <path d="M 40.234375 0 
L 40.234375 6.546875 
Q 35.296875 -1.171875 25.734375 -1.171875 
Q 19.53125 -1.171875 14.328125 2.25 
Q 9.125 5.671875 6.265625 11.796875 
Q 3.421875 17.921875 3.421875 25.875 
Q 3.421875 33.640625 6 39.96875 
Q 8.59375 46.296875 13.765625 49.65625 
Q 18.953125 53.03125 25.34375 53.03125 
Q 30.03125 53.03125 33.6875 51.046875 
Q 37.359375 49.078125 39.65625 45.90625 
L 39.65625 71.578125 
L 48.390625 71.578125 
L 48.390625 0 
z
M 12.453125 25.875 
Q 12.453125 15.921875 16.640625 10.984375 
Q 20.84375 6.0625 26.5625 6.0625 
Q 32.328125 6.0625 36.34375 10.765625 
Q 40.375 15.484375 40.375 25.140625 
Q 40.375 35.796875 36.265625 40.765625 
Q 32.171875 45.75 26.171875 45.75 
Q 20.3125 45.75 16.375 40.96875 
Q 12.453125 36.1875 12.453125 25.875 
z
" id="ArialMT-100"/>
      <path d="M 0.734375 0 
L 19.671875 26.953125 
L 2.15625 51.859375 
L 13.140625 51.859375 
L 21.09375 39.703125 
Q 23.34375 36.234375 24.703125 33.890625 
Q 26.859375 37.109375 28.65625 39.59375 
L 37.40625 51.859375 
L 47.90625 51.859375 
L 29.984375 27.4375 
L 49.265625 0 
L 38.484375 0 
L 27.828125 16.109375 
L 25 20.453125 
L 11.375 0 
z
" id="ArialMT-120"/>
      <path d="M 6.390625 0 
L 6.390625 71.578125 
L 15.1875 71.578125 
L 15.1875 0 
z
" id="ArialMT-108"/>
      <path d="M 21 0 
L 1.265625 51.859375 
L 10.546875 51.859375 
L 21.6875 20.796875 
Q 23.484375 15.765625 25 10.359375 
Q 26.171875 14.453125 28.265625 20.21875 
L 39.796875 51.859375 
L 48.828125 51.859375 
L 29.203125 0 
z
" id="ArialMT-118"/>
     </defs>
     <g style="fill:#262626;" transform="translate(15.073594 182.676641)rotate(-90)scale(0.11 -0.11)">
      <use xlink:href="#ArialMT-105"/>
      <use x="22.216797" xlink:href="#ArialMT-110"/>
      <use x="77.832031" xlink:href="#ArialMT-100"/>
      <use x="133.447266" xlink:href="#ArialMT-101"/>
      <use x="189.0625" xlink:href="#ArialMT-120"/>
      <use x="239.0625" xlink:href="#ArialMT-32"/>
      <use x="266.845703" xlink:href="#ArialMT-108"/>
      <use x="289.0625" xlink:href="#ArialMT-101"/>
      <use x="344.677734" xlink:href="#ArialMT-118"/>
      <use x="394.677734" xlink:href="#ArialMT-101"/>
      <use x="450.292969" xlink:href="#ArialMT-108"/>
     </g>
    </g>
   </g>
   <g id="line2d_25">
    <path clip-path="url(#pfda83f35a6)" d="M 65.233565 140.295294 
L 73.349929 150.160252 
L 81.466293 146.82683 
L 89.582656 112.432055 
L 97.69902 113.589194 
L 105.815384 141.036217 
L 113.931747 140.229725 
L 122.048111 128.258095 
L 130.164474 114.651837 
L 138.280838 108.103473 
L 146.397202 100.481622 
L 154.513565 102.968624 
L 162.629929 111.273624 
L 170.746293 135.507855 
L 178.862656 131.151675 
L 186.97902 128.500805 
L 195.095384 96.644235 
L 203.211747 96.958444 
L 211.328111 81.547249 
L 219.444474 81.339706 
L 227.560838 83.489368 
L 235.677202 74.385952 
L 243.793565 95.2856 
L 251.909929 83.129492 
L 260.026293 82.57223 
L 268.142656 66.296359 
L 276.25902 72.186316 
L 284.375384 77.101741 
L 292.491747 68.388925 
L 300.608111 61.655022 
L 308.724474 59.174224 
L 316.840838 92.515594 
L 324.957202 95.164761 
L 333.073565 117.678734 
L 341.189929 103.770214 
L 349.306293 114.117815 
L 357.422656 116.941851 
L 365.53902 120.690475 
L 373.655384 102.091415 
L 381.771747 114.959392 
L 389.888111 100.157081 
L 398.004474 102.590616 
L 406.120838 108.569944 
L 414.237202 113.116608 
L 422.353565 120.391839 
L 430.469929 135.479741 
L 438.586293 147.640112 
L 446.702656 153.265821 
L 454.81902 161.005299 
L 462.935384 156.470456 
L 471.051747 156.871146 
" style="fill:none;stroke:#4c72b0;stroke-linecap:round;stroke-width:1.75;"/>
   </g>
   <g id="line2d_26">
    <path clip-path="url(#pfda83f35a6)" d="M 65.233565 140.295294 
L 73.349929 135.845635 
L 81.466293 127.462672 
L 89.582656 122.179823 
L 97.69902 114.933278 
L 105.815384 99.32657 
L 113.931747 91.788596 
L 122.048111 116.054354 
L 130.164474 125.274821 
L 138.280838 142.540999 
L 146.397202 142.923546 
L 154.513565 141.567705 
L 162.629929 153.066092 
L 170.746293 136.162652 
L 178.862656 124.51009 
L 186.97902 110.832182 
L 195.095384 131.65982 
L 203.211747 134.316544 
L 211.328111 138.340459 
L 219.444474 169.355453 
L 227.560838 166.04412 
L 235.677202 160.150909 
L 243.793565 146.690967 
L 251.909929 134.318317 
L 260.026293 125.659876 
L 268.142656 117.254802 
L 276.25902 112.045107 
L 284.375384 108.801077 
L 292.491747 104.537176 
L 300.608111 105.380011 
L 308.724474 123.439481 
L 316.840838 132.948183 
L 324.957202 117.101607 
L 333.073565 119.908063 
L 341.189929 136.668286 
L 349.306293 132.056174 
L 357.422656 130.72511 
L 365.53902 116.560303 
L 373.655384 112.2127 
L 381.771747 86.26577 
L 389.888111 82.391263 
L 398.004474 79.877589 
L 406.120838 71.855573 
L 414.237202 66.612443 
L 422.353565 56.625889 
L 430.469929 68.835151 
L 438.586293 81.133714 
L 446.702656 54.447686 
L 454.81902 48.320799 
L 462.935384 35.958149 
L 471.051747 46.982617 
" style="fill:none;stroke:#55a868;stroke-linecap:round;stroke-width:1.75;"/>
   </g>
   <g id="line2d_27">
    <path clip-path="url(#pfda83f35a6)" d="M 65.233565 140.295294 
L 73.349929 140.300532 
L 81.466293 137.146585 
L 89.582656 134.586899 
L 97.69902 139.248677 
L 105.815384 157.136273 
L 113.931747 151.902501 
L 122.048111 168.952369 
L 130.164474 176.996342 
L 138.280838 183.255094 
L 146.397202 193.641788 
L 154.513565 185.724394 
L 162.629929 173.261751 
L 170.746293 175.348923 
L 178.862656 177.838842 
L 186.97902 181.666783 
L 195.095384 200.773113 
L 203.211747 192.607676 
L 211.328111 173.036577 
L 219.444474 182.300344 
L 227.560838 186.099954 
L 235.677202 196.058029 
L 243.793565 216.836859 
L 251.909929 216.09927 
L 260.026293 218.369378 
L 268.142656 223.074445 
L 276.25902 222.291954 
L 284.375384 228.856352 
L 292.491747 224.945703 
L 300.608111 231.135639 
L 308.724474 222.503295 
L 316.840838 218.68682 
L 324.957202 236.362002 
L 333.073565 229.441018 
L 341.189929 232.674594 
L 349.306293 244.332046 
L 357.422656 223.067723 
L 365.53902 232.982724 
L 373.655384 237.33326 
L 381.771747 233.095322 
L 389.888111 235.024149 
L 398.004474 212.198089 
L 406.120838 192.498295 
L 414.237202 179.624152 
L 422.353565 168.386183 
L 430.469929 185.631724 
L 438.586293 194.452676 
L 446.702656 195.587633 
L 454.81902 168.52293 
L 462.935384 183.306909 
L 471.051747 156.089425 
" style="fill:none;stroke:#c44e52;stroke-linecap:round;stroke-width:1.75;"/>
   </g>
   <g id="line2d_28">
    <path clip-path="url(#pfda83f35a6)" d="M 65.233565 140.295294 
L 73.349929 131.647248 
L 81.466293 134.768531 
L 89.582656 108.535155 
L 97.69902 98.967877 
L 105.815384 97.532928 
L 113.931747 106.055345 
L 122.048111 106.189484 
L 130.164474 96.661825 
L 138.280838 102.043989 
L 146.397202 110.069574 
L 154.513565 126.369204 
L 162.629929 117.79415 
L 170.746293 99.77022 
L 178.862656 99.410916 
L 186.97902 103.448498 
L 195.095384 124.272076 
L 203.211747 160.551926 
L 211.328111 166.075698 
L 219.444474 156.932759 
L 227.560838 155.470251 
L 235.677202 153.041459 
L 243.793565 143.689021 
L 251.909929 144.397748 
L 260.026293 159.502092 
L 268.142656 153.728762 
L 276.25902 168.548096 
L 284.375384 165.756948 
L 292.491747 143.068838 
L 300.608111 136.261208 
L 308.724474 154.539839 
L 316.840838 150.229136 
L 324.957202 139.049995 
L 333.073565 133.187045 
L 341.189929 138.621755 
L 349.306293 160.410718 
L 357.422656 138.199535 
L 365.53902 131.050118 
L 373.655384 122.18592 
L 381.771747 133.894592 
L 389.888111 170.796072 
L 398.004474 182.372749 
L 406.120838 172.26891 
L 414.237202 163.784505 
L 422.353565 184.575558 
L 430.469929 188.567936 
L 438.586293 184.664785 
L 446.702656 186.336222 
L 454.81902 184.295661 
L 462.935384 193.204556 
L 471.051747 199.438468 
" style="fill:none;stroke:#8172b2;stroke-linecap:round;stroke-width:1.75;"/>
   </g>
   <g id="line2d_29">
    <path clip-path="url(#pfda83f35a6)" d="M 65.233565 140.295294 
L 73.349929 143.810092 
L 81.466293 148.388277 
L 89.582656 149.019017 
L 97.69902 155.124448 
L 105.815384 156.868135 
L 113.931747 148.914267 
L 122.048111 150.437123 
L 130.164474 144.871119 
L 138.280838 147.581897 
L 146.397202 160.653383 
L 154.513565 174.381123 
L 162.629929 179.101279 
L 170.746293 191.844495 
L 178.862656 204.165089 
L 186.97902 202.704466 
L 195.095384 211.988634 
L 203.211747 190.925874 
L 211.328111 193.108213 
L 219.444474 196.086642 
L 227.560838 195.952826 
L 235.677202 193.088866 
L 243.793565 192.969257 
L 251.909929 184.165563 
L 260.026293 169.129686 
L 268.142656 160.920794 
L 276.25902 168.677648 
L 284.375384 155.599734 
L 292.491747 166.229746 
L 300.608111 147.577791 
L 308.724474 134.629281 
L 316.840838 135.965973 
L 324.957202 135.991458 
L 333.073565 138.331146 
L 341.189929 155.673773 
L 349.306293 157.283443 
L 357.422656 157.722495 
L 365.53902 131.506161 
L 373.655384 130.670959 
L 381.771747 144.224935 
L 389.888111 146.354921 
L 398.004474 159.014365 
L 406.120838 157.789497 
L 414.237202 166.652727 
L 422.353565 147.941985 
L 430.469929 140.736399 
L 438.586293 156.068251 
L 446.702656 144.294585 
L 454.81902 140.807697 
L 462.935384 143.162606 
L 471.051747 162.709388 
" style="fill:none;stroke:#ccb974;stroke-linecap:round;stroke-width:1.75;"/>
   </g>
   <g id="line2d_30">
    <path clip-path="url(#pfda83f35a6)" d="M 65.233565 140.295294 
L 73.349929 134.958989 
L 81.466293 141.249661 
L 89.582656 161.129735 
L 97.69902 165.923267 
L 105.815384 168.105649 
L 113.931747 166.637115 
L 122.048111 176.491754 
L 130.164474 191.88741 
L 138.280838 186.742444 
L 146.397202 178.933852 
L 154.513565 170.64755 
L 162.629929 180.239928 
L 170.746293 199.214016 
L 178.862656 215.606859 
L 186.97902 230.456222 
L 195.095384 239.641415 
L 203.211747 234.657029 
L 211.328111 245.39827 
L 219.444474 241.999845 
L 227.560838 241.117824 
L 235.677202 241.936919 
L 243.793565 220.288298 
L 251.909929 225.13192 
L 260.026293 222.431204 
L 268.142656 225.130052 
L 276.25902 237.05112 
L 284.375384 242.284461 
L 292.491747 240.453086 
L 300.608111 247.058751 
L 308.724474 268.952206 
L 316.840838 265.962532 
L 324.957202 267.270746 
L 333.073565 250.99196 
L 341.189929 262.793532 
L 349.306293 280.633688 
L 357.422656 278.418483 
L 365.53902 265.692983 
L 373.655384 285.188088 
L 381.771747 283.019413 
L 389.888111 272.291029 
L 398.004474 282.189513 
L 406.120838 283.390877 
L 414.237202 291.147086 
L 422.353565 283.363764 
L 430.469929 292.59 
L 438.586293 276.453516 
L 446.702656 267.756162 
L 454.81902 267.200353 
L 462.935384 266.10806 
L 471.051747 278.068883 
" style="fill:none;stroke:#64b5cd;stroke-linecap:round;stroke-width:1.75;"/>
   </g>
   <g id="line2d_31">
    <path clip-path="url(#pfda83f35a6)" d="M 65.233565 140.295294 
L 73.349929 141.348102 
L 81.466293 155.420013 
L 89.582656 159.93948 
L 97.69902 164.51516 
L 105.815384 173.839484 
L 113.931747 170.736552 
L 122.048111 174.397505 
L 130.164474 181.60313 
L 138.280838 189.742149 
L 146.397202 195.813848 
L 154.513565 203.735094 
L 162.629929 210.446936 
L 170.746293 221.780381 
L 178.862656 211.497446 
L 186.97902 212.245724 
L 195.095384 202.706813 
L 203.211747 201.99012 
L 211.328111 202.164635 
L 219.444474 213.202923 
L 227.560838 208.154605 
L 235.677202 218.444493 
L 243.793565 203.061565 
L 251.909929 214.142836 
L 260.026293 213.791121 
L 268.142656 216.598671 
L 276.25902 215.577701 
L 284.375384 232.211497 
L 292.491747 229.772664 
L 300.608111 236.30474 
L 308.724474 232.376473 
L 316.840838 243.788591 
L 324.957202 229.484565 
L 333.073565 224.365694 
L 341.189929 226.414814 
L 349.306293 218.799267 
L 357.422656 199.394965 
L 365.53902 210.573096 
L 373.655384 226.392292 
L 381.771747 227.141095 
L 389.888111 215.123582 
L 398.004474 212.304633 
L 406.120838 219.696956 
L 414.237202 226.133624 
L 422.353565 222.646832 
L 430.469929 231.891845 
L 438.586293 227.664905 
L 446.702656 243.53041 
L 454.81902 231.432414 
L 462.935384 229.385671 
L 471.051747 241.762482 
" style="fill:none;stroke:#4c72b0;stroke-linecap:round;stroke-width:1.75;"/>
   </g>
   <g id="line2d_32">
    <path clip-path="url(#pfda83f35a6)" d="M 65.233565 140.295294 
L 73.349929 146.07964 
L 81.466293 138.771046 
L 89.582656 126.880019 
L 97.69902 119.604947 
L 105.815384 116.881036 
L 113.931747 118.242666 
L 122.048111 104.147284 
L 130.164474 115.865374 
L 138.280838 126.973003 
L 146.397202 126.452359 
L 154.513565 126.140777 
L 162.629929 142.446701 
L 170.746293 122.673067 
L 178.862656 103.976196 
L 186.97902 93.767757 
L 195.095384 61.127803 
L 203.211747 55.641209 
L 211.328111 62.286034 
L 219.444474 49.026722 
L 227.560838 54.813799 
L 235.677202 31.351139 
L 243.793565 38.607977 
L 251.909929 20.79 
L 260.026293 46.013009 
L 268.142656 46.931185 
L 276.25902 45.561008 
L 284.375384 37.482762 
L 292.491747 40.903495 
L 300.608111 26.336104 
L 308.724474 26.528781 
L 316.840838 39.63922 
L 324.957202 43.340519 
L 333.073565 41.017871 
L 341.189929 38.752683 
L 349.306293 48.958364 
L 357.422656 76.905669 
L 365.53902 75.795949 
L 373.655384 71.801317 
L 381.771747 79.856195 
L 389.888111 98.073379 
L 398.004474 113.305229 
L 406.120838 134.183407 
L 414.237202 125.864728 
L 422.353565 107.252736 
L 430.469929 125.634569 
L 438.586293 124.253647 
L 446.702656 134.937209 
L 454.81902 143.965505 
L 462.935384 160.147088 
L 471.051747 187.864263 
" style="fill:none;stroke:#55a868;stroke-linecap:round;stroke-width:1.75;"/>
   </g>
   <g id="line2d_33">
    <path clip-path="url(#pfda83f35a6)" d="M 65.233565 140.295294 
L 73.349929 132.289607 
L 81.466293 131.992848 
L 89.582656 147.356952 
L 97.69902 117.163137 
L 105.815384 108.123921 
L 113.931747 110.068753 
L 122.048111 116.177258 
L 130.164474 112.217732 
L 138.280838 121.999348 
L 146.397202 132.198219 
L 154.513565 129.761322 
L 162.629929 116.11014 
L 170.746293 105.63998 
L 178.862656 105.922492 
L 186.97902 91.228187 
L 195.095384 65.380153 
L 203.211747 63.82191 
L 211.328111 44.663776 
L 219.444474 38.862558 
L 227.560838 32.131432 
L 235.677202 45.649751 
L 243.793565 43.268465 
L 251.909929 54.899975 
L 260.026293 39.132664 
L 268.142656 36.418132 
L 276.25902 40.270496 
L 284.375384 32.045578 
L 292.491747 34.566008 
L 300.608111 46.224874 
L 308.724474 49.589514 
L 316.840838 77.481725 
L 324.957202 77.175224 
L 333.073565 114.14294 
L 341.189929 130.755558 
L 349.306293 107.426639 
L 357.422656 127.510759 
L 365.53902 146.421247 
L 373.655384 155.384806 
L 381.771747 155.031215 
L 389.888111 149.097333 
L 398.004474 133.484637 
L 406.120838 116.66107 
L 414.237202 107.64676 
L 422.353565 117.939136 
L 430.469929 142.874229 
L 438.586293 133.186439 
L 446.702656 137.871823 
L 454.81902 144.495494 
L 462.935384 148.483724 
L 471.051747 162.074531 
" style="fill:none;stroke:#c44e52;stroke-linecap:round;stroke-width:1.75;"/>
   </g>
   <g id="line2d_34">
    <path clip-path="url(#pfda83f35a6)" d="M 65.233565 140.295294 
L 73.349929 145.886104 
L 81.466293 140.092979 
L 89.582656 168.050972 
L 97.69902 169.235017 
L 105.815384 153.525142 
L 113.931747 138.830389 
L 122.048111 143.476556 
L 130.164474 158.891626 
L 138.280838 162.007646 
L 146.397202 164.035616 
L 154.513565 156.277432 
L 162.629929 171.368968 
L 170.746293 162.776821 
L 178.862656 163.096776 
L 186.97902 158.797983 
L 195.095384 131.810826 
L 203.211747 144.280006 
L 211.328111 126.59616 
L 219.444474 127.63946 
L 227.560838 118.336824 
L 235.677202 125.517816 
L 243.793565 124.464995 
L 251.909929 119.136361 
L 260.026293 119.242106 
L 268.142656 105.355234 
L 276.25902 151.794233 
L 284.375384 120.692619 
L 292.491747 103.768985 
L 300.608111 107.306328 
L 308.724474 121.745474 
L 316.840838 119.030219 
L 324.957202 135.318269 
L 333.073565 131.788916 
L 341.189929 134.917889 
L 349.306293 148.930525 
L 357.422656 156.246599 
L 365.53902 147.209667 
L 373.655384 134.180877 
L 381.771747 145.107228 
L 389.888111 152.58318 
L 398.004474 145.050407 
L 406.120838 145.930034 
L 414.237202 147.911541 
L 422.353565 146.898272 
L 430.469929 162.765838 
L 438.586293 148.666156 
L 446.702656 120.968042 
L 454.81902 120.545848 
L 462.935384 119.022005 
L 471.051747 131.159579 
" style="fill:none;stroke:#8172b2;stroke-linecap:round;stroke-width:1.75;"/>
   </g>
   <g id="patch_3">
    <path d="M 44.942656 306.18 
L 44.942656 7.2 
" style="fill:none;"/>
   </g>
   <g id="patch_4">
    <path d="M 491.342656 306.18 
L 491.342656 7.2 
" style="fill:none;"/>
   </g>
   <g id="patch_5">
    <path d="M 44.942656 306.18 
L 491.342656 306.18 
" style="fill:none;"/>
   </g>
   <g id="patch_6">
    <path d="M 44.942656 7.2 
L 491.342656 7.2 
" style="fill:none;"/>
   </g>
  </g>
 </g>
 <defs>
  <clipPath id="pfda83f35a6">
   <rect height="298.98" width="446.4" x="44.942656" y="7.2"/>
  </clipPath>
 </defs>
</svg>
