<?xml version="1.0" encoding="utf-8" standalone="no"?>
<!DOCTYPE svg PUBLIC "-//W3C//DTD SVG 1.1//EN"
  "http://www.w3.org/Graphics/SVG/1.1/DTD/svg11.dtd">
<!-- Created with matplotlib (https://matplotlib.org/) -->
<svg height="371.884063pt" version="1.1" viewBox="0 0 555.999013 371.884063" width="555.999013pt" xmlns="http://www.w3.org/2000/svg" xmlns:xlink="http://www.w3.org/1999/xlink">
 <defs>
  <style type="text/css">
*{stroke-linecap:butt;stroke-linejoin:round;}
  </style>
 </defs>
 <g id="figure_1">
  <g id="patch_1">
   <path d="M 0 371.884063 
L 555.999013 371.884063 
L 555.999013 0 
L 0 0 
z
" style="fill:none;"/>
  </g>
  <g id="axes_1">
   <g id="patch_2">
    <path d="M 43.588125 333.36 
L 545.788125 333.36 
L 545.788125 7.2 
L 43.588125 7.2 
z
" style="fill:#eaeaf2;"/>
   </g>
   <g id="matplotlib.axis_1">
    <g id="xtick_1">
     <g id="line2d_1">
      <path clip-path="url(#p395554982a)" d="M 119.258412 333.36 
L 119.258412 7.2 
" style="fill:none;stroke:#ffffff;stroke-linecap:round;"/>
     </g>
     <g id="line2d_2"/>
     <g id="text_1">
      <!-- −4 -->
      <defs>
       <path d="M 10.59375 35.296875 
L 73.1875 35.296875 
L 73.1875 27.390625 
L 10.59375 27.390625 
z
" id="DejaVuSerif-8722"/>
       <path d="M 34.90625 24.703125 
L 34.90625 63.484375 
L 10.015625 24.703125 
z
M 56.390625 0 
L 23.1875 0 
L 23.1875 5.171875 
L 34.90625 5.171875 
L 34.90625 19.484375 
L 3.078125 19.484375 
L 3.078125 24.8125 
L 35.015625 74.21875 
L 44.671875 74.21875 
L 44.671875 24.703125 
L 58.59375 24.703125 
L 58.59375 19.484375 
L 44.671875 19.484375 
L 44.671875 5.171875 
L 56.390625 5.171875 
z
" id="DejaVuSerif-52"/>
      </defs>
      <g style="fill:#262626;" transform="translate(111.887318 347.958438)scale(0.1 -0.1)">
       <use xlink:href="#DejaVuSerif-8722"/>
       <use x="83.789062" xlink:href="#DejaVuSerif-52"/>
      </g>
     </g>
    </g>
    <g id="xtick_2">
     <g id="line2d_3">
      <path clip-path="url(#p395554982a)" d="M 204.530282 333.36 
L 204.530282 7.2 
" style="fill:none;stroke:#ffffff;stroke-linecap:round;"/>
     </g>
     <g id="line2d_4"/>
     <g id="text_2">
      <!-- −2 -->
      <defs>
       <path d="M 12.796875 55.515625 
L 7.328125 55.515625 
L 7.328125 68.5 
Q 12.546875 71.296875 17.84375 72.75 
Q 23.140625 74.21875 28.21875 74.21875 
Q 39.59375 74.21875 46.1875 68.703125 
Q 52.78125 63.1875 52.78125 53.71875 
Q 52.78125 43.015625 37.84375 28.125 
Q 36.671875 27 36.078125 26.421875 
L 17.671875 8.015625 
L 48.09375 8.015625 
L 48.09375 17 
L 53.8125 17 
L 53.8125 0 
L 6.78125 0 
L 6.78125 5.328125 
L 28.90625 27.390625 
Q 36.234375 34.71875 39.359375 40.84375 
Q 42.484375 46.96875 42.484375 53.71875 
Q 42.484375 61.078125 38.640625 65.234375 
Q 34.8125 69.390625 28.078125 69.390625 
Q 21.09375 69.390625 17.28125 65.921875 
Q 13.484375 62.453125 12.796875 55.515625 
z
" id="DejaVuSerif-50"/>
      </defs>
      <g style="fill:#262626;" transform="translate(197.159188 347.958438)scale(0.1 -0.1)">
       <use xlink:href="#DejaVuSerif-8722"/>
       <use x="83.789062" xlink:href="#DejaVuSerif-50"/>
      </g>
     </g>
    </g>
    <g id="xtick_3">
     <g id="line2d_5">
      <path clip-path="url(#p395554982a)" d="M 289.802152 333.36 
L 289.802152 7.2 
" style="fill:none;stroke:#ffffff;stroke-linecap:round;"/>
     </g>
     <g id="line2d_6"/>
     <g id="text_3">
      <!-- 0 -->
      <defs>
       <path d="M 31.78125 3.421875 
Q 39.265625 3.421875 42.96875 11.625 
Q 46.6875 19.828125 46.6875 36.375 
Q 46.6875 52.984375 42.96875 61.1875 
Q 39.265625 69.390625 31.78125 69.390625 
Q 24.3125 69.390625 20.59375 61.1875 
Q 16.890625 52.984375 16.890625 36.375 
Q 16.890625 19.828125 20.59375 11.625 
Q 24.3125 3.421875 31.78125 3.421875 
z
M 31.78125 -1.421875 
Q 19.921875 -1.421875 13.25 8.53125 
Q 6.59375 18.5 6.59375 36.375 
Q 6.59375 54.296875 13.25 64.25 
Q 19.921875 74.21875 31.78125 74.21875 
Q 43.703125 74.21875 50.34375 64.25 
Q 56.984375 54.296875 56.984375 36.375 
Q 56.984375 18.5 50.34375 8.53125 
Q 43.703125 -1.421875 31.78125 -1.421875 
z
" id="DejaVuSerif-48"/>
      </defs>
      <g style="fill:#262626;" transform="translate(286.620902 347.958438)scale(0.1 -0.1)">
       <use xlink:href="#DejaVuSerif-48"/>
      </g>
     </g>
    </g>
    <g id="xtick_4">
     <g id="line2d_7">
      <path clip-path="url(#p395554982a)" d="M 375.074022 333.36 
L 375.074022 7.2 
" style="fill:none;stroke:#ffffff;stroke-linecap:round;"/>
     </g>
     <g id="line2d_8"/>
     <g id="text_4">
      <!-- 2 -->
      <g style="fill:#262626;" transform="translate(371.892772 347.958438)scale(0.1 -0.1)">
       <use xlink:href="#DejaVuSerif-50"/>
      </g>
     </g>
    </g>
    <g id="xtick_5">
     <g id="line2d_9">
      <path clip-path="url(#p395554982a)" d="M 460.345893 333.36 
L 460.345893 7.2 
" style="fill:none;stroke:#ffffff;stroke-linecap:round;"/>
     </g>
     <g id="line2d_10"/>
     <g id="text_5">
      <!-- 4 -->
      <g style="fill:#262626;" transform="translate(457.164643 347.958438)scale(0.1 -0.1)">
       <use xlink:href="#DejaVuSerif-52"/>
      </g>
     </g>
    </g>
    <g id="xtick_6">
     <g id="line2d_11">
      <path clip-path="url(#p395554982a)" d="M 545.617763 333.36 
L 545.617763 7.2 
" style="fill:none;stroke:#ffffff;stroke-linecap:round;"/>
     </g>
     <g id="line2d_12"/>
     <g id="text_6">
      <!-- 6 -->
      <defs>
       <path d="M 32.71875 3.421875 
Q 39.59375 3.421875 43.296875 8.46875 
Q 47.015625 13.53125 47.015625 23 
Q 47.015625 32.46875 43.296875 37.515625 
Q 39.59375 42.578125 32.71875 42.578125 
Q 25.734375 42.578125 22.0625 37.6875 
Q 18.40625 32.8125 18.40625 23.578125 
Q 18.40625 13.875 22.109375 8.640625 
Q 25.828125 3.421875 32.71875 3.421875 
z
M 16.796875 40.140625 
Q 20.125 43.796875 24.3125 45.59375 
Q 28.515625 47.40625 33.796875 47.40625 
Q 44.671875 47.40625 51 40.859375 
Q 57.328125 34.328125 57.328125 23 
Q 57.328125 11.921875 50.515625 5.25 
Q 43.703125 -1.421875 32.328125 -1.421875 
Q 19.96875 -1.421875 13.328125 7.78125 
Q 6.6875 17 6.6875 34.078125 
Q 6.6875 53.21875 14.546875 63.71875 
Q 22.40625 74.21875 36.71875 74.21875 
Q 40.578125 74.21875 44.828125 73.484375 
Q 49.078125 72.75 53.515625 71.296875 
L 53.515625 59.28125 
L 48 59.28125 
Q 47.40625 64.203125 44.234375 66.796875 
Q 41.0625 69.390625 35.6875 69.390625 
Q 26.21875 69.390625 21.578125 62.203125 
Q 16.9375 55.03125 16.796875 40.140625 
z
" id="DejaVuSerif-54"/>
      </defs>
      <g style="fill:#262626;" transform="translate(542.436513 347.958438)scale(0.1 -0.1)">
       <use xlink:href="#DejaVuSerif-54"/>
      </g>
     </g>
    </g>
    <g id="text_7">
     <!-- x -->
     <defs>
      <path d="M 29.109375 31.6875 
L 39.984375 46.6875 
L 33.015625 46.6875 
L 33.015625 51.90625 
L 52.984375 51.90625 
L 52.984375 46.6875 
L 46.09375 46.6875 
L 32.171875 27.484375 
L 48.390625 5.171875 
L 55.171875 5.171875 
L 55.171875 0 
L 31.203125 0 
L 31.203125 5.171875 
L 37.796875 5.171875 
L 26.515625 20.703125 
L 15.1875 5.171875 
L 21.921875 5.171875 
L 21.921875 0 
L 2.203125 0 
L 2.203125 5.171875 
L 9.078125 5.171875 
L 23.390625 24.90625 
L 7.625 46.6875 
L 1.21875 46.6875 
L 1.21875 51.90625 
L 24.421875 51.90625 
L 24.421875 46.6875 
L 18.21875 46.6875 
z
" id="DejaVuSerif-120"/>
     </defs>
     <g style="fill:#262626;" transform="translate(291.586641 362.396406)scale(0.11 -0.11)">
      <use xlink:href="#DejaVuSerif-120"/>
     </g>
    </g>
   </g>
   <g id="matplotlib.axis_2">
    <g id="ytick_1">
     <g id="line2d_13">
      <path clip-path="url(#p395554982a)" d="M 43.588125 321.656069 
L 545.788125 321.656069 
" style="fill:none;stroke:#ffffff;stroke-linecap:round;"/>
     </g>
     <g id="line2d_14"/>
     <g id="text_8">
      <!-- −2 -->
      <g style="fill:#262626;" transform="translate(21.845938 325.455288)scale(0.1 -0.1)">
       <use xlink:href="#DejaVuSerif-8722"/>
       <use x="83.789062" xlink:href="#DejaVuSerif-50"/>
      </g>
     </g>
    </g>
    <g id="ytick_2">
     <g id="line2d_15">
      <path clip-path="url(#p395554982a)" d="M 43.588125 249.754472 
L 545.788125 249.754472 
" style="fill:none;stroke:#ffffff;stroke-linecap:round;"/>
     </g>
     <g id="line2d_16"/>
     <g id="text_9">
      <!-- −1 -->
      <defs>
       <path d="M 14.203125 0 
L 14.203125 5.171875 
L 26.90625 5.171875 
L 26.90625 65.828125 
L 12.203125 56.296875 
L 12.203125 62.703125 
L 29.984375 74.21875 
L 36.71875 74.21875 
L 36.71875 5.171875 
L 49.421875 5.171875 
L 49.421875 0 
z
" id="DejaVuSerif-49"/>
      </defs>
      <g style="fill:#262626;" transform="translate(21.845938 253.553691)scale(0.1 -0.1)">
       <use xlink:href="#DejaVuSerif-8722"/>
       <use x="83.789062" xlink:href="#DejaVuSerif-49"/>
      </g>
     </g>
    </g>
    <g id="ytick_3">
     <g id="line2d_17">
      <path clip-path="url(#p395554982a)" d="M 43.588125 177.852875 
L 545.788125 177.852875 
" style="fill:none;stroke:#ffffff;stroke-linecap:round;"/>
     </g>
     <g id="line2d_18"/>
     <g id="text_10">
      <!-- 0 -->
      <g style="fill:#262626;" transform="translate(30.225625 181.652094)scale(0.1 -0.1)">
       <use xlink:href="#DejaVuSerif-48"/>
      </g>
     </g>
    </g>
    <g id="ytick_4">
     <g id="line2d_19">
      <path clip-path="url(#p395554982a)" d="M 43.588125 105.951279 
L 545.788125 105.951279 
" style="fill:none;stroke:#ffffff;stroke-linecap:round;"/>
     </g>
     <g id="line2d_20"/>
     <g id="text_11">
      <!-- 1 -->
      <g style="fill:#262626;" transform="translate(30.225625 109.750497)scale(0.1 -0.1)">
       <use xlink:href="#DejaVuSerif-49"/>
      </g>
     </g>
    </g>
    <g id="ytick_5">
     <g id="line2d_21">
      <path clip-path="url(#p395554982a)" d="M 43.588125 34.049682 
L 545.788125 34.049682 
" style="fill:none;stroke:#ffffff;stroke-linecap:round;"/>
     </g>
     <g id="line2d_22"/>
     <g id="text_12">
      <!-- 2 -->
      <g style="fill:#262626;" transform="translate(30.225625 37.8489)scale(0.1 -0.1)">
       <use xlink:href="#DejaVuSerif-50"/>
      </g>
     </g>
    </g>
    <g id="text_13">
     <!-- f(x) -->
     <defs>
      <path d="M 43.015625 63.71875 
L 38.28125 63.71875 
Q 38.234375 67.390625 36.203125 69.28125 
Q 34.1875 71.1875 30.328125 71.1875 
Q 25.296875 71.1875 23.234375 68.421875 
Q 21.1875 65.671875 21.1875 58.59375 
L 21.1875 51.90625 
L 35.6875 51.90625 
L 35.6875 46.6875 
L 21.1875 46.6875 
L 21.1875 5.171875 
L 32.71875 5.171875 
L 32.71875 0 
L 3.609375 0 
L 3.609375 5.171875 
L 12.203125 5.171875 
L 12.203125 46.6875 
L 3.609375 46.6875 
L 3.609375 51.90625 
L 12.203125 51.90625 
L 12.203125 58.40625 
Q 12.203125 67.09375 16.71875 71.53125 
Q 21.234375 75.984375 29.984375 75.984375 
Q 33.25 75.984375 36.515625 75.390625 
Q 39.796875 74.8125 43.015625 73.578125 
z
" id="DejaVuSerif-102"/>
      <path d="M 31.890625 -15.578125 
Q 20.015625 -10.25 13.953125 1.296875 
Q 7.90625 12.84375 7.90625 30.171875 
Q 7.90625 47.5625 13.953125 59.109375 
Q 20.015625 70.65625 31.890625 75.984375 
L 31.890625 71.1875 
Q 24.359375 66.015625 21.09375 56.609375 
Q 17.828125 47.21875 17.828125 30.171875 
Q 17.828125 13.1875 21.09375 3.78125 
Q 24.359375 -5.609375 31.890625 -10.796875 
z
" id="DejaVuSerif-40"/>
      <path d="M 7.078125 -15.578125 
L 7.078125 -10.796875 
Q 14.59375 -5.609375 17.890625 3.78125 
Q 21.1875 13.1875 21.1875 30.171875 
Q 21.1875 47.21875 17.890625 56.609375 
Q 14.59375 66.015625 7.078125 71.1875 
L 7.078125 75.984375 
Q 19 70.65625 25.046875 59.109375 
Q 31.109375 47.5625 31.109375 30.171875 
Q 31.109375 12.84375 25.046875 1.296875 
Q 19 -10.25 7.078125 -15.578125 
z
" id="DejaVuSerif-41"/>
     </defs>
     <g style="fill:#262626;" transform="translate(15.558281 179.709063)rotate(-90)scale(0.11 -0.11)">
      <use xlink:href="#DejaVuSerif-102"/>
      <use x="37.011719" xlink:href="#DejaVuSerif-40"/>
      <use x="76.025391" xlink:href="#DejaVuSerif-120"/>
      <use x="132.421875" xlink:href="#DejaVuSerif-41"/>
     </g>
    </g>
   </g>
   <g id="line2d_23">
    <defs>
     <path d="M 0 1.75 
C 0.464105 1.75 0.909265 1.565609 1.237437 1.237437 
C 1.565609 0.909265 1.75 0.464105 1.75 0 
C 1.75 -0.464105 1.565609 -0.909265 1.237437 -1.237437 
C 0.909265 -1.565609 0.464105 -1.75 0 -1.75 
C -0.464105 -1.75 -0.909265 -1.565609 -1.237437 -1.237437 
C -1.565609 -0.909265 -1.75 -0.464105 -1.75 0 
C -1.75 0.464105 -1.565609 0.909265 -1.237437 1.237437 
C -0.909265 1.565609 -0.464105 1.75 0 1.75 
z
" id="m9fc414f692"/>
    </defs>
    <g clip-path="url(#p395554982a)">
     <use style="fill:#0000ff;" x="317.395613" xlink:href="#m9fc414f692" y="111.233222"/>
     <use style="fill:#0000ff;" x="499.000833" xlink:href="#m9fc414f692" y="72.005148"/>
     <use style="fill:#0000ff;" x="214.135264" xlink:href="#m9fc414f692" y="312.067258"/>
     <use style="fill:#0000ff;" x="196.479119" xlink:href="#m9fc414f692" y="315.144228"/>
     <use style="fill:#0000ff;" x="501.257893" xlink:href="#m9fc414f692" y="69.2688"/>
     <use style="fill:#0000ff;" x="407.767109" xlink:href="#m9fc414f692" y="52.062392"/>
     <use style="fill:#0000ff;" x="471.230893" xlink:href="#m9fc414f692" y="89.391692"/>
     <use style="fill:#0000ff;" x="353.254128" xlink:href="#m9fc414f692" y="52.693266"/>
     <use style="fill:#0000ff;" x="276.645037" xlink:href="#m9fc414f692" y="210.78479"/>
     <use style="fill:#0000ff;" x="437.655938" xlink:href="#m9fc414f692" y="76.224429"/>
     <use style="fill:#0000ff;" x="232.362726" xlink:href="#m9fc414f692" y="296.39785"/>
     <use style="fill:#0000ff;" x="145.129772" xlink:href="#m9fc414f692" y="281.940331"/>
     <use style="fill:#0000ff;" x="66.415398" xlink:href="#m9fc414f692" y="304.067975"/>
     <use style="fill:#0000ff;" x="234.104202" xlink:href="#m9fc414f692" y="294.219946"/>
     <use style="fill:#0000ff;" x="285.622394" xlink:href="#m9fc414f692" y="188.41476"/>
     <use style="fill:#0000ff;" x="211.918704" xlink:href="#m9fc414f692" y="313.084478"/>
     <use style="fill:#0000ff;" x="218.834924" xlink:href="#m9fc414f692" y="309.27895"/>
     <use style="fill:#0000ff;" x="182.292306" xlink:href="#m9fc414f692" y="310.283826"/>
     <use style="fill:#0000ff;" x="522.960852" xlink:href="#m9fc414f692" y="33.556866"/>
     <use style="fill:#0000ff;" x="480.926974" xlink:href="#m9fc414f692" y="86.709166"/>
     <use style="fill:#0000ff;" x="279.650887" xlink:href="#m9fc414f692" y="203.370359"/>
     <use style="fill:#0000ff;" x="114.779211" xlink:href="#m9fc414f692" y="266.389265"/>
     <use style="fill:#0000ff;" x="251.219096" xlink:href="#m9fc414f692" y="266.928926"/>
     <use style="fill:#0000ff;" x="496.267742" xlink:href="#m9fc414f692" y="75.053841"/>
     <use style="fill:#0000ff;" x="327.263819" xlink:href="#m9fc414f692" y="90.91001"/>
     <use style="fill:#0000ff;" x="247.343484" xlink:href="#m9fc414f692" y="273.995267"/>
     <use style="fill:#0000ff;" x="236.312987" xlink:href="#m9fc414f692" y="291.291256"/>
     <use style="fill:#0000ff;" x="404.297287" xlink:href="#m9fc414f692" y="49.635952"/>
     <use style="fill:#0000ff;" x="358.901111" xlink:href="#m9fc414f692" y="47.776168"/>
     <use style="fill:#0000ff;" x="519.794614" xlink:href="#m9fc414f692" y="39.742962"/>
     <use style="fill:#0000ff;" x="274.616743" xlink:href="#m9fc414f692" y="215.728074"/>
     <use style="fill:#0000ff;" x="237.381123" xlink:href="#m9fc414f692" y="289.809014"/>
     <use style="fill:#0000ff;" x="104.441809" xlink:href="#m9fc414f692" y="266.981281"/>
     <use style="fill:#0000ff;" x="260.988155" xlink:href="#m9fc414f692" y="247.125798"/>
     <use style="fill:#0000ff;" x="215.285384" xlink:href="#m9fc414f692" y="311.464599"/>
     <use style="fill:#0000ff;" x="381.720224" xlink:href="#m9fc414f692" y="40.40537"/>
     <use style="fill:#0000ff;" x="230.863992" xlink:href="#m9fc414f692" y="298.178582"/>
     <use style="fill:#0000ff;" x="266.337276" xlink:href="#m9fc414f692" y="235.242327"/>
     <use style="fill:#0000ff;" x="422.621285" xlink:href="#m9fc414f692" y="63.961214"/>
     <use style="fill:#0000ff;" x="179.974551" xlink:href="#m9fc414f692" y="308.996859"/>
     <use style="fill:#0000ff;" x="274.480517" xlink:href="#m9fc414f692" y="216.058127"/>
     <use style="fill:#0000ff;" x="106.247372" xlink:href="#m9fc414f692" y="266.605242"/>
     <use style="fill:#0000ff;" x="457.345853" xlink:href="#m9fc414f692" y="87.555737"/>
     <use style="fill:#0000ff;" x="366.716791" xlink:href="#m9fc414f692" y="43.042607"/>
     <use style="fill:#0000ff;" x="99.391318" xlink:href="#m9fc414f692" y="268.678469"/>
     <use style="fill:#0000ff;" x="142.773659" xlink:href="#m9fc414f692" y="280.108041"/>
     <use style="fill:#0000ff;" x="105.648203" xlink:href="#m9fc414f692" y="266.7168"/>
     <use style="fill:#0000ff;" x="116.195594" xlink:href="#m9fc414f692" y="266.590415"/>
     <use style="fill:#0000ff;" x="520.305268" xlink:href="#m9fc414f692" y="38.765588"/>
     <use style="fill:#0000ff;" x="475.370673" xlink:href="#m9fc414f692" y="88.673406"/>
    </g>
   </g>
   <g id="line2d_24">
    <defs>
     <path d="M 0 3.5 
C 0.928211 3.5 1.81853 3.131218 2.474874 2.474874 
C 3.131218 1.81853 3.5 0.928211 3.5 0 
C 3.5 -0.928211 3.131218 -1.81853 2.474874 -2.474874 
C 1.81853 -3.131218 0.928211 -3.5 0 -3.5 
C -0.928211 -3.5 -1.81853 -3.131218 -2.474874 -2.474874 
C -3.131218 -1.81853 -3.5 -0.928211 -3.5 0 
C -3.5 0.928211 -3.131218 1.81853 -2.474874 2.474874 
C -1.81853 3.131218 -0.928211 3.5 0 3.5 
z
" id="m6df5d11d01"/>
    </defs>
    <g clip-path="url(#p395554982a)">
     <use style="fill:#ff0000;" x="317.395613" xlink:href="#m6df5d11d01" y="123.901916"/>
     <use style="fill:#ff0000;" x="499.000833" xlink:href="#m6df5d11d01" y="84.483246"/>
     <use style="fill:#ff0000;" x="214.135264" xlink:href="#m6df5d11d01" y="309.8831"/>
     <use style="fill:#ff0000;" x="196.479119" xlink:href="#m6df5d11d01" y="318.534545"/>
     <use style="fill:#ff0000;" x="501.257893" xlink:href="#m6df5d11d01" y="81.449783"/>
     <use style="fill:#ff0000;" x="407.767109" xlink:href="#m6df5d11d01" y="40.564546"/>
     <use style="fill:#ff0000;" x="471.230893" xlink:href="#m6df5d11d01" y="90.746464"/>
     <use style="fill:#ff0000;" x="353.254128" xlink:href="#m6df5d11d01" y="63.677181"/>
     <use style="fill:#ff0000;" x="276.645037" xlink:href="#m6df5d11d01" y="211.466952"/>
     <use style="fill:#ff0000;" x="437.655938" xlink:href="#m6df5d11d01" y="62.062889"/>
     <use style="fill:#ff0000;" x="232.362726" xlink:href="#m6df5d11d01" y="290.824858"/>
     <use style="fill:#ff0000;" x="145.129772" xlink:href="#m6df5d11d01" y="293.636163"/>
     <use style="fill:#ff0000;" x="66.415398" xlink:href="#m6df5d11d01" y="309.126637"/>
     <use style="fill:#ff0000;" x="234.104202" xlink:href="#m6df5d11d01" y="288.503817"/>
     <use style="fill:#ff0000;" x="285.622394" xlink:href="#m6df5d11d01" y="192.06766"/>
     <use style="fill:#ff0000;" x="211.918704" xlink:href="#m6df5d11d01" y="311.512906"/>
     <use style="fill:#ff0000;" x="218.834924" xlink:href="#m6df5d11d01" y="305.92112"/>
     <use style="fill:#ff0000;" x="182.292306" xlink:href="#m6df5d11d01" y="318.369978"/>
     <use style="fill:#ff0000;" x="522.960852" xlink:href="#m6df5d11d01" y="22.025455"/>
     <use style="fill:#ff0000;" x="480.926974" xlink:href="#m6df5d11d01" y="93.820957"/>
     <use style="fill:#ff0000;" x="279.650887" xlink:href="#m6df5d11d01" y="205.025401"/>
     <use style="fill:#ff0000;" x="114.779211" xlink:href="#m6df5d11d01" y="266.276403"/>
     <use style="fill:#ff0000;" x="251.219096" xlink:href="#m6df5d11d01" y="261.650233"/>
     <use style="fill:#ff0000;" x="496.267742" xlink:href="#m6df5d11d01" y="87.521139"/>
     <use style="fill:#ff0000;" x="327.263819" xlink:href="#m6df5d11d01" y="104.71783"/>
     <use style="fill:#ff0000;" x="247.343484" xlink:href="#m6df5d11d01" y="268.327218"/>
     <use style="fill:#ff0000;" x="236.312987" xlink:href="#m6df5d11d01" y="285.443166"/>
     <use style="fill:#ff0000;" x="404.297287" xlink:href="#m6df5d11d01" y="39.345866"/>
     <use style="fill:#ff0000;" x="358.901111" xlink:href="#m6df5d11d01" y="57.048726"/>
     <use style="fill:#ff0000;" x="519.794614" xlink:href="#m6df5d11d01" y="34.675882"/>
     <use style="fill:#ff0000;" x="274.616743" xlink:href="#m6df5d11d01" y="215.773045"/>
     <use style="fill:#ff0000;" x="237.381123" xlink:href="#m6df5d11d01" y="283.917169"/>
     <use style="fill:#ff0000;" x="104.441809" xlink:href="#m6df5d11d01" y="261.678161"/>
     <use style="fill:#ff0000;" x="260.988155" xlink:href="#m6df5d11d01" y="243.516564"/>
     <use style="fill:#ff0000;" x="215.285384" xlink:href="#m6df5d11d01" y="308.9768"/>
     <use style="fill:#ff0000;" x="381.720224" xlink:href="#m6df5d11d01" y="40.092123"/>
     <use style="fill:#ff0000;" x="230.863992" xlink:href="#m6df5d11d01" y="292.756027"/>
     <use style="fill:#ff0000;" x="266.337276" xlink:href="#m6df5d11d01" y="232.913037"/>
     <use style="fill:#ff0000;" x="422.621285" xlink:href="#m6df5d11d01" y="49.171987"/>
     <use style="fill:#ff0000;" x="179.974551" xlink:href="#m6df5d11d01" y="317.769264"/>
     <use style="fill:#ff0000;" x="274.480517" xlink:href="#m6df5d11d01" y="216.06095"/>
     <use style="fill:#ff0000;" x="106.247372" xlink:href="#m6df5d11d01" y="262.152864"/>
     <use style="fill:#ff0000;" x="457.345853" xlink:href="#m6df5d11d01" y="80.703256"/>
     <use style="fill:#ff0000;" x="366.716791" xlink:href="#m6df5d11d01" y="49.423109"/>
     <use style="fill:#ff0000;" x="99.391318" xlink:href="#m6df5d11d01" y="261.251935"/>
     <use style="fill:#ff0000;" x="142.773659" xlink:href="#m6df5d11d01" y="291.338555"/>
     <use style="fill:#ff0000;" x="105.648203" xlink:href="#m6df5d11d01" y="261.977945"/>
     <use style="fill:#ff0000;" x="116.195594" xlink:href="#m6df5d11d01" y="267.213548"/>
     <use style="fill:#ff0000;" x="520.305268" xlink:href="#m6df5d11d01" y="32.740277"/>
     <use style="fill:#ff0000;" x="475.370673" xlink:href="#m6df5d11d01" y="92.572278"/>
    </g>
   </g>
   <g id="patch_3">
    <path d="M 43.588125 333.36 
L 43.588125 7.2 
" style="fill:none;"/>
   </g>
   <g id="patch_4">
    <path d="M 545.788125 333.36 
L 545.788125 7.2 
" style="fill:none;"/>
   </g>
   <g id="patch_5">
    <path d="M 43.588125 333.36 
L 545.788125 333.36 
" style="fill:none;"/>
   </g>
   <g id="patch_6">
    <path d="M 43.588125 7.2 
L 545.788125 7.2 
" style="fill:none;"/>
   </g>
   <g id="legend_1">
    <g id="line2d_25"/>
    <g id="line2d_26">
     <g>
      <use style="fill:#0000ff;" x="62.588125" xlink:href="#m9fc414f692" y="20.298438"/>
     </g>
    </g>
    <g id="text_14">
     <!-- f(x) -->
     <g style="fill:#262626;" transform="translate(80.588125 23.798438)scale(0.1 -0.1)">
      <use xlink:href="#DejaVuSerif-102"/>
      <use x="37.011719" xlink:href="#DejaVuSerif-40"/>
      <use x="76.025391" xlink:href="#DejaVuSerif-120"/>
      <use x="132.421875" xlink:href="#DejaVuSerif-41"/>
     </g>
    </g>
    <g id="line2d_27"/>
    <g id="line2d_28">
     <g>
      <use style="fill:#ff0000;" x="62.588125" xlink:href="#m6df5d11d01" y="34.976563"/>
     </g>
    </g>
    <g id="text_15">
     <!-- regression -->
     <defs>
      <path d="M 47.796875 52 
L 47.796875 39.015625 
L 42.625 39.015625 
Q 42.390625 42.875 40.484375 44.78125 
Q 38.578125 46.6875 34.90625 46.6875 
Q 28.265625 46.6875 24.71875 42.09375 
Q 21.1875 37.5 21.1875 28.90625 
L 21.1875 5.171875 
L 31.59375 5.171875 
L 31.59375 0 
L 4.109375 0 
L 4.109375 5.171875 
L 12.203125 5.171875 
L 12.203125 46.78125 
L 3.609375 46.78125 
L 3.609375 51.90625 
L 21.1875 51.90625 
L 21.1875 42.671875 
Q 23.828125 48.09375 27.96875 50.703125 
Q 32.125 53.328125 38.09375 53.328125 
Q 40.28125 53.328125 42.703125 52.984375 
Q 45.125 52.640625 47.796875 52 
z
" id="DejaVuSerif-114"/>
      <path d="M 54.203125 25 
L 15.484375 25 
L 15.484375 24.609375 
Q 15.484375 14.109375 19.4375 8.765625 
Q 23.390625 3.421875 31.109375 3.421875 
Q 37.015625 3.421875 40.796875 6.515625 
Q 44.578125 9.625 46.09375 15.71875 
L 53.328125 15.71875 
Q 51.171875 7.171875 45.375 2.875 
Q 39.59375 -1.421875 30.171875 -1.421875 
Q 18.796875 -1.421875 11.890625 6.078125 
Q 4.984375 13.578125 4.984375 25.984375 
Q 4.984375 38.28125 11.765625 45.796875 
Q 18.5625 53.328125 29.59375 53.328125 
Q 41.359375 53.328125 47.65625 46.0625 
Q 53.953125 38.8125 54.203125 25 
z
M 43.609375 30.171875 
Q 43.3125 39.265625 39.765625 43.875 
Q 36.234375 48.484375 29.59375 48.484375 
Q 23.390625 48.484375 19.828125 43.84375 
Q 16.265625 39.203125 15.484375 30.171875 
z
" id="DejaVuSerif-101"/>
      <path d="M 52.484375 46.6875 
L 52.484375 1.125 
Q 52.484375 -10.0625 46.328125 -16.140625 
Q 40.1875 -22.21875 28.8125 -22.21875 
Q 23.6875 -22.21875 19 -21.28125 
Q 14.3125 -20.359375 10.015625 -18.5 
L 10.015625 -7.625 
L 14.703125 -7.625 
Q 15.578125 -12.703125 18.84375 -15.046875 
Q 22.125 -17.390625 28.21875 -17.390625 
Q 36.140625 -17.390625 39.8125 -12.921875 
Q 43.5 -8.453125 43.5 1.125 
L 43.5 8.109375 
Q 40.875 3.21875 36.796875 0.890625 
Q 32.71875 -1.421875 26.703125 -1.421875 
Q 17.140625 -1.421875 11.0625 6.171875 
Q 4.984375 13.765625 4.984375 25.984375 
Q 4.984375 38.1875 11.03125 45.75 
Q 17.09375 53.328125 26.703125 53.328125 
Q 32.71875 53.328125 36.796875 51 
Q 40.875 48.6875 43.5 43.796875 
L 43.5 51.90625 
L 61.078125 51.90625 
L 61.078125 46.6875 
z
M 43.5 28.515625 
Q 43.5 37.84375 39.90625 42.765625 
Q 36.328125 47.703125 29.5 47.703125 
Q 22.5625 47.703125 19.015625 42.234375 
Q 15.484375 36.765625 15.484375 25.984375 
Q 15.484375 15.234375 19.015625 9.71875 
Q 22.5625 4.203125 29.5 4.203125 
Q 36.328125 4.203125 39.90625 9.109375 
Q 43.5 14.015625 43.5 23.390625 
z
" id="DejaVuSerif-103"/>
      <path d="M 5.609375 2.875 
L 5.609375 14.984375 
L 10.796875 14.984375 
Q 10.984375 9.1875 14.421875 6.296875 
Q 17.875 3.421875 24.609375 3.421875 
Q 30.671875 3.421875 33.84375 5.6875 
Q 37.015625 7.953125 37.015625 12.3125 
Q 37.015625 15.71875 34.6875 17.8125 
Q 32.375 19.921875 24.90625 22.3125 
L 18.40625 24.515625 
Q 11.71875 26.65625 8.71875 29.875 
Q 5.71875 33.109375 5.71875 38.09375 
Q 5.71875 45.21875 10.9375 49.265625 
Q 16.15625 53.328125 25.390625 53.328125 
Q 29.5 53.328125 34.03125 52.25 
Q 38.578125 51.171875 43.40625 49.125 
L 43.40625 37.796875 
L 38.234375 37.796875 
Q 38.03125 42.828125 34.703125 45.65625 
Q 31.390625 48.484375 25.6875 48.484375 
Q 20.015625 48.484375 17.109375 46.484375 
Q 14.203125 44.484375 14.203125 40.484375 
Q 14.203125 37.203125 16.40625 35.21875 
Q 18.609375 33.25 25.203125 31.203125 
L 32.328125 29 
Q 39.703125 26.703125 42.9375 23.265625 
Q 46.1875 19.828125 46.1875 14.40625 
Q 46.1875 7.03125 40.546875 2.796875 
Q 34.90625 -1.421875 25 -1.421875 
Q 19.96875 -1.421875 15.1875 -0.34375 
Q 10.40625 0.734375 5.609375 2.875 
z
" id="DejaVuSerif-115"/>
      <path d="M 9.71875 68.015625 
Q 9.71875 70.265625 11.34375 71.921875 
Q 12.984375 73.578125 15.28125 73.578125 
Q 17.53125 73.578125 19.15625 71.921875 
Q 20.796875 70.265625 20.796875 68.015625 
Q 20.796875 65.71875 19.1875 64.109375 
Q 17.578125 62.5 15.28125 62.5 
Q 12.984375 62.5 11.34375 64.109375 
Q 9.71875 65.71875 9.71875 68.015625 
z
M 21.1875 5.171875 
L 29.6875 5.171875 
L 29.6875 0 
L 3.609375 0 
L 3.609375 5.171875 
L 12.203125 5.171875 
L 12.203125 46.6875 
L 3.609375 46.6875 
L 3.609375 51.90625 
L 21.1875 51.90625 
z
" id="DejaVuSerif-105"/>
      <path d="M 30.078125 3.421875 
Q 37.3125 3.421875 40.984375 9.125 
Q 44.671875 14.84375 44.671875 25.984375 
Q 44.671875 37.109375 40.984375 42.796875 
Q 37.3125 48.484375 30.078125 48.484375 
Q 22.859375 48.484375 19.171875 42.796875 
Q 15.484375 37.109375 15.484375 25.984375 
Q 15.484375 14.84375 19.1875 9.125 
Q 22.90625 3.421875 30.078125 3.421875 
z
M 30.078125 -1.421875 
Q 18.75 -1.421875 11.859375 6.078125 
Q 4.984375 13.578125 4.984375 25.984375 
Q 4.984375 38.375 11.84375 45.84375 
Q 18.703125 53.328125 30.078125 53.328125 
Q 41.453125 53.328125 48.3125 45.84375 
Q 55.171875 38.375 55.171875 25.984375 
Q 55.171875 13.578125 48.3125 6.078125 
Q 41.453125 -1.421875 30.078125 -1.421875 
z
" id="DejaVuSerif-111"/>
      <path d="M 4.109375 0 
L 4.109375 5.171875 
L 12.203125 5.171875 
L 12.203125 46.6875 
L 3.609375 46.6875 
L 3.609375 51.90625 
L 21.1875 51.90625 
L 21.1875 42.671875 
Q 23.6875 47.953125 27.65625 50.640625 
Q 31.640625 53.328125 36.921875 53.328125 
Q 45.515625 53.328125 49.5625 48.390625 
Q 53.609375 43.453125 53.609375 33.015625 
L 53.609375 5.171875 
L 61.625 5.171875 
L 61.625 0 
L 36.8125 0 
L 36.8125 5.171875 
L 44.578125 5.171875 
L 44.578125 30.171875 
Q 44.578125 39.703125 42.234375 43.234375 
Q 39.890625 46.78125 33.984375 46.78125 
Q 27.734375 46.78125 24.453125 42.203125 
Q 21.1875 37.640625 21.1875 28.90625 
L 21.1875 5.171875 
L 29 5.171875 
L 29 0 
z
" id="DejaVuSerif-110"/>
     </defs>
     <g style="fill:#262626;" transform="translate(80.588125 38.476563)scale(0.1 -0.1)">
      <use xlink:href="#DejaVuSerif-114"/>
      <use x="47.802734" xlink:href="#DejaVuSerif-101"/>
      <use x="106.982422" xlink:href="#DejaVuSerif-103"/>
      <use x="170.996094" xlink:href="#DejaVuSerif-114"/>
      <use x="218.798828" xlink:href="#DejaVuSerif-101"/>
      <use x="277.978516" xlink:href="#DejaVuSerif-115"/>
      <use x="329.296875" xlink:href="#DejaVuSerif-115"/>
      <use x="380.615234" xlink:href="#DejaVuSerif-105"/>
      <use x="412.597656" xlink:href="#DejaVuSerif-111"/>
      <use x="472.802734" xlink:href="#DejaVuSerif-110"/>
     </g>
    </g>
   </g>
  </g>
 </g>
 <defs>
  <clipPath id="p395554982a">
   <rect height="326.16" width="502.2" x="43.588125" y="7.2"/>
  </clipPath>
 </defs>
</svg>
