<?xml version="1.0" encoding="utf-8" standalone="no"?>
<!DOCTYPE svg PUBLIC "-//W3C//DTD SVG 1.1//EN"
  "http://www.w3.org/Graphics/SVG/1.1/DTD/svg11.dtd">
<!-- Created with matplotlib (https://matplotlib.org/) -->
<svg height="342.755pt" version="1.1" viewBox="0 0 493.594799 342.755" width="493.594799pt" xmlns="http://www.w3.org/2000/svg" xmlns:xlink="http://www.w3.org/1999/xlink">
 <defs>
  <style type="text/css">
*{stroke-linecap:butt;stroke-linejoin:round;}
  </style>
 </defs>
 <g id="figure_1">
  <g id="patch_1">
   <path d="M 0 342.755 
L 493.594799 342.755 
L 493.594799 0 
L 0 0 
z
" style="fill:#ffffff;"/>
  </g>
  <g id="axes_1">
   <g id="patch_2">
    <path d="M 29.2 151.441304 
L 223.286957 151.441304 
L 223.286957 21.45 
L 29.2 21.45 
z
" style="fill:#eaeaf2;"/>
   </g>
   <g id="matplotlib.axis_1">
    <g id="xtick_1">
     <g id="line2d_1">
      <path clip-path="url(#pd5d76925d5)" d="M 63.951909 151.441304 
L 63.951909 21.45 
" style="fill:none;stroke:#ffffff;stroke-linecap:round;"/>
     </g>
     <g id="line2d_2"/>
     <g id="text_1">
      <!-- -0.10 -->
      <defs>
       <path d="M 46.484375 33.203125 
L 1.953125 33.203125 
L 1.953125 39.453125 
L 46.484375 39.453125 
z
" id="KaiTi-45"/>
       <path d="M 3.125 29.296875 
Q 3.90625 50 6.4375 56.046875 
Q 8.984375 62.109375 13.671875 66.015625 
Q 18.359375 69.921875 25.1875 69.921875 
Q 32.03125 69.921875 37.109375 64.25 
Q 42.1875 58.59375 43.75 50 
Q 45.3125 41.40625 44.71875 30.265625 
Q 44.140625 19.140625 40.8125 12.109375 
Q 37.5 5.078125 30.859375 2.34375 
Q 24.21875 -0.390625 17.578125 2.921875 
Q 10.9375 6.25 8.203125 11.71875 
Q 5.46875 17.1875 4.296875 23.234375 
Q 3.125 29.296875 3.90625 50 
z
M 12.890625 52.734375 
Q 10.546875 31.25 12.5 22.84375 
Q 14.453125 14.453125 18.9375 10.9375 
Q 23.4375 7.421875 28.125 9.5625 
Q 32.8125 11.71875 34.953125 18.15625 
Q 37.109375 24.609375 37.109375 32.21875 
Q 37.109375 39.84375 36.515625 46.09375 
Q 35.9375 52.34375 33 57.421875 
Q 30.078125 62.5 25.1875 62.6875 
Q 20.3125 62.890625 16.59375 57.8125 
Q 12.890625 52.734375 10.546875 31.25 
z
" id="KaiTi-48"/>
       <path d="M 12.5 1.171875 
Q 10.546875 1.171875 8.78125 2.53125 
Q 7.03125 3.90625 7.03125 6.640625 
Q 7.03125 8.984375 8.390625 10.34375 
Q 9.765625 11.71875 12.5 12.109375 
Q 15.234375 12.109375 16.59375 10.546875 
Q 17.96875 8.984375 17.96875 6.640625 
Q 17.96875 3.90625 16.40625 2.53125 
Q 14.84375 1.171875 12.5 1.171875 
z
" id="KaiTi-46"/>
       <path d="M 21.875 56.25 
Q 16.796875 51.171875 8.984375 46.484375 
L 8.984375 53.90625 
Q 18.75 60.546875 25 69.53125 
L 29.6875 69.53125 
L 29.6875 2.34375 
L 21.875 2.34375 
z
" id="KaiTi-49"/>
      </defs>
      <g style="fill:#262626;" transform="translate(51.451909 165.316304)scale(0.1 -0.1)">
       <use xlink:href="#KaiTi-45"/>
       <use x="50" xlink:href="#KaiTi-48"/>
       <use x="100" xlink:href="#KaiTi-46"/>
       <use x="150" xlink:href="#KaiTi-49"/>
       <use x="200" xlink:href="#KaiTi-48"/>
      </g>
     </g>
    </g>
    <g id="xtick_2">
     <g id="line2d_3">
      <path clip-path="url(#pd5d76925d5)" d="M 104.626172 151.441304 
L 104.626172 21.45 
" style="fill:none;stroke:#ffffff;stroke-linecap:round;"/>
     </g>
     <g id="line2d_4"/>
     <g id="text_2">
      <!-- -0.05 -->
      <defs>
       <path d="M 8.59375 20.703125 
Q 11.328125 10.15625 17.96875 8.984375 
Q 24.609375 7.8125 28.703125 10.34375 
Q 32.8125 12.890625 34.5625 16.984375 
Q 36.328125 21.09375 36.125 26.171875 
Q 35.9375 31.25 33.390625 34.765625 
Q 30.859375 38.28125 26.953125 39.453125 
Q 23.046875 40.625 18.15625 39.453125 
Q 13.28125 38.28125 10.15625 33.984375 
L 3.515625 34.765625 
Q 4.296875 37.109375 10.9375 68.359375 
L 41.796875 68.359375 
L 41.796875 61.328125 
L 16.796875 61.328125 
Q 14.84375 50.78125 12.890625 44.53125 
Q 18.75 47.265625 23.828125 47.0625 
Q 28.90625 46.875 33.59375 44.71875 
Q 38.28125 42.578125 40.421875 38.859375 
Q 42.578125 35.15625 43.546875 31.4375 
Q 44.53125 27.734375 44.328125 23.4375 
Q 44.140625 19.140625 42.578125 14.640625 
Q 41.015625 10.15625 37.890625 7.21875 
Q 34.765625 4.296875 30.265625 2.53125 
Q 25.78125 0.78125 19.921875 1.171875 
Q 14.0625 1.5625 8.78125 5.46875 
Q 3.515625 9.375 1.5625 18.75 
z
" id="KaiTi-53"/>
      </defs>
      <g style="fill:#262626;" transform="translate(92.126172 165.316304)scale(0.1 -0.1)">
       <use xlink:href="#KaiTi-45"/>
       <use x="50" xlink:href="#KaiTi-48"/>
       <use x="100" xlink:href="#KaiTi-46"/>
       <use x="150" xlink:href="#KaiTi-48"/>
       <use x="200" xlink:href="#KaiTi-53"/>
      </g>
     </g>
    </g>
    <g id="xtick_3">
     <g id="line2d_5">
      <path clip-path="url(#pd5d76925d5)" d="M 145.300435 151.441304 
L 145.300435 21.45 
" style="fill:none;stroke:#ffffff;stroke-linecap:round;"/>
     </g>
     <g id="line2d_6"/>
     <g id="text_3">
      <!-- 0.00 -->
      <g style="fill:#262626;" transform="translate(135.300435 165.316304)scale(0.1 -0.1)">
       <use xlink:href="#KaiTi-48"/>
       <use x="50" xlink:href="#KaiTi-46"/>
       <use x="100" xlink:href="#KaiTi-48"/>
       <use x="150" xlink:href="#KaiTi-48"/>
      </g>
     </g>
    </g>
    <g id="xtick_4">
     <g id="line2d_7">
      <path clip-path="url(#pd5d76925d5)" d="M 185.974698 151.441304 
L 185.974698 21.45 
" style="fill:none;stroke:#ffffff;stroke-linecap:round;"/>
     </g>
     <g id="line2d_8"/>
     <g id="text_4">
      <!-- 0.05 -->
      <g style="fill:#262626;" transform="translate(175.974698 165.316304)scale(0.1 -0.1)">
       <use xlink:href="#KaiTi-48"/>
       <use x="50" xlink:href="#KaiTi-46"/>
       <use x="100" xlink:href="#KaiTi-48"/>
       <use x="150" xlink:href="#KaiTi-53"/>
      </g>
     </g>
    </g>
   </g>
   <g id="matplotlib.axis_2">
    <g id="ytick_1">
     <g id="line2d_9">
      <path clip-path="url(#pd5d76925d5)" d="M 29.2 151.441304 
L 223.286957 151.441304 
" style="fill:none;stroke:#ffffff;stroke-linecap:round;"/>
     </g>
     <g id="line2d_10"/>
     <g id="text_5">
      <!-- 0 -->
      <g style="fill:#262626;" transform="translate(17.2 154.878804)scale(0.1 -0.1)">
       <use xlink:href="#KaiTi-48"/>
      </g>
     </g>
    </g>
    <g id="ytick_2">
     <g id="line2d_11">
      <path clip-path="url(#pd5d76925d5)" d="M 29.2 112.014157 
L 223.286957 112.014157 
" style="fill:none;stroke:#ffffff;stroke-linecap:round;"/>
     </g>
     <g id="line2d_12"/>
     <g id="text_6">
      <!-- 100 -->
      <g style="fill:#262626;" transform="translate(7.2 115.451657)scale(0.1 -0.1)">
       <use xlink:href="#KaiTi-49"/>
       <use x="50" xlink:href="#KaiTi-48"/>
       <use x="100" xlink:href="#KaiTi-48"/>
      </g>
     </g>
    </g>
    <g id="ytick_3">
     <g id="line2d_13">
      <path clip-path="url(#pd5d76925d5)" d="M 29.2 72.58701 
L 223.286957 72.58701 
" style="fill:none;stroke:#ffffff;stroke-linecap:round;"/>
     </g>
     <g id="line2d_14"/>
     <g id="text_7">
      <!-- 200 -->
      <defs>
       <path d="M 4.6875 3.90625 
Q 5.078125 9.765625 10.15625 14.453125 
Q 15.234375 19.140625 23.046875 29.09375 
Q 30.859375 39.0625 33.203125 44.53125 
Q 35.546875 50 34.953125 53.90625 
Q 34.375 57.8125 31.25 60.34375 
Q 28.125 62.890625 24.015625 62.5 
Q 19.921875 62.109375 16.203125 59.375 
Q 12.5 56.640625 10.546875 51.171875 
L 3.125 52.34375 
Q 6.25 61.328125 11.125 65.421875 
Q 16.015625 69.53125 22.65625 69.921875 
Q 26.5625 70.3125 29.6875 69.71875 
Q 32.8125 69.140625 36.125 66.984375 
Q 39.453125 64.84375 41.59375 60.546875 
Q 43.75 56.25 43.15625 50.1875 
Q 42.578125 44.140625 37.109375 35.734375 
Q 31.640625 27.34375 16.015625 9.375 
L 44.140625 9.375 
L 44.140625 2.34375 
L 4.6875 2.34375 
z
" id="KaiTi-50"/>
      </defs>
      <g style="fill:#262626;" transform="translate(7.2 76.02451)scale(0.1 -0.1)">
       <use xlink:href="#KaiTi-50"/>
       <use x="50" xlink:href="#KaiTi-48"/>
       <use x="100" xlink:href="#KaiTi-48"/>
      </g>
     </g>
    </g>
    <g id="ytick_4">
     <g id="line2d_15">
      <path clip-path="url(#pd5d76925d5)" d="M 29.2 33.159863 
L 223.286957 33.159863 
" style="fill:none;stroke:#ffffff;stroke-linecap:round;"/>
     </g>
     <g id="line2d_16"/>
     <g id="text_8">
      <!-- 300 -->
      <defs>
       <path d="M 3.90625 19.140625 
L 10.9375 20.3125 
Q 12.5 15.234375 16.015625 11.90625 
Q 19.53125 8.59375 24.796875 8.78125 
Q 30.078125 8.984375 33.203125 13.078125 
Q 36.328125 17.1875 35.9375 22.453125 
Q 35.546875 27.734375 31.828125 30.65625 
Q 28.125 33.59375 19.921875 34.765625 
L 19.921875 39.84375 
Q 28.125 40.625 31.828125 44.140625 
Q 35.546875 47.65625 35.15625 53.3125 
Q 34.765625 58.984375 30.078125 61.515625 
Q 25.390625 64.0625 20.109375 62.109375 
Q 14.84375 60.15625 11.71875 51.171875 
L 4.6875 52.34375 
Q 7.03125 59.375 11.125 64.0625 
Q 15.234375 68.75 22.265625 69.53125 
Q 29.296875 70.3125 34.5625 67.765625 
Q 39.84375 65.234375 41.984375 59.953125 
Q 44.140625 54.6875 42.578125 48.4375 
Q 41.015625 42.1875 33.59375 37.5 
Q 39.0625 35.15625 41.984375 30.46875 
Q 44.921875 25.78125 43.9375 18.15625 
Q 42.96875 10.546875 37.109375 5.859375 
Q 31.25 1.171875 23.828125 1.359375 
Q 16.40625 1.5625 10.9375 6.046875 
Q 5.46875 10.546875 3.90625 19.140625 
z
" id="KaiTi-51"/>
      </defs>
      <g style="fill:#262626;" transform="translate(7.2 36.597363)scale(0.1 -0.1)">
       <use xlink:href="#KaiTi-51"/>
       <use x="50" xlink:href="#KaiTi-48"/>
       <use x="100" xlink:href="#KaiTi-48"/>
      </g>
     </g>
    </g>
   </g>
   <g id="patch_3">
    <path clip-path="url(#pd5d76925d5)" d="M 38.022134 151.441304 
L 41.550988 151.441304 
L 41.550988 151.047033 
L 38.022134 151.047033 
z
" style="fill:#4c72b0;"/>
   </g>
   <g id="patch_4">
    <path clip-path="url(#pd5d76925d5)" d="M 41.550988 151.441304 
L 45.079842 151.441304 
L 45.079842 151.441304 
L 41.550988 151.441304 
z
" style="fill:#4c72b0;"/>
   </g>
   <g id="patch_5">
    <path clip-path="url(#pd5d76925d5)" d="M 45.079842 151.441304 
L 48.608696 151.441304 
L 48.608696 151.441304 
L 45.079842 151.441304 
z
" style="fill:#4c72b0;"/>
   </g>
   <g id="patch_6">
    <path clip-path="url(#pd5d76925d5)" d="M 48.608696 151.441304 
L 52.137549 151.441304 
L 52.137549 151.441304 
L 48.608696 151.441304 
z
" style="fill:#4c72b0;"/>
   </g>
   <g id="patch_7">
    <path clip-path="url(#pd5d76925d5)" d="M 52.137549 151.441304 
L 55.666403 151.441304 
L 55.666403 151.441304 
L 52.137549 151.441304 
z
" style="fill:#4c72b0;"/>
   </g>
   <g id="patch_8">
    <path clip-path="url(#pd5d76925d5)" d="M 55.666403 151.441304 
L 59.195257 151.441304 
L 59.195257 151.441304 
L 55.666403 151.441304 
z
" style="fill:#4c72b0;"/>
   </g>
   <g id="patch_9">
    <path clip-path="url(#pd5d76925d5)" d="M 59.195257 151.441304 
L 62.724111 151.441304 
L 62.724111 151.441304 
L 59.195257 151.441304 
z
" style="fill:#4c72b0;"/>
   </g>
   <g id="patch_10">
    <path clip-path="url(#pd5d76925d5)" d="M 62.724111 151.441304 
L 66.252964 151.441304 
L 66.252964 151.441304 
L 62.724111 151.441304 
z
" style="fill:#4c72b0;"/>
   </g>
   <g id="patch_11">
    <path clip-path="url(#pd5d76925d5)" d="M 66.252964 151.441304 
L 69.781818 151.441304 
L 69.781818 151.441304 
L 66.252964 151.441304 
z
" style="fill:#4c72b0;"/>
   </g>
   <g id="patch_12">
    <path clip-path="url(#pd5d76925d5)" d="M 69.781818 151.441304 
L 73.310672 151.441304 
L 73.310672 151.441304 
L 69.781818 151.441304 
z
" style="fill:#4c72b0;"/>
   </g>
   <g id="patch_13">
    <path clip-path="url(#pd5d76925d5)" d="M 73.310672 151.441304 
L 76.839526 151.441304 
L 76.839526 151.441304 
L 73.310672 151.441304 
z
" style="fill:#4c72b0;"/>
   </g>
   <g id="patch_14">
    <path clip-path="url(#pd5d76925d5)" d="M 76.839526 151.441304 
L 80.368379 151.441304 
L 80.368379 151.047033 
L 76.839526 151.047033 
z
" style="fill:#4c72b0;"/>
   </g>
   <g id="patch_15">
    <path clip-path="url(#pd5d76925d5)" d="M 80.368379 151.441304 
L 83.897233 151.441304 
L 83.897233 151.441304 
L 80.368379 151.441304 
z
" style="fill:#4c72b0;"/>
   </g>
   <g id="patch_16">
    <path clip-path="url(#pd5d76925d5)" d="M 83.897233 151.441304 
L 87.426087 151.441304 
L 87.426087 151.441304 
L 83.897233 151.441304 
z
" style="fill:#4c72b0;"/>
   </g>
   <g id="patch_17">
    <path clip-path="url(#pd5d76925d5)" d="M 87.426087 151.441304 
L 90.954941 151.441304 
L 90.954941 151.047033 
L 87.426087 151.047033 
z
" style="fill:#4c72b0;"/>
   </g>
   <g id="patch_18">
    <path clip-path="url(#pd5d76925d5)" d="M 90.954941 151.441304 
L 94.483794 151.441304 
L 94.483794 150.25849 
L 90.954941 150.25849 
z
" style="fill:#4c72b0;"/>
   </g>
   <g id="patch_19">
    <path clip-path="url(#pd5d76925d5)" d="M 94.483794 151.441304 
L 98.012648 151.441304 
L 98.012648 151.441304 
L 94.483794 151.441304 
z
" style="fill:#4c72b0;"/>
   </g>
   <g id="patch_20">
    <path clip-path="url(#pd5d76925d5)" d="M 98.012648 151.441304 
L 101.541502 151.441304 
L 101.541502 149.864218 
L 98.012648 149.864218 
z
" style="fill:#4c72b0;"/>
   </g>
   <g id="patch_21">
    <path clip-path="url(#pd5d76925d5)" d="M 101.541502 151.441304 
L 105.070356 151.441304 
L 105.070356 150.652761 
L 101.541502 150.652761 
z
" style="fill:#4c72b0;"/>
   </g>
   <g id="patch_22">
    <path clip-path="url(#pd5d76925d5)" d="M 105.070356 151.441304 
L 108.599209 151.441304 
L 108.599209 150.25849 
L 105.070356 150.25849 
z
" style="fill:#4c72b0;"/>
   </g>
   <g id="patch_23">
    <path clip-path="url(#pd5d76925d5)" d="M 108.599209 151.441304 
L 112.128063 151.441304 
L 112.128063 147.104318 
L 108.599209 147.104318 
z
" style="fill:#4c72b0;"/>
   </g>
   <g id="patch_24">
    <path clip-path="url(#pd5d76925d5)" d="M 112.128063 151.441304 
L 115.656917 151.441304 
L 115.656917 147.49859 
L 112.128063 147.49859 
z
" style="fill:#4c72b0;"/>
   </g>
   <g id="patch_25">
    <path clip-path="url(#pd5d76925d5)" d="M 115.656917 151.441304 
L 119.185771 151.441304 
L 119.185771 145.921504 
L 115.656917 145.921504 
z
" style="fill:#4c72b0;"/>
   </g>
   <g id="patch_26">
    <path clip-path="url(#pd5d76925d5)" d="M 119.185771 151.441304 
L 122.714625 151.441304 
L 122.714625 142.767332 
L 119.185771 142.767332 
z
" style="fill:#4c72b0;"/>
   </g>
   <g id="patch_27">
    <path clip-path="url(#pd5d76925d5)" d="M 122.714625 151.441304 
L 126.243478 151.441304 
L 126.243478 130.939188 
L 122.714625 130.939188 
z
" style="fill:#4c72b0;"/>
   </g>
   <g id="patch_28">
    <path clip-path="url(#pd5d76925d5)" d="M 126.243478 151.441304 
L 129.772332 151.441304 
L 129.772332 128.179287 
L 126.243478 128.179287 
z
" style="fill:#4c72b0;"/>
   </g>
   <g id="patch_29">
    <path clip-path="url(#pd5d76925d5)" d="M 129.772332 151.441304 
L 133.301186 151.441304 
L 133.301186 117.533958 
L 129.772332 117.533958 
z
" style="fill:#4c72b0;"/>
   </g>
   <g id="patch_30">
    <path clip-path="url(#pd5d76925d5)" d="M 133.301186 151.441304 
L 136.83004 151.441304 
L 136.83004 104.917271 
L 133.301186 104.917271 
z
" style="fill:#4c72b0;"/>
   </g>
   <g id="patch_31">
    <path clip-path="url(#pd5d76925d5)" d="M 136.83004 151.441304 
L 140.358893 151.441304 
L 140.358893 71.798467 
L 136.83004 71.798467 
z
" style="fill:#4c72b0;"/>
   </g>
   <g id="patch_32">
    <path clip-path="url(#pd5d76925d5)" d="M 140.358893 151.441304 
L 143.887747 151.441304 
L 143.887747 31.977048 
L 140.358893 31.977048 
z
" style="fill:#4c72b0;"/>
   </g>
   <g id="patch_33">
    <path clip-path="url(#pd5d76925d5)" d="M 143.887747 151.441304 
L 147.416601 151.441304 
L 147.416601 27.640062 
L 143.887747 27.640062 
z
" style="fill:#4c72b0;"/>
   </g>
   <g id="patch_34">
    <path clip-path="url(#pd5d76925d5)" d="M 147.416601 151.441304 
L 150.945455 151.441304 
L 150.945455 48.930722 
L 147.416601 48.930722 
z
" style="fill:#4c72b0;"/>
   </g>
   <g id="patch_35">
    <path clip-path="url(#pd5d76925d5)" d="M 150.945455 151.441304 
L 154.474308 151.441304 
L 154.474308 67.855752 
L 150.945455 67.855752 
z
" style="fill:#4c72b0;"/>
   </g>
   <g id="patch_36">
    <path clip-path="url(#pd5d76925d5)" d="M 154.474308 151.441304 
L 158.003162 151.441304 
L 158.003162 81.655254 
L 154.474308 81.655254 
z
" style="fill:#4c72b0;"/>
   </g>
   <g id="patch_37">
    <path clip-path="url(#pd5d76925d5)" d="M 158.003162 151.441304 
L 161.532016 151.441304 
L 161.532016 105.311542 
L 158.003162 105.311542 
z
" style="fill:#4c72b0;"/>
   </g>
   <g id="patch_38">
    <path clip-path="url(#pd5d76925d5)" d="M 161.532016 151.441304 
L 165.06087 151.441304 
L 165.06087 132.122002 
L 161.532016 132.122002 
z
" style="fill:#4c72b0;"/>
   </g>
   <g id="patch_39">
    <path clip-path="url(#pd5d76925d5)" d="M 165.06087 151.441304 
L 168.589723 151.441304 
L 168.589723 136.458988 
L 165.06087 136.458988 
z
" style="fill:#4c72b0;"/>
   </g>
   <g id="patch_40">
    <path clip-path="url(#pd5d76925d5)" d="M 168.589723 151.441304 
L 172.118577 151.441304 
L 172.118577 141.190246 
L 168.589723 141.190246 
z
" style="fill:#4c72b0;"/>
   </g>
   <g id="patch_41">
    <path clip-path="url(#pd5d76925d5)" d="M 172.118577 151.441304 
L 175.647431 151.441304 
L 175.647431 145.921504 
L 172.118577 145.921504 
z
" style="fill:#4c72b0;"/>
   </g>
   <g id="patch_42">
    <path clip-path="url(#pd5d76925d5)" d="M 175.647431 151.441304 
L 179.176285 151.441304 
L 179.176285 146.315775 
L 175.647431 146.315775 
z
" style="fill:#4c72b0;"/>
   </g>
   <g id="patch_43">
    <path clip-path="url(#pd5d76925d5)" d="M 179.176285 151.441304 
L 182.705138 151.441304 
L 182.705138 149.864218 
L 179.176285 149.864218 
z
" style="fill:#4c72b0;"/>
   </g>
   <g id="patch_44">
    <path clip-path="url(#pd5d76925d5)" d="M 182.705138 151.441304 
L 186.233992 151.441304 
L 186.233992 148.287133 
L 182.705138 148.287133 
z
" style="fill:#4c72b0;"/>
   </g>
   <g id="patch_45">
    <path clip-path="url(#pd5d76925d5)" d="M 186.233992 151.441304 
L 189.762846 151.441304 
L 189.762846 151.047033 
L 186.233992 151.047033 
z
" style="fill:#4c72b0;"/>
   </g>
   <g id="patch_46">
    <path clip-path="url(#pd5d76925d5)" d="M 189.762846 151.441304 
L 193.2917 151.441304 
L 193.2917 149.469947 
L 189.762846 149.469947 
z
" style="fill:#4c72b0;"/>
   </g>
   <g id="patch_47">
    <path clip-path="url(#pd5d76925d5)" d="M 193.2917 151.441304 
L 196.820553 151.441304 
L 196.820553 150.25849 
L 193.2917 150.25849 
z
" style="fill:#4c72b0;"/>
   </g>
   <g id="patch_48">
    <path clip-path="url(#pd5d76925d5)" d="M 196.820553 151.441304 
L 200.349407 151.441304 
L 200.349407 151.441304 
L 196.820553 151.441304 
z
" style="fill:#4c72b0;"/>
   </g>
   <g id="patch_49">
    <path clip-path="url(#pd5d76925d5)" d="M 200.349407 151.441304 
L 203.878261 151.441304 
L 203.878261 151.047033 
L 200.349407 151.047033 
z
" style="fill:#4c72b0;"/>
   </g>
   <g id="patch_50">
    <path clip-path="url(#pd5d76925d5)" d="M 203.878261 151.441304 
L 207.407115 151.441304 
L 207.407115 151.047033 
L 203.878261 151.047033 
z
" style="fill:#4c72b0;"/>
   </g>
   <g id="patch_51">
    <path clip-path="url(#pd5d76925d5)" d="M 207.407115 151.441304 
L 210.935968 151.441304 
L 210.935968 151.047033 
L 207.407115 151.047033 
z
" style="fill:#4c72b0;"/>
   </g>
   <g id="patch_52">
    <path clip-path="url(#pd5d76925d5)" d="M 210.935968 151.441304 
L 214.464822 151.441304 
L 214.464822 151.047033 
L 210.935968 151.047033 
z
" style="fill:#4c72b0;"/>
   </g>
   <g id="patch_53">
    <path d="M 29.2 151.441304 
L 29.2 21.45 
" style="fill:none;"/>
   </g>
   <g id="patch_54">
    <path d="M 223.286957 151.441304 
L 223.286957 21.45 
" style="fill:none;"/>
   </g>
   <g id="patch_55">
    <path d="M 29.2 151.441304 
L 223.286957 151.441304 
" style="fill:none;"/>
   </g>
   <g id="patch_56">
    <path d="M 29.2 21.45 
L 223.286957 21.45 
" style="fill:none;"/>
   </g>
   <g id="text_9">
    <!-- AAPL.O -->
    <defs>
     <path d="M 48.046875 1.953125 
L 38.671875 1.953125 
L 33.203125 22.65625 
L 16.015625 22.65625 
L 10.546875 1.953125 
L 1.171875 1.953125 
L 20.703125 69.53125 
L 28.515625 69.53125 
z
M 31.25 30.078125 
L 25 53.90625 
L 24.21875 53.90625 
L 17.96875 30.078125 
z
" id="KaiTi-65"/>
     <path d="M 46.09375 48.4375 
Q 46.09375 39.0625 40.625 33.59375 
Q 35.15625 28.125 25.390625 28.125 
L 14.0625 28.125 
L 14.0625 1.953125 
L 5.078125 1.953125 
L 5.078125 68.75 
L 25.390625 68.75 
Q 35.15625 68.75 40.625 63.28125 
Q 46.09375 57.8125 46.09375 48.4375 
z
M 37.109375 48.4375 
Q 37.109375 55.859375 33.59375 58.59375 
Q 30.078125 61.328125 23.046875 61.328125 
L 14.0625 61.328125 
L 14.0625 35.546875 
L 23.046875 35.546875 
Q 30.078125 35.546875 33.59375 38.28125 
Q 37.109375 41.015625 37.109375 48.4375 
z
" id="KaiTi-80"/>
     <path d="M 45.3125 1.953125 
L 4.6875 1.953125 
L 4.6875 68.75 
L 13.671875 68.75 
L 13.671875 9.375 
L 45.3125 9.375 
z
" id="KaiTi-76"/>
     <path d="M 46.09375 35.546875 
Q 46.09375 17.1875 40.421875 9.171875 
Q 34.765625 1.171875 24.609375 1.171875 
Q 14.453125 1.171875 8.59375 9.171875 
Q 2.734375 17.1875 2.734375 35.546875 
Q 2.734375 53.90625 8.59375 61.71875 
Q 14.453125 69.53125 24.609375 69.53125 
Q 34.765625 69.53125 40.421875 61.71875 
Q 46.09375 53.90625 46.09375 35.546875 
z
M 36.71875 35.546875 
Q 36.71875 51.953125 33.203125 57.03125 
Q 29.6875 62.109375 24.609375 62.109375 
Q 19.53125 62.109375 15.8125 57.03125 
Q 12.109375 51.953125 12.109375 35.546875 
Q 12.109375 19.140625 15.8125 13.859375 
Q 19.53125 8.59375 24.609375 8.59375 
Q 29.6875 8.59375 33.203125 13.859375 
Q 36.71875 19.140625 36.71875 35.546875 
z
" id="KaiTi-79"/>
    </defs>
    <g style="fill:#262626;" transform="translate(108.243478 15.45)scale(0.12 -0.12)">
     <use xlink:href="#KaiTi-65"/>
     <use x="50" xlink:href="#KaiTi-65"/>
     <use x="100" xlink:href="#KaiTi-80"/>
     <use x="150" xlink:href="#KaiTi-76"/>
     <use x="200" xlink:href="#KaiTi-46"/>
     <use x="250" xlink:href="#KaiTi-79"/>
    </g>
   </g>
  </g>
  <g id="axes_2">
   <g id="patch_57">
    <path d="M 281.513043 151.441304 
L 475.6 151.441304 
L 475.6 21.45 
L 281.513043 21.45 
z
" style="fill:#eaeaf2;"/>
   </g>
   <g id="matplotlib.axis_3">
    <g id="xtick_5">
     <g id="line2d_17">
      <path clip-path="url(#pecf7eb5e5e)" d="M 343.20184 151.441304 
L 343.20184 21.45 
" style="fill:none;stroke:#ffffff;stroke-linecap:round;"/>
     </g>
     <g id="line2d_18"/>
     <g id="text_10">
      <!-- -0.05 -->
      <g style="fill:#262626;" transform="translate(330.70184 165.316304)scale(0.1 -0.1)">
       <use xlink:href="#KaiTi-45"/>
       <use x="50" xlink:href="#KaiTi-48"/>
       <use x="100" xlink:href="#KaiTi-46"/>
       <use x="150" xlink:href="#KaiTi-48"/>
       <use x="200" xlink:href="#KaiTi-53"/>
      </g>
     </g>
    </g>
    <g id="xtick_6">
     <g id="line2d_19">
      <path clip-path="url(#pecf7eb5e5e)" d="M 406.280905 151.441304 
L 406.280905 21.45 
" style="fill:none;stroke:#ffffff;stroke-linecap:round;"/>
     </g>
     <g id="line2d_20"/>
     <g id="text_11">
      <!-- 0.00 -->
      <g style="fill:#262626;" transform="translate(396.280905 165.316304)scale(0.1 -0.1)">
       <use xlink:href="#KaiTi-48"/>
       <use x="50" xlink:href="#KaiTi-46"/>
       <use x="100" xlink:href="#KaiTi-48"/>
       <use x="150" xlink:href="#KaiTi-48"/>
      </g>
     </g>
    </g>
    <g id="xtick_7">
     <g id="line2d_21">
      <path clip-path="url(#pecf7eb5e5e)" d="M 469.35997 151.441304 
L 469.35997 21.45 
" style="fill:none;stroke:#ffffff;stroke-linecap:round;"/>
     </g>
     <g id="line2d_22"/>
     <g id="text_12">
      <!-- 0.05 -->
      <g style="fill:#262626;" transform="translate(459.35997 165.316304)scale(0.1 -0.1)">
       <use xlink:href="#KaiTi-48"/>
       <use x="50" xlink:href="#KaiTi-46"/>
       <use x="100" xlink:href="#KaiTi-48"/>
       <use x="150" xlink:href="#KaiTi-53"/>
      </g>
     </g>
    </g>
   </g>
   <g id="matplotlib.axis_4">
    <g id="ytick_5">
     <g id="line2d_23">
      <path clip-path="url(#pecf7eb5e5e)" d="M 281.513043 151.441304 
L 475.6 151.441304 
" style="fill:none;stroke:#ffffff;stroke-linecap:round;"/>
     </g>
     <g id="line2d_24"/>
     <g id="text_13">
      <!-- 0 -->
      <g style="fill:#262626;" transform="translate(269.513043 154.878804)scale(0.1 -0.1)">
       <use xlink:href="#KaiTi-48"/>
      </g>
     </g>
    </g>
    <g id="ytick_6">
     <g id="line2d_25">
      <path clip-path="url(#pecf7eb5e5e)" d="M 281.513043 114.375064 
L 475.6 114.375064 
" style="fill:none;stroke:#ffffff;stroke-linecap:round;"/>
     </g>
     <g id="line2d_26"/>
     <g id="text_14">
      <!-- 100 -->
      <g style="fill:#262626;" transform="translate(259.513043 117.812564)scale(0.1 -0.1)">
       <use xlink:href="#KaiTi-49"/>
       <use x="50" xlink:href="#KaiTi-48"/>
       <use x="100" xlink:href="#KaiTi-48"/>
      </g>
     </g>
    </g>
    <g id="ytick_7">
     <g id="line2d_27">
      <path clip-path="url(#pecf7eb5e5e)" d="M 281.513043 77.308824 
L 475.6 77.308824 
" style="fill:none;stroke:#ffffff;stroke-linecap:round;"/>
     </g>
     <g id="line2d_28"/>
     <g id="text_15">
      <!-- 200 -->
      <g style="fill:#262626;" transform="translate(259.513043 80.746324)scale(0.1 -0.1)">
       <use xlink:href="#KaiTi-50"/>
       <use x="50" xlink:href="#KaiTi-48"/>
       <use x="100" xlink:href="#KaiTi-48"/>
      </g>
     </g>
    </g>
    <g id="ytick_8">
     <g id="line2d_29">
      <path clip-path="url(#pecf7eb5e5e)" d="M 281.513043 40.242584 
L 475.6 40.242584 
" style="fill:none;stroke:#ffffff;stroke-linecap:round;"/>
     </g>
     <g id="line2d_30"/>
     <g id="text_16">
      <!-- 300 -->
      <g style="fill:#262626;" transform="translate(259.513043 43.680084)scale(0.1 -0.1)">
       <use xlink:href="#KaiTi-51"/>
       <use x="50" xlink:href="#KaiTi-48"/>
       <use x="100" xlink:href="#KaiTi-48"/>
      </g>
     </g>
    </g>
   </g>
   <g id="patch_58">
    <path clip-path="url(#pecf7eb5e5e)" d="M 290.335178 151.441304 
L 293.864032 151.441304 
L 293.864032 151.070642 
L 290.335178 151.070642 
z
" style="fill:#4c72b0;"/>
   </g>
   <g id="patch_59">
    <path clip-path="url(#pecf7eb5e5e)" d="M 293.864032 151.441304 
L 297.392885 151.441304 
L 297.392885 151.441304 
L 293.864032 151.441304 
z
" style="fill:#4c72b0;"/>
   </g>
   <g id="patch_60">
    <path clip-path="url(#pecf7eb5e5e)" d="M 297.392885 151.441304 
L 300.921739 151.441304 
L 300.921739 151.441304 
L 297.392885 151.441304 
z
" style="fill:#4c72b0;"/>
   </g>
   <g id="patch_61">
    <path clip-path="url(#pecf7eb5e5e)" d="M 300.921739 151.441304 
L 304.450593 151.441304 
L 304.450593 151.441304 
L 300.921739 151.441304 
z
" style="fill:#4c72b0;"/>
   </g>
   <g id="patch_62">
    <path clip-path="url(#pecf7eb5e5e)" d="M 304.450593 151.441304 
L 307.979447 151.441304 
L 307.979447 151.441304 
L 304.450593 151.441304 
z
" style="fill:#4c72b0;"/>
   </g>
   <g id="patch_63">
    <path clip-path="url(#pecf7eb5e5e)" d="M 307.979447 151.441304 
L 311.5083 151.441304 
L 311.5083 151.441304 
L 307.979447 151.441304 
z
" style="fill:#4c72b0;"/>
   </g>
   <g id="patch_64">
    <path clip-path="url(#pecf7eb5e5e)" d="M 311.5083 151.441304 
L 315.037154 151.441304 
L 315.037154 151.441304 
L 311.5083 151.441304 
z
" style="fill:#4c72b0;"/>
   </g>
   <g id="patch_65">
    <path clip-path="url(#pecf7eb5e5e)" d="M 315.037154 151.441304 
L 318.566008 151.441304 
L 318.566008 151.441304 
L 315.037154 151.441304 
z
" style="fill:#4c72b0;"/>
   </g>
   <g id="patch_66">
    <path clip-path="url(#pecf7eb5e5e)" d="M 318.566008 151.441304 
L 322.094862 151.441304 
L 322.094862 151.441304 
L 318.566008 151.441304 
z
" style="fill:#4c72b0;"/>
   </g>
   <g id="patch_67">
    <path clip-path="url(#pecf7eb5e5e)" d="M 322.094862 151.441304 
L 325.623715 151.441304 
L 325.623715 151.441304 
L 322.094862 151.441304 
z
" style="fill:#4c72b0;"/>
   </g>
   <g id="patch_68">
    <path clip-path="url(#pecf7eb5e5e)" d="M 325.623715 151.441304 
L 329.152569 151.441304 
L 329.152569 151.441304 
L 325.623715 151.441304 
z
" style="fill:#4c72b0;"/>
   </g>
   <g id="patch_69">
    <path clip-path="url(#pecf7eb5e5e)" d="M 329.152569 151.441304 
L 332.681423 151.441304 
L 332.681423 151.441304 
L 329.152569 151.441304 
z
" style="fill:#4c72b0;"/>
   </g>
   <g id="patch_70">
    <path clip-path="url(#pecf7eb5e5e)" d="M 332.681423 151.441304 
L 336.210277 151.441304 
L 336.210277 151.070642 
L 332.681423 151.070642 
z
" style="fill:#4c72b0;"/>
   </g>
   <g id="patch_71">
    <path clip-path="url(#pecf7eb5e5e)" d="M 336.210277 151.441304 
L 339.73913 151.441304 
L 339.73913 150.69998 
L 336.210277 150.69998 
z
" style="fill:#4c72b0;"/>
   </g>
   <g id="patch_72">
    <path clip-path="url(#pecf7eb5e5e)" d="M 339.73913 151.441304 
L 343.267984 151.441304 
L 343.267984 151.441304 
L 339.73913 151.441304 
z
" style="fill:#4c72b0;"/>
   </g>
   <g id="patch_73">
    <path clip-path="url(#pecf7eb5e5e)" d="M 343.267984 151.441304 
L 346.796838 151.441304 
L 346.796838 151.070642 
L 343.267984 151.070642 
z
" style="fill:#4c72b0;"/>
   </g>
   <g id="patch_74">
    <path clip-path="url(#pecf7eb5e5e)" d="M 346.796838 151.441304 
L 350.325692 151.441304 
L 350.325692 151.441304 
L 346.796838 151.441304 
z
" style="fill:#4c72b0;"/>
   </g>
   <g id="patch_75">
    <path clip-path="url(#pecf7eb5e5e)" d="M 350.325692 151.441304 
L 353.854545 151.441304 
L 353.854545 151.070642 
L 350.325692 151.070642 
z
" style="fill:#4c72b0;"/>
   </g>
   <g id="patch_76">
    <path clip-path="url(#pecf7eb5e5e)" d="M 353.854545 151.441304 
L 357.383399 151.441304 
L 357.383399 150.69998 
L 353.854545 150.69998 
z
" style="fill:#4c72b0;"/>
   </g>
   <g id="patch_77">
    <path clip-path="url(#pecf7eb5e5e)" d="M 357.383399 151.441304 
L 360.912253 151.441304 
L 360.912253 151.070642 
L 357.383399 151.070642 
z
" style="fill:#4c72b0;"/>
   </g>
   <g id="patch_78">
    <path clip-path="url(#pecf7eb5e5e)" d="M 360.912253 151.441304 
L 364.441107 151.441304 
L 364.441107 150.329317 
L 360.912253 150.329317 
z
" style="fill:#4c72b0;"/>
   </g>
   <g id="patch_79">
    <path clip-path="url(#pecf7eb5e5e)" d="M 364.441107 151.441304 
L 367.96996 151.441304 
L 367.96996 149.958655 
L 364.441107 149.958655 
z
" style="fill:#4c72b0;"/>
   </g>
   <g id="patch_80">
    <path clip-path="url(#pecf7eb5e5e)" d="M 367.96996 151.441304 
L 371.498814 151.441304 
L 371.498814 149.21733 
L 367.96996 149.21733 
z
" style="fill:#4c72b0;"/>
   </g>
   <g id="patch_81">
    <path clip-path="url(#pecf7eb5e5e)" d="M 371.498814 151.441304 
L 375.027668 151.441304 
L 375.027668 146.622693 
L 371.498814 146.622693 
z
" style="fill:#4c72b0;"/>
   </g>
   <g id="patch_82">
    <path clip-path="url(#pecf7eb5e5e)" d="M 375.027668 151.441304 
L 378.556522 151.441304 
L 378.556522 144.398719 
L 375.027668 144.398719 
z
" style="fill:#4c72b0;"/>
   </g>
   <g id="patch_83">
    <path clip-path="url(#pecf7eb5e5e)" d="M 378.556522 151.441304 
L 382.085375 151.441304 
L 382.085375 144.028056 
L 378.556522 144.028056 
z
" style="fill:#4c72b0;"/>
   </g>
   <g id="patch_84">
    <path clip-path="url(#pecf7eb5e5e)" d="M 382.085375 151.441304 
L 385.614229 151.441304 
L 385.614229 138.46812 
L 382.085375 138.46812 
z
" style="fill:#4c72b0;"/>
   </g>
   <g id="patch_85">
    <path clip-path="url(#pecf7eb5e5e)" d="M 385.614229 151.441304 
L 389.143083 151.441304 
L 389.143083 135.873483 
L 385.614229 135.873483 
z
" style="fill:#4c72b0;"/>
   </g>
   <g id="patch_86">
    <path clip-path="url(#pecf7eb5e5e)" d="M 389.143083 151.441304 
L 392.671937 151.441304 
L 392.671937 123.270962 
L 389.143083 123.270962 
z
" style="fill:#4c72b0;"/>
   </g>
   <g id="patch_87">
    <path clip-path="url(#pecf7eb5e5e)" d="M 392.671937 151.441304 
L 396.200791 151.441304 
L 396.200791 112.521752 
L 392.671937 112.521752 
z
" style="fill:#4c72b0;"/>
   </g>
   <g id="patch_88">
    <path clip-path="url(#pecf7eb5e5e)" d="M 396.200791 151.441304 
L 399.729644 151.441304 
L 399.729644 81.015448 
L 396.200791 81.015448 
z
" style="fill:#4c72b0;"/>
   </g>
   <g id="patch_89">
    <path clip-path="url(#pecf7eb5e5e)" d="M 399.729644 151.441304 
L 403.258498 151.441304 
L 403.258498 53.58643 
L 399.729644 53.58643 
z
" style="fill:#4c72b0;"/>
   </g>
   <g id="patch_90">
    <path clip-path="url(#pecf7eb5e5e)" d="M 403.258498 151.441304 
L 406.787352 151.441304 
L 406.787352 44.31987 
L 403.258498 44.31987 
z
" style="fill:#4c72b0;"/>
   </g>
   <g id="patch_91">
    <path clip-path="url(#pecf7eb5e5e)" d="M 406.787352 151.441304 
L 410.316206 151.441304 
L 410.316206 27.640062 
L 406.787352 27.640062 
z
" style="fill:#4c72b0;"/>
   </g>
   <g id="patch_92">
    <path clip-path="url(#pecf7eb5e5e)" d="M 410.316206 151.441304 
L 413.845059 151.441304 
L 413.845059 62.85299 
L 410.316206 62.85299 
z
" style="fill:#4c72b0;"/>
   </g>
   <g id="patch_93">
    <path clip-path="url(#pecf7eb5e5e)" d="M 413.845059 151.441304 
L 417.373913 151.441304 
L 417.373913 92.505982 
L 413.845059 92.505982 
z
" style="fill:#4c72b0;"/>
   </g>
   <g id="patch_94">
    <path clip-path="url(#pecf7eb5e5e)" d="M 417.373913 151.441304 
L 420.902767 151.441304 
L 420.902767 105.479167 
L 417.373913 105.479167 
z
" style="fill:#4c72b0;"/>
   </g>
   <g id="patch_95">
    <path clip-path="url(#pecf7eb5e5e)" d="M 420.902767 151.441304 
L 424.431621 151.441304 
L 424.431621 123.270962 
L 420.902767 123.270962 
z
" style="fill:#4c72b0;"/>
   </g>
   <g id="patch_96">
    <path clip-path="url(#pecf7eb5e5e)" d="M 424.431621 151.441304 
L 427.960474 151.441304 
L 427.960474 135.502821 
L 424.431621 135.502821 
z
" style="fill:#4c72b0;"/>
   </g>
   <g id="patch_97">
    <path clip-path="url(#pecf7eb5e5e)" d="M 427.960474 151.441304 
L 431.489328 151.441304 
L 431.489328 138.838783 
L 427.960474 138.838783 
z
" style="fill:#4c72b0;"/>
   </g>
   <g id="patch_98">
    <path clip-path="url(#pecf7eb5e5e)" d="M 431.489328 151.441304 
L 435.018182 151.441304 
L 435.018182 145.140044 
L 431.489328 145.140044 
z
" style="fill:#4c72b0;"/>
   </g>
   <g id="patch_99">
    <path clip-path="url(#pecf7eb5e5e)" d="M 435.018182 151.441304 
L 438.547036 151.441304 
L 438.547036 147.364018 
L 435.018182 147.364018 
z
" style="fill:#4c72b0;"/>
   </g>
   <g id="patch_100">
    <path clip-path="url(#pecf7eb5e5e)" d="M 438.547036 151.441304 
L 442.075889 151.441304 
L 442.075889 148.105343 
L 438.547036 148.105343 
z
" style="fill:#4c72b0;"/>
   </g>
   <g id="patch_101">
    <path clip-path="url(#pecf7eb5e5e)" d="M 442.075889 151.441304 
L 445.604743 151.441304 
L 445.604743 148.846668 
L 442.075889 148.846668 
z
" style="fill:#4c72b0;"/>
   </g>
   <g id="patch_102">
    <path clip-path="url(#pecf7eb5e5e)" d="M 445.604743 151.441304 
L 449.133597 151.441304 
L 449.133597 150.69998 
L 445.604743 150.69998 
z
" style="fill:#4c72b0;"/>
   </g>
   <g id="patch_103">
    <path clip-path="url(#pecf7eb5e5e)" d="M 449.133597 151.441304 
L 452.662451 151.441304 
L 452.662451 150.69998 
L 449.133597 150.69998 
z
" style="fill:#4c72b0;"/>
   </g>
   <g id="patch_104">
    <path clip-path="url(#pecf7eb5e5e)" d="M 452.662451 151.441304 
L 456.191304 151.441304 
L 456.191304 150.329317 
L 452.662451 150.329317 
z
" style="fill:#4c72b0;"/>
   </g>
   <g id="patch_105">
    <path clip-path="url(#pecf7eb5e5e)" d="M 456.191304 151.441304 
L 459.720158 151.441304 
L 459.720158 151.441304 
L 456.191304 151.441304 
z
" style="fill:#4c72b0;"/>
   </g>
   <g id="patch_106">
    <path clip-path="url(#pecf7eb5e5e)" d="M 459.720158 151.441304 
L 463.249012 151.441304 
L 463.249012 151.070642 
L 459.720158 151.070642 
z
" style="fill:#4c72b0;"/>
   </g>
   <g id="patch_107">
    <path clip-path="url(#pecf7eb5e5e)" d="M 463.249012 151.441304 
L 466.777866 151.441304 
L 466.777866 151.070642 
L 463.249012 151.070642 
z
" style="fill:#4c72b0;"/>
   </g>
   <g id="patch_108">
    <path d="M 281.513043 151.441304 
L 281.513043 21.45 
" style="fill:none;"/>
   </g>
   <g id="patch_109">
    <path d="M 475.6 151.441304 
L 475.6 21.45 
" style="fill:none;"/>
   </g>
   <g id="patch_110">
    <path d="M 281.513043 151.441304 
L 475.6 151.441304 
" style="fill:none;"/>
   </g>
   <g id="patch_111">
    <path d="M 281.513043 21.45 
L 475.6 21.45 
" style="fill:none;"/>
   </g>
   <g id="text_17">
    <!-- GLD -->
    <defs>
     <path d="M 44.53125 1.171875 
L 37.890625 1.171875 
L 36.71875 6.640625 
Q 35.15625 4.296875 31.828125 2.734375 
Q 28.515625 1.171875 24.609375 1.171875 
Q 16.40625 1.171875 9.953125 8.78125 
Q 3.515625 16.40625 3.515625 33.203125 
Q 3.515625 51.5625 9.375 60.546875 
Q 15.234375 69.53125 25.390625 69.53125 
Q 34.375 69.53125 39.453125 62.890625 
Q 44.53125 56.25 44.53125 45.703125 
L 35.9375 45.703125 
Q 35.9375 53.90625 33.203125 58 
Q 30.46875 62.109375 25.390625 62.109375 
Q 19.140625 62.109375 16.015625 55.65625 
Q 12.890625 49.21875 12.890625 33.984375 
Q 12.890625 19.53125 16.796875 14.0625 
Q 20.703125 8.59375 25.78125 8.59375 
Q 30.859375 8.59375 33.78125 12.296875 
Q 36.71875 16.015625 36.71875 23.828125 
L 36.71875 28.125 
L 24.609375 28.125 
L 24.609375 35.546875 
L 44.53125 35.546875 
z
" id="KaiTi-71"/>
     <path d="M 45.703125 35.15625 
Q 45.703125 17.1875 38.078125 9.5625 
Q 30.46875 1.953125 17.578125 1.953125 
L 4.296875 1.953125 
L 4.296875 68.75 
L 17.578125 68.75 
Q 32.03125 68.75 38.859375 60.9375 
Q 45.703125 53.125 45.703125 35.15625 
z
M 36.328125 35.15625 
Q 36.328125 49.609375 31.640625 55.46875 
Q 26.953125 61.328125 17.578125 61.328125 
L 13.28125 61.328125 
L 13.28125 9.375 
L 17.578125 9.375 
Q 26.953125 9.375 31.640625 15.03125 
Q 36.328125 20.703125 36.328125 35.15625 
z
" id="KaiTi-68"/>
    </defs>
    <g style="fill:#262626;" transform="translate(369.556522 15.45)scale(0.12 -0.12)">
     <use xlink:href="#KaiTi-71"/>
     <use x="50" xlink:href="#KaiTi-76"/>
     <use x="100" xlink:href="#KaiTi-68"/>
    </g>
   </g>
  </g>
  <g id="axes_3">
   <g id="patch_112">
    <path d="M 29.2 320.43 
L 223.286957 320.43 
L 223.286957 190.438696 
L 29.2 190.438696 
z
" style="fill:#eaeaf2;"/>
   </g>
   <g id="matplotlib.axis_5">
    <g id="xtick_8">
     <g id="line2d_31">
      <path clip-path="url(#p1ea902d158)" d="M 54.856897 320.43 
L 54.856897 190.438696 
" style="fill:none;stroke:#ffffff;stroke-linecap:round;"/>
     </g>
     <g id="line2d_32"/>
     <g id="text_18">
      <!-- -0.10 -->
      <g style="fill:#262626;" transform="translate(42.356897 334.305)scale(0.1 -0.1)">
       <use xlink:href="#KaiTi-45"/>
       <use x="50" xlink:href="#KaiTi-48"/>
       <use x="100" xlink:href="#KaiTi-46"/>
       <use x="150" xlink:href="#KaiTi-49"/>
       <use x="200" xlink:href="#KaiTi-48"/>
      </g>
     </g>
    </g>
    <g id="xtick_9">
     <g id="line2d_33">
      <path clip-path="url(#p1ea902d158)" d="M 94.876334 320.43 
L 94.876334 190.438696 
" style="fill:none;stroke:#ffffff;stroke-linecap:round;"/>
     </g>
     <g id="line2d_34"/>
     <g id="text_19">
      <!-- -0.05 -->
      <g style="fill:#262626;" transform="translate(82.376334 334.305)scale(0.1 -0.1)">
       <use xlink:href="#KaiTi-45"/>
       <use x="50" xlink:href="#KaiTi-48"/>
       <use x="100" xlink:href="#KaiTi-46"/>
       <use x="150" xlink:href="#KaiTi-48"/>
       <use x="200" xlink:href="#KaiTi-53"/>
      </g>
     </g>
    </g>
    <g id="xtick_10">
     <g id="line2d_35">
      <path clip-path="url(#p1ea902d158)" d="M 134.895771 320.43 
L 134.895771 190.438696 
" style="fill:none;stroke:#ffffff;stroke-linecap:round;"/>
     </g>
     <g id="line2d_36"/>
     <g id="text_20">
      <!-- 0.00 -->
      <g style="fill:#262626;" transform="translate(124.895771 334.305)scale(0.1 -0.1)">
       <use xlink:href="#KaiTi-48"/>
       <use x="50" xlink:href="#KaiTi-46"/>
       <use x="100" xlink:href="#KaiTi-48"/>
       <use x="150" xlink:href="#KaiTi-48"/>
      </g>
     </g>
    </g>
    <g id="xtick_11">
     <g id="line2d_37">
      <path clip-path="url(#p1ea902d158)" d="M 174.915208 320.43 
L 174.915208 190.438696 
" style="fill:none;stroke:#ffffff;stroke-linecap:round;"/>
     </g>
     <g id="line2d_38"/>
     <g id="text_21">
      <!-- 0.05 -->
      <g style="fill:#262626;" transform="translate(164.915208 334.305)scale(0.1 -0.1)">
       <use xlink:href="#KaiTi-48"/>
       <use x="50" xlink:href="#KaiTi-46"/>
       <use x="100" xlink:href="#KaiTi-48"/>
       <use x="150" xlink:href="#KaiTi-53"/>
      </g>
     </g>
    </g>
    <g id="xtick_12">
     <g id="line2d_39">
      <path clip-path="url(#p1ea902d158)" d="M 214.934644 320.43 
L 214.934644 190.438696 
" style="fill:none;stroke:#ffffff;stroke-linecap:round;"/>
     </g>
     <g id="line2d_40"/>
     <g id="text_22">
      <!-- 0.10 -->
      <g style="fill:#262626;" transform="translate(204.934644 334.305)scale(0.1 -0.1)">
       <use xlink:href="#KaiTi-48"/>
       <use x="50" xlink:href="#KaiTi-46"/>
       <use x="100" xlink:href="#KaiTi-49"/>
       <use x="150" xlink:href="#KaiTi-48"/>
      </g>
     </g>
    </g>
   </g>
   <g id="matplotlib.axis_6">
    <g id="ytick_9">
     <g id="line2d_41">
      <path clip-path="url(#p1ea902d158)" d="M 29.2 320.43 
L 223.286957 320.43 
" style="fill:none;stroke:#ffffff;stroke-linecap:round;"/>
     </g>
     <g id="line2d_42"/>
     <g id="text_23">
      <!-- 0 -->
      <g style="fill:#262626;" transform="translate(17.2 323.8675)scale(0.1 -0.1)">
       <use xlink:href="#KaiTi-48"/>
      </g>
     </g>
    </g>
    <g id="ytick_10">
     <g id="line2d_43">
      <path clip-path="url(#p1ea902d158)" d="M 29.2 288.522463 
L 223.286957 288.522463 
" style="fill:none;stroke:#ffffff;stroke-linecap:round;"/>
     </g>
     <g id="line2d_44"/>
     <g id="text_24">
      <!-- 100 -->
      <g style="fill:#262626;" transform="translate(7.2 291.959963)scale(0.1 -0.1)">
       <use xlink:href="#KaiTi-49"/>
       <use x="50" xlink:href="#KaiTi-48"/>
       <use x="100" xlink:href="#KaiTi-48"/>
      </g>
     </g>
    </g>
    <g id="ytick_11">
     <g id="line2d_45">
      <path clip-path="url(#p1ea902d158)" d="M 29.2 256.614927 
L 223.286957 256.614927 
" style="fill:none;stroke:#ffffff;stroke-linecap:round;"/>
     </g>
     <g id="line2d_46"/>
     <g id="text_25">
      <!-- 200 -->
      <g style="fill:#262626;" transform="translate(7.2 260.052427)scale(0.1 -0.1)">
       <use xlink:href="#KaiTi-50"/>
       <use x="50" xlink:href="#KaiTi-48"/>
       <use x="100" xlink:href="#KaiTi-48"/>
      </g>
     </g>
    </g>
    <g id="ytick_12">
     <g id="line2d_47">
      <path clip-path="url(#p1ea902d158)" d="M 29.2 224.70739 
L 223.286957 224.70739 
" style="fill:none;stroke:#ffffff;stroke-linecap:round;"/>
     </g>
     <g id="line2d_48"/>
     <g id="text_26">
      <!-- 300 -->
      <g style="fill:#262626;" transform="translate(7.2 228.14489)scale(0.1 -0.1)">
       <use xlink:href="#KaiTi-51"/>
       <use x="50" xlink:href="#KaiTi-48"/>
       <use x="100" xlink:href="#KaiTi-48"/>
      </g>
     </g>
    </g>
    <g id="ytick_13">
     <g id="line2d_49">
      <path clip-path="url(#p1ea902d158)" d="M 29.2 192.799853 
L 223.286957 192.799853 
" style="fill:none;stroke:#ffffff;stroke-linecap:round;"/>
     </g>
     <g id="line2d_50"/>
     <g id="text_27">
      <!-- 400 -->
      <defs>
       <path d="M 31.25 17.1875 
L 1.171875 17.1875 
L 1.171875 23.828125 
L 32.8125 69.53125 
L 38.671875 69.53125 
L 38.671875 23.828125 
L 48.046875 23.828125 
L 48.046875 17.1875 
L 38.671875 17.1875 
L 38.671875 2.34375 
L 31.25 2.34375 
z
M 31.25 23.828125 
L 31.25 54.6875 
L 9.375 23.828125 
z
" id="KaiTi-52"/>
      </defs>
      <g style="fill:#262626;" transform="translate(7.2 196.237353)scale(0.1 -0.1)">
       <use xlink:href="#KaiTi-52"/>
       <use x="50" xlink:href="#KaiTi-48"/>
       <use x="100" xlink:href="#KaiTi-48"/>
      </g>
     </g>
    </g>
   </g>
   <g id="patch_113">
    <path clip-path="url(#p1ea902d158)" d="M 38.022134 320.43 
L 41.550988 320.43 
L 41.550988 320.110925 
L 38.022134 320.110925 
z
" style="fill:#4c72b0;"/>
   </g>
   <g id="patch_114">
    <path clip-path="url(#p1ea902d158)" d="M 41.550988 320.43 
L 45.079842 320.43 
L 45.079842 320.43 
L 41.550988 320.43 
z
" style="fill:#4c72b0;"/>
   </g>
   <g id="patch_115">
    <path clip-path="url(#p1ea902d158)" d="M 45.079842 320.43 
L 48.608696 320.43 
L 48.608696 320.43 
L 45.079842 320.43 
z
" style="fill:#4c72b0;"/>
   </g>
   <g id="patch_116">
    <path clip-path="url(#p1ea902d158)" d="M 48.608696 320.43 
L 52.137549 320.43 
L 52.137549 320.43 
L 48.608696 320.43 
z
" style="fill:#4c72b0;"/>
   </g>
   <g id="patch_117">
    <path clip-path="url(#p1ea902d158)" d="M 52.137549 320.43 
L 55.666403 320.43 
L 55.666403 320.43 
L 52.137549 320.43 
z
" style="fill:#4c72b0;"/>
   </g>
   <g id="patch_118">
    <path clip-path="url(#p1ea902d158)" d="M 55.666403 320.43 
L 59.195257 320.43 
L 59.195257 320.110925 
L 55.666403 320.110925 
z
" style="fill:#4c72b0;"/>
   </g>
   <g id="patch_119">
    <path clip-path="url(#p1ea902d158)" d="M 59.195257 320.43 
L 62.724111 320.43 
L 62.724111 320.43 
L 59.195257 320.43 
z
" style="fill:#4c72b0;"/>
   </g>
   <g id="patch_120">
    <path clip-path="url(#p1ea902d158)" d="M 62.724111 320.43 
L 66.252964 320.43 
L 66.252964 320.43 
L 62.724111 320.43 
z
" style="fill:#4c72b0;"/>
   </g>
   <g id="patch_121">
    <path clip-path="url(#p1ea902d158)" d="M 66.252964 320.43 
L 69.781818 320.43 
L 69.781818 320.43 
L 66.252964 320.43 
z
" style="fill:#4c72b0;"/>
   </g>
   <g id="patch_122">
    <path clip-path="url(#p1ea902d158)" d="M 69.781818 320.43 
L 73.310672 320.43 
L 73.310672 320.43 
L 69.781818 320.43 
z
" style="fill:#4c72b0;"/>
   </g>
   <g id="patch_123">
    <path clip-path="url(#p1ea902d158)" d="M 73.310672 320.43 
L 76.839526 320.43 
L 76.839526 320.110925 
L 73.310672 320.110925 
z
" style="fill:#4c72b0;"/>
   </g>
   <g id="patch_124">
    <path clip-path="url(#p1ea902d158)" d="M 76.839526 320.43 
L 80.368379 320.43 
L 80.368379 320.43 
L 76.839526 320.43 
z
" style="fill:#4c72b0;"/>
   </g>
   <g id="patch_125">
    <path clip-path="url(#p1ea902d158)" d="M 80.368379 320.43 
L 83.897233 320.43 
L 83.897233 320.43 
L 80.368379 320.43 
z
" style="fill:#4c72b0;"/>
   </g>
   <g id="patch_126">
    <path clip-path="url(#p1ea902d158)" d="M 83.897233 320.43 
L 87.426087 320.43 
L 87.426087 320.43 
L 83.897233 320.43 
z
" style="fill:#4c72b0;"/>
   </g>
   <g id="patch_127">
    <path clip-path="url(#p1ea902d158)" d="M 87.426087 320.43 
L 90.954941 320.43 
L 90.954941 319.791849 
L 87.426087 319.791849 
z
" style="fill:#4c72b0;"/>
   </g>
   <g id="patch_128">
    <path clip-path="url(#p1ea902d158)" d="M 90.954941 320.43 
L 94.483794 320.43 
L 94.483794 320.110925 
L 90.954941 320.110925 
z
" style="fill:#4c72b0;"/>
   </g>
   <g id="patch_129">
    <path clip-path="url(#p1ea902d158)" d="M 94.483794 320.43 
L 98.012648 320.43 
L 98.012648 319.472774 
L 94.483794 319.472774 
z
" style="fill:#4c72b0;"/>
   </g>
   <g id="patch_130">
    <path clip-path="url(#p1ea902d158)" d="M 98.012648 320.43 
L 101.541502 320.43 
L 101.541502 319.472774 
L 98.012648 319.472774 
z
" style="fill:#4c72b0;"/>
   </g>
   <g id="patch_131">
    <path clip-path="url(#p1ea902d158)" d="M 101.541502 320.43 
L 105.070356 320.43 
L 105.070356 316.28202 
L 101.541502 316.28202 
z
" style="fill:#4c72b0;"/>
   </g>
   <g id="patch_132">
    <path clip-path="url(#p1ea902d158)" d="M 105.070356 320.43 
L 108.599209 320.43 
L 108.599209 316.920171 
L 105.070356 316.920171 
z
" style="fill:#4c72b0;"/>
   </g>
   <g id="patch_133">
    <path clip-path="url(#p1ea902d158)" d="M 108.599209 320.43 
L 112.128063 320.43 
L 112.128063 316.28202 
L 108.599209 316.28202 
z
" style="fill:#4c72b0;"/>
   </g>
   <g id="patch_134">
    <path clip-path="url(#p1ea902d158)" d="M 112.128063 320.43 
L 115.656917 320.43 
L 115.656917 311.176814 
L 112.128063 311.176814 
z
" style="fill:#4c72b0;"/>
   </g>
   <g id="patch_135">
    <path clip-path="url(#p1ea902d158)" d="M 115.656917 320.43 
L 119.185771 320.43 
L 119.185771 307.986061 
L 115.656917 307.986061 
z
" style="fill:#4c72b0;"/>
   </g>
   <g id="patch_136">
    <path clip-path="url(#p1ea902d158)" d="M 119.185771 320.43 
L 122.714625 320.43 
L 122.714625 298.4138 
L 119.185771 298.4138 
z
" style="fill:#4c72b0;"/>
   </g>
   <g id="patch_137">
    <path clip-path="url(#p1ea902d158)" d="M 122.714625 320.43 
L 126.243478 320.43 
L 126.243478 273.525921 
L 122.714625 273.525921 
z
" style="fill:#4c72b0;"/>
   </g>
   <g id="patch_138">
    <path clip-path="url(#p1ea902d158)" d="M 126.243478 320.43 
L 129.772332 320.43 
L 129.772332 246.404515 
L 126.243478 246.404515 
z
" style="fill:#4c72b0;"/>
   </g>
   <g id="patch_139">
    <path clip-path="url(#p1ea902d158)" d="M 129.772332 320.43 
L 133.301186 320.43 
L 133.301186 226.302767 
L 129.772332 226.302767 
z
" style="fill:#4c72b0;"/>
   </g>
   <g id="patch_140">
    <path clip-path="url(#p1ea902d158)" d="M 133.301186 320.43 
L 136.83004 320.43 
L 136.83004 196.628758 
L 133.301186 196.628758 
z
" style="fill:#4c72b0;"/>
   </g>
   <g id="patch_141">
    <path clip-path="url(#p1ea902d158)" d="M 136.83004 320.43 
L 140.358893 320.43 
L 140.358893 228.217219 
L 136.83004 228.217219 
z
" style="fill:#4c72b0;"/>
   </g>
   <g id="patch_142">
    <path clip-path="url(#p1ea902d158)" d="M 140.358893 320.43 
L 143.887747 320.43 
L 143.887747 248.957118 
L 140.358893 248.957118 
z
" style="fill:#4c72b0;"/>
   </g>
   <g id="patch_143">
    <path clip-path="url(#p1ea902d158)" d="M 143.887747 320.43 
L 147.416601 320.43 
L 147.416601 274.802223 
L 143.887747 274.802223 
z
" style="fill:#4c72b0;"/>
   </g>
   <g id="patch_144">
    <path clip-path="url(#p1ea902d158)" d="M 147.416601 320.43 
L 150.945455 320.43 
L 150.945455 290.11784 
L 147.416601 290.11784 
z
" style="fill:#4c72b0;"/>
   </g>
   <g id="patch_145">
    <path clip-path="url(#p1ea902d158)" d="M 150.945455 320.43 
L 154.474308 320.43 
L 154.474308 300.966403 
L 150.945455 300.966403 
z
" style="fill:#4c72b0;"/>
   </g>
   <g id="patch_146">
    <path clip-path="url(#p1ea902d158)" d="M 154.474308 320.43 
L 158.003162 320.43 
L 158.003162 311.49589 
L 154.474308 311.49589 
z
" style="fill:#4c72b0;"/>
   </g>
   <g id="patch_147">
    <path clip-path="url(#p1ea902d158)" d="M 158.003162 320.43 
L 161.532016 320.43 
L 161.532016 315.64387 
L 158.003162 315.64387 
z
" style="fill:#4c72b0;"/>
   </g>
   <g id="patch_148">
    <path clip-path="url(#p1ea902d158)" d="M 161.532016 320.43 
L 165.06087 320.43 
L 165.06087 316.28202 
L 161.532016 316.28202 
z
" style="fill:#4c72b0;"/>
   </g>
   <g id="patch_149">
    <path clip-path="url(#p1ea902d158)" d="M 165.06087 320.43 
L 168.589723 320.43 
L 168.589723 317.877397 
L 165.06087 317.877397 
z
" style="fill:#4c72b0;"/>
   </g>
   <g id="patch_150">
    <path clip-path="url(#p1ea902d158)" d="M 168.589723 320.43 
L 172.118577 320.43 
L 172.118577 319.791849 
L 168.589723 319.791849 
z
" style="fill:#4c72b0;"/>
   </g>
   <g id="patch_151">
    <path clip-path="url(#p1ea902d158)" d="M 172.118577 320.43 
L 175.647431 320.43 
L 175.647431 320.43 
L 172.118577 320.43 
z
" style="fill:#4c72b0;"/>
   </g>
   <g id="patch_152">
    <path clip-path="url(#p1ea902d158)" d="M 175.647431 320.43 
L 179.176285 320.43 
L 179.176285 319.153699 
L 175.647431 319.153699 
z
" style="fill:#4c72b0;"/>
   </g>
   <g id="patch_153">
    <path clip-path="url(#p1ea902d158)" d="M 179.176285 320.43 
L 182.705138 320.43 
L 182.705138 319.791849 
L 179.176285 319.791849 
z
" style="fill:#4c72b0;"/>
   </g>
   <g id="patch_154">
    <path clip-path="url(#p1ea902d158)" d="M 182.705138 320.43 
L 186.233992 320.43 
L 186.233992 320.110925 
L 182.705138 320.110925 
z
" style="fill:#4c72b0;"/>
   </g>
   <g id="patch_155">
    <path clip-path="url(#p1ea902d158)" d="M 186.233992 320.43 
L 189.762846 320.43 
L 189.762846 320.43 
L 186.233992 320.43 
z
" style="fill:#4c72b0;"/>
   </g>
   <g id="patch_156">
    <path clip-path="url(#p1ea902d158)" d="M 189.762846 320.43 
L 193.2917 320.43 
L 193.2917 320.110925 
L 189.762846 320.110925 
z
" style="fill:#4c72b0;"/>
   </g>
   <g id="patch_157">
    <path clip-path="url(#p1ea902d158)" d="M 193.2917 320.43 
L 196.820553 320.43 
L 196.820553 320.110925 
L 193.2917 320.110925 
z
" style="fill:#4c72b0;"/>
   </g>
   <g id="patch_158">
    <path clip-path="url(#p1ea902d158)" d="M 196.820553 320.43 
L 200.349407 320.43 
L 200.349407 320.43 
L 196.820553 320.43 
z
" style="fill:#4c72b0;"/>
   </g>
   <g id="patch_159">
    <path clip-path="url(#p1ea902d158)" d="M 200.349407 320.43 
L 203.878261 320.43 
L 203.878261 320.43 
L 200.349407 320.43 
z
" style="fill:#4c72b0;"/>
   </g>
   <g id="patch_160">
    <path clip-path="url(#p1ea902d158)" d="M 203.878261 320.43 
L 207.407115 320.43 
L 207.407115 320.43 
L 203.878261 320.43 
z
" style="fill:#4c72b0;"/>
   </g>
   <g id="patch_161">
    <path clip-path="url(#p1ea902d158)" d="M 207.407115 320.43 
L 210.935968 320.43 
L 210.935968 320.43 
L 207.407115 320.43 
z
" style="fill:#4c72b0;"/>
   </g>
   <g id="patch_162">
    <path clip-path="url(#p1ea902d158)" d="M 210.935968 320.43 
L 214.464822 320.43 
L 214.464822 319.791849 
L 210.935968 319.791849 
z
" style="fill:#4c72b0;"/>
   </g>
   <g id="patch_163">
    <path d="M 29.2 320.43 
L 29.2 190.438696 
" style="fill:none;"/>
   </g>
   <g id="patch_164">
    <path d="M 223.286957 320.43 
L 223.286957 190.438696 
" style="fill:none;"/>
   </g>
   <g id="patch_165">
    <path d="M 29.2 320.43 
L 223.286957 320.43 
" style="fill:none;"/>
   </g>
   <g id="patch_166">
    <path d="M 29.2 190.438696 
L 223.286957 190.438696 
" style="fill:none;"/>
   </g>
   <g id="text_28">
    <!-- MSFT.O -->
    <defs>
     <path d="M 45.703125 1.953125 
L 37.890625 1.953125 
L 37.890625 49.609375 
L 37.109375 49.609375 
L 27.734375 1.953125 
L 21.484375 1.953125 
L 12.109375 49.609375 
L 11.328125 49.609375 
L 11.328125 1.953125 
L 3.515625 1.953125 
L 3.515625 68.75 
L 15.625 68.75 
L 24.21875 24.609375 
L 25 24.609375 
L 33.59375 68.75 
L 45.703125 68.75 
z
" id="KaiTi-77"/>
     <path d="M 45.3125 20.703125 
Q 45.3125 11.71875 39.640625 6.4375 
Q 33.984375 1.171875 24.21875 1.171875 
Q 14.453125 1.171875 8.984375 6.640625 
Q 3.515625 12.109375 3.515625 20.3125 
L 3.515625 23.046875 
L 12.5 23.046875 
L 12.5 20.703125 
Q 12.5 14.84375 16.015625 11.71875 
Q 19.53125 8.59375 24.21875 8.59375 
Q 30.46875 8.59375 33.390625 11.90625 
Q 36.328125 15.234375 36.328125 19.921875 
Q 36.328125 23.828125 32.8125 27.140625 
Q 29.296875 30.46875 22.65625 33.203125 
Q 13.28125 36.71875 9.171875 41.015625 
Q 5.078125 45.3125 5.078125 51.171875 
Q 5.078125 59.375 10.734375 64.453125 
Q 16.40625 69.53125 24.21875 69.53125 
Q 34.375 69.53125 38.859375 63.46875 
Q 43.359375 57.421875 43.359375 50.390625 
L 34.375 50.390625 
Q 34.765625 54.6875 32.03125 58.203125 
Q 29.296875 61.71875 24.21875 61.71875 
Q 19.53125 61.71875 16.796875 59.171875 
Q 14.0625 56.640625 14.0625 52.34375 
Q 14.0625 48.828125 16.203125 46.28125 
Q 18.359375 43.75 27.34375 40.234375 
Q 35.9375 36.71875 40.625 31.828125 
Q 45.3125 26.953125 45.3125 20.703125 
z
" id="KaiTi-83"/>
     <path d="M 45.703125 61.328125 
L 13.671875 61.328125 
L 13.671875 39.453125 
L 37.890625 39.453125 
L 37.890625 32.03125 
L 13.671875 32.03125 
L 13.671875 1.953125 
L 4.6875 1.953125 
L 4.6875 68.75 
L 45.703125 68.75 
z
" id="KaiTi-70"/>
     <path d="M 44.53125 61.328125 
L 28.90625 61.328125 
L 28.90625 1.953125 
L 19.921875 1.953125 
L 19.921875 61.328125 
L 4.296875 61.328125 
L 4.296875 68.75 
L 44.53125 68.75 
z
" id="KaiTi-84"/>
    </defs>
    <g style="fill:#262626;" transform="translate(108.243478 184.438696)scale(0.12 -0.12)">
     <use xlink:href="#KaiTi-77"/>
     <use x="50" xlink:href="#KaiTi-83"/>
     <use x="100" xlink:href="#KaiTi-70"/>
     <use x="150" xlink:href="#KaiTi-84"/>
     <use x="200" xlink:href="#KaiTi-46"/>
     <use x="250" xlink:href="#KaiTi-79"/>
    </g>
   </g>
  </g>
  <g id="axes_4">
   <g id="patch_167">
    <path d="M 281.513043 320.43 
L 475.6 320.43 
L 475.6 190.438696 
L 281.513043 190.438696 
z
" style="fill:#eaeaf2;"/>
   </g>
   <g id="matplotlib.axis_7">
    <g id="xtick_13">
     <g id="line2d_51">
      <path clip-path="url(#pf694b44d1f)" d="M 317.461599 320.43 
L 317.461599 190.438696 
" style="fill:none;stroke:#ffffff;stroke-linecap:round;"/>
     </g>
     <g id="line2d_52"/>
     <g id="text_29">
      <!-- -0.050 -->
      <g style="fill:#262626;" transform="translate(302.461599 334.305)scale(0.1 -0.1)">
       <use xlink:href="#KaiTi-45"/>
       <use x="50" xlink:href="#KaiTi-48"/>
       <use x="100" xlink:href="#KaiTi-46"/>
       <use x="150" xlink:href="#KaiTi-48"/>
       <use x="200" xlink:href="#KaiTi-53"/>
       <use x="250" xlink:href="#KaiTi-48"/>
      </g>
     </g>
    </g>
    <g id="xtick_14">
     <g id="line2d_53">
      <path clip-path="url(#pf694b44d1f)" d="M 356.569899 320.43 
L 356.569899 190.438696 
" style="fill:none;stroke:#ffffff;stroke-linecap:round;"/>
     </g>
     <g id="line2d_54"/>
     <g id="text_30">
      <!-- -0.025 -->
      <g style="fill:#262626;" transform="translate(341.569899 334.305)scale(0.1 -0.1)">
       <use xlink:href="#KaiTi-45"/>
       <use x="50" xlink:href="#KaiTi-48"/>
       <use x="100" xlink:href="#KaiTi-46"/>
       <use x="150" xlink:href="#KaiTi-48"/>
       <use x="200" xlink:href="#KaiTi-50"/>
       <use x="250" xlink:href="#KaiTi-53"/>
      </g>
     </g>
    </g>
    <g id="xtick_15">
     <g id="line2d_55">
      <path clip-path="url(#pf694b44d1f)" d="M 395.678199 320.43 
L 395.678199 190.438696 
" style="fill:none;stroke:#ffffff;stroke-linecap:round;"/>
     </g>
     <g id="line2d_56"/>
     <g id="text_31">
      <!-- 0.000 -->
      <g style="fill:#262626;" transform="translate(383.178199 334.305)scale(0.1 -0.1)">
       <use xlink:href="#KaiTi-48"/>
       <use x="50" xlink:href="#KaiTi-46"/>
       <use x="100" xlink:href="#KaiTi-48"/>
       <use x="150" xlink:href="#KaiTi-48"/>
       <use x="200" xlink:href="#KaiTi-48"/>
      </g>
     </g>
    </g>
    <g id="xtick_16">
     <g id="line2d_57">
      <path clip-path="url(#pf694b44d1f)" d="M 434.786499 320.43 
L 434.786499 190.438696 
" style="fill:none;stroke:#ffffff;stroke-linecap:round;"/>
     </g>
     <g id="line2d_58"/>
     <g id="text_32">
      <!-- 0.025 -->
      <g style="fill:#262626;" transform="translate(422.286499 334.305)scale(0.1 -0.1)">
       <use xlink:href="#KaiTi-48"/>
       <use x="50" xlink:href="#KaiTi-46"/>
       <use x="100" xlink:href="#KaiTi-48"/>
       <use x="150" xlink:href="#KaiTi-50"/>
       <use x="200" xlink:href="#KaiTi-53"/>
      </g>
     </g>
    </g>
    <g id="xtick_17">
     <g id="line2d_59">
      <path clip-path="url(#pf694b44d1f)" d="M 473.894799 320.43 
L 473.894799 190.438696 
" style="fill:none;stroke:#ffffff;stroke-linecap:round;"/>
     </g>
     <g id="line2d_60"/>
     <g id="text_33">
      <!-- 0.050 -->
      <g style="fill:#262626;" transform="translate(461.394799 334.305)scale(0.1 -0.1)">
       <use xlink:href="#KaiTi-48"/>
       <use x="50" xlink:href="#KaiTi-46"/>
       <use x="100" xlink:href="#KaiTi-48"/>
       <use x="150" xlink:href="#KaiTi-53"/>
       <use x="200" xlink:href="#KaiTi-48"/>
      </g>
     </g>
    </g>
   </g>
   <g id="matplotlib.axis_8">
    <g id="ytick_14">
     <g id="line2d_61">
      <path clip-path="url(#pf694b44d1f)" d="M 281.513043 320.43 
L 475.6 320.43 
" style="fill:none;stroke:#ffffff;stroke-linecap:round;"/>
     </g>
     <g id="line2d_62"/>
     <g id="text_34">
      <!-- 0 -->
      <g style="fill:#262626;" transform="translate(269.513043 323.8675)scale(0.1 -0.1)">
       <use xlink:href="#KaiTi-48"/>
      </g>
     </g>
    </g>
    <g id="ytick_15">
     <g id="line2d_63">
      <path clip-path="url(#pf694b44d1f)" d="M 281.513043 283.027812 
L 475.6 283.027812 
" style="fill:none;stroke:#ffffff;stroke-linecap:round;"/>
     </g>
     <g id="line2d_64"/>
     <g id="text_35">
      <!-- 100 -->
      <g style="fill:#262626;" transform="translate(259.513043 286.465312)scale(0.1 -0.1)">
       <use xlink:href="#KaiTi-49"/>
       <use x="50" xlink:href="#KaiTi-48"/>
       <use x="100" xlink:href="#KaiTi-48"/>
      </g>
     </g>
    </g>
    <g id="ytick_16">
     <g id="line2d_65">
      <path clip-path="url(#pf694b44d1f)" d="M 281.513043 245.625624 
L 475.6 245.625624 
" style="fill:none;stroke:#ffffff;stroke-linecap:round;"/>
     </g>
     <g id="line2d_66"/>
     <g id="text_36">
      <!-- 200 -->
      <g style="fill:#262626;" transform="translate(259.513043 249.063124)scale(0.1 -0.1)">
       <use xlink:href="#KaiTi-50"/>
       <use x="50" xlink:href="#KaiTi-48"/>
       <use x="100" xlink:href="#KaiTi-48"/>
      </g>
     </g>
    </g>
    <g id="ytick_17">
     <g id="line2d_67">
      <path clip-path="url(#pf694b44d1f)" d="M 281.513043 208.223436 
L 475.6 208.223436 
" style="fill:none;stroke:#ffffff;stroke-linecap:round;"/>
     </g>
     <g id="line2d_68"/>
     <g id="text_37">
      <!-- 300 -->
      <g style="fill:#262626;" transform="translate(259.513043 211.660936)scale(0.1 -0.1)">
       <use xlink:href="#KaiTi-51"/>
       <use x="50" xlink:href="#KaiTi-48"/>
       <use x="100" xlink:href="#KaiTi-48"/>
      </g>
     </g>
    </g>
   </g>
   <g id="patch_168">
    <path clip-path="url(#pf694b44d1f)" d="M 290.335178 320.43 
L 293.864032 320.43 
L 293.864032 320.055978 
L 290.335178 320.055978 
z
" style="fill:#4c72b0;"/>
   </g>
   <g id="patch_169">
    <path clip-path="url(#pf694b44d1f)" d="M 293.864032 320.43 
L 297.392885 320.43 
L 297.392885 320.43 
L 293.864032 320.43 
z
" style="fill:#4c72b0;"/>
   </g>
   <g id="patch_170">
    <path clip-path="url(#pf694b44d1f)" d="M 297.392885 320.43 
L 300.921739 320.43 
L 300.921739 320.43 
L 297.392885 320.43 
z
" style="fill:#4c72b0;"/>
   </g>
   <g id="patch_171">
    <path clip-path="url(#pf694b44d1f)" d="M 300.921739 320.43 
L 304.450593 320.43 
L 304.450593 320.43 
L 300.921739 320.43 
z
" style="fill:#4c72b0;"/>
   </g>
   <g id="patch_172">
    <path clip-path="url(#pf694b44d1f)" d="M 304.450593 320.43 
L 307.979447 320.43 
L 307.979447 320.43 
L 304.450593 320.43 
z
" style="fill:#4c72b0;"/>
   </g>
   <g id="patch_173">
    <path clip-path="url(#pf694b44d1f)" d="M 307.979447 320.43 
L 311.5083 320.43 
L 311.5083 320.43 
L 307.979447 320.43 
z
" style="fill:#4c72b0;"/>
   </g>
   <g id="patch_174">
    <path clip-path="url(#pf694b44d1f)" d="M 311.5083 320.43 
L 315.037154 320.43 
L 315.037154 320.43 
L 311.5083 320.43 
z
" style="fill:#4c72b0;"/>
   </g>
   <g id="patch_175">
    <path clip-path="url(#pf694b44d1f)" d="M 315.037154 320.43 
L 318.566008 320.43 
L 318.566008 320.43 
L 315.037154 320.43 
z
" style="fill:#4c72b0;"/>
   </g>
   <g id="patch_176">
    <path clip-path="url(#pf694b44d1f)" d="M 318.566008 320.43 
L 322.094862 320.43 
L 322.094862 320.055978 
L 318.566008 320.055978 
z
" style="fill:#4c72b0;"/>
   </g>
   <g id="patch_177">
    <path clip-path="url(#pf694b44d1f)" d="M 322.094862 320.43 
L 325.623715 320.43 
L 325.623715 320.055978 
L 322.094862 320.055978 
z
" style="fill:#4c72b0;"/>
   </g>
   <g id="patch_178">
    <path clip-path="url(#pf694b44d1f)" d="M 325.623715 320.43 
L 329.152569 320.43 
L 329.152569 319.307934 
L 325.623715 319.307934 
z
" style="fill:#4c72b0;"/>
   </g>
   <g id="patch_179">
    <path clip-path="url(#pf694b44d1f)" d="M 329.152569 320.43 
L 332.681423 320.43 
L 332.681423 320.43 
L 329.152569 320.43 
z
" style="fill:#4c72b0;"/>
   </g>
   <g id="patch_180">
    <path clip-path="url(#pf694b44d1f)" d="M 332.681423 320.43 
L 336.210277 320.43 
L 336.210277 319.681956 
L 332.681423 319.681956 
z
" style="fill:#4c72b0;"/>
   </g>
   <g id="patch_181">
    <path clip-path="url(#pf694b44d1f)" d="M 336.210277 320.43 
L 339.73913 320.43 
L 339.73913 319.307934 
L 336.210277 319.307934 
z
" style="fill:#4c72b0;"/>
   </g>
   <g id="patch_182">
    <path clip-path="url(#pf694b44d1f)" d="M 339.73913 320.43 
L 343.267984 320.43 
L 343.267984 320.055978 
L 339.73913 320.055978 
z
" style="fill:#4c72b0;"/>
   </g>
   <g id="patch_183">
    <path clip-path="url(#pf694b44d1f)" d="M 343.267984 320.43 
L 346.796838 320.43 
L 346.796838 319.307934 
L 343.267984 319.307934 
z
" style="fill:#4c72b0;"/>
   </g>
   <g id="patch_184">
    <path clip-path="url(#pf694b44d1f)" d="M 346.796838 320.43 
L 350.325692 320.43 
L 350.325692 319.307934 
L 346.796838 319.307934 
z
" style="fill:#4c72b0;"/>
   </g>
   <g id="patch_185">
    <path clip-path="url(#pf694b44d1f)" d="M 350.325692 320.43 
L 353.854545 320.43 
L 353.854545 318.933912 
L 350.325692 318.933912 
z
" style="fill:#4c72b0;"/>
   </g>
   <g id="patch_186">
    <path clip-path="url(#pf694b44d1f)" d="M 353.854545 320.43 
L 357.383399 320.43 
L 357.383399 317.063803 
L 353.854545 317.063803 
z
" style="fill:#4c72b0;"/>
   </g>
   <g id="patch_187">
    <path clip-path="url(#pf694b44d1f)" d="M 357.383399 320.43 
L 360.912253 320.43 
L 360.912253 315.193694 
L 357.383399 315.193694 
z
" style="fill:#4c72b0;"/>
   </g>
   <g id="patch_188">
    <path clip-path="url(#pf694b44d1f)" d="M 360.912253 320.43 
L 364.441107 320.43 
L 364.441107 315.193694 
L 360.912253 315.193694 
z
" style="fill:#4c72b0;"/>
   </g>
   <g id="patch_189">
    <path clip-path="url(#pf694b44d1f)" d="M 364.441107 320.43 
L 367.96996 320.43 
L 367.96996 314.44565 
L 364.441107 314.44565 
z
" style="fill:#4c72b0;"/>
   </g>
   <g id="patch_190">
    <path clip-path="url(#pf694b44d1f)" d="M 367.96996 320.43 
L 371.498814 320.43 
L 371.498814 309.957387 
L 367.96996 309.957387 
z
" style="fill:#4c72b0;"/>
   </g>
   <g id="patch_191">
    <path clip-path="url(#pf694b44d1f)" d="M 371.498814 320.43 
L 375.027668 320.43 
L 375.027668 306.217169 
L 371.498814 306.217169 
z
" style="fill:#4c72b0;"/>
   </g>
   <g id="patch_192">
    <path clip-path="url(#pf694b44d1f)" d="M 375.027668 320.43 
L 378.556522 320.43 
L 378.556522 301.354884 
L 375.027668 301.354884 
z
" style="fill:#4c72b0;"/>
   </g>
   <g id="patch_193">
    <path clip-path="url(#pf694b44d1f)" d="M 378.556522 320.43 
L 382.085375 320.43 
L 382.085375 296.866622 
L 378.556522 296.866622 
z
" style="fill:#4c72b0;"/>
   </g>
   <g id="patch_194">
    <path clip-path="url(#pf694b44d1f)" d="M 382.085375 320.43 
L 385.614229 320.43 
L 385.614229 289.012162 
L 382.085375 289.012162 
z
" style="fill:#4c72b0;"/>
   </g>
   <g id="patch_195">
    <path clip-path="url(#pf694b44d1f)" d="M 385.614229 320.43 
L 389.143083 320.43 
L 389.143083 271.807156 
L 385.614229 271.807156 
z
" style="fill:#4c72b0;"/>
   </g>
   <g id="patch_196">
    <path clip-path="url(#pf694b44d1f)" d="M 389.143083 320.43 
L 392.671937 320.43 
L 392.671937 237.397143 
L 389.143083 237.397143 
z
" style="fill:#4c72b0;"/>
   </g>
   <g id="patch_197">
    <path clip-path="url(#pf694b44d1f)" d="M 392.671937 320.43 
L 396.200791 320.43 
L 396.200791 196.628758 
L 392.671937 196.628758 
z
" style="fill:#4c72b0;"/>
   </g>
   <g id="patch_198">
    <path clip-path="url(#pf694b44d1f)" d="M 396.200791 320.43 
L 399.729644 320.43 
L 399.729644 198.124845 
L 396.200791 198.124845 
z
" style="fill:#4c72b0;"/>
   </g>
   <g id="patch_199">
    <path clip-path="url(#pf694b44d1f)" d="M 399.729644 320.43 
L 403.258498 320.43 
L 403.258498 234.77899 
L 399.729644 234.77899 
z
" style="fill:#4c72b0;"/>
   </g>
   <g id="patch_200">
    <path clip-path="url(#pf694b44d1f)" d="M 403.258498 320.43 
L 406.787352 320.43 
L 406.787352 252.73204 
L 403.258498 252.73204 
z
" style="fill:#4c72b0;"/>
   </g>
   <g id="patch_201">
    <path clip-path="url(#pf694b44d1f)" d="M 406.787352 320.43 
L 410.316206 320.43 
L 410.316206 278.165528 
L 406.787352 278.165528 
z
" style="fill:#4c72b0;"/>
   </g>
   <g id="patch_202">
    <path clip-path="url(#pf694b44d1f)" d="M 410.316206 320.43 
L 413.845059 320.43 
L 413.845059 287.142053 
L 410.316206 287.142053 
z
" style="fill:#4c72b0;"/>
   </g>
   <g id="patch_203">
    <path clip-path="url(#pf694b44d1f)" d="M 413.845059 320.43 
L 417.373913 320.43 
L 417.373913 298.736731 
L 413.845059 298.736731 
z
" style="fill:#4c72b0;"/>
   </g>
   <g id="patch_204">
    <path clip-path="url(#pf694b44d1f)" d="M 417.373913 320.43 
L 420.902767 320.43 
L 420.902767 305.095103 
L 417.373913 305.095103 
z
" style="fill:#4c72b0;"/>
   </g>
   <g id="patch_205">
    <path clip-path="url(#pf694b44d1f)" d="M 420.902767 320.43 
L 424.431621 320.43 
L 424.431621 311.079453 
L 420.902767 311.079453 
z
" style="fill:#4c72b0;"/>
   </g>
   <g id="patch_206">
    <path clip-path="url(#pf694b44d1f)" d="M 424.431621 320.43 
L 427.960474 320.43 
L 427.960474 314.071628 
L 424.431621 314.071628 
z
" style="fill:#4c72b0;"/>
   </g>
   <g id="patch_207">
    <path clip-path="url(#pf694b44d1f)" d="M 427.960474 320.43 
L 431.489328 320.43 
L 431.489328 317.063803 
L 427.960474 317.063803 
z
" style="fill:#4c72b0;"/>
   </g>
   <g id="patch_208">
    <path clip-path="url(#pf694b44d1f)" d="M 431.489328 320.43 
L 435.018182 320.43 
L 435.018182 317.811847 
L 431.489328 317.811847 
z
" style="fill:#4c72b0;"/>
   </g>
   <g id="patch_209">
    <path clip-path="url(#pf694b44d1f)" d="M 435.018182 320.43 
L 438.547036 320.43 
L 438.547036 319.307934 
L 435.018182 319.307934 
z
" style="fill:#4c72b0;"/>
   </g>
   <g id="patch_210">
    <path clip-path="url(#pf694b44d1f)" d="M 438.547036 320.43 
L 442.075889 320.43 
L 442.075889 318.559891 
L 438.547036 318.559891 
z
" style="fill:#4c72b0;"/>
   </g>
   <g id="patch_211">
    <path clip-path="url(#pf694b44d1f)" d="M 442.075889 320.43 
L 445.604743 320.43 
L 445.604743 319.681956 
L 442.075889 319.681956 
z
" style="fill:#4c72b0;"/>
   </g>
   <g id="patch_212">
    <path clip-path="url(#pf694b44d1f)" d="M 445.604743 320.43 
L 449.133597 320.43 
L 449.133597 319.307934 
L 445.604743 319.307934 
z
" style="fill:#4c72b0;"/>
   </g>
   <g id="patch_213">
    <path clip-path="url(#pf694b44d1f)" d="M 449.133597 320.43 
L 452.662451 320.43 
L 452.662451 320.055978 
L 449.133597 320.055978 
z
" style="fill:#4c72b0;"/>
   </g>
   <g id="patch_214">
    <path clip-path="url(#pf694b44d1f)" d="M 452.662451 320.43 
L 456.191304 320.43 
L 456.191304 320.055978 
L 452.662451 320.055978 
z
" style="fill:#4c72b0;"/>
   </g>
   <g id="patch_215">
    <path clip-path="url(#pf694b44d1f)" d="M 456.191304 320.43 
L 459.720158 320.43 
L 459.720158 320.055978 
L 456.191304 320.055978 
z
" style="fill:#4c72b0;"/>
   </g>
   <g id="patch_216">
    <path clip-path="url(#pf694b44d1f)" d="M 459.720158 320.43 
L 463.249012 320.43 
L 463.249012 320.055978 
L 459.720158 320.055978 
z
" style="fill:#4c72b0;"/>
   </g>
   <g id="patch_217">
    <path clip-path="url(#pf694b44d1f)" d="M 463.249012 320.43 
L 466.777866 320.43 
L 466.777866 319.681956 
L 463.249012 319.681956 
z
" style="fill:#4c72b0;"/>
   </g>
   <g id="patch_218">
    <path d="M 281.513043 320.43 
L 281.513043 190.438696 
" style="fill:none;"/>
   </g>
   <g id="patch_219">
    <path d="M 475.6 320.43 
L 475.6 190.438696 
" style="fill:none;"/>
   </g>
   <g id="patch_220">
    <path d="M 281.513043 320.43 
L 475.6 320.43 
" style="fill:none;"/>
   </g>
   <g id="patch_221">
    <path d="M 281.513043 190.438696 
L 475.6 190.438696 
" style="fill:none;"/>
   </g>
   <g id="text_38">
    <!-- SPY -->
    <defs>
     <path d="M 47.265625 68.75 
L 28.90625 32.03125 
L 28.90625 1.953125 
L 19.921875 1.953125 
L 19.921875 32.03125 
L 1.5625 68.75 
L 10.546875 68.75 
L 24.21875 40.234375 
L 24.609375 40.234375 
L 38.28125 68.75 
z
" id="KaiTi-89"/>
    </defs>
    <g style="fill:#262626;" transform="translate(369.556522 184.438696)scale(0.12 -0.12)">
     <use xlink:href="#KaiTi-83"/>
     <use x="50" xlink:href="#KaiTi-80"/>
     <use x="100" xlink:href="#KaiTi-89"/>
    </g>
   </g>
  </g>
 </g>
 <defs>
  <clipPath id="pd5d76925d5">
   <rect height="129.991304" width="194.086957" x="29.2" y="21.45"/>
  </clipPath>
  <clipPath id="pecf7eb5e5e">
   <rect height="129.991304" width="194.086957" x="281.513043" y="21.45"/>
  </clipPath>
  <clipPath id="p1ea902d158">
   <rect height="129.991304" width="194.086957" x="29.2" y="190.438696"/>
  </clipPath>
  <clipPath id="pf694b44d1f">
   <rect height="129.991304" width="194.086957" x="281.513043" y="190.438696"/>
  </clipPath>
 </defs>
</svg>
