<?xml version="1.0" encoding="utf-8" standalone="no"?>
<!DOCTYPE svg PUBLIC "-//W3C//DTD SVG 1.1//EN"
  "http://www.w3.org/Graphics/SVG/1.1/DTD/svg11.dtd">
<!-- Created with matplotlib (https://matplotlib.org/) -->
<svg height="371.884063pt" version="1.1" viewBox="0 0 552.988125 371.884063" width="552.988125pt" xmlns="http://www.w3.org/2000/svg" xmlns:xlink="http://www.w3.org/1999/xlink">
 <defs>
  <style type="text/css">
*{stroke-linecap:butt;stroke-linejoin:round;}
  </style>
 </defs>
 <g id="figure_1">
  <g id="patch_1">
   <path d="M 0 371.884063 
L 552.988125 371.884063 
L 552.988125 0 
L 0 0 
z
" style="fill:none;"/>
  </g>
  <g id="axes_1">
   <g id="patch_2">
    <path d="M 43.588125 333.36 
L 545.788125 333.36 
L 545.788125 7.2 
L 43.588125 7.2 
z
" style="fill:#eaeaf2;"/>
   </g>
   <g id="matplotlib.axis_1">
    <g id="xtick_1">
     <g id="line2d_1">
      <path clip-path="url(#pe4c0d01c2e)" d="M 78.041542 333.36 
L 78.041542 7.2 
" style="fill:none;stroke:#ffffff;stroke-linecap:round;"/>
     </g>
     <g id="line2d_2"/>
     <g id="text_1">
      <!-- −6 -->
      <defs>
       <path d="M 10.59375 35.296875 
L 73.1875 35.296875 
L 73.1875 27.390625 
L 10.59375 27.390625 
z
" id="DejaVuSerif-8722"/>
       <path d="M 32.71875 3.421875 
Q 39.59375 3.421875 43.296875 8.46875 
Q 47.015625 13.53125 47.015625 23 
Q 47.015625 32.46875 43.296875 37.515625 
Q 39.59375 42.578125 32.71875 42.578125 
Q 25.734375 42.578125 22.0625 37.6875 
Q 18.40625 32.8125 18.40625 23.578125 
Q 18.40625 13.875 22.109375 8.640625 
Q 25.828125 3.421875 32.71875 3.421875 
z
M 16.796875 40.140625 
Q 20.125 43.796875 24.3125 45.59375 
Q 28.515625 47.40625 33.796875 47.40625 
Q 44.671875 47.40625 51 40.859375 
Q 57.328125 34.328125 57.328125 23 
Q 57.328125 11.921875 50.515625 5.25 
Q 43.703125 -1.421875 32.328125 -1.421875 
Q 19.96875 -1.421875 13.328125 7.78125 
Q 6.6875 17 6.6875 34.078125 
Q 6.6875 53.21875 14.546875 63.71875 
Q 22.40625 74.21875 36.71875 74.21875 
Q 40.578125 74.21875 44.828125 73.484375 
Q 49.078125 72.75 53.515625 71.296875 
L 53.515625 59.28125 
L 48 59.28125 
Q 47.40625 64.203125 44.234375 66.796875 
Q 41.0625 69.390625 35.6875 69.390625 
Q 26.21875 69.390625 21.578125 62.203125 
Q 16.9375 55.03125 16.796875 40.140625 
z
" id="DejaVuSerif-54"/>
      </defs>
      <g style="fill:#262626;" transform="translate(70.670449 347.958438)scale(0.1 -0.1)">
       <use xlink:href="#DejaVuSerif-8722"/>
       <use x="83.789062" xlink:href="#DejaVuSerif-54"/>
      </g>
     </g>
    </g>
    <g id="xtick_2">
     <g id="line2d_3">
      <path clip-path="url(#pe4c0d01c2e)" d="M 150.321328 333.36 
L 150.321328 7.2 
" style="fill:none;stroke:#ffffff;stroke-linecap:round;"/>
     </g>
     <g id="line2d_4"/>
     <g id="text_2">
      <!-- −4 -->
      <defs>
       <path d="M 34.90625 24.703125 
L 34.90625 63.484375 
L 10.015625 24.703125 
z
M 56.390625 0 
L 23.1875 0 
L 23.1875 5.171875 
L 34.90625 5.171875 
L 34.90625 19.484375 
L 3.078125 19.484375 
L 3.078125 24.8125 
L 35.015625 74.21875 
L 44.671875 74.21875 
L 44.671875 24.703125 
L 58.59375 24.703125 
L 58.59375 19.484375 
L 44.671875 19.484375 
L 44.671875 5.171875 
L 56.390625 5.171875 
z
" id="DejaVuSerif-52"/>
      </defs>
      <g style="fill:#262626;" transform="translate(142.950234 347.958438)scale(0.1 -0.1)">
       <use xlink:href="#DejaVuSerif-8722"/>
       <use x="83.789062" xlink:href="#DejaVuSerif-52"/>
      </g>
     </g>
    </g>
    <g id="xtick_3">
     <g id="line2d_5">
      <path clip-path="url(#pe4c0d01c2e)" d="M 222.601113 333.36 
L 222.601113 7.2 
" style="fill:none;stroke:#ffffff;stroke-linecap:round;"/>
     </g>
     <g id="line2d_6"/>
     <g id="text_3">
      <!-- −2 -->
      <defs>
       <path d="M 12.796875 55.515625 
L 7.328125 55.515625 
L 7.328125 68.5 
Q 12.546875 71.296875 17.84375 72.75 
Q 23.140625 74.21875 28.21875 74.21875 
Q 39.59375 74.21875 46.1875 68.703125 
Q 52.78125 63.1875 52.78125 53.71875 
Q 52.78125 43.015625 37.84375 28.125 
Q 36.671875 27 36.078125 26.421875 
L 17.671875 8.015625 
L 48.09375 8.015625 
L 48.09375 17 
L 53.8125 17 
L 53.8125 0 
L 6.78125 0 
L 6.78125 5.328125 
L 28.90625 27.390625 
Q 36.234375 34.71875 39.359375 40.84375 
Q 42.484375 46.96875 42.484375 53.71875 
Q 42.484375 61.078125 38.640625 65.234375 
Q 34.8125 69.390625 28.078125 69.390625 
Q 21.09375 69.390625 17.28125 65.921875 
Q 13.484375 62.453125 12.796875 55.515625 
z
" id="DejaVuSerif-50"/>
      </defs>
      <g style="fill:#262626;" transform="translate(215.230019 347.958438)scale(0.1 -0.1)">
       <use xlink:href="#DejaVuSerif-8722"/>
       <use x="83.789062" xlink:href="#DejaVuSerif-50"/>
      </g>
     </g>
    </g>
    <g id="xtick_4">
     <g id="line2d_7">
      <path clip-path="url(#pe4c0d01c2e)" d="M 294.880898 333.36 
L 294.880898 7.2 
" style="fill:none;stroke:#ffffff;stroke-linecap:round;"/>
     </g>
     <g id="line2d_8"/>
     <g id="text_4">
      <!-- 0 -->
      <defs>
       <path d="M 31.78125 3.421875 
Q 39.265625 3.421875 42.96875 11.625 
Q 46.6875 19.828125 46.6875 36.375 
Q 46.6875 52.984375 42.96875 61.1875 
Q 39.265625 69.390625 31.78125 69.390625 
Q 24.3125 69.390625 20.59375 61.1875 
Q 16.890625 52.984375 16.890625 36.375 
Q 16.890625 19.828125 20.59375 11.625 
Q 24.3125 3.421875 31.78125 3.421875 
z
M 31.78125 -1.421875 
Q 19.921875 -1.421875 13.25 8.53125 
Q 6.59375 18.5 6.59375 36.375 
Q 6.59375 54.296875 13.25 64.25 
Q 19.921875 74.21875 31.78125 74.21875 
Q 43.703125 74.21875 50.34375 64.25 
Q 56.984375 54.296875 56.984375 36.375 
Q 56.984375 18.5 50.34375 8.53125 
Q 43.703125 -1.421875 31.78125 -1.421875 
z
" id="DejaVuSerif-48"/>
      </defs>
      <g style="fill:#262626;" transform="translate(291.699648 347.958438)scale(0.1 -0.1)">
       <use xlink:href="#DejaVuSerif-48"/>
      </g>
     </g>
    </g>
    <g id="xtick_5">
     <g id="line2d_9">
      <path clip-path="url(#pe4c0d01c2e)" d="M 367.160683 333.36 
L 367.160683 7.2 
" style="fill:none;stroke:#ffffff;stroke-linecap:round;"/>
     </g>
     <g id="line2d_10"/>
     <g id="text_5">
      <!-- 2 -->
      <g style="fill:#262626;" transform="translate(363.979433 347.958438)scale(0.1 -0.1)">
       <use xlink:href="#DejaVuSerif-50"/>
      </g>
     </g>
    </g>
    <g id="xtick_6">
     <g id="line2d_11">
      <path clip-path="url(#pe4c0d01c2e)" d="M 439.440468 333.36 
L 439.440468 7.2 
" style="fill:none;stroke:#ffffff;stroke-linecap:round;"/>
     </g>
     <g id="line2d_12"/>
     <g id="text_6">
      <!-- 4 -->
      <g style="fill:#262626;" transform="translate(436.259218 347.958438)scale(0.1 -0.1)">
       <use xlink:href="#DejaVuSerif-52"/>
      </g>
     </g>
    </g>
    <g id="xtick_7">
     <g id="line2d_13">
      <path clip-path="url(#pe4c0d01c2e)" d="M 511.720253 333.36 
L 511.720253 7.2 
" style="fill:none;stroke:#ffffff;stroke-linecap:round;"/>
     </g>
     <g id="line2d_14"/>
     <g id="text_7">
      <!-- 6 -->
      <g style="fill:#262626;" transform="translate(508.539003 347.958438)scale(0.1 -0.1)">
       <use xlink:href="#DejaVuSerif-54"/>
      </g>
     </g>
    </g>
    <g id="text_8">
     <!-- x -->
     <defs>
      <path d="M 29.109375 31.6875 
L 39.984375 46.6875 
L 33.015625 46.6875 
L 33.015625 51.90625 
L 52.984375 51.90625 
L 52.984375 46.6875 
L 46.09375 46.6875 
L 32.171875 27.484375 
L 48.390625 5.171875 
L 55.171875 5.171875 
L 55.171875 0 
L 31.203125 0 
L 31.203125 5.171875 
L 37.796875 5.171875 
L 26.515625 20.703125 
L 15.1875 5.171875 
L 21.921875 5.171875 
L 21.921875 0 
L 2.203125 0 
L 2.203125 5.171875 
L 9.078125 5.171875 
L 23.390625 24.90625 
L 7.625 46.6875 
L 1.21875 46.6875 
L 1.21875 51.90625 
L 24.421875 51.90625 
L 24.421875 46.6875 
L 18.21875 46.6875 
z
" id="DejaVuSerif-120"/>
     </defs>
     <g style="fill:#262626;" transform="translate(291.586641 362.396406)scale(0.11 -0.11)">
      <use xlink:href="#DejaVuSerif-120"/>
     </g>
    </g>
   </g>
   <g id="matplotlib.axis_2">
    <g id="ytick_1">
     <g id="line2d_15">
      <path clip-path="url(#pe4c0d01c2e)" d="M 43.588125 310.784256 
L 545.788125 310.784256 
" style="fill:none;stroke:#ffffff;stroke-linecap:round;"/>
     </g>
     <g id="line2d_16"/>
     <g id="text_9">
      <!-- −3 -->
      <defs>
       <path d="M 9.71875 69.828125 
Q 15.4375 71.96875 20.671875 73.09375 
Q 25.921875 74.21875 30.515625 74.21875 
Q 41.21875 74.21875 47.21875 69.59375 
Q 53.21875 64.984375 53.21875 56.78125 
Q 53.21875 50.203125 49.0625 45.78125 
Q 44.921875 41.359375 37.3125 39.796875 
Q 46.296875 38.53125 51.25 33.28125 
Q 56.203125 28.03125 56.203125 19.671875 
Q 56.203125 9.46875 49.34375 4.015625 
Q 42.484375 -1.421875 29.59375 -1.421875 
Q 23.875 -1.421875 18.421875 -0.1875 
Q 12.984375 1.03125 7.625 3.515625 
L 7.625 17.671875 
L 13.09375 17.671875 
Q 13.578125 10.640625 17.828125 7.03125 
Q 22.078125 3.421875 29.78125 3.421875 
Q 37.25 3.421875 41.578125 7.734375 
Q 45.90625 12.0625 45.90625 19.578125 
Q 45.90625 28.171875 41.453125 32.59375 
Q 37.015625 37.015625 28.421875 37.015625 
L 23.78125 37.015625 
L 23.78125 42 
L 26.21875 42 
Q 34.765625 42 39.03125 45.53125 
Q 43.3125 49.078125 43.3125 56.203125 
Q 43.3125 62.59375 39.796875 65.984375 
Q 36.28125 69.390625 29.6875 69.390625 
Q 23.09375 69.390625 19.453125 66.265625 
Q 15.828125 63.140625 15.1875 56.984375 
L 9.71875 56.984375 
z
" id="DejaVuSerif-51"/>
      </defs>
      <g style="fill:#262626;" transform="translate(21.845938 314.583475)scale(0.1 -0.1)">
       <use xlink:href="#DejaVuSerif-8722"/>
       <use x="83.789062" xlink:href="#DejaVuSerif-51"/>
      </g>
     </g>
    </g>
    <g id="ytick_2">
     <g id="line2d_17">
      <path clip-path="url(#pe4c0d01c2e)" d="M 43.588125 263.767331 
L 545.788125 263.767331 
" style="fill:none;stroke:#ffffff;stroke-linecap:round;"/>
     </g>
     <g id="line2d_18"/>
     <g id="text_10">
      <!-- −2 -->
      <g style="fill:#262626;" transform="translate(21.845938 267.56655)scale(0.1 -0.1)">
       <use xlink:href="#DejaVuSerif-8722"/>
       <use x="83.789062" xlink:href="#DejaVuSerif-50"/>
      </g>
     </g>
    </g>
    <g id="ytick_3">
     <g id="line2d_19">
      <path clip-path="url(#pe4c0d01c2e)" d="M 43.588125 216.750406 
L 545.788125 216.750406 
" style="fill:none;stroke:#ffffff;stroke-linecap:round;"/>
     </g>
     <g id="line2d_20"/>
     <g id="text_11">
      <!-- −1 -->
      <defs>
       <path d="M 14.203125 0 
L 14.203125 5.171875 
L 26.90625 5.171875 
L 26.90625 65.828125 
L 12.203125 56.296875 
L 12.203125 62.703125 
L 29.984375 74.21875 
L 36.71875 74.21875 
L 36.71875 5.171875 
L 49.421875 5.171875 
L 49.421875 0 
z
" id="DejaVuSerif-49"/>
      </defs>
      <g style="fill:#262626;" transform="translate(21.845938 220.549625)scale(0.1 -0.1)">
       <use xlink:href="#DejaVuSerif-8722"/>
       <use x="83.789062" xlink:href="#DejaVuSerif-49"/>
      </g>
     </g>
    </g>
    <g id="ytick_4">
     <g id="line2d_21">
      <path clip-path="url(#pe4c0d01c2e)" d="M 43.588125 169.733481 
L 545.788125 169.733481 
" style="fill:none;stroke:#ffffff;stroke-linecap:round;"/>
     </g>
     <g id="line2d_22"/>
     <g id="text_12">
      <!-- 0 -->
      <g style="fill:#262626;" transform="translate(30.225625 173.5327)scale(0.1 -0.1)">
       <use xlink:href="#DejaVuSerif-48"/>
      </g>
     </g>
    </g>
    <g id="ytick_5">
     <g id="line2d_23">
      <path clip-path="url(#pe4c0d01c2e)" d="M 43.588125 122.716556 
L 545.788125 122.716556 
" style="fill:none;stroke:#ffffff;stroke-linecap:round;"/>
     </g>
     <g id="line2d_24"/>
     <g id="text_13">
      <!-- 1 -->
      <g style="fill:#262626;" transform="translate(30.225625 126.515775)scale(0.1 -0.1)">
       <use xlink:href="#DejaVuSerif-49"/>
      </g>
     </g>
    </g>
    <g id="ytick_6">
     <g id="line2d_25">
      <path clip-path="url(#pe4c0d01c2e)" d="M 43.588125 75.699631 
L 545.788125 75.699631 
" style="fill:none;stroke:#ffffff;stroke-linecap:round;"/>
     </g>
     <g id="line2d_26"/>
     <g id="text_14">
      <!-- 2 -->
      <g style="fill:#262626;" transform="translate(30.225625 79.49885)scale(0.1 -0.1)">
       <use xlink:href="#DejaVuSerif-50"/>
      </g>
     </g>
    </g>
    <g id="ytick_7">
     <g id="line2d_27">
      <path clip-path="url(#pe4c0d01c2e)" d="M 43.588125 28.682706 
L 545.788125 28.682706 
" style="fill:none;stroke:#ffffff;stroke-linecap:round;"/>
     </g>
     <g id="line2d_28"/>
     <g id="text_15">
      <!-- 3 -->
      <g style="fill:#262626;" transform="translate(30.225625 32.481924)scale(0.1 -0.1)">
       <use xlink:href="#DejaVuSerif-51"/>
      </g>
     </g>
    </g>
    <g id="text_16">
     <!-- f(x) -->
     <defs>
      <path d="M 43.015625 63.71875 
L 38.28125 63.71875 
Q 38.234375 67.390625 36.203125 69.28125 
Q 34.1875 71.1875 30.328125 71.1875 
Q 25.296875 71.1875 23.234375 68.421875 
Q 21.1875 65.671875 21.1875 58.59375 
L 21.1875 51.90625 
L 35.6875 51.90625 
L 35.6875 46.6875 
L 21.1875 46.6875 
L 21.1875 5.171875 
L 32.71875 5.171875 
L 32.71875 0 
L 3.609375 0 
L 3.609375 5.171875 
L 12.203125 5.171875 
L 12.203125 46.6875 
L 3.609375 46.6875 
L 3.609375 51.90625 
L 12.203125 51.90625 
L 12.203125 58.40625 
Q 12.203125 67.09375 16.71875 71.53125 
Q 21.234375 75.984375 29.984375 75.984375 
Q 33.25 75.984375 36.515625 75.390625 
Q 39.796875 74.8125 43.015625 73.578125 
z
" id="DejaVuSerif-102"/>
      <path d="M 31.890625 -15.578125 
Q 20.015625 -10.25 13.953125 1.296875 
Q 7.90625 12.84375 7.90625 30.171875 
Q 7.90625 47.5625 13.953125 59.109375 
Q 20.015625 70.65625 31.890625 75.984375 
L 31.890625 71.1875 
Q 24.359375 66.015625 21.09375 56.609375 
Q 17.828125 47.21875 17.828125 30.171875 
Q 17.828125 13.1875 21.09375 3.78125 
Q 24.359375 -5.609375 31.890625 -10.796875 
z
" id="DejaVuSerif-40"/>
      <path d="M 7.078125 -15.578125 
L 7.078125 -10.796875 
Q 14.59375 -5.609375 17.890625 3.78125 
Q 21.1875 13.1875 21.1875 30.171875 
Q 21.1875 47.21875 17.890625 56.609375 
Q 14.59375 66.015625 7.078125 71.1875 
L 7.078125 75.984375 
Q 19 70.65625 25.046875 59.109375 
Q 31.109375 47.5625 31.109375 30.171875 
Q 31.109375 12.84375 25.046875 1.296875 
Q 19 -10.25 7.078125 -15.578125 
z
" id="DejaVuSerif-41"/>
     </defs>
     <g style="fill:#262626;" transform="translate(15.558281 179.709063)rotate(-90)scale(0.11 -0.11)">
      <use xlink:href="#DejaVuSerif-102"/>
      <use x="37.011719" xlink:href="#DejaVuSerif-40"/>
      <use x="76.025391" xlink:href="#DejaVuSerif-120"/>
      <use x="132.421875" xlink:href="#DejaVuSerif-41"/>
     </g>
    </g>
   </g>
   <g id="line2d_29">
    <path clip-path="url(#pe4c0d01c2e)" d="M 67.807256 317.441507 
L 77.075568 299.48655 
L 86.34388 282.311679 
L 95.612192 266.645956 
L 104.880504 253.119728 
L 114.148815 242.223397 
L 123.417127 234.275344 
L 132.685439 229.401101 
L 141.953751 227.525142 
L 151.222063 228.375821 
L 160.490375 231.503143 
L 169.758687 236.308198 
L 179.026999 242.082334 
L 188.295311 248.053511 
L 197.563623 253.4368 
L 206.831935 257.485728 
L 216.100247 259.5411 
L 225.368558 259.074123 
L 234.63687 255.72099 
L 243.905182 249.306677 
L 253.173494 239.856396 
L 262.441806 227.59394 
L 271.710118 212.927046 
L 280.97843 196.42073 
L 290.246742 178.760321 
L 299.515054 160.70664 
L 308.783366 143.046232 
L 318.051678 126.539915 
L 327.31999 111.873022 
L 336.588302 99.610565 
L 345.856613 90.160284 
L 355.124925 83.745972 
L 364.393237 80.392839 
L 373.661549 79.925862 
L 382.929861 81.981234 
L 392.198173 86.030162 
L 401.466485 91.413451 
L 410.734797 97.384628 
L 420.003109 103.158763 
L 429.271421 107.963818 
L 438.539733 111.091141 
L 447.808045 111.94182 
L 457.076356 110.06586 
L 466.344668 105.191617 
L 475.61298 97.243564 
L 484.881292 86.347234 
L 494.149604 72.821006 
L 503.417916 57.155283 
L 512.686228 39.980412 
L 521.95454 22.025455 
" style="fill:none;stroke:#0000ff;stroke-linecap:round;stroke-width:1.75;"/>
   </g>
   <g id="line2d_30">
    <defs>
     <path d="M 0 1.75 
C 0.464105 1.75 0.909265 1.565609 1.237437 1.237437 
C 1.565609 0.909265 1.75 0.464105 1.75 0 
C 1.75 -0.464105 1.565609 -0.909265 1.237437 -1.237437 
C 0.909265 -1.565609 0.464105 -1.75 0 -1.75 
C -0.464105 -1.75 -0.909265 -1.565609 -1.237437 -1.237437 
C -1.565609 -0.909265 -1.75 -0.464105 -1.75 0 
C -1.75 0.464105 -1.565609 0.909265 -1.237437 1.237437 
C -0.909265 1.565609 -0.464105 1.75 0 1.75 
z
" id="ma62813d057"/>
    </defs>
    <g clip-path="url(#pe4c0d01c2e)">
     <use style="fill:#ff0000;" x="67.807256" xlink:href="#ma62813d057" y="309.724516"/>
     <use style="fill:#ff0000;" x="77.075568" xlink:href="#ma62813d057" y="298.34556"/>
     <use style="fill:#ff0000;" x="86.34388" xlink:href="#ma62813d057" y="270.260806"/>
     <use style="fill:#ff0000;" x="95.612192" xlink:href="#ma62813d057" y="271.735789"/>
     <use style="fill:#ff0000;" x="104.880504" xlink:href="#ma62813d057" y="262.053194"/>
     <use style="fill:#ff0000;" x="114.148815" xlink:href="#ma62813d057" y="230.55095"/>
     <use style="fill:#ff0000;" x="123.417127" xlink:href="#ma62813d057" y="227.116631"/>
     <use style="fill:#ff0000;" x="132.685439" xlink:href="#ma62813d057" y="226.746323"/>
     <use style="fill:#ff0000;" x="141.953751" xlink:href="#ma62813d057" y="227.443262"/>
     <use style="fill:#ff0000;" x="151.222063" xlink:href="#ma62813d057" y="233.296176"/>
     <use style="fill:#ff0000;" x="160.490375" xlink:href="#ma62813d057" y="235.808947"/>
     <use style="fill:#ff0000;" x="169.758687" xlink:href="#ma62813d057" y="235.139246"/>
     <use style="fill:#ff0000;" x="179.026999" xlink:href="#ma62813d057" y="240.284231"/>
     <use style="fill:#ff0000;" x="188.295311" xlink:href="#ma62813d057" y="256.68099"/>
     <use style="fill:#ff0000;" x="197.563623" xlink:href="#ma62813d057" y="263.05606"/>
     <use style="fill:#ff0000;" x="206.831935" xlink:href="#ma62813d057" y="266.31674"/>
     <use style="fill:#ff0000;" x="216.100247" xlink:href="#ma62813d057" y="266.371705"/>
     <use style="fill:#ff0000;" x="225.368558" xlink:href="#ma62813d057" y="264.355005"/>
     <use style="fill:#ff0000;" x="234.63687" xlink:href="#ma62813d057" y="261.26402"/>
     <use style="fill:#ff0000;" x="243.905182" xlink:href="#ma62813d057" y="260.794303"/>
     <use style="fill:#ff0000;" x="253.173494" xlink:href="#ma62813d057" y="234.937841"/>
     <use style="fill:#ff0000;" x="262.441806" xlink:href="#ma62813d057" y="234.518718"/>
     <use style="fill:#ff0000;" x="271.710118" xlink:href="#ma62813d057" y="220.69488"/>
     <use style="fill:#ff0000;" x="280.97843" xlink:href="#ma62813d057" y="202.39267"/>
     <use style="fill:#ff0000;" x="290.246742" xlink:href="#ma62813d057" y="169.377539"/>
     <use style="fill:#ff0000;" x="299.515054" xlink:href="#ma62813d057" y="169.19566"/>
     <use style="fill:#ff0000;" x="308.783366" xlink:href="#ma62813d057" y="159.544746"/>
     <use style="fill:#ff0000;" x="318.051678" xlink:href="#ma62813d057" y="143.206587"/>
     <use style="fill:#ff0000;" x="327.31999" xlink:href="#ma62813d057" y="134.041164"/>
     <use style="fill:#ff0000;" x="336.588302" xlink:href="#ma62813d057" y="112.892694"/>
     <use style="fill:#ff0000;" x="345.856613" xlink:href="#ma62813d057" y="103.183663"/>
     <use style="fill:#ff0000;" x="355.124925" xlink:href="#ma62813d057" y="87.422401"/>
     <use style="fill:#ff0000;" x="364.393237" xlink:href="#ma62813d057" y="80.146342"/>
     <use style="fill:#ff0000;" x="373.661549" xlink:href="#ma62813d057" y="78.608114"/>
     <use style="fill:#ff0000;" x="382.929861" xlink:href="#ma62813d057" y="80.380247"/>
     <use style="fill:#ff0000;" x="392.198173" xlink:href="#ma62813d057" y="81.034651"/>
     <use style="fill:#ff0000;" x="401.466485" xlink:href="#ma62813d057" y="87.297107"/>
     <use style="fill:#ff0000;" x="410.734797" xlink:href="#ma62813d057" y="94.591859"/>
     <use style="fill:#ff0000;" x="420.003109" xlink:href="#ma62813d057" y="98.44474"/>
     <use style="fill:#ff0000;" x="429.271421" xlink:href="#ma62813d057" y="109.225411"/>
     <use style="fill:#ff0000;" x="438.539733" xlink:href="#ma62813d057" y="116.205045"/>
     <use style="fill:#ff0000;" x="447.808045" xlink:href="#ma62813d057" y="115.513548"/>
     <use style="fill:#ff0000;" x="457.076356" xlink:href="#ma62813d057" y="112.391912"/>
     <use style="fill:#ff0000;" x="466.344668" xlink:href="#ma62813d057" y="112.36183"/>
     <use style="fill:#ff0000;" x="475.61298" xlink:href="#ma62813d057" y="105.620373"/>
     <use style="fill:#ff0000;" x="484.881292" xlink:href="#ma62813d057" y="89.765075"/>
     <use style="fill:#ff0000;" x="494.149604" xlink:href="#ma62813d057" y="74.415081"/>
     <use style="fill:#ff0000;" x="503.417916" xlink:href="#ma62813d057" y="69.741137"/>
     <use style="fill:#ff0000;" x="512.686228" xlink:href="#ma62813d057" y="57.815887"/>
     <use style="fill:#ff0000;" x="521.95454" xlink:href="#ma62813d057" y="26.165869"/>
    </g>
   </g>
   <g id="line2d_31">
    <defs>
     <path d="M 0 1.75 
C 0.464105 1.75 0.909265 1.565609 1.237437 1.237437 
C 1.565609 0.909265 1.75 0.464105 1.75 0 
C 1.75 -0.464105 1.565609 -0.909265 1.237437 -1.237437 
C 0.909265 -1.565609 0.464105 -1.75 0 -1.75 
C -0.464105 -1.75 -0.909265 -1.565609 -1.237437 -1.237437 
C -1.565609 -0.909265 -1.75 -0.464105 -1.75 0 
C -1.75 0.464105 -1.565609 0.909265 -1.237437 1.237437 
C -0.909265 1.565609 -0.464105 1.75 0 1.75 
z
" id="me84d31c0ae"/>
    </defs>
    <g clip-path="url(#pe4c0d01c2e)">
     <use style="fill:#008000;" x="66.415398" xlink:href="#me84d31c0ae" y="318.534545"/>
     <use style="fill:#008000;" x="75.504514" xlink:href="#me84d31c0ae" y="285.036498"/>
     <use style="fill:#008000;" x="91.647575" xlink:href="#me84d31c0ae" y="262.175441"/>
     <use style="fill:#008000;" x="90.816049" xlink:href="#me84d31c0ae" y="283.210905"/>
     <use style="fill:#008000;" x="96.401409" xlink:href="#me84d31c0ae" y="257.092344"/>
     <use style="fill:#008000;" x="123.088183" xlink:href="#me84d31c0ae" y="234.899095"/>
     <use style="fill:#008000;" x="131.818527" xlink:href="#me84d31c0ae" y="250.920241"/>
     <use style="fill:#008000;" x="134.365812" xlink:href="#me84d31c0ae" y="209.143478"/>
     <use style="fill:#008000;" x="130.399262" xlink:href="#me84d31c0ae" y="230.455853"/>
     <use style="fill:#008000;" x="156.483988" xlink:href="#me84d31c0ae" y="233.923927"/>
     <use style="fill:#008000;" x="160.40369" xlink:href="#me84d31c0ae" y="245.245467"/>
     <use style="fill:#008000;" x="159.39881" xlink:href="#me84d31c0ae" y="234.706185"/>
     <use style="fill:#008000;" x="166.658435" xlink:href="#me84d31c0ae" y="216.274827"/>
     <use style="fill:#008000;" x="188.482842" xlink:href="#me84d31c0ae" y="263.081687"/>
     <use style="fill:#008000;" x="199.699477" xlink:href="#me84d31c0ae" y="262.643699"/>
     <use style="fill:#008000;" x="210.019835" xlink:href="#me84d31c0ae" y="258.454193"/>
     <use style="fill:#008000;" x="210.350886" xlink:href="#me84d31c0ae" y="266.703502"/>
     <use style="fill:#008000;" x="227.620437" xlink:href="#me84d31c0ae" y="274.140772"/>
     <use style="fill:#008000;" x="233.651551" xlink:href="#me84d31c0ae" y="261.32428"/>
     <use style="fill:#008000;" x="234.397022" xlink:href="#me84d31c0ae" y="258.360317"/>
     <use style="fill:#008000;" x="259.072553" xlink:href="#me84d31c0ae" y="244.799528"/>
     <use style="fill:#008000;" x="259.367198" xlink:href="#me84d31c0ae" y="232.300639"/>
     <use style="fill:#008000;" x="268.365889" xlink:href="#me84d31c0ae" y="229.93058"/>
     <use style="fill:#008000;" x="278.924658" xlink:href="#me84d31c0ae" y="191.62561"/>
     <use style="fill:#008000;" x="296.41862" xlink:href="#me84d31c0ae" y="159.915382"/>
     <use style="fill:#008000;" x="296.513487" xlink:href="#me84d31c0ae" y="174.545071"/>
     <use style="fill:#008000;" x="301.566757" xlink:href="#me84d31c0ae" y="162.022128"/>
     <use style="fill:#008000;" x="310.333091" xlink:href="#me84d31c0ae" y="119.470018"/>
     <use style="fill:#008000;" x="315.476153" xlink:href="#me84d31c0ae" y="130.115608"/>
     <use style="fill:#008000;" x="328.580687" xlink:href="#me84d31c0ae" y="128.465248"/>
     <use style="fill:#008000;" x="335.65751" xlink:href="#me84d31c0ae" y="107.725444"/>
     <use style="fill:#008000;" x="350.836428" xlink:href="#me84d31c0ae" y="92.433902"/>
     <use style="fill:#008000;" x="363.546087" xlink:href="#me84d31c0ae" y="93.575301"/>
     <use style="fill:#008000;" x="369.755232" xlink:href="#me84d31c0ae" y="98.697246"/>
     <use style="fill:#008000;" x="385.912395" xlink:href="#me84d31c0ae" y="76.524447"/>
     <use style="fill:#008000;" x="387.698662" xlink:href="#me84d31c0ae" y="50.249308"/>
     <use style="fill:#008000;" x="399.716164" xlink:href="#me84d31c0ae" y="74.603437"/>
     <use style="fill:#008000;" x="410.168308" xlink:href="#me84d31c0ae" y="87.885509"/>
     <use style="fill:#008000;" x="415.291277" xlink:href="#me84d31c0ae" y="99.064962"/>
     <use style="fill:#008000;" x="430.501818" xlink:href="#me84d31c0ae" y="137.068267"/>
     <use style="fill:#008000;" x="447.538414" xlink:href="#me84d31c0ae" y="106.478846"/>
     <use style="fill:#008000;" x="444.221207" xlink:href="#me84d31c0ae" y="103.944877"/>
     <use style="fill:#008000;" x="465.337577" xlink:href="#me84d31c0ae" y="124.217821"/>
     <use style="fill:#008000;" x="465.386608" xlink:href="#me84d31c0ae" y="122.434771"/>
     <use style="fill:#008000;" x="473.67916" xlink:href="#me84d31c0ae" y="107.684299"/>
     <use style="fill:#008000;" x="485.964771" xlink:href="#me84d31c0ae" y="89.131858"/>
     <use style="fill:#008000;" x="494.976615" xlink:href="#me84d31c0ae" y="77.348231"/>
     <use style="fill:#008000;" x="497.493005" xlink:href="#me84d31c0ae" y="49.336662"/>
     <use style="fill:#008000;" x="503.725234" xlink:href="#me84d31c0ae" y="60.431322"/>
     <use style="fill:#008000;" x="522.960852" xlink:href="#me84d31c0ae" y="30.123667"/>
    </g>
   </g>
   <g id="patch_3">
    <path d="M 43.588125 333.36 
L 43.588125 7.2 
" style="fill:none;"/>
   </g>
   <g id="patch_4">
    <path d="M 545.788125 333.36 
L 545.788125 7.2 
" style="fill:none;"/>
   </g>
   <g id="patch_5">
    <path d="M 43.588125 333.36 
L 545.788125 333.36 
" style="fill:none;"/>
   </g>
   <g id="patch_6">
    <path d="M 43.588125 7.2 
L 545.788125 7.2 
" style="fill:none;"/>
   </g>
   <g id="legend_1">
    <g id="line2d_32">
     <path d="M 52.588125 20.298438 
L 72.588125 20.298438 
" style="fill:none;stroke:#0000ff;stroke-linecap:round;stroke-width:1.75;"/>
    </g>
    <g id="line2d_33"/>
    <g id="text_17">
     <!-- f(x) -->
     <g style="fill:#262626;" transform="translate(80.588125 23.798438)scale(0.1 -0.1)">
      <use xlink:href="#DejaVuSerif-102"/>
      <use x="37.011719" xlink:href="#DejaVuSerif-40"/>
      <use x="76.025391" xlink:href="#DejaVuSerif-120"/>
      <use x="132.421875" xlink:href="#DejaVuSerif-41"/>
     </g>
    </g>
    <g id="line2d_34"/>
    <g id="line2d_35">
     <g>
      <use style="fill:#ff0000;" x="62.588125" xlink:href="#ma62813d057" y="34.976563"/>
     </g>
    </g>
    <g id="text_18">
     <!-- regression -->
     <defs>
      <path d="M 47.796875 52 
L 47.796875 39.015625 
L 42.625 39.015625 
Q 42.390625 42.875 40.484375 44.78125 
Q 38.578125 46.6875 34.90625 46.6875 
Q 28.265625 46.6875 24.71875 42.09375 
Q 21.1875 37.5 21.1875 28.90625 
L 21.1875 5.171875 
L 31.59375 5.171875 
L 31.59375 0 
L 4.109375 0 
L 4.109375 5.171875 
L 12.203125 5.171875 
L 12.203125 46.78125 
L 3.609375 46.78125 
L 3.609375 51.90625 
L 21.1875 51.90625 
L 21.1875 42.671875 
Q 23.828125 48.09375 27.96875 50.703125 
Q 32.125 53.328125 38.09375 53.328125 
Q 40.28125 53.328125 42.703125 52.984375 
Q 45.125 52.640625 47.796875 52 
z
" id="DejaVuSerif-114"/>
      <path d="M 54.203125 25 
L 15.484375 25 
L 15.484375 24.609375 
Q 15.484375 14.109375 19.4375 8.765625 
Q 23.390625 3.421875 31.109375 3.421875 
Q 37.015625 3.421875 40.796875 6.515625 
Q 44.578125 9.625 46.09375 15.71875 
L 53.328125 15.71875 
Q 51.171875 7.171875 45.375 2.875 
Q 39.59375 -1.421875 30.171875 -1.421875 
Q 18.796875 -1.421875 11.890625 6.078125 
Q 4.984375 13.578125 4.984375 25.984375 
Q 4.984375 38.28125 11.765625 45.796875 
Q 18.5625 53.328125 29.59375 53.328125 
Q 41.359375 53.328125 47.65625 46.0625 
Q 53.953125 38.8125 54.203125 25 
z
M 43.609375 30.171875 
Q 43.3125 39.265625 39.765625 43.875 
Q 36.234375 48.484375 29.59375 48.484375 
Q 23.390625 48.484375 19.828125 43.84375 
Q 16.265625 39.203125 15.484375 30.171875 
z
" id="DejaVuSerif-101"/>
      <path d="M 52.484375 46.6875 
L 52.484375 1.125 
Q 52.484375 -10.0625 46.328125 -16.140625 
Q 40.1875 -22.21875 28.8125 -22.21875 
Q 23.6875 -22.21875 19 -21.28125 
Q 14.3125 -20.359375 10.015625 -18.5 
L 10.015625 -7.625 
L 14.703125 -7.625 
Q 15.578125 -12.703125 18.84375 -15.046875 
Q 22.125 -17.390625 28.21875 -17.390625 
Q 36.140625 -17.390625 39.8125 -12.921875 
Q 43.5 -8.453125 43.5 1.125 
L 43.5 8.109375 
Q 40.875 3.21875 36.796875 0.890625 
Q 32.71875 -1.421875 26.703125 -1.421875 
Q 17.140625 -1.421875 11.0625 6.171875 
Q 4.984375 13.765625 4.984375 25.984375 
Q 4.984375 38.1875 11.03125 45.75 
Q 17.09375 53.328125 26.703125 53.328125 
Q 32.71875 53.328125 36.796875 51 
Q 40.875 48.6875 43.5 43.796875 
L 43.5 51.90625 
L 61.078125 51.90625 
L 61.078125 46.6875 
z
M 43.5 28.515625 
Q 43.5 37.84375 39.90625 42.765625 
Q 36.328125 47.703125 29.5 47.703125 
Q 22.5625 47.703125 19.015625 42.234375 
Q 15.484375 36.765625 15.484375 25.984375 
Q 15.484375 15.234375 19.015625 9.71875 
Q 22.5625 4.203125 29.5 4.203125 
Q 36.328125 4.203125 39.90625 9.109375 
Q 43.5 14.015625 43.5 23.390625 
z
" id="DejaVuSerif-103"/>
      <path d="M 5.609375 2.875 
L 5.609375 14.984375 
L 10.796875 14.984375 
Q 10.984375 9.1875 14.421875 6.296875 
Q 17.875 3.421875 24.609375 3.421875 
Q 30.671875 3.421875 33.84375 5.6875 
Q 37.015625 7.953125 37.015625 12.3125 
Q 37.015625 15.71875 34.6875 17.8125 
Q 32.375 19.921875 24.90625 22.3125 
L 18.40625 24.515625 
Q 11.71875 26.65625 8.71875 29.875 
Q 5.71875 33.109375 5.71875 38.09375 
Q 5.71875 45.21875 10.9375 49.265625 
Q 16.15625 53.328125 25.390625 53.328125 
Q 29.5 53.328125 34.03125 52.25 
Q 38.578125 51.171875 43.40625 49.125 
L 43.40625 37.796875 
L 38.234375 37.796875 
Q 38.03125 42.828125 34.703125 45.65625 
Q 31.390625 48.484375 25.6875 48.484375 
Q 20.015625 48.484375 17.109375 46.484375 
Q 14.203125 44.484375 14.203125 40.484375 
Q 14.203125 37.203125 16.40625 35.21875 
Q 18.609375 33.25 25.203125 31.203125 
L 32.328125 29 
Q 39.703125 26.703125 42.9375 23.265625 
Q 46.1875 19.828125 46.1875 14.40625 
Q 46.1875 7.03125 40.546875 2.796875 
Q 34.90625 -1.421875 25 -1.421875 
Q 19.96875 -1.421875 15.1875 -0.34375 
Q 10.40625 0.734375 5.609375 2.875 
z
" id="DejaVuSerif-115"/>
      <path d="M 9.71875 68.015625 
Q 9.71875 70.265625 11.34375 71.921875 
Q 12.984375 73.578125 15.28125 73.578125 
Q 17.53125 73.578125 19.15625 71.921875 
Q 20.796875 70.265625 20.796875 68.015625 
Q 20.796875 65.71875 19.1875 64.109375 
Q 17.578125 62.5 15.28125 62.5 
Q 12.984375 62.5 11.34375 64.109375 
Q 9.71875 65.71875 9.71875 68.015625 
z
M 21.1875 5.171875 
L 29.6875 5.171875 
L 29.6875 0 
L 3.609375 0 
L 3.609375 5.171875 
L 12.203125 5.171875 
L 12.203125 46.6875 
L 3.609375 46.6875 
L 3.609375 51.90625 
L 21.1875 51.90625 
z
" id="DejaVuSerif-105"/>
      <path d="M 30.078125 3.421875 
Q 37.3125 3.421875 40.984375 9.125 
Q 44.671875 14.84375 44.671875 25.984375 
Q 44.671875 37.109375 40.984375 42.796875 
Q 37.3125 48.484375 30.078125 48.484375 
Q 22.859375 48.484375 19.171875 42.796875 
Q 15.484375 37.109375 15.484375 25.984375 
Q 15.484375 14.84375 19.1875 9.125 
Q 22.90625 3.421875 30.078125 3.421875 
z
M 30.078125 -1.421875 
Q 18.75 -1.421875 11.859375 6.078125 
Q 4.984375 13.578125 4.984375 25.984375 
Q 4.984375 38.375 11.84375 45.84375 
Q 18.703125 53.328125 30.078125 53.328125 
Q 41.453125 53.328125 48.3125 45.84375 
Q 55.171875 38.375 55.171875 25.984375 
Q 55.171875 13.578125 48.3125 6.078125 
Q 41.453125 -1.421875 30.078125 -1.421875 
z
" id="DejaVuSerif-111"/>
      <path d="M 4.109375 0 
L 4.109375 5.171875 
L 12.203125 5.171875 
L 12.203125 46.6875 
L 3.609375 46.6875 
L 3.609375 51.90625 
L 21.1875 51.90625 
L 21.1875 42.671875 
Q 23.6875 47.953125 27.65625 50.640625 
Q 31.640625 53.328125 36.921875 53.328125 
Q 45.515625 53.328125 49.5625 48.390625 
Q 53.609375 43.453125 53.609375 33.015625 
L 53.609375 5.171875 
L 61.625 5.171875 
L 61.625 0 
L 36.8125 0 
L 36.8125 5.171875 
L 44.578125 5.171875 
L 44.578125 30.171875 
Q 44.578125 39.703125 42.234375 43.234375 
Q 39.890625 46.78125 33.984375 46.78125 
Q 27.734375 46.78125 24.453125 42.203125 
Q 21.1875 37.640625 21.1875 28.90625 
L 21.1875 5.171875 
L 29 5.171875 
L 29 0 
z
" id="DejaVuSerif-110"/>
     </defs>
     <g style="fill:#262626;" transform="translate(80.588125 38.476563)scale(0.1 -0.1)">
      <use xlink:href="#DejaVuSerif-114"/>
      <use x="47.802734" xlink:href="#DejaVuSerif-101"/>
      <use x="106.982422" xlink:href="#DejaVuSerif-103"/>
      <use x="170.996094" xlink:href="#DejaVuSerif-114"/>
      <use x="218.798828" xlink:href="#DejaVuSerif-101"/>
      <use x="277.978516" xlink:href="#DejaVuSerif-115"/>
      <use x="329.296875" xlink:href="#DejaVuSerif-115"/>
      <use x="380.615234" xlink:href="#DejaVuSerif-105"/>
      <use x="412.597656" xlink:href="#DejaVuSerif-111"/>
      <use x="472.802734" xlink:href="#DejaVuSerif-110"/>
     </g>
    </g>
    <g id="line2d_36"/>
    <g id="line2d_37">
     <g>
      <use style="fill:#008000;" x="62.588125" xlink:href="#me84d31c0ae" y="49.796875"/>
     </g>
    </g>
    <g id="text_19">
     <!-- yn -->
     <defs>
      <path d="M 21.578125 -9.515625 
L 25 -0.875 
L 5.609375 46.6875 
L -0.296875 46.6875 
L -0.296875 51.90625 
L 23.578125 51.90625 
L 23.578125 46.6875 
L 15.28125 46.6875 
L 29.890625 10.984375 
L 44.484375 46.6875 
L 36.71875 46.6875 
L 36.71875 51.90625 
L 56.203125 51.90625 
L 56.203125 46.6875 
L 50.390625 46.6875 
L 26.609375 -11.71875 
Q 24.171875 -17.78125 21.1875 -20 
Q 18.21875 -22.21875 12.796875 -22.21875 
Q 10.5 -22.21875 8.078125 -21.828125 
Q 5.671875 -21.4375 3.21875 -20.703125 
L 3.21875 -10.796875 
L 7.8125 -10.796875 
Q 8.109375 -14.109375 9.5 -15.546875 
Q 10.890625 -17 13.8125 -17 
Q 16.5 -17 18.140625 -15.5 
Q 19.78125 -14.015625 21.578125 -9.515625 
z
" id="DejaVuSerif-121"/>
     </defs>
     <g style="fill:#262626;" transform="translate(80.588125 53.296875)scale(0.1 -0.1)">
      <use xlink:href="#DejaVuSerif-121"/>
      <use x="56.494141" xlink:href="#DejaVuSerif-110"/>
     </g>
    </g>
   </g>
  </g>
 </g>
 <defs>
  <clipPath id="pe4c0d01c2e">
   <rect height="326.16" width="502.2" x="43.588125" y="7.2"/>
  </clipPath>
 </defs>
</svg>
