<?xml version="1.0" encoding="utf-8" standalone="no"?>
<!DOCTYPE svg PUBLIC "-//W3C//DTD SVG 1.1//EN"
  "http://www.w3.org/Graphics/SVG/1.1/DTD/svg11.dtd">
<!-- Created with matplotlib (https://matplotlib.org/) -->
<svg height="358.303438pt" version="1.1" viewBox="0 0 512.700598 358.303438" width="512.700598pt" xmlns="http://www.w3.org/2000/svg" xmlns:xlink="http://www.w3.org/1999/xlink">
 <defs>
  <style type="text/css">
*{stroke-linecap:butt;stroke-linejoin:round;}
  </style>
 </defs>
 <g id="figure_1">
  <g id="patch_1">
   <path d="M 0 358.303438 
L 512.700598 358.303438 
L 512.700598 0 
L 0 0 
z
" style="fill:#ffffff;"/>
  </g>
  <g id="axes_1">
   <g id="patch_2">
    <path d="M 56.3275 320.769375 
L 259.236591 320.769375 
L 259.236591 21.789375 
L 56.3275 21.789375 
z
" style="fill:#eaeaf2;"/>
   </g>
   <g id="matplotlib.axis_1">
    <g id="xtick_1">
     <g id="line2d_1">
      <path clip-path="url(#p79fe6889f7)" d="M 72.559787 320.769375 
L 72.559787 21.789375 
" style="fill:none;stroke:#ffffff;stroke-linecap:round;"/>
     </g>
     <g id="line2d_2"/>
     <g id="text_1">
      <!-- 50 -->
      <defs>
       <path d="M 4.15625 18.75 
L 13.375 19.53125 
Q 14.40625 12.796875 18.140625 9.390625 
Q 21.875 6 27.15625 6 
Q 33.5 6 37.890625 10.78125 
Q 42.28125 15.578125 42.28125 23.484375 
Q 42.28125 31 38.0625 35.34375 
Q 33.84375 39.703125 27 39.703125 
Q 22.75 39.703125 19.328125 37.765625 
Q 15.921875 35.84375 13.96875 32.765625 
L 5.71875 33.84375 
L 12.640625 70.609375 
L 48.25 70.609375 
L 48.25 62.203125 
L 19.671875 62.203125 
L 15.828125 42.96875 
Q 22.265625 47.46875 29.34375 47.46875 
Q 38.71875 47.46875 45.15625 40.96875 
Q 51.609375 34.46875 51.609375 24.265625 
Q 51.609375 14.546875 45.953125 7.46875 
Q 39.0625 -1.21875 27.15625 -1.21875 
Q 17.390625 -1.21875 11.203125 4.25 
Q 5.03125 9.71875 4.15625 18.75 
z
" id="ArialMT-53"/>
       <path d="M 4.15625 35.296875 
Q 4.15625 48 6.765625 55.734375 
Q 9.375 63.484375 14.515625 67.671875 
Q 19.671875 71.875 27.484375 71.875 
Q 33.25 71.875 37.59375 69.546875 
Q 41.9375 67.234375 44.765625 62.859375 
Q 47.609375 58.5 49.21875 52.21875 
Q 50.828125 45.953125 50.828125 35.296875 
Q 50.828125 22.703125 48.234375 14.96875 
Q 45.65625 7.234375 40.5 3 
Q 35.359375 -1.21875 27.484375 -1.21875 
Q 17.140625 -1.21875 11.234375 6.203125 
Q 4.15625 15.140625 4.15625 35.296875 
z
M 13.1875 35.296875 
Q 13.1875 17.671875 17.3125 11.828125 
Q 21.4375 6 27.484375 6 
Q 33.546875 6 37.671875 11.859375 
Q 41.796875 17.71875 41.796875 35.296875 
Q 41.796875 52.984375 37.671875 58.78125 
Q 33.546875 64.59375 27.390625 64.59375 
Q 21.34375 64.59375 17.71875 59.46875 
Q 13.1875 52.9375 13.1875 35.296875 
z
" id="ArialMT-48"/>
      </defs>
      <g style="fill:#262626;" transform="translate(66.99885 334.927188)scale(0.1 -0.1)">
       <use xlink:href="#ArialMT-53"/>
       <use x="55.615234" xlink:href="#ArialMT-48"/>
      </g>
     </g>
    </g>
    <g id="xtick_2">
     <g id="line2d_3">
      <path clip-path="url(#p79fe6889f7)" d="M 120.890069 320.769375 
L 120.890069 21.789375 
" style="fill:none;stroke:#ffffff;stroke-linecap:round;"/>
     </g>
     <g id="line2d_4"/>
     <g id="text_2">
      <!-- 100 -->
      <defs>
       <path d="M 37.25 0 
L 28.46875 0 
L 28.46875 56 
Q 25.296875 52.984375 20.140625 49.953125 
Q 14.984375 46.921875 10.890625 45.40625 
L 10.890625 53.90625 
Q 18.265625 57.375 23.78125 62.296875 
Q 29.296875 67.234375 31.59375 71.875 
L 37.25 71.875 
z
" id="ArialMT-49"/>
      </defs>
      <g style="fill:#262626;" transform="translate(112.548663 334.927188)scale(0.1 -0.1)">
       <use xlink:href="#ArialMT-49"/>
       <use x="55.615234" xlink:href="#ArialMT-48"/>
       <use x="111.230469" xlink:href="#ArialMT-48"/>
      </g>
     </g>
    </g>
    <g id="xtick_3">
     <g id="line2d_5">
      <path clip-path="url(#p79fe6889f7)" d="M 169.220351 320.769375 
L 169.220351 21.789375 
" style="fill:none;stroke:#ffffff;stroke-linecap:round;"/>
     </g>
     <g id="line2d_6"/>
     <g id="text_3">
      <!-- 150 -->
      <g style="fill:#262626;" transform="translate(160.878944 334.927188)scale(0.1 -0.1)">
       <use xlink:href="#ArialMT-49"/>
       <use x="55.615234" xlink:href="#ArialMT-53"/>
       <use x="111.230469" xlink:href="#ArialMT-48"/>
      </g>
     </g>
    </g>
    <g id="xtick_4">
     <g id="line2d_7">
      <path clip-path="url(#p79fe6889f7)" d="M 217.550632 320.769375 
L 217.550632 21.789375 
" style="fill:none;stroke:#ffffff;stroke-linecap:round;"/>
     </g>
     <g id="line2d_8"/>
     <g id="text_4">
      <!-- 200 -->
      <defs>
       <path d="M 50.34375 8.453125 
L 50.34375 0 
L 3.03125 0 
Q 2.9375 3.171875 4.046875 6.109375 
Q 5.859375 10.9375 9.828125 15.625 
Q 13.8125 20.3125 21.34375 26.46875 
Q 33.015625 36.03125 37.109375 41.625 
Q 41.21875 47.21875 41.21875 52.203125 
Q 41.21875 57.421875 37.46875 61 
Q 33.734375 64.59375 27.734375 64.59375 
Q 21.390625 64.59375 17.578125 60.78125 
Q 13.765625 56.984375 13.71875 50.25 
L 4.6875 51.171875 
Q 5.609375 61.28125 11.65625 66.578125 
Q 17.71875 71.875 27.9375 71.875 
Q 38.234375 71.875 44.234375 66.15625 
Q 50.25 60.453125 50.25 52 
Q 50.25 47.703125 48.484375 43.546875 
Q 46.734375 39.40625 42.65625 34.8125 
Q 38.578125 30.21875 29.109375 22.21875 
Q 21.1875 15.578125 18.9375 13.203125 
Q 16.703125 10.84375 15.234375 8.453125 
z
" id="ArialMT-50"/>
      </defs>
      <g style="fill:#262626;" transform="translate(209.209226 334.927188)scale(0.1 -0.1)">
       <use xlink:href="#ArialMT-50"/>
       <use x="55.615234" xlink:href="#ArialMT-48"/>
       <use x="111.230469" xlink:href="#ArialMT-48"/>
      </g>
     </g>
    </g>
    <g id="text_5">
     <!-- index level -->
     <defs>
      <path d="M 6.640625 61.46875 
L 6.640625 71.578125 
L 15.4375 71.578125 
L 15.4375 61.46875 
z
M 6.640625 0 
L 6.640625 51.859375 
L 15.4375 51.859375 
L 15.4375 0 
z
" id="ArialMT-105"/>
      <path d="M 6.59375 0 
L 6.59375 51.859375 
L 14.5 51.859375 
L 14.5 44.484375 
Q 20.21875 53.03125 31 53.03125 
Q 35.6875 53.03125 39.625 51.34375 
Q 43.5625 49.65625 45.515625 46.921875 
Q 47.46875 44.1875 48.25 40.4375 
Q 48.734375 37.984375 48.734375 31.890625 
L 48.734375 0 
L 39.9375 0 
L 39.9375 31.546875 
Q 39.9375 36.921875 38.90625 39.578125 
Q 37.890625 42.234375 35.28125 43.8125 
Q 32.671875 45.40625 29.15625 45.40625 
Q 23.53125 45.40625 19.453125 41.84375 
Q 15.375 38.28125 15.375 28.328125 
L 15.375 0 
z
" id="ArialMT-110"/>
      <path d="M 40.234375 0 
L 40.234375 6.546875 
Q 35.296875 -1.171875 25.734375 -1.171875 
Q 19.53125 -1.171875 14.328125 2.25 
Q 9.125 5.671875 6.265625 11.796875 
Q 3.421875 17.921875 3.421875 25.875 
Q 3.421875 33.640625 6 39.96875 
Q 8.59375 46.296875 13.765625 49.65625 
Q 18.953125 53.03125 25.34375 53.03125 
Q 30.03125 53.03125 33.6875 51.046875 
Q 37.359375 49.078125 39.65625 45.90625 
L 39.65625 71.578125 
L 48.390625 71.578125 
L 48.390625 0 
z
M 12.453125 25.875 
Q 12.453125 15.921875 16.640625 10.984375 
Q 20.84375 6.0625 26.5625 6.0625 
Q 32.328125 6.0625 36.34375 10.765625 
Q 40.375 15.484375 40.375 25.140625 
Q 40.375 35.796875 36.265625 40.765625 
Q 32.171875 45.75 26.171875 45.75 
Q 20.3125 45.75 16.375 40.96875 
Q 12.453125 36.1875 12.453125 25.875 
z
" id="ArialMT-100"/>
      <path d="M 42.09375 16.703125 
L 51.171875 15.578125 
Q 49.03125 7.625 43.21875 3.21875 
Q 37.40625 -1.171875 28.375 -1.171875 
Q 17 -1.171875 10.328125 5.828125 
Q 3.65625 12.84375 3.65625 25.484375 
Q 3.65625 38.578125 10.390625 45.796875 
Q 17.140625 53.03125 27.875 53.03125 
Q 38.28125 53.03125 44.875 45.953125 
Q 51.46875 38.875 51.46875 26.03125 
Q 51.46875 25.25 51.421875 23.6875 
L 12.75 23.6875 
Q 13.234375 15.140625 17.578125 10.59375 
Q 21.921875 6.0625 28.421875 6.0625 
Q 33.25 6.0625 36.671875 8.59375 
Q 40.09375 11.140625 42.09375 16.703125 
z
M 13.234375 30.90625 
L 42.1875 30.90625 
Q 41.609375 37.453125 38.875 40.71875 
Q 34.671875 45.796875 27.984375 45.796875 
Q 21.921875 45.796875 17.796875 41.75 
Q 13.671875 37.703125 13.234375 30.90625 
z
" id="ArialMT-101"/>
      <path d="M 0.734375 0 
L 19.671875 26.953125 
L 2.15625 51.859375 
L 13.140625 51.859375 
L 21.09375 39.703125 
Q 23.34375 36.234375 24.703125 33.890625 
Q 26.859375 37.109375 28.65625 39.59375 
L 37.40625 51.859375 
L 47.90625 51.859375 
L 29.984375 27.4375 
L 49.265625 0 
L 38.484375 0 
L 27.828125 16.109375 
L 25 20.453125 
L 11.375 0 
z
" id="ArialMT-120"/>
      <path id="ArialMT-32"/>
      <path d="M 6.390625 0 
L 6.390625 71.578125 
L 15.1875 71.578125 
L 15.1875 0 
z
" id="ArialMT-108"/>
      <path d="M 21 0 
L 1.265625 51.859375 
L 10.546875 51.859375 
L 21.6875 20.796875 
Q 23.484375 15.765625 25 10.359375 
Q 26.171875 14.453125 28.265625 20.21875 
L 39.796875 51.859375 
L 48.828125 51.859375 
L 29.203125 0 
z
" id="ArialMT-118"/>
     </defs>
     <g style="fill:#262626;" transform="translate(131.795405 348.788281)scale(0.11 -0.11)">
      <use xlink:href="#ArialMT-105"/>
      <use x="22.216797" xlink:href="#ArialMT-110"/>
      <use x="77.832031" xlink:href="#ArialMT-100"/>
      <use x="133.447266" xlink:href="#ArialMT-101"/>
      <use x="189.0625" xlink:href="#ArialMT-120"/>
      <use x="239.0625" xlink:href="#ArialMT-32"/>
      <use x="266.845703" xlink:href="#ArialMT-108"/>
      <use x="289.0625" xlink:href="#ArialMT-101"/>
      <use x="344.677734" xlink:href="#ArialMT-118"/>
      <use x="394.677734" xlink:href="#ArialMT-101"/>
      <use x="450.292969" xlink:href="#ArialMT-108"/>
     </g>
    </g>
   </g>
   <g id="matplotlib.axis_2">
    <g id="ytick_1">
     <g id="line2d_9">
      <path clip-path="url(#p79fe6889f7)" d="M 56.3275 320.769375 
L 259.236591 320.769375 
" style="fill:none;stroke:#ffffff;stroke-linecap:round;"/>
     </g>
     <g id="line2d_10"/>
     <g id="text_6">
      <!-- 0 -->
      <g style="fill:#262626;" transform="translate(43.766562 324.348281)scale(0.1 -0.1)">
       <use xlink:href="#ArialMT-48"/>
      </g>
     </g>
    </g>
    <g id="ytick_2">
     <g id="line2d_11">
      <path clip-path="url(#p79fe6889f7)" d="M 56.3275 274.949528 
L 259.236591 274.949528 
" style="fill:none;stroke:#ffffff;stroke-linecap:round;"/>
     </g>
     <g id="line2d_12"/>
     <g id="text_7">
      <!-- 5000 -->
      <g style="fill:#262626;" transform="translate(27.08375 278.528434)scale(0.1 -0.1)">
       <use xlink:href="#ArialMT-53"/>
       <use x="55.615234" xlink:href="#ArialMT-48"/>
       <use x="111.230469" xlink:href="#ArialMT-48"/>
       <use x="166.845703" xlink:href="#ArialMT-48"/>
      </g>
     </g>
    </g>
    <g id="ytick_3">
     <g id="line2d_13">
      <path clip-path="url(#p79fe6889f7)" d="M 56.3275 229.129681 
L 259.236591 229.129681 
" style="fill:none;stroke:#ffffff;stroke-linecap:round;"/>
     </g>
     <g id="line2d_14"/>
     <g id="text_8">
      <!-- 10000 -->
      <g style="fill:#262626;" transform="translate(21.522813 232.708587)scale(0.1 -0.1)">
       <use xlink:href="#ArialMT-49"/>
       <use x="55.615234" xlink:href="#ArialMT-48"/>
       <use x="111.230469" xlink:href="#ArialMT-48"/>
       <use x="166.845703" xlink:href="#ArialMT-48"/>
       <use x="222.460938" xlink:href="#ArialMT-48"/>
      </g>
     </g>
    </g>
    <g id="ytick_4">
     <g id="line2d_15">
      <path clip-path="url(#p79fe6889f7)" d="M 56.3275 183.309834 
L 259.236591 183.309834 
" style="fill:none;stroke:#ffffff;stroke-linecap:round;"/>
     </g>
     <g id="line2d_16"/>
     <g id="text_9">
      <!-- 15000 -->
      <g style="fill:#262626;" transform="translate(21.522813 186.88874)scale(0.1 -0.1)">
       <use xlink:href="#ArialMT-49"/>
       <use x="55.615234" xlink:href="#ArialMT-53"/>
       <use x="111.230469" xlink:href="#ArialMT-48"/>
       <use x="166.845703" xlink:href="#ArialMT-48"/>
       <use x="222.460938" xlink:href="#ArialMT-48"/>
      </g>
     </g>
    </g>
    <g id="ytick_5">
     <g id="line2d_17">
      <path clip-path="url(#p79fe6889f7)" d="M 56.3275 137.489987 
L 259.236591 137.489987 
" style="fill:none;stroke:#ffffff;stroke-linecap:round;"/>
     </g>
     <g id="line2d_18"/>
     <g id="text_10">
      <!-- 20000 -->
      <g style="fill:#262626;" transform="translate(21.522813 141.068893)scale(0.1 -0.1)">
       <use xlink:href="#ArialMT-50"/>
       <use x="55.615234" xlink:href="#ArialMT-48"/>
       <use x="111.230469" xlink:href="#ArialMT-48"/>
       <use x="166.845703" xlink:href="#ArialMT-48"/>
       <use x="222.460938" xlink:href="#ArialMT-48"/>
      </g>
     </g>
    </g>
    <g id="ytick_6">
     <g id="line2d_19">
      <path clip-path="url(#p79fe6889f7)" d="M 56.3275 91.67014 
L 259.236591 91.67014 
" style="fill:none;stroke:#ffffff;stroke-linecap:round;"/>
     </g>
     <g id="line2d_20"/>
     <g id="text_11">
      <!-- 25000 -->
      <g style="fill:#262626;" transform="translate(21.522813 95.249046)scale(0.1 -0.1)">
       <use xlink:href="#ArialMT-50"/>
       <use x="55.615234" xlink:href="#ArialMT-53"/>
       <use x="111.230469" xlink:href="#ArialMT-48"/>
       <use x="166.845703" xlink:href="#ArialMT-48"/>
       <use x="222.460938" xlink:href="#ArialMT-48"/>
      </g>
     </g>
    </g>
    <g id="ytick_7">
     <g id="line2d_21">
      <path clip-path="url(#p79fe6889f7)" d="M 56.3275 45.850293 
L 259.236591 45.850293 
" style="fill:none;stroke:#ffffff;stroke-linecap:round;"/>
     </g>
     <g id="line2d_22"/>
     <g id="text_12">
      <!-- 30000 -->
      <defs>
       <path d="M 4.203125 18.890625 
L 12.984375 20.0625 
Q 14.5 12.59375 18.140625 9.296875 
Q 21.78125 6 27 6 
Q 33.203125 6 37.46875 10.296875 
Q 41.75 14.59375 41.75 20.953125 
Q 41.75 27 37.796875 30.921875 
Q 33.84375 34.859375 27.734375 34.859375 
Q 25.25 34.859375 21.53125 33.890625 
L 22.515625 41.609375 
Q 23.390625 41.5 23.921875 41.5 
Q 29.546875 41.5 34.03125 44.421875 
Q 38.53125 47.359375 38.53125 53.46875 
Q 38.53125 58.296875 35.25 61.46875 
Q 31.984375 64.65625 26.8125 64.65625 
Q 21.6875 64.65625 18.265625 61.421875 
Q 14.84375 58.203125 13.875 51.765625 
L 5.078125 53.328125 
Q 6.6875 62.15625 12.390625 67.015625 
Q 18.109375 71.875 26.609375 71.875 
Q 32.46875 71.875 37.390625 69.359375 
Q 42.328125 66.84375 44.9375 62.5 
Q 47.5625 58.15625 47.5625 53.265625 
Q 47.5625 48.640625 45.0625 44.828125 
Q 42.578125 41.015625 37.703125 38.765625 
Q 44.046875 37.3125 47.5625 32.6875 
Q 51.078125 28.078125 51.078125 21.140625 
Q 51.078125 11.765625 44.234375 5.25 
Q 37.40625 -1.265625 26.953125 -1.265625 
Q 17.53125 -1.265625 11.296875 4.34375 
Q 5.078125 9.96875 4.203125 18.890625 
z
" id="ArialMT-51"/>
      </defs>
      <g style="fill:#262626;" transform="translate(21.522813 49.429199)scale(0.1 -0.1)">
       <use xlink:href="#ArialMT-51"/>
       <use x="55.615234" xlink:href="#ArialMT-48"/>
       <use x="111.230469" xlink:href="#ArialMT-48"/>
       <use x="166.845703" xlink:href="#ArialMT-48"/>
       <use x="222.460938" xlink:href="#ArialMT-48"/>
      </g>
     </g>
    </g>
    <g id="text_13">
     <!-- frequency -->
     <defs>
      <path d="M 8.6875 0 
L 8.6875 45.015625 
L 0.921875 45.015625 
L 0.921875 51.859375 
L 8.6875 51.859375 
L 8.6875 57.375 
Q 8.6875 62.59375 9.625 65.140625 
Q 10.890625 68.5625 14.078125 70.671875 
Q 17.28125 72.796875 23.046875 72.796875 
Q 26.765625 72.796875 31.25 71.921875 
L 29.9375 64.265625 
Q 27.203125 64.75 24.75 64.75 
Q 20.75 64.75 19.09375 63.03125 
Q 17.4375 61.328125 17.4375 56.640625 
L 17.4375 51.859375 
L 27.546875 51.859375 
L 27.546875 45.015625 
L 17.4375 45.015625 
L 17.4375 0 
z
" id="ArialMT-102"/>
      <path d="M 6.5 0 
L 6.5 51.859375 
L 14.40625 51.859375 
L 14.40625 44 
Q 17.4375 49.515625 20 51.265625 
Q 22.5625 53.03125 25.640625 53.03125 
Q 30.078125 53.03125 34.671875 50.203125 
L 31.640625 42.046875 
Q 28.421875 43.953125 25.203125 43.953125 
Q 22.3125 43.953125 20.015625 42.21875 
Q 17.71875 40.484375 16.75 37.40625 
Q 15.28125 32.71875 15.28125 27.15625 
L 15.28125 0 
z
" id="ArialMT-114"/>
      <path d="M 39.65625 -19.875 
L 39.65625 5.515625 
Q 37.59375 2.640625 33.90625 0.734375 
Q 30.21875 -1.171875 26.078125 -1.171875 
Q 16.84375 -1.171875 10.171875 6.203125 
Q 3.515625 13.578125 3.515625 26.421875 
Q 3.515625 34.234375 6.21875 40.421875 
Q 8.9375 46.625 14.078125 49.828125 
Q 19.234375 53.03125 25.390625 53.03125 
Q 35.015625 53.03125 40.53125 44.921875 
L 40.53125 51.859375 
L 48.4375 51.859375 
L 48.4375 -19.875 
z
M 12.546875 26.078125 
Q 12.546875 16.0625 16.75 11.0625 
Q 20.953125 6.0625 26.8125 6.0625 
Q 32.421875 6.0625 36.46875 10.8125 
Q 40.53125 15.578125 40.53125 25.296875 
Q 40.53125 35.640625 36.25 40.859375 
Q 31.984375 46.09375 26.21875 46.09375 
Q 20.515625 46.09375 16.53125 41.234375 
Q 12.546875 36.375 12.546875 26.078125 
z
" id="ArialMT-113"/>
      <path d="M 40.578125 0 
L 40.578125 7.625 
Q 34.515625 -1.171875 24.125 -1.171875 
Q 19.53125 -1.171875 15.546875 0.578125 
Q 11.578125 2.34375 9.640625 5 
Q 7.71875 7.671875 6.9375 11.53125 
Q 6.390625 14.109375 6.390625 19.734375 
L 6.390625 51.859375 
L 15.1875 51.859375 
L 15.1875 23.09375 
Q 15.1875 16.21875 15.71875 13.8125 
Q 16.546875 10.359375 19.234375 8.375 
Q 21.921875 6.390625 25.875 6.390625 
Q 29.828125 6.390625 33.296875 8.421875 
Q 36.765625 10.453125 38.203125 13.9375 
Q 39.65625 17.4375 39.65625 24.078125 
L 39.65625 51.859375 
L 48.4375 51.859375 
L 48.4375 0 
z
" id="ArialMT-117"/>
      <path d="M 40.4375 19 
L 49.078125 17.875 
Q 47.65625 8.9375 41.8125 3.875 
Q 35.984375 -1.171875 27.484375 -1.171875 
Q 16.84375 -1.171875 10.375 5.78125 
Q 3.90625 12.75 3.90625 25.734375 
Q 3.90625 34.125 6.6875 40.421875 
Q 9.46875 46.734375 15.15625 49.875 
Q 20.84375 53.03125 27.546875 53.03125 
Q 35.984375 53.03125 41.359375 48.75 
Q 46.734375 44.484375 48.25 36.625 
L 39.703125 35.296875 
Q 38.484375 40.53125 35.375 43.15625 
Q 32.28125 45.796875 27.875 45.796875 
Q 21.234375 45.796875 17.078125 41.03125 
Q 12.9375 36.28125 12.9375 25.984375 
Q 12.9375 15.53125 16.9375 10.796875 
Q 20.953125 6.0625 27.390625 6.0625 
Q 32.5625 6.0625 36.03125 9.234375 
Q 39.5 12.40625 40.4375 19 
z
" id="ArialMT-99"/>
      <path d="M 6.203125 -19.96875 
L 5.21875 -11.71875 
Q 8.109375 -12.5 10.25 -12.5 
Q 13.1875 -12.5 14.9375 -11.515625 
Q 16.703125 -10.546875 17.828125 -8.796875 
Q 18.65625 -7.46875 20.515625 -2.25 
Q 20.75 -1.515625 21.296875 -0.09375 
L 1.609375 51.859375 
L 11.078125 51.859375 
L 21.875 21.828125 
Q 23.96875 16.109375 25.640625 9.8125 
Q 27.15625 15.875 29.25 21.625 
L 40.328125 51.859375 
L 49.125 51.859375 
L 29.390625 -0.875 
Q 26.21875 -9.421875 24.46875 -12.640625 
Q 22.125 -17 19.09375 -19.015625 
Q 16.0625 -21.046875 11.859375 -21.046875 
Q 9.328125 -21.046875 6.203125 -19.96875 
z
" id="ArialMT-121"/>
     </defs>
     <g style="fill:#262626;" transform="translate(15.207656 195.43125)rotate(-90)scale(0.11 -0.11)">
      <use xlink:href="#ArialMT-102"/>
      <use x="27.783203" xlink:href="#ArialMT-114"/>
      <use x="61.083984" xlink:href="#ArialMT-101"/>
      <use x="116.699219" xlink:href="#ArialMT-113"/>
      <use x="172.314453" xlink:href="#ArialMT-117"/>
      <use x="227.929688" xlink:href="#ArialMT-101"/>
      <use x="283.544922" xlink:href="#ArialMT-110"/>
      <use x="339.160156" xlink:href="#ArialMT-99"/>
      <use x="389.160156" xlink:href="#ArialMT-121"/>
     </g>
    </g>
   </g>
   <g id="patch_3">
    <path clip-path="url(#p79fe6889f7)" d="M 65.55064 320.769375 
L 71.699401 320.769375 
L 71.699401 320.558604 
L 65.55064 320.558604 
z
" style="fill:#4c72b0;"/>
   </g>
   <g id="patch_4">
    <path clip-path="url(#p79fe6889f7)" d="M 71.699401 320.769375 
L 77.848161 320.769375 
L 77.848161 318.734974 
L 71.699401 318.734974 
z
" style="fill:#4c72b0;"/>
   </g>
   <g id="patch_5">
    <path clip-path="url(#p79fe6889f7)" d="M 77.848161 320.769375 
L 83.996921 320.769375 
L 83.996921 310.734829 
L 77.848161 310.734829 
z
" style="fill:#4c72b0;"/>
   </g>
   <g id="patch_6">
    <path clip-path="url(#p79fe6889f7)" d="M 83.996921 320.769375 
L 90.145682 320.769375 
L 90.145682 288.448055 
L 83.996921 288.448055 
z
" style="fill:#4c72b0;"/>
   </g>
   <g id="patch_7">
    <path clip-path="url(#p79fe6889f7)" d="M 90.145682 320.769375 
L 96.294442 320.769375 
L 96.294442 244.745085 
L 90.145682 244.745085 
z
" style="fill:#4c72b0;"/>
   </g>
   <g id="patch_8">
    <path clip-path="url(#p79fe6889f7)" d="M 96.294442 320.769375 
L 102.443202 320.769375 
L 102.443202 181.321253 
L 96.294442 181.321253 
z
" style="fill:#4c72b0;"/>
   </g>
   <g id="patch_9">
    <path clip-path="url(#p79fe6889f7)" d="M 102.443202 320.769375 
L 108.591963 320.769375 
L 108.591963 115.285689 
L 102.443202 115.285689 
z
" style="fill:#4c72b0;"/>
   </g>
   <g id="patch_10">
    <path clip-path="url(#p79fe6889f7)" d="M 108.591963 320.769375 
L 114.740723 320.769375 
L 114.740723 61.84142 
L 108.591963 61.84142 
z
" style="fill:#4c72b0;"/>
   </g>
   <g id="patch_11">
    <path clip-path="url(#p79fe6889f7)" d="M 114.740723 320.769375 
L 120.889483 320.769375 
L 120.889483 39.444678 
L 114.740723 39.444678 
z
" style="fill:#4c72b0;"/>
   </g>
   <g id="patch_12">
    <path clip-path="url(#p79fe6889f7)" d="M 120.889483 320.769375 
L 127.038244 320.769375 
L 127.038244 36.026518 
L 120.889483 36.026518 
z
" style="fill:#4c72b0;"/>
   </g>
   <g id="patch_13">
    <path clip-path="url(#p79fe6889f7)" d="M 127.038244 320.769375 
L 133.187004 320.769375 
L 133.187004 67.422277 
L 127.038244 67.422277 
z
" style="fill:#4c72b0;"/>
   </g>
   <g id="patch_14">
    <path clip-path="url(#p79fe6889f7)" d="M 133.187004 320.769375 
L 139.335764 320.769375 
L 139.335764 110.547917 
L 133.187004 110.547917 
z
" style="fill:#4c72b0;"/>
   </g>
   <g id="patch_15">
    <path clip-path="url(#p79fe6889f7)" d="M 139.335764 320.769375 
L 145.484525 320.769375 
L 145.484525 156.706831 
L 139.335764 156.706831 
z
" style="fill:#4c72b0;"/>
   </g>
   <g id="patch_16">
    <path clip-path="url(#p79fe6889f7)" d="M 145.484525 320.769375 
L 151.633285 320.769375 
L 151.633285 198.045497 
L 145.484525 198.045497 
z
" style="fill:#4c72b0;"/>
   </g>
   <g id="patch_17">
    <path clip-path="url(#p79fe6889f7)" d="M 151.633285 320.769375 
L 157.782045 320.769375 
L 157.782045 233.381763 
L 151.633285 233.381763 
z
" style="fill:#4c72b0;"/>
   </g>
   <g id="patch_18">
    <path clip-path="url(#p79fe6889f7)" d="M 157.782045 320.769375 
L 163.930806 320.769375 
L 163.930806 262.367398 
L 157.782045 262.367398 
z
" style="fill:#4c72b0;"/>
   </g>
   <g id="patch_19">
    <path clip-path="url(#p79fe6889f7)" d="M 163.930806 320.769375 
L 170.079566 320.769375 
L 170.079566 281.089388 
L 163.930806 281.089388 
z
" style="fill:#4c72b0;"/>
   </g>
   <g id="patch_20">
    <path clip-path="url(#p79fe6889f7)" d="M 170.079566 320.769375 
L 176.228326 320.769375 
L 176.228326 295.880034 
L 170.079566 295.880034 
z
" style="fill:#4c72b0;"/>
   </g>
   <g id="patch_21">
    <path clip-path="url(#p79fe6889f7)" d="M 176.228326 320.769375 
L 182.377087 320.769375 
L 182.377087 304.860724 
L 176.228326 304.860724 
z
" style="fill:#4c72b0;"/>
   </g>
   <g id="patch_22">
    <path clip-path="url(#p79fe6889f7)" d="M 182.377087 320.769375 
L 188.525847 320.769375 
L 188.525847 311.541258 
L 182.377087 311.541258 
z
" style="fill:#4c72b0;"/>
   </g>
   <g id="patch_23">
    <path clip-path="url(#p79fe6889f7)" d="M 188.525847 320.769375 
L 194.674607 320.769375 
L 194.674607 314.574532 
L 188.525847 314.574532 
z
" style="fill:#4c72b0;"/>
   </g>
   <g id="patch_24">
    <path clip-path="url(#p79fe6889f7)" d="M 194.674607 320.769375 
L 200.823368 320.769375 
L 200.823368 317.241247 
L 194.674607 317.241247 
z
" style="fill:#4c72b0;"/>
   </g>
   <g id="patch_25">
    <path clip-path="url(#p79fe6889f7)" d="M 200.823368 320.769375 
L 206.972128 320.769375 
L 206.972128 318.579186 
L 200.823368 318.579186 
z
" style="fill:#4c72b0;"/>
   </g>
   <g id="patch_26">
    <path clip-path="url(#p79fe6889f7)" d="M 206.972128 320.769375 
L 213.120888 320.769375 
L 213.120888 319.532239 
L 206.972128 319.532239 
z
" style="fill:#4c72b0;"/>
   </g>
   <g id="patch_27">
    <path clip-path="url(#p79fe6889f7)" d="M 213.120888 320.769375 
L 219.269649 320.769375 
L 219.269649 320.118733 
L 213.120888 320.118733 
z
" style="fill:#4c72b0;"/>
   </g>
   <g id="patch_28">
    <path clip-path="url(#p79fe6889f7)" d="M 219.269649 320.769375 
L 225.418409 320.769375 
L 225.418409 320.466964 
L 219.269649 320.466964 
z
" style="fill:#4c72b0;"/>
   </g>
   <g id="patch_29">
    <path clip-path="url(#p79fe6889f7)" d="M 225.418409 320.769375 
L 231.567169 320.769375 
L 231.567169 320.531112 
L 225.418409 320.531112 
z
" style="fill:#4c72b0;"/>
   </g>
   <g id="patch_30">
    <path clip-path="url(#p79fe6889f7)" d="M 231.567169 320.769375 
L 237.71593 320.769375 
L 237.71593 320.631915 
L 231.567169 320.631915 
z
" style="fill:#4c72b0;"/>
   </g>
   <g id="patch_31">
    <path clip-path="url(#p79fe6889f7)" d="M 237.71593 320.769375 
L 243.86469 320.769375 
L 243.86469 320.677735 
L 237.71593 320.677735 
z
" style="fill:#4c72b0;"/>
   </g>
   <g id="patch_32">
    <path clip-path="url(#p79fe6889f7)" d="M 243.86469 320.769375 
L 250.01345 320.769375 
L 250.01345 320.751047 
L 243.86469 320.751047 
z
" style="fill:#4c72b0;"/>
   </g>
   <g id="patch_33">
    <path d="M 56.3275 320.769375 
L 56.3275 21.789375 
" style="fill:none;"/>
   </g>
   <g id="patch_34">
    <path d="M 259.236591 320.769375 
L 259.236591 21.789375 
" style="fill:none;"/>
   </g>
   <g id="patch_35">
    <path d="M 56.3275 320.769375 
L 259.236591 320.769375 
" style="fill:none;"/>
   </g>
   <g id="patch_36">
    <path d="M 56.3275 21.789375 
L 259.236591 21.789375 
" style="fill:none;"/>
   </g>
   <g id="text_14">
    <!-- regular data -->
    <defs>
     <path d="M 4.984375 -4.296875 
L 13.53125 -5.5625 
Q 14.0625 -9.515625 16.5 -11.328125 
Q 19.78125 -13.765625 25.4375 -13.765625 
Q 31.546875 -13.765625 34.859375 -11.328125 
Q 38.1875 -8.890625 39.359375 -4.5 
Q 40.046875 -1.8125 39.984375 6.78125 
Q 34.234375 0 25.640625 0 
Q 14.9375 0 9.078125 7.71875 
Q 3.21875 15.4375 3.21875 26.21875 
Q 3.21875 33.640625 5.90625 39.90625 
Q 8.59375 46.1875 13.6875 49.609375 
Q 18.796875 53.03125 25.6875 53.03125 
Q 34.859375 53.03125 40.828125 45.609375 
L 40.828125 51.859375 
L 48.921875 51.859375 
L 48.921875 7.03125 
Q 48.921875 -5.078125 46.453125 -10.125 
Q 44 -15.1875 38.640625 -18.109375 
Q 33.296875 -21.046875 25.484375 -21.046875 
Q 16.21875 -21.046875 10.5 -16.875 
Q 4.78125 -12.703125 4.984375 -4.296875 
z
M 12.25 26.859375 
Q 12.25 16.65625 16.296875 11.96875 
Q 20.359375 7.28125 26.46875 7.28125 
Q 32.515625 7.28125 36.609375 11.9375 
Q 40.71875 16.609375 40.71875 26.5625 
Q 40.71875 36.078125 36.5 40.90625 
Q 32.28125 45.75 26.3125 45.75 
Q 20.453125 45.75 16.34375 40.984375 
Q 12.25 36.234375 12.25 26.859375 
z
" id="ArialMT-103"/>
     <path d="M 40.4375 6.390625 
Q 35.546875 2.25 31.03125 0.53125 
Q 26.515625 -1.171875 21.34375 -1.171875 
Q 12.796875 -1.171875 8.203125 3 
Q 3.609375 7.171875 3.609375 13.671875 
Q 3.609375 17.484375 5.34375 20.625 
Q 7.078125 23.78125 9.890625 25.6875 
Q 12.703125 27.59375 16.21875 28.5625 
Q 18.796875 29.25 24.03125 29.890625 
Q 34.671875 31.15625 39.703125 32.90625 
Q 39.75 34.71875 39.75 35.203125 
Q 39.75 40.578125 37.25 42.78125 
Q 33.890625 45.75 27.25 45.75 
Q 21.046875 45.75 18.09375 43.578125 
Q 15.140625 41.40625 13.71875 35.890625 
L 5.125 37.0625 
Q 6.296875 42.578125 8.984375 45.96875 
Q 11.671875 49.359375 16.75 51.1875 
Q 21.828125 53.03125 28.515625 53.03125 
Q 35.15625 53.03125 39.296875 51.46875 
Q 43.453125 49.90625 45.40625 47.53125 
Q 47.359375 45.171875 48.140625 41.546875 
Q 48.578125 39.3125 48.578125 33.453125 
L 48.578125 21.734375 
Q 48.578125 9.46875 49.140625 6.21875 
Q 49.703125 2.984375 51.375 0 
L 42.1875 0 
Q 40.828125 2.734375 40.4375 6.390625 
z
M 39.703125 26.03125 
Q 34.90625 24.078125 25.34375 22.703125 
Q 19.921875 21.921875 17.671875 20.9375 
Q 15.4375 19.96875 14.203125 18.09375 
Q 12.984375 16.21875 12.984375 13.921875 
Q 12.984375 10.40625 15.640625 8.0625 
Q 18.3125 5.71875 23.4375 5.71875 
Q 28.515625 5.71875 32.46875 7.9375 
Q 36.421875 10.15625 38.28125 14.015625 
Q 39.703125 17 39.703125 22.796875 
z
" id="ArialMT-97"/>
     <path d="M 25.78125 7.859375 
L 27.046875 0.09375 
Q 23.34375 -0.6875 20.40625 -0.6875 
Q 15.625 -0.6875 12.984375 0.828125 
Q 10.359375 2.34375 9.28125 4.8125 
Q 8.203125 7.28125 8.203125 15.1875 
L 8.203125 45.015625 
L 1.765625 45.015625 
L 1.765625 51.859375 
L 8.203125 51.859375 
L 8.203125 64.703125 
L 16.9375 69.96875 
L 16.9375 51.859375 
L 25.78125 51.859375 
L 25.78125 45.015625 
L 16.9375 45.015625 
L 16.9375 14.703125 
Q 16.9375 10.9375 17.40625 9.859375 
Q 17.875 8.796875 18.921875 8.15625 
Q 19.96875 7.515625 21.921875 7.515625 
Q 23.390625 7.515625 25.78125 7.859375 
z
" id="ArialMT-116"/>
    </defs>
    <g style="fill:#262626;" transform="translate(125.763608 15.789375)scale(0.12 -0.12)">
     <use xlink:href="#ArialMT-114"/>
     <use x="33.300781" xlink:href="#ArialMT-101"/>
     <use x="88.916016" xlink:href="#ArialMT-103"/>
     <use x="144.53125" xlink:href="#ArialMT-117"/>
     <use x="200.146484" xlink:href="#ArialMT-108"/>
     <use x="222.363281" xlink:href="#ArialMT-97"/>
     <use x="277.978516" xlink:href="#ArialMT-114"/>
     <use x="311.279297" xlink:href="#ArialMT-32"/>
     <use x="339.0625" xlink:href="#ArialMT-100"/>
     <use x="394.677734" xlink:href="#ArialMT-97"/>
     <use x="450.292969" xlink:href="#ArialMT-116"/>
     <use x="478.076172" xlink:href="#ArialMT-97"/>
    </g>
   </g>
  </g>
  <g id="axes_2">
   <g id="patch_37">
    <path d="M 299.818409 320.769375 
L 502.7275 320.769375 
L 502.7275 21.789375 
L 299.818409 21.789375 
z
" style="fill:#eaeaf2;"/>
   </g>
   <g id="matplotlib.axis_3">
    <g id="xtick_5">
     <g id="line2d_23">
      <path clip-path="url(#pbd8469f27e)" d="M 335.617203 320.769375 
L 335.617203 21.789375 
" style="fill:none;stroke:#ffffff;stroke-linecap:round;"/>
     </g>
     <g id="line2d_24"/>
     <g id="text_15">
      <!-- 4.0 -->
      <defs>
       <path d="M 32.328125 0 
L 32.328125 17.140625 
L 1.265625 17.140625 
L 1.265625 25.203125 
L 33.9375 71.578125 
L 41.109375 71.578125 
L 41.109375 25.203125 
L 50.78125 25.203125 
L 50.78125 17.140625 
L 41.109375 17.140625 
L 41.109375 0 
z
M 32.328125 25.203125 
L 32.328125 57.46875 
L 9.90625 25.203125 
z
" id="ArialMT-52"/>
       <path d="M 9.078125 0 
L 9.078125 10.015625 
L 19.09375 10.015625 
L 19.09375 0 
z
" id="ArialMT-46"/>
      </defs>
      <g style="fill:#262626;" transform="translate(328.667203 334.927188)scale(0.1 -0.1)">
       <use xlink:href="#ArialMT-52"/>
       <use x="55.615234" xlink:href="#ArialMT-46"/>
       <use x="83.398438" xlink:href="#ArialMT-48"/>
      </g>
     </g>
    </g>
    <g id="xtick_6">
     <g id="line2d_25">
      <path clip-path="url(#pbd8469f27e)" d="M 389.928334 320.769375 
L 389.928334 21.789375 
" style="fill:none;stroke:#ffffff;stroke-linecap:round;"/>
     </g>
     <g id="line2d_26"/>
     <g id="text_16">
      <!-- 4.5 -->
      <g style="fill:#262626;" transform="translate(382.978334 334.927188)scale(0.1 -0.1)">
       <use xlink:href="#ArialMT-52"/>
       <use x="55.615234" xlink:href="#ArialMT-46"/>
       <use x="83.398438" xlink:href="#ArialMT-53"/>
      </g>
     </g>
    </g>
    <g id="xtick_7">
     <g id="line2d_27">
      <path clip-path="url(#pbd8469f27e)" d="M 444.239466 320.769375 
L 444.239466 21.789375 
" style="fill:none;stroke:#ffffff;stroke-linecap:round;"/>
     </g>
     <g id="line2d_28"/>
     <g id="text_17">
      <!-- 5.0 -->
      <g style="fill:#262626;" transform="translate(437.289466 334.927188)scale(0.1 -0.1)">
       <use xlink:href="#ArialMT-53"/>
       <use x="55.615234" xlink:href="#ArialMT-46"/>
       <use x="83.398438" xlink:href="#ArialMT-48"/>
      </g>
     </g>
    </g>
    <g id="xtick_8">
     <g id="line2d_29">
      <path clip-path="url(#pbd8469f27e)" d="M 498.550598 320.769375 
L 498.550598 21.789375 
" style="fill:none;stroke:#ffffff;stroke-linecap:round;"/>
     </g>
     <g id="line2d_30"/>
     <g id="text_18">
      <!-- 5.5 -->
      <g style="fill:#262626;" transform="translate(491.600598 334.927188)scale(0.1 -0.1)">
       <use xlink:href="#ArialMT-53"/>
       <use x="55.615234" xlink:href="#ArialMT-46"/>
       <use x="83.398438" xlink:href="#ArialMT-53"/>
      </g>
     </g>
    </g>
    <g id="text_19">
     <!-- log index level -->
     <defs>
      <path d="M 3.328125 25.921875 
Q 3.328125 40.328125 11.328125 47.265625 
Q 18.015625 53.03125 27.640625 53.03125 
Q 38.328125 53.03125 45.109375 46.015625 
Q 51.90625 39.015625 51.90625 26.65625 
Q 51.90625 16.65625 48.90625 10.90625 
Q 45.90625 5.171875 40.15625 2 
Q 34.421875 -1.171875 27.640625 -1.171875 
Q 16.75 -1.171875 10.03125 5.8125 
Q 3.328125 12.796875 3.328125 25.921875 
z
M 12.359375 25.921875 
Q 12.359375 15.96875 16.703125 11.015625 
Q 21.046875 6.0625 27.640625 6.0625 
Q 34.1875 6.0625 38.53125 11.03125 
Q 42.875 16.015625 42.875 26.21875 
Q 42.875 35.84375 38.5 40.796875 
Q 34.125 45.75 27.640625 45.75 
Q 21.046875 45.75 16.703125 40.8125 
Q 12.359375 35.890625 12.359375 25.921875 
z
" id="ArialMT-111"/>
     </defs>
     <g style="fill:#262626;" transform="translate(366.419283 348.788281)scale(0.11 -0.11)">
      <use xlink:href="#ArialMT-108"/>
      <use x="22.216797" xlink:href="#ArialMT-111"/>
      <use x="77.832031" xlink:href="#ArialMT-103"/>
      <use x="133.447266" xlink:href="#ArialMT-32"/>
      <use x="161.230469" xlink:href="#ArialMT-105"/>
      <use x="183.447266" xlink:href="#ArialMT-110"/>
      <use x="239.0625" xlink:href="#ArialMT-100"/>
      <use x="294.677734" xlink:href="#ArialMT-101"/>
      <use x="350.292969" xlink:href="#ArialMT-120"/>
      <use x="400.292969" xlink:href="#ArialMT-32"/>
      <use x="428.076172" xlink:href="#ArialMT-108"/>
      <use x="450.292969" xlink:href="#ArialMT-101"/>
      <use x="505.908203" xlink:href="#ArialMT-118"/>
      <use x="555.908203" xlink:href="#ArialMT-101"/>
      <use x="611.523438" xlink:href="#ArialMT-108"/>
     </g>
    </g>
   </g>
   <g id="matplotlib.axis_4">
    <g id="ytick_8">
     <g id="line2d_31">
      <path clip-path="url(#pbd8469f27e)" d="M 299.818409 320.769375 
L 502.7275 320.769375 
" style="fill:none;stroke:#ffffff;stroke-linecap:round;"/>
     </g>
     <g id="line2d_32"/>
     <g id="text_20">
      <!-- 0 -->
      <g style="fill:#262626;" transform="translate(287.257472 324.348281)scale(0.1 -0.1)">
       <use xlink:href="#ArialMT-48"/>
      </g>
     </g>
    </g>
    <g id="ytick_9">
     <g id="line2d_33">
      <path clip-path="url(#pbd8469f27e)" d="M 299.818409 270.936883 
L 502.7275 270.936883 
" style="fill:none;stroke:#ffffff;stroke-linecap:round;"/>
     </g>
     <g id="line2d_34"/>
     <g id="text_21">
      <!-- 5000 -->
      <g style="fill:#262626;" transform="translate(270.574659 274.51579)scale(0.1 -0.1)">
       <use xlink:href="#ArialMT-53"/>
       <use x="55.615234" xlink:href="#ArialMT-48"/>
       <use x="111.230469" xlink:href="#ArialMT-48"/>
       <use x="166.845703" xlink:href="#ArialMT-48"/>
      </g>
     </g>
    </g>
    <g id="ytick_10">
     <g id="line2d_35">
      <path clip-path="url(#pbd8469f27e)" d="M 299.818409 221.104392 
L 502.7275 221.104392 
" style="fill:none;stroke:#ffffff;stroke-linecap:round;"/>
     </g>
     <g id="line2d_36"/>
     <g id="text_22">
      <!-- 10000 -->
      <g style="fill:#262626;" transform="translate(265.013722 224.683298)scale(0.1 -0.1)">
       <use xlink:href="#ArialMT-49"/>
       <use x="55.615234" xlink:href="#ArialMT-48"/>
       <use x="111.230469" xlink:href="#ArialMT-48"/>
       <use x="166.845703" xlink:href="#ArialMT-48"/>
       <use x="222.460938" xlink:href="#ArialMT-48"/>
      </g>
     </g>
    </g>
    <g id="ytick_11">
     <g id="line2d_37">
      <path clip-path="url(#pbd8469f27e)" d="M 299.818409 171.2719 
L 502.7275 171.2719 
" style="fill:none;stroke:#ffffff;stroke-linecap:round;"/>
     </g>
     <g id="line2d_38"/>
     <g id="text_23">
      <!-- 15000 -->
      <g style="fill:#262626;" transform="translate(265.013722 174.850806)scale(0.1 -0.1)">
       <use xlink:href="#ArialMT-49"/>
       <use x="55.615234" xlink:href="#ArialMT-53"/>
       <use x="111.230469" xlink:href="#ArialMT-48"/>
       <use x="166.845703" xlink:href="#ArialMT-48"/>
       <use x="222.460938" xlink:href="#ArialMT-48"/>
      </g>
     </g>
    </g>
    <g id="ytick_12">
     <g id="line2d_39">
      <path clip-path="url(#pbd8469f27e)" d="M 299.818409 121.439409 
L 502.7275 121.439409 
" style="fill:none;stroke:#ffffff;stroke-linecap:round;"/>
     </g>
     <g id="line2d_40"/>
     <g id="text_24">
      <!-- 20000 -->
      <g style="fill:#262626;" transform="translate(265.013722 125.018315)scale(0.1 -0.1)">
       <use xlink:href="#ArialMT-50"/>
       <use x="55.615234" xlink:href="#ArialMT-48"/>
       <use x="111.230469" xlink:href="#ArialMT-48"/>
       <use x="166.845703" xlink:href="#ArialMT-48"/>
       <use x="222.460938" xlink:href="#ArialMT-48"/>
      </g>
     </g>
    </g>
    <g id="ytick_13">
     <g id="line2d_41">
      <path clip-path="url(#pbd8469f27e)" d="M 299.818409 71.606917 
L 502.7275 71.606917 
" style="fill:none;stroke:#ffffff;stroke-linecap:round;"/>
     </g>
     <g id="line2d_42"/>
     <g id="text_25">
      <!-- 25000 -->
      <g style="fill:#262626;" transform="translate(265.013722 75.185823)scale(0.1 -0.1)">
       <use xlink:href="#ArialMT-50"/>
       <use x="55.615234" xlink:href="#ArialMT-53"/>
       <use x="111.230469" xlink:href="#ArialMT-48"/>
       <use x="166.845703" xlink:href="#ArialMT-48"/>
       <use x="222.460938" xlink:href="#ArialMT-48"/>
      </g>
     </g>
    </g>
   </g>
   <g id="patch_38">
    <path clip-path="url(#pbd8469f27e)" d="M 309.04155 320.769375 
L 315.19031 320.769375 
L 315.19031 320.729509 
L 309.04155 320.729509 
z
" style="fill:#4c72b0;"/>
   </g>
   <g id="patch_39">
    <path clip-path="url(#pbd8469f27e)" d="M 315.19031 320.769375 
L 321.33907 320.769375 
L 321.33907 320.66971 
L 315.19031 320.66971 
z
" style="fill:#4c72b0;"/>
   </g>
   <g id="patch_40">
    <path clip-path="url(#pbd8469f27e)" d="M 321.33907 320.769375 
L 327.487831 320.769375 
L 327.487831 320.490313 
L 321.33907 320.490313 
z
" style="fill:#4c72b0;"/>
   </g>
   <g id="patch_41">
    <path clip-path="url(#pbd8469f27e)" d="M 327.487831 320.769375 
L 333.636591 320.769375 
L 333.636591 319.90229 
L 327.487831 319.90229 
z
" style="fill:#4c72b0;"/>
   </g>
   <g id="patch_42">
    <path clip-path="url(#pbd8469f27e)" d="M 333.636591 320.769375 
L 339.785351 320.769375 
L 339.785351 318.487047 
L 333.636591 318.487047 
z
" style="fill:#4c72b0;"/>
   </g>
   <g id="patch_43">
    <path clip-path="url(#pbd8469f27e)" d="M 339.785351 320.769375 
L 345.934112 320.769375 
L 345.934112 315.816025 
L 339.785351 315.816025 
z
" style="fill:#4c72b0;"/>
   </g>
   <g id="patch_44">
    <path clip-path="url(#pbd8469f27e)" d="M 345.934112 320.769375 
L 352.082872 320.769375 
L 352.082872 309.716528 
L 345.934112 309.716528 
z
" style="fill:#4c72b0;"/>
   </g>
   <g id="patch_45">
    <path clip-path="url(#pbd8469f27e)" d="M 352.082872 320.769375 
L 358.231632 320.769375 
L 358.231632 299.102208 
L 352.082872 299.102208 
z
" style="fill:#4c72b0;"/>
   </g>
   <g id="patch_46">
    <path clip-path="url(#pbd8469f27e)" d="M 358.231632 320.769375 
L 364.380393 320.769375 
L 364.380393 281.929931 
L 358.231632 281.929931 
z
" style="fill:#4c72b0;"/>
   </g>
   <g id="patch_47">
    <path clip-path="url(#pbd8469f27e)" d="M 364.380393 320.769375 
L 370.529153 320.769375 
L 370.529153 255.498777 
L 364.380393 255.498777 
z
" style="fill:#4c72b0;"/>
   </g>
   <g id="patch_48">
    <path clip-path="url(#pbd8469f27e)" d="M 370.529153 320.769375 
L 376.677913 320.769375 
L 376.677913 217.925079 
L 370.529153 217.925079 
z
" style="fill:#4c72b0;"/>
   </g>
   <g id="patch_49">
    <path clip-path="url(#pbd8469f27e)" d="M 376.677913 320.769375 
L 382.826674 320.769375 
L 382.826674 174.929605 
L 376.677913 174.929605 
z
" style="fill:#4c72b0;"/>
   </g>
   <g id="patch_50">
    <path clip-path="url(#pbd8469f27e)" d="M 382.826674 320.769375 
L 388.975434 320.769375 
L 388.975434 127.239911 
L 382.826674 127.239911 
z
" style="fill:#4c72b0;"/>
   </g>
   <g id="patch_51">
    <path clip-path="url(#pbd8469f27e)" d="M 388.975434 320.769375 
L 395.124194 320.769375 
L 395.124194 83.457083 
L 388.975434 83.457083 
z
" style="fill:#4c72b0;"/>
   </g>
   <g id="patch_52">
    <path clip-path="url(#pbd8469f27e)" d="M 395.124194 320.769375 
L 401.272955 320.769375 
L 401.272955 55.530955 
L 395.124194 55.530955 
z
" style="fill:#4c72b0;"/>
   </g>
   <g id="patch_53">
    <path clip-path="url(#pbd8469f27e)" d="M 401.272955 320.769375 
L 407.421715 320.769375 
L 407.421715 36.026518 
L 401.272955 36.026518 
z
" style="fill:#4c72b0;"/>
   </g>
   <g id="patch_54">
    <path clip-path="url(#pbd8469f27e)" d="M 407.421715 320.769375 
L 413.570475 320.769375 
L 413.570475 49.51119 
L 407.421715 49.51119 
z
" style="fill:#4c72b0;"/>
   </g>
   <g id="patch_55">
    <path clip-path="url(#pbd8469f27e)" d="M 413.570475 320.769375 
L 419.719236 320.769375 
L 419.719236 80.845861 
L 413.570475 80.845861 
z
" style="fill:#4c72b0;"/>
   </g>
   <g id="patch_56">
    <path clip-path="url(#pbd8469f27e)" d="M 419.719236 320.769375 
L 425.867996 320.769375 
L 425.867996 123.721737 
L 419.719236 123.721737 
z
" style="fill:#4c72b0;"/>
   </g>
   <g id="patch_57">
    <path clip-path="url(#pbd8469f27e)" d="M 425.867996 320.769375 
L 432.016756 320.769375 
L 432.016756 170.374915 
L 425.867996 170.374915 
z
" style="fill:#4c72b0;"/>
   </g>
   <g id="patch_58">
    <path clip-path="url(#pbd8469f27e)" d="M 432.016756 320.769375 
L 438.165517 320.769375 
L 438.165517 214.596268 
L 432.016756 214.596268 
z
" style="fill:#4c72b0;"/>
   </g>
   <g id="patch_59">
    <path clip-path="url(#pbd8469f27e)" d="M 438.165517 320.769375 
L 444.314277 320.769375 
L 444.314277 252.78789 
L 438.165517 252.78789 
z
" style="fill:#4c72b0;"/>
   </g>
   <g id="patch_60">
    <path clip-path="url(#pbd8469f27e)" d="M 444.314277 320.769375 
L 450.463037 320.769375 
L 450.463037 280.285459 
L 444.314277 280.285459 
z
" style="fill:#4c72b0;"/>
   </g>
   <g id="patch_61">
    <path clip-path="url(#pbd8469f27e)" d="M 450.463037 320.769375 
L 456.611798 320.769375 
L 456.611798 298.195256 
L 450.463037 298.195256 
z
" style="fill:#4c72b0;"/>
   </g>
   <g id="patch_62">
    <path clip-path="url(#pbd8469f27e)" d="M 456.611798 320.769375 
L 462.760558 320.769375 
L 462.760558 309.377667 
L 456.611798 309.377667 
z
" style="fill:#4c72b0;"/>
   </g>
   <g id="patch_63">
    <path clip-path="url(#pbd8469f27e)" d="M 462.760558 320.769375 
L 468.909318 320.769375 
L 468.909318 315.038638 
L 462.760558 315.038638 
z
" style="fill:#4c72b0;"/>
   </g>
   <g id="patch_64">
    <path clip-path="url(#pbd8469f27e)" d="M 468.909318 320.769375 
L 475.058079 320.769375 
L 475.058079 318.27775 
L 468.909318 318.27775 
z
" style="fill:#4c72b0;"/>
   </g>
   <g id="patch_65">
    <path clip-path="url(#pbd8469f27e)" d="M 475.058079 320.769375 
L 481.206839 320.769375 
L 481.206839 319.972055 
L 475.058079 319.972055 
z
" style="fill:#4c72b0;"/>
   </g>
   <g id="patch_66">
    <path clip-path="url(#pbd8469f27e)" d="M 481.206839 320.769375 
L 487.355599 320.769375 
L 487.355599 320.380682 
L 481.206839 320.380682 
z
" style="fill:#4c72b0;"/>
   </g>
   <g id="patch_67">
    <path clip-path="url(#pbd8469f27e)" d="M 487.355599 320.769375 
L 493.50436 320.769375 
L 493.50436 320.639811 
L 487.355599 320.639811 
z
" style="fill:#4c72b0;"/>
   </g>
   <g id="patch_68">
    <path d="M 299.818409 320.769375 
L 299.818409 21.789375 
" style="fill:none;"/>
   </g>
   <g id="patch_69">
    <path d="M 502.7275 320.769375 
L 502.7275 21.789375 
" style="fill:none;"/>
   </g>
   <g id="patch_70">
    <path d="M 299.818409 320.769375 
L 502.7275 320.769375 
" style="fill:none;"/>
   </g>
   <g id="patch_71">
    <path d="M 299.818409 21.789375 
L 502.7275 21.789375 
" style="fill:none;"/>
   </g>
   <g id="text_26">
    <!-- log data -->
    <g style="fill:#262626;" transform="translate(379.923267 15.789375)scale(0.12 -0.12)">
     <use xlink:href="#ArialMT-108"/>
     <use x="22.216797" xlink:href="#ArialMT-111"/>
     <use x="77.832031" xlink:href="#ArialMT-103"/>
     <use x="133.447266" xlink:href="#ArialMT-32"/>
     <use x="161.230469" xlink:href="#ArialMT-100"/>
     <use x="216.845703" xlink:href="#ArialMT-97"/>
     <use x="272.460938" xlink:href="#ArialMT-116"/>
     <use x="300.244141" xlink:href="#ArialMT-97"/>
    </g>
   </g>
  </g>
 </g>
 <defs>
  <clipPath id="p79fe6889f7">
   <rect height="298.98" width="202.909091" x="56.3275" y="21.789375"/>
  </clipPath>
  <clipPath id="pbd8469f27e">
   <rect height="298.98" width="202.909091" x="299.818409" y="21.789375"/>
  </clipPath>
 </defs>
</svg>
