<?xml version="1.0" encoding="utf-8" standalone="no"?>
<!DOCTYPE svg PUBLIC "-//W3C//DTD SVG 1.1//EN"
  "http://www.w3.org/Graphics/SVG/1.1/DTD/svg11.dtd">
<!-- Created with matplotlib (https://matplotlib.org/) -->
<svg height="288.103019pt" version="1.1" viewBox="0 0 396.415943 288.103019" width="396.415943pt" xmlns="http://www.w3.org/2000/svg" xmlns:xlink="http://www.w3.org/1999/xlink">
 <defs>
  <style type="text/css">
*{stroke-linecap:butt;stroke-linejoin:round;}
  </style>
 </defs>
 <g id="figure_1">
  <g id="patch_1">
   <path d="M 0 288.103019 
L 396.415943 288.103019 
L 396.415943 0 
L 0 0 
z
" style="fill:none;"/>
  </g>
  <g id="axes_1">
   <g id="patch_2">
    <path d="M 41.559375 238.765 
L 193.741193 238.765 
L 193.741193 21.325 
L 41.559375 21.325 
z
" style="fill:#ffffff;"/>
   </g>
   <g id="patch_3">
    <path clip-path="url(#pc1ef94ff72)" d="M 23.94433 238.765 
L 31.102582 238.765 
L 31.102582 238.490351 
L 23.94433 238.490351 
z
" style="fill:#00bfbf;stroke:#000000;stroke-linejoin:miter;"/>
   </g>
   <g id="patch_4">
    <path clip-path="url(#pc1ef94ff72)" d="M 31.102582 238.765 
L 38.260834 238.765 
L 38.260834 238.490351 
L 31.102582 238.490351 
z
" style="fill:#00bfbf;stroke:#000000;stroke-linejoin:miter;"/>
   </g>
   <g id="patch_5">
    <path clip-path="url(#pc1ef94ff72)" d="M 38.260834 238.765 
L 45.419086 238.765 
L 45.419086 238.765 
L 38.260834 238.765 
z
" style="fill:#00bfbf;stroke:#000000;stroke-linejoin:miter;"/>
   </g>
   <g id="patch_6">
    <path clip-path="url(#pc1ef94ff72)" d="M 45.419086 238.765 
L 52.577339 238.765 
L 52.577339 238.765 
L 45.419086 238.765 
z
" style="fill:#00bfbf;stroke:#000000;stroke-linejoin:miter;"/>
   </g>
   <g id="patch_7">
    <path clip-path="url(#pc1ef94ff72)" d="M 52.577339 238.765 
L 59.735591 238.765 
L 59.735591 238.490351 
L 52.577339 238.490351 
z
" style="fill:#00bfbf;stroke:#000000;stroke-linejoin:miter;"/>
   </g>
   <g id="patch_8">
    <path clip-path="url(#pc1ef94ff72)" d="M 59.735591 238.765 
L 66.893843 238.765 
L 66.893843 238.490351 
L 59.735591 238.490351 
z
" style="fill:#00bfbf;stroke:#000000;stroke-linejoin:miter;"/>
   </g>
   <g id="patch_9">
    <path clip-path="url(#pc1ef94ff72)" d="M 66.893843 238.765 
L 74.052095 238.765 
L 74.052095 237.941052 
L 66.893843 237.941052 
z
" style="fill:#00bfbf;stroke:#000000;stroke-linejoin:miter;"/>
   </g>
   <g id="patch_10">
    <path clip-path="url(#pc1ef94ff72)" d="M 74.052095 238.765 
L 81.210348 238.765 
L 81.210348 238.490351 
L 74.052095 238.490351 
z
" style="fill:#00bfbf;stroke:#000000;stroke-linejoin:miter;"/>
   </g>
   <g id="patch_11">
    <path clip-path="url(#pc1ef94ff72)" d="M 81.210348 238.765 
L 88.3686 238.765 
L 88.3686 236.293155 
L 81.210348 236.293155 
z
" style="fill:#00bfbf;stroke:#000000;stroke-linejoin:miter;"/>
   </g>
   <g id="patch_12">
    <path clip-path="url(#pc1ef94ff72)" d="M 88.3686 238.765 
L 95.526852 238.765 
L 95.526852 236.018505 
L 88.3686 236.018505 
z
" style="fill:#00bfbf;stroke:#000000;stroke-linejoin:miter;"/>
   </g>
   <g id="patch_13">
    <path clip-path="url(#pc1ef94ff72)" d="M 95.526852 238.765 
L 102.685105 238.765 
L 102.685105 234.370608 
L 95.526852 234.370608 
z
" style="fill:#00bfbf;stroke:#000000;stroke-linejoin:miter;"/>
   </g>
   <g id="patch_14">
    <path clip-path="url(#pc1ef94ff72)" d="M 102.685105 238.765 
L 109.843357 238.765 
L 109.843357 221.462082 
L 102.685105 221.462082 
z
" style="fill:#00bfbf;stroke:#000000;stroke-linejoin:miter;"/>
   </g>
   <g id="patch_15">
    <path clip-path="url(#pc1ef94ff72)" d="M 109.843357 238.765 
L 117.001609 238.765 
L 117.001609 142.637679 
L 109.843357 142.637679 
z
" style="fill:#00bfbf;stroke:#000000;stroke-linejoin:miter;"/>
   </g>
   <g id="patch_16">
    <path clip-path="url(#pc1ef94ff72)" d="M 117.001609 238.765 
L 124.159861 238.765 
L 124.159861 31.679286 
L 117.001609 31.679286 
z
" style="fill:#00bfbf;stroke:#000000;stroke-linejoin:miter;"/>
   </g>
   <g id="patch_17">
    <path clip-path="url(#pc1ef94ff72)" d="M 124.159861 238.765 
L 131.318114 238.765 
L 131.318114 222.56068 
L 124.159861 222.56068 
z
" style="fill:#00bfbf;stroke:#000000;stroke-linejoin:miter;"/>
   </g>
   <g id="patch_18">
    <path clip-path="url(#pc1ef94ff72)" d="M 131.318114 238.765 
L 138.476366 238.765 
L 138.476366 233.27201 
L 131.318114 233.27201 
z
" style="fill:#00bfbf;stroke:#000000;stroke-linejoin:miter;"/>
   </g>
   <g id="patch_19">
    <path clip-path="url(#pc1ef94ff72)" d="M 138.476366 238.765 
L 145.634618 238.765 
L 145.634618 235.469206 
L 138.476366 235.469206 
z
" style="fill:#00bfbf;stroke:#000000;stroke-linejoin:miter;"/>
   </g>
   <g id="patch_20">
    <path clip-path="url(#pc1ef94ff72)" d="M 145.634618 238.765 
L 152.79287 238.765 
L 152.79287 236.567804 
L 145.634618 236.567804 
z
" style="fill:#00bfbf;stroke:#000000;stroke-linejoin:miter;"/>
   </g>
   <g id="patch_21">
    <path clip-path="url(#pc1ef94ff72)" d="M 152.79287 238.765 
L 159.951123 238.765 
L 159.951123 237.391753 
L 152.79287 237.391753 
z
" style="fill:#00bfbf;stroke:#000000;stroke-linejoin:miter;"/>
   </g>
   <g id="patch_22">
    <path clip-path="url(#pc1ef94ff72)" d="M 159.951123 238.765 
L 167.109375 238.765 
L 167.109375 237.941052 
L 159.951123 237.941052 
z
" style="fill:#00bfbf;stroke:#000000;stroke-linejoin:miter;"/>
   </g>
   <g id="patch_23">
    <path clip-path="url(#pc1ef94ff72)" d="M 167.109375 238.765 
L 174.267627 238.765 
L 174.267627 238.490351 
L 167.109375 238.490351 
z
" style="fill:#00bfbf;stroke:#000000;stroke-linejoin:miter;"/>
   </g>
   <g id="patch_24">
    <path clip-path="url(#pc1ef94ff72)" d="M 174.267627 238.765 
L 181.42588 238.765 
L 181.42588 238.765 
L 174.267627 238.765 
z
" style="fill:#00bfbf;stroke:#000000;stroke-linejoin:miter;"/>
   </g>
   <g id="patch_25">
    <path clip-path="url(#pc1ef94ff72)" d="M 181.42588 238.765 
L 188.584132 238.765 
L 188.584132 238.490351 
L 181.42588 238.490351 
z
" style="fill:#00bfbf;stroke:#000000;stroke-linejoin:miter;"/>
   </g>
   <g id="patch_26">
    <path clip-path="url(#pc1ef94ff72)" d="M 188.584132 238.765 
L 195.742384 238.765 
L 195.742384 238.490351 
L 188.584132 238.490351 
z
" style="fill:#00bfbf;stroke:#000000;stroke-linejoin:miter;"/>
   </g>
   <g id="patch_27">
    <path clip-path="url(#pc1ef94ff72)" d="M 195.742384 238.765 
L 202.900636 238.765 
L 202.900636 238.765 
L 195.742384 238.765 
z
" style="fill:#00bfbf;stroke:#000000;stroke-linejoin:miter;"/>
   </g>
   <g id="patch_28">
    <path clip-path="url(#pc1ef94ff72)" d="M 202.900636 238.765 
L 210.058889 238.765 
L 210.058889 238.765 
L 202.900636 238.765 
z
" style="fill:#00bfbf;stroke:#000000;stroke-linejoin:miter;"/>
   </g>
   <g id="patch_29">
    <path clip-path="url(#pc1ef94ff72)" d="M 210.058889 238.765 
L 217.217141 238.765 
L 217.217141 238.765 
L 210.058889 238.765 
z
" style="fill:#00bfbf;stroke:#000000;stroke-linejoin:miter;"/>
   </g>
   <g id="patch_30">
    <path clip-path="url(#pc1ef94ff72)" d="M 217.217141 238.765 
L 224.375393 238.765 
L 224.375393 238.765 
L 217.217141 238.765 
z
" style="fill:#00bfbf;stroke:#000000;stroke-linejoin:miter;"/>
   </g>
   <g id="patch_31">
    <path clip-path="url(#pc1ef94ff72)" d="M 224.375393 238.765 
L 231.533645 238.765 
L 231.533645 238.765 
L 224.375393 238.765 
z
" style="fill:#00bfbf;stroke:#000000;stroke-linejoin:miter;"/>
   </g>
   <g id="patch_32">
    <path clip-path="url(#pc1ef94ff72)" d="M 231.533645 238.765 
L 238.691898 238.765 
L 238.691898 238.490351 
L 231.533645 238.490351 
z
" style="fill:#00bfbf;stroke:#000000;stroke-linejoin:miter;"/>
   </g>
   <g id="matplotlib.axis_1">
    <g id="xtick_1">
     <g id="line2d_1">
      <path clip-path="url(#pc1ef94ff72)" d="M 41.559375 238.765 
L 41.559375 21.325 
" style="fill:none;stroke:#b0b0b0;stroke-linecap:square;stroke-width:0.8;"/>
     </g>
     <g id="line2d_2">
      <defs>
       <path d="M 0 0 
L 0 3.5 
" id="m452c6f7795" style="stroke:#000000;stroke-width:0.8;"/>
      </defs>
      <g>
       <use style="stroke:#000000;stroke-width:0.8;" x="41.559375" xlink:href="#m452c6f7795" y="238.765"/>
      </g>
     </g>
     <g id="text_1">
      <!-- -0.02 -->
      <defs>
       <path d="M 46.484375 33.203125 
L 1.953125 33.203125 
L 1.953125 39.453125 
L 46.484375 39.453125 
z
" id="KaiTi-45"/>
       <path d="M 3.125 29.296875 
Q 3.90625 50 6.4375 56.046875 
Q 8.984375 62.109375 13.671875 66.015625 
Q 18.359375 69.921875 25.1875 69.921875 
Q 32.03125 69.921875 37.109375 64.25 
Q 42.1875 58.59375 43.75 50 
Q 45.3125 41.40625 44.71875 30.265625 
Q 44.140625 19.140625 40.8125 12.109375 
Q 37.5 5.078125 30.859375 2.34375 
Q 24.21875 -0.390625 17.578125 2.921875 
Q 10.9375 6.25 8.203125 11.71875 
Q 5.46875 17.1875 4.296875 23.234375 
Q 3.125 29.296875 3.90625 50 
z
M 12.890625 52.734375 
Q 10.546875 31.25 12.5 22.84375 
Q 14.453125 14.453125 18.9375 10.9375 
Q 23.4375 7.421875 28.125 9.5625 
Q 32.8125 11.71875 34.953125 18.15625 
Q 37.109375 24.609375 37.109375 32.21875 
Q 37.109375 39.84375 36.515625 46.09375 
Q 35.9375 52.34375 33 57.421875 
Q 30.078125 62.5 25.1875 62.6875 
Q 20.3125 62.890625 16.59375 57.8125 
Q 12.890625 52.734375 10.546875 31.25 
z
" id="KaiTi-48"/>
       <path d="M 12.5 1.171875 
Q 10.546875 1.171875 8.78125 2.53125 
Q 7.03125 3.90625 7.03125 6.640625 
Q 7.03125 8.984375 8.390625 10.34375 
Q 9.765625 11.71875 12.5 12.109375 
Q 15.234375 12.109375 16.59375 10.546875 
Q 17.96875 8.984375 17.96875 6.640625 
Q 17.96875 3.90625 16.40625 2.53125 
Q 14.84375 1.171875 12.5 1.171875 
z
" id="KaiTi-46"/>
       <path d="M 4.6875 3.90625 
Q 5.078125 9.765625 10.15625 14.453125 
Q 15.234375 19.140625 23.046875 29.09375 
Q 30.859375 39.0625 33.203125 44.53125 
Q 35.546875 50 34.953125 53.90625 
Q 34.375 57.8125 31.25 60.34375 
Q 28.125 62.890625 24.015625 62.5 
Q 19.921875 62.109375 16.203125 59.375 
Q 12.5 56.640625 10.546875 51.171875 
L 3.125 52.34375 
Q 6.25 61.328125 11.125 65.421875 
Q 16.015625 69.53125 22.65625 69.921875 
Q 26.5625 70.3125 29.6875 69.71875 
Q 32.8125 69.140625 36.125 66.984375 
Q 39.453125 64.84375 41.59375 60.546875 
Q 43.75 56.25 43.15625 50.1875 
Q 42.578125 44.140625 37.109375 35.734375 
Q 31.640625 27.34375 16.015625 9.375 
L 44.140625 9.375 
L 44.140625 2.34375 
L 4.6875 2.34375 
z
" id="KaiTi-50"/>
      </defs>
      <g transform="translate(32.140307 264.218925)rotate(-30)scale(0.1 -0.1)">
       <use xlink:href="#KaiTi-45"/>
       <use x="50" xlink:href="#KaiTi-48"/>
       <use x="100" xlink:href="#KaiTi-46"/>
       <use x="150" xlink:href="#KaiTi-48"/>
       <use x="200" xlink:href="#KaiTi-50"/>
      </g>
     </g>
    </g>
    <g id="xtick_2">
     <g id="line2d_3">
      <path clip-path="url(#pc1ef94ff72)" d="M 79.60483 238.765 
L 79.60483 21.325 
" style="fill:none;stroke:#b0b0b0;stroke-linecap:square;stroke-width:0.8;"/>
     </g>
     <g id="line2d_4">
      <g>
       <use style="stroke:#000000;stroke-width:0.8;" x="79.60483" xlink:href="#m452c6f7795" y="238.765"/>
      </g>
     </g>
     <g id="text_2">
      <!-- -0.01 -->
      <defs>
       <path d="M 21.875 56.25 
Q 16.796875 51.171875 8.984375 46.484375 
L 8.984375 53.90625 
Q 18.75 60.546875 25 69.53125 
L 29.6875 69.53125 
L 29.6875 2.34375 
L 21.875 2.34375 
z
" id="KaiTi-49"/>
      </defs>
      <g transform="translate(70.185762 264.218925)rotate(-30)scale(0.1 -0.1)">
       <use xlink:href="#KaiTi-45"/>
       <use x="50" xlink:href="#KaiTi-48"/>
       <use x="100" xlink:href="#KaiTi-46"/>
       <use x="150" xlink:href="#KaiTi-48"/>
       <use x="200" xlink:href="#KaiTi-49"/>
      </g>
     </g>
    </g>
    <g id="xtick_3">
     <g id="line2d_5">
      <path clip-path="url(#pc1ef94ff72)" d="M 117.650284 238.765 
L 117.650284 21.325 
" style="fill:none;stroke:#b0b0b0;stroke-linecap:square;stroke-width:0.8;"/>
     </g>
     <g id="line2d_6">
      <g>
       <use style="stroke:#000000;stroke-width:0.8;" x="117.650284" xlink:href="#m452c6f7795" y="238.765"/>
      </g>
     </g>
     <g id="text_3">
      <!-- 0.00 -->
      <g transform="translate(110.39628 261.718925)rotate(-30)scale(0.1 -0.1)">
       <use xlink:href="#KaiTi-48"/>
       <use x="50" xlink:href="#KaiTi-46"/>
       <use x="100" xlink:href="#KaiTi-48"/>
       <use x="150" xlink:href="#KaiTi-48"/>
      </g>
     </g>
    </g>
    <g id="xtick_4">
     <g id="line2d_7">
      <path clip-path="url(#pc1ef94ff72)" d="M 155.695739 238.765 
L 155.695739 21.325 
" style="fill:none;stroke:#b0b0b0;stroke-linecap:square;stroke-width:0.8;"/>
     </g>
     <g id="line2d_8">
      <g>
       <use style="stroke:#000000;stroke-width:0.8;" x="155.695739" xlink:href="#m452c6f7795" y="238.765"/>
      </g>
     </g>
     <g id="text_4">
      <!-- 0.01 -->
      <g transform="translate(148.441735 261.718925)rotate(-30)scale(0.1 -0.1)">
       <use xlink:href="#KaiTi-48"/>
       <use x="50" xlink:href="#KaiTi-46"/>
       <use x="100" xlink:href="#KaiTi-48"/>
       <use x="150" xlink:href="#KaiTi-49"/>
      </g>
     </g>
    </g>
    <g id="xtick_5">
     <g id="line2d_9">
      <path clip-path="url(#pc1ef94ff72)" d="M 193.741193 238.765 
L 193.741193 21.325 
" style="fill:none;stroke:#b0b0b0;stroke-linecap:square;stroke-width:0.8;"/>
     </g>
     <g id="line2d_10">
      <g>
       <use style="stroke:#000000;stroke-width:0.8;" x="193.741193" xlink:href="#m452c6f7795" y="238.765"/>
      </g>
     </g>
     <g id="text_5">
      <!-- 0.02 -->
      <g transform="translate(186.487189 261.718925)rotate(-30)scale(0.1 -0.1)">
       <use xlink:href="#KaiTi-48"/>
       <use x="50" xlink:href="#KaiTi-46"/>
       <use x="100" xlink:href="#KaiTi-48"/>
       <use x="150" xlink:href="#KaiTi-50"/>
      </g>
     </g>
    </g>
    <g id="text_6">
     <!-- 利率 -->
     <defs>
      <path d="M 34.765625 60.546875 
Q 39.84375 58.203125 39.0625 56.25 
Q 38.28125 54.296875 37.890625 47.265625 
Q 43.75 48.828125 47.0625 49.796875 
Q 50.390625 50.78125 53.3125 48.625 
Q 56.25 46.484375 51.171875 45.890625 
Q 46.09375 45.3125 37.890625 43.75 
L 37.890625 36.71875 
Q 40.234375 36.71875 45.3125 35.15625 
Q 50.390625 33.59375 50.96875 29.484375 
Q 51.5625 25.390625 49.015625 25.96875 
Q 46.484375 26.5625 37.890625 35.15625 
Q 38.28125 21.875 38.078125 14.640625 
Q 37.890625 7.421875 36.71875 2.53125 
Q 35.546875 -2.34375 33.203125 0.78125 
Q 30.859375 3.90625 30.65625 6.046875 
Q 30.46875 8.203125 31.4375 11.328125 
Q 32.421875 14.453125 33 20.5 
Q 33.59375 26.5625 33.59375 34.375 
Q 29.6875 28.125 25.390625 23.046875 
Q 21.09375 17.96875 16.59375 14.640625 
Q 12.109375 11.328125 9.171875 9.953125 
Q 6.25 8.59375 11.515625 13.46875 
Q 16.796875 18.359375 23.046875 27.140625 
Q 29.296875 35.9375 31.640625 42.578125 
Q 23.4375 40.625 19.140625 39.0625 
Q 14.84375 37.5 11.328125 40.234375 
Q 6.25 43.359375 10.9375 43.359375 
Q 15.625 43.359375 21.875 44.53125 
Q 28.125 45.703125 33.203125 46.875 
Q 33.203125 57.03125 31.25 59.375 
Q 17.1875 55.078125 24.609375 59.375 
Q 32.03125 63.671875 36.328125 67.1875 
Q 40.625 70.703125 40.625 73.828125 
Q 40.625 76.953125 48.828125 71.484375 
Q 53.90625 67.96875 49.796875 66.984375 
Q 45.703125 66.015625 39.84375 63.28125 
Q 33.984375 60.546875 34.765625 60.546875 
z
M 82.421875 74.609375 
Q 88.671875 72.265625 87.109375 69.71875 
Q 85.546875 67.1875 85.546875 57.03125 
L 85.546875 35.9375 
Q 85.546875 25 86.125 15.8125 
Q 86.71875 6.640625 85.15625 2.734375 
Q 83.59375 -1.171875 80.859375 -3.703125 
Q 78.125 -6.25 76.75 -1.953125 
Q 75.390625 2.34375 71.09375 5.65625 
Q 66.796875 8.984375 70.5 8.203125 
Q 74.21875 7.421875 76.171875 7.421875 
Q 78.515625 7.421875 79.296875 9.953125 
Q 80.078125 12.5 80.46875 25.78125 
Q 80.859375 39.0625 80.46875 50.96875 
Q 80.078125 62.890625 79.296875 67.1875 
Q 78.515625 71.484375 76.75 74.21875 
Q 75 76.953125 82.421875 74.609375 
z
M 67.96875 42.578125 
Q 68.359375 35.15625 68.359375 31.640625 
Q 68.359375 28.125 67.375 25.1875 
Q 66.40625 22.265625 64.25 25.578125 
Q 62.109375 28.90625 62.6875 33.390625 
Q 63.28125 37.890625 62.890625 45.109375 
Q 62.5 52.34375 60.546875 55.859375 
Q 58.59375 59.375 62.296875 58.59375 
Q 66.015625 57.8125 68.15625 56.4375 
Q 70.3125 55.078125 69.140625 52.734375 
Q 67.96875 50.390625 67.96875 42.578125 
z
" id="KaiTi-21033"/>
      <path d="M 55.859375 40.625 
Q 53.90625 43.359375 52.921875 45.3125 
Q 51.953125 47.265625 54.875 46.484375 
Q 57.8125 45.703125 59.765625 44.53125 
Q 61.71875 43.359375 62.6875 41.015625 
Q 63.671875 38.671875 62.6875 36.328125 
Q 61.71875 33.984375 60.15625 34.953125 
Q 58.59375 35.9375 57.421875 37.890625 
Q 52.34375 36.71875 48.828125 35.9375 
Q 52.34375 34.765625 53.90625 33.78125 
Q 55.46875 32.8125 54.484375 31.828125 
Q 53.515625 30.859375 53.125 25.78125 
Q 60.15625 26.171875 70.5 27.34375 
Q 80.859375 28.515625 84.171875 29.296875 
Q 87.5 30.078125 90.625 28.3125 
Q 93.75 26.5625 94.328125 24.796875 
Q 94.921875 23.046875 87.5 23.234375 
Q 80.078125 23.4375 72.453125 22.84375 
Q 64.84375 22.265625 53.125 21.875 
Q 52.734375 13.28125 52.34375 6.25 
Q 51.953125 -0.78125 51.171875 -5.65625 
Q 50.390625 -10.546875 49.21875 -10.9375 
Q 48.046875 -11.328125 47.65625 -3.515625 
Q 47.265625 4.296875 47.265625 21.484375 
Q 34.765625 20.3125 29.484375 19.53125 
Q 24.21875 18.75 20.890625 18.15625 
Q 17.578125 17.578125 14.84375 17.96875 
Q 12.109375 18.359375 9.375 20.5 
Q 6.640625 22.65625 12.109375 22.453125 
Q 17.578125 22.265625 27.34375 23.234375 
Q 37.109375 24.21875 47.265625 25.390625 
Q 47.265625 32.421875 46.09375 35.15625 
Q 39.84375 33.59375 37.6875 31.640625 
Q 35.546875 29.6875 33.984375 33.390625 
Q 32.421875 37.109375 36.328125 38.46875 
Q 40.234375 39.84375 48.828125 51.171875 
Q 41.015625 49.609375 38.28125 47.65625 
Q 35.546875 45.703125 34.5625 49.21875 
Q 33.59375 52.734375 35.734375 53.515625 
Q 37.890625 54.296875 40.234375 57.8125 
Q 42.578125 61.328125 42.96875 65.234375 
Q 38.28125 64.453125 36.125 64.0625 
Q 33.984375 63.671875 30.859375 65.8125 
Q 27.734375 67.96875 32.8125 67.96875 
Q 37.890625 67.96875 51.171875 70.3125 
L 45.3125 76.171875 
Q 41.796875 79.6875 44.921875 79.6875 
Q 48.4375 79.6875 51.953125 77.53125 
Q 55.46875 75.390625 52.34375 71.09375 
Q 60.15625 72.65625 63.671875 73.625 
Q 67.1875 74.609375 69.328125 72.453125 
Q 71.484375 70.3125 67.375 69.53125 
Q 63.28125 68.75 47.65625 66.40625 
Q 50.390625 62.5 48.4375 61.328125 
Q 46.484375 60.15625 41.015625 53.125 
Q 43.359375 53.125 50.390625 53.515625 
Q 53.515625 58.203125 53.3125 60.9375 
Q 53.125 63.671875 55.859375 62.5 
Q 58.59375 61.328125 60.34375 59.375 
Q 62.109375 57.421875 59.5625 56.25 
Q 57.03125 55.078125 43.359375 38.28125 
Q 50.78125 39.84375 55.859375 40.625 
z
M 71.09375 42.578125 
Q 68.359375 44.921875 65.625 48.234375 
Q 62.890625 51.5625 69.140625 49.609375 
Q 75.390625 47.65625 77.921875 44.921875 
Q 80.46875 42.1875 79.484375 39.453125 
Q 78.515625 36.71875 76.171875 38.46875 
Q 73.828125 40.234375 71.09375 42.578125 
z
M 23.4375 43.359375 
Q 27.34375 45.3125 30.078125 47.0625 
Q 32.8125 48.828125 30.65625 46.09375 
Q 28.515625 43.359375 25.96875 40.421875 
Q 23.4375 37.5 22.265625 34.765625 
Q 21.09375 32.03125 17.765625 36.515625 
Q 14.453125 41.015625 17.1875 41.203125 
Q 19.921875 41.40625 23.4375 43.359375 
z
M 78.90625 62.5 
Q 81.25 60.9375 78.3125 59.765625 
Q 75.390625 58.59375 73.234375 57.21875 
Q 71.09375 55.859375 67.765625 54.09375 
Q 64.453125 52.34375 67.96875 56.828125 
Q 71.484375 61.328125 71.09375 63.671875 
Q 70.703125 66.015625 73.625 65.234375 
Q 76.5625 64.453125 78.90625 62.5 
z
M 21.484375 53.515625 
Q 20.3125 55.46875 19.328125 57.421875 
Q 18.359375 59.375 22.265625 58.390625 
Q 26.171875 57.421875 27.734375 55.46875 
Q 29.296875 53.515625 28.125 50.78125 
Q 26.953125 48.046875 25 50 
L 21.484375 53.515625 
z
" id="KaiTi-29575"/>
     </defs>
     <g transform="translate(107.650284 277.153019)scale(0.1 -0.1)">
      <use xlink:href="#KaiTi-21033"/>
      <use x="100" xlink:href="#KaiTi-29575"/>
     </g>
    </g>
   </g>
   <g id="matplotlib.axis_2">
    <g id="ytick_1">
     <g id="line2d_11">
      <path clip-path="url(#pc1ef94ff72)" d="M 41.559375 238.765 
L 193.741193 238.765 
" style="fill:none;stroke:#b0b0b0;stroke-linecap:square;stroke-width:0.8;"/>
     </g>
     <g id="line2d_12">
      <defs>
       <path d="M 0 0 
L -3.5 0 
" id="mf6463702d9" style="stroke:#000000;stroke-width:0.8;"/>
      </defs>
      <g>
       <use style="stroke:#000000;stroke-width:0.8;" x="41.559375" xlink:href="#mf6463702d9" y="238.765"/>
      </g>
     </g>
     <g id="text_7">
      <!-- 0 -->
      <g transform="translate(29.559375 242.2025)scale(0.1 -0.1)">
       <use xlink:href="#KaiTi-48"/>
      </g>
     </g>
    </g>
    <g id="ytick_2">
     <g id="line2d_13">
      <path clip-path="url(#pc1ef94ff72)" d="M 41.559375 211.300051 
L 193.741193 211.300051 
" style="fill:none;stroke:#b0b0b0;stroke-linecap:square;stroke-width:0.8;"/>
     </g>
     <g id="line2d_14">
      <g>
       <use style="stroke:#000000;stroke-width:0.8;" x="41.559375" xlink:href="#mf6463702d9" y="211.300051"/>
      </g>
     </g>
     <g id="text_8">
      <!-- 100 -->
      <g transform="translate(19.559375 214.737551)scale(0.1 -0.1)">
       <use xlink:href="#KaiTi-49"/>
       <use x="50" xlink:href="#KaiTi-48"/>
       <use x="100" xlink:href="#KaiTi-48"/>
      </g>
     </g>
    </g>
    <g id="ytick_3">
     <g id="line2d_15">
      <path clip-path="url(#pc1ef94ff72)" d="M 41.559375 183.835102 
L 193.741193 183.835102 
" style="fill:none;stroke:#b0b0b0;stroke-linecap:square;stroke-width:0.8;"/>
     </g>
     <g id="line2d_16">
      <g>
       <use style="stroke:#000000;stroke-width:0.8;" x="41.559375" xlink:href="#mf6463702d9" y="183.835102"/>
      </g>
     </g>
     <g id="text_9">
      <!-- 200 -->
      <g transform="translate(19.559375 187.272602)scale(0.1 -0.1)">
       <use xlink:href="#KaiTi-50"/>
       <use x="50" xlink:href="#KaiTi-48"/>
       <use x="100" xlink:href="#KaiTi-48"/>
      </g>
     </g>
    </g>
    <g id="ytick_4">
     <g id="line2d_17">
      <path clip-path="url(#pc1ef94ff72)" d="M 41.559375 156.370153 
L 193.741193 156.370153 
" style="fill:none;stroke:#b0b0b0;stroke-linecap:square;stroke-width:0.8;"/>
     </g>
     <g id="line2d_18">
      <g>
       <use style="stroke:#000000;stroke-width:0.8;" x="41.559375" xlink:href="#mf6463702d9" y="156.370153"/>
      </g>
     </g>
     <g id="text_10">
      <!-- 300 -->
      <defs>
       <path d="M 3.90625 19.140625 
L 10.9375 20.3125 
Q 12.5 15.234375 16.015625 11.90625 
Q 19.53125 8.59375 24.796875 8.78125 
Q 30.078125 8.984375 33.203125 13.078125 
Q 36.328125 17.1875 35.9375 22.453125 
Q 35.546875 27.734375 31.828125 30.65625 
Q 28.125 33.59375 19.921875 34.765625 
L 19.921875 39.84375 
Q 28.125 40.625 31.828125 44.140625 
Q 35.546875 47.65625 35.15625 53.3125 
Q 34.765625 58.984375 30.078125 61.515625 
Q 25.390625 64.0625 20.109375 62.109375 
Q 14.84375 60.15625 11.71875 51.171875 
L 4.6875 52.34375 
Q 7.03125 59.375 11.125 64.0625 
Q 15.234375 68.75 22.265625 69.53125 
Q 29.296875 70.3125 34.5625 67.765625 
Q 39.84375 65.234375 41.984375 59.953125 
Q 44.140625 54.6875 42.578125 48.4375 
Q 41.015625 42.1875 33.59375 37.5 
Q 39.0625 35.15625 41.984375 30.46875 
Q 44.921875 25.78125 43.9375 18.15625 
Q 42.96875 10.546875 37.109375 5.859375 
Q 31.25 1.171875 23.828125 1.359375 
Q 16.40625 1.5625 10.9375 6.046875 
Q 5.46875 10.546875 3.90625 19.140625 
z
" id="KaiTi-51"/>
      </defs>
      <g transform="translate(19.559375 159.807653)scale(0.1 -0.1)">
       <use xlink:href="#KaiTi-51"/>
       <use x="50" xlink:href="#KaiTi-48"/>
       <use x="100" xlink:href="#KaiTi-48"/>
      </g>
     </g>
    </g>
    <g id="ytick_5">
     <g id="line2d_19">
      <path clip-path="url(#pc1ef94ff72)" d="M 41.559375 128.905205 
L 193.741193 128.905205 
" style="fill:none;stroke:#b0b0b0;stroke-linecap:square;stroke-width:0.8;"/>
     </g>
     <g id="line2d_20">
      <g>
       <use style="stroke:#000000;stroke-width:0.8;" x="41.559375" xlink:href="#mf6463702d9" y="128.905205"/>
      </g>
     </g>
     <g id="text_11">
      <!-- 400 -->
      <defs>
       <path d="M 31.25 17.1875 
L 1.171875 17.1875 
L 1.171875 23.828125 
L 32.8125 69.53125 
L 38.671875 69.53125 
L 38.671875 23.828125 
L 48.046875 23.828125 
L 48.046875 17.1875 
L 38.671875 17.1875 
L 38.671875 2.34375 
L 31.25 2.34375 
z
M 31.25 23.828125 
L 31.25 54.6875 
L 9.375 23.828125 
z
" id="KaiTi-52"/>
      </defs>
      <g transform="translate(19.559375 132.342705)scale(0.1 -0.1)">
       <use xlink:href="#KaiTi-52"/>
       <use x="50" xlink:href="#KaiTi-48"/>
       <use x="100" xlink:href="#KaiTi-48"/>
      </g>
     </g>
    </g>
    <g id="ytick_6">
     <g id="line2d_21">
      <path clip-path="url(#pc1ef94ff72)" d="M 41.559375 101.440256 
L 193.741193 101.440256 
" style="fill:none;stroke:#b0b0b0;stroke-linecap:square;stroke-width:0.8;"/>
     </g>
     <g id="line2d_22">
      <g>
       <use style="stroke:#000000;stroke-width:0.8;" x="41.559375" xlink:href="#mf6463702d9" y="101.440256"/>
      </g>
     </g>
     <g id="text_12">
      <!-- 500 -->
      <defs>
       <path d="M 8.59375 20.703125 
Q 11.328125 10.15625 17.96875 8.984375 
Q 24.609375 7.8125 28.703125 10.34375 
Q 32.8125 12.890625 34.5625 16.984375 
Q 36.328125 21.09375 36.125 26.171875 
Q 35.9375 31.25 33.390625 34.765625 
Q 30.859375 38.28125 26.953125 39.453125 
Q 23.046875 40.625 18.15625 39.453125 
Q 13.28125 38.28125 10.15625 33.984375 
L 3.515625 34.765625 
Q 4.296875 37.109375 10.9375 68.359375 
L 41.796875 68.359375 
L 41.796875 61.328125 
L 16.796875 61.328125 
Q 14.84375 50.78125 12.890625 44.53125 
Q 18.75 47.265625 23.828125 47.0625 
Q 28.90625 46.875 33.59375 44.71875 
Q 38.28125 42.578125 40.421875 38.859375 
Q 42.578125 35.15625 43.546875 31.4375 
Q 44.53125 27.734375 44.328125 23.4375 
Q 44.140625 19.140625 42.578125 14.640625 
Q 41.015625 10.15625 37.890625 7.21875 
Q 34.765625 4.296875 30.265625 2.53125 
Q 25.78125 0.78125 19.921875 1.171875 
Q 14.0625 1.5625 8.78125 5.46875 
Q 3.515625 9.375 1.5625 18.75 
z
" id="KaiTi-53"/>
      </defs>
      <g transform="translate(19.559375 104.877756)scale(0.1 -0.1)">
       <use xlink:href="#KaiTi-53"/>
       <use x="50" xlink:href="#KaiTi-48"/>
       <use x="100" xlink:href="#KaiTi-48"/>
      </g>
     </g>
    </g>
    <g id="ytick_7">
     <g id="line2d_23">
      <path clip-path="url(#pc1ef94ff72)" d="M 41.559375 73.975307 
L 193.741193 73.975307 
" style="fill:none;stroke:#b0b0b0;stroke-linecap:square;stroke-width:0.8;"/>
     </g>
     <g id="line2d_24">
      <g>
       <use style="stroke:#000000;stroke-width:0.8;" x="41.559375" xlink:href="#mf6463702d9" y="73.975307"/>
      </g>
     </g>
     <g id="text_13">
      <!-- 600 -->
      <defs>
       <path d="M 3.515625 19.53125 
Q 4.296875 30.859375 6.046875 34.765625 
Q 7.8125 38.671875 11.328125 44.53125 
L 27.34375 69.53125 
L 36.328125 69.53125 
L 19.921875 43.75 
Q 30.46875 46.484375 36.71875 42.96875 
Q 42.96875 39.453125 45.109375 34.953125 
Q 47.265625 30.46875 47.453125 25.1875 
Q 47.65625 19.921875 45.890625 14.84375 
Q 44.140625 9.765625 39.640625 5.65625 
Q 35.15625 1.5625 27.140625 1.171875 
Q 19.140625 0.78125 13.46875 4.09375 
Q 7.8125 7.421875 5.65625 13.46875 
Q 3.515625 19.53125 4.296875 30.859375 
z
M 12.5 16.015625 
Q 19.53125 8.59375 25.390625 8.203125 
Q 31.25 7.8125 35.15625 12.109375 
Q 39.0625 16.40625 39.0625 24.609375 
Q 39.0625 32.8125 34.171875 35.9375 
Q 29.296875 39.0625 23.234375 38.28125 
Q 17.1875 37.5 14.453125 32.421875 
Q 11.71875 27.34375 12.109375 21.671875 
Q 12.5 16.015625 19.53125 8.59375 
z
" id="KaiTi-54"/>
      </defs>
      <g transform="translate(19.559375 77.412807)scale(0.1 -0.1)">
       <use xlink:href="#KaiTi-54"/>
       <use x="50" xlink:href="#KaiTi-48"/>
       <use x="100" xlink:href="#KaiTi-48"/>
      </g>
     </g>
    </g>
    <g id="ytick_8">
     <g id="line2d_25">
      <path clip-path="url(#pc1ef94ff72)" d="M 41.559375 46.510358 
L 193.741193 46.510358 
" style="fill:none;stroke:#b0b0b0;stroke-linecap:square;stroke-width:0.8;"/>
     </g>
     <g id="line2d_26">
      <g>
       <use style="stroke:#000000;stroke-width:0.8;" x="41.559375" xlink:href="#mf6463702d9" y="46.510358"/>
      </g>
     </g>
     <g id="text_14">
      <!-- 700 -->
      <defs>
       <path d="M 13.28125 2.34375 
Q 20.3125 32.03125 37.890625 61.328125 
L 4.296875 61.328125 
L 4.296875 68.359375 
L 46.09375 68.359375 
L 46.09375 61.71875 
Q 27.734375 32.03125 21.875 2.34375 
L 13.28125 2.34375 
z
" id="KaiTi-55"/>
      </defs>
      <g transform="translate(19.559375 49.947858)scale(0.1 -0.1)">
       <use xlink:href="#KaiTi-55"/>
       <use x="50" xlink:href="#KaiTi-48"/>
       <use x="100" xlink:href="#KaiTi-48"/>
      </g>
     </g>
    </g>
    <g id="text_15">
     <!-- 频数 -->
     <defs>
      <path d="M 38.671875 60.9375 
Q 40.625 61.71875 43.9375 63.078125 
Q 47.265625 64.453125 49.21875 62.890625 
Q 51.171875 61.328125 47.265625 59.765625 
Q 43.359375 58.203125 38.671875 58.203125 
L 38.671875 49.21875 
Q 44.140625 50.390625 46.484375 50.578125 
Q 48.828125 50.78125 49.796875 49.015625 
Q 50.78125 47.265625 46.875 47.0625 
Q 42.96875 46.875 33.59375 44.921875 
Q 36.71875 43.359375 36.125 40.03125 
Q 35.546875 36.71875 36.328125 25.390625 
Q 41.796875 33.984375 41.40625 37.6875 
Q 41.015625 41.40625 43.546875 40.234375 
Q 46.09375 39.0625 47.84375 37.5 
Q 49.609375 35.9375 48.4375 34.5625 
Q 47.265625 33.203125 41.59375 24.609375 
Q 35.9375 16.015625 27.921875 9.171875 
Q 19.921875 2.34375 12.296875 0.1875 
Q 4.6875 -1.953125 10.9375 1.359375 
Q 17.1875 4.6875 22.84375 9.765625 
Q 28.515625 14.84375 32.8125 21.09375 
Q 30.078125 24.21875 31.25 30.265625 
Q 32.421875 36.328125 30.078125 44.140625 
Q 18.75 41.40625 15.625 40.421875 
Q 12.5 39.453125 8.59375 41.796875 
Q 4.6875 44.140625 9.375 44.53125 
Q 14.0625 44.921875 21.875 46.09375 
Q 20.703125 54.6875 18.359375 57.421875 
Q 16.015625 60.15625 20.890625 58.984375 
Q 25.78125 57.8125 25.578125 55.859375 
Q 25.390625 53.90625 25.78125 46.875 
Q 28.125 47.265625 34.765625 48.4375 
Q 34.765625 53.90625 33.984375 61.71875 
Q 33.203125 69.53125 31.25 72.65625 
Q 29.296875 75.78125 35.15625 73.625 
Q 41.015625 71.484375 39.84375 70.109375 
Q 38.671875 68.75 38.671875 60.9375 
z
M 68.359375 64.84375 
Q 71.875 61.71875 70.5 60.34375 
Q 69.140625 58.984375 64.84375 51.953125 
Q 73.828125 53.515625 75.96875 54.484375 
Q 78.125 55.46875 80.265625 54.6875 
Q 82.421875 53.90625 84.765625 52.34375 
Q 87.109375 50.78125 85.9375 48.828125 
Q 84.765625 46.875 84.765625 40.625 
Q 84.765625 34.765625 85.34375 29.6875 
Q 85.9375 24.609375 84.375 18.9375 
Q 82.8125 13.28125 81.25 16.015625 
Q 79.6875 18.75 80.078125 21.875 
Q 80.46875 25 80.078125 36.515625 
Q 79.6875 48.046875 78.125 49.609375 
Q 76.5625 51.171875 70.5 50.1875 
Q 64.453125 49.21875 58.59375 48.046875 
Q 58.59375 27.34375 57.421875 21.09375 
Q 56.25 14.84375 54.296875 18.15625 
Q 52.34375 21.484375 53.125 25.390625 
Q 53.90625 29.296875 54.296875 37.890625 
Q 54.6875 46.484375 53.125 49.21875 
Q 51.5625 51.953125 54.6875 51.171875 
Q 57.8125 50.390625 61.328125 50.78125 
Q 65.234375 59.765625 64.0625 64.0625 
L 57.421875 62.890625 
Q 55.46875 62.5 52.53125 64.453125 
Q 49.609375 66.40625 53.703125 66.203125 
Q 57.8125 66.015625 67.1875 67.765625 
Q 76.5625 69.53125 80.265625 70.703125 
Q 83.984375 71.875 87.296875 71.484375 
Q 90.625 71.09375 92.765625 68.9375 
Q 94.921875 66.796875 88.28125 66.796875 
Q 81.640625 66.796875 68.359375 64.84375 
z
M 68.359375 43.359375 
Q 73.046875 41.796875 72.453125 39.84375 
Q 71.875 37.890625 70.703125 27.921875 
Q 69.53125 17.96875 65.421875 12.109375 
Q 61.328125 6.25 55.859375 2.734375 
Q 50.390625 -0.78125 42.765625 -2.140625 
Q 35.15625 -3.515625 43.9375 0.390625 
Q 52.734375 4.296875 58 10.15625 
Q 63.28125 16.015625 64.84375 22.453125 
Q 66.40625 28.90625 66.40625 33.984375 
Q 66.40625 39.453125 65.03125 42.375 
Q 63.671875 45.3125 68.359375 43.359375 
z
M 72.65625 14.0625 
Q 67.96875 19.53125 72.65625 17.578125 
Q 77.34375 15.625 81.4375 12.6875 
Q 85.546875 9.765625 87.296875 5.65625 
Q 89.0625 1.5625 87.890625 -1.953125 
Q 86.71875 -5.46875 82.21875 1.5625 
Q 77.734375 8.59375 72.65625 14.0625 
z
M 15.625 29.296875 
Q 17.1875 31.640625 18.9375 35.734375 
Q 20.703125 39.84375 21.28125 35.9375 
Q 21.875 32.03125 21.28125 28.90625 
Q 20.703125 25.78125 18.546875 23.234375 
Q 16.40625 20.703125 15.421875 24.015625 
Q 14.453125 27.34375 15.625 29.296875 
z
" id="KaiTi-39057"/>
      <path d="M 64.0625 20.3125 
Q 66.796875 25.390625 67.375 31.046875 
Q 67.96875 36.71875 67.578125 42.578125 
Q 64.453125 42.1875 60.546875 42.578125 
Q 55.859375 37.109375 51.953125 34.765625 
Q 48.046875 32.421875 52.921875 38.46875 
Q 57.8125 44.53125 61.125 54.484375 
Q 64.453125 64.453125 64.0625 66.796875 
Q 63.671875 69.140625 63.46875 70.890625 
Q 63.28125 72.65625 68.15625 70.109375 
Q 73.046875 67.578125 71.28125 65.234375 
Q 69.53125 62.890625 67.765625 58 
Q 66.015625 53.125 61.328125 44.53125 
Q 70.703125 46.484375 76.75 49.40625 
Q 82.8125 52.34375 86.125 50.1875 
Q 89.453125 48.046875 85.15625 46.484375 
Q 80.859375 44.921875 69.140625 42.578125 
Q 75 40.625 73.625 36.71875 
Q 72.265625 32.8125 71.28125 27.734375 
Q 70.3125 22.65625 67.578125 16.015625 
Q 71.09375 11.71875 75.578125 8 
Q 80.078125 4.296875 84.953125 2.34375 
Q 89.84375 0.390625 93.359375 -0.96875 
Q 96.875 -2.34375 89.640625 -2.921875 
Q 82.421875 -3.515625 78.703125 -2.921875 
Q 75 -2.34375 73.234375 0.390625 
Q 71.484375 3.125 64.453125 12.5 
Q 60.9375 8.59375 57.421875 6.25 
Q 53.90625 3.90625 49.609375 2.734375 
Q 45.3125 1.5625 49.40625 4.09375 
Q 53.515625 6.640625 56.640625 9.765625 
Q 59.765625 12.890625 62.109375 16.40625 
Q 59.375 21.09375 56.828125 24.40625 
Q 54.296875 27.734375 52.53125 29.6875 
Q 50.78125 31.640625 52.921875 31.828125 
Q 55.078125 32.03125 56.4375 30.46875 
Q 57.8125 28.90625 64.0625 20.3125 
z
M 40.234375 25 
Q 41.015625 27.34375 40.8125 29.09375 
Q 40.625 30.859375 42.96875 29.296875 
Q 45.3125 27.734375 46.28125 26.5625 
Q 47.265625 25.390625 46.28125 23.4375 
Q 45.3125 21.484375 43.75 17.375 
Q 42.1875 13.28125 39.453125 8.59375 
Q 42.1875 6.640625 44.328125 4.6875 
Q 46.484375 2.734375 45.703125 -0.96875 
Q 44.921875 -4.6875 42.375 -1.5625 
Q 39.84375 1.5625 36.328125 4.296875 
Q 30.078125 -0.390625 24.796875 -2.34375 
Q 19.53125 -4.296875 14.25 -4.6875 
Q 8.984375 -5.078125 13.28125 -3.3125 
Q 17.578125 -1.5625 22.65625 0.78125 
Q 27.734375 3.125 32.03125 7.421875 
Q 27.34375 10.9375 25.578125 11.71875 
Q 23.828125 12.5 24.796875 14.0625 
Q 25.78125 15.625 26.5625 19.53125 
Q 16.40625 18.359375 13.46875 16.59375 
Q 10.546875 14.84375 6.640625 17.96875 
Q 2.734375 21.09375 7.8125 20.890625 
Q 12.890625 20.703125 27.734375 23.046875 
Q 28.90625 28.125 28.125 31.046875 
Q 27.34375 33.984375 31.640625 31.828125 
Q 35.9375 29.6875 35.15625 28.515625 
Q 34.375 27.34375 32.421875 23.828125 
z
M 44.921875 53.515625 
Q 48.828125 54.296875 50.390625 52.921875 
Q 51.953125 51.5625 48.4375 50.390625 
Q 44.921875 49.21875 36.71875 48.046875 
L 36.71875 44.921875 
Q 43.359375 44.140625 46.484375 41.984375 
Q 49.609375 39.84375 48.625 36.71875 
Q 47.65625 33.59375 43.9375 37.6875 
Q 40.234375 41.796875 36.71875 43.75 
Q 36.71875 39.0625 35.9375 35.734375 
Q 35.15625 32.421875 33.390625 35.34375 
Q 31.640625 38.28125 32.21875 40.625 
Q 32.8125 42.96875 32.421875 46.09375 
Q 23.046875 33.984375 15.234375 30.265625 
Q 7.421875 26.5625 11.90625 30.078125 
Q 16.40625 33.59375 21.28125 38.671875 
Q 26.171875 43.75 28.125 47.65625 
Q 22.65625 45.703125 20.5 45.3125 
Q 18.359375 44.921875 15.234375 47.0625 
Q 12.109375 49.21875 16.40625 49.015625 
Q 20.703125 48.828125 32.8125 51.171875 
L 32.8125 65.234375 
Q 32.8125 73.4375 31.4375 75.578125 
Q 30.078125 77.734375 31.046875 77.921875 
Q 32.03125 78.125 35.9375 76.359375 
Q 39.84375 74.609375 38.46875 72.265625 
Q 37.109375 69.921875 37.109375 51.953125 
z
M 35.15625 10.546875 
Q 38.28125 14.453125 40.234375 22.265625 
L 31.25 20.703125 
Q 28.515625 14.453125 28.703125 13.671875 
Q 28.90625 12.890625 30.265625 12.5 
Q 31.640625 12.109375 35.15625 10.546875 
z
M 50.78125 66.796875 
Q 53.90625 64.84375 51.5625 63.859375 
Q 49.21875 62.890625 43.15625 58.390625 
Q 37.109375 53.90625 40.625 58.390625 
Q 44.140625 62.890625 45.3125 66.203125 
Q 46.484375 69.53125 47.265625 69.140625 
Q 48.046875 68.75 50.78125 66.796875 
z
M 24.21875 56.25 
Q 21.09375 60.546875 20.109375 62.5 
Q 19.140625 64.453125 24.015625 63.28125 
Q 28.90625 62.109375 28.3125 57.21875 
Q 27.734375 52.34375 24.21875 56.25 
z
" id="KaiTi-25968"/>
     </defs>
     <g transform="translate(14.309375 140.045)rotate(-90)scale(0.1 -0.1)">
      <use xlink:href="#KaiTi-39057"/>
      <use x="100" xlink:href="#KaiTi-25968"/>
     </g>
    </g>
   </g>
   <g id="patch_33">
    <path d="M 41.559375 238.765 
L 41.559375 21.325 
" style="fill:none;stroke:#000000;stroke-linecap:square;stroke-linejoin:miter;stroke-width:0.8;"/>
   </g>
   <g id="patch_34">
    <path d="M 193.741193 238.765 
L 193.741193 21.325 
" style="fill:none;stroke:#000000;stroke-linecap:square;stroke-linejoin:miter;stroke-width:0.8;"/>
   </g>
   <g id="patch_35">
    <path d="M 41.559375 238.765 
L 193.741193 238.765 
" style="fill:none;stroke:#000000;stroke-linecap:square;stroke-linejoin:miter;stroke-width:0.8;"/>
   </g>
   <g id="patch_36">
    <path d="M 41.559375 21.325 
L 193.741193 21.325 
" style="fill:none;stroke:#000000;stroke-linecap:square;stroke-linejoin:miter;stroke-width:0.8;"/>
   </g>
   <g id="text_16">
    <!-- 3个月期人民币Hibor日变化的直方图 -->
    <defs>
     <path d="M 49.609375 69.140625 
Q 63.28125 54.6875 68.75 50 
Q 74.21875 45.3125 80.078125 41.984375 
Q 85.9375 38.671875 92.96875 36.515625 
Q 100 34.375 94.328125 33.390625 
Q 88.671875 32.421875 81.640625 32.8125 
Q 74.609375 33.203125 71.875 36.71875 
Q 69.140625 40.234375 63.671875 47.453125 
Q 58.203125 54.6875 48.046875 66.796875 
Q 42.96875 57.421875 38.078125 50.578125 
Q 33.203125 43.75 26.171875 36.328125 
Q 19.140625 28.90625 10.546875 24.609375 
Q 1.953125 20.3125 9.171875 26.171875 
Q 16.40625 32.03125 23.046875 39.640625 
Q 29.6875 47.265625 34.375 54.484375 
Q 39.0625 61.71875 41.40625 68.15625 
Q 43.75 74.609375 42.765625 77.734375 
Q 41.796875 80.859375 45.109375 79.6875 
Q 48.4375 78.515625 51.171875 76.359375 
Q 53.90625 74.21875 52.53125 72.84375 
Q 51.171875 71.484375 49.609375 69.140625 
z
M 50.390625 44.921875 
Q 53.515625 43.75 52.140625 41.40625 
Q 50.78125 39.0625 51.171875 19.921875 
Q 51.5625 0.78125 50.1875 -5.46875 
Q 48.828125 -11.71875 46.28125 -6.828125 
Q 43.75 -1.953125 44.328125 0.96875 
Q 44.921875 3.90625 45.703125 13.28125 
Q 46.484375 22.65625 45.5 32.421875 
Q 44.53125 42.1875 42.375 44.71875 
Q 40.234375 47.265625 43.9375 46.875 
Q 47.65625 46.484375 50.390625 44.921875 
z
" id="KaiTi-20010"/>
     <path d="M 41.015625 66.796875 
Q 40.625 57.8125 40.625 48.828125 
Q 49.609375 50.78125 53.125 51.5625 
Q 56.640625 52.34375 58.59375 50.1875 
Q 60.546875 48.046875 54.484375 47.0625 
Q 48.4375 46.09375 40.234375 46.484375 
Q 39.453125 40.234375 38.28125 31.640625 
Q 43.359375 32.421875 49.015625 33.984375 
Q 54.6875 35.546875 58 33.78125 
Q 61.328125 32.03125 53.703125 30.078125 
Q 46.09375 28.125 37.890625 29.6875 
Q 33.984375 13.671875 27.53125 5.65625 
Q 21.09375 -2.34375 14.84375 -5.46875 
Q 8.59375 -8.59375 10.734375 -6.4375 
Q 12.890625 -4.296875 18.15625 1.171875 
Q 23.4375 6.640625 27.53125 15.421875 
Q 31.640625 24.21875 33.59375 34.953125 
Q 35.546875 45.703125 35.34375 55.078125 
Q 35.15625 64.453125 32.609375 68.546875 
Q 30.078125 72.65625 33.984375 71.484375 
Q 37.890625 70.3125 40.234375 69.71875 
Q 42.578125 69.140625 51.171875 71.09375 
Q 59.765625 73.046875 61.71875 74.609375 
Q 63.671875 76.171875 70.109375 73.046875 
Q 76.5625 69.921875 73.4375 66.796875 
Q 70.3125 63.671875 70.3125 48.828125 
Q 70.3125 33.984375 71.09375 16.984375 
Q 71.875 0 67.765625 -5.46875 
Q 63.671875 -10.9375 62.109375 -7.03125 
Q 60.546875 -3.125 55.078125 1.5625 
Q 49.609375 6.25 53.515625 5.265625 
Q 57.421875 4.296875 60.34375 4.09375 
Q 63.28125 3.90625 64.0625 8.78125 
Q 64.84375 13.671875 64.84375 33.59375 
Q 64.84375 53.515625 64.25 60.734375 
Q 63.671875 67.96875 61.71875 68.75 
Q 59.765625 69.53125 41.015625 66.796875 
z
" id="KaiTi-26376"/>
     <path d="M 27.34375 55.46875 
Q 24.21875 54.6875 22.0625 54.484375 
Q 19.921875 54.296875 17.375 56.046875 
Q 14.84375 57.8125 18.359375 58.203125 
Q 21.875 58.59375 27.34375 59.375 
Q 26.953125 67.1875 24.796875 70.3125 
Q 22.65625 73.4375 27.921875 71.484375 
Q 33.203125 69.53125 32.421875 67.765625 
Q 31.640625 66.015625 31.25 59.765625 
Q 35.546875 60.546875 43.75 62.5 
Q 43.75 73.046875 41.796875 76.359375 
Q 39.84375 79.6875 42.96875 78.90625 
Q 46.09375 78.125 48.4375 76.953125 
Q 50.78125 75.78125 49.796875 73.4375 
Q 48.828125 71.09375 48.828125 63.28125 
Q 51.171875 64.0625 53.3125 64.453125 
Q 55.46875 64.84375 57.609375 62.890625 
Q 59.765625 60.9375 56.640625 60.34375 
Q 53.515625 59.765625 48.4375 58.984375 
Q 48.046875 51.953125 47.84375 44.328125 
Q 47.65625 36.71875 47.265625 28.515625 
Q 49.21875 28.90625 52.734375 29.484375 
Q 56.25 30.078125 58.390625 28.3125 
Q 60.546875 26.5625 53.515625 25.78125 
Q 46.484375 25 39.640625 24.015625 
Q 32.8125 23.046875 25 21.09375 
Q 17.1875 19.140625 13.671875 18.15625 
Q 10.15625 17.1875 7.03125 20.3125 
Q 3.90625 23.4375 6.25 23.4375 
Q 8.984375 23.4375 13.46875 23.828125 
Q 17.96875 24.21875 26.953125 25.78125 
Q 27.34375 33.203125 27.34375 40.234375 
L 27.34375 55.46875 
z
M 69.140625 43.75 
Q 71.875 44.140625 74.796875 45.109375 
Q 77.734375 46.09375 79.875 44.328125 
Q 82.03125 42.578125 77.921875 41.40625 
Q 73.828125 40.234375 69.140625 40.234375 
Q 68.359375 30.46875 67.96875 27.34375 
Q 70.703125 28.125 74.21875 28.90625 
Q 77.734375 29.6875 79.875 28.125 
Q 82.03125 26.5625 77.140625 25.390625 
Q 72.265625 24.21875 67.578125 25 
Q 66.015625 16.015625 63.078125 9.765625 
Q 60.15625 3.515625 55.65625 -0.96875 
Q 51.171875 -5.46875 46.09375 -8.59375 
Q 41.015625 -11.71875 45.3125 -7.421875 
Q 49.609375 -3.125 54.296875 3.703125 
Q 58.984375 10.546875 60.9375 17.765625 
Q 62.890625 25 63.671875 35.15625 
Q 64.453125 45.3125 64.25 51.953125 
Q 64.0625 58.59375 62.890625 61.328125 
Q 61.71875 64.0625 64.640625 63.28125 
Q 67.578125 62.5 70.5 62.890625 
Q 73.4375 63.28125 76.171875 64.0625 
Q 78.90625 64.84375 80.265625 65.8125 
Q 81.640625 66.796875 84.5625 65.8125 
Q 87.5 64.84375 89.453125 63.671875 
Q 91.40625 62.5 89.84375 59.5625 
Q 88.28125 56.640625 88.46875 45.5 
Q 88.671875 34.375 89.0625 24.40625 
Q 89.453125 14.453125 89.84375 7.609375 
Q 90.234375 0.78125 86.328125 -4.875 
Q 82.421875 -10.546875 81.046875 -6.25 
Q 79.6875 -1.953125 75.578125 2.34375 
Q 71.484375 6.640625 75.78125 4.875 
Q 80.078125 3.125 81.4375 3.515625 
Q 82.8125 3.90625 83.390625 7.8125 
Q 83.984375 11.71875 83.984375 28.515625 
Q 83.984375 45.3125 83.390625 52.140625 
Q 82.8125 58.984375 81.640625 60.34375 
Q 80.46875 61.71875 76.75 61.125 
Q 73.046875 60.546875 69.140625 59.765625 
L 69.140625 43.75 
z
M 31.25 48.4375 
Q 32.03125 48.4375 35.734375 49.21875 
Q 39.453125 50 40.8125 48.625 
Q 42.1875 47.265625 38.46875 46.28125 
Q 34.765625 45.3125 31.25 45.3125 
Q 31.25 43.75 30.859375 38.28125 
Q 32.8125 38.671875 35.9375 39.453125 
Q 39.0625 40.234375 40.421875 38.671875 
Q 41.796875 37.109375 39.25 36.328125 
Q 36.71875 35.546875 30.859375 35.546875 
Q 30.46875 31.25 30.46875 26.171875 
Q 39.0625 27.34375 42.96875 28.125 
Q 43.75 48.828125 43.75 58.203125 
Q 37.5 57.03125 31.25 56.25 
z
M 30.46875 19.140625 
Q 34.765625 16.796875 33.203125 15.421875 
Q 31.640625 14.0625 29.6875 12.296875 
Q 27.734375 10.546875 23.046875 6.4375 
Q 18.359375 2.34375 13.46875 0.390625 
Q 8.59375 -1.5625 11.515625 0.78125 
Q 14.453125 3.125 18.15625 7.03125 
Q 21.875 10.9375 23.828125 13.28125 
Q 25.78125 15.625 26.171875 18.546875 
Q 26.5625 21.484375 30.46875 19.140625 
z
M 48.4375 15.625 
Q 50.78125 13.671875 50.390625 9.5625 
Q 50 5.46875 46.875 8.78125 
Q 43.75 12.109375 41.015625 16.59375 
Q 38.28125 21.09375 42.1875 19.328125 
Q 46.09375 17.578125 48.4375 15.625 
z
" id="KaiTi-26399"/>
     <path d="M 45.3125 46.484375 
Q 51.953125 38.28125 62.109375 28.3125 
Q 72.265625 18.359375 78.703125 14.640625 
Q 85.15625 10.9375 92.96875 8.390625 
Q 100.78125 5.859375 92.578125 4.875 
Q 84.375 3.90625 78.703125 4.484375 
Q 73.046875 5.078125 70.109375 9.171875 
Q 67.1875 13.28125 58.984375 24.015625 
Q 50.78125 34.765625 44.140625 44.53125 
Q 37.109375 32.421875 31.25 24.40625 
Q 25.390625 16.40625 19.71875 11.71875 
Q 14.0625 7.03125 7.8125 4.6875 
Q 1.5625 2.34375 8.59375 7.609375 
Q 15.625 12.890625 22.65625 21.484375 
Q 29.6875 30.078125 35.15625 40.8125 
Q 40.625 51.5625 42.96875 58.390625 
Q 45.3125 65.234375 43.9375 69.53125 
Q 42.578125 73.828125 46.875 71.875 
Q 51.171875 69.921875 53.515625 67.96875 
Q 55.859375 66.015625 53.90625 63.859375 
Q 51.953125 61.71875 49.796875 56.828125 
Q 47.65625 51.953125 45.3125 46.484375 
z
" id="KaiTi-20154"/>
     <path d="M 58.59375 60.9375 
Q 61.71875 57.421875 58.78125 56.640625 
Q 55.859375 55.859375 49.21875 53.90625 
Q 52.734375 51.171875 52.140625 49.40625 
Q 51.5625 47.65625 53.125 41.796875 
Q 57.421875 43.359375 60.546875 44.921875 
Q 63.671875 46.484375 67.1875 44.71875 
Q 70.703125 42.96875 65.234375 40.8125 
Q 59.765625 38.671875 54.296875 37.109375 
Q 59.375 24.21875 66.984375 15.234375 
Q 74.609375 6.25 79.296875 4.6875 
Q 83.984375 3.125 84.765625 6.046875 
Q 85.546875 8.984375 86.90625 15.625 
Q 88.28125 22.265625 88.859375 11.328125 
Q 89.453125 0.390625 91.40625 -3.703125 
Q 93.359375 -7.8125 89.84375 -7.8125 
Q 86.71875 -7.8125 79.296875 -3.90625 
Q 71.875 0 63.859375 9.765625 
Q 55.859375 19.53125 49.609375 35.15625 
Q 43.359375 33.203125 39.84375 31.640625 
Q 36.328125 30.078125 32.421875 32.21875 
Q 28.515625 34.375 33.390625 35.15625 
Q 38.28125 35.9375 48.046875 39.453125 
Q 45.703125 49.609375 43.75 52.34375 
Q 37.890625 50.390625 35.15625 49.609375 
Q 32.421875 48.828125 28.90625 48.828125 
Q 28.125 19.140625 27.734375 13.671875 
Q 38.671875 19.140625 43.359375 21.09375 
Q 48.046875 23.046875 40.8125 17.578125 
Q 33.59375 12.109375 28.90625 7.609375 
Q 24.21875 3.125 21.671875 -0.1875 
Q 19.140625 -3.515625 17.578125 1.75 
Q 16.015625 7.03125 18.15625 9.5625 
Q 20.3125 12.109375 21.671875 16.796875 
Q 23.046875 21.484375 23.625 41.59375 
Q 24.21875 61.71875 22.265625 64.84375 
Q 20.3125 67.96875 22.265625 67.96875 
Q 24.609375 67.96875 26.75 67.1875 
Q 28.90625 66.40625 33.390625 67.578125 
Q 37.890625 68.75 43.75 70.703125 
Q 49.609375 72.65625 51.75 74.609375 
Q 53.90625 76.5625 57.03125 75.578125 
Q 60.15625 74.609375 63.859375 72.0625 
Q 67.578125 69.53125 64.0625 67.765625 
Q 60.546875 66.015625 58.59375 60.9375 
z
M 28.90625 51.953125 
Q 42.578125 55.46875 52.34375 59.375 
Q 53.125 64.0625 53.125 66.40625 
Q 53.125 69.140625 51.953125 69.140625 
Q 51.171875 69.140625 46.484375 67.96875 
L 29.296875 63.671875 
L 28.90625 51.953125 
z
" id="KaiTi-27665"/>
     <path d="M 48.4375 66.40625 
Q 55.46875 62.890625 54.09375 60.734375 
Q 52.734375 58.59375 52.734375 49.609375 
Q 64.453125 51.171875 67.96875 53.125 
Q 71.484375 55.078125 75.390625 53.125 
Q 79.296875 51.171875 81.25 49.609375 
Q 83.203125 48.046875 81.4375 46.09375 
Q 79.6875 44.140625 79.09375 34.765625 
Q 78.515625 25.390625 76.953125 21.28125 
Q 75.390625 17.1875 72.65625 14.25 
Q 69.921875 11.328125 68.359375 15.234375 
Q 66.796875 19.140625 61.90625 23.625 
Q 57.03125 28.125 62.109375 26.359375 
Q 67.1875 24.609375 69.328125 24.796875 
Q 71.484375 25 72.453125 32.21875 
Q 73.4375 39.453125 73.046875 43.546875 
Q 72.65625 47.65625 70.109375 48.046875 
Q 67.578125 48.4375 64.0625 48.046875 
Q 60.546875 47.65625 52.734375 46.09375 
Q 52.734375 13.671875 51.953125 1.953125 
Q 51.171875 -9.765625 49.40625 -10.734375 
Q 47.65625 -11.71875 47.265625 -0.96875 
Q 46.875 9.765625 46.875 44.53125 
L 29.296875 42.1875 
Q 29.6875 37.109375 29.6875 28.515625 
Q 29.6875 19.921875 28.515625 16.796875 
Q 27.34375 13.671875 25 17.765625 
Q 22.65625 21.875 23.625 25.578125 
Q 24.609375 29.296875 24.609375 35.15625 
Q 24.609375 41.40625 22.65625 44.53125 
Q 20.703125 47.65625 23.234375 47.265625 
Q 25.78125 46.875 27.53125 46.09375 
Q 29.296875 45.3125 34.953125 46.09375 
Q 40.625 46.875 46.875 48.046875 
Q 46.875 53.125 46.484375 58.203125 
Q 46.09375 63.28125 44.140625 65.234375 
Q 28.90625 61.328125 24.40625 61.90625 
Q 19.921875 62.5 27.34375 64.453125 
Q 34.765625 66.40625 44.328125 70.109375 
Q 53.90625 73.828125 57.03125 75.96875 
Q 60.15625 78.125 61.125 79.6875 
Q 62.109375 81.25 65.625 79.09375 
Q 69.140625 76.953125 71.671875 74.40625 
Q 74.21875 71.875 67.765625 71.28125 
Q 61.328125 70.703125 48.4375 66.40625 
z
" id="KaiTi-24065"/>
     <path d="M 44.53125 1.953125 
L 35.546875 1.953125 
L 35.546875 33.203125 
L 13.28125 33.203125 
L 13.28125 1.953125 
L 4.296875 1.953125 
L 4.296875 68.75 
L 13.28125 68.75 
L 13.28125 40.625 
L 35.546875 40.625 
L 35.546875 68.75 
L 44.53125 68.75 
z
" id="KaiTi-72"/>
     <path d="M 28.125 1.953125 
L 20.3125 1.953125 
L 20.3125 45.703125 
L 28.125 45.703125 
z
M 29.6875 66.796875 
Q 30.078125 60.546875 27.34375 58.984375 
Q 24.609375 57.421875 21.875 58.78125 
Q 19.140625 60.15625 18.9375 63.28125 
Q 18.75 66.40625 21.484375 67.96875 
Q 24.21875 69.53125 26.953125 68.15625 
Q 29.6875 66.796875 30.078125 60.546875 
z
" id="KaiTi-105"/>
     <path d="M 44.140625 23.828125 
Q 44.140625 12.5 38.671875 6.828125 
Q 33.203125 1.171875 25.390625 1.171875 
Q 21.09375 1.171875 17.96875 2.734375 
Q 14.84375 4.296875 12.5 7.8125 
L 12.5 1.953125 
L 4.6875 1.953125 
L 4.6875 68.75 
L 12.5 68.75 
L 12.5 39.84375 
Q 14.84375 43.359375 17.96875 45.109375 
Q 21.09375 46.875 25.390625 46.875 
Q 33.203125 46.875 38.671875 41.015625 
Q 44.140625 35.15625 44.140625 23.828125 
z
M 35.546875 23.828125 
Q 35.546875 31.25 32.609375 35.546875 
Q 29.6875 39.84375 23.828125 39.84375 
Q 19.140625 39.84375 15.8125 35.546875 
Q 12.5 31.25 12.5 23.828125 
Q 12.5 16.40625 15.8125 12.296875 
Q 19.140625 8.203125 23.828125 8.203125 
Q 29.6875 8.203125 32.609375 12.296875 
Q 35.546875 16.40625 35.546875 23.828125 
z
" id="KaiTi-98"/>
     <path d="M 45.703125 23.828125 
Q 45.703125 13.671875 39.453125 7.421875 
Q 33.203125 1.171875 24.609375 1.171875 
Q 16.015625 1.171875 9.765625 7.421875 
Q 3.515625 13.671875 3.515625 23.828125 
Q 3.515625 33.984375 9.765625 40.234375 
Q 16.015625 46.484375 24.609375 46.484375 
Q 33.203125 46.484375 39.453125 40.234375 
Q 45.703125 33.984375 45.703125 23.828125 
z
M 37.109375 23.828125 
Q 37.109375 31.640625 33.203125 35.546875 
Q 29.296875 39.453125 24.609375 39.453125 
Q 19.921875 39.453125 16.015625 35.546875 
Q 12.109375 31.640625 12.109375 23.828125 
Q 12.109375 16.015625 16.015625 12.109375 
Q 19.921875 8.203125 24.609375 8.203125 
Q 29.296875 8.203125 33.203125 12.109375 
Q 37.109375 16.015625 37.109375 23.828125 
z
" id="KaiTi-111"/>
     <path d="M 39.0625 37.890625 
Q 31.640625 39.0625 26.5625 35.734375 
Q 21.484375 32.421875 17.96875 24.21875 
L 17.96875 1.953125 
L 10.15625 1.953125 
L 10.15625 45.703125 
L 17.96875 45.703125 
L 17.96875 34.375 
Q 21.484375 40.625 26.75 43.546875 
Q 32.03125 46.484375 39.0625 46.484375 
z
" id="KaiTi-114"/>
     <path d="M 33.59375 11.328125 
Q 31.640625 2.734375 29.09375 7.609375 
Q 26.5625 12.5 28.3125 18.9375 
Q 30.078125 25.390625 29.875 38.078125 
Q 29.6875 50.78125 28.90625 55.078125 
Q 28.125 59.375 26.5625 62.5 
Q 25 65.625 27.921875 64.640625 
Q 30.859375 63.671875 33.203125 63.46875 
Q 35.546875 63.28125 40.8125 64.0625 
Q 46.09375 64.84375 51.5625 66.203125 
Q 57.03125 67.578125 59.375 69.328125 
Q 61.71875 71.09375 65.625 69.53125 
Q 69.53125 67.96875 72.265625 65.8125 
Q 75 63.671875 72.453125 59.5625 
Q 69.921875 55.46875 70.3125 38.859375 
Q 70.703125 22.265625 70.890625 14.84375 
Q 71.09375 7.421875 68.15625 1.75 
Q 65.234375 -3.90625 63.671875 2.34375 
Q 62.109375 8.59375 61.125 10.734375 
Q 60.15625 12.890625 56.828125 13.078125 
Q 53.515625 13.28125 45.5 12.109375 
Q 37.5 10.9375 33.59375 11.328125 
z
M 34.765625 36.71875 
Q 33.984375 25.390625 33.59375 14.0625 
Q 43.359375 14.453125 49.796875 16.59375 
Q 56.25 18.75 58.59375 15.8125 
Q 60.9375 12.890625 62.6875 13.46875 
Q 64.453125 14.0625 64.453125 29.6875 
Q 64.453125 45.3125 64.0625 54.296875 
Q 63.671875 63.28125 60.734375 64.0625 
Q 57.8125 64.84375 33.59375 59.765625 
Q 34.765625 49.609375 34.765625 39.0625 
Q 39.0625 39.0625 45.3125 41.59375 
Q 51.5625 44.140625 55.859375 41.59375 
Q 60.15625 39.0625 49.40625 37.109375 
Q 38.671875 35.15625 34.765625 36.71875 
z
" id="KaiTi-26085"/>
     <path d="M 52.34375 10.9375 
Q 58.984375 6.640625 66.59375 3.703125 
Q 74.21875 0.78125 82.8125 -0.578125 
Q 91.40625 -1.953125 91.40625 -2.734375 
Q 91.40625 -3.515625 85.734375 -4.6875 
Q 80.078125 -5.859375 73.625 -6.25 
Q 67.1875 -6.640625 62.5 -3.125 
Q 57.8125 0.390625 48.4375 7.03125 
Q 41.40625 1.5625 32.421875 -1.359375 
Q 23.4375 -4.296875 17.578125 -4.09375 
Q 11.71875 -3.90625 18.15625 -2.34375 
Q 24.609375 -0.78125 32.03125 2.734375 
Q 39.453125 6.25 43.75 10.546875 
Q 39.453125 14.0625 35.15625 16.796875 
Q 30.859375 19.53125 27.53125 20.5 
Q 24.21875 21.484375 28.125 22.453125 
Q 32.03125 23.4375 35.734375 20.890625 
Q 39.453125 18.359375 47.265625 13.28125 
Q 52.34375 19.140625 54.296875 24.40625 
Q 56.25 29.6875 53.703125 29.484375 
Q 51.171875 29.296875 46.484375 28.3125 
Q 41.796875 27.34375 37.5 26.171875 
Q 33.203125 25 29.09375 27.34375 
Q 25 29.6875 30.859375 29.6875 
Q 37.109375 29.6875 45.3125 31.4375 
Q 53.515625 33.203125 55.265625 34.375 
Q 57.03125 35.546875 59.5625 34.5625 
Q 62.109375 33.59375 64.453125 31.640625 
Q 66.796875 29.6875 64.640625 28.515625 
Q 62.5 27.34375 59.5625 21.671875 
Q 56.640625 16.015625 52.34375 10.9375 
z
M 54.6875 63.28125 
Q 57.8125 59.765625 57.421875 58.203125 
Q 57.03125 56.640625 56.640625 52.921875 
Q 56.25 49.21875 56.25 44.921875 
Q 56.25 40.625 55.265625 37.890625 
Q 54.296875 35.15625 53.515625 35.15625 
Q 52.734375 35.15625 51.5625 37.5 
Q 50.390625 39.84375 51.171875 44.71875 
Q 51.953125 49.609375 51.75 53.90625 
Q 51.5625 58.203125 49.609375 62.5 
Q 45.703125 62.109375 39.453125 61.328125 
Q 42.96875 58.203125 42.375 55.859375 
Q 41.796875 53.515625 41.59375 48.625 
Q 41.40625 43.75 41.203125 40.625 
Q 41.015625 37.5 39.640625 35.34375 
Q 38.28125 33.203125 36.90625 36.90625 
Q 35.546875 40.625 36.125 42.1875 
Q 36.71875 43.75 37.109375 48.828125 
Q 37.5 53.90625 36.328125 60.546875 
L 25.78125 58.59375 
Q 22.265625 58.203125 18.546875 60.546875 
Q 14.84375 62.890625 20.703125 63.078125 
Q 26.5625 63.28125 42.1875 65.234375 
Q 64.0625 68.75 69.328125 69.53125 
Q 74.609375 70.3125 78.515625 68.15625 
Q 82.421875 66.015625 80.859375 65.03125 
Q 79.296875 64.0625 74.015625 64.25 
Q 68.75 64.453125 54.6875 63.28125 
z
M 73.046875 44.53125 
Q 64.453125 49.609375 62.6875 51.953125 
Q 60.9375 54.296875 68.546875 53.515625 
Q 76.171875 52.734375 78.515625 49.21875 
Q 80.859375 45.703125 80.265625 43.359375 
Q 79.6875 41.015625 73.046875 44.53125 
z
M 21.875 48.828125 
Q 24.21875 51.5625 26.359375 54.296875 
Q 28.515625 57.03125 27.53125 50 
Q 26.5625 42.96875 21.484375 37.890625 
Q 16.40625 32.8125 16.59375 37.296875 
Q 16.796875 41.796875 18.359375 43.9375 
Q 19.921875 46.09375 21.875 48.828125 
z
M 46.09375 71.484375 
Q 40.625 75.390625 40.03125 76.953125 
Q 39.453125 78.515625 44.71875 78.3125 
Q 50 78.125 52.34375 75.390625 
Q 54.6875 72.65625 53.125 70.3125 
Q 51.5625 67.96875 46.09375 71.484375 
z
" id="KaiTi-21464"/>
     <path d="M 54.296875 39.84375 
Q 58.984375 44.53125 64.25 51.359375 
Q 69.53125 58.203125 69.140625 61.515625 
Q 68.75 64.84375 71.28125 63.671875 
Q 73.828125 62.5 76.359375 59.5625 
Q 78.90625 56.640625 76.5625 55.265625 
Q 74.21875 53.90625 68.9375 47.84375 
Q 63.671875 41.796875 54.296875 32.8125 
Q 53.90625 25 54.875 19.328125 
Q 55.859375 13.671875 59.953125 10.734375 
Q 64.0625 7.8125 72.84375 8.390625 
Q 81.640625 8.984375 84.953125 11.90625 
Q 88.28125 14.84375 89.84375 22.453125 
Q 91.40625 30.078125 91.40625 22.265625 
Q 91.40625 14.84375 92.96875 10.546875 
Q 94.53125 6.25 88.078125 3.703125 
Q 81.640625 1.171875 70.5 1.5625 
Q 59.375 1.953125 55.078125 5.859375 
Q 50.78125 9.765625 50 16.203125 
Q 49.21875 22.65625 49.609375 28.515625 
Q 46.484375 25.78125 42.578125 23.625 
Q 38.671875 21.484375 35.15625 20.5 
Q 31.640625 19.53125 34.5625 21.671875 
Q 37.5 23.828125 41.796875 27.53125 
Q 46.09375 31.25 49.609375 35.546875 
Q 50 45.703125 50 52.34375 
Q 50 59.375 49.609375 64.0625 
Q 49.21875 68.75 47.265625 72.265625 
Q 45.3125 75.78125 48.828125 75 
Q 52.34375 74.21875 55.265625 72.453125 
Q 58.203125 70.703125 57.03125 68.359375 
Q 55.859375 66.015625 55.265625 57.03125 
Q 54.6875 48.046875 54.296875 39.84375 
z
M 25 48.4375 
Q 30.859375 44.921875 30.078125 39.453125 
Q 29.296875 33.984375 29.484375 21.875 
Q 29.6875 9.765625 28.125 1.953125 
Q 26.5625 -5.859375 24.015625 -0.1875 
Q 21.484375 5.46875 23.046875 9.171875 
Q 24.609375 12.890625 25.1875 20.5 
Q 25.78125 28.125 25.578125 36.71875 
Q 25.390625 45.3125 23.046875 46.09375 
Q 16.796875 36.71875 9.5625 31.25 
Q 2.34375 25.78125 8.203125 32.609375 
Q 14.0625 39.453125 19.328125 49.015625 
Q 24.609375 58.59375 26.359375 64.25 
Q 28.125 69.921875 27.34375 73.046875 
Q 26.5625 76.171875 29.296875 75.1875 
Q 32.03125 74.21875 34.765625 71.671875 
Q 37.5 69.140625 35.546875 67.375 
Q 33.59375 65.625 30.859375 59.953125 
Q 28.125 54.296875 25 48.4375 
z
" id="KaiTi-21270"/>
     <path d="M 20.3125 47.65625 
Q 29.6875 49.21875 32.421875 51.5625 
Q 35.15625 53.90625 38.078125 52.53125 
Q 41.015625 51.171875 43.359375 49.609375 
Q 45.703125 48.046875 44.328125 45.890625 
Q 42.96875 43.75 42.1875 40.234375 
Q 41.40625 36.71875 41.796875 27.34375 
Q 42.1875 17.96875 41.203125 13.28125 
Q 40.234375 8.59375 39.0625 6.046875 
Q 37.890625 3.515625 36.515625 6.046875 
Q 35.15625 8.59375 33.984375 10.734375 
Q 32.8125 12.890625 31.4375 13.078125 
Q 30.078125 13.28125 20.3125 11.71875 
Q 18.75 3.125 16.984375 6.640625 
Q 15.234375 10.15625 15.234375 16.40625 
Q 15.234375 22.65625 14.84375 32.03125 
Q 14.453125 41.40625 12.109375 44.921875 
Q 9.765625 48.4375 11.71875 48.4375 
Q 13.671875 48.4375 17.1875 47.65625 
Q 20.703125 52.34375 24.40625 60.34375 
Q 28.125 68.359375 26.75 72.265625 
Q 25.390625 76.171875 31.25 73.4375 
Q 38.28125 70.3125 35.734375 68.15625 
Q 33.203125 66.015625 30.078125 61.328125 
Q 26.953125 56.640625 20.3125 47.65625 
z
M 59.375 51.171875 
Q 73.4375 51.953125 76.171875 53.90625 
Q 78.90625 55.859375 82.21875 54.484375 
Q 85.546875 53.125 87.6875 50.96875 
Q 89.84375 48.828125 87.890625 46.875 
Q 85.9375 44.921875 85.15625 36.71875 
Q 84.375 28.515625 83.78125 20.3125 
Q 83.203125 12.109375 80.46875 6.4375 
Q 77.734375 0.78125 72.65625 -2.140625 
Q 67.578125 -5.078125 67.1875 -0.78125 
Q 66.796875 3.515625 62.296875 8.59375 
Q 57.8125 13.671875 62.6875 11.125 
Q 67.578125 8.59375 70.5 8 
Q 73.4375 7.421875 75.578125 12.5 
Q 77.734375 17.578125 78.515625 26.75 
Q 79.296875 35.9375 79.296875 42.1875 
Q 79.296875 48.4375 77.734375 49.40625 
Q 76.171875 50.390625 71.09375 49.21875 
L 63.28125 47.265625 
Q 60.9375 46.875 58.203125 49.21875 
Q 51.5625 42.1875 46.09375 38.671875 
Q 40.625 35.15625 46.875 42.1875 
Q 53.125 49.21875 58.390625 59.375 
Q 63.671875 69.53125 62.296875 73.625 
Q 60.9375 77.734375 64.84375 76.5625 
Q 68.75 75.390625 70.890625 73.828125 
Q 73.046875 72.265625 71.28125 70.3125 
Q 69.53125 68.359375 66.984375 63.28125 
Q 64.453125 58.203125 59.375 51.171875 
z
M 19.53125 30.859375 
Q 24.609375 31.640625 26.5625 32.609375 
Q 28.515625 33.59375 30.65625 31.828125 
Q 32.8125 30.078125 29.09375 28.703125 
Q 25.390625 27.34375 19.53125 27.34375 
L 19.921875 14.84375 
Q 23.4375 15.234375 26.953125 16.59375 
Q 30.46875 17.96875 32.21875 16.203125 
Q 33.984375 14.453125 34.953125 16.984375 
Q 35.9375 19.53125 36.125 31.25 
Q 36.328125 42.96875 35.15625 44.71875 
Q 33.984375 46.484375 31.4375 46.28125 
Q 28.90625 46.09375 19.140625 44.140625 
L 19.53125 30.859375 
z
M 58.203125 26.171875 
Q 53.125 33.203125 52.140625 35.15625 
Q 51.171875 37.109375 55.859375 35.734375 
Q 60.546875 34.375 62.890625 31.25 
Q 65.234375 28.125 64.25 23.828125 
Q 63.28125 19.53125 58.203125 26.171875 
z
" id="KaiTi-30340"/>
     <path d="M 45.3125 49.21875 
Q 53.515625 50.78125 56.4375 52.34375 
Q 59.375 53.90625 65.03125 50.578125 
Q 70.703125 47.265625 69.328125 45.5 
Q 67.96875 43.75 66.984375 36.90625 
Q 66.015625 30.078125 64.84375 5.859375 
Q 75.390625 6.25 80.46875 6.640625 
Q 85.546875 7.03125 89.453125 5.265625 
Q 93.359375 3.515625 92.765625 1.5625 
Q 92.1875 -0.390625 86.125 0.578125 
Q 80.078125 1.5625 73.4375 1.75 
Q 66.796875 1.953125 54.484375 0.96875 
Q 42.1875 0 32.03125 -1.171875 
Q 21.875 -2.34375 17.1875 -3.515625 
Q 12.5 -4.6875 8.59375 -2.140625 
Q 4.6875 0.390625 8.59375 0.578125 
Q 12.5 0.78125 31.640625 3.125 
Q 31.640625 32.8125 31.046875 38.46875 
Q 30.46875 44.140625 28.90625 46.28125 
Q 27.34375 48.4375 29.296875 48.234375 
Q 31.25 48.046875 32.609375 47.65625 
Q 33.984375 47.265625 41.015625 48.4375 
Q 42.96875 55.46875 43.75 60.15625 
Q 32.421875 58.59375 29.484375 57.609375 
Q 26.5625 56.640625 22.0625 59.375 
Q 17.578125 62.109375 23.046875 61.90625 
Q 28.515625 61.71875 44.53125 64.0625 
Q 45.703125 67.1875 46.28125 71.671875 
Q 46.875 76.171875 45.703125 79.09375 
Q 44.53125 82.03125 46.875 81.4375 
Q 49.21875 80.859375 52.921875 79.09375 
Q 56.640625 77.34375 54.875 75.578125 
Q 53.125 73.828125 50.390625 64.84375 
Q 63.28125 66.796875 66.984375 67.765625 
Q 70.703125 68.75 75.390625 66.40625 
Q 80.078125 64.0625 73.4375 63.671875 
Q 66.796875 63.28125 49.21875 60.9375 
Q 46.09375 51.953125 45.3125 49.21875 
z
M 36.328125 36.328125 
Q 43.75 37.890625 47.265625 38.671875 
Q 50.78125 39.453125 53.3125 38.078125 
Q 55.859375 36.71875 49.609375 35.546875 
Q 43.359375 34.375 36.328125 34.765625 
L 36.328125 25.78125 
Q 42.578125 27.34375 46.875 27.921875 
Q 51.171875 28.515625 52.921875 27.140625 
Q 54.6875 25.78125 50.390625 24.796875 
Q 46.09375 23.828125 36.328125 24.21875 
L 36.328125 15.234375 
Q 43.359375 16.015625 47.84375 16.984375 
Q 52.34375 17.96875 54.296875 16.40625 
Q 56.25 14.84375 51.171875 13.859375 
Q 46.09375 12.890625 36.328125 12.890625 
L 36.328125 3.515625 
Q 53.90625 5.078125 59.765625 5.46875 
Q 60.9375 35.15625 60.734375 40.03125 
Q 60.546875 44.921875 59.5625 46.671875 
Q 58.59375 48.4375 56.046875 48.234375 
Q 53.515625 48.046875 49.796875 47.453125 
Q 46.09375 46.875 36.328125 45.3125 
L 36.328125 36.328125 
z
" id="KaiTi-30452"/>
     <path d="M 51.953125 51.171875 
Q 57.03125 48.4375 55.65625 46.671875 
Q 54.296875 44.921875 52.34375 40.234375 
Q 54.6875 39.453125 58.390625 39.84375 
Q 62.109375 40.234375 64.453125 41.203125 
Q 66.796875 42.1875 69.71875 41.015625 
Q 72.65625 39.84375 75.390625 38.078125 
Q 78.125 36.328125 76.359375 34.375 
Q 74.609375 32.421875 72.453125 24.40625 
Q 70.3125 16.40625 68.359375 11.71875 
Q 66.40625 7.03125 63.46875 3.125 
Q 60.546875 -0.78125 56.828125 -2.140625 
Q 53.125 -3.515625 52.53125 0.1875 
Q 51.953125 3.90625 46.671875 8.59375 
Q 41.40625 13.28125 47.65625 10.34375 
Q 53.90625 7.421875 56.25 7.421875 
Q 58.984375 7.421875 61.125 11.515625 
Q 63.28125 15.625 65.421875 22.453125 
Q 67.578125 29.296875 67.578125 32.421875 
Q 67.578125 35.546875 65.8125 36.515625 
Q 64.0625 37.5 61.71875 37.296875 
Q 59.375 37.109375 56.640625 37.109375 
Q 54.296875 37.109375 51.171875 38.28125 
Q 47.65625 30.078125 42.765625 23.4375 
Q 37.890625 16.796875 31.25 11.125 
Q 24.609375 5.46875 16.203125 1.75 
Q 7.8125 -1.953125 15.234375 3.515625 
Q 22.65625 8.984375 27.921875 14.25 
Q 33.203125 19.53125 38.078125 26.359375 
Q 42.96875 33.203125 45.5 39.84375 
Q 48.046875 46.484375 48.4375 50.78125 
Q 37.5 49.609375 30.265625 48.046875 
Q 23.046875 46.484375 20.703125 46.28125 
Q 18.359375 46.09375 13.859375 48.4375 
Q 9.375 50.78125 14.453125 50.78125 
Q 19.921875 50.78125 27.53125 51.953125 
Q 35.15625 53.125 53.703125 55.65625 
Q 72.265625 58.203125 79.875 59.953125 
Q 87.5 61.71875 92.1875 58.59375 
Q 96.875 55.46875 91.203125 54.875 
Q 85.546875 54.296875 75.78125 53.90625 
Q 66.015625 53.515625 51.953125 51.171875 
z
M 47.65625 72.265625 
Q 44.53125 76.171875 47.0625 76.359375 
Q 49.609375 76.5625 52.921875 75.96875 
Q 56.25 75.390625 58.78125 73.234375 
Q 61.328125 71.09375 60.734375 66.984375 
Q 60.15625 62.890625 55.65625 65.8125 
Q 51.171875 68.75 47.65625 72.265625 
z
" id="KaiTi-26041"/>
     <path d="M 74.21875 2.34375 
Q 62.5 2.734375 23.046875 0.78125 
Q 22.65625 -6.640625 19.53125 -1.359375 
Q 16.40625 3.90625 17.96875 9.765625 
Q 19.53125 15.625 20.109375 26.953125 
Q 20.703125 38.28125 20.703125 51.5625 
Q 20.703125 64.84375 18.359375 68.15625 
Q 16.015625 71.484375 17.578125 71.484375 
Q 19.53125 71.484375 22.0625 70.703125 
Q 24.609375 69.921875 31.25 70.3125 
Q 37.890625 70.703125 51.359375 72.65625 
Q 64.84375 74.609375 67.96875 75.96875 
Q 71.09375 77.34375 75 75.578125 
Q 78.90625 73.828125 81.4375 71.09375 
Q 83.984375 68.359375 82.609375 65.625 
Q 81.25 62.890625 81.828125 43.75 
Q 82.421875 24.609375 83.390625 15.03125 
Q 84.375 5.46875 83.390625 -0.390625 
Q 82.421875 -6.25 80.65625 -8 
Q 78.90625 -9.765625 78.125 -6.640625 
Q 77.34375 -3.515625 74.21875 2.34375 
z
M 23.4375 4.296875 
Q 47.65625 5.859375 55.265625 6.640625 
Q 62.890625 7.421875 66.59375 7.609375 
Q 70.3125 7.8125 72.84375 5.859375 
Q 75.390625 3.90625 76.359375 7.609375 
Q 77.34375 11.328125 77.140625 24.40625 
Q 76.953125 37.5 76.5625 50.78125 
Q 76.171875 64.0625 73.625 67.765625 
Q 71.09375 71.484375 64.84375 70.890625 
Q 58.59375 70.3125 25.390625 66.796875 
Q 25.390625 37.109375 23.4375 4.296875 
z
M 44.140625 57.03125 
Q 47.265625 56.640625 50.1875 57.421875 
Q 53.125 58.203125 54.484375 59.171875 
Q 55.859375 60.15625 58.203125 59.375 
Q 60.546875 58.59375 62.5 57.03125 
Q 64.453125 55.46875 62.296875 54.09375 
Q 60.15625 52.734375 58.203125 49.609375 
Q 56.25 46.484375 53.125 42.578125 
Q 59.765625 37.5 64.0625 35.546875 
Q 68.359375 33.59375 73.234375 32.03125 
Q 78.125 30.46875 73.4375 29.484375 
Q 68.75 28.515625 64.453125 28.3125 
Q 60.15625 28.125 58 31.046875 
Q 55.859375 33.984375 50 39.0625 
Q 46.09375 34.765625 40.03125 30.46875 
Q 33.984375 26.171875 28.515625 24.609375 
Q 23.046875 23.046875 27.734375 25.78125 
Q 32.421875 28.515625 37.6875 33.390625 
Q 42.96875 38.28125 46.875 42.96875 
Q 41.40625 47.265625 38.671875 48.828125 
Q 33.984375 44.53125 31.046875 43.15625 
Q 28.125 41.796875 31.640625 45.3125 
Q 35.15625 48.828125 38.078125 55.265625 
Q 41.015625 61.71875 40.421875 65.234375 
Q 39.84375 68.75 42.96875 67.578125 
Q 46.09375 66.40625 47.65625 64.640625 
Q 49.21875 62.890625 47.84375 61.515625 
Q 46.484375 60.15625 44.140625 57.03125 
z
M 44.140625 18.359375 
Q 40.625 23.4375 46.28125 21.671875 
Q 51.953125 19.921875 54.6875 17.375 
Q 57.421875 14.84375 56.640625 11.125 
Q 55.859375 7.421875 51.953125 10.546875 
Q 48.046875 13.671875 44.140625 18.359375 
z
M 39.84375 50.390625 
Q 42.578125 50 44.140625 48.828125 
Q 45.703125 47.65625 48.828125 45.703125 
Q 51.953125 49.609375 52.734375 52.140625 
Q 53.515625 54.6875 51.171875 54.6875 
Q 49.21875 54.6875 47.265625 54.09375 
Q 45.3125 53.515625 42.96875 55.078125 
L 39.84375 50.390625 
z
M 51.953125 24.21875 
Q 47.65625 28.125 46.09375 30.859375 
Q 44.53125 33.59375 50.578125 31.640625 
Q 56.640625 29.6875 56.640625 25 
Q 56.640625 20.703125 51.953125 24.21875 
z
" id="KaiTi-22270"/>
    </defs>
    <g transform="translate(37.650284 15.325)scale(0.1 -0.1)">
     <use xlink:href="#KaiTi-51"/>
     <use x="50" xlink:href="#KaiTi-20010"/>
     <use x="150" xlink:href="#KaiTi-26376"/>
     <use x="250" xlink:href="#KaiTi-26399"/>
     <use x="350" xlink:href="#KaiTi-20154"/>
     <use x="450" xlink:href="#KaiTi-27665"/>
     <use x="550" xlink:href="#KaiTi-24065"/>
     <use x="650" xlink:href="#KaiTi-72"/>
     <use x="700" xlink:href="#KaiTi-105"/>
     <use x="750" xlink:href="#KaiTi-98"/>
     <use x="800" xlink:href="#KaiTi-111"/>
     <use x="850" xlink:href="#KaiTi-114"/>
     <use x="900" xlink:href="#KaiTi-26085"/>
     <use x="1000" xlink:href="#KaiTi-21464"/>
     <use x="1100" xlink:href="#KaiTi-21270"/>
     <use x="1200" xlink:href="#KaiTi-30340"/>
     <use x="1300" xlink:href="#KaiTi-30452"/>
     <use x="1400" xlink:href="#KaiTi-26041"/>
     <use x="1500" xlink:href="#KaiTi-22270"/>
    </g>
   </g>
  </g>
  <g id="axes_2">
   <g id="patch_37">
    <path d="M 224.177557 238.765 
L 376.359375 238.765 
L 376.359375 21.325 
L 224.177557 21.325 
z
" style="fill:#ffffff;"/>
   </g>
   <g id="patch_38">
    <path clip-path="url(#p3831dbaa20)" d="M 234.03133 238.765 
L 238.398948 238.765 
L 238.398948 238.426625 
L 234.03133 238.426625 
z
" style="fill:#bfbf00;stroke:#000000;stroke-linejoin:miter;"/>
   </g>
   <g id="patch_39">
    <path clip-path="url(#p3831dbaa20)" d="M 238.398948 238.765 
L 242.766566 238.765 
L 242.766566 238.088249 
L 238.398948 238.088249 
z
" style="fill:#bfbf00;stroke:#000000;stroke-linejoin:miter;"/>
   </g>
   <g id="patch_40">
    <path clip-path="url(#p3831dbaa20)" d="M 242.766566 238.765 
L 247.134184 238.765 
L 247.134184 238.765 
L 242.766566 238.765 
z
" style="fill:#bfbf00;stroke:#000000;stroke-linejoin:miter;"/>
   </g>
   <g id="patch_41">
    <path clip-path="url(#p3831dbaa20)" d="M 247.134184 238.765 
L 251.501802 238.765 
L 251.501802 238.426625 
L 247.134184 238.426625 
z
" style="fill:#bfbf00;stroke:#000000;stroke-linejoin:miter;"/>
   </g>
   <g id="patch_42">
    <path clip-path="url(#p3831dbaa20)" d="M 251.501802 238.765 
L 255.86942 238.765 
L 255.86942 238.426625 
L 251.501802 238.426625 
z
" style="fill:#bfbf00;stroke:#000000;stroke-linejoin:miter;"/>
   </g>
   <g id="patch_43">
    <path clip-path="url(#p3831dbaa20)" d="M 255.86942 238.765 
L 260.237039 238.765 
L 260.237039 238.088249 
L 255.86942 238.088249 
z
" style="fill:#bfbf00;stroke:#000000;stroke-linejoin:miter;"/>
   </g>
   <g id="patch_44">
    <path clip-path="url(#p3831dbaa20)" d="M 260.237039 238.765 
L 264.604657 238.765 
L 264.604657 238.088249 
L 260.237039 238.088249 
z
" style="fill:#bfbf00;stroke:#000000;stroke-linejoin:miter;"/>
   </g>
   <g id="patch_45">
    <path clip-path="url(#p3831dbaa20)" d="M 264.604657 238.765 
L 268.972275 238.765 
L 268.972275 237.749874 
L 264.604657 237.749874 
z
" style="fill:#bfbf00;stroke:#000000;stroke-linejoin:miter;"/>
   </g>
   <g id="patch_46">
    <path clip-path="url(#p3831dbaa20)" d="M 268.972275 238.765 
L 273.339893 238.765 
L 273.339893 235.381246 
L 268.972275 235.381246 
z
" style="fill:#bfbf00;stroke:#000000;stroke-linejoin:miter;"/>
   </g>
   <g id="patch_47">
    <path clip-path="url(#p3831dbaa20)" d="M 273.339893 238.765 
L 277.707511 238.765 
L 277.707511 235.719622 
L 273.339893 235.719622 
z
" style="fill:#bfbf00;stroke:#000000;stroke-linejoin:miter;"/>
   </g>
   <g id="patch_48">
    <path clip-path="url(#p3831dbaa20)" d="M 277.707511 238.765 
L 282.07513 238.765 
L 282.07513 229.628866 
L 277.707511 229.628866 
z
" style="fill:#bfbf00;stroke:#000000;stroke-linejoin:miter;"/>
   </g>
   <g id="patch_49">
    <path clip-path="url(#p3831dbaa20)" d="M 282.07513 238.765 
L 286.442748 238.765 
L 286.442748 233.012619 
L 282.07513 233.012619 
z
" style="fill:#bfbf00;stroke:#000000;stroke-linejoin:miter;"/>
   </g>
   <g id="patch_50">
    <path clip-path="url(#p3831dbaa20)" d="M 286.442748 238.765 
L 290.810366 238.765 
L 290.810366 224.553235 
L 286.442748 224.553235 
z
" style="fill:#bfbf00;stroke:#000000;stroke-linejoin:miter;"/>
   </g>
   <g id="patch_51">
    <path clip-path="url(#p3831dbaa20)" d="M 290.810366 238.765 
L 295.177984 238.765 
L 295.177984 209.66472 
L 290.810366 209.66472 
z
" style="fill:#bfbf00;stroke:#000000;stroke-linejoin:miter;"/>
   </g>
   <g id="patch_52">
    <path clip-path="url(#p3831dbaa20)" d="M 295.177984 238.765 
L 299.545602 238.765 
L 299.545602 136.237269 
L 295.177984 136.237269 
z
" style="fill:#bfbf00;stroke:#000000;stroke-linejoin:miter;"/>
   </g>
   <g id="patch_53">
    <path clip-path="url(#p3831dbaa20)" d="M 299.545602 238.765 
L 303.91322 238.765 
L 303.91322 31.679286 
L 299.545602 31.679286 
z
" style="fill:#bfbf00;stroke:#000000;stroke-linejoin:miter;"/>
   </g>
   <g id="patch_54">
    <path clip-path="url(#p3831dbaa20)" d="M 303.91322 238.765 
L 308.280839 238.765 
L 308.280839 195.452955 
L 303.91322 195.452955 
z
" style="fill:#bfbf00;stroke:#000000;stroke-linejoin:miter;"/>
   </g>
   <g id="patch_55">
    <path clip-path="url(#p3831dbaa20)" d="M 308.280839 238.765 
L 312.648457 238.765 
L 312.648457 225.906737 
L 308.280839 225.906737 
z
" style="fill:#bfbf00;stroke:#000000;stroke-linejoin:miter;"/>
   </g>
   <g id="patch_56">
    <path clip-path="url(#p3831dbaa20)" d="M 312.648457 238.765 
L 317.016075 238.765 
L 317.016075 234.027745 
L 312.648457 234.027745 
z
" style="fill:#bfbf00;stroke:#000000;stroke-linejoin:miter;"/>
   </g>
   <g id="patch_57">
    <path clip-path="url(#p3831dbaa20)" d="M 317.016075 238.765 
L 321.383693 238.765 
L 321.383693 235.719622 
L 317.016075 235.719622 
z
" style="fill:#bfbf00;stroke:#000000;stroke-linejoin:miter;"/>
   </g>
   <g id="patch_58">
    <path clip-path="url(#p3831dbaa20)" d="M 321.383693 238.765 
L 325.751311 238.765 
L 325.751311 238.426625 
L 321.383693 238.426625 
z
" style="fill:#bfbf00;stroke:#000000;stroke-linejoin:miter;"/>
   </g>
   <g id="patch_59">
    <path clip-path="url(#p3831dbaa20)" d="M 325.751311 238.765 
L 330.11893 238.765 
L 330.11893 237.411499 
L 325.751311 237.411499 
z
" style="fill:#bfbf00;stroke:#000000;stroke-linejoin:miter;"/>
   </g>
   <g id="patch_60">
    <path clip-path="url(#p3831dbaa20)" d="M 330.11893 238.765 
L 334.486548 238.765 
L 334.486548 238.426625 
L 330.11893 238.426625 
z
" style="fill:#bfbf00;stroke:#000000;stroke-linejoin:miter;"/>
   </g>
   <g id="patch_61">
    <path clip-path="url(#p3831dbaa20)" d="M 334.486548 238.765 
L 338.854166 238.765 
L 338.854166 238.088249 
L 334.486548 238.088249 
z
" style="fill:#bfbf00;stroke:#000000;stroke-linejoin:miter;"/>
   </g>
   <g id="patch_62">
    <path clip-path="url(#p3831dbaa20)" d="M 338.854166 238.765 
L 343.221784 238.765 
L 343.221784 238.088249 
L 338.854166 238.088249 
z
" style="fill:#bfbf00;stroke:#000000;stroke-linejoin:miter;"/>
   </g>
   <g id="patch_63">
    <path clip-path="url(#p3831dbaa20)" d="M 343.221784 238.765 
L 347.589402 238.765 
L 347.589402 238.765 
L 343.221784 238.765 
z
" style="fill:#bfbf00;stroke:#000000;stroke-linejoin:miter;"/>
   </g>
   <g id="patch_64">
    <path clip-path="url(#p3831dbaa20)" d="M 347.589402 238.765 
L 351.95702 238.765 
L 351.95702 238.426625 
L 347.589402 238.426625 
z
" style="fill:#bfbf00;stroke:#000000;stroke-linejoin:miter;"/>
   </g>
   <g id="patch_65">
    <path clip-path="url(#p3831dbaa20)" d="M 351.95702 238.765 
L 356.324639 238.765 
L 356.324639 238.088249 
L 351.95702 238.088249 
z
" style="fill:#bfbf00;stroke:#000000;stroke-linejoin:miter;"/>
   </g>
   <g id="patch_66">
    <path clip-path="url(#p3831dbaa20)" d="M 356.324639 238.765 
L 360.692257 238.765 
L 360.692257 238.765 
L 356.324639 238.765 
z
" style="fill:#bfbf00;stroke:#000000;stroke-linejoin:miter;"/>
   </g>
   <g id="patch_67">
    <path clip-path="url(#p3831dbaa20)" d="M 360.692257 238.765 
L 365.059875 238.765 
L 365.059875 238.426625 
L 360.692257 238.426625 
z
" style="fill:#bfbf00;stroke:#000000;stroke-linejoin:miter;"/>
   </g>
   <g id="matplotlib.axis_3">
    <g id="xtick_6">
     <g id="line2d_27">
      <path clip-path="url(#p3831dbaa20)" d="M 224.177557 238.765 
L 224.177557 21.325 
" style="fill:none;stroke:#b0b0b0;stroke-linecap:square;stroke-width:0.8;"/>
     </g>
     <g id="line2d_28">
      <g>
       <use style="stroke:#000000;stroke-width:0.8;" x="224.177557" xlink:href="#m452c6f7795" y="238.765"/>
      </g>
     </g>
     <g id="text_17">
      <!-- -0.002 -->
      <g transform="translate(212.593426 266.718925)rotate(-30)scale(0.1 -0.1)">
       <use xlink:href="#KaiTi-45"/>
       <use x="50" xlink:href="#KaiTi-48"/>
       <use x="100" xlink:href="#KaiTi-46"/>
       <use x="150" xlink:href="#KaiTi-48"/>
       <use x="200" xlink:href="#KaiTi-48"/>
       <use x="250" xlink:href="#KaiTi-50"/>
      </g>
     </g>
    </g>
    <g id="xtick_7">
     <g id="line2d_29">
      <path clip-path="url(#p3831dbaa20)" d="M 262.223011 238.765 
L 262.223011 21.325 
" style="fill:none;stroke:#b0b0b0;stroke-linecap:square;stroke-width:0.8;"/>
     </g>
     <g id="line2d_30">
      <g>
       <use style="stroke:#000000;stroke-width:0.8;" x="262.223011" xlink:href="#m452c6f7795" y="238.765"/>
      </g>
     </g>
     <g id="text_18">
      <!-- -0.001 -->
      <g transform="translate(250.63888 266.718925)rotate(-30)scale(0.1 -0.1)">
       <use xlink:href="#KaiTi-45"/>
       <use x="50" xlink:href="#KaiTi-48"/>
       <use x="100" xlink:href="#KaiTi-46"/>
       <use x="150" xlink:href="#KaiTi-48"/>
       <use x="200" xlink:href="#KaiTi-48"/>
       <use x="250" xlink:href="#KaiTi-49"/>
      </g>
     </g>
    </g>
    <g id="xtick_8">
     <g id="line2d_31">
      <path clip-path="url(#p3831dbaa20)" d="M 300.268466 238.765 
L 300.268466 21.325 
" style="fill:none;stroke:#b0b0b0;stroke-linecap:square;stroke-width:0.8;"/>
     </g>
     <g id="line2d_32">
      <g>
       <use style="stroke:#000000;stroke-width:0.8;" x="300.268466" xlink:href="#m452c6f7795" y="238.765"/>
      </g>
     </g>
     <g id="text_19">
      <!-- 0.000 -->
      <g transform="translate(290.849398 264.218925)rotate(-30)scale(0.1 -0.1)">
       <use xlink:href="#KaiTi-48"/>
       <use x="50" xlink:href="#KaiTi-46"/>
       <use x="100" xlink:href="#KaiTi-48"/>
       <use x="150" xlink:href="#KaiTi-48"/>
       <use x="200" xlink:href="#KaiTi-48"/>
      </g>
     </g>
    </g>
    <g id="xtick_9">
     <g id="line2d_33">
      <path clip-path="url(#p3831dbaa20)" d="M 338.31392 238.765 
L 338.31392 21.325 
" style="fill:none;stroke:#b0b0b0;stroke-linecap:square;stroke-width:0.8;"/>
     </g>
     <g id="line2d_34">
      <g>
       <use style="stroke:#000000;stroke-width:0.8;" x="338.31392" xlink:href="#m452c6f7795" y="238.765"/>
      </g>
     </g>
     <g id="text_20">
      <!-- 0.001 -->
      <g transform="translate(328.894853 264.218925)rotate(-30)scale(0.1 -0.1)">
       <use xlink:href="#KaiTi-48"/>
       <use x="50" xlink:href="#KaiTi-46"/>
       <use x="100" xlink:href="#KaiTi-48"/>
       <use x="150" xlink:href="#KaiTi-48"/>
       <use x="200" xlink:href="#KaiTi-49"/>
      </g>
     </g>
    </g>
    <g id="xtick_10">
     <g id="line2d_35">
      <path clip-path="url(#p3831dbaa20)" d="M 376.359375 238.765 
L 376.359375 21.325 
" style="fill:none;stroke:#b0b0b0;stroke-linecap:square;stroke-width:0.8;"/>
     </g>
     <g id="line2d_36">
      <g>
       <use style="stroke:#000000;stroke-width:0.8;" x="376.359375" xlink:href="#m452c6f7795" y="238.765"/>
      </g>
     </g>
     <g id="text_21">
      <!-- 0.002 -->
      <g transform="translate(366.940307 264.218925)rotate(-30)scale(0.1 -0.1)">
       <use xlink:href="#KaiTi-48"/>
       <use x="50" xlink:href="#KaiTi-46"/>
       <use x="100" xlink:href="#KaiTi-48"/>
       <use x="150" xlink:href="#KaiTi-48"/>
       <use x="200" xlink:href="#KaiTi-50"/>
      </g>
     </g>
    </g>
    <g id="text_22">
     <!-- 利率 -->
     <g transform="translate(290.268466 279.653019)scale(0.1 -0.1)">
      <use xlink:href="#KaiTi-21033"/>
      <use x="100" xlink:href="#KaiTi-29575"/>
     </g>
    </g>
   </g>
   <g id="matplotlib.axis_4">
    <g id="ytick_9">
     <g id="line2d_37">
      <path clip-path="url(#p3831dbaa20)" d="M 224.177557 238.765 
L 376.359375 238.765 
" style="fill:none;stroke:#b0b0b0;stroke-linecap:square;stroke-width:0.8;"/>
     </g>
     <g id="line2d_38">
      <g>
       <use style="stroke:#000000;stroke-width:0.8;" x="224.177557" xlink:href="#mf6463702d9" y="238.765"/>
      </g>
     </g>
     <g id="text_23">
      <!-- 0 -->
      <g transform="translate(212.177557 242.2025)scale(0.1 -0.1)">
       <use xlink:href="#KaiTi-48"/>
      </g>
     </g>
    </g>
    <g id="ytick_10">
     <g id="line2d_39">
      <path clip-path="url(#p3831dbaa20)" d="M 224.177557 204.927465 
L 376.359375 204.927465 
" style="fill:none;stroke:#b0b0b0;stroke-linecap:square;stroke-width:0.8;"/>
     </g>
     <g id="line2d_40">
      <g>
       <use style="stroke:#000000;stroke-width:0.8;" x="224.177557" xlink:href="#mf6463702d9" y="204.927465"/>
      </g>
     </g>
     <g id="text_24">
      <!-- 100 -->
      <g transform="translate(202.177557 208.364965)scale(0.1 -0.1)">
       <use xlink:href="#KaiTi-49"/>
       <use x="50" xlink:href="#KaiTi-48"/>
       <use x="100" xlink:href="#KaiTi-48"/>
      </g>
     </g>
    </g>
    <g id="ytick_11">
     <g id="line2d_41">
      <path clip-path="url(#p3831dbaa20)" d="M 224.177557 171.08993 
L 376.359375 171.08993 
" style="fill:none;stroke:#b0b0b0;stroke-linecap:square;stroke-width:0.8;"/>
     </g>
     <g id="line2d_42">
      <g>
       <use style="stroke:#000000;stroke-width:0.8;" x="224.177557" xlink:href="#mf6463702d9" y="171.08993"/>
      </g>
     </g>
     <g id="text_25">
      <!-- 200 -->
      <g transform="translate(202.177557 174.52743)scale(0.1 -0.1)">
       <use xlink:href="#KaiTi-50"/>
       <use x="50" xlink:href="#KaiTi-48"/>
       <use x="100" xlink:href="#KaiTi-48"/>
      </g>
     </g>
    </g>
    <g id="ytick_12">
     <g id="line2d_43">
      <path clip-path="url(#p3831dbaa20)" d="M 224.177557 137.252395 
L 376.359375 137.252395 
" style="fill:none;stroke:#b0b0b0;stroke-linecap:square;stroke-width:0.8;"/>
     </g>
     <g id="line2d_44">
      <g>
       <use style="stroke:#000000;stroke-width:0.8;" x="224.177557" xlink:href="#mf6463702d9" y="137.252395"/>
      </g>
     </g>
     <g id="text_26">
      <!-- 300 -->
      <g transform="translate(202.177557 140.689895)scale(0.1 -0.1)">
       <use xlink:href="#KaiTi-51"/>
       <use x="50" xlink:href="#KaiTi-48"/>
       <use x="100" xlink:href="#KaiTi-48"/>
      </g>
     </g>
    </g>
    <g id="ytick_13">
     <g id="line2d_45">
      <path clip-path="url(#p3831dbaa20)" d="M 224.177557 103.41486 
L 376.359375 103.41486 
" style="fill:none;stroke:#b0b0b0;stroke-linecap:square;stroke-width:0.8;"/>
     </g>
     <g id="line2d_46">
      <g>
       <use style="stroke:#000000;stroke-width:0.8;" x="224.177557" xlink:href="#mf6463702d9" y="103.41486"/>
      </g>
     </g>
     <g id="text_27">
      <!-- 400 -->
      <g transform="translate(202.177557 106.85236)scale(0.1 -0.1)">
       <use xlink:href="#KaiTi-52"/>
       <use x="50" xlink:href="#KaiTi-48"/>
       <use x="100" xlink:href="#KaiTi-48"/>
      </g>
     </g>
    </g>
    <g id="ytick_14">
     <g id="line2d_47">
      <path clip-path="url(#p3831dbaa20)" d="M 224.177557 69.577325 
L 376.359375 69.577325 
" style="fill:none;stroke:#b0b0b0;stroke-linecap:square;stroke-width:0.8;"/>
     </g>
     <g id="line2d_48">
      <g>
       <use style="stroke:#000000;stroke-width:0.8;" x="224.177557" xlink:href="#mf6463702d9" y="69.577325"/>
      </g>
     </g>
     <g id="text_28">
      <!-- 500 -->
      <g transform="translate(202.177557 73.014825)scale(0.1 -0.1)">
       <use xlink:href="#KaiTi-53"/>
       <use x="50" xlink:href="#KaiTi-48"/>
       <use x="100" xlink:href="#KaiTi-48"/>
      </g>
     </g>
    </g>
    <g id="ytick_15">
     <g id="line2d_49">
      <path clip-path="url(#p3831dbaa20)" d="M 224.177557 35.73979 
L 376.359375 35.73979 
" style="fill:none;stroke:#b0b0b0;stroke-linecap:square;stroke-width:0.8;"/>
     </g>
     <g id="line2d_50">
      <g>
       <use style="stroke:#000000;stroke-width:0.8;" x="224.177557" xlink:href="#mf6463702d9" y="35.73979"/>
      </g>
     </g>
     <g id="text_29">
      <!-- 600 -->
      <g transform="translate(202.177557 39.17729)scale(0.1 -0.1)">
       <use xlink:href="#KaiTi-54"/>
       <use x="50" xlink:href="#KaiTi-48"/>
       <use x="100" xlink:href="#KaiTi-48"/>
      </g>
     </g>
    </g>
   </g>
   <g id="patch_68">
    <path d="M 224.177557 238.765 
L 224.177557 21.325 
" style="fill:none;stroke:#000000;stroke-linecap:square;stroke-linejoin:miter;stroke-width:0.8;"/>
   </g>
   <g id="patch_69">
    <path d="M 376.359375 238.765 
L 376.359375 21.325 
" style="fill:none;stroke:#000000;stroke-linecap:square;stroke-linejoin:miter;stroke-width:0.8;"/>
   </g>
   <g id="patch_70">
    <path d="M 224.177557 238.765 
L 376.359375 238.765 
" style="fill:none;stroke:#000000;stroke-linecap:square;stroke-linejoin:miter;stroke-width:0.8;"/>
   </g>
   <g id="patch_71">
    <path d="M 224.177557 21.325 
L 376.359375 21.325 
" style="fill:none;stroke:#000000;stroke-linecap:square;stroke-linejoin:miter;stroke-width:0.8;"/>
   </g>
   <g id="text_30">
    <!-- 3个月期人民币SHibor日变化的直方图 -->
    <defs>
     <path d="M 45.3125 20.703125 
Q 45.3125 11.71875 39.640625 6.4375 
Q 33.984375 1.171875 24.21875 1.171875 
Q 14.453125 1.171875 8.984375 6.640625 
Q 3.515625 12.109375 3.515625 20.3125 
L 3.515625 23.046875 
L 12.5 23.046875 
L 12.5 20.703125 
Q 12.5 14.84375 16.015625 11.71875 
Q 19.53125 8.59375 24.21875 8.59375 
Q 30.46875 8.59375 33.390625 11.90625 
Q 36.328125 15.234375 36.328125 19.921875 
Q 36.328125 23.828125 32.8125 27.140625 
Q 29.296875 30.46875 22.65625 33.203125 
Q 13.28125 36.71875 9.171875 41.015625 
Q 5.078125 45.3125 5.078125 51.171875 
Q 5.078125 59.375 10.734375 64.453125 
Q 16.40625 69.53125 24.21875 69.53125 
Q 34.375 69.53125 38.859375 63.46875 
Q 43.359375 57.421875 43.359375 50.390625 
L 34.375 50.390625 
Q 34.765625 54.6875 32.03125 58.203125 
Q 29.296875 61.71875 24.21875 61.71875 
Q 19.53125 61.71875 16.796875 59.171875 
Q 14.0625 56.640625 14.0625 52.34375 
Q 14.0625 48.828125 16.203125 46.28125 
Q 18.359375 43.75 27.34375 40.234375 
Q 35.9375 36.71875 40.625 31.828125 
Q 45.3125 26.953125 45.3125 20.703125 
z
" id="KaiTi-83"/>
    </defs>
    <g transform="translate(217.768466 15.325)scale(0.1 -0.1)">
     <use xlink:href="#KaiTi-51"/>
     <use x="50" xlink:href="#KaiTi-20010"/>
     <use x="150" xlink:href="#KaiTi-26376"/>
     <use x="250" xlink:href="#KaiTi-26399"/>
     <use x="350" xlink:href="#KaiTi-20154"/>
     <use x="450" xlink:href="#KaiTi-27665"/>
     <use x="550" xlink:href="#KaiTi-24065"/>
     <use x="650" xlink:href="#KaiTi-83"/>
     <use x="700" xlink:href="#KaiTi-72"/>
     <use x="750" xlink:href="#KaiTi-105"/>
     <use x="800" xlink:href="#KaiTi-98"/>
     <use x="850" xlink:href="#KaiTi-111"/>
     <use x="900" xlink:href="#KaiTi-114"/>
     <use x="950" xlink:href="#KaiTi-26085"/>
     <use x="1050" xlink:href="#KaiTi-21464"/>
     <use x="1150" xlink:href="#KaiTi-21270"/>
     <use x="1250" xlink:href="#KaiTi-30340"/>
     <use x="1350" xlink:href="#KaiTi-30452"/>
     <use x="1450" xlink:href="#KaiTi-26041"/>
     <use x="1550" xlink:href="#KaiTi-22270"/>
    </g>
   </g>
  </g>
 </g>
 <defs>
  <clipPath id="pc1ef94ff72">
   <rect height="217.44" width="152.181818" x="41.559375" y="21.325"/>
  </clipPath>
  <clipPath id="p3831dbaa20">
   <rect height="217.44" width="152.181818" x="224.177557" y="21.325"/>
  </clipPath>
 </defs>
</svg>
