<?xml version="1.0" encoding="utf-8" standalone="no"?>
<!DOCTYPE svg PUBLIC "-//W3C//DTD SVG 1.1//EN"
  "http://www.w3.org/Graphics/SVG/1.1/DTD/svg11.dtd">
<!-- Created with matplotlib (https://matplotlib.org/) -->
<svg height="276.011875pt" version="1.1" viewBox="0 0 398.715625 276.011875" width="398.715625pt" xmlns="http://www.w3.org/2000/svg" xmlns:xlink="http://www.w3.org/1999/xlink">
 <defs>
  <style type="text/css">
*{stroke-linecap:butt;stroke-linejoin:round;}
  </style>
 </defs>
 <g id="figure_1">
  <g id="patch_1">
   <path d="M 0 276.011875 
L 398.715625 276.011875 
L 398.715625 0 
L 0 0 
z
" style="fill:none;"/>
  </g>
  <g id="axes_1">
   <g id="patch_2">
    <path d="M 56.715625 240.39 
L 391.515625 240.39 
L 391.515625 22.95 
L 56.715625 22.95 
z
" style="fill:#ffffff;"/>
   </g>
   <g id="matplotlib.axis_1">
    <g id="xtick_1">
     <g id="line2d_1">
      <path clip-path="url(#p2edb178c33)" d="M 71.933807 240.39 
L 71.933807 22.95 
" style="fill:none;stroke:#b0b0b0;stroke-linecap:square;stroke-width:0.8;"/>
     </g>
     <g id="line2d_2">
      <defs>
       <path d="M 0 0 
L 0 3.5 
" id="mbafbbac678" style="stroke:#000000;stroke-width:0.8;"/>
      </defs>
      <g>
       <use style="stroke:#000000;stroke-width:0.8;" x="71.933807" xlink:href="#mbafbbac678" y="240.39"/>
      </g>
     </g>
     <g id="text_1">
      <!-- 80.0 -->
      <defs>
       <path d="M 2.734375 16.796875 
Q 2.734375 26.171875 5.078125 30.65625 
Q 7.421875 35.15625 12.890625 37.890625 
Q 8.203125 40.625 6.640625 43.9375 
Q 5.078125 47.265625 4.875 51.5625 
Q 4.6875 55.859375 6.046875 58.984375 
Q 7.421875 62.109375 10.15625 64.84375 
Q 12.890625 67.578125 16.203125 68.546875 
Q 19.53125 69.53125 23.4375 69.53125 
Q 27.34375 69.53125 30.46875 68.75 
Q 33.59375 67.96875 37.109375 65.421875 
Q 40.625 62.890625 42.1875 58.203125 
Q 43.75 53.515625 41.984375 47.265625 
Q 40.234375 41.015625 32.8125 37.5 
Q 39.453125 35.546875 42.1875 31.4375 
Q 44.921875 27.34375 44.921875 21.484375 
Q 44.921875 15.625 43.15625 12.109375 
Q 41.40625 8.59375 39.25 6.25 
Q 37.109375 3.90625 33.390625 2.53125 
Q 29.6875 1.171875 24.015625 1.171875 
Q 18.359375 1.171875 14.25 2.53125 
Q 10.15625 3.90625 7.421875 6.640625 
Q 4.6875 9.375 3.703125 13.078125 
Q 2.734375 16.796875 2.734375 26.171875 
z
M 10.9375 26.5625 
Q 10.546875 17.1875 12.296875 13.671875 
Q 14.0625 10.15625 18.75 9.171875 
Q 23.4375 8.203125 28.515625 9.375 
Q 33.59375 10.546875 35.546875 14.84375 
Q 37.5 19.140625 36.90625 23.4375 
Q 36.328125 27.734375 32.03125 30.65625 
Q 27.734375 33.59375 22.65625 33.203125 
Q 17.578125 32.8125 14.25 29.6875 
Q 10.9375 26.5625 10.546875 17.1875 
z
M 12.109375 56.25 
Q 12.109375 48.4375 14.84375 44.921875 
Q 17.578125 41.40625 23.4375 41.40625 
Q 29.296875 41.40625 32.21875 44.921875 
Q 35.15625 48.4375 34.953125 53.3125 
Q 34.765625 58.203125 31.4375 60.546875 
Q 28.125 62.890625 22.453125 62.5 
Q 16.796875 62.109375 14.453125 59.171875 
Q 12.109375 56.25 12.109375 48.4375 
z
" id="KaiTi-56"/>
       <path d="M 3.125 29.296875 
Q 3.90625 50 6.4375 56.046875 
Q 8.984375 62.109375 13.671875 66.015625 
Q 18.359375 69.921875 25.1875 69.921875 
Q 32.03125 69.921875 37.109375 64.25 
Q 42.1875 58.59375 43.75 50 
Q 45.3125 41.40625 44.71875 30.265625 
Q 44.140625 19.140625 40.8125 12.109375 
Q 37.5 5.078125 30.859375 2.34375 
Q 24.21875 -0.390625 17.578125 2.921875 
Q 10.9375 6.25 8.203125 11.71875 
Q 5.46875 17.1875 4.296875 23.234375 
Q 3.125 29.296875 3.90625 50 
z
M 12.890625 52.734375 
Q 10.546875 31.25 12.5 22.84375 
Q 14.453125 14.453125 18.9375 10.9375 
Q 23.4375 7.421875 28.125 9.5625 
Q 32.8125 11.71875 34.953125 18.15625 
Q 37.109375 24.609375 37.109375 32.21875 
Q 37.109375 39.84375 36.515625 46.09375 
Q 35.9375 52.34375 33 57.421875 
Q 30.078125 62.5 25.1875 62.6875 
Q 20.3125 62.890625 16.59375 57.8125 
Q 12.890625 52.734375 10.546875 31.25 
z
" id="KaiTi-48"/>
       <path d="M 12.5 1.171875 
Q 10.546875 1.171875 8.78125 2.53125 
Q 7.03125 3.90625 7.03125 6.640625 
Q 7.03125 8.984375 8.390625 10.34375 
Q 9.765625 11.71875 12.5 12.109375 
Q 15.234375 12.109375 16.59375 10.546875 
Q 17.96875 8.984375 17.96875 6.640625 
Q 17.96875 3.90625 16.40625 2.53125 
Q 14.84375 1.171875 12.5 1.171875 
z
" id="KaiTi-46"/>
      </defs>
      <g transform="translate(61.933807 254.265)scale(0.1 -0.1)">
       <use xlink:href="#KaiTi-56"/>
       <use x="50" xlink:href="#KaiTi-48"/>
       <use x="100" xlink:href="#KaiTi-46"/>
       <use x="150" xlink:href="#KaiTi-48"/>
      </g>
     </g>
    </g>
    <g id="xtick_2">
     <g id="line2d_3">
      <path clip-path="url(#p2edb178c33)" d="M 109.979261 240.39 
L 109.979261 22.95 
" style="fill:none;stroke:#b0b0b0;stroke-linecap:square;stroke-width:0.8;"/>
     </g>
     <g id="line2d_4">
      <g>
       <use style="stroke:#000000;stroke-width:0.8;" x="109.979261" xlink:href="#mbafbbac678" y="240.39"/>
      </g>
     </g>
     <g id="text_2">
      <!-- 82.5 -->
      <defs>
       <path d="M 4.6875 3.90625 
Q 5.078125 9.765625 10.15625 14.453125 
Q 15.234375 19.140625 23.046875 29.09375 
Q 30.859375 39.0625 33.203125 44.53125 
Q 35.546875 50 34.953125 53.90625 
Q 34.375 57.8125 31.25 60.34375 
Q 28.125 62.890625 24.015625 62.5 
Q 19.921875 62.109375 16.203125 59.375 
Q 12.5 56.640625 10.546875 51.171875 
L 3.125 52.34375 
Q 6.25 61.328125 11.125 65.421875 
Q 16.015625 69.53125 22.65625 69.921875 
Q 26.5625 70.3125 29.6875 69.71875 
Q 32.8125 69.140625 36.125 66.984375 
Q 39.453125 64.84375 41.59375 60.546875 
Q 43.75 56.25 43.15625 50.1875 
Q 42.578125 44.140625 37.109375 35.734375 
Q 31.640625 27.34375 16.015625 9.375 
L 44.140625 9.375 
L 44.140625 2.34375 
L 4.6875 2.34375 
z
" id="KaiTi-50"/>
       <path d="M 8.59375 20.703125 
Q 11.328125 10.15625 17.96875 8.984375 
Q 24.609375 7.8125 28.703125 10.34375 
Q 32.8125 12.890625 34.5625 16.984375 
Q 36.328125 21.09375 36.125 26.171875 
Q 35.9375 31.25 33.390625 34.765625 
Q 30.859375 38.28125 26.953125 39.453125 
Q 23.046875 40.625 18.15625 39.453125 
Q 13.28125 38.28125 10.15625 33.984375 
L 3.515625 34.765625 
Q 4.296875 37.109375 10.9375 68.359375 
L 41.796875 68.359375 
L 41.796875 61.328125 
L 16.796875 61.328125 
Q 14.84375 50.78125 12.890625 44.53125 
Q 18.75 47.265625 23.828125 47.0625 
Q 28.90625 46.875 33.59375 44.71875 
Q 38.28125 42.578125 40.421875 38.859375 
Q 42.578125 35.15625 43.546875 31.4375 
Q 44.53125 27.734375 44.328125 23.4375 
Q 44.140625 19.140625 42.578125 14.640625 
Q 41.015625 10.15625 37.890625 7.21875 
Q 34.765625 4.296875 30.265625 2.53125 
Q 25.78125 0.78125 19.921875 1.171875 
Q 14.0625 1.5625 8.78125 5.46875 
Q 3.515625 9.375 1.5625 18.75 
z
" id="KaiTi-53"/>
      </defs>
      <g transform="translate(99.979261 254.265)scale(0.1 -0.1)">
       <use xlink:href="#KaiTi-56"/>
       <use x="50" xlink:href="#KaiTi-50"/>
       <use x="100" xlink:href="#KaiTi-46"/>
       <use x="150" xlink:href="#KaiTi-53"/>
      </g>
     </g>
    </g>
    <g id="xtick_3">
     <g id="line2d_5">
      <path clip-path="url(#p2edb178c33)" d="M 148.024716 240.39 
L 148.024716 22.95 
" style="fill:none;stroke:#b0b0b0;stroke-linecap:square;stroke-width:0.8;"/>
     </g>
     <g id="line2d_6">
      <g>
       <use style="stroke:#000000;stroke-width:0.8;" x="148.024716" xlink:href="#mbafbbac678" y="240.39"/>
      </g>
     </g>
     <g id="text_3">
      <!-- 85.0 -->
      <g transform="translate(138.024716 254.265)scale(0.1 -0.1)">
       <use xlink:href="#KaiTi-56"/>
       <use x="50" xlink:href="#KaiTi-53"/>
       <use x="100" xlink:href="#KaiTi-46"/>
       <use x="150" xlink:href="#KaiTi-48"/>
      </g>
     </g>
    </g>
    <g id="xtick_4">
     <g id="line2d_7">
      <path clip-path="url(#p2edb178c33)" d="M 186.07017 240.39 
L 186.07017 22.95 
" style="fill:none;stroke:#b0b0b0;stroke-linecap:square;stroke-width:0.8;"/>
     </g>
     <g id="line2d_8">
      <g>
       <use style="stroke:#000000;stroke-width:0.8;" x="186.07017" xlink:href="#mbafbbac678" y="240.39"/>
      </g>
     </g>
     <g id="text_4">
      <!-- 87.5 -->
      <defs>
       <path d="M 13.28125 2.34375 
Q 20.3125 32.03125 37.890625 61.328125 
L 4.296875 61.328125 
L 4.296875 68.359375 
L 46.09375 68.359375 
L 46.09375 61.71875 
Q 27.734375 32.03125 21.875 2.34375 
L 13.28125 2.34375 
z
" id="KaiTi-55"/>
      </defs>
      <g transform="translate(176.07017 254.265)scale(0.1 -0.1)">
       <use xlink:href="#KaiTi-56"/>
       <use x="50" xlink:href="#KaiTi-55"/>
       <use x="100" xlink:href="#KaiTi-46"/>
       <use x="150" xlink:href="#KaiTi-53"/>
      </g>
     </g>
    </g>
    <g id="xtick_5">
     <g id="line2d_9">
      <path clip-path="url(#p2edb178c33)" d="M 224.115625 240.39 
L 224.115625 22.95 
" style="fill:none;stroke:#b0b0b0;stroke-linecap:square;stroke-width:0.8;"/>
     </g>
     <g id="line2d_10">
      <g>
       <use style="stroke:#000000;stroke-width:0.8;" x="224.115625" xlink:href="#mbafbbac678" y="240.39"/>
      </g>
     </g>
     <g id="text_5">
      <!-- 90.0 -->
      <defs>
       <path d="M 12.5 1.171875 
Q 21.09375 15.625 26.5625 27.34375 
Q 16.796875 25.78125 10.34375 29.875 
Q 3.90625 33.984375 2.53125 41.015625 
Q 1.171875 48.046875 2.734375 53.703125 
Q 4.296875 59.375 7.609375 63.078125 
Q 10.9375 66.796875 15.625 68.359375 
Q 20.3125 69.921875 24.015625 69.921875 
Q 27.734375 69.921875 31.640625 68.359375 
Q 35.546875 66.796875 38.671875 63.671875 
Q 41.796875 60.546875 42.96875 57.21875 
Q 44.140625 53.90625 44.140625 48.625 
Q 44.140625 43.359375 40.234375 35.15625 
Q 36.328125 26.953125 21.09375 1.171875 
z
M 9.765625 50 
Q 10.9375 39.84375 14.640625 36.515625 
Q 18.359375 33.203125 22.65625 33.59375 
Q 26.953125 33.984375 29.484375 35.9375 
Q 32.03125 37.890625 34.375 42.578125 
Q 35.9375 48.4375 35.15625 52.53125 
Q 34.375 56.640625 31.046875 59.375 
Q 27.734375 62.109375 23.828125 62.109375 
Q 21.484375 62.5 17.765625 60.9375 
Q 14.0625 59.375 11.90625 54.6875 
Q 9.765625 50 10.9375 39.84375 
z
" id="KaiTi-57"/>
      </defs>
      <g transform="translate(214.115625 254.265)scale(0.1 -0.1)">
       <use xlink:href="#KaiTi-57"/>
       <use x="50" xlink:href="#KaiTi-48"/>
       <use x="100" xlink:href="#KaiTi-46"/>
       <use x="150" xlink:href="#KaiTi-48"/>
      </g>
     </g>
    </g>
    <g id="xtick_6">
     <g id="line2d_11">
      <path clip-path="url(#p2edb178c33)" d="M 262.16108 240.39 
L 262.16108 22.95 
" style="fill:none;stroke:#b0b0b0;stroke-linecap:square;stroke-width:0.8;"/>
     </g>
     <g id="line2d_12">
      <g>
       <use style="stroke:#000000;stroke-width:0.8;" x="262.16108" xlink:href="#mbafbbac678" y="240.39"/>
      </g>
     </g>
     <g id="text_6">
      <!-- 92.5 -->
      <g transform="translate(252.16108 254.265)scale(0.1 -0.1)">
       <use xlink:href="#KaiTi-57"/>
       <use x="50" xlink:href="#KaiTi-50"/>
       <use x="100" xlink:href="#KaiTi-46"/>
       <use x="150" xlink:href="#KaiTi-53"/>
      </g>
     </g>
    </g>
    <g id="xtick_7">
     <g id="line2d_13">
      <path clip-path="url(#p2edb178c33)" d="M 300.206534 240.39 
L 300.206534 22.95 
" style="fill:none;stroke:#b0b0b0;stroke-linecap:square;stroke-width:0.8;"/>
     </g>
     <g id="line2d_14">
      <g>
       <use style="stroke:#000000;stroke-width:0.8;" x="300.206534" xlink:href="#mbafbbac678" y="240.39"/>
      </g>
     </g>
     <g id="text_7">
      <!-- 95.0 -->
      <g transform="translate(290.206534 254.265)scale(0.1 -0.1)">
       <use xlink:href="#KaiTi-57"/>
       <use x="50" xlink:href="#KaiTi-53"/>
       <use x="100" xlink:href="#KaiTi-46"/>
       <use x="150" xlink:href="#KaiTi-48"/>
      </g>
     </g>
    </g>
    <g id="xtick_8">
     <g id="line2d_15">
      <path clip-path="url(#p2edb178c33)" d="M 338.251989 240.39 
L 338.251989 22.95 
" style="fill:none;stroke:#b0b0b0;stroke-linecap:square;stroke-width:0.8;"/>
     </g>
     <g id="line2d_16">
      <g>
       <use style="stroke:#000000;stroke-width:0.8;" x="338.251989" xlink:href="#mbafbbac678" y="240.39"/>
      </g>
     </g>
     <g id="text_8">
      <!-- 97.5 -->
      <g transform="translate(328.251989 254.265)scale(0.1 -0.1)">
       <use xlink:href="#KaiTi-57"/>
       <use x="50" xlink:href="#KaiTi-55"/>
       <use x="100" xlink:href="#KaiTi-46"/>
       <use x="150" xlink:href="#KaiTi-53"/>
      </g>
     </g>
    </g>
    <g id="xtick_9">
     <g id="line2d_17">
      <path clip-path="url(#p2edb178c33)" d="M 376.297443 240.39 
L 376.297443 22.95 
" style="fill:none;stroke:#b0b0b0;stroke-linecap:square;stroke-width:0.8;"/>
     </g>
     <g id="line2d_18">
      <g>
       <use style="stroke:#000000;stroke-width:0.8;" x="376.297443" xlink:href="#mbafbbac678" y="240.39"/>
      </g>
     </g>
     <g id="text_9">
      <!-- 100.0 -->
      <defs>
       <path d="M 21.875 56.25 
Q 16.796875 51.171875 8.984375 46.484375 
L 8.984375 53.90625 
Q 18.75 60.546875 25 69.53125 
L 29.6875 69.53125 
L 29.6875 2.34375 
L 21.875 2.34375 
z
" id="KaiTi-49"/>
      </defs>
      <g transform="translate(363.797443 254.265)scale(0.1 -0.1)">
       <use xlink:href="#KaiTi-49"/>
       <use x="50" xlink:href="#KaiTi-48"/>
       <use x="100" xlink:href="#KaiTi-48"/>
       <use x="150" xlink:href="#KaiTi-46"/>
       <use x="200" xlink:href="#KaiTi-48"/>
      </g>
     </g>
    </g>
    <g id="text_10">
     <!-- 股票价格 -->
     <defs>
      <path d="M 21.09375 47.265625 
Q 24.21875 47.65625 26.359375 48.234375 
Q 28.515625 48.828125 29.875 47.265625 
Q 31.25 45.703125 28.3125 44.921875 
Q 25.390625 44.140625 21.09375 44.53125 
L 21.09375 32.8125 
Q 22.65625 32.8125 25.390625 33.59375 
Q 28.125 34.375 29.6875 32.8125 
Q 31.25 31.25 28.515625 30.078125 
Q 25.78125 28.90625 20.703125 29.6875 
Q 19.53125 15.625 15.625 8 
Q 11.71875 0.390625 6.828125 -3.3125 
Q 1.953125 -7.03125 5.46875 -2.140625 
Q 8.984375 2.734375 12.5 12.109375 
Q 16.015625 21.484375 16.203125 38.078125 
Q 16.40625 54.6875 15.8125 58.59375 
Q 15.234375 62.5 14.0625 63.859375 
Q 12.890625 65.234375 14.453125 65.234375 
Q 16.40625 65.234375 18.359375 65.421875 
Q 20.3125 65.625 24.015625 66.40625 
Q 27.734375 67.1875 29.484375 68.15625 
Q 31.25 69.140625 33.78125 68.359375 
Q 36.328125 67.578125 38.46875 66.015625 
Q 40.625 64.453125 38.671875 61.71875 
Q 36.71875 58.984375 36.515625 47.0625 
Q 36.328125 35.15625 37.109375 21.671875 
Q 37.890625 8.203125 37.296875 4.484375 
Q 36.71875 0.78125 34.375 -2.53125 
Q 32.03125 -5.859375 30.265625 -0.96875 
Q 28.515625 3.90625 24.21875 8.390625 
Q 19.921875 12.890625 24.015625 11.328125 
Q 28.125 9.765625 29.296875 9.765625 
Q 30.46875 9.765625 31.046875 11.90625 
Q 31.640625 14.0625 31.640625 31.640625 
L 31.640625 55.859375 
Q 31.640625 62.890625 30.859375 63.671875 
Q 30.078125 64.453125 21.09375 62.5 
z
M 66.015625 12.890625 
Q 72.65625 7.8125 81.046875 5.078125 
Q 89.453125 2.34375 94.140625 1.5625 
Q 98.828125 0.78125 96.09375 -0.1875 
Q 93.359375 -1.171875 85.9375 -2.140625 
Q 78.515625 -3.125 74.796875 -0.96875 
Q 71.09375 1.171875 62.109375 8.984375 
Q 56.25 5.46875 50.96875 4.09375 
Q 45.703125 2.734375 41.796875 2.921875 
Q 37.890625 3.125 42.1875 4.484375 
Q 46.484375 5.859375 50.578125 7.8125 
Q 54.6875 9.765625 58.59375 13.28125 
Q 56.25 16.40625 52.140625 20.703125 
Q 48.046875 25 44.921875 26.359375 
Q 41.796875 27.734375 44.921875 28.125 
Q 48.046875 28.515625 52.53125 25.1875 
Q 57.03125 21.875 61.71875 16.796875 
Q 64.84375 23.828125 65.625 29.09375 
Q 66.40625 34.375 64.453125 34.375 
Q 62.890625 34.375 59.953125 33.59375 
Q 57.03125 32.8125 54.875 32.609375 
Q 52.734375 32.421875 50.78125 33.984375 
Q 48.828125 35.546875 52.53125 35.734375 
Q 56.25 35.9375 59.375 37.109375 
Q 62.5 38.28125 63.859375 39.25 
Q 65.234375 40.234375 67.96875 39.25 
Q 70.703125 38.28125 73.625 36.71875 
Q 76.5625 35.15625 74.40625 32.8125 
Q 72.265625 30.46875 70.890625 25 
Q 69.53125 19.53125 66.015625 12.890625 
z
M 56.640625 65.625 
Q 56.25 54.6875 54.09375 49.21875 
Q 51.953125 43.75 47.265625 41.015625 
Q 42.578125 38.28125 46.484375 43.359375 
Q 50.390625 48.4375 50.96875 56.4375 
Q 51.5625 64.453125 50 66.984375 
Q 48.4375 69.53125 50.78125 69.328125 
Q 53.125 69.140625 54.484375 68.75 
Q 55.859375 68.359375 59.953125 69.53125 
Q 64.0625 70.703125 66.40625 72.65625 
Q 68.75 74.609375 73.046875 71.875 
Q 77.734375 69.921875 75.1875 67.765625 
Q 72.65625 65.625 71.484375 61.515625 
Q 70.3125 57.421875 70.5 54.875 
Q 70.703125 52.34375 72.65625 51.75 
Q 74.609375 51.171875 79.09375 52.140625 
Q 83.59375 53.125 85.9375 50.578125 
Q 88.28125 48.046875 84.5625 47.265625 
Q 80.859375 46.484375 74.21875 46.484375 
Q 67.96875 46.484375 66.984375 50.78125 
Q 66.015625 55.078125 66.796875 61.515625 
Q 67.578125 67.96875 66.015625 67.578125 
Q 64.453125 67.1875 63.078125 66.984375 
Q 61.71875 66.796875 56.640625 65.625 
z
" id="KaiTi-32929"/>
      <path d="M 58.203125 70.3125 
Q 62.890625 67.578125 61.71875 65.8125 
Q 60.546875 64.0625 58.984375 58.59375 
Q 67.578125 59.765625 69.921875 60.546875 
Q 72.265625 61.328125 74.609375 60.34375 
Q 76.953125 59.375 79.296875 57.421875 
Q 81.640625 55.46875 79.484375 54.09375 
Q 77.34375 52.734375 75 48.828125 
Q 72.65625 44.921875 70.3125 42.1875 
Q 67.96875 39.453125 67.96875 44.140625 
Q 51.953125 43.359375 33.59375 39.84375 
Q 32.8125 35.546875 31.25 38.859375 
Q 29.6875 42.1875 27.921875 46.484375 
Q 26.171875 50.78125 24.015625 52.921875 
Q 21.875 55.078125 24.21875 55.078125 
Q 26.953125 55.078125 28.515625 54.6875 
Q 30.078125 54.296875 40.234375 55.859375 
Q 39.453125 65.625 37.5 67.1875 
Q 32.421875 66.796875 30.078125 68.546875 
Q 27.734375 70.3125 33 70.890625 
Q 38.28125 71.484375 47.453125 73.234375 
Q 56.640625 75 62.5 76.171875 
Q 68.359375 77.34375 70.109375 75.96875 
Q 71.875 74.609375 70.5 73.625 
Q 69.140625 72.65625 65.625 71.875 
Q 62.109375 71.09375 58.203125 70.3125 
z
M 52.734375 21.875 
Q 55.078125 17.96875 54.484375 16.015625 
Q 53.90625 14.0625 53.90625 8.984375 
Q 53.90625 4.296875 54.09375 -0.390625 
Q 54.296875 -5.078125 51.359375 -8.78125 
Q 48.4375 -12.5 47.65625 -9.171875 
Q 46.875 -5.859375 41.984375 -2.53125 
Q 37.109375 0.78125 40.8125 -0.1875 
Q 44.53125 -1.171875 46.671875 -0.78125 
Q 48.828125 -0.390625 49.015625 7.21875 
Q 49.21875 14.84375 48.046875 21.09375 
Q 35.546875 19.140625 28.703125 17.96875 
Q 21.875 16.796875 19.140625 16.40625 
Q 16.40625 16.015625 12.6875 18.9375 
Q 8.984375 21.875 14.84375 21.875 
Q 21.09375 21.875 34.5625 23.4375 
Q 48.046875 25 57.421875 26.171875 
Q 66.796875 27.34375 76.171875 28.125 
Q 85.546875 28.90625 88.671875 26.5625 
Q 91.796875 24.21875 91.984375 22.65625 
Q 92.1875 21.09375 86.71875 21.671875 
Q 81.25 22.265625 72.84375 22.65625 
Q 64.453125 23.046875 52.734375 21.875 
z
M 55.46875 36.71875 
Q 60.9375 38.28125 63.671875 36.515625 
Q 66.40625 34.765625 63.28125 33.59375 
Q 60.15625 32.421875 54.875 31.828125 
Q 49.609375 31.25 46.875 30.859375 
L 39.84375 29.6875 
Q 35.9375 29.296875 32.21875 30.859375 
Q 28.515625 32.421875 32.8125 32.8125 
Q 37.109375 33.203125 43.546875 34.375 
Q 50 35.546875 55.46875 36.71875 
z
M 55.859375 46.484375 
Q 60.15625 46.875 62.5 47.265625 
Q 64.84375 47.65625 68.359375 46.875 
Q 70.3125 51.953125 70.703125 54.09375 
Q 71.09375 56.25 69.140625 56.640625 
Q 67.1875 57.03125 58.203125 55.859375 
Q 56.640625 49.21875 55.859375 46.484375 
z
M 67.578125 13.28125 
Q 75.390625 10.546875 77.734375 7.21875 
Q 80.078125 3.90625 79.6875 0 
Q 79.296875 -3.90625 75.1875 -0.1875 
Q 71.09375 3.515625 65.625 9.765625 
Q 60.15625 16.015625 67.578125 13.28125 
z
M 53.90625 57.8125 
Q 54.296875 61.71875 54.875 64.25 
Q 55.46875 66.796875 53.90625 69.53125 
Q 46.484375 68.359375 41.015625 67.578125 
Q 45.703125 65.234375 45.109375 63.28125 
Q 44.53125 61.328125 44.53125 56.640625 
z
M 28.125 12.109375 
Q 31.640625 17.578125 31.4375 11.515625 
Q 31.25 5.46875 27.140625 -0.1875 
Q 23.046875 -5.859375 21.671875 -1.75 
Q 20.3125 2.34375 22.453125 4.6875 
Q 24.609375 7.03125 28.125 12.109375 
z
M 31.25 51.953125 
Q 32.421875 46.875 33.203125 42.96875 
L 41.015625 44.140625 
L 40.234375 53.125 
L 31.25 51.953125 
z
M 51.953125 46.09375 
L 53.125 54.6875 
L 44.140625 53.90625 
L 44.140625 44.921875 
z
" id="KaiTi-31080"/>
      <path d="M 24.21875 48.828125 
Q 29.6875 43.75 28.703125 41.203125 
Q 27.734375 38.671875 27.53125 19.921875 
Q 27.34375 1.171875 25.578125 -2.140625 
Q 23.828125 -5.46875 21.671875 -0.78125 
Q 19.53125 3.90625 20.890625 7.03125 
Q 22.265625 10.15625 22.65625 19.921875 
Q 23.046875 29.6875 23.046875 35.546875 
Q 23.046875 41.40625 21.875 45.703125 
Q 14.84375 36.71875 8.390625 32.8125 
Q 1.953125 28.90625 7.03125 34.171875 
Q 12.109375 39.453125 16.984375 46.671875 
Q 21.875 53.90625 25.578125 62.5 
Q 29.296875 71.09375 28.703125 74.015625 
Q 28.125 76.953125 30.859375 75.78125 
Q 33.59375 74.609375 35.9375 72.65625 
Q 38.28125 70.703125 36.328125 68.9375 
Q 34.375 67.1875 31.046875 60.734375 
Q 27.734375 54.296875 24.21875 48.828125 
z
M 60.15625 69.921875 
Q 69.53125 59.765625 74.21875 55.46875 
Q 78.90625 51.171875 83.984375 48.046875 
Q 89.0625 44.921875 93.75 43.359375 
Q 98.4375 41.796875 95.3125 40.8125 
Q 92.1875 39.84375 85.734375 40.234375 
Q 79.296875 40.625 76.171875 44.53125 
Q 73.046875 48.4375 69.921875 53.125 
Q 66.796875 57.8125 58.984375 67.578125 
Q 51.953125 53.90625 46.09375 46.28125 
Q 40.234375 38.671875 33.984375 35.34375 
Q 27.734375 32.03125 33.78125 38.078125 
Q 39.84375 44.140625 45.3125 53.3125 
Q 50.78125 62.5 52.734375 68.75 
Q 54.6875 75 53.90625 77.734375 
Q 53.125 80.46875 56.046875 79.6875 
Q 58.984375 78.90625 61.515625 77.34375 
Q 64.0625 75.78125 62.6875 74.21875 
Q 61.328125 72.65625 60.15625 69.921875 
z
M 67.1875 44.921875 
Q 71.484375 42.96875 70.5 39.84375 
Q 69.53125 36.71875 69.71875 22.265625 
Q 69.921875 7.8125 69.53125 1.75 
Q 69.140625 -4.296875 67.765625 -6.25 
Q 66.40625 -8.203125 64.453125 -3.90625 
Q 62.5 0.390625 63.671875 5.65625 
Q 64.84375 10.9375 64.640625 25.96875 
Q 64.453125 41.015625 61.90625 44.53125 
Q 59.375 48.046875 67.1875 44.921875 
z
M 50.390625 41.796875 
Q 55.078125 40.234375 54.09375 38.46875 
Q 53.125 36.71875 52.53125 28.3125 
Q 51.953125 19.921875 48.4375 13.078125 
Q 44.921875 6.25 38.671875 3.125 
Q 32.421875 0 37.109375 4.6875 
Q 41.796875 9.375 44.328125 14.84375 
Q 46.875 20.3125 47.453125 29.296875 
Q 48.046875 38.28125 45.890625 41.203125 
Q 43.75 44.140625 50.390625 41.796875 
z
" id="KaiTi-20215"/>
      <path d="M 75 6.640625 
Q 81.25 1.953125 73.828125 1.953125 
Q 66.796875 1.953125 52.734375 0.390625 
Q 50.78125 -7.03125 49.015625 -0.1875 
Q 47.265625 6.640625 46.484375 11.328125 
Q 45.703125 16.015625 43.75 19.140625 
Q 42.96875 20.703125 42.96875 21.09375 
Q 40.625 20.3125 38.28125 19.53125 
Q 32.8125 18.359375 38.859375 22.0625 
Q 44.921875 25.78125 50 30.859375 
Q 55.078125 35.9375 59.375 41.796875 
Q 55.859375 45.3125 50 49.21875 
Q 47.65625 46.875 45.3125 46.09375 
Q 42.96875 45.3125 46.09375 49.015625 
Q 49.21875 52.734375 52.921875 59.953125 
Q 56.640625 67.1875 57.21875 69.328125 
Q 57.8125 71.484375 57.03125 74.609375 
Q 56.25 77.734375 58.984375 76.75 
Q 61.71875 75.78125 64.453125 74.21875 
Q 67.1875 72.65625 64.84375 70.5 
Q 62.5 68.359375 58.59375 60.546875 
Q 65.625 61.328125 67.375 62.109375 
Q 69.140625 62.890625 70.3125 64.25 
Q 71.484375 65.625 74.21875 64.25 
Q 76.953125 62.890625 78.703125 61.328125 
Q 80.46875 59.765625 77.734375 58 
Q 75 56.25 72.265625 51.5625 
L 66.796875 42.1875 
Q 70.703125 38.671875 79.09375 34.765625 
Q 87.5 30.859375 93.546875 29.484375 
Q 99.609375 28.125 94.53125 27.34375 
Q 89.453125 26.5625 84.171875 26.171875 
Q 78.90625 25.78125 76.5625 27.34375 
Q 74.21875 28.90625 62.890625 38.28125 
Q 56.25 30.078125 50 25.390625 
Q 46.875 23.4375 44.140625 21.875 
L 44.53125 21.875 
Q 47.65625 21.09375 49.796875 20.3125 
Q 51.953125 19.53125 56.046875 20.109375 
Q 60.15625 20.703125 64.25 21.671875 
Q 68.359375 22.65625 69.921875 23.828125 
Q 71.484375 25 75.1875 23.625 
Q 78.90625 22.265625 81.4375 20.3125 
Q 83.984375 18.359375 81.25 16.015625 
Q 78.515625 13.671875 75 6.640625 
z
M 30.859375 49.609375 
Q 33.984375 50 36.328125 50.578125 
Q 38.671875 51.171875 40.03125 50 
Q 41.40625 48.828125 39.84375 47.65625 
Q 38.28125 46.484375 30.859375 44.53125 
L 30.46875 34.765625 
Q 33.59375 34.375 37.296875 32.8125 
Q 41.015625 31.25 40.625 27.140625 
Q 40.234375 23.046875 36.328125 26.171875 
Q 32.421875 29.296875 30.46875 31.640625 
L 30.46875 12.109375 
Q 30.46875 3.90625 29.09375 -2.53125 
Q 27.734375 -8.984375 25.390625 -2.921875 
Q 23.046875 3.125 24.21875 7.21875 
Q 25.390625 11.328125 25.78125 16.40625 
Q 26.171875 21.484375 26.5625 32.421875 
Q 20.703125 22.265625 15.234375 16.59375 
Q 9.765625 10.9375 5.46875 9.171875 
Q 1.171875 7.421875 6.25 12.296875 
Q 11.328125 17.1875 16.59375 25.578125 
Q 21.875 33.984375 25 42.578125 
Q 17.578125 40.234375 13.46875 40.03125 
Q 9.375 39.84375 7.03125 41.59375 
Q 4.6875 43.359375 11.125 44.328125 
Q 17.578125 45.3125 26.953125 48.4375 
Q 26.953125 58.984375 26.5625 65.625 
Q 26.171875 72.265625 24.21875 75.390625 
Q 22.265625 78.515625 25.78125 77.734375 
Q 29.296875 76.953125 32.03125 75.390625 
Q 34.765625 73.828125 33 70.890625 
Q 31.25 67.96875 30.859375 49.609375 
z
M 69.921875 5.859375 
Q 70.703125 10.9375 71.09375 15.234375 
Q 71.484375 19.53125 68.546875 19.140625 
Q 65.625 18.75 51.171875 16.796875 
Q 51.5625 9.375 52.34375 3.90625 
Q 60.9375 4.6875 69.921875 5.859375 
z
M 51.953125 51.171875 
Q 55.078125 49.21875 62.109375 44.921875 
Q 66.015625 50 67.578125 53.90625 
Q 69.140625 57.8125 67.96875 58.203125 
Q 66.796875 58.59375 63.46875 57.8125 
Q 60.15625 57.03125 57.03125 58.203125 
Q 54.296875 54.296875 51.953125 51.171875 
z
" id="KaiTi-26684"/>
     </defs>
     <g transform="translate(204.115625 267.561875)scale(0.1 -0.1)">
      <use xlink:href="#KaiTi-32929"/>
      <use x="100" xlink:href="#KaiTi-31080"/>
      <use x="200" xlink:href="#KaiTi-20215"/>
      <use x="300" xlink:href="#KaiTi-26684"/>
     </g>
    </g>
   </g>
   <g id="matplotlib.axis_2">
    <g id="ytick_1">
     <g id="line2d_19">
      <path clip-path="url(#p2edb178c33)" d="M 56.715625 230.506364 
L 391.515625 230.506364 
" style="fill:none;stroke:#b0b0b0;stroke-linecap:square;stroke-width:0.8;"/>
     </g>
     <g id="line2d_20">
      <defs>
       <path d="M 0 0 
L -3.5 0 
" id="m26786fea82" style="stroke:#000000;stroke-width:0.8;"/>
      </defs>
      <g>
       <use style="stroke:#000000;stroke-width:0.8;" x="56.715625" xlink:href="#m26786fea82" y="230.506364"/>
      </g>
     </g>
     <g id="text_11">
      <!-- 0 -->
      <g transform="translate(44.715625 233.943864)scale(0.1 -0.1)">
       <use xlink:href="#KaiTi-48"/>
      </g>
     </g>
    </g>
    <g id="ytick_2">
     <g id="line2d_21">
      <path clip-path="url(#p2edb178c33)" d="M 56.715625 202.160833 
L 391.515625 202.160833 
" style="fill:none;stroke:#b0b0b0;stroke-linecap:square;stroke-width:0.8;"/>
     </g>
     <g id="line2d_22">
      <g>
       <use style="stroke:#000000;stroke-width:0.8;" x="56.715625" xlink:href="#m26786fea82" y="202.160833"/>
      </g>
     </g>
     <g id="text_12">
      <!-- 50000 -->
      <g transform="translate(24.715625 205.598333)scale(0.1 -0.1)">
       <use xlink:href="#KaiTi-53"/>
       <use x="50" xlink:href="#KaiTi-48"/>
       <use x="100" xlink:href="#KaiTi-48"/>
       <use x="150" xlink:href="#KaiTi-48"/>
       <use x="200" xlink:href="#KaiTi-48"/>
      </g>
     </g>
    </g>
    <g id="ytick_3">
     <g id="line2d_23">
      <path clip-path="url(#p2edb178c33)" d="M 56.715625 173.815301 
L 391.515625 173.815301 
" style="fill:none;stroke:#b0b0b0;stroke-linecap:square;stroke-width:0.8;"/>
     </g>
     <g id="line2d_24">
      <g>
       <use style="stroke:#000000;stroke-width:0.8;" x="56.715625" xlink:href="#m26786fea82" y="173.815301"/>
      </g>
     </g>
     <g id="text_13">
      <!-- 100000 -->
      <g transform="translate(19.715625 177.252801)scale(0.1 -0.1)">
       <use xlink:href="#KaiTi-49"/>
       <use x="50" xlink:href="#KaiTi-48"/>
       <use x="100" xlink:href="#KaiTi-48"/>
       <use x="150" xlink:href="#KaiTi-48"/>
       <use x="200" xlink:href="#KaiTi-48"/>
       <use x="250" xlink:href="#KaiTi-48"/>
      </g>
     </g>
    </g>
    <g id="ytick_4">
     <g id="line2d_25">
      <path clip-path="url(#p2edb178c33)" d="M 56.715625 145.46977 
L 391.515625 145.46977 
" style="fill:none;stroke:#b0b0b0;stroke-linecap:square;stroke-width:0.8;"/>
     </g>
     <g id="line2d_26">
      <g>
       <use style="stroke:#000000;stroke-width:0.8;" x="56.715625" xlink:href="#m26786fea82" y="145.46977"/>
      </g>
     </g>
     <g id="text_14">
      <!-- 150000 -->
      <g transform="translate(19.715625 148.90727)scale(0.1 -0.1)">
       <use xlink:href="#KaiTi-49"/>
       <use x="50" xlink:href="#KaiTi-53"/>
       <use x="100" xlink:href="#KaiTi-48"/>
       <use x="150" xlink:href="#KaiTi-48"/>
       <use x="200" xlink:href="#KaiTi-48"/>
       <use x="250" xlink:href="#KaiTi-48"/>
      </g>
     </g>
    </g>
    <g id="ytick_5">
     <g id="line2d_27">
      <path clip-path="url(#p2edb178c33)" d="M 56.715625 117.124239 
L 391.515625 117.124239 
" style="fill:none;stroke:#b0b0b0;stroke-linecap:square;stroke-width:0.8;"/>
     </g>
     <g id="line2d_28">
      <g>
       <use style="stroke:#000000;stroke-width:0.8;" x="56.715625" xlink:href="#m26786fea82" y="117.124239"/>
      </g>
     </g>
     <g id="text_15">
      <!-- 200000 -->
      <g transform="translate(19.715625 120.561739)scale(0.1 -0.1)">
       <use xlink:href="#KaiTi-50"/>
       <use x="50" xlink:href="#KaiTi-48"/>
       <use x="100" xlink:href="#KaiTi-48"/>
       <use x="150" xlink:href="#KaiTi-48"/>
       <use x="200" xlink:href="#KaiTi-48"/>
       <use x="250" xlink:href="#KaiTi-48"/>
      </g>
     </g>
    </g>
    <g id="ytick_6">
     <g id="line2d_29">
      <path clip-path="url(#p2edb178c33)" d="M 56.715625 88.778708 
L 391.515625 88.778708 
" style="fill:none;stroke:#b0b0b0;stroke-linecap:square;stroke-width:0.8;"/>
     </g>
     <g id="line2d_30">
      <g>
       <use style="stroke:#000000;stroke-width:0.8;" x="56.715625" xlink:href="#m26786fea82" y="88.778708"/>
      </g>
     </g>
     <g id="text_16">
      <!-- 250000 -->
      <g transform="translate(19.715625 92.216208)scale(0.1 -0.1)">
       <use xlink:href="#KaiTi-50"/>
       <use x="50" xlink:href="#KaiTi-53"/>
       <use x="100" xlink:href="#KaiTi-48"/>
       <use x="150" xlink:href="#KaiTi-48"/>
       <use x="200" xlink:href="#KaiTi-48"/>
       <use x="250" xlink:href="#KaiTi-48"/>
      </g>
     </g>
    </g>
    <g id="ytick_7">
     <g id="line2d_31">
      <path clip-path="url(#p2edb178c33)" d="M 56.715625 60.433177 
L 391.515625 60.433177 
" style="fill:none;stroke:#b0b0b0;stroke-linecap:square;stroke-width:0.8;"/>
     </g>
     <g id="line2d_32">
      <g>
       <use style="stroke:#000000;stroke-width:0.8;" x="56.715625" xlink:href="#m26786fea82" y="60.433177"/>
      </g>
     </g>
     <g id="text_17">
      <!-- 300000 -->
      <defs>
       <path d="M 3.90625 19.140625 
L 10.9375 20.3125 
Q 12.5 15.234375 16.015625 11.90625 
Q 19.53125 8.59375 24.796875 8.78125 
Q 30.078125 8.984375 33.203125 13.078125 
Q 36.328125 17.1875 35.9375 22.453125 
Q 35.546875 27.734375 31.828125 30.65625 
Q 28.125 33.59375 19.921875 34.765625 
L 19.921875 39.84375 
Q 28.125 40.625 31.828125 44.140625 
Q 35.546875 47.65625 35.15625 53.3125 
Q 34.765625 58.984375 30.078125 61.515625 
Q 25.390625 64.0625 20.109375 62.109375 
Q 14.84375 60.15625 11.71875 51.171875 
L 4.6875 52.34375 
Q 7.03125 59.375 11.125 64.0625 
Q 15.234375 68.75 22.265625 69.53125 
Q 29.296875 70.3125 34.5625 67.765625 
Q 39.84375 65.234375 41.984375 59.953125 
Q 44.140625 54.6875 42.578125 48.4375 
Q 41.015625 42.1875 33.59375 37.5 
Q 39.0625 35.15625 41.984375 30.46875 
Q 44.921875 25.78125 43.9375 18.15625 
Q 42.96875 10.546875 37.109375 5.859375 
Q 31.25 1.171875 23.828125 1.359375 
Q 16.40625 1.5625 10.9375 6.046875 
Q 5.46875 10.546875 3.90625 19.140625 
z
" id="KaiTi-51"/>
      </defs>
      <g transform="translate(19.715625 63.870677)scale(0.1 -0.1)">
       <use xlink:href="#KaiTi-51"/>
       <use x="50" xlink:href="#KaiTi-48"/>
       <use x="100" xlink:href="#KaiTi-48"/>
       <use x="150" xlink:href="#KaiTi-48"/>
       <use x="200" xlink:href="#KaiTi-48"/>
       <use x="250" xlink:href="#KaiTi-48"/>
      </g>
     </g>
    </g>
    <g id="ytick_8">
     <g id="line2d_33">
      <path clip-path="url(#p2edb178c33)" d="M 56.715625 32.087646 
L 391.515625 32.087646 
" style="fill:none;stroke:#b0b0b0;stroke-linecap:square;stroke-width:0.8;"/>
     </g>
     <g id="line2d_34">
      <g>
       <use style="stroke:#000000;stroke-width:0.8;" x="56.715625" xlink:href="#m26786fea82" y="32.087646"/>
      </g>
     </g>
     <g id="text_18">
      <!-- 350000 -->
      <g transform="translate(19.715625 35.525146)scale(0.1 -0.1)">
       <use xlink:href="#KaiTi-51"/>
       <use x="50" xlink:href="#KaiTi-53"/>
       <use x="100" xlink:href="#KaiTi-48"/>
       <use x="150" xlink:href="#KaiTi-48"/>
       <use x="200" xlink:href="#KaiTi-48"/>
       <use x="250" xlink:href="#KaiTi-48"/>
      </g>
     </g>
    </g>
    <g id="text_19">
     <!-- 股数 -->
     <defs>
      <path d="M 64.0625 20.3125 
Q 66.796875 25.390625 67.375 31.046875 
Q 67.96875 36.71875 67.578125 42.578125 
Q 64.453125 42.1875 60.546875 42.578125 
Q 55.859375 37.109375 51.953125 34.765625 
Q 48.046875 32.421875 52.921875 38.46875 
Q 57.8125 44.53125 61.125 54.484375 
Q 64.453125 64.453125 64.0625 66.796875 
Q 63.671875 69.140625 63.46875 70.890625 
Q 63.28125 72.65625 68.15625 70.109375 
Q 73.046875 67.578125 71.28125 65.234375 
Q 69.53125 62.890625 67.765625 58 
Q 66.015625 53.125 61.328125 44.53125 
Q 70.703125 46.484375 76.75 49.40625 
Q 82.8125 52.34375 86.125 50.1875 
Q 89.453125 48.046875 85.15625 46.484375 
Q 80.859375 44.921875 69.140625 42.578125 
Q 75 40.625 73.625 36.71875 
Q 72.265625 32.8125 71.28125 27.734375 
Q 70.3125 22.65625 67.578125 16.015625 
Q 71.09375 11.71875 75.578125 8 
Q 80.078125 4.296875 84.953125 2.34375 
Q 89.84375 0.390625 93.359375 -0.96875 
Q 96.875 -2.34375 89.640625 -2.921875 
Q 82.421875 -3.515625 78.703125 -2.921875 
Q 75 -2.34375 73.234375 0.390625 
Q 71.484375 3.125 64.453125 12.5 
Q 60.9375 8.59375 57.421875 6.25 
Q 53.90625 3.90625 49.609375 2.734375 
Q 45.3125 1.5625 49.40625 4.09375 
Q 53.515625 6.640625 56.640625 9.765625 
Q 59.765625 12.890625 62.109375 16.40625 
Q 59.375 21.09375 56.828125 24.40625 
Q 54.296875 27.734375 52.53125 29.6875 
Q 50.78125 31.640625 52.921875 31.828125 
Q 55.078125 32.03125 56.4375 30.46875 
Q 57.8125 28.90625 64.0625 20.3125 
z
M 40.234375 25 
Q 41.015625 27.34375 40.8125 29.09375 
Q 40.625 30.859375 42.96875 29.296875 
Q 45.3125 27.734375 46.28125 26.5625 
Q 47.265625 25.390625 46.28125 23.4375 
Q 45.3125 21.484375 43.75 17.375 
Q 42.1875 13.28125 39.453125 8.59375 
Q 42.1875 6.640625 44.328125 4.6875 
Q 46.484375 2.734375 45.703125 -0.96875 
Q 44.921875 -4.6875 42.375 -1.5625 
Q 39.84375 1.5625 36.328125 4.296875 
Q 30.078125 -0.390625 24.796875 -2.34375 
Q 19.53125 -4.296875 14.25 -4.6875 
Q 8.984375 -5.078125 13.28125 -3.3125 
Q 17.578125 -1.5625 22.65625 0.78125 
Q 27.734375 3.125 32.03125 7.421875 
Q 27.34375 10.9375 25.578125 11.71875 
Q 23.828125 12.5 24.796875 14.0625 
Q 25.78125 15.625 26.5625 19.53125 
Q 16.40625 18.359375 13.46875 16.59375 
Q 10.546875 14.84375 6.640625 17.96875 
Q 2.734375 21.09375 7.8125 20.890625 
Q 12.890625 20.703125 27.734375 23.046875 
Q 28.90625 28.125 28.125 31.046875 
Q 27.34375 33.984375 31.640625 31.828125 
Q 35.9375 29.6875 35.15625 28.515625 
Q 34.375 27.34375 32.421875 23.828125 
z
M 44.921875 53.515625 
Q 48.828125 54.296875 50.390625 52.921875 
Q 51.953125 51.5625 48.4375 50.390625 
Q 44.921875 49.21875 36.71875 48.046875 
L 36.71875 44.921875 
Q 43.359375 44.140625 46.484375 41.984375 
Q 49.609375 39.84375 48.625 36.71875 
Q 47.65625 33.59375 43.9375 37.6875 
Q 40.234375 41.796875 36.71875 43.75 
Q 36.71875 39.0625 35.9375 35.734375 
Q 35.15625 32.421875 33.390625 35.34375 
Q 31.640625 38.28125 32.21875 40.625 
Q 32.8125 42.96875 32.421875 46.09375 
Q 23.046875 33.984375 15.234375 30.265625 
Q 7.421875 26.5625 11.90625 30.078125 
Q 16.40625 33.59375 21.28125 38.671875 
Q 26.171875 43.75 28.125 47.65625 
Q 22.65625 45.703125 20.5 45.3125 
Q 18.359375 44.921875 15.234375 47.0625 
Q 12.109375 49.21875 16.40625 49.015625 
Q 20.703125 48.828125 32.8125 51.171875 
L 32.8125 65.234375 
Q 32.8125 73.4375 31.4375 75.578125 
Q 30.078125 77.734375 31.046875 77.921875 
Q 32.03125 78.125 35.9375 76.359375 
Q 39.84375 74.609375 38.46875 72.265625 
Q 37.109375 69.921875 37.109375 51.953125 
z
M 35.15625 10.546875 
Q 38.28125 14.453125 40.234375 22.265625 
L 31.25 20.703125 
Q 28.515625 14.453125 28.703125 13.671875 
Q 28.90625 12.890625 30.265625 12.5 
Q 31.640625 12.109375 35.15625 10.546875 
z
M 50.78125 66.796875 
Q 53.90625 64.84375 51.5625 63.859375 
Q 49.21875 62.890625 43.15625 58.390625 
Q 37.109375 53.90625 40.625 58.390625 
Q 44.140625 62.890625 45.3125 66.203125 
Q 46.484375 69.53125 47.265625 69.140625 
Q 48.046875 68.75 50.78125 66.796875 
z
M 24.21875 56.25 
Q 21.09375 60.546875 20.109375 62.5 
Q 19.140625 64.453125 24.015625 63.28125 
Q 28.90625 62.109375 28.3125 57.21875 
Q 27.734375 52.34375 24.21875 56.25 
z
" id="KaiTi-25968"/>
     </defs>
     <g transform="translate(14.465625 141.67)rotate(-90)scale(0.1 -0.1)">
      <use xlink:href="#KaiTi-32929"/>
      <use x="100" xlink:href="#KaiTi-25968"/>
     </g>
    </g>
   </g>
   <g id="line2d_35">
    <defs>
     <path d="M 0 3 
C 0.795609 3 1.55874 2.683901 2.12132 2.12132 
C 2.683901 1.55874 3 0.795609 3 0 
C 3 -0.795609 2.683901 -1.55874 2.12132 -2.12132 
C 1.55874 -2.683901 0.795609 -3 0 -3 
C -0.795609 -3 -1.55874 -2.683901 -2.12132 -2.12132 
C -2.683901 -1.55874 -3 -0.795609 -3 0 
C -3 0.795609 -2.683901 1.55874 -2.12132 2.12132 
C -1.55874 2.683901 -0.795609 3 0 3 
z
" id="mea26c080a5" style="stroke:#1f77b4;"/>
    </defs>
    <g clip-path="url(#p2edb178c33)">
     <use style="fill:#1f77b4;stroke:#1f77b4;" x="71.933807" xlink:href="#mea26c080a5" y="145.980613"/>
     <use style="fill:#1f77b4;stroke:#1f77b4;" x="78.14531" xlink:href="#mea26c080a5" y="145.980902"/>
     <use style="fill:#1f77b4;stroke:#1f77b4;" x="84.356812" xlink:href="#mea26c080a5" y="145.863062"/>
     <use style="fill:#1f77b4;stroke:#1f77b4;" x="90.568315" xlink:href="#mea26c080a5" y="145.847779"/>
     <use style="fill:#1f77b4;stroke:#1f77b4;" x="96.779818" xlink:href="#mea26c080a5" y="230.506364"/>
     <use style="fill:#1f77b4;stroke:#1f77b4;" x="102.991321" xlink:href="#mea26c080a5" y="145.854073"/>
     <use style="fill:#1f77b4;stroke:#1f77b4;" x="109.202824" xlink:href="#mea26c080a5" y="230.506364"/>
     <use style="fill:#1f77b4;stroke:#1f77b4;" x="115.414326" xlink:href="#mea26c080a5" y="145.812006"/>
     <use style="fill:#1f77b4;stroke:#1f77b4;" x="121.625829" xlink:href="#mea26c080a5" y="145.743209"/>
     <use style="fill:#1f77b4;stroke:#1f77b4;" x="127.837332" xlink:href="#mea26c080a5" y="145.737893"/>
     <use style="fill:#1f77b4;stroke:#1f77b4;" x="134.048835" xlink:href="#mea26c080a5" y="145.730346"/>
     <use style="fill:#1f77b4;stroke:#1f77b4;" x="140.260337" xlink:href="#mea26c080a5" y="145.720561"/>
     <use style="fill:#1f77b4;stroke:#1f77b4;" x="146.47184" xlink:href="#mea26c080a5" y="145.528256"/>
     <use style="fill:#1f77b4;stroke:#1f77b4;" x="152.683343" xlink:href="#mea26c080a5" y="145.718659"/>
     <use style="fill:#1f77b4;stroke:#1f77b4;" x="158.894846" xlink:href="#mea26c080a5" y="145.685652"/>
     <use style="fill:#1f77b4;stroke:#1f77b4;" x="165.106349" xlink:href="#mea26c080a5" y="145.71045"/>
     <use style="fill:#1f77b4;stroke:#1f77b4;" x="171.317851" xlink:href="#mea26c080a5" y="230.506364"/>
     <use style="fill:#1f77b4;stroke:#1f77b4;" x="177.529354" xlink:href="#mea26c080a5" y="230.506364"/>
     <use style="fill:#1f77b4;stroke:#1f77b4;" x="183.740857" xlink:href="#mea26c080a5" y="145.583002"/>
     <use style="fill:#1f77b4;stroke:#1f77b4;" x="189.95236" xlink:href="#mea26c080a5" y="230.506364"/>
     <use style="fill:#1f77b4;stroke:#1f77b4;" x="196.163862" xlink:href="#mea26c080a5" y="145.593708"/>
     <use style="fill:#1f77b4;stroke:#1f77b4;" x="202.375365" xlink:href="#mea26c080a5" y="145.610124"/>
     <use style="fill:#1f77b4;stroke:#1f77b4;" x="208.586868" xlink:href="#mea26c080a5" y="145.496881"/>
     <use style="fill:#1f77b4;stroke:#1f77b4;" x="214.798371" xlink:href="#mea26c080a5" y="145.491499"/>
     <use style="fill:#1f77b4;stroke:#1f77b4;" x="221.009874" xlink:href="#mea26c080a5" y="145.398087"/>
     <use style="fill:#1f77b4;stroke:#1f77b4;" x="227.221376" xlink:href="#mea26c080a5" y="145.470112"/>
     <use style="fill:#1f77b4;stroke:#1f77b4;" x="233.432879" xlink:href="#mea26c080a5" y="145.372043"/>
     <use style="fill:#1f77b4;stroke:#1f77b4;" x="239.644382" xlink:href="#mea26c080a5" y="145.368016"/>
     <use style="fill:#1f77b4;stroke:#1f77b4;" x="245.855885" xlink:href="#mea26c080a5" y="145.370044"/>
     <use style="fill:#1f77b4;stroke:#1f77b4;" x="252.067388" xlink:href="#mea26c080a5" y="145.366508"/>
     <use style="fill:#1f77b4;stroke:#1f77b4;" x="258.27889" xlink:href="#mea26c080a5" y="145.257574"/>
     <use style="fill:#1f77b4;stroke:#1f77b4;" x="264.490393" xlink:href="#mea26c080a5" y="145.359587"/>
     <use style="fill:#1f77b4;stroke:#1f77b4;" x="270.701896" xlink:href="#mea26c080a5" y="145.266515"/>
     <use style="fill:#1f77b4;stroke:#1f77b4;" x="276.913399" xlink:href="#mea26c080a5" y="145.157728"/>
     <use style="fill:#1f77b4;stroke:#1f77b4;" x="283.124901" xlink:href="#mea26c080a5" y="145.244247"/>
     <use style="fill:#1f77b4;stroke:#1f77b4;" x="289.336404" xlink:href="#mea26c080a5" y="145.244956"/>
     <use style="fill:#1f77b4;stroke:#1f77b4;" x="295.547907" xlink:href="#mea26c080a5" y="145.152775"/>
     <use style="fill:#1f77b4;stroke:#1f77b4;" x="301.75941" xlink:href="#mea26c080a5" y="145.150297"/>
     <use style="fill:#1f77b4;stroke:#1f77b4;" x="307.970913" xlink:href="#mea26c080a5" y="143.407083"/>
     <use style="fill:#1f77b4;stroke:#1f77b4;" x="314.182415" xlink:href="#mea26c080a5" y="145.068466"/>
     <use style="fill:#1f77b4;stroke:#1f77b4;" x="320.393918" xlink:href="#mea26c080a5" y="145.127021"/>
     <use style="fill:#1f77b4;stroke:#1f77b4;" x="326.605421" xlink:href="#mea26c080a5" y="145.04687"/>
     <use style="fill:#1f77b4;stroke:#1f77b4;" x="332.816924" xlink:href="#mea26c080a5" y="145.043023"/>
     <use style="fill:#1f77b4;stroke:#1f77b4;" x="339.028426" xlink:href="#mea26c080a5" y="145.109564"/>
     <use style="fill:#1f77b4;stroke:#1f77b4;" x="345.239929" xlink:href="#mea26c080a5" y="145.000089"/>
     <use style="fill:#1f77b4;stroke:#1f77b4;" x="351.451432" xlink:href="#mea26c080a5" y="145.025587"/>
     <use style="fill:#1f77b4;stroke:#1f77b4;" x="357.662935" xlink:href="#mea26c080a5" y="144.923042"/>
     <use style="fill:#1f77b4;stroke:#1f77b4;" x="363.874438" xlink:href="#mea26c080a5" y="144.929622"/>
     <use style="fill:#1f77b4;stroke:#1f77b4;" x="370.08594" xlink:href="#mea26c080a5" y="144.924869"/>
     <use style="fill:#1f77b4;stroke:#1f77b4;" x="376.297443" xlink:href="#mea26c080a5" y="32.833636"/>
    </g>
   </g>
   <g id="patch_3">
    <path d="M 56.715625 240.39 
L 56.715625 22.95 
" style="fill:none;stroke:#000000;stroke-linecap:square;stroke-linejoin:miter;stroke-width:0.8;"/>
   </g>
   <g id="patch_4">
    <path d="M 391.515625 240.39 
L 391.515625 22.95 
" style="fill:none;stroke:#000000;stroke-linecap:square;stroke-linejoin:miter;stroke-width:0.8;"/>
   </g>
   <g id="patch_5">
    <path d="M 56.715625 240.39 
L 391.515625 240.39 
" style="fill:none;stroke:#000000;stroke-linecap:square;stroke-linejoin:miter;stroke-width:0.8;"/>
   </g>
   <g id="patch_6">
    <path d="M 56.715625 22.95 
L 391.515625 22.95 
" style="fill:none;stroke:#000000;stroke-linecap:square;stroke-linejoin:miter;stroke-width:0.8;"/>
   </g>
   <g id="text_20">
    <!-- 情景1条件下中国平安的股价与最优股票数量 -->
    <defs>
     <path d="M 61.71875 17.96875 
Q 64.84375 18.75 66.59375 16.984375 
Q 68.359375 15.234375 64.0625 14.453125 
Q 59.765625 13.671875 53.90625 13.671875 
Q 52.34375 3.90625 50.78125 -1.359375 
Q 49.21875 -6.640625 47.453125 -2.140625 
Q 45.703125 2.34375 46.671875 4.875 
Q 47.65625 7.421875 48.828125 14.0625 
Q 50 20.703125 50.1875 26.5625 
Q 50.390625 32.421875 49.21875 35.15625 
Q 48.046875 37.890625 50.578125 36.71875 
Q 53.125 35.546875 55.65625 36.125 
Q 58.203125 36.71875 61.328125 37.6875 
Q 64.453125 38.671875 66.40625 40.03125 
Q 68.359375 41.40625 70.703125 40.421875 
Q 73.046875 39.453125 75.578125 38.28125 
Q 78.125 37.109375 77.140625 35.34375 
Q 76.171875 33.59375 76.171875 29.6875 
Q 76.171875 26.171875 76.953125 17.765625 
Q 77.734375 9.375 78.125 3.125 
Q 78.515625 -3.125 75.390625 -6.828125 
Q 72.265625 -10.546875 71.09375 -7.609375 
Q 69.921875 -4.6875 65.8125 -0.390625 
Q 61.71875 3.90625 65.625 2.140625 
Q 69.53125 0.390625 71.09375 0.578125 
Q 72.65625 0.78125 72.0625 11.515625 
Q 71.484375 22.265625 70.890625 28.515625 
Q 70.3125 34.765625 69.140625 35.9375 
Q 67.96875 37.109375 65.8125 36.71875 
Q 63.671875 36.328125 54.296875 33.59375 
L 54.296875 25.78125 
Q 58.59375 26.5625 60.546875 27.34375 
Q 62.5 28.125 64.640625 27.34375 
Q 66.796875 26.5625 63.859375 25.1875 
Q 60.9375 23.828125 54.296875 23.046875 
Q 53.90625 19.140625 53.90625 16.015625 
z
M 66.40625 67.96875 
Q 70.3125 68.75 73.234375 69.71875 
Q 76.171875 70.703125 78.703125 68.546875 
Q 81.25 66.40625 76.953125 65.625 
Q 72.65625 64.84375 66.40625 63.671875 
Q 66.015625 62.5 66.015625 58.203125 
Q 69.53125 59.375 71.875 59.375 
Q 74.21875 59.375 75.1875 58.390625 
Q 76.171875 57.421875 73.625 56.25 
Q 71.09375 55.078125 66.015625 54.296875 
Q 65.625 50.390625 65.625 48.046875 
Q 76.953125 50 81.25 51.171875 
Q 85.546875 52.34375 89.0625 51.171875 
Q 92.578125 50 93.546875 47.84375 
Q 94.53125 45.703125 88.859375 45.890625 
Q 83.203125 46.09375 77.140625 45.703125 
Q 71.09375 45.3125 64.453125 44.140625 
Q 57.8125 42.96875 51.5625 41.40625 
Q 45.3125 39.84375 43.15625 39.0625 
Q 41.015625 38.28125 37.109375 40.8125 
Q 33.203125 43.359375 37.5 43.359375 
Q 41.796875 43.359375 61.328125 47.265625 
L 61.328125 53.515625 
Q 57.421875 52.34375 55.46875 52.34375 
Q 53.90625 52.34375 51.171875 53.515625 
Q 48.4375 54.6875 51.953125 55.265625 
Q 55.46875 55.859375 61.328125 57.421875 
L 61.328125 63.28125 
Q 56.640625 62.109375 54.09375 61.71875 
Q 51.5625 61.328125 48.625 63.28125 
Q 45.703125 65.234375 50.78125 65.625 
Q 55.859375 66.015625 61.328125 67.1875 
Q 61.328125 75 58.984375 77.734375 
Q 56.640625 80.46875 62.890625 79.484375 
Q 69.140625 78.515625 67.96875 76.171875 
Q 66.796875 73.828125 66.40625 67.96875 
z
M 28.90625 58.203125 
Q 32.8125 57.8125 36.125 56.25 
Q 39.453125 54.6875 40.03125 50.78125 
Q 40.625 46.875 37.109375 49.21875 
Q 33.59375 51.5625 28.90625 57.421875 
L 28.90625 24.609375 
Q 28.90625 14.453125 27.34375 3.90625 
Q 25.78125 -6.640625 22.65625 -0.390625 
Q 19.53125 5.859375 21.28125 10.34375 
Q 23.046875 14.84375 23.828125 21.875 
Q 24.609375 28.90625 25.1875 42.375 
Q 25.78125 55.859375 24.796875 64.0625 
Q 23.828125 72.265625 21.875 75.578125 
Q 19.921875 78.90625 26.171875 76.953125 
Q 32.421875 75 30.65625 72.453125 
Q 28.90625 69.921875 28.90625 58.203125 
z
M 12.5 42.96875 
Q 14.0625 46.484375 15.03125 50.390625 
Q 16.015625 54.296875 17.1875 47.0625 
Q 18.359375 39.84375 14.453125 32.609375 
Q 10.546875 25.390625 9.5625 30.46875 
Q 8.59375 35.546875 9.765625 37.6875 
Q 10.9375 39.84375 12.5 42.96875 
z
" id="KaiTi-24773"/>
     <path d="M 61.328125 57.421875 
Q 55.078125 56.640625 47.65625 55.46875 
Q 53.125 52.734375 53.515625 50 
Q 53.90625 47.265625 51.953125 45.3125 
Q 62.109375 46.484375 70.890625 47.65625 
Q 79.6875 48.828125 83.78125 49.21875 
Q 87.890625 49.609375 90.8125 47.65625 
Q 93.75 45.703125 93.546875 44.140625 
Q 93.359375 42.578125 86.71875 43.359375 
Q 80.078125 44.140625 53.3125 41.59375 
Q 26.5625 39.0625 20.109375 38.078125 
Q 13.671875 37.109375 9.375 39.640625 
Q 5.078125 42.1875 10.15625 42.1875 
Q 15.234375 42.1875 25.578125 42.96875 
Q 35.9375 43.75 49.609375 45.3125 
Q 48.4375 46.875 44.53125 55.078125 
Q 41.796875 54.6875 39.84375 54.296875 
Q 38.671875 50.390625 37.109375 53.515625 
L 33.203125 63.671875 
Q 30.46875 70.3125 28.125 73.046875 
Q 25.78125 75.78125 28.125 75.578125 
Q 30.46875 75.390625 33 75 
Q 35.546875 74.609375 44.53125 75.78125 
Q 59.765625 78.515625 62.5 79.484375 
Q 65.234375 80.46875 68.15625 79.6875 
Q 71.09375 78.90625 74.015625 76.953125 
Q 76.953125 75 74.796875 73.828125 
Q 72.65625 72.65625 70.109375 66.40625 
Q 67.578125 60.15625 65.03125 56.640625 
Q 62.5 53.125 61.328125 57.421875 
z
M 63.28125 25.390625 
Q 66.015625 21.875 62.6875 21.671875 
Q 59.375 21.484375 48.828125 21.09375 
Q 52.734375 18.359375 52.140625 16.59375 
Q 51.5625 14.84375 51.953125 8.59375 
Q 52.34375 2.34375 51.5625 -1.5625 
Q 50.78125 -5.46875 48.046875 -8 
Q 45.3125 -10.546875 44.140625 -7.8125 
Q 42.96875 -5.078125 37.890625 -1.171875 
Q 32.8125 2.734375 37.6875 1.359375 
Q 42.578125 0 44.328125 0.390625 
Q 46.09375 0.78125 46.671875 3.703125 
Q 47.265625 6.640625 47.0625 12.890625 
Q 46.875 19.140625 44.53125 20.3125 
L 39.0625 19.53125 
Q 37.109375 16.40625 35.546875 20.703125 
Q 33.984375 25 33 27.140625 
Q 32.03125 29.296875 30.46875 32.03125 
Q 28.90625 34.765625 30.859375 34.765625 
Q 33.203125 34.765625 35.734375 34.375 
Q 38.28125 33.984375 42.96875 34.5625 
Q 47.65625 35.15625 52.140625 35.9375 
Q 56.640625 36.71875 58.59375 37.6875 
Q 60.546875 38.671875 63.078125 37.890625 
Q 65.625 37.109375 68.359375 35.15625 
Q 71.09375 33.203125 68.546875 31.25 
Q 66.015625 29.296875 63.28125 25.390625 
z
M 37.5 66.40625 
Q 47.265625 67.96875 51.359375 69.328125 
Q 55.46875 70.703125 58 68.9375 
Q 60.546875 67.1875 53.703125 65.625 
Q 46.875 64.0625 38.28125 63.671875 
L 39.84375 57.03125 
Q 47.65625 57.8125 53.3125 58.984375 
Q 58.984375 60.15625 61.71875 59.765625 
Q 63.28125 64.0625 63.859375 67.375 
Q 64.453125 70.703125 64.640625 73.234375 
Q 64.84375 75.78125 61.328125 75.578125 
Q 57.8125 75.390625 36.328125 72.265625 
L 37.5 66.40625 
z
M 39.0625 22.65625 
Q 51.953125 24.21875 58.59375 25 
Q 59.765625 28.90625 60.15625 31.046875 
Q 60.546875 33.203125 58.78125 33.59375 
Q 57.03125 33.984375 53.3125 33.390625 
Q 49.609375 32.8125 37.890625 31.640625 
Q 38.28125 26.5625 39.0625 22.65625 
z
M 67.96875 6.25 
Q 58.984375 15.625 63.28125 14.640625 
Q 67.578125 13.671875 71.484375 11.71875 
Q 75.390625 9.765625 77.140625 6.4375 
Q 78.90625 3.125 77.53125 0 
Q 76.171875 -3.125 67.96875 6.25 
z
M 23.046875 9.375 
Q 26.5625 14.453125 28.125 17.375 
Q 29.6875 20.3125 29.484375 13.671875 
Q 29.296875 7.03125 25.578125 1.75 
Q 21.875 -3.515625 20.5 0.78125 
Q 19.140625 5.078125 23.046875 9.375 
z
" id="KaiTi-26223"/>
     <path d="M 41.796875 68.75 
Q 51.5625 69.921875 55.265625 72.0625 
Q 58.984375 74.21875 63.671875 71.875 
Q 68.359375 69.53125 67.375 68.15625 
Q 66.40625 66.796875 63.28125 63.859375 
Q 60.15625 60.9375 58 58.203125 
Q 55.859375 55.46875 51.953125 51.953125 
Q 56.25 49.21875 59.765625 47.453125 
Q 63.28125 45.703125 69.328125 43.546875 
Q 75.390625 41.40625 80.46875 40.234375 
Q 85.546875 39.0625 91.015625 38.671875 
Q 96.484375 38.28125 93.546875 37.109375 
Q 90.625 35.9375 83.59375 34.765625 
Q 76.5625 33.59375 72.0625 34.765625 
Q 67.578125 35.9375 48.828125 48.4375 
Q 36.328125 37.5 27.53125 33.984375 
Q 18.75 30.46875 12.296875 29.09375 
Q 5.859375 27.734375 11.515625 30.078125 
Q 17.1875 32.421875 26.5625 37.6875 
Q 35.9375 42.96875 44.53125 51.953125 
Q 38.671875 57.421875 33.984375 60.15625 
Q 30.078125 57.421875 26.75 56.25 
Q 23.4375 55.078125 23.046875 55.46875 
Q 22.65625 55.859375 26.171875 58.390625 
Q 29.6875 60.9375 34.171875 66.796875 
Q 38.671875 72.65625 39.640625 75.578125 
Q 40.625 78.515625 40.421875 79.875 
Q 40.234375 81.25 44.328125 79.6875 
Q 48.4375 78.125 48.625 77.34375 
Q 48.828125 76.5625 41.796875 68.75 
z
M 52.34375 28.125 
Q 61.71875 28.90625 69.140625 29.875 
Q 76.5625 30.859375 79.875 27.921875 
Q 83.203125 25 77.140625 25.1875 
Q 71.09375 25.390625 52.34375 24.21875 
Q 52.34375 16.40625 53.125 7.21875 
Q 53.90625 -1.953125 50.390625 -6.828125 
Q 46.875 -11.71875 45.3125 -8.59375 
Q 43.75 -5.46875 38.46875 -2.140625 
Q 33.203125 1.171875 36.90625 0.390625 
Q 40.625 -0.390625 43.75 -0.390625 
Q 47.265625 -0.390625 47.453125 7.609375 
Q 47.65625 15.625 47.265625 23.828125 
Q 31.640625 21.875 29.09375 20.890625 
Q 26.5625 19.921875 22.453125 22.453125 
Q 18.359375 25 24.21875 25 
Q 30.078125 25 46.875 27.34375 
Q 46.875 33.59375 44.71875 36.71875 
Q 42.578125 39.84375 45.5 39.25 
Q 48.4375 38.671875 50.96875 37.890625 
Q 53.515625 37.109375 52.921875 35.546875 
Q 52.34375 33.984375 52.34375 28.125 
z
M 35.9375 61.71875 
Q 38.671875 60.546875 41.203125 58.78125 
Q 43.75 57.03125 47.65625 54.6875 
Q 53.515625 60.9375 55.46875 64.25 
Q 57.421875 67.578125 55.859375 68.359375 
Q 51.171875 67.578125 47.453125 66.40625 
Q 43.75 65.234375 41.015625 67.1875 
Q 38.28125 64.453125 35.9375 61.71875 
z
M 67.96875 13.28125 
Q 73.046875 11.71875 76.75 8.984375 
Q 80.46875 6.25 79.6875 1.953125 
Q 78.90625 -2.34375 75.1875 0.578125 
Q 71.484375 3.515625 66.015625 8.984375 
Q 60.546875 14.453125 61.90625 14.84375 
Q 63.28125 15.234375 67.96875 13.28125 
z
M 25.390625 9.375 
Q 26.953125 10.9375 29.484375 14.453125 
Q 32.03125 17.96875 32.03125 14.0625 
Q 32.03125 10.546875 29.875 6.046875 
Q 27.734375 1.5625 24.609375 -0.578125 
Q 21.484375 -2.734375 21.09375 0.78125 
Q 20.703125 4.296875 22.453125 6.046875 
Q 24.21875 7.8125 25.390625 9.375 
z
" id="KaiTi-26465"/>
     <path d="M 48.046875 49.21875 
Q 50.78125 49.21875 60.546875 51.5625 
Q 60.546875 57.421875 60.34375 62.890625 
Q 60.15625 68.359375 59.375 71.09375 
Q 58.59375 73.828125 57.609375 75.78125 
Q 56.640625 77.734375 59.5625 77.140625 
Q 62.5 76.5625 65.421875 75.1875 
Q 68.359375 73.828125 66.984375 71.484375 
Q 65.625 69.140625 65.625 52.734375 
Q 71.09375 54.296875 74.015625 55.078125 
Q 76.953125 55.859375 79.296875 53.90625 
Q 81.640625 51.953125 77.34375 50.578125 
Q 73.046875 49.21875 65.625 47.65625 
L 65.625 35.546875 
Q 79.296875 37.5 84.765625 38.671875 
Q 90.234375 39.84375 92.96875 37.6875 
Q 95.703125 35.546875 95.3125 34.5625 
Q 94.921875 33.59375 90.625 33.59375 
Q 86.328125 33.59375 79.6875 33 
Q 73.046875 32.421875 65.625 31.25 
Q 65.625 11.328125 65.03125 1.171875 
Q 64.453125 -8.984375 62.890625 -9.5625 
Q 61.328125 -10.15625 60.9375 -1.5625 
Q 60.546875 7.03125 60.546875 30.46875 
Q 45.3125 27.734375 41.59375 26.953125 
Q 37.890625 26.171875 33.984375 28.703125 
Q 30.078125 31.25 35.734375 31.4375 
Q 41.40625 31.640625 60.546875 34.765625 
L 60.546875 46.875 
L 53.515625 45.703125 
Q 49.609375 45.3125 46.484375 47.265625 
Q 41.796875 41.015625 38.078125 38.671875 
Q 34.375 36.328125 37.109375 39.84375 
Q 39.84375 43.359375 42.375 49.40625 
Q 44.921875 55.46875 44.328125 58.390625 
Q 43.75 61.328125 46.28125 60.546875 
Q 48.828125 59.765625 50.96875 57.8125 
Q 53.125 55.859375 51.171875 53.90625 
Q 49.21875 51.953125 48.046875 49.21875 
z
M 25.390625 46.484375 
Q 26.5625 45.3125 28.3125 42.578125 
Q 30.078125 39.84375 29.484375 29.484375 
Q 28.90625 19.140625 28.90625 11.328125 
Q 28.90625 3.515625 27.34375 -0.1875 
Q 25.78125 -3.90625 23.828125 0.96875 
Q 21.875 5.859375 23.046875 9.5625 
Q 24.21875 13.28125 25 25.96875 
Q 25.78125 38.671875 23.4375 44.140625 
Q 20.3125 39.84375 16.40625 35.9375 
Q 12.5 32.03125 8 29.09375 
Q 3.515625 26.171875 8.78125 32.03125 
Q 14.0625 37.890625 17.96875 43.9375 
Q 21.875 50 26.359375 59.375 
Q 30.859375 68.75 30.265625 72.453125 
Q 29.6875 76.171875 32.21875 74.796875 
Q 34.765625 73.4375 37.296875 71.484375 
Q 39.84375 69.53125 38.28125 67.96875 
Q 36.71875 66.40625 32.609375 59.171875 
Q 28.515625 51.953125 25.390625 46.484375 
z
" id="KaiTi-20214"/>
     <path d="M 50.78125 62.890625 
Q 54.296875 58.203125 53.3125 56.828125 
Q 52.34375 55.46875 52.34375 43.359375 
Q 62.109375 43.359375 68.15625 41.40625 
Q 74.21875 39.453125 75.1875 33.984375 
Q 76.171875 28.515625 66.984375 33.390625 
Q 57.8125 38.28125 52.34375 41.40625 
Q 52.734375 10.9375 51.5625 1.359375 
Q 50.390625 -8.203125 48.828125 -8.203125 
Q 47.65625 -8.203125 45.703125 -4.09375 
Q 43.75 0 44.53125 3.125 
Q 45.3125 6.25 46.09375 10.15625 
Q 46.875 14.0625 47.265625 36.328125 
Q 47.65625 58.59375 44.140625 62.109375 
Q 24.21875 58.984375 19.53125 58 
Q 14.84375 57.03125 10.9375 60.34375 
Q 7.03125 63.671875 11.125 63.46875 
Q 15.234375 63.28125 26.75 64.453125 
Q 38.28125 65.625 50.1875 67.375 
Q 62.109375 69.140625 73.4375 70.890625 
Q 84.765625 72.65625 88.671875 69.53125 
Q 92.578125 66.40625 91.40625 65.234375 
Q 90.234375 64.0625 83.390625 64.453125 
Q 76.5625 64.84375 70.3125 64.453125 
Q 64.0625 64.0625 50.78125 62.890625 
z
" id="KaiTi-19979"/>
     <path d="M 52.34375 57.03125 
Q 66.796875 59.375 70.109375 61.125 
Q 73.4375 62.890625 76.171875 61.328125 
Q 78.90625 59.765625 82.03125 57.609375 
Q 85.15625 55.46875 82.421875 53.515625 
Q 79.6875 51.5625 75.390625 38.671875 
Q 81.25 33.59375 73.828125 33.203125 
Q 66.40625 32.8125 51.953125 31.25 
Q 51.953125 1.5625 51.171875 -4.484375 
Q 50.390625 -10.546875 48.828125 -10.9375 
Q 47.265625 -11.328125 46.875 -3.3125 
Q 46.484375 4.6875 46.484375 30.859375 
Q 39.0625 30.46875 28.515625 28.90625 
Q 28.125 25 27.53125 23.828125 
Q 26.953125 22.65625 25.96875 23.4375 
Q 25 24.21875 24.21875 28.3125 
Q 23.4375 32.421875 21.671875 40.625 
Q 19.921875 48.828125 17.765625 52.140625 
Q 15.625 55.46875 17.96875 55.46875 
Q 20.3125 55.46875 22.84375 54.6875 
Q 25.390625 53.90625 32.21875 54.6875 
Q 39.0625 55.46875 46.484375 56.640625 
Q 46.484375 72.65625 43.9375 76.171875 
Q 41.40625 79.6875 45.3125 79.09375 
Q 49.21875 78.515625 52.734375 76.75 
Q 56.25 75 54.484375 72.84375 
Q 52.734375 70.703125 52.34375 57.03125 
z
M 51.953125 35.546875 
Q 60.546875 36.328125 70.703125 37.890625 
Q 71.875 44.921875 72.0625 49.21875 
Q 72.265625 53.515625 71.09375 55.078125 
Q 69.921875 56.640625 65.625 56.046875 
Q 61.328125 55.46875 52.34375 54.296875 
Q 51.953125 43.359375 51.953125 35.546875 
z
M 26.5625 51.171875 
Q 27.34375 41.796875 28.515625 32.421875 
Q 35.9375 33.203125 46.484375 34.765625 
L 46.484375 53.515625 
Q 32.03125 51.953125 26.5625 51.171875 
z
" id="KaiTi-20013"/>
     <path d="M 74.21875 5.46875 
Q 66.015625 6.25 55.859375 5.265625 
Q 45.703125 4.296875 37.890625 3.703125 
Q 30.078125 3.125 25 3.515625 
Q 22.265625 -6.640625 19.71875 -0.1875 
Q 17.1875 6.25 18.9375 11.125 
Q 20.703125 16.015625 21.09375 39.0625 
Q 21.484375 62.109375 18.75 66.015625 
Q 16.015625 69.921875 18.546875 69.71875 
Q 21.09375 69.53125 24.21875 68.75 
Q 27.34375 67.96875 38.671875 69.328125 
Q 50 70.703125 58.203125 72.0625 
Q 66.40625 73.4375 69.71875 74.609375 
Q 73.046875 75.78125 76.5625 74.609375 
Q 80.078125 73.4375 82.8125 70.890625 
Q 85.546875 68.359375 83.203125 65.234375 
Q 80.859375 62.109375 81.828125 36.90625 
Q 82.8125 11.71875 83.203125 6.25 
Q 83.59375 0.78125 81.25 -4.6875 
Q 78.90625 -10.15625 77.140625 -5.46875 
Q 75.390625 -0.78125 74.21875 5.46875 
z
M 25 6.640625 
Q 42.96875 7.8125 56.046875 9.375 
Q 69.140625 10.9375 75.390625 8.59375 
Q 76.953125 12.890625 76.171875 38.671875 
Q 75.390625 64.453125 73.828125 66.984375 
Q 72.265625 69.53125 67.375 69.140625 
Q 62.5 68.75 26.171875 64.84375 
Q 26.171875 37.109375 25 6.640625 
z
M 50.390625 53.515625 
Q 53.125 51.5625 52.53125 49.796875 
Q 51.953125 48.046875 51.5625 43.75 
Q 55.859375 44.53125 58.390625 45.109375 
Q 60.9375 45.703125 63.078125 43.75 
Q 65.234375 41.796875 60.9375 40.625 
Q 56.640625 39.453125 51.5625 38.671875 
L 51.171875 24.21875 
Q 59.375 25.390625 64.453125 26.359375 
Q 69.53125 27.34375 72.0625 24.40625 
Q 74.609375 21.484375 69.328125 21.671875 
Q 64.0625 21.875 57.421875 21.09375 
Q 50.78125 20.3125 46.28125 19.328125 
Q 41.796875 18.359375 37.5 17.578125 
Q 33.203125 16.796875 30.265625 19.328125 
Q 27.34375 21.875 31.640625 21.875 
Q 36.328125 21.875 46.875 23.828125 
L 46.875 37.890625 
Q 39.453125 37.5 37.109375 38.859375 
Q 34.765625 40.234375 38.28125 41.015625 
Q 41.796875 41.796875 46.875 42.96875 
Q 46.875 48.828125 45.703125 52.734375 
Q 39.0625 52.34375 36.125 53.703125 
Q 33.203125 55.078125 36.71875 55.65625 
Q 40.234375 56.25 47.453125 58 
Q 54.6875 59.765625 58.203125 60.734375 
Q 61.71875 61.71875 64.0625 60.15625 
Q 66.40625 58.59375 63.28125 57.03125 
Q 60.15625 55.46875 50.390625 53.515625 
z
M 64.0625 29.296875 
Q 60.9375 31.640625 58.984375 34.765625 
Q 57.03125 37.890625 60.546875 37.296875 
Q 64.0625 36.71875 66.40625 34.765625 
Q 68.75 32.8125 68.15625 29.875 
Q 67.578125 26.953125 64.0625 29.296875 
z
" id="KaiTi-22269"/>
     <path d="M 50.390625 66.796875 
Q 56.25 63.28125 54.875 61.71875 
Q 53.515625 60.15625 53.515625 38.671875 
Q 76.171875 41.015625 82.21875 41.40625 
Q 88.28125 41.796875 91.40625 39.0625 
Q 94.53125 36.328125 92.375 35.34375 
Q 90.234375 34.375 83.984375 34.765625 
Q 77.734375 35.15625 69.140625 35.34375 
Q 60.546875 35.546875 53.515625 34.765625 
Q 53.90625 11.328125 52.53125 0.96875 
Q 51.171875 -9.375 49.609375 -10.734375 
Q 48.046875 -12.109375 48.046875 -2.734375 
L 48.046875 34.375 
Q 31.25 32.8125 24.796875 31.4375 
Q 18.359375 30.078125 15.234375 29.875 
Q 12.109375 29.6875 8.78125 32.609375 
Q 5.46875 35.546875 10.15625 35.34375 
Q 14.84375 35.15625 48.046875 38.28125 
Q 48.046875 61.71875 46.875 66.015625 
Q 44.921875 66.40625 41.40625 66.40625 
Q 38.28125 66.40625 35.34375 67.96875 
Q 32.421875 69.53125 35.9375 70.109375 
Q 39.453125 70.703125 43.546875 71.28125 
Q 47.65625 71.875 51.953125 72.84375 
Q 56.25 73.828125 62.109375 74.609375 
Q 67.96875 75.390625 69.71875 73.234375 
Q 71.484375 71.09375 65.03125 69.328125 
Q 58.59375 67.578125 50.390625 66.796875 
z
M 66.40625 59.765625 
Q 65.625 62.890625 72.265625 59.171875 
Q 78.90625 55.46875 74.796875 53.703125 
Q 70.703125 51.953125 67.375 49.015625 
Q 64.0625 46.09375 59.5625 43.15625 
Q 55.078125 40.234375 59.171875 45.3125 
Q 63.28125 50.390625 65.234375 53.703125 
Q 67.1875 57.03125 66.40625 59.765625 
z
M 27.734375 53.90625 
Q 26.5625 57.421875 31.640625 54.484375 
Q 36.71875 51.5625 37.109375 47.65625 
Q 37.5 43.75 35.34375 42.765625 
Q 33.203125 41.796875 31.25 46.09375 
Q 29.296875 50.390625 27.734375 53.90625 
z
" id="KaiTi-24179"/>
     <path d="M 57.421875 33.59375 
Q 56.640625 37.5 58.203125 37.109375 
Q 59.765625 36.71875 62.890625 34.375 
Q 80.46875 35.9375 84.953125 36.515625 
Q 89.453125 37.109375 92.1875 35.34375 
Q 94.921875 33.59375 95.3125 31.4375 
Q 95.703125 29.296875 90.625 30.46875 
Q 85.546875 31.640625 63.28125 30.46875 
Q 61.328125 23.046875 57.03125 14.84375 
Q 73.828125 6.640625 76.359375 2.34375 
Q 78.90625 -1.953125 77.921875 -4.875 
Q 76.953125 -7.8125 72.453125 -2.921875 
Q 67.96875 1.953125 54.296875 11.328125 
Q 46.875 3.125 38.46875 0.78125 
Q 30.078125 -1.5625 26.171875 -1.171875 
Q 22.265625 -0.78125 27.140625 0.390625 
Q 32.03125 1.5625 37.890625 4.484375 
Q 43.75 7.421875 49.609375 13.671875 
Q 39.84375 18.359375 38.078125 18.546875 
Q 36.328125 18.75 37.5 21.28125 
Q 38.671875 23.828125 40.625 28.125 
Q 23.046875 26.5625 17.578125 25.578125 
Q 12.109375 24.609375 9.953125 25.78125 
Q 7.8125 26.953125 6.4375 28.703125 
Q 5.078125 30.46875 8.59375 30.078125 
Q 12.109375 29.6875 21.09375 30.265625 
Q 30.078125 30.859375 42.1875 32.421875 
Q 44.921875 38.671875 45.703125 42.578125 
Q 46.484375 46.484375 46.09375 48.046875 
Q 45.703125 49.609375 47.453125 48.828125 
Q 49.21875 48.046875 51.5625 46.28125 
Q 53.90625 44.53125 52.34375 42.375 
Q 50.78125 40.234375 47.265625 32.8125 
Q 53.515625 33.203125 57.421875 33.59375 
z
M 30.078125 53.90625 
Q 29.6875 49.609375 26.359375 44.71875 
Q 23.046875 39.84375 21.28125 43.359375 
Q 19.53125 46.875 22.84375 51.359375 
Q 26.171875 55.859375 26.953125 60.15625 
Q 27.734375 64.453125 28.90625 61.90625 
Q 30.078125 59.375 30.859375 56.640625 
Q 36.328125 57.03125 43.9375 58.203125 
Q 51.5625 59.375 59.375 60.734375 
Q 67.1875 62.109375 69.71875 63.28125 
Q 72.265625 64.453125 75.96875 62.5 
Q 79.6875 60.546875 82.421875 57.609375 
Q 85.15625 54.6875 80.265625 53.90625 
Q 75.390625 53.125 69.328125 49.796875 
Q 63.28125 46.484375 67.765625 52.53125 
Q 72.265625 58.59375 69.921875 58.78125 
Q 67.578125 58.984375 55.265625 57.21875 
Q 42.96875 55.46875 30.078125 53.90625 
z
M 57.03125 30.078125 
Q 51.953125 29.6875 44.921875 28.90625 
Q 39.84375 20.3125 42.1875 19.921875 
Q 44.53125 19.53125 51.5625 16.796875 
Q 54.6875 21.484375 57.03125 30.078125 
z
M 44.140625 72.265625 
Q 40.625 76.171875 44.53125 76.171875 
Q 48.828125 76.171875 52.53125 74.796875 
Q 56.25 73.4375 56.640625 70.109375 
Q 57.03125 66.796875 56.046875 65.8125 
Q 55.078125 64.84375 51.5625 66.796875 
Q 48.046875 68.75 44.140625 72.265625 
z
" id="KaiTi-23433"/>
     <path d="M 20.3125 47.65625 
Q 29.6875 49.21875 32.421875 51.5625 
Q 35.15625 53.90625 38.078125 52.53125 
Q 41.015625 51.171875 43.359375 49.609375 
Q 45.703125 48.046875 44.328125 45.890625 
Q 42.96875 43.75 42.1875 40.234375 
Q 41.40625 36.71875 41.796875 27.34375 
Q 42.1875 17.96875 41.203125 13.28125 
Q 40.234375 8.59375 39.0625 6.046875 
Q 37.890625 3.515625 36.515625 6.046875 
Q 35.15625 8.59375 33.984375 10.734375 
Q 32.8125 12.890625 31.4375 13.078125 
Q 30.078125 13.28125 20.3125 11.71875 
Q 18.75 3.125 16.984375 6.640625 
Q 15.234375 10.15625 15.234375 16.40625 
Q 15.234375 22.65625 14.84375 32.03125 
Q 14.453125 41.40625 12.109375 44.921875 
Q 9.765625 48.4375 11.71875 48.4375 
Q 13.671875 48.4375 17.1875 47.65625 
Q 20.703125 52.34375 24.40625 60.34375 
Q 28.125 68.359375 26.75 72.265625 
Q 25.390625 76.171875 31.25 73.4375 
Q 38.28125 70.3125 35.734375 68.15625 
Q 33.203125 66.015625 30.078125 61.328125 
Q 26.953125 56.640625 20.3125 47.65625 
z
M 59.375 51.171875 
Q 73.4375 51.953125 76.171875 53.90625 
Q 78.90625 55.859375 82.21875 54.484375 
Q 85.546875 53.125 87.6875 50.96875 
Q 89.84375 48.828125 87.890625 46.875 
Q 85.9375 44.921875 85.15625 36.71875 
Q 84.375 28.515625 83.78125 20.3125 
Q 83.203125 12.109375 80.46875 6.4375 
Q 77.734375 0.78125 72.65625 -2.140625 
Q 67.578125 -5.078125 67.1875 -0.78125 
Q 66.796875 3.515625 62.296875 8.59375 
Q 57.8125 13.671875 62.6875 11.125 
Q 67.578125 8.59375 70.5 8 
Q 73.4375 7.421875 75.578125 12.5 
Q 77.734375 17.578125 78.515625 26.75 
Q 79.296875 35.9375 79.296875 42.1875 
Q 79.296875 48.4375 77.734375 49.40625 
Q 76.171875 50.390625 71.09375 49.21875 
L 63.28125 47.265625 
Q 60.9375 46.875 58.203125 49.21875 
Q 51.5625 42.1875 46.09375 38.671875 
Q 40.625 35.15625 46.875 42.1875 
Q 53.125 49.21875 58.390625 59.375 
Q 63.671875 69.53125 62.296875 73.625 
Q 60.9375 77.734375 64.84375 76.5625 
Q 68.75 75.390625 70.890625 73.828125 
Q 73.046875 72.265625 71.28125 70.3125 
Q 69.53125 68.359375 66.984375 63.28125 
Q 64.453125 58.203125 59.375 51.171875 
z
M 19.53125 30.859375 
Q 24.609375 31.640625 26.5625 32.609375 
Q 28.515625 33.59375 30.65625 31.828125 
Q 32.8125 30.078125 29.09375 28.703125 
Q 25.390625 27.34375 19.53125 27.34375 
L 19.921875 14.84375 
Q 23.4375 15.234375 26.953125 16.59375 
Q 30.46875 17.96875 32.21875 16.203125 
Q 33.984375 14.453125 34.953125 16.984375 
Q 35.9375 19.53125 36.125 31.25 
Q 36.328125 42.96875 35.15625 44.71875 
Q 33.984375 46.484375 31.4375 46.28125 
Q 28.90625 46.09375 19.140625 44.140625 
L 19.53125 30.859375 
z
M 58.203125 26.171875 
Q 53.125 33.203125 52.140625 35.15625 
Q 51.171875 37.109375 55.859375 35.734375 
Q 60.546875 34.375 62.890625 31.25 
Q 65.234375 28.125 64.25 23.828125 
Q 63.28125 19.53125 58.203125 26.171875 
z
" id="KaiTi-30340"/>
     <path d="M 41.796875 57.421875 
Q 56.25 59.375 64.453125 62.5 
Q 72.65625 65.625 75.96875 63.28125 
Q 79.296875 60.9375 72.84375 58.984375 
Q 66.40625 57.03125 56.25 55.078125 
Q 46.09375 53.125 41.40625 55.46875 
Q 39.84375 48.046875 37.5 36.71875 
Q 65.625 41.015625 70.109375 42.765625 
Q 74.609375 44.53125 77.34375 43.359375 
Q 80.078125 42.1875 83 40.234375 
Q 85.9375 38.28125 83.78125 34.953125 
Q 81.640625 31.640625 81.4375 24.609375 
Q 81.25 17.578125 79.296875 8.390625 
Q 77.34375 -0.78125 71.875 -5.46875 
Q 66.40625 -10.15625 65.421875 -6.828125 
Q 64.453125 -3.515625 59.375 0.78125 
Q 54.296875 5.078125 57.8125 3.90625 
Q 61.328125 2.734375 65.234375 1.953125 
Q 69.140625 1.171875 71.671875 5.265625 
Q 74.21875 9.375 75.390625 23.4375 
Q 76.5625 37.5 73.046875 37.890625 
Q 69.53125 38.28125 53.90625 35.9375 
Q 38.28125 33.59375 34.765625 31.640625 
Q 31.25 29.6875 30.265625 33.390625 
Q 29.296875 37.109375 31.640625 39.453125 
Q 33.984375 41.796875 35.546875 50.578125 
Q 37.109375 59.375 37.6875 66.203125 
Q 38.28125 73.046875 36.71875 76.171875 
Q 35.15625 79.296875 38.28125 78.703125 
Q 41.40625 78.125 44.140625 76.359375 
Q 46.875 74.609375 45.3125 72.453125 
Q 43.75 70.3125 41.796875 57.421875 
z
M 59.765625 18.75 
Q 55.46875 18.75 46.671875 17.96875 
Q 37.890625 17.1875 30.65625 16.015625 
Q 23.4375 14.84375 19.921875 14.453125 
Q 16.40625 14.0625 12.6875 16.796875 
Q 8.984375 19.53125 14.453125 19.53125 
Q 20.3125 19.53125 32.8125 20.890625 
Q 45.3125 22.265625 52.734375 24.015625 
Q 60.15625 25.78125 63.859375 23.4375 
Q 67.578125 21.09375 65.8125 20.109375 
Q 64.0625 19.140625 59.765625 18.75 
z
" id="KaiTi-19982"/>
     <path d="M 45.3125 41.015625 
Q 46.484375 36.71875 45.890625 34.171875 
Q 45.3125 31.640625 45.3125 14.84375 
Q 49.609375 16.40625 51.953125 15.8125 
Q 54.296875 15.234375 45.3125 10.9375 
Q 45.3125 3.90625 45.5 0 
Q 45.703125 -3.90625 44.140625 -8.59375 
Q 42.578125 -13.28125 41.203125 -8.390625 
Q 39.84375 -3.515625 40.234375 -0.390625 
Q 40.625 2.734375 40.625 8.984375 
Q 32.8125 5.859375 28.3125 4.296875 
Q 23.828125 2.734375 21.09375 0.96875 
Q 18.359375 -0.78125 16.796875 0 
Q 15.234375 0.78125 13.28125 3.3125 
Q 11.328125 5.859375 15.03125 6.046875 
Q 18.75 6.25 24.609375 7.8125 
Q 24.609375 14.84375 24.015625 24.609375 
Q 23.4375 34.375 21.875 37.109375 
Q 17.96875 36.71875 16.59375 36.328125 
Q 15.234375 35.9375 12.109375 38.078125 
Q 8.984375 40.234375 10.15625 40.234375 
Q 11.71875 40.234375 16.984375 40.8125 
Q 22.265625 41.40625 33.203125 42.96875 
Q 44.140625 44.53125 57.8125 47.0625 
Q 71.484375 49.609375 75.390625 50.578125 
Q 79.296875 51.5625 82.421875 49.609375 
Q 85.546875 47.65625 82.421875 46.671875 
Q 79.296875 45.703125 73.828125 44.921875 
Q 68.359375 44.140625 59.953125 42.96875 
Q 51.5625 41.796875 45.3125 41.015625 
z
M 60.546875 54.296875 
Q 46.484375 52.34375 39.84375 51.5625 
Q 38.28125 47.265625 36.71875 51.359375 
Q 35.15625 55.46875 33.203125 62.296875 
Q 31.25 69.140625 29.09375 71.875 
Q 26.953125 74.609375 30.859375 74.015625 
Q 34.765625 73.4375 36.71875 73.234375 
Q 38.671875 73.046875 46.09375 74.015625 
Q 53.515625 75 58.203125 76.171875 
Q 62.890625 77.34375 64.640625 77.921875 
Q 66.40625 78.515625 71.875 75 
Q 77.34375 71.484375 75.1875 69.921875 
Q 73.046875 68.359375 71.875 66.40625 
Q 70.703125 64.453125 67.578125 58.984375 
Q 64.453125 53.515625 63.078125 52.140625 
Q 61.71875 50.78125 60.546875 54.296875 
z
M 67.1875 14.453125 
Q 71.875 9.375 78.703125 6.046875 
Q 85.546875 2.734375 90.8125 1.953125 
Q 96.09375 1.171875 94.328125 0 
Q 92.578125 -1.171875 84.375 -1.75 
Q 76.171875 -2.34375 73.4375 0 
Q 70.703125 2.34375 63.671875 9.765625 
Q 60.546875 6.25 57.03125 4.6875 
Q 53.515625 3.125 50 2.734375 
Q 46.484375 2.34375 49.609375 3.90625 
Q 52.734375 5.46875 55.65625 7.609375 
Q 58.59375 9.765625 60.9375 14.0625 
Q 58.59375 17.1875 55.859375 20.890625 
Q 53.125 24.609375 51.171875 25.78125 
Q 49.21875 26.953125 51.953125 26.953125 
Q 55.078125 26.953125 57.03125 24.609375 
L 62.890625 17.578125 
Q 64.84375 23.828125 65.234375 27.734375 
Q 65.625 31.640625 64.0625 31.640625 
Q 62.5 31.640625 58.78125 30.265625 
Q 55.078125 28.90625 53.515625 28.90625 
Q 52.34375 28.90625 50.390625 30.46875 
Q 48.4375 32.03125 51.359375 32.21875 
Q 54.296875 32.421875 59.765625 33.984375 
Q 65.234375 35.546875 66.984375 36.71875 
Q 68.75 37.890625 72.0625 35.546875 
Q 75.390625 33.203125 74.015625 32.03125 
Q 72.65625 30.859375 71.671875 29.09375 
Q 70.703125 27.34375 69.53125 22.65625 
Q 68.359375 17.96875 67.1875 14.453125 
z
M 37.109375 69.921875 
Q 37.5 67.578125 37.890625 64.84375 
Q 42.96875 64.84375 48.828125 66.59375 
Q 54.6875 68.359375 56.640625 66.40625 
Q 58.59375 64.453125 51.953125 63.078125 
Q 45.3125 61.71875 38.28125 62.5 
Q 38.671875 57.8125 39.453125 54.296875 
Q 43.75 54.6875 50.390625 55.859375 
Q 57.03125 57.03125 62.109375 57.421875 
Q 65.234375 67.1875 65.234375 70.3125 
Q 65.234375 73.828125 61.328125 73.625 
Q 57.421875 73.4375 37.109375 69.921875 
z
M 33.59375 22.65625 
Q 35.9375 23.4375 37.5 22.265625 
Q 39.0625 21.09375 36.515625 19.71875 
Q 33.984375 18.359375 28.90625 18.359375 
L 28.90625 8.984375 
Q 33.59375 10.15625 40.625 12.890625 
L 40.625 30.46875 
Q 40.625 36.328125 39.453125 39.84375 
Q 32.421875 38.671875 25.78125 37.890625 
Q 29.6875 35.15625 29.296875 33.984375 
Q 28.90625 32.8125 28.90625 30.078125 
Q 32.03125 31.25 33.984375 32.03125 
Q 35.9375 32.8125 37.6875 31.25 
Q 39.453125 29.6875 36.71875 28.515625 
Q 33.984375 27.34375 28.90625 27.34375 
L 28.90625 21.09375 
z
" id="KaiTi-26368"/>
     <path d="M 57.421875 47.65625 
Q 67.1875 50 71.09375 51.359375 
Q 75 52.734375 78.90625 50 
Q 82.8125 47.265625 75.390625 46.09375 
Q 67.96875 44.921875 57.03125 42.96875 
Q 55.078125 33.984375 52.34375 26.75 
Q 49.609375 19.53125 45.109375 13.859375 
Q 40.625 8.203125 34.953125 5.859375 
Q 29.296875 3.515625 32.21875 6.25 
Q 35.15625 8.984375 39.0625 13.28125 
Q 42.96875 17.578125 46.484375 25.578125 
Q 50 33.59375 51.171875 42.1875 
L 41.015625 39.84375 
Q 37.890625 39.0625 34.765625 41.40625 
Q 31.640625 43.75 36.90625 44.140625 
Q 42.1875 44.53125 51.953125 46.875 
Q 54.296875 67.1875 51.75 70.890625 
Q 49.21875 74.609375 52.53125 74.015625 
Q 55.859375 73.4375 58.78125 71.875 
Q 61.71875 70.3125 60.34375 67.96875 
Q 58.984375 65.625 57.421875 47.65625 
z
M 25.78125 47.265625 
Q 30.859375 43.359375 30.265625 40.234375 
Q 29.6875 37.109375 29.09375 19.53125 
Q 28.515625 1.953125 26.953125 -0.578125 
Q 25.390625 -3.125 23.234375 1.171875 
Q 21.09375 5.46875 22.65625 9.5625 
Q 24.21875 13.671875 24.796875 19.921875 
Q 25.390625 26.171875 25.390625 33.203125 
Q 25.390625 40.625 24.21875 45.3125 
Q 21.484375 41.40625 16.984375 36.90625 
Q 12.5 32.421875 8 30.265625 
Q 3.515625 28.125 6.4375 31.046875 
Q 9.375 33.984375 13.28125 38.46875 
Q 17.1875 42.96875 21.671875 50.1875 
Q 26.171875 57.421875 28.703125 63.859375 
Q 31.25 70.3125 31.046875 73.4375 
Q 30.859375 76.5625 33.59375 75.1875 
Q 36.328125 73.828125 38.078125 71.875 
Q 39.84375 69.921875 38.859375 68.9375 
Q 37.890625 67.96875 34.375 62.296875 
Q 30.859375 56.640625 25.78125 47.265625 
z
M 63.671875 38.28125 
Q 64.453125 37.109375 63.671875 33.984375 
Q 62.890625 30.859375 62.5 25.578125 
Q 62.109375 20.3125 62.5 15.03125 
Q 62.890625 9.765625 66.203125 8 
Q 69.53125 6.25 73.4375 6.25 
Q 77.34375 6.25 82.03125 7.421875 
Q 86.71875 8.59375 88.28125 16.984375 
Q 89.84375 25.390625 90.03125 21.875 
Q 90.234375 18.359375 90.625 15.03125 
Q 91.015625 11.71875 92.578125 8 
Q 94.140625 4.296875 86.125 1.953125 
Q 78.125 -0.390625 70.5 0.578125 
Q 62.890625 1.5625 60.546875 5.859375 
Q 58.203125 10.15625 58.78125 23.046875 
Q 59.375 35.9375 57.609375 39.0625 
Q 55.859375 42.1875 59.375 41.015625 
Q 62.890625 39.84375 63.671875 38.28125 
z
M 74.21875 59.765625 
Q 69.53125 62.890625 66.984375 65.625 
Q 64.453125 68.359375 71.671875 67.1875 
Q 78.90625 66.015625 78.90625 61.328125 
Q 78.90625 56.640625 74.21875 59.765625 
z
" id="KaiTi-20248"/>
     <path d="M 49.609375 12.890625 
L 58.984375 14.453125 
Q 63.671875 15.234375 66.015625 13.078125 
Q 68.359375 10.9375 63.078125 10.15625 
Q 57.8125 9.375 49.609375 8.59375 
L 49.21875 1.171875 
Q 69.140625 2.734375 73.625 3.125 
Q 78.125 3.515625 81.640625 1.359375 
Q 85.15625 -0.78125 84.953125 -2.140625 
Q 84.765625 -3.515625 77.53125 -2.921875 
Q 70.3125 -2.34375 62.890625 -2.53125 
Q 55.46875 -2.734375 50.390625 -3.125 
Q 45.3125 -3.515625 36.328125 -4.484375 
Q 27.34375 -5.46875 23.625 -5.859375 
Q 19.921875 -6.25 16.40625 -4.09375 
Q 12.890625 -1.953125 16.796875 -1.953125 
Q 20.703125 -1.953125 28.125 -1.359375 
Q 35.546875 -0.78125 45.3125 0.78125 
L 45.3125 8.203125 
Q 37.890625 7.421875 35.15625 7.03125 
Q 32.421875 6.640625 29.484375 8.78125 
Q 26.5625 10.9375 31.25 11.125 
Q 35.9375 11.328125 45.3125 12.5 
L 45.3125 19.140625 
Q 41.015625 18.75 35.9375 17.96875 
Q 33.984375 14.84375 32.609375 17.375 
Q 31.25 19.921875 29.6875 26.171875 
Q 28.125 32.421875 25.78125 35.546875 
Q 23.4375 38.671875 25.78125 38.671875 
Q 28.515625 38.671875 30.65625 38.078125 
Q 32.8125 37.5 45.109375 38.859375 
Q 57.421875 40.234375 59.953125 41.796875 
Q 62.5 43.359375 66.203125 41.40625 
Q 69.921875 39.453125 71.875 37.6875 
Q 73.828125 35.9375 71.671875 33.78125 
Q 69.53125 31.640625 67.1875 27.140625 
Q 64.84375 22.65625 63.078125 19.921875 
Q 61.328125 17.1875 60.15625 20.703125 
Q 55.46875 19.921875 50 19.140625 
z
M 39.84375 53.90625 
Q 38.28125 50 36.125 54.875 
Q 33.984375 59.765625 32.03125 64.640625 
Q 30.078125 69.53125 28.515625 71.875 
Q 26.953125 74.21875 28.515625 74.40625 
Q 30.078125 74.609375 33.203125 74.015625 
Q 36.328125 73.4375 47.453125 75 
Q 58.59375 76.5625 60.546875 77.734375 
Q 62.5 78.90625 65.421875 77.734375 
Q 68.359375 76.5625 71.28125 74.609375 
Q 74.21875 72.65625 72.265625 70.890625 
Q 70.3125 69.140625 68.15625 65.421875 
Q 66.015625 61.71875 62.890625 56.828125 
Q 59.765625 51.953125 58.59375 55.859375 
z
M 7.421875 42.1875 
Q 3.515625 44.921875 7.421875 45.109375 
Q 11.328125 45.3125 17.765625 45.703125 
Q 24.21875 46.09375 35.734375 47.265625 
Q 47.265625 48.4375 59.765625 49.40625 
Q 72.265625 50.390625 78.703125 51.5625 
Q 85.15625 52.734375 88.671875 50.96875 
Q 92.1875 49.21875 92.578125 47.65625 
Q 92.96875 46.09375 86.328125 46.484375 
Q 79.6875 46.875 71.28125 46.484375 
Q 62.890625 46.09375 52.921875 45.109375 
Q 42.96875 44.140625 33.59375 43.15625 
Q 24.21875 42.1875 17.96875 40.8125 
Q 11.71875 39.453125 7.421875 42.1875 
z
M 37.5 65.234375 
Q 43.75 66.015625 47.84375 67.578125 
Q 51.953125 69.140625 54.296875 67.1875 
Q 56.640625 65.234375 50.1875 64.0625 
Q 43.75 62.890625 38.28125 62.5 
L 39.453125 56.25 
Q 52.734375 58.59375 58.59375 58.984375 
Q 60.546875 65.234375 60.9375 68.9375 
Q 61.328125 72.65625 60.546875 73.4375 
Q 59.765625 74.21875 51.953125 73.4375 
Q 44.140625 72.65625 36.328125 71.09375 
L 37.5 65.234375 
z
M 50 32.03125 
Q 51.953125 32.421875 54.296875 32.8125 
Q 56.640625 33.203125 57.609375 31.4375 
Q 58.59375 29.6875 55.65625 28.90625 
Q 52.734375 28.125 50 28.125 
L 50 22.65625 
Q 52.734375 23.046875 54.6875 23.234375 
Q 56.640625 23.4375 60.546875 23.4375 
Q 62.890625 32.03125 62.890625 34.765625 
Q 62.890625 37.5 61.71875 38.078125 
Q 60.546875 38.671875 48.828125 37.109375 
Q 51.171875 35.15625 50 32.03125 
z
M 45.3125 27.34375 
Q 39.84375 26.5625 37.6875 27.921875 
Q 35.546875 29.296875 37.890625 29.6875 
Q 40.234375 30.078125 44.53125 31.25 
Q 44.53125 33.59375 44.140625 36.328125 
L 33.203125 35.15625 
Q 33.984375 28.125 35.9375 21.09375 
L 45.3125 22.265625 
z
" id="KaiTi-37327"/>
    </defs>
    <g transform="translate(107.115625 16.95)scale(0.12 -0.12)">
     <use xlink:href="#KaiTi-24773"/>
     <use x="100" xlink:href="#KaiTi-26223"/>
     <use x="200" xlink:href="#KaiTi-49"/>
     <use x="250" xlink:href="#KaiTi-26465"/>
     <use x="350" xlink:href="#KaiTi-20214"/>
     <use x="450" xlink:href="#KaiTi-19979"/>
     <use x="550" xlink:href="#KaiTi-20013"/>
     <use x="650" xlink:href="#KaiTi-22269"/>
     <use x="750" xlink:href="#KaiTi-24179"/>
     <use x="850" xlink:href="#KaiTi-23433"/>
     <use x="950" xlink:href="#KaiTi-30340"/>
     <use x="1050" xlink:href="#KaiTi-32929"/>
     <use x="1150" xlink:href="#KaiTi-20215"/>
     <use x="1250" xlink:href="#KaiTi-19982"/>
     <use x="1350" xlink:href="#KaiTi-26368"/>
     <use x="1450" xlink:href="#KaiTi-20248"/>
     <use x="1550" xlink:href="#KaiTi-32929"/>
     <use x="1650" xlink:href="#KaiTi-31080"/>
     <use x="1750" xlink:href="#KaiTi-25968"/>
     <use x="1850" xlink:href="#KaiTi-37327"/>
    </g>
   </g>
  </g>
 </g>
 <defs>
  <clipPath id="p2edb178c33">
   <rect height="217.44" width="334.8" x="56.715625" y="22.95"/>
  </clipPath>
 </defs>
</svg>
