<?xml version="1.0" encoding="utf-8" standalone="no"?>
<!DOCTYPE svg PUBLIC "-//W3C//DTD SVG 1.1//EN"
  "http://www.w3.org/Graphics/SVG/1.1/DTD/svg11.dtd">
<!-- Created with matplotlib (https://matplotlib.org/) -->
<svg height="284.441562pt" version="1.1" viewBox="0 0 408.10625 284.441562" width="408.10625pt" xmlns="http://www.w3.org/2000/svg" xmlns:xlink="http://www.w3.org/1999/xlink">
 <defs>
  <style type="text/css">
*{stroke-linecap:butt;stroke-linejoin:round;}
  </style>
 </defs>
 <g id="figure_1">
  <g id="patch_1">
   <path d="M 0 284.441562 
L 408.10625 284.441562 
L 408.10625 0 
L 0 0 
z
" style="fill:none;"/>
  </g>
  <g id="axes_1">
   <g id="patch_2">
    <path d="M 66.10625 241.850937 
L 400.90625 241.850937 
L 400.90625 24.410937 
L 66.10625 24.410937 
z
" style="fill:#ffffff;"/>
   </g>
   <g id="matplotlib.axis_1">
    <g id="xtick_1">
     <g id="line2d_1">
      <path clip-path="url(#p5501d0ba33)" d="M 81.324432 241.850937 
L 81.324432 24.410937 
" style="fill:none;stroke:#b0b0b0;stroke-linecap:square;stroke-width:0.8;"/>
     </g>
     <g id="line2d_2">
      <defs>
       <path d="M 0 0 
L 0 3.5 
" id="m9b1d9bff72" style="stroke:#000000;stroke-width:0.8;"/>
      </defs>
      <g>
       <use style="stroke:#000000;stroke-width:0.8;" x="81.324432" xlink:href="#m9b1d9bff72" y="241.850937"/>
      </g>
     </g>
     <g id="text_1">
      <!-- 10 -->
      <defs>
       <path d="M 21.875 56.25 
Q 16.796875 51.171875 8.984375 46.484375 
L 8.984375 53.90625 
Q 18.75 60.546875 25 69.53125 
L 29.6875 69.53125 
L 29.6875 2.34375 
L 21.875 2.34375 
z
" id="KaiTi-49"/>
       <path d="M 3.125 29.296875 
Q 3.90625 50 6.4375 56.046875 
Q 8.984375 62.109375 13.671875 66.015625 
Q 18.359375 69.921875 25.1875 69.921875 
Q 32.03125 69.921875 37.109375 64.25 
Q 42.1875 58.59375 43.75 50 
Q 45.3125 41.40625 44.71875 30.265625 
Q 44.140625 19.140625 40.8125 12.109375 
Q 37.5 5.078125 30.859375 2.34375 
Q 24.21875 -0.390625 17.578125 2.921875 
Q 10.9375 6.25 8.203125 11.71875 
Q 5.46875 17.1875 4.296875 23.234375 
Q 3.125 29.296875 3.90625 50 
z
M 12.890625 52.734375 
Q 10.546875 31.25 12.5 22.84375 
Q 14.453125 14.453125 18.9375 10.9375 
Q 23.4375 7.421875 28.125 9.5625 
Q 32.8125 11.71875 34.953125 18.15625 
Q 37.109375 24.609375 37.109375 32.21875 
Q 37.109375 39.84375 36.515625 46.09375 
Q 35.9375 52.34375 33 57.421875 
Q 30.078125 62.5 25.1875 62.6875 
Q 20.3125 62.890625 16.59375 57.8125 
Q 12.890625 52.734375 10.546875 31.25 
z
" id="KaiTi-48"/>
      </defs>
      <g transform="translate(74.324432 258.475937)scale(0.14 -0.14)">
       <use xlink:href="#KaiTi-49"/>
       <use x="50" xlink:href="#KaiTi-48"/>
      </g>
     </g>
    </g>
    <g id="xtick_2">
     <g id="line2d_3">
      <path clip-path="url(#p5501d0ba33)" d="M 119.369886 241.850937 
L 119.369886 24.410937 
" style="fill:none;stroke:#b0b0b0;stroke-linecap:square;stroke-width:0.8;"/>
     </g>
     <g id="line2d_4">
      <g>
       <use style="stroke:#000000;stroke-width:0.8;" x="119.369886" xlink:href="#m9b1d9bff72" y="241.850937"/>
      </g>
     </g>
     <g id="text_2">
      <!-- 15 -->
      <defs>
       <path d="M 8.59375 20.703125 
Q 11.328125 10.15625 17.96875 8.984375 
Q 24.609375 7.8125 28.703125 10.34375 
Q 32.8125 12.890625 34.5625 16.984375 
Q 36.328125 21.09375 36.125 26.171875 
Q 35.9375 31.25 33.390625 34.765625 
Q 30.859375 38.28125 26.953125 39.453125 
Q 23.046875 40.625 18.15625 39.453125 
Q 13.28125 38.28125 10.15625 33.984375 
L 3.515625 34.765625 
Q 4.296875 37.109375 10.9375 68.359375 
L 41.796875 68.359375 
L 41.796875 61.328125 
L 16.796875 61.328125 
Q 14.84375 50.78125 12.890625 44.53125 
Q 18.75 47.265625 23.828125 47.0625 
Q 28.90625 46.875 33.59375 44.71875 
Q 38.28125 42.578125 40.421875 38.859375 
Q 42.578125 35.15625 43.546875 31.4375 
Q 44.53125 27.734375 44.328125 23.4375 
Q 44.140625 19.140625 42.578125 14.640625 
Q 41.015625 10.15625 37.890625 7.21875 
Q 34.765625 4.296875 30.265625 2.53125 
Q 25.78125 0.78125 19.921875 1.171875 
Q 14.0625 1.5625 8.78125 5.46875 
Q 3.515625 9.375 1.5625 18.75 
z
" id="KaiTi-53"/>
      </defs>
      <g transform="translate(112.369886 258.475937)scale(0.14 -0.14)">
       <use xlink:href="#KaiTi-49"/>
       <use x="50" xlink:href="#KaiTi-53"/>
      </g>
     </g>
    </g>
    <g id="xtick_3">
     <g id="line2d_5">
      <path clip-path="url(#p5501d0ba33)" d="M 157.415341 241.850937 
L 157.415341 24.410937 
" style="fill:none;stroke:#b0b0b0;stroke-linecap:square;stroke-width:0.8;"/>
     </g>
     <g id="line2d_6">
      <g>
       <use style="stroke:#000000;stroke-width:0.8;" x="157.415341" xlink:href="#m9b1d9bff72" y="241.850937"/>
      </g>
     </g>
     <g id="text_3">
      <!-- 20 -->
      <defs>
       <path d="M 4.6875 3.90625 
Q 5.078125 9.765625 10.15625 14.453125 
Q 15.234375 19.140625 23.046875 29.09375 
Q 30.859375 39.0625 33.203125 44.53125 
Q 35.546875 50 34.953125 53.90625 
Q 34.375 57.8125 31.25 60.34375 
Q 28.125 62.890625 24.015625 62.5 
Q 19.921875 62.109375 16.203125 59.375 
Q 12.5 56.640625 10.546875 51.171875 
L 3.125 52.34375 
Q 6.25 61.328125 11.125 65.421875 
Q 16.015625 69.53125 22.65625 69.921875 
Q 26.5625 70.3125 29.6875 69.71875 
Q 32.8125 69.140625 36.125 66.984375 
Q 39.453125 64.84375 41.59375 60.546875 
Q 43.75 56.25 43.15625 50.1875 
Q 42.578125 44.140625 37.109375 35.734375 
Q 31.640625 27.34375 16.015625 9.375 
L 44.140625 9.375 
L 44.140625 2.34375 
L 4.6875 2.34375 
z
" id="KaiTi-50"/>
      </defs>
      <g transform="translate(150.415341 258.475937)scale(0.14 -0.14)">
       <use xlink:href="#KaiTi-50"/>
       <use x="50" xlink:href="#KaiTi-48"/>
      </g>
     </g>
    </g>
    <g id="xtick_4">
     <g id="line2d_7">
      <path clip-path="url(#p5501d0ba33)" d="M 195.460795 241.850937 
L 195.460795 24.410937 
" style="fill:none;stroke:#b0b0b0;stroke-linecap:square;stroke-width:0.8;"/>
     </g>
     <g id="line2d_8">
      <g>
       <use style="stroke:#000000;stroke-width:0.8;" x="195.460795" xlink:href="#m9b1d9bff72" y="241.850937"/>
      </g>
     </g>
     <g id="text_4">
      <!-- 25 -->
      <g transform="translate(188.460795 258.475937)scale(0.14 -0.14)">
       <use xlink:href="#KaiTi-50"/>
       <use x="50" xlink:href="#KaiTi-53"/>
      </g>
     </g>
    </g>
    <g id="xtick_5">
     <g id="line2d_9">
      <path clip-path="url(#p5501d0ba33)" d="M 233.50625 241.850937 
L 233.50625 24.410937 
" style="fill:none;stroke:#b0b0b0;stroke-linecap:square;stroke-width:0.8;"/>
     </g>
     <g id="line2d_10">
      <g>
       <use style="stroke:#000000;stroke-width:0.8;" x="233.50625" xlink:href="#m9b1d9bff72" y="241.850937"/>
      </g>
     </g>
     <g id="text_5">
      <!-- 30 -->
      <defs>
       <path d="M 3.90625 19.140625 
L 10.9375 20.3125 
Q 12.5 15.234375 16.015625 11.90625 
Q 19.53125 8.59375 24.796875 8.78125 
Q 30.078125 8.984375 33.203125 13.078125 
Q 36.328125 17.1875 35.9375 22.453125 
Q 35.546875 27.734375 31.828125 30.65625 
Q 28.125 33.59375 19.921875 34.765625 
L 19.921875 39.84375 
Q 28.125 40.625 31.828125 44.140625 
Q 35.546875 47.65625 35.15625 53.3125 
Q 34.765625 58.984375 30.078125 61.515625 
Q 25.390625 64.0625 20.109375 62.109375 
Q 14.84375 60.15625 11.71875 51.171875 
L 4.6875 52.34375 
Q 7.03125 59.375 11.125 64.0625 
Q 15.234375 68.75 22.265625 69.53125 
Q 29.296875 70.3125 34.5625 67.765625 
Q 39.84375 65.234375 41.984375 59.953125 
Q 44.140625 54.6875 42.578125 48.4375 
Q 41.015625 42.1875 33.59375 37.5 
Q 39.0625 35.15625 41.984375 30.46875 
Q 44.921875 25.78125 43.9375 18.15625 
Q 42.96875 10.546875 37.109375 5.859375 
Q 31.25 1.171875 23.828125 1.359375 
Q 16.40625 1.5625 10.9375 6.046875 
Q 5.46875 10.546875 3.90625 19.140625 
z
" id="KaiTi-51"/>
      </defs>
      <g transform="translate(226.50625 258.475937)scale(0.14 -0.14)">
       <use xlink:href="#KaiTi-51"/>
       <use x="50" xlink:href="#KaiTi-48"/>
      </g>
     </g>
    </g>
    <g id="xtick_6">
     <g id="line2d_11">
      <path clip-path="url(#p5501d0ba33)" d="M 271.551705 241.850937 
L 271.551705 24.410937 
" style="fill:none;stroke:#b0b0b0;stroke-linecap:square;stroke-width:0.8;"/>
     </g>
     <g id="line2d_12">
      <g>
       <use style="stroke:#000000;stroke-width:0.8;" x="271.551705" xlink:href="#m9b1d9bff72" y="241.850937"/>
      </g>
     </g>
     <g id="text_6">
      <!-- 35 -->
      <g transform="translate(264.551705 258.475937)scale(0.14 -0.14)">
       <use xlink:href="#KaiTi-51"/>
       <use x="50" xlink:href="#KaiTi-53"/>
      </g>
     </g>
    </g>
    <g id="xtick_7">
     <g id="line2d_13">
      <path clip-path="url(#p5501d0ba33)" d="M 309.597159 241.850937 
L 309.597159 24.410937 
" style="fill:none;stroke:#b0b0b0;stroke-linecap:square;stroke-width:0.8;"/>
     </g>
     <g id="line2d_14">
      <g>
       <use style="stroke:#000000;stroke-width:0.8;" x="309.597159" xlink:href="#m9b1d9bff72" y="241.850937"/>
      </g>
     </g>
     <g id="text_7">
      <!-- 40 -->
      <defs>
       <path d="M 31.25 17.1875 
L 1.171875 17.1875 
L 1.171875 23.828125 
L 32.8125 69.53125 
L 38.671875 69.53125 
L 38.671875 23.828125 
L 48.046875 23.828125 
L 48.046875 17.1875 
L 38.671875 17.1875 
L 38.671875 2.34375 
L 31.25 2.34375 
z
M 31.25 23.828125 
L 31.25 54.6875 
L 9.375 23.828125 
z
" id="KaiTi-52"/>
      </defs>
      <g transform="translate(302.597159 258.475937)scale(0.14 -0.14)">
       <use xlink:href="#KaiTi-52"/>
       <use x="50" xlink:href="#KaiTi-48"/>
      </g>
     </g>
    </g>
    <g id="xtick_8">
     <g id="line2d_15">
      <path clip-path="url(#p5501d0ba33)" d="M 347.642614 241.850937 
L 347.642614 24.410937 
" style="fill:none;stroke:#b0b0b0;stroke-linecap:square;stroke-width:0.8;"/>
     </g>
     <g id="line2d_16">
      <g>
       <use style="stroke:#000000;stroke-width:0.8;" x="347.642614" xlink:href="#m9b1d9bff72" y="241.850937"/>
      </g>
     </g>
     <g id="text_8">
      <!-- 45 -->
      <g transform="translate(340.642614 258.475937)scale(0.14 -0.14)">
       <use xlink:href="#KaiTi-52"/>
       <use x="50" xlink:href="#KaiTi-53"/>
      </g>
     </g>
    </g>
    <g id="xtick_9">
     <g id="line2d_17">
      <path clip-path="url(#p5501d0ba33)" d="M 385.688068 241.850937 
L 385.688068 24.410937 
" style="fill:none;stroke:#b0b0b0;stroke-linecap:square;stroke-width:0.8;"/>
     </g>
     <g id="line2d_18">
      <g>
       <use style="stroke:#000000;stroke-width:0.8;" x="385.688068" xlink:href="#m9b1d9bff72" y="241.850937"/>
      </g>
     </g>
     <g id="text_9">
      <!-- 50 -->
      <g transform="translate(378.688068 258.475937)scale(0.14 -0.14)">
       <use xlink:href="#KaiTi-53"/>
       <use x="50" xlink:href="#KaiTi-48"/>
      </g>
     </g>
    </g>
    <g id="text_10">
     <!-- 股票价格 -->
     <defs>
      <path d="M 21.09375 47.265625 
Q 24.21875 47.65625 26.359375 48.234375 
Q 28.515625 48.828125 29.875 47.265625 
Q 31.25 45.703125 28.3125 44.921875 
Q 25.390625 44.140625 21.09375 44.53125 
L 21.09375 32.8125 
Q 22.65625 32.8125 25.390625 33.59375 
Q 28.125 34.375 29.6875 32.8125 
Q 31.25 31.25 28.515625 30.078125 
Q 25.78125 28.90625 20.703125 29.6875 
Q 19.53125 15.625 15.625 8 
Q 11.71875 0.390625 6.828125 -3.3125 
Q 1.953125 -7.03125 5.46875 -2.140625 
Q 8.984375 2.734375 12.5 12.109375 
Q 16.015625 21.484375 16.203125 38.078125 
Q 16.40625 54.6875 15.8125 58.59375 
Q 15.234375 62.5 14.0625 63.859375 
Q 12.890625 65.234375 14.453125 65.234375 
Q 16.40625 65.234375 18.359375 65.421875 
Q 20.3125 65.625 24.015625 66.40625 
Q 27.734375 67.1875 29.484375 68.15625 
Q 31.25 69.140625 33.78125 68.359375 
Q 36.328125 67.578125 38.46875 66.015625 
Q 40.625 64.453125 38.671875 61.71875 
Q 36.71875 58.984375 36.515625 47.0625 
Q 36.328125 35.15625 37.109375 21.671875 
Q 37.890625 8.203125 37.296875 4.484375 
Q 36.71875 0.78125 34.375 -2.53125 
Q 32.03125 -5.859375 30.265625 -0.96875 
Q 28.515625 3.90625 24.21875 8.390625 
Q 19.921875 12.890625 24.015625 11.328125 
Q 28.125 9.765625 29.296875 9.765625 
Q 30.46875 9.765625 31.046875 11.90625 
Q 31.640625 14.0625 31.640625 31.640625 
L 31.640625 55.859375 
Q 31.640625 62.890625 30.859375 63.671875 
Q 30.078125 64.453125 21.09375 62.5 
z
M 66.015625 12.890625 
Q 72.65625 7.8125 81.046875 5.078125 
Q 89.453125 2.34375 94.140625 1.5625 
Q 98.828125 0.78125 96.09375 -0.1875 
Q 93.359375 -1.171875 85.9375 -2.140625 
Q 78.515625 -3.125 74.796875 -0.96875 
Q 71.09375 1.171875 62.109375 8.984375 
Q 56.25 5.46875 50.96875 4.09375 
Q 45.703125 2.734375 41.796875 2.921875 
Q 37.890625 3.125 42.1875 4.484375 
Q 46.484375 5.859375 50.578125 7.8125 
Q 54.6875 9.765625 58.59375 13.28125 
Q 56.25 16.40625 52.140625 20.703125 
Q 48.046875 25 44.921875 26.359375 
Q 41.796875 27.734375 44.921875 28.125 
Q 48.046875 28.515625 52.53125 25.1875 
Q 57.03125 21.875 61.71875 16.796875 
Q 64.84375 23.828125 65.625 29.09375 
Q 66.40625 34.375 64.453125 34.375 
Q 62.890625 34.375 59.953125 33.59375 
Q 57.03125 32.8125 54.875 32.609375 
Q 52.734375 32.421875 50.78125 33.984375 
Q 48.828125 35.546875 52.53125 35.734375 
Q 56.25 35.9375 59.375 37.109375 
Q 62.5 38.28125 63.859375 39.25 
Q 65.234375 40.234375 67.96875 39.25 
Q 70.703125 38.28125 73.625 36.71875 
Q 76.5625 35.15625 74.40625 32.8125 
Q 72.265625 30.46875 70.890625 25 
Q 69.53125 19.53125 66.015625 12.890625 
z
M 56.640625 65.625 
Q 56.25 54.6875 54.09375 49.21875 
Q 51.953125 43.75 47.265625 41.015625 
Q 42.578125 38.28125 46.484375 43.359375 
Q 50.390625 48.4375 50.96875 56.4375 
Q 51.5625 64.453125 50 66.984375 
Q 48.4375 69.53125 50.78125 69.328125 
Q 53.125 69.140625 54.484375 68.75 
Q 55.859375 68.359375 59.953125 69.53125 
Q 64.0625 70.703125 66.40625 72.65625 
Q 68.75 74.609375 73.046875 71.875 
Q 77.734375 69.921875 75.1875 67.765625 
Q 72.65625 65.625 71.484375 61.515625 
Q 70.3125 57.421875 70.5 54.875 
Q 70.703125 52.34375 72.65625 51.75 
Q 74.609375 51.171875 79.09375 52.140625 
Q 83.59375 53.125 85.9375 50.578125 
Q 88.28125 48.046875 84.5625 47.265625 
Q 80.859375 46.484375 74.21875 46.484375 
Q 67.96875 46.484375 66.984375 50.78125 
Q 66.015625 55.078125 66.796875 61.515625 
Q 67.578125 67.96875 66.015625 67.578125 
Q 64.453125 67.1875 63.078125 66.984375 
Q 61.71875 66.796875 56.640625 65.625 
z
" id="KaiTi-32929"/>
      <path d="M 58.203125 70.3125 
Q 62.890625 67.578125 61.71875 65.8125 
Q 60.546875 64.0625 58.984375 58.59375 
Q 67.578125 59.765625 69.921875 60.546875 
Q 72.265625 61.328125 74.609375 60.34375 
Q 76.953125 59.375 79.296875 57.421875 
Q 81.640625 55.46875 79.484375 54.09375 
Q 77.34375 52.734375 75 48.828125 
Q 72.65625 44.921875 70.3125 42.1875 
Q 67.96875 39.453125 67.96875 44.140625 
Q 51.953125 43.359375 33.59375 39.84375 
Q 32.8125 35.546875 31.25 38.859375 
Q 29.6875 42.1875 27.921875 46.484375 
Q 26.171875 50.78125 24.015625 52.921875 
Q 21.875 55.078125 24.21875 55.078125 
Q 26.953125 55.078125 28.515625 54.6875 
Q 30.078125 54.296875 40.234375 55.859375 
Q 39.453125 65.625 37.5 67.1875 
Q 32.421875 66.796875 30.078125 68.546875 
Q 27.734375 70.3125 33 70.890625 
Q 38.28125 71.484375 47.453125 73.234375 
Q 56.640625 75 62.5 76.171875 
Q 68.359375 77.34375 70.109375 75.96875 
Q 71.875 74.609375 70.5 73.625 
Q 69.140625 72.65625 65.625 71.875 
Q 62.109375 71.09375 58.203125 70.3125 
z
M 52.734375 21.875 
Q 55.078125 17.96875 54.484375 16.015625 
Q 53.90625 14.0625 53.90625 8.984375 
Q 53.90625 4.296875 54.09375 -0.390625 
Q 54.296875 -5.078125 51.359375 -8.78125 
Q 48.4375 -12.5 47.65625 -9.171875 
Q 46.875 -5.859375 41.984375 -2.53125 
Q 37.109375 0.78125 40.8125 -0.1875 
Q 44.53125 -1.171875 46.671875 -0.78125 
Q 48.828125 -0.390625 49.015625 7.21875 
Q 49.21875 14.84375 48.046875 21.09375 
Q 35.546875 19.140625 28.703125 17.96875 
Q 21.875 16.796875 19.140625 16.40625 
Q 16.40625 16.015625 12.6875 18.9375 
Q 8.984375 21.875 14.84375 21.875 
Q 21.09375 21.875 34.5625 23.4375 
Q 48.046875 25 57.421875 26.171875 
Q 66.796875 27.34375 76.171875 28.125 
Q 85.546875 28.90625 88.671875 26.5625 
Q 91.796875 24.21875 91.984375 22.65625 
Q 92.1875 21.09375 86.71875 21.671875 
Q 81.25 22.265625 72.84375 22.65625 
Q 64.453125 23.046875 52.734375 21.875 
z
M 55.46875 36.71875 
Q 60.9375 38.28125 63.671875 36.515625 
Q 66.40625 34.765625 63.28125 33.59375 
Q 60.15625 32.421875 54.875 31.828125 
Q 49.609375 31.25 46.875 30.859375 
L 39.84375 29.6875 
Q 35.9375 29.296875 32.21875 30.859375 
Q 28.515625 32.421875 32.8125 32.8125 
Q 37.109375 33.203125 43.546875 34.375 
Q 50 35.546875 55.46875 36.71875 
z
M 55.859375 46.484375 
Q 60.15625 46.875 62.5 47.265625 
Q 64.84375 47.65625 68.359375 46.875 
Q 70.3125 51.953125 70.703125 54.09375 
Q 71.09375 56.25 69.140625 56.640625 
Q 67.1875 57.03125 58.203125 55.859375 
Q 56.640625 49.21875 55.859375 46.484375 
z
M 67.578125 13.28125 
Q 75.390625 10.546875 77.734375 7.21875 
Q 80.078125 3.90625 79.6875 0 
Q 79.296875 -3.90625 75.1875 -0.1875 
Q 71.09375 3.515625 65.625 9.765625 
Q 60.15625 16.015625 67.578125 13.28125 
z
M 53.90625 57.8125 
Q 54.296875 61.71875 54.875 64.25 
Q 55.46875 66.796875 53.90625 69.53125 
Q 46.484375 68.359375 41.015625 67.578125 
Q 45.703125 65.234375 45.109375 63.28125 
Q 44.53125 61.328125 44.53125 56.640625 
z
M 28.125 12.109375 
Q 31.640625 17.578125 31.4375 11.515625 
Q 31.25 5.46875 27.140625 -0.1875 
Q 23.046875 -5.859375 21.671875 -1.75 
Q 20.3125 2.34375 22.453125 4.6875 
Q 24.609375 7.03125 28.125 12.109375 
z
M 31.25 51.953125 
Q 32.421875 46.875 33.203125 42.96875 
L 41.015625 44.140625 
L 40.234375 53.125 
L 31.25 51.953125 
z
M 51.953125 46.09375 
L 53.125 54.6875 
L 44.140625 53.90625 
L 44.140625 44.921875 
z
" id="KaiTi-31080"/>
      <path d="M 24.21875 48.828125 
Q 29.6875 43.75 28.703125 41.203125 
Q 27.734375 38.671875 27.53125 19.921875 
Q 27.34375 1.171875 25.578125 -2.140625 
Q 23.828125 -5.46875 21.671875 -0.78125 
Q 19.53125 3.90625 20.890625 7.03125 
Q 22.265625 10.15625 22.65625 19.921875 
Q 23.046875 29.6875 23.046875 35.546875 
Q 23.046875 41.40625 21.875 45.703125 
Q 14.84375 36.71875 8.390625 32.8125 
Q 1.953125 28.90625 7.03125 34.171875 
Q 12.109375 39.453125 16.984375 46.671875 
Q 21.875 53.90625 25.578125 62.5 
Q 29.296875 71.09375 28.703125 74.015625 
Q 28.125 76.953125 30.859375 75.78125 
Q 33.59375 74.609375 35.9375 72.65625 
Q 38.28125 70.703125 36.328125 68.9375 
Q 34.375 67.1875 31.046875 60.734375 
Q 27.734375 54.296875 24.21875 48.828125 
z
M 60.15625 69.921875 
Q 69.53125 59.765625 74.21875 55.46875 
Q 78.90625 51.171875 83.984375 48.046875 
Q 89.0625 44.921875 93.75 43.359375 
Q 98.4375 41.796875 95.3125 40.8125 
Q 92.1875 39.84375 85.734375 40.234375 
Q 79.296875 40.625 76.171875 44.53125 
Q 73.046875 48.4375 69.921875 53.125 
Q 66.796875 57.8125 58.984375 67.578125 
Q 51.953125 53.90625 46.09375 46.28125 
Q 40.234375 38.671875 33.984375 35.34375 
Q 27.734375 32.03125 33.78125 38.078125 
Q 39.84375 44.140625 45.3125 53.3125 
Q 50.78125 62.5 52.734375 68.75 
Q 54.6875 75 53.90625 77.734375 
Q 53.125 80.46875 56.046875 79.6875 
Q 58.984375 78.90625 61.515625 77.34375 
Q 64.0625 75.78125 62.6875 74.21875 
Q 61.328125 72.65625 60.15625 69.921875 
z
M 67.1875 44.921875 
Q 71.484375 42.96875 70.5 39.84375 
Q 69.53125 36.71875 69.71875 22.265625 
Q 69.921875 7.8125 69.53125 1.75 
Q 69.140625 -4.296875 67.765625 -6.25 
Q 66.40625 -8.203125 64.453125 -3.90625 
Q 62.5 0.390625 63.671875 5.65625 
Q 64.84375 10.9375 64.640625 25.96875 
Q 64.453125 41.015625 61.90625 44.53125 
Q 59.375 48.046875 67.1875 44.921875 
z
M 50.390625 41.796875 
Q 55.078125 40.234375 54.09375 38.46875 
Q 53.125 36.71875 52.53125 28.3125 
Q 51.953125 19.921875 48.4375 13.078125 
Q 44.921875 6.25 38.671875 3.125 
Q 32.421875 0 37.109375 4.6875 
Q 41.796875 9.375 44.328125 14.84375 
Q 46.875 20.3125 47.453125 29.296875 
Q 48.046875 38.28125 45.890625 41.203125 
Q 43.75 44.140625 50.390625 41.796875 
z
" id="KaiTi-20215"/>
      <path d="M 75 6.640625 
Q 81.25 1.953125 73.828125 1.953125 
Q 66.796875 1.953125 52.734375 0.390625 
Q 50.78125 -7.03125 49.015625 -0.1875 
Q 47.265625 6.640625 46.484375 11.328125 
Q 45.703125 16.015625 43.75 19.140625 
Q 42.96875 20.703125 42.96875 21.09375 
Q 40.625 20.3125 38.28125 19.53125 
Q 32.8125 18.359375 38.859375 22.0625 
Q 44.921875 25.78125 50 30.859375 
Q 55.078125 35.9375 59.375 41.796875 
Q 55.859375 45.3125 50 49.21875 
Q 47.65625 46.875 45.3125 46.09375 
Q 42.96875 45.3125 46.09375 49.015625 
Q 49.21875 52.734375 52.921875 59.953125 
Q 56.640625 67.1875 57.21875 69.328125 
Q 57.8125 71.484375 57.03125 74.609375 
Q 56.25 77.734375 58.984375 76.75 
Q 61.71875 75.78125 64.453125 74.21875 
Q 67.1875 72.65625 64.84375 70.5 
Q 62.5 68.359375 58.59375 60.546875 
Q 65.625 61.328125 67.375 62.109375 
Q 69.140625 62.890625 70.3125 64.25 
Q 71.484375 65.625 74.21875 64.25 
Q 76.953125 62.890625 78.703125 61.328125 
Q 80.46875 59.765625 77.734375 58 
Q 75 56.25 72.265625 51.5625 
L 66.796875 42.1875 
Q 70.703125 38.671875 79.09375 34.765625 
Q 87.5 30.859375 93.546875 29.484375 
Q 99.609375 28.125 94.53125 27.34375 
Q 89.453125 26.5625 84.171875 26.171875 
Q 78.90625 25.78125 76.5625 27.34375 
Q 74.21875 28.90625 62.890625 38.28125 
Q 56.25 30.078125 50 25.390625 
Q 46.875 23.4375 44.140625 21.875 
L 44.53125 21.875 
Q 47.65625 21.09375 49.796875 20.3125 
Q 51.953125 19.53125 56.046875 20.109375 
Q 60.15625 20.703125 64.25 21.671875 
Q 68.359375 22.65625 69.921875 23.828125 
Q 71.484375 25 75.1875 23.625 
Q 78.90625 22.265625 81.4375 20.3125 
Q 83.984375 18.359375 81.25 16.015625 
Q 78.515625 13.671875 75 6.640625 
z
M 30.859375 49.609375 
Q 33.984375 50 36.328125 50.578125 
Q 38.671875 51.171875 40.03125 50 
Q 41.40625 48.828125 39.84375 47.65625 
Q 38.28125 46.484375 30.859375 44.53125 
L 30.46875 34.765625 
Q 33.59375 34.375 37.296875 32.8125 
Q 41.015625 31.25 40.625 27.140625 
Q 40.234375 23.046875 36.328125 26.171875 
Q 32.421875 29.296875 30.46875 31.640625 
L 30.46875 12.109375 
Q 30.46875 3.90625 29.09375 -2.53125 
Q 27.734375 -8.984375 25.390625 -2.921875 
Q 23.046875 3.125 24.21875 7.21875 
Q 25.390625 11.328125 25.78125 16.40625 
Q 26.171875 21.484375 26.5625 32.421875 
Q 20.703125 22.265625 15.234375 16.59375 
Q 9.765625 10.9375 5.46875 9.171875 
Q 1.171875 7.421875 6.25 12.296875 
Q 11.328125 17.1875 16.59375 25.578125 
Q 21.875 33.984375 25 42.578125 
Q 17.578125 40.234375 13.46875 40.03125 
Q 9.375 39.84375 7.03125 41.59375 
Q 4.6875 43.359375 11.125 44.328125 
Q 17.578125 45.3125 26.953125 48.4375 
Q 26.953125 58.984375 26.5625 65.625 
Q 26.171875 72.265625 24.21875 75.390625 
Q 22.265625 78.515625 25.78125 77.734375 
Q 29.296875 76.953125 32.03125 75.390625 
Q 34.765625 73.828125 33 70.890625 
Q 31.25 67.96875 30.859375 49.609375 
z
M 69.921875 5.859375 
Q 70.703125 10.9375 71.09375 15.234375 
Q 71.484375 19.53125 68.546875 19.140625 
Q 65.625 18.75 51.171875 16.796875 
Q 51.5625 9.375 52.34375 3.90625 
Q 60.9375 4.6875 69.921875 5.859375 
z
M 51.953125 51.171875 
Q 55.078125 49.21875 62.109375 44.921875 
Q 66.015625 50 67.578125 53.90625 
Q 69.140625 57.8125 67.96875 58.203125 
Q 66.796875 58.59375 63.46875 57.8125 
Q 60.15625 57.03125 57.03125 58.203125 
Q 54.296875 54.296875 51.953125 51.171875 
z
" id="KaiTi-26684"/>
     </defs>
     <g transform="translate(205.50625 275.491562)scale(0.14 -0.14)">
      <use xlink:href="#KaiTi-32929"/>
      <use x="100" xlink:href="#KaiTi-31080"/>
      <use x="200" xlink:href="#KaiTi-20215"/>
      <use x="300" xlink:href="#KaiTi-26684"/>
     </g>
    </g>
   </g>
   <g id="matplotlib.axis_2">
    <g id="ytick_1">
     <g id="line2d_19">
      <path clip-path="url(#p5501d0ba33)" d="M 66.10625 231.967301 
L 400.90625 231.967301 
" style="fill:none;stroke:#b0b0b0;stroke-linecap:square;stroke-width:0.8;"/>
     </g>
     <g id="line2d_20">
      <defs>
       <path d="M 0 0 
L -3.5 0 
" id="m4c5d5e8589" style="stroke:#000000;stroke-width:0.8;"/>
      </defs>
      <g>
       <use style="stroke:#000000;stroke-width:0.8;" x="66.10625" xlink:href="#m4c5d5e8589" y="231.967301"/>
      </g>
     </g>
     <g id="text_11">
      <!-- 0.000 -->
      <defs>
       <path d="M 12.5 1.171875 
Q 10.546875 1.171875 8.78125 2.53125 
Q 7.03125 3.90625 7.03125 6.640625 
Q 7.03125 8.984375 8.390625 10.34375 
Q 9.765625 11.71875 12.5 12.109375 
Q 15.234375 12.109375 16.59375 10.546875 
Q 17.96875 8.984375 17.96875 6.640625 
Q 17.96875 3.90625 16.40625 2.53125 
Q 14.84375 1.171875 12.5 1.171875 
z
" id="KaiTi-46"/>
      </defs>
      <g transform="translate(24.10625 236.779801)scale(0.14 -0.14)">
       <use xlink:href="#KaiTi-48"/>
       <use x="50" xlink:href="#KaiTi-46"/>
       <use x="100" xlink:href="#KaiTi-48"/>
       <use x="150" xlink:href="#KaiTi-48"/>
       <use x="200" xlink:href="#KaiTi-48"/>
      </g>
     </g>
    </g>
    <g id="ytick_2">
     <g id="line2d_21">
      <path clip-path="url(#p5501d0ba33)" d="M 66.10625 203.6893 
L 400.90625 203.6893 
" style="fill:none;stroke:#b0b0b0;stroke-linecap:square;stroke-width:0.8;"/>
     </g>
     <g id="line2d_22">
      <g>
       <use style="stroke:#000000;stroke-width:0.8;" x="66.10625" xlink:href="#m4c5d5e8589" y="203.6893"/>
      </g>
     </g>
     <g id="text_12">
      <!-- 0.025 -->
      <g transform="translate(24.10625 208.5018)scale(0.14 -0.14)">
       <use xlink:href="#KaiTi-48"/>
       <use x="50" xlink:href="#KaiTi-46"/>
       <use x="100" xlink:href="#KaiTi-48"/>
       <use x="150" xlink:href="#KaiTi-50"/>
       <use x="200" xlink:href="#KaiTi-53"/>
      </g>
     </g>
    </g>
    <g id="ytick_3">
     <g id="line2d_23">
      <path clip-path="url(#p5501d0ba33)" d="M 66.10625 175.411298 
L 400.90625 175.411298 
" style="fill:none;stroke:#b0b0b0;stroke-linecap:square;stroke-width:0.8;"/>
     </g>
     <g id="line2d_24">
      <g>
       <use style="stroke:#000000;stroke-width:0.8;" x="66.10625" xlink:href="#m4c5d5e8589" y="175.411298"/>
      </g>
     </g>
     <g id="text_13">
      <!-- 0.050 -->
      <g transform="translate(24.10625 180.223798)scale(0.14 -0.14)">
       <use xlink:href="#KaiTi-48"/>
       <use x="50" xlink:href="#KaiTi-46"/>
       <use x="100" xlink:href="#KaiTi-48"/>
       <use x="150" xlink:href="#KaiTi-53"/>
       <use x="200" xlink:href="#KaiTi-48"/>
      </g>
     </g>
    </g>
    <g id="ytick_4">
     <g id="line2d_25">
      <path clip-path="url(#p5501d0ba33)" d="M 66.10625 147.133297 
L 400.90625 147.133297 
" style="fill:none;stroke:#b0b0b0;stroke-linecap:square;stroke-width:0.8;"/>
     </g>
     <g id="line2d_26">
      <g>
       <use style="stroke:#000000;stroke-width:0.8;" x="66.10625" xlink:href="#m4c5d5e8589" y="147.133297"/>
      </g>
     </g>
     <g id="text_14">
      <!-- 0.075 -->
      <defs>
       <path d="M 13.28125 2.34375 
Q 20.3125 32.03125 37.890625 61.328125 
L 4.296875 61.328125 
L 4.296875 68.359375 
L 46.09375 68.359375 
L 46.09375 61.71875 
Q 27.734375 32.03125 21.875 2.34375 
L 13.28125 2.34375 
z
" id="KaiTi-55"/>
      </defs>
      <g transform="translate(24.10625 151.945797)scale(0.14 -0.14)">
       <use xlink:href="#KaiTi-48"/>
       <use x="50" xlink:href="#KaiTi-46"/>
       <use x="100" xlink:href="#KaiTi-48"/>
       <use x="150" xlink:href="#KaiTi-55"/>
       <use x="200" xlink:href="#KaiTi-53"/>
      </g>
     </g>
    </g>
    <g id="ytick_5">
     <g id="line2d_27">
      <path clip-path="url(#p5501d0ba33)" d="M 66.10625 118.855295 
L 400.90625 118.855295 
" style="fill:none;stroke:#b0b0b0;stroke-linecap:square;stroke-width:0.8;"/>
     </g>
     <g id="line2d_28">
      <g>
       <use style="stroke:#000000;stroke-width:0.8;" x="66.10625" xlink:href="#m4c5d5e8589" y="118.855295"/>
      </g>
     </g>
     <g id="text_15">
      <!-- 0.100 -->
      <g transform="translate(24.10625 123.667795)scale(0.14 -0.14)">
       <use xlink:href="#KaiTi-48"/>
       <use x="50" xlink:href="#KaiTi-46"/>
       <use x="100" xlink:href="#KaiTi-49"/>
       <use x="150" xlink:href="#KaiTi-48"/>
       <use x="200" xlink:href="#KaiTi-48"/>
      </g>
     </g>
    </g>
    <g id="ytick_6">
     <g id="line2d_29">
      <path clip-path="url(#p5501d0ba33)" d="M 66.10625 90.577294 
L 400.90625 90.577294 
" style="fill:none;stroke:#b0b0b0;stroke-linecap:square;stroke-width:0.8;"/>
     </g>
     <g id="line2d_30">
      <g>
       <use style="stroke:#000000;stroke-width:0.8;" x="66.10625" xlink:href="#m4c5d5e8589" y="90.577294"/>
      </g>
     </g>
     <g id="text_16">
      <!-- 0.125 -->
      <g transform="translate(24.10625 95.389794)scale(0.14 -0.14)">
       <use xlink:href="#KaiTi-48"/>
       <use x="50" xlink:href="#KaiTi-46"/>
       <use x="100" xlink:href="#KaiTi-49"/>
       <use x="150" xlink:href="#KaiTi-50"/>
       <use x="200" xlink:href="#KaiTi-53"/>
      </g>
     </g>
    </g>
    <g id="ytick_7">
     <g id="line2d_31">
      <path clip-path="url(#p5501d0ba33)" d="M 66.10625 62.299292 
L 400.90625 62.299292 
" style="fill:none;stroke:#b0b0b0;stroke-linecap:square;stroke-width:0.8;"/>
     </g>
     <g id="line2d_32">
      <g>
       <use style="stroke:#000000;stroke-width:0.8;" x="66.10625" xlink:href="#m4c5d5e8589" y="62.299292"/>
      </g>
     </g>
     <g id="text_17">
      <!-- 0.150 -->
      <g transform="translate(24.10625 67.111792)scale(0.14 -0.14)">
       <use xlink:href="#KaiTi-48"/>
       <use x="50" xlink:href="#KaiTi-46"/>
       <use x="100" xlink:href="#KaiTi-49"/>
       <use x="150" xlink:href="#KaiTi-53"/>
       <use x="200" xlink:href="#KaiTi-48"/>
      </g>
     </g>
    </g>
    <g id="ytick_8">
     <g id="line2d_33">
      <path clip-path="url(#p5501d0ba33)" d="M 66.10625 34.021291 
L 400.90625 34.021291 
" style="fill:none;stroke:#b0b0b0;stroke-linecap:square;stroke-width:0.8;"/>
     </g>
     <g id="line2d_34">
      <g>
       <use style="stroke:#000000;stroke-width:0.8;" x="66.10625" xlink:href="#m4c5d5e8589" y="34.021291"/>
      </g>
     </g>
     <g id="text_18">
      <!-- 0.175 -->
      <g transform="translate(24.10625 38.833791)scale(0.14 -0.14)">
       <use xlink:href="#KaiTi-48"/>
       <use x="50" xlink:href="#KaiTi-46"/>
       <use x="100" xlink:href="#KaiTi-49"/>
       <use x="150" xlink:href="#KaiTi-55"/>
       <use x="200" xlink:href="#KaiTi-53"/>
      </g>
     </g>
    </g>
    <g id="text_19">
     <!-- 概率密度值 -->
     <defs>
      <path d="M 74.21875 57.421875 
Q 78.125 55.46875 76.953125 53.3125 
Q 75.78125 51.171875 73.4375 40.234375 
Q 81.640625 42.578125 84.375 43.15625 
Q 87.109375 43.75 89.453125 41.40625 
Q 91.796875 39.0625 86.515625 38.28125 
Q 81.25 37.5 72.65625 36.328125 
Q 71.875 33.984375 71.09375 32.421875 
Q 75.390625 28.90625 74.21875 26.171875 
Q 73.046875 23.4375 72.453125 15.421875 
Q 71.875 7.421875 74.40625 5.859375 
Q 76.953125 4.296875 82.03125 3.90625 
Q 87.109375 3.515625 89.25 5.265625 
Q 91.40625 7.03125 92.765625 14.0625 
Q 94.140625 21.09375 94.328125 15.03125 
Q 94.53125 8.984375 96.28125 5.65625 
Q 98.046875 2.34375 95.3125 0.1875 
Q 92.578125 -1.953125 83.390625 -1.75 
Q 74.21875 -1.5625 71.484375 2.34375 
Q 68.75 6.25 69.328125 14.84375 
Q 69.921875 23.4375 69.921875 28.90625 
Q 64.0625 14.84375 56.046875 8.203125 
Q 48.046875 1.5625 41.59375 0 
Q 35.15625 -1.5625 42.375 2.53125 
Q 49.609375 6.640625 56.25 14.25 
Q 62.890625 21.875 67.578125 35.15625 
Q 62.5 34.765625 59.765625 32.421875 
Q 57.03125 30.078125 56.828125 33.390625 
Q 56.640625 36.71875 58.390625 38.46875 
Q 60.15625 40.234375 60.34375 43.359375 
Q 60.546875 46.484375 59.765625 48.828125 
Q 58.984375 51.171875 62.890625 49.015625 
Q 66.796875 46.875 65.8125 45.5 
Q 64.84375 44.140625 64.25 42.578125 
Q 63.671875 41.015625 63.28125 39.25 
Q 62.890625 37.5 63.859375 37.6875 
Q 64.84375 37.890625 68.75 39.0625 
Q 70.3125 44.921875 70.703125 49.40625 
Q 71.09375 53.90625 70.3125 56.640625 
Q 67.1875 56.25 65.234375 56.4375 
Q 63.28125 56.640625 62.296875 57.421875 
Q 61.328125 58.203125 63.859375 58.984375 
Q 66.40625 59.765625 68.9375 60.9375 
Q 71.484375 62.109375 77.140625 64.25 
Q 82.8125 66.40625 85.15625 64.84375 
Q 87.5 63.28125 84.953125 61.515625 
Q 82.421875 59.765625 74.21875 57.421875 
z
M 50.390625 39.0625 
Q 46.09375 36.71875 41.796875 35.9375 
L 41.40625 22.265625 
Q 43.75 24.21875 48.046875 27.734375 
Q 47.265625 29.296875 46.484375 31.828125 
Q 45.703125 34.375 48.046875 32.8125 
Q 50.390625 31.25 52.53125 28.703125 
Q 54.6875 26.171875 54.484375 23.234375 
Q 54.296875 20.3125 52.734375 18.9375 
Q 51.171875 17.578125 48.828125 25.78125 
Q 40.234375 15.234375 38.46875 12.109375 
Q 36.71875 8.984375 34.765625 12.5 
Q 32.8125 16.015625 35.15625 18.75 
Q 37.5 21.484375 38.078125 25.78125 
Q 38.671875 30.078125 38.671875 41.796875 
Q 38.671875 53.90625 37.109375 57.421875 
Q 35.546875 60.9375 36.71875 60.9375 
Q 38.28125 60.9375 39.25 60.34375 
Q 40.234375 59.765625 42.96875 60.34375 
Q 45.703125 60.9375 47.84375 61.71875 
Q 50 62.5 51.953125 64.0625 
Q 53.90625 65.625 56.4375 64.0625 
Q 58.984375 62.5 60.34375 61.328125 
Q 61.71875 60.15625 60.15625 58.203125 
Q 58.59375 56.25 57.421875 51.953125 
Q 56.25 47.65625 55.46875 44.921875 
Q 54.6875 42.1875 53.515625 39.0625 
Q 52.34375 35.9375 50.390625 39.0625 
z
M 26.953125 53.515625 
Q 32.421875 55.859375 34.5625 54.296875 
Q 36.71875 52.734375 34.375 51.171875 
Q 32.03125 49.609375 26.953125 47.65625 
L 26.953125 39.84375 
Q 31.640625 38.671875 33.59375 36.328125 
Q 35.546875 33.984375 34.375 31.640625 
Q 33.203125 29.296875 31.046875 31.828125 
Q 28.90625 34.375 26.953125 36.71875 
Q 26.953125 19.53125 26.75 10.9375 
Q 26.5625 2.34375 25 -2.734375 
Q 23.4375 -7.8125 21.28125 -2.921875 
Q 19.140625 1.953125 20.703125 7.21875 
Q 22.265625 12.5 22.65625 35.9375 
Q 15.234375 23.046875 7.8125 17.1875 
Q 0.390625 11.328125 5.859375 18.15625 
Q 11.328125 25 15.234375 31.640625 
Q 19.140625 38.28125 22.265625 46.875 
Q 12.890625 44.53125 9.5625 45.703125 
Q 6.25 46.875 10.546875 47.84375 
Q 14.84375 48.828125 22.65625 51.5625 
Q 22.65625 64.84375 22.265625 68.546875 
Q 21.875 72.265625 20.3125 75.390625 
Q 18.75 78.515625 22.265625 77.734375 
Q 25.78125 76.953125 27.921875 75.78125 
Q 30.078125 74.609375 28.703125 71.875 
Q 27.34375 69.140625 26.953125 53.515625 
z
M 42.1875 49.609375 
Q 44.53125 50 47.0625 51.171875 
Q 49.609375 52.34375 50.78125 51.171875 
Q 51.953125 50 49.609375 48.625 
Q 47.265625 47.265625 42.1875 47.265625 
L 41.796875 38.28125 
L 50.78125 42.1875 
Q 52.34375 50.78125 52.734375 55.265625 
Q 53.125 59.765625 51.171875 58.984375 
Q 49.21875 58.203125 42.1875 56.25 
z
" id="KaiTi-27010"/>
      <path d="M 55.859375 40.625 
Q 53.90625 43.359375 52.921875 45.3125 
Q 51.953125 47.265625 54.875 46.484375 
Q 57.8125 45.703125 59.765625 44.53125 
Q 61.71875 43.359375 62.6875 41.015625 
Q 63.671875 38.671875 62.6875 36.328125 
Q 61.71875 33.984375 60.15625 34.953125 
Q 58.59375 35.9375 57.421875 37.890625 
Q 52.34375 36.71875 48.828125 35.9375 
Q 52.34375 34.765625 53.90625 33.78125 
Q 55.46875 32.8125 54.484375 31.828125 
Q 53.515625 30.859375 53.125 25.78125 
Q 60.15625 26.171875 70.5 27.34375 
Q 80.859375 28.515625 84.171875 29.296875 
Q 87.5 30.078125 90.625 28.3125 
Q 93.75 26.5625 94.328125 24.796875 
Q 94.921875 23.046875 87.5 23.234375 
Q 80.078125 23.4375 72.453125 22.84375 
Q 64.84375 22.265625 53.125 21.875 
Q 52.734375 13.28125 52.34375 6.25 
Q 51.953125 -0.78125 51.171875 -5.65625 
Q 50.390625 -10.546875 49.21875 -10.9375 
Q 48.046875 -11.328125 47.65625 -3.515625 
Q 47.265625 4.296875 47.265625 21.484375 
Q 34.765625 20.3125 29.484375 19.53125 
Q 24.21875 18.75 20.890625 18.15625 
Q 17.578125 17.578125 14.84375 17.96875 
Q 12.109375 18.359375 9.375 20.5 
Q 6.640625 22.65625 12.109375 22.453125 
Q 17.578125 22.265625 27.34375 23.234375 
Q 37.109375 24.21875 47.265625 25.390625 
Q 47.265625 32.421875 46.09375 35.15625 
Q 39.84375 33.59375 37.6875 31.640625 
Q 35.546875 29.6875 33.984375 33.390625 
Q 32.421875 37.109375 36.328125 38.46875 
Q 40.234375 39.84375 48.828125 51.171875 
Q 41.015625 49.609375 38.28125 47.65625 
Q 35.546875 45.703125 34.5625 49.21875 
Q 33.59375 52.734375 35.734375 53.515625 
Q 37.890625 54.296875 40.234375 57.8125 
Q 42.578125 61.328125 42.96875 65.234375 
Q 38.28125 64.453125 36.125 64.0625 
Q 33.984375 63.671875 30.859375 65.8125 
Q 27.734375 67.96875 32.8125 67.96875 
Q 37.890625 67.96875 51.171875 70.3125 
L 45.3125 76.171875 
Q 41.796875 79.6875 44.921875 79.6875 
Q 48.4375 79.6875 51.953125 77.53125 
Q 55.46875 75.390625 52.34375 71.09375 
Q 60.15625 72.65625 63.671875 73.625 
Q 67.1875 74.609375 69.328125 72.453125 
Q 71.484375 70.3125 67.375 69.53125 
Q 63.28125 68.75 47.65625 66.40625 
Q 50.390625 62.5 48.4375 61.328125 
Q 46.484375 60.15625 41.015625 53.125 
Q 43.359375 53.125 50.390625 53.515625 
Q 53.515625 58.203125 53.3125 60.9375 
Q 53.125 63.671875 55.859375 62.5 
Q 58.59375 61.328125 60.34375 59.375 
Q 62.109375 57.421875 59.5625 56.25 
Q 57.03125 55.078125 43.359375 38.28125 
Q 50.78125 39.84375 55.859375 40.625 
z
M 71.09375 42.578125 
Q 68.359375 44.921875 65.625 48.234375 
Q 62.890625 51.5625 69.140625 49.609375 
Q 75.390625 47.65625 77.921875 44.921875 
Q 80.46875 42.1875 79.484375 39.453125 
Q 78.515625 36.71875 76.171875 38.46875 
Q 73.828125 40.234375 71.09375 42.578125 
z
M 23.4375 43.359375 
Q 27.34375 45.3125 30.078125 47.0625 
Q 32.8125 48.828125 30.65625 46.09375 
Q 28.515625 43.359375 25.96875 40.421875 
Q 23.4375 37.5 22.265625 34.765625 
Q 21.09375 32.03125 17.765625 36.515625 
Q 14.453125 41.015625 17.1875 41.203125 
Q 19.921875 41.40625 23.4375 43.359375 
z
M 78.90625 62.5 
Q 81.25 60.9375 78.3125 59.765625 
Q 75.390625 58.59375 73.234375 57.21875 
Q 71.09375 55.859375 67.765625 54.09375 
Q 64.453125 52.34375 67.96875 56.828125 
Q 71.484375 61.328125 71.09375 63.671875 
Q 70.703125 66.015625 73.625 65.234375 
Q 76.5625 64.453125 78.90625 62.5 
z
M 21.484375 53.515625 
Q 20.3125 55.46875 19.328125 57.421875 
Q 18.359375 59.375 22.265625 58.390625 
Q 26.171875 57.421875 27.734375 55.46875 
Q 29.296875 53.515625 28.125 50.78125 
Q 26.953125 48.046875 25 50 
L 21.484375 53.515625 
z
" id="KaiTi-29575"/>
      <path d="M 69.140625 5.859375 
Q 69.140625 16.015625 67.1875 18.75 
Q 65.234375 21.484375 68.15625 20.890625 
Q 71.09375 20.3125 74.609375 18.75 
Q 78.125 17.1875 76.359375 15.625 
Q 74.609375 14.0625 74.21875 3.90625 
Q 73.828125 -6.25 71.484375 -7.421875 
Q 69.140625 -8.59375 69.140625 3.125 
Q 46.875 0.78125 39.640625 -0.96875 
Q 32.421875 -2.734375 29.484375 -5.078125 
Q 26.5625 -7.421875 25.78125 -3.90625 
Q 25 -0.390625 27.140625 1.75 
Q 29.296875 3.90625 30.078125 7.8125 
Q 30.859375 11.71875 29.296875 14.25 
Q 27.734375 16.796875 31.828125 15.421875 
Q 35.9375 14.0625 35.15625 11.328125 
Q 34.375 8.59375 33.59375 5.65625 
Q 32.8125 2.734375 35.546875 2.921875 
Q 38.28125 3.125 48.046875 4.296875 
Q 48.046875 14.0625 47.84375 17.1875 
Q 47.65625 20.3125 46.28125 22.84375 
Q 44.921875 25.390625 47.65625 24.796875 
Q 50.390625 24.21875 52.921875 22.84375 
Q 55.46875 21.484375 54.09375 19.328125 
Q 52.734375 17.1875 52.34375 4.6875 
z
M 47.265625 34.375 
Q 52.34375 32.421875 59.5625 33 
Q 66.796875 33.59375 66.59375 34.953125 
Q 66.40625 36.328125 65.421875 41.40625 
Q 64.453125 46.484375 66.984375 42.1875 
Q 69.53125 37.890625 74.21875 34.375 
Q 78.90625 30.859375 65.421875 28.90625 
Q 51.953125 26.953125 44.140625 31.25 
Q 37.5 26.171875 30.265625 22.0625 
Q 23.046875 17.96875 15.8125 16.984375 
Q 8.59375 16.015625 14.25 18.15625 
Q 19.921875 20.3125 27.140625 24.609375 
Q 34.375 28.90625 39.84375 33.59375 
Q 37.890625 35.546875 35.734375 39.453125 
Q 33.59375 43.359375 33.203125 47.453125 
Q 32.8125 51.5625 35.9375 45.703125 
Q 39.0625 39.84375 43.359375 36.71875 
Q 49.21875 42.1875 53.515625 48.625 
Q 57.8125 55.078125 57.609375 57.609375 
Q 57.421875 60.15625 58.984375 59.5625 
Q 60.546875 58.984375 63.078125 57.21875 
Q 65.625 55.46875 64.0625 54.296875 
Q 62.5 53.125 58.390625 47.265625 
Q 54.296875 41.40625 47.265625 34.375 
z
M 25 61.328125 
Q 24.21875 55.859375 21.09375 51.5625 
Q 17.96875 47.265625 16.203125 50.390625 
Q 14.453125 53.515625 16.203125 56.046875 
Q 17.96875 58.59375 19.328125 61.515625 
Q 20.703125 64.453125 21.484375 67.765625 
Q 22.265625 71.09375 23.625 69.328125 
Q 25 67.578125 25.390625 64.0625 
Q 31.25 64.0625 45.3125 65.625 
Q 59.375 67.1875 67.375 68.359375 
Q 75.390625 69.53125 77.53125 70.3125 
Q 79.6875 71.09375 83.203125 69.140625 
Q 86.71875 67.1875 90.03125 63.859375 
Q 93.359375 60.546875 88.28125 60.15625 
Q 83.203125 59.765625 77.140625 56.640625 
Q 71.09375 53.515625 75.390625 59.171875 
Q 79.6875 64.84375 77.140625 65.421875 
Q 74.609375 66.015625 67.578125 65.234375 
Q 60.546875 64.453125 44.140625 62.5 
Q 27.734375 60.546875 25 61.328125 
z
M 22.265625 46.484375 
Q 24.609375 51.5625 25.78125 46.09375 
Q 26.953125 40.625 22.84375 34.765625 
Q 18.75 28.90625 16.984375 32.03125 
Q 15.234375 35.15625 17.578125 38.46875 
Q 19.921875 41.796875 22.265625 46.484375 
z
M 81.25 47.65625 
Q 86.71875 46.484375 86.515625 41.59375 
Q 86.328125 36.71875 82.21875 39.453125 
Q 78.125 42.1875 74.21875 45.703125 
Q 70.3125 49.21875 73.046875 49.21875 
Q 76.171875 49.21875 81.25 47.65625 
z
M 43.75 76.171875 
Q 40.234375 80.859375 46.28125 79.484375 
Q 52.34375 78.125 53.90625 75.578125 
Q 55.46875 73.046875 54.484375 70.109375 
Q 53.515625 67.1875 50.578125 69.328125 
Q 47.65625 71.484375 43.75 76.171875 
z
M 39.0625 55.078125 
Q 37.109375 58.984375 41.40625 57.8125 
Q 45.703125 56.640625 47.453125 54.875 
Q 49.21875 53.125 48.234375 50 
Q 47.265625 46.875 44.328125 49.015625 
Q 41.40625 51.171875 39.0625 55.078125 
z
" id="KaiTi-23494"/>
      <path d="M 58.984375 10.546875 
Q 68.75 4.296875 77.140625 1.75 
Q 85.546875 -0.78125 92.578125 -1.953125 
Q 99.609375 -3.125 92.578125 -4.6875 
Q 85.546875 -6.25 79.09375 -6.4375 
Q 72.65625 -6.640625 68.546875 -3.515625 
Q 64.453125 -0.390625 56.25 6.640625 
Q 50.390625 1.953125 43.15625 -0.78125 
Q 35.9375 -3.515625 29.296875 -3.515625 
Q 22.65625 -3.515625 27.921875 -2.140625 
Q 33.203125 -0.78125 40.03125 2.140625 
Q 46.875 5.078125 51.953125 10.15625 
Q 48.4375 14.0625 45.3125 16.203125 
Q 42.1875 18.359375 40.03125 19.53125 
Q 37.890625 20.703125 41.59375 21.09375 
Q 45.3125 21.484375 47.265625 19.53125 
Q 49.21875 17.578125 54.6875 12.890625 
Q 58.59375 17.96875 59.953125 22.453125 
Q 61.328125 26.953125 59.375 27.140625 
Q 57.421875 27.34375 52.140625 25.390625 
Q 46.875 23.4375 44.140625 23.4375 
Q 41.796875 23.4375 38.671875 24.796875 
Q 35.546875 26.171875 40.421875 26.5625 
Q 45.3125 26.953125 51.171875 28.3125 
Q 57.03125 29.6875 58.984375 31.4375 
Q 60.9375 33.203125 63.078125 32.421875 
Q 65.234375 31.640625 67.765625 29.875 
Q 70.3125 28.125 68.546875 26.5625 
Q 66.796875 25 64.640625 20.5 
Q 62.5 16.015625 58.984375 10.546875 
z
M 33.203125 59.765625 
Q 32.03125 40.625 28.90625 29.484375 
Q 25.78125 18.359375 21.09375 10.734375 
Q 16.40625 3.125 10.15625 -1.359375 
Q 3.90625 -5.859375 8 -0.96875 
Q 12.109375 3.90625 17.1875 12.6875 
Q 22.265625 21.484375 24.609375 33.203125 
Q 26.953125 44.921875 27.53125 51.5625 
Q 28.125 58.203125 27.140625 61.515625 
Q 26.171875 64.84375 28.125 64.25 
Q 30.078125 63.671875 31.25 63.078125 
Q 32.421875 62.5 38.28125 63.078125 
Q 44.140625 63.671875 51.953125 65.234375 
Q 59.765625 66.796875 65.03125 68.359375 
Q 70.3125 69.921875 73.234375 68.546875 
Q 76.171875 67.1875 74.21875 65.8125 
Q 72.265625 64.453125 67.1875 63.46875 
Q 62.109375 62.5 51.5625 61.125 
Q 41.015625 59.765625 33.203125 59.765625 
z
M 65.625 51.171875 
Q 69.921875 51.953125 73.046875 53.125 
Q 76.171875 54.296875 79.484375 52.140625 
Q 82.8125 50 78.515625 49.015625 
Q 74.21875 48.046875 64.84375 46.875 
L 63.28125 39.84375 
Q 66.015625 37.5 62.5 36.90625 
Q 58.984375 36.328125 48.828125 34.375 
Q 46.484375 32.03125 45.5 35.15625 
Q 44.53125 38.28125 43.359375 43.359375 
Q 39.453125 42.96875 37.6875 42.375 
Q 35.9375 41.796875 33.78125 43.546875 
Q 31.640625 45.3125 34.765625 45.703125 
Q 37.890625 46.09375 42.1875 46.875 
Q 41.40625 51.5625 39.84375 53.3125 
Q 38.28125 55.078125 40.625 55.078125 
Q 43.359375 55.078125 45.3125 54.484375 
Q 47.265625 53.90625 46.875 52.140625 
Q 46.484375 50.390625 46.875 48.046875 
Q 53.515625 49.21875 60.9375 50.390625 
Q 61.328125 56.25 60.34375 58.59375 
Q 59.375 60.9375 62.109375 60.34375 
Q 64.84375 59.765625 66.59375 58.59375 
Q 68.359375 57.421875 67.375 56.25 
Q 66.40625 55.078125 65.625 51.171875 
z
M 48.4375 37.109375 
Q 53.515625 38.671875 59.375 39.453125 
Q 59.765625 42.578125 60.15625 46.484375 
Q 52.734375 45.3125 47.65625 44.140625 
z
M 48.4375 75.78125 
Q 45.3125 80.078125 49.609375 79.484375 
Q 53.90625 78.90625 56.4375 76.953125 
Q 58.984375 75 58.203125 71.484375 
Q 57.421875 67.96875 54.484375 69.921875 
Q 51.5625 71.875 48.4375 75.78125 
z
" id="KaiTi-24230"/>
      <path d="M 63.28125 62.109375 
Q 71.484375 63.671875 75.578125 64.84375 
Q 79.6875 66.015625 82.609375 63.46875 
Q 85.546875 60.9375 81.046875 60.15625 
Q 76.5625 59.375 73.046875 58.59375 
L 62.5 57.03125 
Q 60.546875 49.21875 59.765625 46.484375 
Q 67.96875 48.046875 69.53125 49.40625 
Q 71.09375 50.78125 73.828125 49.796875 
Q 76.5625 48.828125 79.09375 47.265625 
Q 81.640625 45.703125 80.078125 43.75 
Q 78.515625 41.796875 77.921875 32.421875 
Q 77.34375 23.046875 76.953125 7.03125 
Q 82.03125 7.421875 86.125 8 
Q 90.234375 8.59375 93.15625 7.421875 
Q 96.09375 6.25 97.265625 3.90625 
Q 98.4375 1.5625 89.84375 2.53125 
Q 81.25 3.515625 70.109375 2.53125 
Q 58.984375 1.5625 51.75 0.390625 
Q 44.53125 -0.78125 40.625 -1.75 
Q 36.71875 -2.734375 32.609375 0 
Q 28.515625 2.734375 32.8125 2.734375 
Q 37.109375 2.734375 47.65625 4.296875 
Q 47.65625 13.28125 47.453125 26.359375 
Q 47.265625 39.453125 45.3125 42.1875 
Q 43.359375 44.921875 45.3125 44.921875 
Q 47.65625 44.921875 49.015625 44.71875 
Q 50.390625 44.53125 55.859375 45.703125 
Q 56.25 48.4375 57.421875 56.25 
Q 52.734375 55.46875 49.40625 54.875 
Q 46.09375 54.296875 42.578125 56.25 
Q 39.0625 58.203125 43.15625 58.390625 
Q 47.265625 58.59375 58.203125 60.9375 
Q 58.59375 64.84375 58.78125 69.140625 
Q 58.984375 73.4375 57.8125 75.78125 
Q 56.640625 78.125 58.59375 78.125 
Q 60.9375 78.125 64.640625 76.5625 
Q 68.359375 75 66.796875 73.046875 
Q 65.234375 71.09375 63.28125 62.109375 
z
M 51.953125 35.546875 
Q 58.203125 36.328125 61.125 37.296875 
Q 64.0625 38.28125 66.59375 36.90625 
Q 69.140625 35.546875 63.46875 34.171875 
Q 57.8125 32.8125 51.953125 33.203125 
L 51.953125 25.390625 
Q 56.640625 26.171875 60.34375 27.53125 
Q 64.0625 28.90625 66.203125 27.140625 
Q 68.359375 25.390625 63.28125 24.21875 
Q 58.203125 23.046875 51.953125 23.046875 
L 51.953125 15.234375 
Q 58.59375 16.40625 61.328125 17.375 
Q 64.0625 18.359375 66.59375 16.984375 
Q 69.140625 15.625 64.0625 14.25 
Q 58.984375 12.890625 51.953125 12.890625 
L 51.953125 4.6875 
Q 56.25 5.078125 71.875 6.640625 
Q 71.875 15.625 72.0625 29.09375 
Q 72.265625 42.578125 71.09375 43.75 
Q 69.921875 44.921875 67.1875 44.71875 
Q 64.453125 44.53125 51.953125 42.578125 
L 51.953125 35.546875 
z
M 25 49.21875 
Q 28.515625 45.703125 27.921875 39.84375 
Q 27.34375 33.984375 27.53125 15.625 
Q 27.734375 -2.734375 25.96875 -5.265625 
Q 24.21875 -7.8125 22.0625 -3.125 
Q 19.921875 1.5625 21.28125 6.828125 
Q 22.65625 12.109375 22.84375 19.921875 
Q 23.046875 27.734375 23.046875 34.765625 
Q 23.046875 41.796875 22.265625 44.921875 
Q 18.75 39.453125 14.25 34.953125 
Q 9.765625 30.46875 5.46875 28.3125 
Q 1.171875 26.171875 5.46875 30.65625 
Q 9.765625 35.15625 15.8125 44.53125 
Q 21.875 53.90625 25.1875 62.109375 
Q 28.515625 70.3125 28.125 74.015625 
Q 27.734375 77.734375 30.265625 76.5625 
Q 32.8125 75.390625 35.34375 73.046875 
Q 37.890625 70.703125 35.734375 68.9375 
Q 33.59375 67.1875 25 49.21875 
z
" id="KaiTi-20540"/>
     </defs>
     <g transform="translate(18.35625 168.130937)rotate(-90)scale(0.14 -0.14)">
      <use xlink:href="#KaiTi-27010"/>
      <use x="100" xlink:href="#KaiTi-29575"/>
      <use x="200" xlink:href="#KaiTi-23494"/>
      <use x="300" xlink:href="#KaiTi-24230"/>
      <use x="400" xlink:href="#KaiTi-20540"/>
     </g>
    </g>
   </g>
   <g id="line2d_35">
    <path clip-path="url(#p5501d0ba33)" d="M 81.324432 231.966128 
L 98.148552 231.862924 
L 104.266414 231.622401 
L 108.854811 231.215564 
L 111.913742 230.764646 
L 114.972673 230.111661 
L 118.031604 229.198712 
L 121.090535 227.963573 
L 124.149466 226.343268 
L 127.208397 224.278449 
L 130.267328 221.718223 
L 133.326259 218.624985 
L 136.38519 214.978795 
L 139.444121 210.780851 
L 142.503052 206.055719 
L 145.561983 200.852062 
L 148.620914 195.241809 
L 153.209311 186.271992 
L 163.915569 164.841922 
L 166.9745 159.170037 
L 170.033431 153.924406 
L 173.092362 149.210202 
L 176.151293 145.115834 
L 177.680759 143.323517 
L 179.210224 141.710536 
L 180.73969 140.282327 
L 182.269155 139.043013 
L 183.798621 137.995419 
L 185.328086 137.141096 
L 186.857552 136.480353 
L 188.387017 136.012316 
L 189.916483 135.734974 
L 191.445948 135.645256 
L 192.975414 135.739097 
L 194.50488 136.011519 
L 196.034345 136.456715 
L 197.563811 137.068136 
L 199.093276 137.838572 
L 200.622742 138.76025 
L 203.681673 141.023914 
L 206.740604 143.788863 
L 209.799535 146.981147 
L 212.858466 150.525538 
L 217.446862 156.340291 
L 223.564724 164.657468 
L 234.270983 179.433941 
L 238.859379 185.452411 
L 243.447776 191.127155 
L 248.036172 196.391936 
L 252.624569 201.207007 
L 255.6835 204.157798 
L 258.742431 206.899999 
L 261.801362 209.436004 
L 264.860293 211.770655 
L 267.919224 213.910752 
L 270.978155 215.864608 
L 275.566552 218.467029 
L 280.154948 220.706527 
L 284.743345 222.61956 
L 289.331741 224.24262 
L 293.920138 225.610992 
L 298.508534 226.757897 
L 303.096931 227.71395 
L 309.214793 228.73929 
L 315.332655 229.531718 
L 322.979982 230.267429 
L 332.156775 230.874231 
L 342.863034 231.322234 
L 356.628224 231.645296 
L 376.511275 231.852442 
L 385.688068 231.896562 
L 385.688068 231.896562 
" style="fill:none;stroke:#ff0000;stroke-linecap:square;stroke-width:2.5;"/>
   </g>
   <g id="line2d_36">
    <path clip-path="url(#p5501d0ba33)" d="M 81.324432 231.967301 
L 105.79588 231.874678 
L 108.854811 231.710515 
L 111.913742 231.322671 
L 113.443208 230.980904 
L 114.972673 230.490847 
L 116.502139 229.80371 
L 118.031604 228.860869 
L 119.56107 227.594025 
L 121.090535 225.926114 
L 122.620001 223.773125 
L 124.149466 221.046872 
L 125.678932 217.658725 
L 127.208397 213.524194 
L 128.737863 208.568156 
L 130.267328 202.730453 
L 131.796794 195.971494 
L 133.326259 188.27745 
L 134.855725 179.664643 
L 136.38519 170.182722 
L 139.444121 148.98496 
L 144.032518 113.865956 
L 147.091449 90.585793 
L 150.15038 69.534213 
L 151.679845 60.389769 
L 153.209311 52.419043 
L 154.738776 45.775949 
L 156.268242 40.579846 
L 157.797707 36.912394 
L 159.327173 34.81611 
L 160.856638 34.294574 
L 162.386104 35.314171 
L 163.915569 37.807167 
L 165.445035 41.675873 
L 166.9745 46.7976 
L 168.503966 53.030127 
L 170.033431 60.217377 
L 171.562897 68.19504 
L 174.621828 85.854756 
L 183.798621 141.738984 
L 186.857552 158.328825 
L 189.916483 173.02294 
L 191.445948 179.596433 
L 192.975414 185.644658 
L 194.50488 191.172616 
L 196.034345 196.193123 
L 197.563811 200.725274 
L 199.093276 204.792997 
L 200.622742 208.423737 
L 202.152207 211.647284 
L 203.681673 214.494751 
L 205.211138 216.997711 
L 206.740604 219.187479 
L 208.270069 221.094545 
L 209.799535 222.748125 
L 211.329 224.175844 
L 212.858466 225.403508 
L 214.387931 226.45497 
L 215.917397 227.35207 
L 218.976328 228.760495 
L 222.035259 229.764156 
L 225.09419 230.469887 
L 228.153121 230.959921 
L 232.741517 231.421424 
L 238.859379 231.733618 
L 248.036172 231.905708 
L 267.919224 231.96452 
L 385.688068 231.967301 
L 385.688068 231.967301 
" style="fill:none;stroke:#0000ff;stroke-linecap:square;stroke-width:2.5;"/>
   </g>
   <g id="patch_3">
    <path d="M 66.10625 241.850937 
L 66.10625 24.410937 
" style="fill:none;stroke:#000000;stroke-linecap:square;stroke-linejoin:miter;stroke-width:0.8;"/>
   </g>
   <g id="patch_4">
    <path d="M 400.90625 241.850937 
L 400.90625 24.410937 
" style="fill:none;stroke:#000000;stroke-linecap:square;stroke-linejoin:miter;stroke-width:0.8;"/>
   </g>
   <g id="patch_5">
    <path d="M 66.10625 241.850937 
L 400.90625 241.850937 
" style="fill:none;stroke:#000000;stroke-linecap:square;stroke-linejoin:miter;stroke-width:0.8;"/>
   </g>
   <g id="patch_6">
    <path d="M 66.10625 24.410937 
L 400.90625 24.410937 
" style="fill:none;stroke:#000000;stroke-linecap:square;stroke-linejoin:miter;stroke-width:0.8;"/>
   </g>
   <g id="text_20">
    <!-- 上汽集团和广汽集团股价服从的对数正态分布图 -->
    <defs>
     <path d="M 52.34375 44.921875 
Q 58.203125 46.09375 61.90625 47.0625 
Q 65.625 48.046875 69.53125 49.21875 
Q 73.4375 50.390625 77.34375 48.828125 
Q 81.25 47.265625 76.5625 45.3125 
Q 71.875 43.359375 64.640625 42.578125 
Q 57.421875 41.796875 52.34375 41.796875 
Q 51.953125 33.59375 51.5625 10.546875 
Q 63.28125 11.71875 69.921875 12.296875 
Q 76.5625 12.890625 80.265625 13.46875 
Q 83.984375 14.0625 87.890625 13.078125 
Q 91.796875 12.109375 94.328125 8.78125 
Q 96.875 5.46875 86.515625 6.25 
Q 76.171875 7.03125 67.375 6.828125 
Q 58.59375 6.640625 47.65625 5.65625 
Q 36.71875 4.6875 27.53125 3.515625 
Q 18.359375 2.34375 15.625 1.75 
Q 12.890625 1.171875 8.78125 4.296875 
Q 4.6875 7.421875 8.984375 7.421875 
Q 13.28125 7.421875 23.4375 8.203125 
Q 33.59375 8.984375 46.875 10.15625 
L 46.875 52.34375 
Q 46.875 69.53125 44.140625 73.828125 
Q 41.40625 78.125 48.4375 75.390625 
Q 55.46875 72.65625 54.484375 70.109375 
Q 53.515625 67.578125 52.921875 60.734375 
Q 52.34375 53.90625 52.34375 44.921875 
z
" id="KaiTi-19978"/>
     <path d="M 76.5625 42.96875 
Q 78.125 41.796875 75.390625 40.234375 
Q 72.65625 38.671875 70.890625 33.984375 
Q 69.140625 29.296875 69.140625 19.53125 
Q 69.140625 9.765625 73.4375 5.859375 
Q 77.734375 1.953125 83.203125 0.96875 
Q 88.671875 0 89.25 2.734375 
Q 89.84375 5.46875 91.015625 11.90625 
Q 92.1875 18.359375 92.578125 10.15625 
Q 92.96875 1.953125 95.3125 -2.34375 
Q 97.65625 -6.640625 91.984375 -6.828125 
Q 86.328125 -7.03125 79.09375 -4.875 
Q 71.875 -2.734375 67.765625 4.6875 
Q 63.671875 12.109375 64.453125 21.09375 
Q 65.234375 30.078125 66.59375 35.15625 
Q 67.96875 40.234375 64.453125 39.0625 
Q 60.9375 37.890625 55.46875 35.9375 
Q 50 33.984375 46.671875 32.609375 
Q 43.359375 31.25 39.453125 33.390625 
Q 35.546875 35.546875 40.625 35.9375 
Q 45.703125 36.328125 55.265625 39.453125 
Q 64.84375 42.578125 67.375 44.71875 
Q 69.921875 46.875 72.65625 45.703125 
Q 75.390625 44.53125 76.5625 42.96875 
z
M 51.953125 63.28125 
Q 62.890625 65.625 67.96875 67.765625 
Q 73.046875 69.921875 76.75 67.96875 
Q 80.46875 66.015625 72.453125 63.671875 
Q 64.453125 61.328125 59.5625 60.34375 
Q 54.6875 59.375 50 60.9375 
Q 44.140625 53.90625 38.859375 50.96875 
Q 33.59375 48.046875 38.859375 53.515625 
Q 44.140625 58.984375 48.046875 66.40625 
Q 51.953125 73.828125 50.96875 76.75 
Q 50 79.6875 55.46875 76.953125 
Q 60.9375 74.21875 58.78125 72.0625 
Q 56.640625 69.921875 51.953125 63.28125 
z
M 23.4375 15.234375 
Q 20.3125 6.25 20.109375 0.78125 
Q 19.921875 -4.6875 15.03125 1.75 
Q 10.15625 8.203125 12.109375 9.171875 
Q 14.0625 10.15625 17.375 15.421875 
Q 20.703125 20.703125 25.78125 30.078125 
Q 30.859375 39.453125 28.90625 32.03125 
Q 26.953125 24.609375 23.4375 15.234375 
z
M 62.5 55.078125 
Q 66.40625 56.25 69.140625 54.484375 
Q 71.875 52.734375 67.765625 51.171875 
Q 63.671875 49.609375 57.8125 48.625 
Q 51.953125 47.65625 48.4375 48.828125 
Q 44.921875 50 48.828125 51.171875 
Q 52.734375 52.34375 55.859375 53.125 
Q 58.984375 53.90625 62.5 55.078125 
z
M 20.3125 65.234375 
Q 17.96875 69.53125 22.65625 68.75 
Q 27.34375 67.96875 29.484375 65.421875 
Q 31.640625 62.890625 30.859375 59.5625 
Q 30.078125 56.25 26.5625 58.78125 
Q 23.046875 61.328125 20.3125 65.234375 
z
M 13.28125 46.484375 
Q 11.71875 50.390625 16.59375 49.015625 
Q 21.484375 47.65625 23.046875 45.3125 
Q 24.609375 42.96875 23.625 39.640625 
Q 22.65625 36.328125 18.9375 39.453125 
Q 15.234375 42.578125 13.28125 46.484375 
z
" id="KaiTi-27773"/>
     <path d="M 44.53125 35.9375 
Q 36.71875 33.984375 33.59375 35.546875 
Q 32.421875 25.78125 29.875 29.875 
Q 27.34375 33.984375 28.703125 38.671875 
Q 30.078125 43.359375 30.078125 50.390625 
Q 30.078125 57.8125 28.90625 62.109375 
Q 21.09375 55.078125 16.796875 53.3125 
Q 12.5 51.5625 17.1875 55.65625 
Q 21.875 59.765625 27.921875 67.1875 
Q 33.984375 74.609375 33.59375 77.53125 
Q 33.203125 80.46875 35.9375 79.484375 
Q 38.671875 78.515625 40.421875 76.953125 
Q 42.1875 75.390625 40.421875 74.015625 
Q 38.671875 72.65625 30.859375 63.671875 
Q 35.15625 59.375 34.375 56.046875 
Q 33.59375 52.734375 33.59375 37.890625 
Q 42.1875 38.28125 51.171875 39.84375 
L 51.171875 46.09375 
Q 48.4375 45.703125 46.28125 45.3125 
Q 44.140625 44.921875 41.796875 46.484375 
Q 39.453125 48.046875 42.375 48.234375 
Q 45.3125 48.4375 51.171875 49.609375 
L 51.171875 54.6875 
Q 48.046875 54.296875 45.890625 53.703125 
Q 43.75 53.125 41.015625 54.6875 
Q 38.28125 56.25 41.796875 56.640625 
Q 45.3125 57.03125 51.171875 58.203125 
Q 51.171875 60.546875 50 63.671875 
Q 45.703125 62.890625 43.359375 62.6875 
Q 41.015625 62.5 38.671875 63.859375 
Q 36.328125 65.234375 40.03125 65.625 
Q 43.75 66.015625 53.125 67.96875 
Q 62.5 69.921875 66.015625 71.09375 
Q 69.53125 72.265625 72.0625 70.3125 
Q 74.609375 68.359375 69.71875 67.375 
Q 64.84375 66.40625 54.6875 64.453125 
Q 57.03125 63.28125 57.03125 62.109375 
Q 57.03125 61.328125 56.640625 59.375 
Q 58.984375 59.765625 62.6875 60.734375 
Q 66.40625 61.71875 68.359375 59.765625 
Q 70.3125 57.8125 66.015625 57.21875 
Q 61.71875 56.640625 56.640625 55.46875 
L 56.25 50 
Q 59.765625 51.171875 63.078125 52.140625 
Q 66.40625 53.125 68.15625 51.359375 
Q 69.921875 49.609375 66.40625 48.828125 
Q 62.890625 48.046875 56.25 46.875 
L 55.859375 41.015625 
Q 64.0625 42.1875 67.578125 42.96875 
Q 71.09375 43.75 74.40625 41.203125 
Q 77.734375 38.671875 72.65625 38.671875 
Q 67.578125 38.671875 61.71875 37.890625 
Q 55.859375 37.109375 46.875 36.328125 
Q 52.734375 34.765625 52.140625 33.203125 
Q 51.5625 31.640625 51.5625 28.125 
Q 72.265625 30.46875 76.5625 31.640625 
Q 80.859375 32.8125 84.171875 30.65625 
Q 87.5 28.515625 86.328125 27.921875 
Q 85.15625 27.34375 80.859375 26.953125 
Q 76.5625 26.5625 69.53125 26.359375 
Q 62.5 26.171875 51.5625 24.609375 
Q 58.984375 17.578125 67.765625 12.6875 
Q 76.5625 7.8125 87.109375 5.859375 
Q 97.65625 3.90625 94.140625 3.125 
Q 90.625 2.34375 81.25 1.359375 
Q 71.875 0.390625 67.1875 5.078125 
Q 62.5 9.765625 51.171875 21.875 
Q 51.953125 -1.171875 50.78125 -6.046875 
Q 49.609375 -10.9375 47.0625 -6.828125 
Q 44.53125 -2.734375 45.890625 1.75 
Q 47.265625 6.25 47.265625 21.484375 
Q 41.40625 14.84375 33.203125 8.59375 
Q 25 2.34375 15.8125 -0.78125 
Q 6.640625 -3.90625 13.46875 0 
Q 20.3125 3.90625 27.734375 9.171875 
Q 35.15625 14.453125 42.578125 23.828125 
Q 23.4375 21.484375 18.9375 19.921875 
Q 14.453125 18.359375 9.765625 21.28125 
Q 5.078125 24.21875 11.328125 24.015625 
Q 17.578125 23.828125 46.875 27.734375 
Q 46.484375 32.03125 44.53125 35.9375 
z
M 48.046875 75.78125 
Q 44.53125 79.6875 48.234375 79.484375 
Q 51.953125 79.296875 54.6875 77.921875 
Q 57.421875 76.5625 57.03125 73.4375 
Q 56.640625 70.3125 54.296875 71.09375 
Q 51.953125 71.875 48.046875 75.78125 
z
" id="KaiTi-38598"/>
     <path d="M 24.21875 3.515625 
Q 23.046875 -1.171875 21.671875 -2.921875 
Q 20.3125 -4.6875 18.546875 0.1875 
Q 16.796875 5.078125 18.15625 8.78125 
Q 19.53125 12.5 20.109375 21.28125 
Q 20.703125 30.078125 21.09375 36.90625 
Q 21.484375 43.75 21.09375 54.875 
Q 20.703125 66.015625 19.328125 68.546875 
Q 17.96875 71.09375 20.109375 70.703125 
Q 22.265625 70.3125 24.21875 69.328125 
Q 26.171875 68.359375 27.921875 68.15625 
Q 29.6875 67.96875 40.234375 68.9375 
Q 50.78125 69.921875 59.953125 71.28125 
Q 69.140625 72.65625 71.28125 73.625 
Q 73.4375 74.609375 79.484375 71.28125 
Q 85.546875 67.96875 84.171875 65.234375 
Q 82.8125 62.5 82.21875 55.65625 
Q 81.640625 48.828125 82.03125 40.421875 
Q 82.421875 32.03125 82.8125 23.828125 
Q 83.203125 15.625 83.203125 8.59375 
Q 83.203125 1.953125 80.078125 -3.90625 
Q 76.953125 -9.765625 74.015625 -1.5625 
Q 71.09375 6.640625 65.625 6.046875 
Q 60.15625 5.46875 54.296875 5.265625 
Q 48.4375 5.078125 38.078125 3.703125 
Q 27.734375 2.34375 24.21875 3.515625 
z
M 24.21875 5.859375 
Q 35.15625 6.640625 42.375 7.609375 
Q 49.609375 8.59375 55.265625 9.765625 
Q 60.9375 10.9375 65.8125 10.734375 
Q 70.703125 10.546875 73.625 7.609375 
Q 76.5625 4.6875 76.5625 28.515625 
Q 76.5625 52.734375 75.578125 59.953125 
Q 74.609375 67.1875 71.28125 67.765625 
Q 67.96875 68.359375 57.8125 67.578125 
Q 47.65625 66.796875 26.5625 64.84375 
Q 26.171875 53.515625 25.96875 41.203125 
Q 25.78125 28.90625 24.21875 5.859375 
z
M 57.03125 50.390625 
Q 60.9375 51.171875 64.25 52.140625 
Q 67.578125 53.125 69.328125 50.96875 
Q 71.09375 48.828125 67.375 48.046875 
Q 63.671875 47.265625 57.03125 46.09375 
Q 57.421875 39.453125 57.609375 33.390625 
Q 57.8125 27.34375 58.203125 22.65625 
Q 58.59375 17.96875 55.65625 13.28125 
Q 52.734375 8.59375 51.171875 12.5 
Q 49.609375 16.40625 45.890625 18.9375 
Q 42.1875 21.484375 46.875 20.5 
Q 51.5625 19.53125 52.34375 22.65625 
Q 53.125 25.78125 52.34375 39.0625 
Q 50 35.15625 44.328125 29.6875 
Q 38.671875 24.21875 33.203125 21.875 
Q 27.734375 19.53125 32.03125 23.046875 
Q 36.328125 26.5625 41.59375 32.609375 
Q 46.875 38.671875 49.21875 44.53125 
Q 44.53125 43.75 41.59375 43.15625 
Q 38.671875 42.578125 35.15625 44.53125 
Q 31.640625 46.484375 35.546875 46.671875 
Q 39.453125 46.875 43.75 47.65625 
L 52.34375 49.21875 
Q 52.34375 53.125 51.75 56.640625 
Q 51.171875 60.15625 49.40625 62.890625 
Q 47.65625 65.625 50.390625 65.234375 
Q 53.125 64.84375 55.65625 64.0625 
Q 58.203125 63.28125 57.609375 61.515625 
Q 57.03125 59.765625 57.03125 50.390625 
z
" id="KaiTi-22242"/>
     <path d="M 85.15625 24.21875 
Q 91.015625 19.53125 87.5 19.328125 
Q 83.984375 19.140625 78.3125 18.9375 
Q 72.65625 18.75 61.71875 17.578125 
Q 61.328125 11.71875 59.953125 11.125 
Q 58.59375 10.546875 57.609375 18.15625 
Q 56.640625 25.78125 55.46875 32.421875 
Q 54.296875 39.0625 52.734375 41.984375 
Q 51.171875 44.921875 54.09375 44.53125 
Q 57.03125 44.140625 58.59375 43.359375 
Q 60.15625 42.578125 68.359375 43.75 
Q 77.734375 45.703125 80.265625 47.265625 
Q 82.8125 48.828125 86.90625 47.0625 
Q 91.015625 45.3125 93.75 43.359375 
Q 96.484375 41.40625 93.15625 38.859375 
Q 89.84375 36.328125 85.15625 24.21875 
z
M 33.984375 35.15625 
Q 31.25 29.6875 25.1875 22.265625 
Q 19.140625 14.84375 11.71875 10.34375 
Q 4.296875 5.859375 9.5625 10.9375 
Q 14.84375 16.015625 22.0625 25.78125 
Q 29.296875 35.546875 32.03125 43.75 
Q 26.953125 42.1875 23.046875 40.625 
L 15.234375 37.890625 
Q 11.328125 36.71875 7.21875 39.453125 
Q 3.125 42.1875 7.8125 42.375 
Q 12.5 42.578125 18.359375 43.9375 
Q 24.21875 45.3125 33.59375 48.046875 
Q 33.59375 52.34375 33.203125 55.265625 
Q 32.8125 58.203125 31.640625 61.328125 
Q 26.953125 60.15625 23.828125 60.15625 
Q 21.09375 60.15625 25.1875 62.109375 
Q 29.296875 64.0625 33.390625 66.59375 
Q 37.5 69.140625 39.640625 71.28125 
Q 41.796875 73.4375 42.375 75.1875 
Q 42.96875 76.953125 46.484375 75.78125 
Q 50 74.609375 52.140625 72.453125 
Q 54.296875 70.3125 51.359375 69.53125 
Q 48.4375 68.75 43.546875 66.796875 
Q 38.671875 64.84375 33.59375 62.890625 
Q 39.84375 60.15625 39.0625 58.203125 
Q 38.28125 56.25 38.28125 49.609375 
Q 43.75 50.78125 46.671875 51.953125 
Q 49.609375 53.125 51.953125 50.96875 
Q 54.296875 48.828125 50.1875 48.046875 
Q 46.09375 47.265625 38.671875 45.703125 
L 38.671875 33.59375 
Q 44.921875 32.03125 47.84375 30.46875 
Q 50.78125 28.90625 51.171875 25.1875 
Q 51.5625 21.484375 48.046875 22.84375 
Q 44.53125 24.21875 38.671875 31.25 
L 38.671875 13.671875 
Q 38.671875 3.90625 37.5 -1.75 
Q 36.328125 -7.421875 33.78125 -2.921875 
Q 31.25 1.5625 32.03125 4.484375 
Q 32.8125 7.421875 33.390625 14.25 
Q 33.984375 21.09375 33.984375 35.15625 
z
M 61.71875 21.484375 
Q 70.3125 22.265625 80.859375 23.828125 
Q 81.640625 28.515625 82.421875 34.5625 
Q 83.203125 40.625 81.640625 41.40625 
Q 80.078125 42.1875 74.609375 41.40625 
Q 69.140625 40.625 60.546875 39.453125 
Q 61.328125 26.953125 61.71875 21.484375 
z
" id="KaiTi-21644"/>
     <path d="M 36.71875 54.6875 
Q 35.546875 33.59375 33.203125 24.21875 
Q 30.859375 14.84375 26.171875 7.03125 
Q 21.484375 -0.78125 13.28125 -5.65625 
Q 5.078125 -10.546875 12.296875 -3.515625 
Q 19.53125 3.515625 23.4375 11.71875 
Q 27.34375 19.921875 28.703125 28.90625 
Q 30.078125 37.890625 30.46875 46.484375 
Q 30.859375 55.078125 29.296875 58 
Q 27.734375 60.9375 30.265625 60.34375 
Q 32.8125 59.765625 34.5625 58.78125 
Q 36.328125 57.8125 42.1875 58.390625 
Q 48.046875 58.984375 57.03125 60.15625 
Q 66.015625 61.328125 71.09375 62.6875 
Q 76.171875 64.0625 78.90625 64.0625 
Q 81.640625 64.0625 83.59375 62.296875 
Q 85.546875 60.546875 83.984375 59.5625 
Q 82.421875 58.59375 76.953125 57.8125 
Q 71.484375 57.03125 61.515625 56.046875 
Q 51.5625 55.078125 36.71875 54.6875 
z
M 53.90625 67.96875 
Q 50.390625 72.265625 48.828125 74.796875 
Q 47.265625 77.34375 52.921875 76.171875 
Q 58.59375 75 60.15625 72.265625 
Q 61.71875 69.53125 60.9375 65.8125 
Q 60.15625 62.109375 53.90625 67.96875 
z
" id="KaiTi-24191"/>
     <path d="M 52.34375 36.71875 
Q 57.8125 37.5 62.5 39.0625 
Q 67.1875 40.625 68.546875 42.375 
Q 69.921875 44.140625 72.453125 42.765625 
Q 75 41.40625 76.953125 39.84375 
Q 78.90625 38.28125 77.53125 36.328125 
Q 76.171875 34.375 74.796875 27.921875 
Q 73.4375 21.484375 71.09375 15.625 
Q 75.390625 11.328125 81.828125 8 
Q 88.28125 4.6875 93.546875 3.515625 
Q 98.828125 2.34375 96.09375 1.75 
Q 93.359375 1.171875 86.515625 0 
Q 79.6875 -1.171875 77.34375 0.78125 
Q 75 2.734375 67.578125 12.109375 
Q 60.546875 7.03125 55.265625 6.828125 
Q 50 6.640625 55.265625 8.984375 
Q 60.546875 11.328125 64.453125 16.015625 
Q 60.9375 21.875 58.984375 24.796875 
Q 57.03125 27.734375 54.296875 30.078125 
Q 51.5625 32.421875 54.6875 32.421875 
Q 58.203125 32.421875 59.953125 29.484375 
Q 61.71875 26.5625 67.1875 19.921875 
Q 68.359375 23.046875 69.328125 27.921875 
Q 70.3125 32.8125 70.109375 35.34375 
Q 69.921875 37.890625 66.796875 37.296875 
Q 63.671875 36.71875 59.765625 35.15625 
Q 55.859375 33.59375 52.34375 35.15625 
Q 52.34375 9.375 51.171875 1.359375 
Q 50 -6.640625 48.4375 -4.09375 
Q 46.875 -1.5625 46.09375 1.953125 
Q 45.3125 5.46875 46.671875 10.15625 
Q 48.046875 14.84375 48.234375 34.765625 
Q 48.4375 54.6875 47.65625 59.5625 
Q 46.875 64.453125 44.921875 67.375 
Q 42.96875 70.3125 45.109375 70.109375 
Q 47.265625 69.921875 49.21875 69.328125 
Q 51.171875 68.75 57.609375 70.5 
Q 64.0625 72.265625 66.40625 74.21875 
Q 68.75 76.171875 71.09375 75.1875 
Q 73.4375 74.21875 76.359375 72.265625 
Q 79.296875 70.3125 77.53125 68.75 
Q 75.78125 67.1875 74.609375 64.453125 
Q 73.4375 61.71875 73.046875 58.59375 
Q 72.65625 55.46875 71.09375 52.734375 
Q 69.53125 50 67.1875 48.4375 
Q 64.84375 46.875 64.0625 50.390625 
Q 63.28125 53.90625 59.171875 57.21875 
Q 55.078125 60.546875 60.34375 58.984375 
Q 65.625 57.421875 66.984375 59.5625 
Q 68.359375 61.71875 68.546875 66.015625 
Q 68.75 70.3125 65.421875 69.53125 
Q 62.109375 68.75 52.34375 66.015625 
z
M 21.09375 50.390625 
Q 23.046875 50.78125 25.390625 51.5625 
Q 27.734375 52.34375 28.90625 50.578125 
Q 30.078125 48.828125 27.34375 48.046875 
Q 24.609375 47.265625 21.09375 46.875 
L 20.703125 35.546875 
Q 23.046875 35.9375 25.1875 36.328125 
Q 27.34375 36.71875 28.703125 35.15625 
Q 30.078125 33.59375 27.140625 32.609375 
Q 24.21875 31.640625 20.703125 32.03125 
Q 18.75 18.359375 15.03125 11.515625 
Q 11.328125 4.6875 5.65625 0 
Q 0 -4.6875 5.078125 2.34375 
Q 10.15625 9.375 12.6875 16.984375 
Q 15.234375 24.609375 16.015625 32.421875 
Q 16.796875 40.234375 16.796875 51.953125 
Q 16.796875 63.671875 14.453125 66.984375 
Q 12.109375 70.3125 14.640625 69.71875 
Q 17.1875 69.140625 18.75 68.546875 
Q 20.3125 67.96875 24.21875 68.75 
Q 28.125 69.53125 29.875 71.28125 
Q 31.640625 73.046875 34.171875 71.671875 
Q 36.71875 70.3125 38.671875 68.75 
Q 40.625 67.1875 39.0625 65.625 
Q 37.5 64.0625 36.90625 60.9375 
Q 36.328125 57.8125 36.125 48.4375 
Q 35.9375 39.0625 36.515625 24.796875 
Q 37.109375 10.546875 35.9375 7.03125 
Q 34.765625 3.515625 32.609375 0.96875 
Q 30.46875 -1.5625 28.90625 2.921875 
Q 27.34375 7.421875 23.625 10.9375 
Q 19.921875 14.453125 23.828125 13.078125 
Q 27.734375 11.71875 29.484375 11.328125 
Q 31.25 10.9375 31.640625 24.21875 
Q 32.03125 37.5 31.640625 51.171875 
Q 31.25 64.84375 31.046875 66.015625 
Q 30.859375 67.1875 28.703125 66.796875 
Q 26.5625 66.40625 21.09375 65.234375 
z
" id="KaiTi-26381"/>
     <path d="M 60.15625 39.84375 
Q 69.921875 25 76.359375 19.140625 
Q 82.8125 13.28125 90.8125 10.15625 
Q 98.828125 7.03125 92.96875 6.640625 
Q 87.109375 6.25 80.859375 6.4375 
Q 74.609375 6.640625 70.5 13.671875 
Q 66.40625 20.703125 59.375 36.328125 
Q 53.515625 20.703125 47.265625 12.6875 
Q 41.015625 4.6875 33.78125 0.78125 
Q 26.5625 -3.125 33.78125 3.90625 
Q 41.015625 10.9375 46.484375 21.671875 
Q 51.953125 32.421875 54.484375 42.1875 
Q 57.03125 51.953125 58 59.171875 
Q 58.984375 66.40625 57.609375 70.5 
Q 56.25 74.609375 59.5625 73.625 
Q 62.890625 72.65625 65.625 70.5 
Q 68.359375 68.359375 66.984375 66.203125 
Q 65.625 64.0625 64.0625 56.640625 
Q 62.5 49.21875 60.15625 39.84375 
z
M 29.6875 37.890625 
Q 39.453125 34.765625 41.984375 29.875 
Q 44.53125 25 42.765625 21.09375 
Q 41.015625 17.1875 36.515625 24.21875 
Q 32.03125 31.25 28.90625 36.328125 
Q 25 26.953125 19.53125 19.53125 
Q 14.0625 12.109375 8.59375 8.78125 
Q 3.125 5.46875 8 11.125 
Q 12.890625 16.796875 17.578125 25.1875 
Q 22.265625 33.59375 25.1875 41.59375 
Q 28.125 49.609375 29.6875 57.03125 
Q 31.25 64.453125 30.078125 67.578125 
Q 28.90625 70.703125 32.21875 69.71875 
Q 35.546875 68.75 38.28125 66.59375 
Q 41.015625 64.453125 39.0625 61.90625 
Q 37.109375 59.375 34.5625 52.734375 
Q 32.03125 46.09375 29.6875 37.890625 
z
" id="KaiTi-20174"/>
     <path d="M 20.3125 47.65625 
Q 29.6875 49.21875 32.421875 51.5625 
Q 35.15625 53.90625 38.078125 52.53125 
Q 41.015625 51.171875 43.359375 49.609375 
Q 45.703125 48.046875 44.328125 45.890625 
Q 42.96875 43.75 42.1875 40.234375 
Q 41.40625 36.71875 41.796875 27.34375 
Q 42.1875 17.96875 41.203125 13.28125 
Q 40.234375 8.59375 39.0625 6.046875 
Q 37.890625 3.515625 36.515625 6.046875 
Q 35.15625 8.59375 33.984375 10.734375 
Q 32.8125 12.890625 31.4375 13.078125 
Q 30.078125 13.28125 20.3125 11.71875 
Q 18.75 3.125 16.984375 6.640625 
Q 15.234375 10.15625 15.234375 16.40625 
Q 15.234375 22.65625 14.84375 32.03125 
Q 14.453125 41.40625 12.109375 44.921875 
Q 9.765625 48.4375 11.71875 48.4375 
Q 13.671875 48.4375 17.1875 47.65625 
Q 20.703125 52.34375 24.40625 60.34375 
Q 28.125 68.359375 26.75 72.265625 
Q 25.390625 76.171875 31.25 73.4375 
Q 38.28125 70.3125 35.734375 68.15625 
Q 33.203125 66.015625 30.078125 61.328125 
Q 26.953125 56.640625 20.3125 47.65625 
z
M 59.375 51.171875 
Q 73.4375 51.953125 76.171875 53.90625 
Q 78.90625 55.859375 82.21875 54.484375 
Q 85.546875 53.125 87.6875 50.96875 
Q 89.84375 48.828125 87.890625 46.875 
Q 85.9375 44.921875 85.15625 36.71875 
Q 84.375 28.515625 83.78125 20.3125 
Q 83.203125 12.109375 80.46875 6.4375 
Q 77.734375 0.78125 72.65625 -2.140625 
Q 67.578125 -5.078125 67.1875 -0.78125 
Q 66.796875 3.515625 62.296875 8.59375 
Q 57.8125 13.671875 62.6875 11.125 
Q 67.578125 8.59375 70.5 8 
Q 73.4375 7.421875 75.578125 12.5 
Q 77.734375 17.578125 78.515625 26.75 
Q 79.296875 35.9375 79.296875 42.1875 
Q 79.296875 48.4375 77.734375 49.40625 
Q 76.171875 50.390625 71.09375 49.21875 
L 63.28125 47.265625 
Q 60.9375 46.875 58.203125 49.21875 
Q 51.5625 42.1875 46.09375 38.671875 
Q 40.625 35.15625 46.875 42.1875 
Q 53.125 49.21875 58.390625 59.375 
Q 63.671875 69.53125 62.296875 73.625 
Q 60.9375 77.734375 64.84375 76.5625 
Q 68.75 75.390625 70.890625 73.828125 
Q 73.046875 72.265625 71.28125 70.3125 
Q 69.53125 68.359375 66.984375 63.28125 
Q 64.453125 58.203125 59.375 51.171875 
z
M 19.53125 30.859375 
Q 24.609375 31.640625 26.5625 32.609375 
Q 28.515625 33.59375 30.65625 31.828125 
Q 32.8125 30.078125 29.09375 28.703125 
Q 25.390625 27.34375 19.53125 27.34375 
L 19.921875 14.84375 
Q 23.4375 15.234375 26.953125 16.59375 
Q 30.46875 17.96875 32.21875 16.203125 
Q 33.984375 14.453125 34.953125 16.984375 
Q 35.9375 19.53125 36.125 31.25 
Q 36.328125 42.96875 35.15625 44.71875 
Q 33.984375 46.484375 31.4375 46.28125 
Q 28.90625 46.09375 19.140625 44.140625 
L 19.53125 30.859375 
z
M 58.203125 26.171875 
Q 53.125 33.203125 52.140625 35.15625 
Q 51.171875 37.109375 55.859375 35.734375 
Q 60.546875 34.375 62.890625 31.25 
Q 65.234375 28.125 64.25 23.828125 
Q 63.28125 19.53125 58.203125 26.171875 
z
" id="KaiTi-30340"/>
     <path d="M 73.828125 52.34375 
Q 82.03125 53.515625 85.734375 54.484375 
Q 89.453125 55.46875 92.578125 52.53125 
Q 95.703125 49.609375 90.03125 49.21875 
Q 84.375 48.828125 73.828125 47.65625 
Q 74.21875 22.265625 74.796875 14.0625 
Q 75.390625 5.859375 73.828125 2.140625 
Q 72.265625 -1.5625 69.53125 -4.09375 
Q 66.796875 -6.640625 65.625 -2.53125 
Q 64.453125 1.5625 59.5625 6.046875 
Q 54.6875 10.546875 59.375 8.984375 
Q 64.0625 7.421875 66.40625 7.421875 
Q 68.75 7.421875 68.75 16.015625 
L 68.75 46.875 
Q 63.671875 46.484375 59.171875 45.890625 
Q 54.6875 45.3125 51.359375 44.53125 
Q 48.046875 43.75 44.328125 46.28125 
Q 40.625 48.828125 44.921875 49.015625 
Q 49.21875 49.21875 54.6875 49.796875 
Q 60.15625 50.390625 68.75 51.5625 
Q 68.75 57.8125 68.359375 66.015625 
Q 67.96875 74.21875 65.234375 77.921875 
Q 62.5 81.640625 70.703125 78.515625 
Q 76.5625 76.171875 75.578125 73.828125 
Q 74.609375 71.484375 74.21875 66.40625 
Q 73.828125 61.328125 73.828125 52.34375 
z
M 33.59375 33.203125 
Q 39.84375 25.78125 41.59375 22.265625 
Q 43.359375 18.75 41.984375 15.234375 
Q 40.625 11.71875 37.109375 17.1875 
Q 33.59375 22.65625 30.46875 27.34375 
Q 25 19.53125 19.328125 15.03125 
Q 13.671875 10.546875 8.390625 8.59375 
Q 3.125 6.640625 7.8125 10.34375 
Q 12.5 14.0625 17.375 18.9375 
Q 22.265625 23.828125 26.5625 31.640625 
Q 21.09375 37.890625 18.9375 40.421875 
Q 16.796875 42.96875 13.46875 46.484375 
Q 10.15625 50 15.625 46.875 
Q 21.09375 43.75 28.90625 36.71875 
Q 30.46875 40.234375 32.421875 48.046875 
Q 34.375 55.859375 33.59375 56.828125 
Q 32.8125 57.8125 31.640625 57.8125 
Q 30.859375 57.8125 26.75 56.640625 
Q 22.65625 55.46875 19.140625 54.484375 
Q 15.625 53.515625 12.296875 55.46875 
Q 8.984375 57.421875 13.859375 57.609375 
Q 18.75 57.8125 24.609375 59.765625 
Q 30.46875 61.71875 32.421875 63.28125 
Q 34.375 64.84375 37.109375 63.859375 
Q 39.84375 62.890625 41.984375 61.328125 
Q 44.140625 59.765625 42.375 58.59375 
Q 40.625 57.421875 39.640625 53.90625 
Q 38.671875 50.390625 36.90625 44.140625 
Q 35.15625 37.890625 33.59375 33.203125 
z
M 47.65625 35.15625 
Q 45.3125 39.453125 49.21875 38.28125 
Q 53.125 37.109375 55.265625 35.546875 
Q 57.421875 33.984375 57.8125 31.25 
Q 58.203125 28.515625 57.03125 26.359375 
Q 55.859375 24.21875 53.125 27.734375 
Q 50.390625 31.25 47.65625 35.15625 
z
" id="KaiTi-23545"/>
     <path d="M 64.0625 20.3125 
Q 66.796875 25.390625 67.375 31.046875 
Q 67.96875 36.71875 67.578125 42.578125 
Q 64.453125 42.1875 60.546875 42.578125 
Q 55.859375 37.109375 51.953125 34.765625 
Q 48.046875 32.421875 52.921875 38.46875 
Q 57.8125 44.53125 61.125 54.484375 
Q 64.453125 64.453125 64.0625 66.796875 
Q 63.671875 69.140625 63.46875 70.890625 
Q 63.28125 72.65625 68.15625 70.109375 
Q 73.046875 67.578125 71.28125 65.234375 
Q 69.53125 62.890625 67.765625 58 
Q 66.015625 53.125 61.328125 44.53125 
Q 70.703125 46.484375 76.75 49.40625 
Q 82.8125 52.34375 86.125 50.1875 
Q 89.453125 48.046875 85.15625 46.484375 
Q 80.859375 44.921875 69.140625 42.578125 
Q 75 40.625 73.625 36.71875 
Q 72.265625 32.8125 71.28125 27.734375 
Q 70.3125 22.65625 67.578125 16.015625 
Q 71.09375 11.71875 75.578125 8 
Q 80.078125 4.296875 84.953125 2.34375 
Q 89.84375 0.390625 93.359375 -0.96875 
Q 96.875 -2.34375 89.640625 -2.921875 
Q 82.421875 -3.515625 78.703125 -2.921875 
Q 75 -2.34375 73.234375 0.390625 
Q 71.484375 3.125 64.453125 12.5 
Q 60.9375 8.59375 57.421875 6.25 
Q 53.90625 3.90625 49.609375 2.734375 
Q 45.3125 1.5625 49.40625 4.09375 
Q 53.515625 6.640625 56.640625 9.765625 
Q 59.765625 12.890625 62.109375 16.40625 
Q 59.375 21.09375 56.828125 24.40625 
Q 54.296875 27.734375 52.53125 29.6875 
Q 50.78125 31.640625 52.921875 31.828125 
Q 55.078125 32.03125 56.4375 30.46875 
Q 57.8125 28.90625 64.0625 20.3125 
z
M 40.234375 25 
Q 41.015625 27.34375 40.8125 29.09375 
Q 40.625 30.859375 42.96875 29.296875 
Q 45.3125 27.734375 46.28125 26.5625 
Q 47.265625 25.390625 46.28125 23.4375 
Q 45.3125 21.484375 43.75 17.375 
Q 42.1875 13.28125 39.453125 8.59375 
Q 42.1875 6.640625 44.328125 4.6875 
Q 46.484375 2.734375 45.703125 -0.96875 
Q 44.921875 -4.6875 42.375 -1.5625 
Q 39.84375 1.5625 36.328125 4.296875 
Q 30.078125 -0.390625 24.796875 -2.34375 
Q 19.53125 -4.296875 14.25 -4.6875 
Q 8.984375 -5.078125 13.28125 -3.3125 
Q 17.578125 -1.5625 22.65625 0.78125 
Q 27.734375 3.125 32.03125 7.421875 
Q 27.34375 10.9375 25.578125 11.71875 
Q 23.828125 12.5 24.796875 14.0625 
Q 25.78125 15.625 26.5625 19.53125 
Q 16.40625 18.359375 13.46875 16.59375 
Q 10.546875 14.84375 6.640625 17.96875 
Q 2.734375 21.09375 7.8125 20.890625 
Q 12.890625 20.703125 27.734375 23.046875 
Q 28.90625 28.125 28.125 31.046875 
Q 27.34375 33.984375 31.640625 31.828125 
Q 35.9375 29.6875 35.15625 28.515625 
Q 34.375 27.34375 32.421875 23.828125 
z
M 44.921875 53.515625 
Q 48.828125 54.296875 50.390625 52.921875 
Q 51.953125 51.5625 48.4375 50.390625 
Q 44.921875 49.21875 36.71875 48.046875 
L 36.71875 44.921875 
Q 43.359375 44.140625 46.484375 41.984375 
Q 49.609375 39.84375 48.625 36.71875 
Q 47.65625 33.59375 43.9375 37.6875 
Q 40.234375 41.796875 36.71875 43.75 
Q 36.71875 39.0625 35.9375 35.734375 
Q 35.15625 32.421875 33.390625 35.34375 
Q 31.640625 38.28125 32.21875 40.625 
Q 32.8125 42.96875 32.421875 46.09375 
Q 23.046875 33.984375 15.234375 30.265625 
Q 7.421875 26.5625 11.90625 30.078125 
Q 16.40625 33.59375 21.28125 38.671875 
Q 26.171875 43.75 28.125 47.65625 
Q 22.65625 45.703125 20.5 45.3125 
Q 18.359375 44.921875 15.234375 47.0625 
Q 12.109375 49.21875 16.40625 49.015625 
Q 20.703125 48.828125 32.8125 51.171875 
L 32.8125 65.234375 
Q 32.8125 73.4375 31.4375 75.578125 
Q 30.078125 77.734375 31.046875 77.921875 
Q 32.03125 78.125 35.9375 76.359375 
Q 39.84375 74.609375 38.46875 72.265625 
Q 37.109375 69.921875 37.109375 51.953125 
z
M 35.15625 10.546875 
Q 38.28125 14.453125 40.234375 22.265625 
L 31.25 20.703125 
Q 28.515625 14.453125 28.703125 13.671875 
Q 28.90625 12.890625 30.265625 12.5 
Q 31.640625 12.109375 35.15625 10.546875 
z
M 50.78125 66.796875 
Q 53.90625 64.84375 51.5625 63.859375 
Q 49.21875 62.890625 43.15625 58.390625 
Q 37.109375 53.90625 40.625 58.390625 
Q 44.140625 62.890625 45.3125 66.203125 
Q 46.484375 69.53125 47.265625 69.140625 
Q 48.046875 68.75 50.78125 66.796875 
z
M 24.21875 56.25 
Q 21.09375 60.546875 20.109375 62.5 
Q 19.140625 64.453125 24.015625 63.28125 
Q 28.90625 62.109375 28.3125 57.21875 
Q 27.734375 52.34375 24.21875 56.25 
z
" id="KaiTi-25968"/>
     <path d="M 55.46875 38.671875 
Q 61.71875 40.234375 66.984375 42.375 
Q 72.265625 44.53125 75.578125 41.796875 
Q 78.90625 39.0625 70.890625 37.296875 
Q 62.890625 35.546875 55.46875 35.15625 
Q 54.6875 21.875 54.6875 12.890625 
Q 64.453125 14.0625 71.484375 14.640625 
Q 78.515625 15.234375 81.828125 15.421875 
Q 85.15625 15.625 88.078125 14.84375 
Q 91.015625 14.0625 92.578125 11.71875 
Q 94.140625 9.375 91.984375 8.78125 
Q 89.84375 8.203125 78.90625 8.78125 
Q 67.96875 9.375 53.515625 8 
Q 39.0625 6.640625 27.921875 4.875 
Q 16.796875 3.125 14.640625 2.734375 
Q 12.5 2.34375 8.390625 5.078125 
Q 4.296875 7.8125 9.765625 7.8125 
Q 15.234375 7.8125 29.6875 9.765625 
Q 29.6875 23.4375 28.703125 31.046875 
Q 27.734375 38.671875 25.96875 40.8125 
Q 24.21875 42.96875 26.5625 42.96875 
Q 28.90625 42.96875 32.421875 41.984375 
Q 35.9375 41.015625 34.953125 38.28125 
Q 33.984375 35.546875 33.984375 10.546875 
Q 41.796875 11.328125 50 12.109375 
L 50 48.828125 
Q 50 56.25 48.4375 59.375 
Q 35.9375 58.203125 32.421875 59.5625 
Q 28.90625 60.9375 34.5625 61.90625 
Q 40.234375 62.890625 51.171875 65.234375 
Q 62.109375 67.578125 66.203125 68.75 
Q 70.3125 69.921875 73.828125 67.765625 
Q 77.34375 65.625 70.5 63.671875 
Q 63.671875 61.71875 51.5625 59.765625 
Q 57.8125 57.03125 56.828125 53.90625 
Q 55.859375 50.78125 55.46875 38.671875 
z
" id="KaiTi-27491"/>
     <path d="M 41.015625 59.375 
Q 42.1875 64.0625 42.765625 69.921875 
Q 43.359375 75.78125 42.1875 78.515625 
Q 41.015625 81.25 43.359375 80.859375 
Q 45.703125 80.46875 48.828125 78.90625 
Q 51.953125 77.34375 50.578125 75.1875 
Q 49.21875 73.046875 48.625 69.53125 
Q 48.046875 66.015625 46.875 60.546875 
Q 59.375 63.28125 63.46875 64.640625 
Q 67.578125 66.015625 71.875 63.46875 
Q 76.171875 60.9375 71.484375 60.15625 
Q 66.796875 59.375 50.390625 57.03125 
Q 63.671875 43.359375 73.046875 39.640625 
Q 82.421875 35.9375 87.5 34.765625 
Q 92.578125 33.59375 87.890625 32.8125 
Q 83.203125 32.03125 76.171875 31.640625 
Q 69.140625 31.25 65.03125 35.734375 
Q 60.9375 40.234375 57.03125 44.71875 
Q 53.125 49.21875 47.65625 56.640625 
L 45.3125 55.859375 
Q 41.40625 45.3125 34.953125 38.46875 
Q 28.515625 31.640625 18.546875 29.09375 
Q 8.59375 26.5625 16.40625 30.265625 
Q 24.21875 33.984375 29.6875 39.640625 
Q 35.15625 45.3125 39.453125 55.078125 
Q 32.421875 53.90625 28.90625 53.125 
Q 25.390625 52.34375 23.046875 53.125 
Q 20.703125 53.90625 18.75 55.46875 
Q 16.796875 57.03125 21.875 57.03125 
Q 27.34375 57.03125 41.015625 59.375 
z
M 33.984375 14.0625 
Q 40.234375 4.296875 50.390625 2.53125 
Q 60.546875 0.78125 65.421875 1.75 
Q 70.3125 2.734375 69.53125 4.875 
Q 68.75 7.03125 66.796875 11.90625 
Q 64.84375 16.796875 69.71875 10.9375 
Q 74.609375 5.078125 78.90625 3.515625 
Q 83.203125 1.953125 78.90625 -0.78125 
Q 74.609375 -3.515625 68.15625 -4.296875 
Q 61.71875 -5.078125 52.53125 -4.296875 
Q 43.359375 -3.515625 37.5 2.34375 
Q 31.640625 8.203125 29.6875 16.015625 
Q 27.734375 23.828125 33.984375 14.0625 
z
M 72.265625 26.5625 
Q 80.078125 25.390625 83.390625 22.0625 
Q 86.71875 18.75 86.125 15.625 
Q 85.546875 12.5 81.828125 14.640625 
Q 78.125 16.796875 71.484375 22.265625 
Q 64.84375 27.734375 72.265625 26.5625 
z
M 14.0625 10.9375 
Q 17.1875 16.40625 18.546875 20.5 
Q 19.921875 24.609375 21.09375 19.140625 
Q 22.265625 13.671875 18.75 5.46875 
Q 15.234375 -2.734375 13.078125 1.5625 
Q 10.9375 5.859375 14.0625 10.9375 
z
M 48.828125 26.5625 
Q 55.859375 24.609375 55.859375 19.140625 
Q 55.859375 13.671875 51.171875 17.375 
Q 46.484375 21.09375 44.140625 24.796875 
Q 41.796875 28.515625 48.828125 26.5625 
z
M 46.09375 33.203125 
Q 41.796875 37.890625 40.421875 40.8125 
Q 39.0625 43.75 45.703125 40.8125 
Q 52.34375 37.890625 51.359375 33.390625 
Q 50.390625 28.90625 46.09375 33.203125 
z
" id="KaiTi-24577"/>
     <path d="M 66.40625 37.890625 
Q 72.265625 33.984375 69.71875 31.640625 
Q 67.1875 29.296875 65.625 25 
Q 64.453125 9.765625 60.9375 3.125 
Q 57.421875 -3.515625 51.953125 -6.046875 
Q 46.484375 -8.59375 46.28125 -4.6875 
Q 46.09375 -0.78125 43.15625 3.3125 
Q 40.234375 7.421875 42.765625 6.25 
Q 45.3125 5.078125 50 3.125 
Q 54.296875 3.125 56.828125 10.34375 
Q 59.375 17.578125 59.765625 23.625 
Q 60.15625 29.6875 59.765625 32.421875 
Q 59.375 35.15625 56.4375 34.953125 
Q 53.515625 34.765625 40.625 32.421875 
Q 45.703125 30.078125 43.75 27.734375 
Q 41.796875 25.390625 40.8125 22.65625 
Q 39.84375 19.921875 35.34375 13.46875 
Q 30.859375 7.03125 25 2.53125 
Q 19.140625 -1.953125 14.84375 -2.53125 
Q 10.546875 -3.125 13.859375 -1.171875 
Q 17.1875 0.78125 22.265625 5.46875 
Q 27.34375 10.15625 32.03125 18.15625 
Q 36.71875 26.171875 35.9375 31.25 
Q 32.421875 30.46875 29.296875 29.484375 
Q 26.171875 28.515625 22.65625 31.25 
Q 19.53125 33.59375 25 33.78125 
Q 30.46875 33.984375 42.96875 35.9375 
Q 54.296875 37.890625 57.21875 39.84375 
Q 60.15625 41.796875 66.40625 37.890625 
z
M 43.359375 79.296875 
Q 49.21875 79.296875 51.953125 74.796875 
Q 54.6875 70.3125 61.71875 62.890625 
Q 68.75 55.46875 75.390625 49.796875 
Q 82.03125 44.140625 90.03125 41.015625 
Q 98.046875 37.890625 94.71875 37.109375 
Q 91.40625 36.328125 82.8125 36.71875 
Q 74.21875 37.109375 72.265625 39.84375 
Q 70.3125 42.578125 65.421875 49.609375 
Q 60.546875 56.640625 57.21875 61.125 
Q 53.90625 65.625 50.78125 69.921875 
Q 47.65625 74.21875 45.5 75.390625 
Q 43.359375 76.5625 41.984375 76.953125 
Q 40.625 77.34375 40.234375 78.3125 
Q 39.84375 79.296875 43.359375 79.296875 
z
M 36.71875 55.859375 
Q 31.25 47.65625 25.578125 42.1875 
Q 19.921875 36.71875 14.84375 33.390625 
Q 9.765625 30.078125 7.421875 29.484375 
Q 5.078125 28.90625 7.421875 31.046875 
Q 9.765625 33.203125 14.84375 37.6875 
Q 19.921875 42.1875 25 49.40625 
Q 30.078125 56.640625 30.65625 59.765625 
Q 31.25 62.890625 30.65625 64.84375 
Q 30.078125 66.796875 32.03125 66.796875 
Q 33.984375 66.796875 38.46875 65.03125 
Q 42.96875 63.28125 40.625 61.125 
Q 38.28125 58.984375 36.71875 55.859375 
z
" id="KaiTi-20998"/>
     <path d="M 41.015625 36.71875 
Q 41.015625 31.25 40.8125 24.796875 
Q 40.625 18.359375 39.0625 13.671875 
Q 37.5 8.984375 35.546875 13.28125 
Q 33.59375 17.578125 34.765625 20.109375 
Q 35.9375 22.65625 36.328125 29.484375 
Q 36.71875 36.328125 35.15625 39.84375 
Q 31.25 33.984375 25.390625 28.515625 
Q 19.53125 23.046875 10.9375 19.328125 
Q 2.34375 15.625 10.734375 21.484375 
Q 19.140625 27.34375 26.953125 36.90625 
Q 34.765625 46.484375 41.015625 58.203125 
Q 27.734375 56.640625 23.4375 55.65625 
Q 19.140625 54.6875 15.234375 58 
Q 11.328125 61.328125 16.59375 60.9375 
Q 21.875 60.546875 42.96875 62.890625 
Q 44.53125 67.1875 45.703125 71.484375 
Q 46.875 75.78125 46.28125 78.515625 
Q 45.703125 81.25 48.4375 80.078125 
Q 51.171875 78.90625 53.3125 77.34375 
Q 55.46875 75.78125 53.90625 73.625 
Q 52.34375 71.484375 49.609375 63.671875 
Q 60.546875 64.84375 65.421875 65.421875 
Q 70.3125 66.015625 76.75 66.984375 
Q 83.203125 67.96875 86.515625 66.40625 
Q 89.84375 64.84375 90.625 62.890625 
Q 91.40625 60.9375 86.125 61.328125 
Q 80.859375 61.71875 71.28125 61.125 
Q 61.71875 60.546875 48.046875 59.375 
Q 40.234375 46.484375 37.109375 42.1875 
Q 39.84375 40.234375 42.578125 40.234375 
Q 45.3125 40.234375 54.296875 41.40625 
Q 54.296875 52.34375 52.53125 55.46875 
Q 50.78125 58.59375 54.296875 57.8125 
Q 57.8125 57.03125 59.5625 56.046875 
Q 61.328125 55.078125 60.546875 52.734375 
Q 59.765625 50.390625 59.375 41.796875 
Q 69.140625 42.96875 71.484375 43.9375 
Q 73.828125 44.921875 76.359375 43.75 
Q 78.90625 42.578125 81.046875 41.015625 
Q 83.203125 39.453125 81.640625 37.109375 
Q 80.078125 34.765625 79.875 28.703125 
Q 79.6875 22.65625 78.703125 19.328125 
Q 77.734375 16.015625 75 12.890625 
Q 72.265625 9.765625 71.484375 12.890625 
Q 70.703125 16.015625 65.625 19.71875 
Q 60.546875 23.4375 66.015625 22.0625 
Q 71.484375 20.703125 72.84375 22.453125 
Q 74.21875 24.21875 74.21875 30.859375 
Q 74.21875 37.890625 72.84375 38.859375 
Q 71.484375 39.84375 68.15625 39.640625 
Q 64.84375 39.453125 59.375 38.28125 
Q 59.375 13.28125 59.171875 8 
Q 58.984375 2.734375 58.203125 -4.09375 
Q 57.421875 -10.9375 56.046875 -10.734375 
Q 54.6875 -10.546875 54.484375 -1.75 
Q 54.296875 7.03125 54.296875 37.890625 
Q 45.3125 37.109375 41.015625 36.71875 
z
" id="KaiTi-24067"/>
     <path d="M 74.21875 2.34375 
Q 62.5 2.734375 23.046875 0.78125 
Q 22.65625 -6.640625 19.53125 -1.359375 
Q 16.40625 3.90625 17.96875 9.765625 
Q 19.53125 15.625 20.109375 26.953125 
Q 20.703125 38.28125 20.703125 51.5625 
Q 20.703125 64.84375 18.359375 68.15625 
Q 16.015625 71.484375 17.578125 71.484375 
Q 19.53125 71.484375 22.0625 70.703125 
Q 24.609375 69.921875 31.25 70.3125 
Q 37.890625 70.703125 51.359375 72.65625 
Q 64.84375 74.609375 67.96875 75.96875 
Q 71.09375 77.34375 75 75.578125 
Q 78.90625 73.828125 81.4375 71.09375 
Q 83.984375 68.359375 82.609375 65.625 
Q 81.25 62.890625 81.828125 43.75 
Q 82.421875 24.609375 83.390625 15.03125 
Q 84.375 5.46875 83.390625 -0.390625 
Q 82.421875 -6.25 80.65625 -8 
Q 78.90625 -9.765625 78.125 -6.640625 
Q 77.34375 -3.515625 74.21875 2.34375 
z
M 23.4375 4.296875 
Q 47.65625 5.859375 55.265625 6.640625 
Q 62.890625 7.421875 66.59375 7.609375 
Q 70.3125 7.8125 72.84375 5.859375 
Q 75.390625 3.90625 76.359375 7.609375 
Q 77.34375 11.328125 77.140625 24.40625 
Q 76.953125 37.5 76.5625 50.78125 
Q 76.171875 64.0625 73.625 67.765625 
Q 71.09375 71.484375 64.84375 70.890625 
Q 58.59375 70.3125 25.390625 66.796875 
Q 25.390625 37.109375 23.4375 4.296875 
z
M 44.140625 57.03125 
Q 47.265625 56.640625 50.1875 57.421875 
Q 53.125 58.203125 54.484375 59.171875 
Q 55.859375 60.15625 58.203125 59.375 
Q 60.546875 58.59375 62.5 57.03125 
Q 64.453125 55.46875 62.296875 54.09375 
Q 60.15625 52.734375 58.203125 49.609375 
Q 56.25 46.484375 53.125 42.578125 
Q 59.765625 37.5 64.0625 35.546875 
Q 68.359375 33.59375 73.234375 32.03125 
Q 78.125 30.46875 73.4375 29.484375 
Q 68.75 28.515625 64.453125 28.3125 
Q 60.15625 28.125 58 31.046875 
Q 55.859375 33.984375 50 39.0625 
Q 46.09375 34.765625 40.03125 30.46875 
Q 33.984375 26.171875 28.515625 24.609375 
Q 23.046875 23.046875 27.734375 25.78125 
Q 32.421875 28.515625 37.6875 33.390625 
Q 42.96875 38.28125 46.875 42.96875 
Q 41.40625 47.265625 38.671875 48.828125 
Q 33.984375 44.53125 31.046875 43.15625 
Q 28.125 41.796875 31.640625 45.3125 
Q 35.15625 48.828125 38.078125 55.265625 
Q 41.015625 61.71875 40.421875 65.234375 
Q 39.84375 68.75 42.96875 67.578125 
Q 46.09375 66.40625 47.65625 64.640625 
Q 49.21875 62.890625 47.84375 61.515625 
Q 46.484375 60.15625 44.140625 57.03125 
z
M 44.140625 18.359375 
Q 40.625 23.4375 46.28125 21.671875 
Q 51.953125 19.921875 54.6875 17.375 
Q 57.421875 14.84375 56.640625 11.125 
Q 55.859375 7.421875 51.953125 10.546875 
Q 48.046875 13.671875 44.140625 18.359375 
z
M 39.84375 50.390625 
Q 42.578125 50 44.140625 48.828125 
Q 45.703125 47.65625 48.828125 45.703125 
Q 51.953125 49.609375 52.734375 52.140625 
Q 53.515625 54.6875 51.171875 54.6875 
Q 49.21875 54.6875 47.265625 54.09375 
Q 45.3125 53.515625 42.96875 55.078125 
L 39.84375 50.390625 
z
M 51.953125 24.21875 
Q 47.65625 28.125 46.09375 30.859375 
Q 44.53125 33.59375 50.578125 31.640625 
Q 56.640625 29.6875 56.640625 25 
Q 56.640625 20.703125 51.953125 24.21875 
z
" id="KaiTi-22270"/>
    </defs>
    <g transform="translate(86.50625 18.410937)scale(0.14 -0.14)">
     <use xlink:href="#KaiTi-19978"/>
     <use x="100" xlink:href="#KaiTi-27773"/>
     <use x="200" xlink:href="#KaiTi-38598"/>
     <use x="300" xlink:href="#KaiTi-22242"/>
     <use x="400" xlink:href="#KaiTi-21644"/>
     <use x="500" xlink:href="#KaiTi-24191"/>
     <use x="600" xlink:href="#KaiTi-27773"/>
     <use x="700" xlink:href="#KaiTi-38598"/>
     <use x="800" xlink:href="#KaiTi-22242"/>
     <use x="900" xlink:href="#KaiTi-32929"/>
     <use x="1000" xlink:href="#KaiTi-20215"/>
     <use x="1100" xlink:href="#KaiTi-26381"/>
     <use x="1200" xlink:href="#KaiTi-20174"/>
     <use x="1300" xlink:href="#KaiTi-30340"/>
     <use x="1400" xlink:href="#KaiTi-23545"/>
     <use x="1500" xlink:href="#KaiTi-25968"/>
     <use x="1600" xlink:href="#KaiTi-27491"/>
     <use x="1700" xlink:href="#KaiTi-24577"/>
     <use x="1800" xlink:href="#KaiTi-20998"/>
     <use x="1900" xlink:href="#KaiTi-24067"/>
     <use x="2000" xlink:href="#KaiTi-22270"/>
    </g>
   </g>
   <g id="legend_1">
    <g id="patch_7">
     <path d="M 290.30625 75.204687 
L 391.10625 75.204687 
Q 393.90625 75.204687 393.90625 72.404687 
L 393.90625 34.210938 
Q 393.90625 31.410937 391.10625 31.410937 
L 290.30625 31.410937 
Q 287.50625 31.410937 287.50625 34.210938 
L 287.50625 72.404687 
Q 287.50625 75.204687 290.30625 75.204687 
z
" style="fill:#ffffff;opacity:0.8;stroke:#cccccc;stroke-linejoin:miter;"/>
    </g>
    <g id="line2d_37">
     <path d="M 293.10625 43.157812 
L 321.10625 43.157812 
" style="fill:none;stroke:#ff0000;stroke-linecap:square;stroke-width:2.5;"/>
    </g>
    <g id="line2d_38"/>
    <g id="text_21">
     <!-- 上汽集团 -->
     <g transform="translate(332.30625 48.057812)scale(0.14 -0.14)">
      <use xlink:href="#KaiTi-19978"/>
      <use x="100" xlink:href="#KaiTi-27773"/>
      <use x="200" xlink:href="#KaiTi-38598"/>
      <use x="300" xlink:href="#KaiTi-22242"/>
     </g>
    </g>
    <g id="line2d_39">
     <path d="M 293.10625 62.954687 
L 321.10625 62.954687 
" style="fill:none;stroke:#0000ff;stroke-linecap:square;stroke-width:2.5;"/>
    </g>
    <g id="line2d_40"/>
    <g id="text_22">
     <!-- 广汽集团 -->
     <g transform="translate(332.30625 67.854687)scale(0.14 -0.14)">
      <use xlink:href="#KaiTi-24191"/>
      <use x="100" xlink:href="#KaiTi-27773"/>
      <use x="200" xlink:href="#KaiTi-38598"/>
      <use x="300" xlink:href="#KaiTi-22242"/>
     </g>
    </g>
   </g>
  </g>
 </g>
 <defs>
  <clipPath id="p5501d0ba33">
   <rect height="217.44" width="334.8" x="66.10625" y="24.410937"/>
  </clipPath>
 </defs>
</svg>
